<svg width="189" height="62" viewBox="0 0 189 62" fill="none" xmlns="http://www.w3.org/2000/svg">
<rect x="1" y="1.18359" width="187" height="59.6332" rx="8" fill="white" stroke="#DEDEDE"/>
<path d="M73.9319 44.688H72.2907L72.1037 42.4965C71.7436 43.1831 71.155 43.7749 70.3378 44.2716C69.5207 44.7684 68.5373 45.0167 67.3878 45.0167C66.1274 45.0167 64.964 44.7172 63.8976 44.1182C62.8312 43.5046 61.9517 42.5695 61.2592 41.313C60.5805 40.0566 60.2412 38.5882 60.2412 36.908C60.2412 35.2279 60.6013 33.7595 61.3215 32.5031C62.0417 31.2466 62.942 30.3188 64.0223 29.7198C65.1164 29.1208 66.2867 28.8213 67.5332 28.8213C69.1121 28.8213 70.4833 29.2523 71.6467 30.1143C72.8239 30.9617 73.6272 32.094 74.0566 33.5112L72.2076 34.344C71.8752 33.219 71.2935 32.3497 70.4625 31.736C69.6453 31.1078 68.6689 30.7937 67.5332 30.7937C66.1067 30.7937 64.8809 31.3269 63.8561 32.3935C62.8312 33.46 62.3187 34.9649 62.3187 36.908C62.3187 38.8658 62.8173 40.3853 63.8145 41.4664C64.8256 42.533 66.0374 43.0663 67.4501 43.0663C68.2257 43.0663 68.9113 42.9348 69.5068 42.6718C70.1162 42.4088 70.5871 42.0655 70.9195 41.6418C71.2658 41.2035 71.522 40.7651 71.6882 40.3268C71.8683 39.8885 71.9721 39.4502 71.9998 39.0119H66.8892V37.0834H73.9319V44.688ZM78.9106 42.1896C79.52 42.8471 80.2609 43.1758 81.1335 43.1758C82.006 43.1758 82.7401 42.8471 83.3356 42.1896C83.945 41.5176 84.2497 40.5898 84.2497 39.4064C84.2497 38.2376 83.945 37.3244 83.3356 36.667C82.7401 35.9949 82.006 35.6589 81.1335 35.6589C80.2609 35.6589 79.52 35.9949 78.9106 36.667C78.315 37.3244 78.0172 38.2376 78.0172 39.4064C78.0172 40.5898 78.315 41.5176 78.9106 42.1896ZM77.4563 35.4178C78.4258 34.3513 79.6515 33.818 81.1335 33.818C82.6154 33.818 83.8342 34.3513 84.7899 35.4178C85.7594 36.4697 86.2441 37.7993 86.2441 39.4064C86.2441 41.0281 85.7663 42.3723 84.8107 43.4388C83.855 44.4908 82.6293 45.0167 81.1335 45.0167C79.6377 45.0167 78.412 44.4908 77.4563 43.4388C76.5007 42.3723 76.0229 41.0281 76.0229 39.4064C76.0229 37.7993 76.5007 36.4697 77.4563 35.4178ZM90.7994 42.1896C91.4088 42.8471 92.1498 43.1758 93.0223 43.1758C93.8949 43.1758 94.6289 42.8471 95.2245 42.1896C95.8339 41.5176 96.1386 40.5898 96.1386 39.4064C96.1386 38.2376 95.8339 37.3244 95.2245 36.667C94.6289 35.9949 93.8949 35.6589 93.0223 35.6589C92.1498 35.6589 91.4088 35.9949 90.7994 36.667C90.2038 37.3244 89.9061 38.2376 89.9061 39.4064C89.9061 40.5898 90.2038 41.5176 90.7994 42.1896ZM89.3451 35.4178C90.3146 34.3513 91.5404 33.818 93.0223 33.818C94.5043 33.818 95.7231 34.3513 96.6787 35.4178C97.6482 36.4697 98.1329 37.7993 98.1329 39.4064C98.1329 41.0281 97.6551 42.3723 96.6995 43.4388C95.7438 44.4908 94.5181 45.0167 93.0223 45.0167C91.5265 45.0167 90.3008 44.4908 89.3451 43.4388C88.3895 42.3723 87.9117 41.0281 87.9117 39.4064C87.9117 37.7993 88.3895 36.4697 89.3451 35.4178ZM99.9044 45.2578L101.795 44.7976C101.864 45.5427 102.148 46.1563 102.647 46.6385C103.145 47.1352 103.769 47.3836 104.516 47.3836C106.552 47.3836 107.57 46.244 107.57 43.9648V42.4526C107.321 42.964 106.926 43.3804 106.386 43.7018C105.86 44.0232 105.237 44.1839 104.516 44.1839C103.187 44.1839 102.086 43.7091 101.213 42.7594C100.354 41.7952 99.9251 40.5679 99.9251 39.0777C99.9251 37.6313 100.354 36.4186 101.213 35.4397C102.072 34.4462 103.173 33.9495 104.516 33.9495C106.04 33.9495 107.065 34.5047 107.591 35.615V34.1467H109.523V43.899C109.523 44.6003 109.433 45.2505 109.253 45.8495C109.087 46.4631 108.817 47.0256 108.443 47.537C108.069 48.0483 107.543 48.4501 106.864 48.7423C106.199 49.0345 105.417 49.1806 104.516 49.1806C103.284 49.1806 102.238 48.8081 101.379 48.063C100.521 47.3324 100.029 46.3974 99.9044 45.2578ZM104.807 42.4526C105.652 42.4526 106.338 42.1458 106.864 41.5322C107.39 40.9039 107.653 40.0858 107.653 39.0777C107.653 38.0696 107.39 37.2587 106.864 36.6451C106.338 36.0168 105.652 35.7027 104.807 35.7027C103.949 35.7027 103.249 36.0095 102.709 36.6231C102.183 37.2368 101.92 38.055 101.92 39.0777C101.92 40.115 102.176 40.9405 102.688 41.5541C103.215 42.1531 103.921 42.4526 104.807 42.4526ZM114.594 44.688H112.642V28.8213H114.594V44.688ZM119.184 38.3325H124.648C124.62 37.5436 124.371 36.9007 123.9 36.404C123.429 35.8926 122.764 35.637 121.905 35.637C121.13 35.637 120.493 35.9072 119.994 36.4478C119.495 36.9738 119.225 37.602 119.184 38.3325ZM124.938 41.072L126.621 41.6856C126.33 42.6645 125.79 43.468 125.001 44.0963C124.211 44.7099 123.256 45.0167 122.134 45.0167C120.735 45.0167 119.544 44.5127 118.56 43.5046C117.591 42.4819 117.106 41.1085 117.106 39.3845C117.106 37.7774 117.577 36.4478 118.519 35.3959C119.461 34.344 120.583 33.818 121.884 33.818C123.394 33.818 124.571 34.322 125.416 35.3301C126.261 36.3236 126.683 37.6605 126.683 39.3407C126.683 39.6036 126.67 39.8228 126.642 39.9981H119.121C119.135 40.9332 119.426 41.7002 119.994 42.2992C120.576 42.8982 121.289 43.1978 122.134 43.1978C123.56 43.1978 124.495 42.4892 124.938 41.072ZM136.614 36.404H139.564C140.436 36.404 141.129 36.1702 141.641 35.7027C142.154 35.2206 142.41 34.5777 142.41 33.7742C142.41 32.956 142.154 32.3058 141.641 31.8237C141.129 31.3269 140.436 31.0786 139.564 31.0786H136.614V36.404ZM139.938 38.3325H136.614V44.688H134.578V29.15H139.938C141.281 29.15 142.375 29.5883 143.22 30.4649C144.065 31.3416 144.488 32.4373 144.488 33.7522C144.488 35.0818 144.065 36.1775 143.22 37.0395C142.375 37.9015 141.281 38.3325 139.938 38.3325ZM148.516 44.688H146.563V28.8213H148.516V44.688ZM151.215 41.8609C151.215 40.9551 151.492 40.2319 152.046 39.6913C152.6 39.1361 153.334 38.7928 154.248 38.6613L156.949 38.2449C157.461 38.1718 157.717 37.9088 157.717 37.4559C157.717 36.9007 157.537 36.4478 157.177 36.0972C156.817 35.7465 156.277 35.5712 155.557 35.5712C154.892 35.5712 154.366 35.7685 153.978 36.1629C153.59 36.5428 153.361 37.0542 153.292 37.697L151.422 37.2368C151.519 36.2287 151.956 35.4105 152.731 34.7823C153.507 34.1394 154.435 33.818 155.515 33.818C156.928 33.818 157.974 34.1832 158.652 34.9138C159.331 35.6297 159.67 36.5501 159.67 37.6751V42.9567C159.67 43.5849 159.712 44.162 159.795 44.688H157.884C157.814 44.2497 157.78 43.7749 157.78 43.2635C157.503 43.731 157.094 44.1401 156.554 44.4908C156.028 44.8414 155.363 45.0167 154.56 45.0167C153.576 45.0167 152.773 44.7099 152.15 44.0963C151.526 43.468 151.215 42.7229 151.215 41.8609ZM154.83 43.2854C155.702 43.2854 156.402 43.037 156.928 42.5403C157.454 42.0435 157.717 41.2546 157.717 40.1734V39.6913L154.663 40.1734C154.22 40.2465 153.867 40.4145 153.604 40.6775C153.341 40.9405 153.209 41.2984 153.209 41.7513C153.209 42.1604 153.355 42.5184 153.645 42.8252C153.95 43.132 154.345 43.2854 154.83 43.2854ZM165.003 49.093H162.864L165.357 43.5265L161.056 34.1467H163.3L166.416 41.4226L169.408 34.1467H171.506L165.003 49.093Z" fill="#201D52"/>
<path opacity="0.6" d="M66.0179 20.6851V17.6049H63.2162V18.6066H64.989C64.9257 19.024 64.5221 19.7586 63.4853 19.7586C62.5435 19.7586 61.7125 19.0657 61.7125 17.7302C61.7125 16.3278 62.6305 15.7184 63.4774 15.7184C64.3875 15.7184 64.8545 16.3278 64.9969 16.8537L66.0416 16.4613C65.7646 15.5515 64.9494 14.6416 63.4774 14.6416C61.9578 14.6416 60.6045 15.8186 60.6045 17.7302C60.6045 19.6417 61.8945 20.8104 63.4061 20.8104C64.253 20.8104 64.807 20.4097 65.0602 20.009L65.1315 20.6851H66.0179ZM72.1178 20.6851V19.6H69.696V18.231H71.8883V17.2043H69.696V15.852H72.1178V14.7668H68.6038V20.6851H72.1178ZM78.9181 15.8603V14.7668H74.2724V15.8603H76.0452V20.6851H77.1453V15.8603H78.9181ZM85.7182 20.6851V14.7668H84.6102V20.6851H85.7182ZM92.6136 15.8603V14.7668H87.9679V15.8603H89.7407V20.6851H90.8408V15.8603H92.6136ZM99.1048 17.7218C99.1048 16.3862 99.9912 15.7518 100.854 15.7518C101.724 15.7518 102.611 16.3862 102.611 17.7218C102.611 19.0574 101.724 19.6918 100.854 19.6918C99.9912 19.6918 99.1048 19.0574 99.1048 17.7218ZM97.9731 17.7302C97.9731 19.6334 99.3344 20.8104 100.854 20.8104C102.381 20.8104 103.743 19.6334 103.743 17.7302C103.743 15.8186 102.381 14.6416 100.854 14.6416C99.3344 14.6416 97.9731 15.8186 97.9731 17.7302ZM110.962 20.6851V14.7668H109.87V18.6818L107.535 14.7668H106.173V20.6851H107.266V16.4864L109.814 20.6851H110.962Z" fill="#201D52"/>
<path d="M47.1479 29.0046L42.5355 26.1914L37.8135 31.1779L42.5352 36.1641L47.1636 33.3415C47.8853 32.8784 48.316 32.0695 48.316 31.1779C48.316 30.2863 47.885 29.4774 47.1479 29.0046Z" fill="#FFCE00"/>
<path d="M37.8133 31.1781L24.9515 17.498C24.5041 17.9705 24.2324 18.6115 24.2324 19.3201V42.9944C24.2324 43.703 24.5041 44.344 24.9515 44.8168L37.8133 31.1781Z" fill="url(#paint0_linear_1303_37082)"/>
<path d="M37.8132 31.178L42.5353 26.1915L42.5428 26.1836L36.2159 22.3367L27.8755 17.1604C27.1245 16.6711 26.2138 16.6542 25.4467 17.1097C25.2711 17.2276 25.1111 17.3459 24.9514 17.4976L37.8132 31.178Z" fill="#00F076"/>
<path d="M24.9512 44.8161C25.1108 44.9678 25.2709 45.0861 25.4465 45.204C25.8299 45.4233 26.2296 45.5416 26.6289 45.5416C27.0603 45.5416 27.4756 45.4068 27.8593 45.1706L36.2153 40.019L42.5422 36.1722L42.5347 36.1643L37.813 31.1777L24.9512 44.8161Z" fill="#F63448"/>
<defs>
<linearGradient id="paint0_linear_1303_37082" x1="18.4843" y1="37.987" x2="32.1232" y2="25.0711" gradientUnits="userSpaceOnUse">
<stop stop-color="#00E2FF"/>
<stop offset="1" stop-color="#00C5FF"/>
</linearGradient>
</defs>
</svg>
