<svg width="190" height="62" viewBox="0 0 190 62" fill="none" xmlns="http://www.w3.org/2000/svg">
<rect x="1" y="1" width="188" height="60" rx="8" fill="white" stroke="#DEDEDE"/>
<path d="M74.3194 45.4385L72.5944 41.0062H65.5603L63.8802 45.4385H61.528L67.8453 29.5672H70.3767L76.6939 45.4385H74.3194ZM69.055 31.8505L66.3444 38.9691H71.8104L69.055 31.8505ZM80.69 49.6917H78.6066V34.6711H80.6452V36.35C80.9588 35.7829 81.4292 35.3203 82.0565 34.9621C82.6837 34.6039 83.4155 34.4249 84.2518 34.4249C85.805 34.4249 87.0147 34.9546 87.8809 36.0142C88.762 37.0738 89.2026 38.4169 89.2026 40.0436C89.2026 41.6852 88.7471 43.0432 87.8361 44.1177C86.94 45.1922 85.7229 45.7295 84.1846 45.7295C83.3931 45.7295 82.6912 45.5653 82.0789 45.237C81.4666 44.9087 81.0036 44.4908 80.69 43.9834V49.6917ZM87.052 40.0436C87.052 38.9542 86.7608 38.0588 86.1784 37.3573C85.6109 36.641 84.8417 36.2828 83.871 36.2828C82.9152 36.2828 82.1386 36.641 81.5412 37.3573C80.9588 38.0588 80.6676 38.9542 80.6676 40.0436C80.6676 41.1629 80.9588 42.0807 81.5412 42.797C82.1386 43.4984 82.9152 43.8491 83.871 43.8491C84.8268 43.8491 85.5959 43.4984 86.1784 42.797C86.7608 42.0807 87.052 41.1629 87.052 40.0436ZM93.9691 49.6917H91.8858V34.6711H93.9243V36.35C94.238 35.7829 94.7084 35.3203 95.3356 34.9621C95.9629 34.6039 96.6947 34.4249 97.531 34.4249C99.0842 34.4249 100.294 34.9546 101.16 36.0142C102.041 37.0738 102.482 38.4169 102.482 40.0436C102.482 41.6852 102.026 43.0432 101.115 44.1177C100.219 45.1922 99.0021 45.7295 97.4638 45.7295C96.6723 45.7295 95.9704 45.5653 95.3581 45.237C94.7457 44.9087 94.2828 44.4908 93.9691 43.9834V49.6917ZM100.331 40.0436C100.331 38.9542 100.04 38.0588 99.4576 37.3573C98.89 36.641 98.1209 36.2828 97.1502 36.2828C96.1944 36.2828 95.4178 36.641 94.8204 37.3573C94.238 38.0588 93.9467 38.9542 93.9467 40.0436C93.9467 41.1629 94.238 42.0807 94.8204 42.797C95.4178 43.4984 96.1944 43.8491 97.1502 43.8491C98.106 43.8491 98.8751 43.4984 99.4576 42.797C100.04 42.0807 100.331 41.1629 100.331 40.0436ZM121.115 33.1713L119.144 33.8652C119.039 33.1787 118.703 32.5594 118.136 32.0072C117.568 31.4401 116.784 31.1566 115.784 31.1566C114.903 31.1566 114.171 31.4103 113.588 31.9177C113.005 32.4251 112.714 33.0519 112.714 33.7981C112.714 34.3801 112.886 34.8726 113.229 35.2755C113.588 35.6784 114.096 35.9545 114.753 36.1038L117.128 36.6186C118.442 36.9022 119.458 37.4394 120.174 38.2304C120.891 39.0064 121.25 39.954 121.25 41.0733C121.25 42.3567 120.742 43.4611 119.726 44.3864C118.711 45.3116 117.389 45.7743 115.761 45.7743C113.984 45.7743 112.587 45.3116 111.572 44.3864C110.571 43.4462 109.989 42.3344 109.824 41.0509L111.93 40.3794C112.02 41.3345 112.393 42.1404 113.05 42.797C113.708 43.4536 114.604 43.782 115.739 43.782C116.784 43.782 117.591 43.5432 118.158 43.0656C118.726 42.5881 119.01 41.9837 119.01 41.2524C119.01 40.6555 118.808 40.1406 118.405 39.7078C118.002 39.2601 117.412 38.9542 116.635 38.79L114.372 38.2975C113.192 38.0438 112.251 37.5439 111.549 36.7977C110.847 36.0515 110.496 35.1039 110.496 33.9548C110.496 32.7012 111.004 31.6043 112.02 30.6641C113.05 29.709 114.29 29.2314 115.739 29.2314C117.367 29.2314 118.614 29.6269 119.48 30.4179C120.346 31.2088 120.891 32.1266 121.115 33.1713ZM126.649 31.2685V34.6711H128.978V36.5739H126.649V42.1702C126.649 42.6776 126.761 43.0507 126.985 43.2895C127.224 43.5283 127.612 43.6476 128.149 43.6476C128.463 43.6476 128.739 43.6178 128.978 43.5581V45.3489C128.62 45.4832 128.142 45.5504 127.545 45.5504C126.619 45.5504 125.887 45.2818 125.349 44.7445C124.812 44.2073 124.543 43.4536 124.543 42.4836V36.5739H122.482V34.6711H123.064C123.617 34.6711 124.028 34.5219 124.296 34.2234C124.58 33.91 124.722 33.5071 124.722 33.0146V31.2685H126.649ZM133.897 42.8865C134.554 43.5581 135.353 43.8939 136.294 43.8939C137.235 43.8939 138.026 43.5581 138.669 42.8865C139.326 42.2001 139.654 41.2524 139.654 40.0436C139.654 38.8497 139.326 37.917 138.669 37.2454C138.026 36.5589 137.235 36.2157 136.294 36.2157C135.353 36.2157 134.554 36.5589 133.897 37.2454C133.255 37.917 132.934 38.8497 132.934 40.0436C132.934 41.2524 133.255 42.2001 133.897 42.8865ZM132.329 35.9695C133.374 34.88 134.696 34.3353 136.294 34.3353C137.892 34.3353 139.206 34.88 140.237 35.9695C141.282 37.0439 141.805 38.402 141.805 40.0436C141.805 41.7001 141.29 43.0731 140.259 44.1625C139.229 45.237 137.907 45.7743 136.294 45.7743C134.681 45.7743 133.359 45.237 132.329 44.1625C131.299 43.0731 130.783 41.7001 130.783 40.0436C130.783 38.402 131.299 37.0439 132.329 35.9695ZM150.481 34.5592V36.7977C150.167 36.7529 149.861 36.7306 149.562 36.7306C147.591 36.7306 146.605 37.8349 146.605 40.0436V45.4385H144.5V34.6711H146.56V36.5515C147.218 35.1785 148.293 34.492 149.786 34.492C150.025 34.492 150.257 34.5144 150.481 34.5592ZM153.982 38.9467H159.873C159.844 38.1408 159.575 37.4842 159.067 36.9768C158.559 36.4545 157.842 36.1933 156.916 36.1933C156.08 36.1933 155.393 36.4694 154.855 37.0216C154.318 37.5588 154.027 38.2005 153.982 38.9467ZM160.187 41.7449L162.002 42.3717C161.688 43.3716 161.106 44.1924 160.254 44.8341C159.403 45.4609 158.373 45.7743 157.163 45.7743C155.654 45.7743 154.37 45.2594 153.31 44.2297C152.264 43.185 151.742 41.7822 151.742 40.0212C151.742 38.3796 152.249 37.0216 153.265 35.9471C154.281 34.8726 155.49 34.3353 156.894 34.3353C158.522 34.3353 159.791 34.8502 160.702 35.8799C161.613 36.8947 162.069 38.2602 162.069 39.9764C162.069 40.2451 162.054 40.4689 162.024 40.648H153.915C153.93 41.6031 154.243 42.3866 154.855 42.9985C155.483 43.6103 156.252 43.9163 157.163 43.9163C158.701 43.9163 159.709 43.1925 160.187 41.7449Z" fill="#201D52"/>
<path opacity="0.6" d="M63.1727 19.8296V15.9665H64.1199C65.1099 15.9665 65.9291 16.5891 65.9291 17.9023C65.9291 19.2156 65.1013 19.8296 64.1114 19.8296H63.1727ZM64.1541 20.9212C65.8779 20.9212 67.1495 19.8126 67.1495 17.9023C67.1495 15.9921 65.8865 14.875 64.1626 14.875H61.995V20.9212H64.1541ZM70.0991 17.8938C70.0991 16.5294 71.0549 15.8813 71.9851 15.8813C72.9239 15.8813 73.8797 16.5294 73.8797 17.8938C73.8797 19.2583 72.9239 19.9064 71.9851 19.9064C71.0549 19.9064 70.0991 19.2583 70.0991 17.8938ZM68.8788 17.9023C68.8788 19.8467 70.3466 21.0491 71.9851 21.0491C73.6322 21.0491 75.1 19.8467 75.1 17.9023C75.1 15.9495 73.6322 14.7471 71.9851 14.7471C70.3466 14.7471 68.8788 15.9495 68.8788 17.9023ZM82.6628 19.0536L81.3145 14.875H80.0941L78.7543 19.0365L77.6449 14.875H76.3989L78.0801 20.9212H79.309L80.6915 16.6147L82.074 20.9212H83.2858L84.9585 14.875H83.7552L82.6628 19.0536ZM91.9848 20.9212V14.875H90.8071V18.8745L88.2896 14.875H86.8218V20.9212H87.9994V16.6317L90.7474 20.9212H91.9848ZM98.3052 20.9212V19.7955H95.6084V14.875H94.4308V20.9212H98.3052ZM100.935 17.8938C100.935 16.5294 101.891 15.8813 102.821 15.8813C103.759 15.8813 104.715 16.5294 104.715 17.8938C104.715 19.2583 103.759 19.9064 102.821 19.9064C101.891 19.9064 100.935 19.2583 100.935 17.8938ZM99.7143 17.9023C99.7143 19.8467 101.182 21.0491 102.821 21.0491C104.468 21.0491 105.936 19.8467 105.936 17.9023C105.936 15.9495 104.468 14.7471 102.821 14.7471C101.182 14.7471 99.7143 15.9495 99.7143 17.9023ZM111.837 20.9212H113.117L110.812 14.875H109.447L107.126 20.9212H108.372L108.875 19.5397H111.333L111.837 20.9212ZM110.104 16.1797L110.94 18.4652H109.268L110.104 16.1797ZM116.134 19.8296V15.9665H117.082C118.072 15.9665 118.891 16.5891 118.891 17.9023C118.891 19.2156 118.063 19.8296 117.073 19.8296H116.134ZM117.116 20.9212C118.84 20.9212 120.111 19.8126 120.111 17.9023C120.111 15.9921 118.848 14.875 117.124 14.875H114.957V20.9212H117.116ZM126.237 17.8938C126.237 16.5294 127.192 15.8813 128.123 15.8813C129.061 15.8813 130.017 16.5294 130.017 17.8938C130.017 19.2583 129.061 19.9064 128.123 19.9064C127.192 19.9064 126.237 19.2583 126.237 17.8938ZM125.016 17.9023C125.016 19.8467 126.484 21.0491 128.123 21.0491C129.77 21.0491 131.237 19.8467 131.237 17.9023C131.237 15.9495 129.77 14.7471 128.123 14.7471C126.484 14.7471 125.016 15.9495 125.016 17.9023ZM138.488 20.9212V14.875H137.31V18.8745L134.793 14.875H133.325V20.9212H134.503V16.6317L137.251 20.9212H138.488ZM148.565 15.9921V14.875H143.555V15.9921H145.467V20.9212H146.653V15.9921H148.565ZM155.461 20.9212V14.875H154.275V17.3054H151.638V14.875H150.46V20.9212H151.638V18.414H154.275V20.9212H155.461ZM161.699 20.9212V19.8126H159.088V18.414H161.452V17.3651H159.088V15.9836H161.699V14.875H157.91V20.9212H161.699Z" fill="#201D52"/>
<path d="M47.3034 39.0601C46.6107 40.5931 46.28 41.2773 45.388 42.6317C44.1452 44.5232 42.3917 46.879 40.2188 46.8989C38.2888 46.9169 37.7927 45.6437 35.1725 45.6591C32.5524 45.6744 32.0063 46.9216 30.0761 46.9036C27.9033 46.8843 26.2432 44.757 24.999 42.8642C21.5215 37.5743 21.1581 31.3671 23.3029 28.0673C24.8271 25.7207 27.2326 24.3497 29.4935 24.3497C31.7956 24.3497 33.2431 25.6108 35.1472 25.6108C36.994 25.6108 38.1187 24.3477 40.7809 24.3477C42.7931 24.3477 44.9252 25.4423 46.4447 27.3337C41.4663 30.0592 42.2757 37.1606 47.3034 39.0601Z" fill="#201D52"/>
<path d="M39.0407 21.0377C40.008 19.7971 40.7414 18.047 40.4747 16.2568C38.8946 16.3648 37.0478 17.3695 35.9691 18.6786C34.9897 19.8665 34.1809 21.6287 34.4956 23.3415C36.2191 23.3955 38.0039 22.3661 39.0407 21.0377Z" fill="#201D52"/>
</svg>
