<svg width="41" height="52" viewBox="0 0 41 52" fill="none" xmlns="http://www.w3.org/2000/svg">
<path id="Vector" fill-rule="evenodd" clip-rule="evenodd" d="M17.0127 49.4302H23.9873V49.8626C23.9873 51.0349 23.0364 52 21.8761 52H19.1282C17.968 52 17.0127 51.0349 17.0127 49.8626V49.4302ZM14.8449 45.1554H26.1594V45.5878C26.1594 46.7645 25.2042 47.7252 24.0439 47.7252H16.9604C15.7958 47.7252 14.8449 46.7645 14.8449 45.5878V45.1554ZM12.7295 40.8805H28.2709L28.2705 41.313C28.2705 42.4898 27.3196 43.4505 26.1594 43.4505H14.8449C13.6804 43.4505 12.7295 42.4898 12.7295 41.313V40.8805ZM20.5022 8.39725C27.6904 8.39725 33.5177 14.285 33.5177 21.5477C33.5177 28.8501 28.8986 28.4137 28.2748 39.1756H12.7295C12.1058 28.4137 7.48673 28.8501 7.48673 21.5477C7.48673 14.285 13.314 8.39725 20.5022 8.39725ZM12.8722 22.5809L12.3836 22.0872C12.0544 21.7545 11.5198 21.7545 11.1904 22.0872C10.8611 22.4199 10.8611 22.9601 11.1904 23.2928L11.679 23.7865L11.1904 24.2801C10.8611 24.6127 10.8611 25.153 11.1904 25.4856C11.5198 25.8183 12.0544 25.8183 12.3836 25.4856L12.8722 24.992L13.3608 25.4856C13.6901 25.8183 14.2247 25.8183 14.554 25.4856C14.8832 25.153 14.8832 24.6127 14.554 24.2801L14.0655 23.7865L14.554 23.2928C14.8832 22.9601 14.8832 22.4199 14.554 22.0872C14.2247 21.7545 13.6901 21.7545 13.3608 22.0872L12.8722 22.5809ZM18.6989 14.5359C17.7035 14.5359 16.8956 15.3523 16.8956 16.3579C16.8956 17.3635 17.7035 18.18 18.6989 18.18C19.6942 18.18 20.5022 17.3635 20.5022 16.3579C20.5022 15.3523 19.6942 14.5359 18.6989 14.5359ZM28.1278 21.4844L27.6392 20.9908C27.3099 20.6582 26.7753 20.6582 26.446 20.9908C26.1168 21.3235 26.1168 21.8637 26.446 22.1963L26.9346 22.69L26.446 23.1837C26.1168 23.5164 26.1168 24.0565 26.446 24.3892C26.7753 24.722 27.3099 24.722 27.6392 24.3892L28.1278 23.8956L28.6164 24.3892C28.9456 24.722 29.4802 24.722 29.8096 24.3892C30.1389 24.0565 30.1389 23.5164 29.8096 23.1837L29.321 22.69L29.8096 22.1963C30.1389 21.8637 30.1389 21.3235 29.8096 20.9908C29.4802 20.6582 28.9456 20.6582 28.6164 20.9908L28.1278 21.4844ZM26.4471 17.4709L26.7703 17.8204C27.0882 18.1643 27.6225 18.1826 27.9628 17.8615C28.3031 17.5403 28.3213 17.0004 28.0033 16.6566L26.3749 14.8953C26.0833 14.5799 25.6044 14.5345 25.2598 14.7895L23.412 16.157C23.0363 16.435 22.9548 16.9688 23.2299 17.3484C23.5051 17.728 24.0335 17.8104 24.4091 17.5324L24.7694 17.2658C24.5762 18.3192 24.2287 19.1039 23.7672 19.7083C22.7966 20.9793 21.3677 21.4591 20.0342 22.0445C18.67 22.6432 17.3881 23.3295 16.5117 24.6355C15.6512 25.918 15.1562 27.8274 15.4859 30.9572C15.5352 31.4249 15.9511 31.7643 16.4142 31.7146C16.8772 31.6647 17.2131 31.2444 17.1639 30.7766C16.8942 28.2171 17.2047 26.6409 17.9083 25.5923C18.596 24.5675 19.6363 24.078 20.7066 23.6082C22.2944 22.9112 23.9475 22.2631 25.1032 20.7497C25.7156 19.9478 26.1993 18.9036 26.4471 17.4709ZM22.4337 27.2229C21.4383 27.2229 20.6304 28.0393 20.6304 29.0449C20.6304 30.0505 21.4383 30.8669 22.4337 30.8669C23.4289 30.8669 24.237 30.0505 24.237 29.0449C24.237 28.0393 23.4289 27.2229 22.4337 27.2229ZM21.3459 3.95061C21.3459 4.42107 20.9678 4.80307 20.5022 4.80307C20.0365 4.80307 19.6585 4.42107 19.6585 3.95061V0.852459C19.6585 0.382008 20.0365 0 20.5022 0C20.9678 0 21.3459 0.382008 21.3459 0.852459V3.95061ZM11.4148 6.18235C11.6474 6.58993 11.5086 7.11164 11.1052 7.3466C10.7017 7.58145 10.1854 7.44133 9.95289 7.03364L8.42188 4.34978C8.18933 3.9422 8.32812 3.42049 8.73162 3.18553C9.13502 2.95057 9.65137 3.0908 9.88392 3.49849L11.4148 6.18235ZM3.92227 13.1327C4.32545 13.3682 4.46351 13.89 4.23054 14.2973C3.99746 14.7046 3.48101 14.8442 3.07782 14.6088L0.421503 13.0575C0.0183149 12.822 -0.119737 12.3002 0.113233 11.8929C0.346307 11.4855 0.862763 11.346 1.26595 11.5814L3.92227 13.1327ZM31.0466 7.0346C30.8136 7.44197 30.2971 7.58145 29.894 7.34607C29.4908 7.11057 29.3526 6.58876 29.5857 6.18139L31.121 3.49753C31.354 3.09016 31.8706 2.95068 32.2737 3.18607C32.6768 3.42156 32.815 3.94337 32.5819 4.35074L31.0466 7.0346ZM37.927 14.6085C37.5241 14.8442 37.0075 14.705 36.7741 14.2979C36.5408 13.8906 36.6786 13.3687 37.0816 13.133L39.7335 11.5817C40.1365 11.346 40.6532 11.4852 40.8865 11.8923C41.1197 12.2995 40.982 12.8214 40.579 13.0572L37.927 14.6085Z" fill="#17479E"/>
</svg>
