<svg width="48" height="48" viewBox="0 0 48 48" fill="none" xmlns="http://www.w3.org/2000/svg">
<g id="team" clip-path="url(#clip0_1303_36461)">
<path id="Vector" d="M8.69087 18.4748L9.10385 18.7136V21.3346L7.22198 21.8049L11.5866 24.3511L11.5551 25.8814L11.488 26.1158L14.0694 25.5412V24.9282C14.0694 23.8157 14.5187 22.797 15.2546 22.0442L12.415 21.3346L12.4118 18.7156L12.8256 18.4764C14.1033 17.7365 14.897 16.3642 14.897 14.8953V13.4487C14.897 11.1199 13.0979 9.1709 10.8863 9.10463C9.76576 9.06099 8.68763 9.48448 7.87742 10.27C7.06721 11.056 6.62109 12.1115 6.62109 13.2401V14.8953C6.62109 16.3642 7.41393 17.7365 8.69087 18.4748Z" fill="#17479E"/>
<path id="Vector_2" d="M14.859 9.23438C16.8039 6.10345 20.2605 4.13793 24.0012 4.13793C27.7152 4.13793 31.1622 6.08526 33.1127 9.18548C33.1459 9.15234 33.175 9.11598 33.2089 9.08284C33.7245 8.58217 34.3169 8.19626 34.9558 7.92147L35.8945 5.7236L33.2538 3.08203L30.9266 4.59658L30.4813 4.32341C29.3656 3.63968 28.1598 3.13901 26.8978 2.83715L26.3878 2.71431L25.8128 0H22.1888L21.6146 2.71431L21.1055 2.83594C19.8435 3.1382 18.6377 3.63887 17.522 4.3226L17.0766 4.59577L14.7495 3.08122L12.1055 5.72522L13.0341 7.93885C13.7194 8.24758 14.3385 8.68966 14.859 9.23438Z" fill="#17479E"/>
<path id="Vector_3" d="M0 19.0352V34.1624L3.55199 35.3468L6.55523 23.3343L0 19.0352Z" fill="#17479E"/>
<path id="Vector_4" d="M33.9293 19.6449C32.3869 18.5676 31.4465 16.7908 31.4465 14.8964V13.2412C31.4465 12.3292 31.6607 11.4543 32.0547 10.6643C30.4888 7.69383 27.3741 5.79297 23.9982 5.79297C20.5901 5.79297 17.462 7.71969 15.9079 10.731C16.3156 11.5513 16.55 12.4759 16.55 13.4498V14.8964C16.55 16.7908 15.6088 18.5692 14.0664 19.6457V20.0422L17.3776 20.871L20.6879 20.0422V19.6449C19.1455 18.5676 18.2051 16.7908 18.2051 14.8964V13.2412C18.2051 11.6604 18.8299 10.1843 19.9646 9.08351C21.0985 7.98276 22.592 7.40531 24.1761 7.45057C27.2722 7.54432 29.7914 10.2348 29.7914 13.4498V14.8964C29.7914 16.7908 28.8502 18.5692 27.3078 19.6457V20.0422L30.6189 20.871L33.9293 20.0422V19.6449Z" fill="#17479E"/>
<path id="Vector_5" d="M9.93009 25.3039L8.04256 24.2031L5.125 35.8722L6.75391 36.4149H6.82341L9.93009 25.5403V25.3039Z" fill="#17479E"/>
<path id="Vector_6" d="M17.6029 22.519C16.4965 22.7962 15.7227 23.787 15.7227 24.9282V25.1731L16.1971 25.068C17.9448 24.6809 19.7927 24.7625 21.5 25.3096L25.2464 26.507C25.661 26.5227 26.0739 26.5684 26.474 26.6828L31.5628 28.1367H32.0699L32.2744 28.0292V24.9282C32.2744 23.787 31.5005 22.7962 30.3941 22.519L25.6545 21.3346L25.6513 18.7156L26.0651 18.4764C27.3428 17.7365 28.1364 16.3642 28.1364 14.8953V13.4487C28.1364 11.1199 26.3374 9.1709 24.1258 9.10463C23.0089 9.06099 21.9271 9.48448 21.1169 10.27C20.3067 11.056 19.8606 12.1115 19.8606 13.2401V14.8953C19.8606 16.3642 20.6534 17.7365 21.9304 18.4748L22.3433 18.7136V21.3346L17.6029 22.519Z" fill="#17479E"/>
<path id="Vector_7" d="M33.1037 13.2401V14.8953C33.1037 16.3642 33.8966 17.7365 35.1735 18.4748L35.5865 18.7136V21.3346L32.7461 22.0442C33.4811 22.797 33.9313 23.8149 33.9313 24.9282V27.1576L43.0323 22.3674L38.8976 21.3346L38.8944 18.7156L39.3082 18.4764C40.5859 17.7365 41.3796 16.3642 41.3796 14.8953V13.4486C41.3796 11.1199 39.5805 9.1709 37.3689 9.10463C36.246 9.06099 35.1711 9.48448 34.36 10.27C33.5498 11.056 33.1037 12.1115 33.1037 13.2401Z" fill="#17479E"/>
<path id="Vector_8" d="M25.8152 32.7086C25.2806 32.2278 24.4498 32.1457 23.8307 32.5175L20.7487 34.3654C20.3203 34.6236 19.8261 34.7602 19.3238 34.7602C17.7951 34.7602 16.5513 33.5164 16.5513 31.9877V31.8241C16.5513 30.7678 17.1381 29.8177 18.0841 29.3445L22.2171 27.278L20.998 26.888C19.5679 26.4306 18.0226 26.3595 16.5578 26.6872L10.9708 27.9294L8.74219 35.7292L11.2848 37.2547C11.3575 37.1569 11.4294 37.0583 11.5163 36.9714L12.971 35.5167C13.4503 35.0358 14.1158 34.7602 14.7959 34.7602C16.1888 34.7602 17.3211 35.8707 17.3696 37.2523C18.7197 37.3 19.8047 38.385 19.8524 39.735C21.2025 39.7827 22.2874 40.8677 22.3351 42.2178C23.3143 42.2525 24.1503 42.8324 24.5572 43.664L26.4044 45.2036C26.6472 45.4061 26.9568 45.5188 27.2744 45.5188C27.7504 45.5188 28.1375 45.1317 28.1375 44.6557C28.1375 44.3983 28.024 44.1566 27.8272 43.9926L23.469 40.3614L24.5294 39.0893L29.0245 42.8348C29.1793 42.965 29.3757 43.0361 29.5765 43.0361H29.7571C30.2332 43.0361 30.6203 42.649 30.6203 42.1729C30.6203 41.9155 30.5067 41.6739 30.3099 41.5098L25.9518 37.8786L27.0121 36.6065L31.5 40.3464C31.6588 40.4798 31.8625 40.5533 32.0694 40.5533H32.2124C32.7042 40.5533 33.103 40.1545 33.103 39.6635C33.103 39.4114 32.9956 39.1705 32.8085 39.0016L25.8152 32.7086Z" fill="#17479E"/>
<path id="Vector_9" d="M32.4805 29.7934L31.2217 29.7619L26.021 28.2764C25.1696 28.0315 24.2317 28.1208 23.4417 28.5156L18.8253 30.8238C18.4438 31.015 18.207 31.3972 18.207 31.8227V31.9864C18.207 32.6022 18.7077 33.1037 19.3244 33.1037C19.5264 33.1037 19.724 33.0492 19.897 32.9457L22.9798 31.097C23.4987 30.785 24.0902 30.621 24.6944 30.621C25.5195 30.621 26.3116 30.9248 26.9242 31.4768L33.9154 37.7698C33.9651 37.8143 34.0124 37.8599 34.0577 37.908L48.0001 30.937V21.625L32.4805 29.7934Z" fill="#17479E"/>
<path id="Vector_10" d="M24.592 45.8477C24.4647 46.1317 24.2926 46.3948 24.0707 46.6166L23.4492 47.2381L24.0683 47.7841C24.2255 47.9235 24.4283 48.0003 24.6385 48.0003H24.7916C25.2676 48.0003 25.6548 47.6131 25.6548 47.1371C25.6548 46.8797 25.5412 46.6381 25.3444 46.474L24.592 45.8477Z" fill="#17479E"/>
<path id="Vector_11" d="M22.2458 43.8594C22.0018 43.8594 21.7625 43.958 21.5896 44.1309L20.1348 45.5857C19.9619 45.7586 19.8633 45.9978 19.8633 46.2419C19.8633 46.7535 20.2795 47.1697 20.7911 47.1697C21.0352 47.1697 21.2744 47.0711 21.4473 46.8982L22.9021 45.4434C23.075 45.2705 23.1736 45.0312 23.1736 44.7872C23.1736 44.2756 22.7574 43.8594 22.2458 43.8594Z" fill="#17479E"/>
<path id="Vector_12" d="M18.2088 39.8262C18.2088 39.3147 17.7926 38.8984 17.281 38.8984C17.0369 38.8984 16.7977 38.997 16.6247 39.17L15.17 40.6247C14.997 40.7977 14.8984 41.0369 14.8984 41.281C14.8984 41.7926 15.3147 42.2088 15.8262 42.2088C16.0703 42.2088 16.3095 42.1102 16.4825 41.9372L17.9372 40.4825C18.1102 40.3095 18.2088 40.0703 18.2088 39.8262Z" fill="#17479E"/>
<path id="Vector_13" d="M20.6893 42.3067C20.6893 41.7951 20.273 41.3789 19.7614 41.3789C19.5174 41.3789 19.2782 41.4775 19.1052 41.6505L17.6505 43.1052C17.4775 43.2782 17.3789 43.5174 17.3789 43.7614C17.3789 44.273 17.7951 44.6893 18.3067 44.6893C18.5508 44.6893 18.79 44.5907 18.963 44.4177L20.4177 42.963C20.5907 42.79 20.6893 42.5508 20.6893 42.3067Z" fill="#17479E"/>
<path id="Vector_14" d="M15.7244 37.3419C15.7244 36.8303 15.3082 36.4141 14.7966 36.4141C14.5525 36.4141 14.3133 36.5127 14.1404 36.6856L12.6856 38.1404C12.5127 38.3133 12.4141 38.5525 12.4141 38.7966C12.4141 39.3082 12.8303 39.7244 13.3419 39.7244C13.5859 39.7244 13.8252 39.6258 13.9981 39.4529L15.4529 37.9981C15.6258 37.8252 15.7244 37.5859 15.7244 37.3419Z" fill="#17479E"/>
</g>
<defs>
<clipPath id="clip0_1303_36461">
<rect width="48" height="48" fill="white"/>
</clipPath>
</defs>
</svg>
