<svg width="46" height="47" viewBox="0 0 46 47" fill="none" xmlns="http://www.w3.org/2000/svg">
<g id="skill-development" clip-path="url(#clip0_1303_36452)">
<g id="Group">
<path id="Vector" d="M18.957 46.5V42.3672C15.984 42.3672 13.5664 39.9496 13.5664 36.9766C13.5664 34.0035 15.984 31.5859 18.957 31.5859V27.543H11.4238L12.0648 25.7426C12.1674 25.457 12.2188 25.1556 12.2188 24.8477C12.2188 23.3618 11.0093 22.1523 9.52344 22.1523C8.0376 22.1523 6.82812 23.3618 6.82812 24.8477C6.82812 25.1556 6.87943 25.457 6.98212 25.7426L7.62306 27.543H0C0.668707 37.6137 8.88627 45.8313 18.957 46.5Z" fill="#17479E"/>
<path id="Vector_2" d="M9.52344 19.4561C12.4965 19.4561 14.9141 21.8737 14.9141 24.8468H18.957V17.3135L20.7574 17.9545C22.417 18.5454 24.3463 17.2056 24.3477 15.4132C24.3463 13.6193 22.4183 12.2691 20.7574 12.8718L18.957 13.5128V6.04785C8.88627 6.71656 0.668707 14.776 0 24.8468H4.13281C4.13281 21.8737 6.55042 19.4561 9.52344 19.4561Z" fill="#17479E"/>
<path id="Vector_3" d="M40.4512 27.543H36.4766C36.4766 30.516 34.059 32.9336 31.0859 32.9336C28.1129 32.9336 25.6953 30.516 25.6953 27.543H21.6523V35.0762L19.852 34.4352C18.1858 33.8364 16.2604 35.1827 16.2617 36.9766C16.2604 38.7704 18.1872 40.1167 19.852 39.5179L21.6523 38.8769V46.5C31.7231 45.8313 39.7825 37.6137 40.4512 27.543Z" fill="#17479E"/>
<path id="Vector_4" d="M40.5195 11.3711V5.98047H35.1289C35.1289 3.00745 32.7113 0.5 29.7383 0.5C26.7653 0.5 24.3477 3.00745 24.3477 5.98047H21.6523V10.0234C24.6254 10.0234 27.043 12.441 27.043 15.4141C27.043 18.3871 24.6254 20.8047 21.6523 20.8047V24.8477H29.1856L28.5446 26.648C28.4419 26.9336 28.3906 27.235 28.3906 27.543C28.3906 29.0288 29.6001 30.2383 31.0859 30.2383C32.5718 30.2383 33.7812 29.0288 33.7812 27.543C33.7812 27.235 33.7299 26.9336 33.6273 26.648L32.9863 24.8477H40.5195V22.1523C43.4925 22.1523 46 19.7347 46 16.7617C46 13.7887 43.4925 11.3711 40.5195 11.3711Z" fill="#17479E"/>
</g>
</g>
<defs>
<clipPath id="clip0_1303_36452">
<rect width="46" height="46" fill="white" transform="translate(0 0.5)"/>
</clipPath>
</defs>
</svg>
