<svg width="13" height="12" viewBox="0 0 13 12" fill="none" xmlns="http://www.w3.org/2000/svg">
<path d="M0.0488281 6C0.0488281 2.68641 2.73523 0 6.04883 0C9.36242 0 12.0488 2.68641 12.0488 6C12.0488 9.31359 9.36242 12 6.04883 12C2.73523 12 0.0488281 9.31359 0.0488281 6ZM6.21992 9.44531L8.29133 7.39148C8.31498 7.36925 8.33394 7.3425 8.34709 7.31281C8.36024 7.28313 8.3673 7.25111 8.36787 7.21865C8.36844 7.18619 8.3625 7.15394 8.3504 7.12381C8.3383 7.09369 8.32028 7.06629 8.29742 7.04324C8.27456 7.02019 8.24731 7.00195 8.21729 6.98961C8.18726 6.97726 8.15506 6.97106 8.1226 6.97136C8.09013 6.97166 8.05806 6.97847 8.02827 6.99137C7.99847 7.00427 7.97157 7.02301 7.94914 7.04648L6.29187 8.68992L6.29187 2.72742C6.29187 2.66296 6.26627 2.60114 6.22069 2.55556C6.17511 2.50998 6.11329 2.48437 6.04883 2.48437C5.98437 2.48437 5.92255 2.50998 5.87697 2.55556C5.83139 2.60114 5.80578 2.66296 5.80578 2.72742L5.80578 8.68969L4.14852 7.04625C4.12609 7.02278 4.09918 7.00404 4.06939 6.99113C4.0396 6.97823 4.00752 6.97143 3.97506 6.97112C3.94259 6.97082 3.9104 6.97703 3.88037 6.98937C3.85035 7.00172 3.8231 7.01996 3.80023 7.04301C3.77737 7.06606 3.75936 7.09345 3.74726 7.12358C3.73516 7.15371 3.72922 7.18595 3.72979 7.21841C3.73035 7.25088 3.73742 7.28289 3.75057 7.31258C3.76371 7.34226 3.78267 7.36901 3.80633 7.39125L5.87773 9.44531C5.92322 9.49048 5.98472 9.51583 6.04883 9.51583C6.11293 9.51583 6.17444 9.49048 6.21992 9.44531Z" fill="white"/>
</svg>
