<svg width="24" height="24" viewBox="0 0 24 24" fill="none" xmlns="http://www.w3.org/2000/svg">
<g id="contract" clip-path="url(#clip0_675_55238)">
<g id="Group">
<g id="Group_2">
<path id="Vector" d="M18.2578 4.09791C18.2578 3.53484 18.038 3.00478 17.6398 2.60653L15.6513 0.618C15.2585 0.225234 14.701 0 14.1462 0H14.0254V4.21875H18.2578L18.2578 4.09791Z" fill="#17479E"/>
</g>
</g>
<g id="Group_3">
<g id="Group_4">
<path id="Vector_2" d="M12.8408 14.5095C12.9754 14.101 13.2102 13.7206 13.5165 13.4123L18.2772 8.67075V5.625H13.3365C12.9479 5.625 12.6562 5.31052 12.6562 4.92188V0H2.10938C0.946219 0 0 0.946219 0 2.10938V21.8906C0 23.0538 0.946219 24 2.10938 24H16.149C17.3122 24 18.2772 23.0538 18.2772 21.8906V16.6429L17.5045 17.3969C17.1914 17.7072 16.8248 17.9331 16.4114 18.0712L14.1757 18.8175L13.8351 18.8361C13.272 18.8361 12.7392 18.5621 12.4082 18.1035C12.08 17.6468 11.9908 17.055 12.1693 16.5201L12.8408 14.5095ZM3.51562 12.6562H10.524C10.9127 12.6562 11.2272 12.9707 11.2272 13.3594C11.2272 13.748 10.9127 14.0625 10.524 14.0625H3.51562C3.12698 14.0625 2.8125 13.748 2.8125 13.3594C2.8125 12.9707 3.12698 12.6562 3.51562 12.6562ZM2.8125 10.5469C2.8125 10.1582 3.12698 9.84375 3.51562 9.84375H10.524C10.9127 9.84375 11.2272 10.1582 11.2272 10.5469C11.2272 10.9355 10.9127 11.25 10.524 11.25H3.51562C3.12698 11.25 2.8125 10.9355 2.8125 10.5469ZM2.8125 16.1719C2.8125 15.7832 3.12698 15.4688 3.51562 15.4688H10.524C10.9127 15.4688 11.2272 15.7832 11.2272 16.1719C11.2272 16.5605 10.9127 16.875 10.524 16.875H3.51562C3.12698 16.875 2.8125 16.5605 2.8125 16.1719ZM13.3365 19.6875C13.7252 19.6875 14.0397 20.002 14.0397 20.3906C14.0397 20.7793 13.7252 21.0938 13.3365 21.0938H9.1178C8.72916 21.0938 8.41467 20.7793 8.41467 20.3906C8.41467 20.002 8.72916 19.6875 9.1178 19.6875H13.3365ZM3.51562 8.4375C3.12698 8.4375 2.8125 8.12302 2.8125 7.73438C2.8125 7.34573 3.12698 7.03125 3.51562 7.03125H13.3365C13.7252 7.03125 14.0397 7.34573 14.0397 7.73438C14.0397 8.12302 13.7252 8.4375 13.3365 8.4375H3.51562Z" fill="#17479E"/>
</g>
</g>
<g id="Group_5">
<g id="Group_6">
<path id="Vector_3" d="M14.1148 15.1316L13.503 16.9668C13.4114 17.2417 13.673 17.5032 13.9479 17.4114L15.782 16.7988L14.1148 15.1316Z" fill="#17479E"/>
</g>
</g>
<g id="Group_7">
<g id="Group_8">
<path id="Vector_4" d="M19.576 9.34253L14.9453 13.9733L16.9424 15.9704C17.989 14.9236 20.0255 12.8868 21.5729 11.3394L19.576 9.34253Z" fill="#17479E"/>
</g>
</g>
<g id="Group_9">
<g id="Group_10">
<path id="Vector_5" d="M23.5875 7.32576C23.3403 7.07718 22.9764 6.93506 22.5904 6.93506C22.2045 6.93506 21.8406 7.07718 21.592 7.32646L20.5703 8.3482L22.5671 10.345C23.1265 9.78557 23.5131 9.39895 23.5889 9.32315C24.1382 8.77307 24.1381 7.87711 23.5875 7.32576Z" fill="#17479E"/>
</g>
</g>
<g id="Group_11">
<g id="Group_12">
<g id="Group_13">
<path id="Vector_6" d="M23.5879 9.32322L23.588 9.32312C23.5898 9.32134 23.5906 9.32054 23.592 9.31909C23.5906 9.32059 23.5898 9.32139 23.5879 9.32322Z" fill="#17479E"/>
<path id="Vector_7" d="M23.5918 9.3191C23.594 9.31685 23.5967 9.31423 23.598 9.31287C23.5966 9.31427 23.594 9.31685 23.5918 9.3191Z" fill="#17479E"/>
<path id="Vector_8" d="M23.5977 9.31289C23.6022 9.30835 23.6023 9.30825 23.5977 9.31289V9.31289Z" fill="#17479E"/>
</g>
</g>
</g>
</g>
<defs>
<clipPath id="clip0_675_55238">
<rect width="24" height="24" fill="white"/>
</clipPath>
</defs>
</svg>
