<svg width="24" height="24" viewBox="0 0 24 24" fill="none" xmlns="http://www.w3.org/2000/svg">
<g id="gold-ingots" clip-path="url(#clip0_675_55265)">
<g id="Group">
<path id="Vector" d="M12 5.62469C12.3884 5.62469 12.7032 5.30986 12.7032 4.92153V2.43704C12.7032 2.04871 12.3884 1.73389 12 1.73389C11.6117 1.73389 11.2969 2.04871 11.2969 2.43704V4.92153C11.2969 5.30986 11.6117 5.62469 12 5.62469Z" fill="#17479E"/>
<path id="Vector_2" d="M8.12092 6.81923C8.39548 7.09384 8.84072 7.09389 9.11533 6.81923C9.38993 6.54463 9.38993 6.09943 9.11533 5.82483L7.35856 4.06802C7.084 3.79341 6.63876 3.79341 6.36416 4.06802C6.08955 4.34262 6.08955 4.78781 6.36416 5.06242L8.12092 6.81923Z" fill="#17479E"/>
<path id="Vector_3" d="M15.3797 7.02509C15.5597 7.02509 15.7397 6.95646 15.8769 6.81911L17.6337 5.0623C17.9083 4.78769 17.9083 4.3425 17.6337 4.06789C17.3592 3.79329 16.9139 3.79329 16.6393 4.06789L14.8825 5.82471C14.4383 6.26896 14.7589 7.02509 15.3797 7.02509Z" fill="#17479E"/>
<path id="Vector_4" d="M18.1418 14.8595L16.4209 9.35268C16.3292 9.05914 16.0573 8.85925 15.7498 8.85925H8.24947C7.94191 8.85925 7.67007 9.05914 7.57833 9.35268L5.85742 14.8595H18.1418Z" fill="#17479E"/>
<path id="Vector_5" d="M22.377 16.2659C21.5143 16.2659 15.2979 16.2659 14.3903 16.2659C12.5674 22.0992 12.7014 21.6351 12.7014 21.7492C12.7014 22.0347 12.9328 22.2661 13.2183 22.2661H23.2792C23.7873 22.2661 24.1047 21.7947 23.9668 21.3533L22.377 16.2659Z" fill="#17479E"/>
<path id="Vector_6" d="M11.2725 21.595L9.6071 16.2659C8.64621 16.2659 2.46139 16.2659 1.62041 16.2659L0.0354022 21.3378C-0.115917 21.822 0.238755 22.2661 0.70176 22.2661H10.7791C11.1275 22.2661 11.3764 21.9277 11.2725 21.595Z" fill="#17479E"/>
</g>
</g>
<defs>
<clipPath id="clip0_675_55265">
<rect width="24" height="24" fill="white"/>
</clipPath>
</defs>
</svg>
