<svg width="71" height="70" viewBox="0 0 71 70" fill="none" xmlns="http://www.w3.org/2000/svg">
<path d="M64.2073 39.1935V42.8857C64.2073 43.3117 63.9255 43.672 63.5074 43.7799L60.2143 44.6309L59.1569 48.5215L61.5809 50.8856C61.8883 51.1854 61.9496 51.6366 61.7331 52.0057L58.9934 56.6755C58.7771 57.044 58.3506 57.2167 57.9341 57.1042L54.6502 56.2177L51.7612 59.066L52.6604 62.3036C52.7744 62.7143 52.5994 63.1349 52.2255 63.348L47.4889 66.049C47.1146 66.2626 46.6569 66.202 46.3529 65.8989L43.9551 63.5092L40.0089 64.5517L39.1457 67.7983C39.0361 68.2106 38.6709 68.4884 38.2386 68.4884H32.7655C32.3334 68.4884 31.9682 68.2106 31.8586 67.7983L30.9954 64.5517L27.0492 63.5092L24.6514 65.8989C24.3473 66.202 23.8897 66.2626 23.5153 66.049L18.7788 63.348C18.405 63.1349 18.23 62.7143 18.3439 62.3036L19.2432 59.066L16.3541 56.2177L13.0703 57.1042C12.6537 57.2167 12.2271 57.044 12.0109 56.6755L9.2712 52.0057C9.05459 51.6367 9.11616 51.1854 9.42346 50.8856L11.8473 48.5215L10.7899 44.6309L7.49675 43.7799C7.07866 43.6719 6.79688 43.3117 6.79688 42.8857V39.1935H17.8277C17.8089 39.5226 17.7984 39.854 17.7984 40.1877C17.7984 49.8275 25.7246 57.6419 35.502 57.6419C45.2793 57.6419 53.2055 49.8275 53.2055 40.1877C53.2055 39.854 53.1951 39.5226 53.1764 39.1935H64.2072H64.2073ZM25.602 8.77098C26.0746 9.36092 26.943 9.46127 27.5414 8.99533C28.1396 8.5294 28.2415 7.67326 27.7689 7.08346L25.6474 4.44356C25.1748 3.85361 24.3064 3.75326 23.7081 4.2192C23.1097 4.68514 23.0079 5.54127 23.4805 6.13107L25.602 8.77098ZM35.5022 7.29633C36.2681 7.29633 36.889 6.68424 36.889 5.92914V2.88086C36.889 2.12576 36.2681 1.51367 35.5022 1.51367C34.7363 1.51367 34.1155 2.12576 34.1155 2.88086V5.92914C34.1155 6.68424 34.7365 7.29633 35.5022 7.29633ZM43.4632 8.99533C44.0616 9.46127 44.9298 9.36092 45.4026 8.77098L47.5241 6.13107C47.9967 5.54113 47.8949 4.68514 47.2966 4.2192C46.6982 3.75326 45.83 3.85361 45.3572 4.44356L43.2357 7.08346C42.7631 7.67326 42.8649 8.5294 43.4631 8.99533H43.4632ZM51.7641 14.4745L54.9809 12.4487C55.6241 12.0447 55.8132 11.2029 55.4035 10.5688C54.9937 9.93473 54.1399 9.74824 53.4967 10.1522L50.2799 12.178C49.6368 12.582 49.4476 13.4238 49.8574 14.0579C50.2673 14.692 51.121 14.8785 51.7641 14.4745ZM16.0235 12.4487L19.2403 14.4745C19.8835 14.8785 20.7371 14.692 21.1471 14.0579C21.5568 13.4238 21.3677 12.582 20.7245 12.178L17.5078 10.1522C16.8646 9.74824 16.0109 9.93473 15.601 10.5688C15.1912 11.2029 15.3804 12.0447 16.0235 12.4487ZM26.1042 46.7126L26.0463 51.5795C28.6211 53.6593 31.9134 54.9075 35.5021 54.9075C38.3593 54.9075 41.0284 54.1161 43.2975 52.744C43.2942 51.9952 43.2925 51.174 43.293 51.1347C43.3002 48.9915 43.7704 47.087 44.7761 45.1413C45.8612 43.035 46.9898 41.4617 47.9809 40.0737C49.8908 37.4004 51.4028 35.2892 52.0248 30.5063C52.4227 27.4129 52.0971 24.7967 51.0988 23.1398C50.3681 21.9217 49.0804 21.3296 47.1633 21.3296H38.6846C37.4113 21.3296 36.3768 22.3523 36.3768 23.6084C36.3768 24.8644 37.4113 25.8879 38.6846 25.8879H43.0831C44.1683 25.8879 44.8555 26.246 45.1231 26.9535C45.3112 27.4464 45.3185 28.2181 44.2839 29.0911C44.1103 29.2394 43.9295 29.3914 43.7413 29.5469C41.5347 31.3907 38.7785 33.6844 38.019 38.3277C37.9105 38.9731 37.2955 39.411 36.6373 39.307C35.9862 39.2021 35.5376 38.5937 35.6462 37.9483C36.4781 32.9042 39.2779 30.2003 41.5711 28.256H38.6846C36.7852 28.256 35.1454 27.1409 34.4012 25.5394C33.5762 26.4136 32.3997 26.9614 31.0958 26.9614C29.849 26.9614 28.7202 26.4606 27.9041 25.6525C27.136 26.4884 26.0268 27.0142 24.7947 27.0142C24.2332 27.0142 23.6974 26.9047 23.2077 26.7068C22.0684 37.4533 23.5063 39.813 24.6717 41.7277C25.3951 42.9153 26.1404 44.1427 26.1042 46.7126ZM31.0959 24.5928C32.2606 24.5928 33.2011 23.6606 33.2011 22.5144V15.971C33.2011 14.8247 32.2606 13.8926 31.0959 13.8926C29.9312 13.8926 28.9908 14.8249 28.9908 15.971V22.5144C28.9908 23.6606 29.9312 24.5928 31.0959 24.5928ZM46.932 16.1636C46.932 14.9947 45.9699 14.0431 44.7834 14.0431C43.5969 14.0431 42.6347 14.9946 42.6347 16.1636V18.961H46.932V16.1636ZM35.6103 15.1843V20.0907C36.4358 19.3871 37.5108 18.9609 38.6849 18.9609H40.233V15.1843C40.233 13.9268 39.1913 12.9048 37.918 12.9048C36.6448 12.9048 35.6103 13.9269 35.6103 15.1843ZM24.795 24.6455C25.7812 24.6455 26.5891 23.8501 26.5891 22.8773V17.4268C26.5891 16.4525 25.7788 15.6593 24.795 15.6593C23.8039 15.6593 23.0008 16.4525 23.0008 17.4268V22.8773C23.0008 23.8523 23.8039 24.6455 24.795 24.6455Z" fill="white"/>
</svg>
