<svg width="74" height="75" viewBox="0 0 74 75" fill="none" xmlns="http://www.w3.org/2000/svg">
<path fill-rule="evenodd" clip-rule="evenodd" d="M43.1042 59.8486H30.8938C30.7734 59.8486 30.668 59.9554 30.668 60.0775V61.1304C30.668 61.2525 30.7734 61.3593 30.8938 61.3593H43.1042C43.2246 61.3593 43.33 61.2525 43.33 61.1304V60.0775C43.33 59.9554 43.2246 59.8486 43.1042 59.8486Z" fill="white"/>
<path fill-rule="evenodd" clip-rule="evenodd" d="M43.1042 62.8418H30.8938C30.7734 62.8418 30.668 62.9486 30.668 63.0707V64.1236C30.668 64.2457 30.7734 64.3525 30.8938 64.3525H43.1042C43.2246 64.3525 43.33 64.2457 43.33 64.1236V63.0707C43.33 62.9486 43.2246 62.8418 43.1042 62.8418Z" fill="white"/>
<path fill-rule="evenodd" clip-rule="evenodd" d="M37.0052 68.7948C38.7667 68.7948 40.2422 67.513 40.5735 65.8345H33.4219C33.7682 67.513 35.2286 68.7948 37.0052 68.7948Z" fill="white"/>
<path fill-rule="evenodd" clip-rule="evenodd" d="M35.7812 41.4966H38.2053V44.7468H35.7812V41.4966Z" fill="white"/>
<path fill-rule="evenodd" clip-rule="evenodd" d="M34.2031 46.4955V54.4456H39.8039V46.4955C39.8039 46.3276 39.6684 46.1903 39.5028 46.1903H35.0613C34.7 46.1903 34.2031 46.114 34.2031 46.4955Z" fill="white"/>
<path fill-rule="evenodd" clip-rule="evenodd" d="M31.6094 58.3871H42.3744V55.915H40.5074H31.6094V58.3871Z" fill="white"/>
<path fill-rule="evenodd" clip-rule="evenodd" d="M37.0095 15.9668C28.6083 15.9668 21.7578 22.8946 21.7578 31.4246C21.7578 39.9851 27.1177 42.1672 29.7375 49.5833C30.3246 51.2313 30.7763 52.803 31.3936 54.451H32.7487V46.5009C32.7487 45.5853 33.4412 44.8223 34.3295 44.746V40.7939C33.9531 37.3452 32.0109 34.1713 28.548 31.3635C27.8103 30.7684 28.7137 29.624 29.4514 30.2191C32.9745 33.0726 35.1124 36.4449 35.6846 40.0309H35.9405C35.5792 35.0868 35.1275 34.2018 34.3145 30.7226C34.2091 30.2496 33.5316 30.3412 33.5316 30.7989C33.5316 31.2109 33.2003 31.5314 32.8089 31.5314C31.484 31.5314 32.0561 28.9373 33.923 28.9373C34.7812 28.9373 35.519 29.5324 35.7147 30.3869C36.1965 32.508 36.6481 33.9119 36.9794 36.1855C37.3106 33.9119 37.7623 32.508 38.2441 30.3869C38.4398 29.5324 39.1775 28.9373 40.0357 28.9373C41.0595 28.9373 41.8726 29.7766 41.8726 30.7989C41.8726 31.7603 40.4272 31.7603 40.4272 30.7989C40.4272 30.3259 39.7497 30.2343 39.6443 30.7226C38.8463 34.2323 38.3946 35.0716 38.0333 40.0309H38.2892C38.8614 36.4602 40.9993 33.0879 44.5224 30.2191C45.2602 29.624 46.1635 30.7684 45.4258 31.3635C41.9629 34.1713 40.0056 37.3605 39.6443 40.8091V44.746C40.5326 44.8223 41.2252 45.5853 41.2252 46.5009V54.451H42.5802C43.1975 52.803 43.6492 51.2313 44.2363 49.5833C46.8711 42.1367 52.216 39.9851 52.216 31.4246C52.2461 22.9098 45.4107 15.9668 37.0095 15.9668Z" fill="white"/>
<path fill-rule="evenodd" clip-rule="evenodd" d="M24.4292 15.3583C24.6249 15.694 24.9862 15.9076 25.3777 15.9076C25.5734 15.9076 25.7541 15.8618 25.9197 15.755C26.4316 15.4498 26.6123 14.7784 26.3112 14.2596L24.1732 10.5058C23.8721 9.98696 23.2096 9.80384 22.6977 10.109C22.1858 10.4142 22.0052 11.0856 22.3063 11.6045L24.4292 15.3583Z" fill="white"/>
<path fill-rule="evenodd" clip-rule="evenodd" d="M37.0059 12.7464C37.6081 12.7464 38.0899 12.2581 38.0899 11.6477V7.31401C38.0899 6.70363 37.6081 6.21533 37.0059 6.21533C36.4037 6.21533 35.9219 6.70363 35.9219 7.31401V11.6477C35.9219 12.2581 36.4037 12.7464 37.0059 12.7464Z" fill="white"/>
<path fill-rule="evenodd" clip-rule="evenodd" d="M12.6257 22.2239L16.3295 24.3907C16.4951 24.4822 16.6758 24.5433 16.8715 24.5433C17.263 24.5433 17.6092 24.3297 17.805 23.9939C18.1061 23.4751 17.9254 22.8037 17.4135 22.4985L13.7097 20.3317C13.1978 20.0265 12.5354 20.2096 12.2343 20.7284C11.9181 21.2473 12.0988 21.9187 12.6257 22.2239Z" fill="white"/>
<path fill-rule="evenodd" clip-rule="evenodd" d="M48.0867 15.755C48.2523 15.8466 48.4329 15.9076 48.6287 15.9076C49.0201 15.9076 49.3664 15.694 49.5621 15.3583L51.7001 11.6045C52.0012 11.0856 51.8205 10.4142 51.3086 10.109C50.7967 9.80384 50.1343 9.98696 49.8331 10.5058L47.6952 14.2596C47.379 14.7784 47.5597 15.4651 48.0867 15.755Z" fill="white"/>
<path fill-rule="evenodd" clip-rule="evenodd" d="M59.1641 35.209C59.1641 35.8194 59.6459 36.3077 60.2481 36.3077H64.524C65.1262 36.3077 65.608 35.8194 65.608 35.209C65.608 34.5987 65.1262 34.1104 64.524 34.1104H60.2481C59.6459 34.1104 59.1641 34.6139 59.1641 35.209Z" fill="white"/>
<path fill-rule="evenodd" clip-rule="evenodd" d="M57.1343 24.5218C57.33 24.5218 57.5107 24.476 57.6763 24.3692L61.3801 22.2024C61.892 21.8972 62.0726 21.2258 61.7715 20.7069C61.4704 20.1881 60.8079 20.005 60.296 20.3102L56.5923 22.477C56.0804 22.7822 55.8997 23.4536 56.2008 23.9725C56.3815 24.3234 56.7428 24.5218 57.1343 24.5218Z" fill="white"/>
<path fill-rule="evenodd" clip-rule="evenodd" d="M9.48247 36.3077H13.7584C14.3606 36.3077 14.8424 35.8194 14.8424 35.209C14.8424 34.5987 14.3606 34.1104 13.7584 34.1104H9.48247C8.88023 34.1104 8.39844 34.5987 8.39844 35.209C8.39844 35.8194 8.88023 36.3077 9.48247 36.3077Z" fill="white"/>
<path fill-rule="evenodd" clip-rule="evenodd" d="M25.9516 45.2744C25.4397 44.4656 24.8826 43.6874 24.3406 42.9092C24.3256 42.9855 24.3105 43.077 24.3105 43.1533V57.6803C24.3105 58.6874 23.4975 59.5114 22.5038 59.5114H21.5703V61.7088H22.5038C24.702 61.7088 26.4786 59.9082 26.4786 57.6803V46.1289C26.3129 45.839 26.1323 45.5643 25.9516 45.2744Z" fill="white"/>
<path fill-rule="evenodd" clip-rule="evenodd" d="M52.4161 59.5114H51.4826C51.0008 59.5114 50.5491 59.313 50.2028 58.9773C49.8565 58.6264 49.6759 58.1686 49.6759 57.6803V43.1533C49.6759 43.0618 49.6608 42.9855 49.6458 42.9092C49.1037 43.6874 48.5617 44.4656 48.0498 45.2591C47.8541 45.5491 47.6734 45.839 47.5078 46.1289V57.6803C47.5078 58.7484 47.9294 59.7708 48.6671 60.5338C49.4199 61.2968 50.4136 61.7088 51.4826 61.7088H52.4161V60.6406C52.4161 60.6254 52.4161 60.6254 52.4161 60.6101C52.4161 60.5948 52.4161 60.5948 52.4161 60.5796V59.5114Z" fill="white"/>
<path fill-rule="evenodd" clip-rule="evenodd" d="M61.256 47.063C59.4643 47.063 58.0039 48.5432 58.0039 50.3743C58.0039 52.1902 59.4643 53.6856 61.256 53.6856C63.0477 53.6856 64.5081 52.2054 64.5081 50.3743C64.5231 48.5432 63.0477 47.063 61.256 47.063Z" fill="white"/>
<path fill-rule="evenodd" clip-rule="evenodd" d="M65.5774 55.0254H56.9503C55.249 55.0254 53.8789 56.4293 53.8789 58.1383V60.5798V60.6103V60.6409V62.3346H56.4083V58.6876C56.4083 58.2756 56.7245 57.9552 57.131 57.9552C57.5224 57.9552 57.8537 58.2756 57.8537 58.6876V62.3346H64.674V58.6876C64.674 58.2756 64.9902 57.9552 65.3967 57.9552C65.8032 57.9552 66.1194 58.2756 66.1194 58.6876V62.3346H68.6488V58.1383C68.6488 56.4293 67.2636 55.0254 65.5774 55.0254Z" fill="white"/>
<path fill-rule="evenodd" clip-rule="evenodd" d="M17.0539 55.0254H8.42688C6.72556 55.0254 5.35547 56.4293 5.35547 58.1383V60.5798V60.6103V60.6409V62.3346H7.88487V58.6876C7.88487 58.2756 8.20104 57.9552 8.60755 57.9552C8.99901 57.9552 9.33024 58.2756 9.33024 58.6876V62.3346H16.1506V58.6876C16.1506 58.2756 16.4668 57.9552 16.8733 57.9552C17.2798 57.9552 17.596 58.2756 17.596 58.6876V62.3346H20.1254V58.1383C20.1254 56.4293 18.7402 55.0254 17.0539 55.0254Z" fill="white"/>
<path fill-rule="evenodd" clip-rule="evenodd" d="M9.47656 50.3743C9.47656 52.1902 10.937 53.6856 12.7286 53.6856C14.5203 53.6856 15.9958 52.2054 15.9958 50.3743C15.9958 48.5584 14.5354 47.063 12.7286 47.063C10.937 47.063 9.47656 48.5432 9.47656 50.3743Z" fill="white"/>
</svg>
