<svg width="68" height="68" viewBox="0 0 68 68" fill="none" xmlns="http://www.w3.org/2000/svg">
<path d="M18.905 38.47C18.5892 38.1536 18.1996 37.9207 17.7714 37.7924C17.3431 37.664 16.8896 37.6442 16.4518 37.7347C16.1199 37.8001 15.8043 37.9306 15.5232 38.1188C15.1884 38.3386 14.9067 38.6302 14.6986 38.9725C14.4905 39.3147 14.3612 39.699 14.3202 40.0975C14.2792 40.4959 14.3275 40.8985 14.4615 41.276C14.5955 41.6535 14.8119 41.9963 15.095 42.2797L21.25 48.4348C21.4493 48.6341 21.5612 48.9043 21.5612 49.1861C21.5612 49.4679 21.4493 49.7381 21.2501 49.9374C21.1514 50.0361 21.0343 50.1143 20.9054 50.1678C20.7764 50.2212 20.6383 50.2486 20.4987 50.2486C20.3592 50.2486 20.221 50.2212 20.0921 50.1678C19.9632 50.1144 19.8461 50.0361 19.7474 49.9374L10.6785 40.8684C9.28364 39.4736 8.50004 37.5818 8.50004 35.6092V12.8116C8.50004 11.6687 7.62361 10.6839 6.48214 10.6276C6.19451 10.6134 5.90698 10.6578 5.637 10.758C5.36702 10.8582 5.12019 11.0122 4.91149 11.2106C4.70278 11.4091 4.53655 11.6478 4.42285 11.9124C4.30915 12.177 4.25036 12.4619 4.25004 12.7499V41.2865C4.2466 42.5427 4.49238 43.7872 4.97314 44.9478C5.4539 46.1085 6.16009 47.1622 7.05084 48.0481L13.319 54.3162C13.8139 54.8084 14.2062 55.3939 14.4733 56.0387C14.7404 56.6835 14.8769 57.3749 14.875 58.0729V63.7499H26.5625V50.0884C26.566 48.8321 26.3202 47.5877 25.8394 46.427C25.3587 45.2664 24.6525 44.2127 23.7617 43.3268L18.905 38.47Z" fill="white"/>
<path d="M61.5179 10.6276C60.3765 10.6839 59.5 11.6687 59.5 12.8116V35.6092C59.5 37.5818 58.7164 39.4736 57.3216 40.8685L48.2527 49.9374C48.154 50.0361 48.0369 50.1144 47.908 50.1678C47.779 50.2212 47.6409 50.2486 47.5013 50.2486C47.3618 50.2486 47.2236 50.2212 47.0947 50.1678C46.9658 50.1144 46.8487 50.0361 46.75 49.9374C46.5508 49.7381 46.4388 49.4679 46.4388 49.1861C46.4388 48.9043 46.5508 48.6341 46.75 48.4348L52.9051 42.2797C53.2216 41.9637 53.4546 41.5739 53.5828 41.1454C53.7111 40.7169 53.7307 40.2633 53.6399 39.8253C53.5744 39.4934 53.4437 39.1778 53.2553 38.8968C53.0353 38.5621 52.7437 38.2807 52.4014 38.0728C52.0591 37.8649 51.6749 37.7359 51.2765 37.695C50.8782 37.6542 50.4758 37.7025 50.0984 37.8366C49.7211 37.9706 49.3783 38.187 49.0951 38.47L44.2383 43.3268C43.3476 44.2127 42.6414 45.2664 42.1606 46.427C41.6799 47.5877 41.4341 48.8321 41.4375 50.0884V63.7499H53.125V58.0729C53.1231 57.3749 53.2597 56.6836 53.5268 56.0388C53.7938 55.394 54.1861 54.8085 54.681 54.3164L60.9492 48.0481C61.84 47.1622 62.5462 46.1085 63.0269 44.9478C63.5077 43.7872 63.7535 42.5427 63.75 41.2865V12.7499C63.7497 12.4619 63.6909 12.177 63.5772 11.9124C63.4635 11.6478 63.2973 11.4091 63.0886 11.2106C62.8799 11.0122 62.6331 10.8582 62.3631 10.758C62.0931 10.6578 61.8056 10.6134 61.5179 10.6276Z" fill="white"/>
<path d="M50.9996 30.8125C51.2813 30.8122 51.5514 30.7001 51.7506 30.5009C51.9498 30.3018 52.0618 30.0317 52.0621 29.75V25.6406C52.0616 25.4572 52.0139 25.2771 51.9235 25.1175C51.8332 24.958 51.7032 24.8244 51.5463 24.7296L46.5347 21.7226L47.7031 18.2171C47.7754 18.0005 47.8122 17.7736 47.8121 17.5453V15.9375C47.8121 15.3739 47.5883 14.8334 47.1897 14.4349C46.7912 14.0364 46.2507 13.8125 45.6871 13.8125C45.1235 13.8125 44.583 14.0364 44.1845 14.4349C43.786 14.8334 43.5621 15.3739 43.5621 15.9375V17.5453C43.5621 17.7736 43.5989 18.0005 43.6711 18.2171L44.8396 21.7226L41.7422 23.5811C42.2294 24.157 42.4976 24.8863 42.4996 25.6406V30.8125H50.9996Z" fill="white"/>
<path d="M18.2806 18.8892C18.136 18.4559 18.0624 18.0021 18.0625 17.5453V15.9375C18.0625 14.8103 18.5103 13.7293 19.3073 12.9323C20.1043 12.1353 21.1853 11.6875 22.3125 11.6875C23.4397 11.6875 24.5207 12.1353 25.3177 12.9323C26.1147 13.7293 26.5625 14.8103 26.5625 15.9375V17.5453C26.5626 18.0021 26.489 18.4559 26.3444 18.8892L25.715 20.7774L28.1562 22.2421L30.5975 20.7774L29.9681 18.8892C29.8235 18.4559 29.7499 18.0021 29.75 17.5453V15.9375C29.75 14.8103 30.1978 13.7293 30.9948 12.9323C31.7918 12.1353 32.8728 11.6875 34 11.6875C35.1272 11.6875 36.2082 12.1353 37.0052 12.9323C37.8022 13.7293 38.25 14.8103 38.25 15.9375V17.5453C38.2501 18.0021 38.1765 18.4559 38.0319 18.8892L37.4025 20.7774L39.8438 22.2421L42.285 20.7774L41.6556 18.8892C41.511 18.4559 41.4374 18.0021 41.4375 17.5453V15.9375C41.4375 14.8103 41.8853 13.7293 42.6823 12.9323C43.4793 12.1353 44.5603 11.6875 45.6875 11.6875C46.8147 11.6875 47.8957 12.1353 48.6927 12.9323C49.4897 13.7293 49.9375 14.8103 49.9375 15.9375V17.5453C49.9376 18.0021 49.864 18.4559 49.7194 18.8892L49.09 20.7774L52.0625 22.5609V9.5625H44.625V4.25H30.8125V10.625H28.6875V8.5H15.9375V22.5608L18.91 20.7774L18.2806 18.8892ZM39.3125 6.375H42.5V8.5H39.3125V6.375ZM32.9375 6.375H36.125V8.5H32.9375V6.375Z" fill="white"/>
<path d="M17 30.8125H25.5V25.6406C25.502 24.8863 25.7703 24.157 26.2574 23.5811L23.16 21.7226L24.3285 18.2171C24.4007 18.0005 24.4376 17.7736 24.4375 17.5453V15.9375C24.4375 15.3739 24.2136 14.8334 23.8151 14.4349C23.4166 14.0364 22.8761 13.8125 22.3125 13.8125C21.7489 13.8125 21.2084 14.0364 20.8099 14.4349C20.4114 14.8334 20.1875 15.3739 20.1875 15.9375V17.5453C20.1874 17.7736 20.2243 18.0005 20.2965 18.2171L21.465 21.7226L16.4533 24.7296C16.2964 24.8244 16.1664 24.958 16.0761 25.1175C15.9858 25.2771 15.938 25.4572 15.9375 25.6406V29.75C15.9378 30.0317 16.0499 30.3018 16.2491 30.5009C16.4482 30.7001 16.7183 30.8122 17 30.8125Z" fill="white"/>
<path d="M39.8591 24.7296L34.8475 21.7226L36.016 18.2171C36.0882 18.0005 36.1251 17.7736 36.125 17.5453V15.9375C36.125 15.3739 35.9011 14.8334 35.5026 14.4349C35.1041 14.0364 34.5636 13.8125 34 13.8125C33.4364 13.8125 32.8959 14.0364 32.4974 14.4349C32.0989 14.8334 31.875 15.3739 31.875 15.9375V17.5453C31.8749 17.7736 31.9118 18.0005 31.984 18.2171L33.1525 21.7226L28.1408 24.7296C27.9839 24.8244 27.8539 24.958 27.7636 25.1175C27.6733 25.2771 27.6255 25.4572 27.625 25.6406V34C27.6253 34.2817 27.7374 34.5518 27.9366 34.7509C28.1357 34.9501 28.4058 35.0622 28.6875 35.0625H39.3125C39.5942 35.0622 39.8643 34.9501 40.0634 34.7509C40.2626 34.5518 40.3747 34.2817 40.375 34V25.6406C40.3745 25.4572 40.3267 25.2771 40.2364 25.1175C40.146 24.958 40.0161 24.8244 39.8591 24.7296Z" fill="white"/>
</svg>
