<svg width="30" height="30" viewBox="0 0 30 30" fill="none" xmlns="http://www.w3.org/2000/svg">
<g id="investment (2)">
<path id="Vector" d="M9.37109 15.4687C7.23875 15.4687 5.50391 17.2036 5.50391 19.3359C5.50391 21.037 6.63172 22.5356 8.2325 23.0306L8.53625 22.3715C8.60375 22.2244 8.74344 22.1287 8.90094 22.1076V21.5934H8.47672C8.21797 21.5934 8.00797 21.3834 8.00797 21.1247C8.00797 20.8659 8.21797 20.6559 8.47672 20.6559H9.67625C9.74281 20.6559 9.79906 20.5997 9.79906 20.5326V19.9251C9.79906 19.8586 9.74281 19.8023 9.67625 19.8023H9.06875C8.48375 19.8023 8.00844 19.3265 8.00844 18.742V18.1364C8.00844 17.609 8.39656 17.174 8.90141 17.0929V16.5572C8.90141 16.2984 9.11141 16.0884 9.37016 16.0884C9.62891 16.0884 9.83891 16.2984 9.83891 16.5572V17.0756H10.2683C10.527 17.0756 10.737 17.2856 10.737 17.5444C10.737 17.8031 10.527 18.0131 10.2683 18.0131H9.37578C9.37578 18.0131 9.37203 18.014 9.37016 18.014C9.36828 18.014 9.36641 18.0131 9.36453 18.0131H9.06922C9.00125 18.0131 8.94641 18.0684 8.94641 18.1359V18.7415C8.94641 18.8095 9.00172 18.8644 9.06922 18.8644H9.67672C10.2617 18.8644 10.737 19.3401 10.737 19.9247V20.5322C10.737 21.0614 10.3466 21.4973 9.83891 21.5765V22.0987H10.6719L12.0613 19.0837C12.1377 18.9178 12.3041 18.8109 12.4869 18.8109H13.2003C12.943 16.9298 11.3178 15.4683 9.37156 15.4683L9.37109 15.4687Z" fill="#17479E"/>
<path id="Vector_2" d="M12.6816 23.0363H10.972H9.26203L8.17969 25.3861H13.7644L12.6816 23.0363Z" fill="#17479E"/>
<path id="Vector_3" d="M14.4955 19.7489H12.7855L11.7031 22.0987H12.9805H16.01H17.2878L16.205 19.7489H14.4955Z" fill="#17479E"/>
<path id="Vector_4" d="M16.465 16.4615C16.4622 16.4615 16.4598 16.4625 16.457 16.4625C16.4547 16.4625 16.4523 16.4615 16.4505 16.4615H16.3094L15.2266 18.8114H20.8112L19.7284 16.4615H16.465Z" fill="#17479E"/>
<path id="Vector_5" d="M6.91461 11.1746C6.62445 11.1746 6.38867 11.4103 6.38867 11.7005C6.38867 11.9907 6.62445 12.2264 6.91461 12.2264H11.8276C12.1173 12.2264 12.353 11.9907 12.353 11.7005C12.353 11.4103 12.1173 11.1746 11.8276 11.1746H6.91461Z" fill="#17479E"/>
<path id="Vector_6" d="M18.0209 23.0363H16.3109L15.2285 25.3861H20.8132L19.7304 23.0363H18.0209Z" fill="#17479E"/>
<path id="Vector_7" d="M22.3273 23.0363H20.7617L21.5445 24.7345L22.3273 23.0363Z" fill="#17479E"/>
<path id="Vector_8" d="M25.0697 23.0363H23.3597L22.2773 25.3861H27.862L26.7792 23.0363H25.0697Z" fill="#17479E"/>
<path id="Vector_9" d="M17.2383 19.7489L18.0211 21.4477L18.8039 19.7489H17.2383Z" fill="#17479E"/>
<path id="Vector_10" d="M12.5097 5.66672C12.4464 5.61891 12.2214 5.47875 11.9716 5.6625C11.7302 5.83875 11.4461 5.9325 11.1494 5.9325C10.5578 5.9325 10.0314 5.55657 9.83922 4.99735L9.79891 4.87969C9.70141 4.60125 9.44828 4.57922 9.3714 4.57922H9.37047C9.29547 4.57922 9.04375 4.60125 8.94719 4.88063L8.90687 4.99782C8.76016 5.42016 8.43203 5.73797 8.00594 5.86969C7.58031 6.00094 7.13125 5.92547 6.77359 5.66157C6.55609 5.505 6.27203 5.5711 6.13 5.77454C6.0714 5.85797 6.01609 5.99625 6.08406 6.18094L7.58219 10.2366H11.1653L12.6602 6.18C12.768 5.88938 12.5734 5.7136 12.5111 5.66625L12.5097 5.66672Z" fill="#17479E"/>
<path id="Vector_11" d="M14.4957 24.7345L14.7713 24.1359C14.7737 24.1298 14.777 24.1242 14.7793 24.1186L15.278 23.0363H13.7129L14.4957 24.7345Z" fill="#17479E"/>
<path id="Vector_12" d="M21.5443 19.7489H19.8343L18.752 22.0987H20.0293H23.0588H24.3366L23.2538 19.7489H21.5443Z" fill="#17479E"/>
<path id="Vector_13" d="M7.14562 25.3866L7.8375 23.8857C5.91234 23.2341 4.56562 21.4074 4.56562 19.3365C4.56562 16.6871 6.72094 14.5318 9.37031 14.5318C11.8322 14.5318 13.8839 16.4133 14.1459 18.8119H14.1952L15.5845 15.7974C15.6141 15.7332 15.66 15.6812 15.7125 15.6376C14.9691 14.4647 13.9045 13.5179 12.6534 12.9076C12.4181 13.0688 12.1345 13.164 11.8284 13.164H6.91547C6.6075 13.164 6.32203 13.0669 6.08578 12.9038C3.51984 14.1558 1.875 16.7644 1.875 19.6365V19.7115C1.90312 22.651 4.215 25.0805 7.14609 25.3871L7.14562 25.3866Z" fill="#17479E"/>
</g>
</svg>
