<svg width="24" height="24" viewBox="0 0 24 24" fill="none" xmlns="http://www.w3.org/2000/svg">
<g clip-path="url(#clip0_675_55260)">
<path d="M13.9129 14.7237C17.94 14.7237 21.2164 11.4212 21.2164 7.36188C21.2164 3.30258 17.94 0 13.9129 0C9.88572 0 6.60938 3.30253 6.60938 7.36183C6.60938 11.4211 9.88572 14.7237 13.9129 14.7237ZM11.566 9.65912C11.7785 9.33438 12.214 9.24321 12.5388 9.45576C13.012 9.76528 13.1905 9.79381 13.8149 9.78945C14.4244 9.78542 14.7781 9.33114 14.8487 8.91074C14.8831 8.70625 14.8963 8.20691 14.2774 7.98813C13.5515 7.7315 12.8086 7.43819 12.2918 7.03283C11.775 6.62746 11.5383 5.92766 11.6742 5.20663C11.8215 4.42499 12.3668 3.80277 13.0972 3.58277C13.1038 3.5808 13.1103 3.57921 13.1169 3.57724V3.31087C13.1169 2.92279 13.4315 2.60817 13.8196 2.60817C14.2077 2.60817 14.5223 2.92279 14.5223 3.31087V3.53297C14.9996 3.64691 15.3329 3.86526 15.4683 3.9664C15.7791 4.19881 15.8427 4.63913 15.6103 4.95C15.378 5.26088 14.9377 5.3245 14.6268 5.09204C14.4828 4.98439 14.0848 4.75297 13.5026 4.92841C13.1624 5.03091 13.0742 5.36652 13.0553 5.46692C13.0181 5.66419 13.0598 5.84909 13.1591 5.92695C13.5174 6.20794 14.1623 6.45675 14.7458 6.66302C15.8218 7.04337 16.4201 8.04027 16.2347 9.14371C16.1436 9.68512 15.8713 10.1874 15.4677 10.5582C15.1928 10.8108 14.8728 10.9909 14.5223 11.0937V11.4128C14.5223 11.8009 14.2077 12.1155 13.8196 12.1155C13.4315 12.1155 13.1169 11.8009 13.1169 11.4128V11.1638C12.6625 11.1087 12.2811 10.9666 11.7693 10.6319C11.4447 10.4194 11.3536 9.98387 11.566 9.65912Z" fill="#17479E"/>
<path d="M2.66435 17.0848H1.06208C0.674 17.0848 0.359375 17.3995 0.359375 17.7875V23.2963C0.359375 23.6844 0.674 23.999 1.06208 23.999H2.66439L2.66435 17.0848Z" fill="#17479E"/>
<path d="M23.4369 17.0359C22.1198 15.7188 19.9767 15.7187 18.6597 17.0359L16.5547 19.1408L15.6919 20.0036C15.3432 20.3523 14.8703 20.5482 14.3771 20.5482H10.1818C9.8029 20.5482 9.47684 20.257 9.45899 19.8785C9.43997 19.4744 9.76195 19.1408 10.1619 19.1408H14.4262C15.2836 19.1408 16.0272 18.5304 16.1746 17.6858C16.2085 17.4919 16.2261 17.2924 16.2261 17.0889C16.2262 16.7002 15.9112 16.3847 15.5225 16.3847H13.1859C12.4223 16.3847 11.689 16.0383 10.9126 15.6715C10.0982 15.2868 9.25619 14.889 8.27161 14.8236C7.41046 14.7662 6.54735 14.8605 5.70612 15.1034C4.80539 15.3635 4.15792 16.1637 4.0794 17.0876C4.0764 17.0874 4.07336 17.0873 4.07031 17.0872V23.9967L16.1769 24C17.0092 24 17.7919 23.6758 18.3806 23.0872L23.4368 18.031C23.7117 17.7563 23.7117 17.3107 23.4369 17.0359Z" fill="#17479E"/>
</g>
<defs>
<clipPath id="clip0_675_55260">
<rect width="24" height="24" fill="white"/>
</clipPath>
</defs>
</svg>
