<svg width="69" height="69" viewBox="0 0 69 69" fill="none" xmlns="http://www.w3.org/2000/svg">
<g clip-path="url(#clip0_675_56542)">
<path d="M14.2013 24.3636C15.3177 24.3636 16.2227 25.2687 16.2227 26.3851V36.5262H24.3507C25.4671 36.5262 26.3722 35.6211 26.3722 34.5047V20.2869C26.3744 20.2869 26.3767 20.2872 26.3788 20.2872C27.032 20.2872 27.6731 19.971 28.0626 19.3868C28.682 18.4579 28.4309 17.2028 27.502 16.5835L15.3225 8.46392C14.6434 8.01138 13.759 8.01138 13.0799 8.46392L0.900438 16.5834C-0.0286364 17.2028 -0.27957 18.4579 0.339813 19.3867C0.730633 19.973 1.37481 20.2884 2.03018 20.2862V34.5045C2.03018 35.6209 2.93526 36.526 4.05166 36.526H12.1796V26.3849C12.1798 25.2687 13.0849 24.3636 14.2013 24.3636ZM14.2013 20.2869C13.068 20.2869 12.2288 19.3607 12.1798 18.2654C12.1309 17.1737 13.1439 16.2439 14.2013 16.2439C15.3345 16.2439 16.1737 17.1702 16.2227 18.2654C16.2715 19.3572 15.2586 20.2869 14.2013 20.2869Z" fill="white"/>
<path d="M68.9956 24.3638V20.2983C68.9956 18.0628 67.1769 16.2441 64.9415 16.2441H60.876V11.8643C60.876 9.80221 59.1984 8.12451 57.1362 8.12451H52.4531C50.3909 8.12451 48.7134 9.80221 48.7134 11.8643V16.2441H44.6479C42.4124 16.2441 40.5938 18.0629 40.5938 20.2983V24.3638H68.9956ZM52.7563 12.1675H56.833V16.2441H52.7563V12.1675Z" fill="white"/>
<path d="M40.5983 28.4062V32.4717C40.5983 34.7072 42.4169 36.526 44.6524 36.526H52.7777V38.3144C52.7777 39.5761 51.7512 40.6026 50.4895 40.6026H18.5108C17.2491 40.6026 16.2226 39.5761 16.2226 38.3144V36.526H12.1797V38.3144C12.1797 41.8054 15.0199 44.6456 18.5108 44.6456H32.4787V48.7222H30.4404C24.8486 48.7222 20.2993 53.2715 20.2993 58.8633C20.2993 59.9797 21.2044 60.8848 22.3208 60.8848H46.6796C47.7959 60.8848 48.701 59.9797 48.701 58.8633C48.701 53.2715 44.1518 48.7222 38.56 48.7222H36.5216V44.6456H50.4895C53.9805 44.6456 56.8206 41.8054 56.8206 38.3144V36.526H64.9459C67.1814 36.526 69 34.7072 69 32.4717V28.4062H40.5983Z" fill="white"/>
</g>
<defs>
<clipPath id="clip0_675_56542">
<rect width="69" height="69" fill="white"/>
</clipPath>
</defs>
</svg>
