<svg width="70" height="75" viewBox="0 0 70 75" fill="none" xmlns="http://www.w3.org/2000/svg">
<path d="M28.2922 45.7017C27.8297 45.7017 27.4828 45.4673 27.2516 45.1157C27.0203 44.7642 26.9047 44.2954 27.0203 43.9438L30.0266 34.4517L19.0422 28.3579L20.6609 17.6938L17.1922 22.8501L14.4172 26.7173C13.9547 27.3032 13.2609 27.6548 12.5672 27.6548C12.3359 27.6548 12.1047 27.6548 11.8734 27.5376C11.1797 27.3032 10.6016 26.8345 10.3703 26.1313C10.1391 25.4282 10.2547 24.6079 10.6016 24.022L18.4641 12.4204C18.9266 11.7173 19.7359 11.2485 20.6609 11.2485H28.9859C29.9109 11.2485 30.7203 11.7173 31.1828 12.5376L32.9172 15.3501H41.5891C42.3984 15.3501 43.0922 15.7017 43.5547 16.4048C44.0172 17.1079 44.1328 17.811 43.9016 18.6313C43.5547 19.686 42.6297 20.3892 41.5891 20.3892H29.4484L29.2172 26.6001L34.5359 30.1157C35.4609 30.8188 35.9234 31.9907 35.5766 33.1626L33.1484 41.8345H35.9234C36.5016 41.8345 37.0797 42.186 37.4266 42.6548C37.7734 43.1235 37.7734 43.8267 37.5422 44.4126L37.4266 44.7642C37.1953 45.3501 36.5016 45.8188 35.8078 45.8188H28.2922V45.7017Z" fill="white"/>
<path d="M15.6903 56.7188C15.3434 56.7188 14.8809 56.4844 14.6497 56.25C14.4184 55.8984 14.3028 55.5469 14.4184 55.0781L18.8122 30.4688L24.3622 33.2812L19.9684 53.0859H22.0497C22.6278 53.0859 23.2059 53.4375 23.5528 53.9062C23.8997 54.375 24.0153 55.0781 23.784 55.5469C23.5528 56.25 22.859 56.7188 22.1653 56.7188H15.6903Z" fill="white"/>
<path d="M29.7969 4.6875C29.7969 7.26562 27.7156 9.375 25.1719 9.375C22.6281 9.375 20.5469 7.26562 20.5469 4.6875C20.5469 2.10938 22.6281 0 25.1719 0C27.7156 0 29.7969 2.10938 29.7969 4.6875Z" fill="white"/>
<path d="M69.2223 25.5469V31.4062C69.2223 31.7578 68.991 32.2266 68.7598 32.4609L20.0816 74.6484C19.8504 74.8828 19.5035 75 19.1566 75H14.9941V59.6484C14.9941 58.9453 15.5723 58.2422 16.3816 58.2422H28.8691V48.6328C28.8691 47.9297 29.4473 47.2266 30.2566 47.2266H41.4723V37.6172C41.4723 36.9141 42.0504 36.2109 42.8598 36.2109H53.9598V26.6016C53.9598 25.8984 54.5379 25.1953 55.3473 25.1953H69.2223V25.5469Z" fill="white"/>
<path d="M14.764 33.6284L12.6827 32.6909L13.4921 30.8159C13.6077 30.6987 13.6077 30.4644 13.4921 30.3472C13.3765 30.23 13.2609 29.9956 13.1452 29.9956L8.75148 28.0034C8.63586 27.8862 8.40461 27.8862 8.28898 28.0034C8.17336 28.1206 7.94211 28.2378 7.94211 28.355L7.13273 30.23L4.82023 29.2925C4.70461 29.1753 4.47336 29.1753 4.35773 29.1753C4.12648 29.1753 4.01086 29.1753 3.89523 29.2925C3.54836 29.4097 3.31711 29.644 3.20148 29.9956L1.00461 35.269C0.773356 35.6206 0.888981 36.0894 1.00461 36.2065C1.12023 36.5581 1.35148 36.7925 1.69836 36.9097L11.5265 41.2456C11.7577 41.3628 11.8734 41.3628 11.989 41.3628C12.5671 41.3628 13.0296 41.0112 13.2609 40.5425L15.4577 35.269C15.689 34.6831 15.4577 33.98 14.764 33.6284ZM8.75148 29.5269L11.989 30.9331L11.4109 32.2222L8.17336 30.8159L8.75148 29.5269Z" fill="white"/>
</svg>
