<svg width="72" height="74" viewBox="0 0 72 74" fill="none" xmlns="http://www.w3.org/2000/svg">
<path d="M54.3584 35.2294V23.6004L59.3661 28.7472C59.5007 28.8892 59.6614 29.0023 59.8389 29.08C60.0164 29.1577 60.2072 29.1983 60.4001 29.1996C60.593 29.2009 60.7843 29.1628 60.9627 29.0876C61.1412 29.0123 61.3034 28.9013 61.4398 28.7611C61.5762 28.6209 61.6842 28.4543 61.7574 28.2708C61.8306 28.0874 61.8677 27.8908 61.8665 27.6925C61.8652 27.4943 61.8256 27.2982 61.7501 27.1158C61.6745 26.9333 61.5644 26.7682 61.4262 26.6298L53.9309 18.9292C53.7958 18.79 53.6354 18.6796 53.4588 18.6043C53.2821 18.529 53.0928 18.4902 52.9015 18.4902C52.7103 18.4902 52.5209 18.529 52.3443 18.6043C52.1677 18.6796 52.0072 18.79 51.8722 18.9292L44.3768 26.6312C44.235 26.7686 44.1215 26.9339 44.0429 27.1172C43.9643 27.3005 43.9223 27.4982 43.9194 27.6985C43.9165 27.8988 43.9527 28.0976 44.0259 28.2833C44.0991 28.4689 44.2078 28.6376 44.3456 28.7793C44.4834 28.921 44.6474 29.0328 44.828 29.1082C45.0086 29.1835 45.202 29.2209 45.3969 29.218C45.5918 29.2152 45.7841 29.1722 45.9625 29.0915C46.141 29.0109 46.3018 28.8943 46.4356 28.7486L51.4447 23.6019V35.3291C49.7858 35.5768 48.1921 36.1635 46.7576 37.0548C44.0948 35.0935 40.9719 33.8962 37.7098 33.5861V7.40425L46.0165 15.9403C46.1503 16.0859 46.3112 16.2025 46.4896 16.2832C46.668 16.3638 46.8603 16.4068 47.0552 16.4097C47.2501 16.4125 47.4436 16.3752 47.6241 16.2998C47.8047 16.2244 47.9688 16.1126 48.1065 15.9709C48.2443 15.8292 48.353 15.6606 48.4262 15.4749C48.4994 15.2893 48.5356 15.0904 48.5327 14.8901C48.5298 14.6898 48.4878 14.4922 48.4092 14.3088C48.3307 14.1255 48.2171 13.9603 48.0753 13.8229L37.2837 2.73155C37.1485 2.59236 36.988 2.48194 36.8112 2.4066C36.6345 2.33126 36.445 2.29248 36.2536 2.29248C36.0623 2.29248 35.8728 2.33126 35.6961 2.4066C35.5193 2.48194 35.3588 2.59236 35.2236 2.73155L24.4306 13.8229C24.1633 14.1049 24.0148 14.4838 24.0173 14.8775C24.0198 15.2712 24.1731 15.6481 24.444 15.9265C24.7149 16.2049 25.0815 16.3625 25.4646 16.365C25.8477 16.3676 26.2163 16.215 26.4908 15.9403L34.7975 7.40425V33.5644C31.355 33.7875 28.0422 34.9977 25.235 37.0577C23.6894 36.0903 21.9586 35.4775 20.1612 35.2612V26.4925L25.1703 31.6392C25.4459 31.9066 25.8121 32.0531 26.1911 32.0475C26.57 32.042 26.932 31.8848 27.2001 31.6095C27.4682 31.3341 27.6213 30.9622 27.627 30.5727C27.6327 30.1832 27.4904 29.8068 27.2304 29.5233L19.7351 21.8198C19.5999 21.6806 19.4394 21.5702 19.2626 21.4948C19.0859 21.4195 18.8964 21.3807 18.705 21.3807C18.5137 21.3807 18.3242 21.4195 18.1475 21.4948C17.9707 21.5702 17.8102 21.6806 17.675 21.8198L10.1811 29.5233C10.0459 29.6622 9.93865 29.8272 9.8655 30.0087C9.79234 30.1902 9.75468 30.3848 9.75468 30.5813C9.75468 30.7778 9.79234 30.9723 9.8655 31.1539C9.93865 31.3354 10.0459 31.5003 10.1811 31.6392C10.3162 31.7782 10.4767 31.8884 10.6533 31.9636C10.83 32.0388 11.0193 32.0775 11.2104 32.0775C11.4016 32.0775 11.5909 32.0388 11.7675 31.9636C11.9442 31.8884 12.1046 31.7782 12.2398 31.6392L17.2489 26.4925V35.2612C14.0261 35.632 11.0641 37.2583 8.97264 39.8055C6.88114 42.3527 5.81917 45.627 6.00528 48.9545C6.19139 52.2821 7.61143 55.4097 9.97315 57.6938C12.3349 59.9779 15.4586 61.2447 18.7015 61.2335C18.9448 61.2335 19.1825 61.2104 19.4229 61.1959C20.9665 64.3531 23.3336 67.0072 26.2598 68.8619C29.1861 70.7165 32.5563 71.6987 35.9942 71.6987C39.4321 71.6987 42.8023 70.7165 45.7286 68.8619C48.6548 67.0072 51.0219 64.3531 52.5654 61.1959C52.8059 61.2104 53.0436 61.2335 53.2868 61.2335C56.5555 61.2336 59.6979 59.9356 62.0574 57.6107C64.417 55.2858 65.8113 52.1138 65.949 48.7573C66.0868 45.4008 64.9574 42.1194 62.7967 39.5985C60.6361 37.0776 57.6113 35.5123 54.3542 35.2294H54.3584ZM35.9984 68.2432C32.9874 68.2432 30.0439 67.3255 27.5404 65.606C25.0369 63.8865 23.0858 61.4426 21.9338 58.5833C20.7819 55.7241 20.4808 52.5779 21.0688 49.5428C21.6567 46.5077 23.1072 43.7199 25.2369 41.5321C27.3665 39.3444 30.0796 37.8548 33.0329 37.252C35.9863 36.6491 39.0473 36.96 41.8287 38.1452C44.6102 39.3305 46.9872 41.337 48.659 43.9108C50.3308 46.4846 51.2225 49.5103 51.2211 52.605C51.2147 56.7517 49.6087 60.7267 46.755 63.6583C43.9014 66.5898 40.0331 68.2387 35.9984 68.2432Z" fill="white"/>
<path d="M41.9837 54.0851C41.5598 53.4584 41.0121 52.9304 40.3764 52.5358C39.7717 52.1354 39.0039 51.8305 38.0378 51.6137V44.1602C38.2868 44.2433 38.5235 44.3615 38.7409 44.5114C39.1171 44.7709 39.4544 45.0854 39.7422 45.4451C39.9992 45.7648 40.197 46.1302 40.3257 46.5233C40.4521 46.9201 40.5347 47.3302 40.5718 47.746C40.6576 48.512 41.1962 48.7288 41.6307 48.684C41.8656 48.6537 42.4281 48.4947 42.6151 47.5278C42.5772 45.9379 42.0737 44.6371 41.1217 43.6702C40.2781 42.8223 39.2017 42.2608 38.0378 42.0616V40.8721C38.0392 40.6965 38.0031 40.5228 37.9319 40.3631C37.8607 40.2035 37.7561 40.062 37.6257 39.9485C37.4044 39.7523 37.1202 39.6474 36.828 39.6541C36.5358 39.6608 36.2563 39.7786 36.0437 39.9847C35.9285 40.0993 35.8379 40.2375 35.7778 40.3904C35.7177 40.5432 35.6895 40.7073 35.695 40.8721V41.9243C34.9626 41.991 34.242 42.1567 33.5518 42.4171C32.7801 42.6991 32.0735 43.1419 31.4762 43.7179C30.9188 44.2625 30.4819 44.924 30.1951 45.6575C29.9074 46.4145 29.797 47.2305 29.8731 48.0394C30.0054 49.4811 30.6738 50.8148 31.7392 51.7625C32.7629 52.6427 34.1298 53.1818 35.695 53.3524V60.4749C34.4167 60.3564 33.414 60.021 32.7095 59.4718C31.9051 58.8489 31.4115 58.1017 31.2118 57.2475C31.1598 56.8226 30.849 56.3601 30.16 56.3413C30.0106 56.3202 29.8585 56.3374 29.7172 56.3913C29.5758 56.4453 29.4497 56.5344 29.35 56.6506C29.2611 56.763 29.2003 56.896 29.1728 57.0381C29.1454 57.1801 29.1521 57.327 29.1925 57.4657C29.485 59.0874 30.2978 60.3433 31.6056 61.2033C32.7517 61.9448 34.1256 62.3827 35.695 62.5041V63.4652C35.6854 63.6384 35.7146 63.8115 35.7801 63.9713C35.8457 64.1311 35.946 64.2734 36.0732 64.3873C36.2879 64.572 36.5583 64.6742 36.8382 64.6764C37.1156 64.6735 37.3844 64.577 37.6032 64.4018C37.7432 64.293 37.8554 64.1509 37.9304 63.9879C38.0053 63.8248 38.0407 63.6454 38.0336 63.4652V62.4752C39.5397 62.2757 40.6843 61.741 41.4409 60.8853C42.272 59.943 42.7318 58.9024 42.8064 57.8083C42.8586 57.1947 42.8255 56.5767 42.7079 55.9727C42.593 55.2997 42.3467 54.6576 41.9837 54.0851ZM39.2232 60.076C38.8515 60.2682 38.4506 60.3938 38.0378 60.4474V53.7354C38.9406 53.9912 39.6001 54.3713 40.0403 54.8916C40.5775 55.5319 40.8236 56.4699 40.7968 57.7562V57.7678C40.7843 58.0017 40.7369 58.2323 40.6562 58.4514C40.5575 58.7593 40.406 59.0466 40.209 59.2998C39.9312 59.6203 39.5966 59.8837 39.2232 60.076ZM32.8431 49.8894C32.5796 49.6383 32.3735 49.3303 32.2398 48.9875C32.1243 48.6482 32.0483 48.2959 32.0134 47.9382C31.9815 47.4322 32.0543 46.925 32.2268 46.4499C32.3994 45.9749 32.6679 45.5428 33.0147 45.182C33.6376 44.5143 34.539 44.1038 35.695 43.9607V51.2783C35.1558 51.1903 34.6313 51.0249 34.1368 50.7869C33.664 50.5566 33.2278 50.254 32.8431 49.8894Z" fill="white"/>
</svg>
