<svg width="24" height="24" viewBox="0 0 24 24" fill="none" xmlns="http://www.w3.org/2000/svg">
<g id="interest-rate">
<path id="Vector" d="M10.0577 5.7749C10.0577 4.6406 9.60705 3.55276 8.80497 2.7507C8.0029 1.94863 6.91506 1.49804 5.78076 1.49805C4.64646 1.49805 3.55862 1.94866 2.75656 2.75073C1.95449 3.5528 1.5039 4.64065 1.50391 5.77494C1.74352 11.4541 9.81985 11.4485 10.0577 5.7749ZM5.40391 8.56119V8.15244C5.10932 8.06997 4.84981 7.89338 4.66497 7.64963C4.48012 7.40588 4.3801 7.10835 4.38016 6.80244C4.38207 6.70425 4.42243 6.61073 4.49255 6.54197C4.56267 6.4732 4.65696 6.43469 4.75517 6.43469C4.85338 6.43469 4.94767 6.47322 5.01778 6.54198C5.0879 6.61075 5.12825 6.70427 5.13016 6.80246C5.13054 6.93114 5.16906 7.05682 5.24087 7.1636C5.31267 7.27038 5.41453 7.35348 5.53356 7.40237C5.65259 7.45127 5.78344 7.46377 5.90957 7.43829C6.03571 7.41282 6.15145 7.35052 6.24218 7.25926C6.3329 7.16801 6.39453 7.0519 6.41927 6.92562C6.44401 6.79934 6.43074 6.66856 6.38115 6.54982C6.33157 6.43108 6.24788 6.32971 6.14068 6.25853C6.03348 6.18735 5.90759 6.14955 5.77891 6.14992C5.44058 6.14961 5.11381 6.02679 4.85902 5.8042C4.60423 5.5816 4.43866 5.27427 4.39293 4.93905C4.3472 4.60383 4.42439 4.26338 4.61024 3.98067C4.79609 3.69796 5.07803 3.4921 5.40391 3.40117V2.98867C5.40391 2.88922 5.44342 2.79383 5.51374 2.72351C5.58407 2.65318 5.67945 2.61367 5.77891 2.61367C5.87836 2.61367 5.97375 2.65318 6.04407 2.72351C6.1144 2.79383 6.15391 2.88922 6.15391 2.98867V3.40117C6.44947 3.48245 6.71014 3.65861 6.89579 3.90253C7.08145 4.14646 7.1818 4.44463 7.18141 4.75117C7.18141 4.85063 7.1419 4.94601 7.07157 5.01634C7.00125 5.08666 6.90586 5.12617 6.80641 5.12617C6.70695 5.12617 6.61157 5.08666 6.54124 5.01634C6.47092 4.94601 6.43141 4.85063 6.43141 4.75117C6.43178 4.62249 6.39398 4.49659 6.3228 4.38939C6.25161 4.28219 6.15024 4.19851 6.0315 4.14892C5.91275 4.09933 5.78197 4.08607 5.65569 4.11081C5.52941 4.13555 5.4133 4.19719 5.32205 4.28791C5.2308 4.37864 5.1685 4.49439 5.14303 4.62053C5.11756 4.74667 5.13007 4.87752 5.17897 4.99655C5.22787 5.11558 5.31097 5.21743 5.41776 5.28923C5.52455 5.36103 5.65023 5.39955 5.77891 5.39992C6.11598 5.40325 6.4406 5.52776 6.69344 5.7507C6.94628 5.97364 7.11045 6.28012 7.15595 6.61413C7.20145 6.94813 7.12524 7.28736 6.94124 7.5698C6.75725 7.85225 6.47776 8.05905 6.15386 8.15242L6.15391 8.56117C6.1521 8.65943 6.11179 8.75305 6.04167 8.8219C5.97154 8.89075 5.87719 8.92932 5.77892 8.92933C5.68064 8.92933 5.5863 8.89076 5.51617 8.82191C5.44604 8.75307 5.40572 8.65945 5.40391 8.56119Z" fill="#17479E"/>
<path id="Vector_2" d="M21.018 14.9926C18.3389 12.6027 13.9274 14.5767 13.9493 18.2252C13.9539 19.3582 14.4063 20.4434 15.2078 21.2442C16.0093 22.0451 17.095 22.4965 18.228 22.5001C22.1801 22.4995 23.9921 17.526 21.018 14.9926ZM15.6218 16.7363C15.6249 16.442 15.744 16.1608 15.9533 15.9538C16.1625 15.7468 16.445 15.6307 16.7393 15.6307C17.0336 15.6307 17.3161 15.7468 17.5253 15.9538C17.7345 16.1609 17.8536 16.442 17.8568 16.7364C17.8534 17.0306 17.7343 17.3116 17.525 17.5184C17.3158 17.7253 17.0335 17.8413 16.7393 17.8413C16.4451 17.8413 16.1627 17.7253 15.9535 17.5184C15.7443 17.3116 15.6251 17.0305 15.6218 16.7363ZM17.0055 19.9763C16.9344 20.044 16.8396 20.0812 16.7415 20.0798C16.6433 20.0784 16.5496 20.0387 16.4804 19.969C16.4112 19.8993 16.3721 19.8053 16.3714 19.7071C16.3707 19.609 16.4086 19.5144 16.4768 19.4438L19.4467 16.4738C19.5173 16.4055 19.6119 16.3675 19.7102 16.3681C19.8084 16.3687 19.9026 16.4078 19.9723 16.4771C20.042 16.5463 20.0818 16.6402 20.0831 16.7384C20.0844 16.8367 20.0471 16.9315 19.9792 17.0026L17.0055 19.9763ZM19.713 20.8276C19.4189 20.8241 19.1381 20.7048 18.9314 20.4956C18.7246 20.2864 18.6087 20.0042 18.6087 19.7101C18.6087 19.416 18.7247 19.1337 18.9314 18.9245C19.1381 18.7153 19.419 18.5961 19.713 18.5926C20.0072 18.5959 20.2883 18.7151 20.4951 18.9243C20.702 19.1335 20.818 19.4159 20.818 19.7101C20.818 20.0043 20.702 20.2866 20.4951 20.4959C20.2882 20.7051 20.0072 20.8242 19.713 20.8276Z" fill="#17479E"/>
<path id="Vector_3" d="M11.7257 9.85876H8.75196C8.65259 9.85906 8.55738 9.89866 8.48712 9.96893C8.41686 10.0392 8.37725 10.1344 8.37696 10.2338V19.1513C8.37678 19.2006 8.38637 19.2494 8.40515 19.295C8.42394 19.3406 8.45155 19.382 8.48641 19.4168C8.52126 19.4517 8.56267 19.4793 8.60825 19.4981C8.65382 19.5169 8.70266 19.5265 8.75196 19.5263H11.7257C11.775 19.5265 11.8238 19.5169 11.8694 19.4981C11.915 19.4793 11.9564 19.4517 11.9913 19.4168C12.0261 19.382 12.0537 19.3406 12.0725 19.295C12.0913 19.2494 12.1009 19.2006 12.1007 19.1513V10.2338C12.1004 10.1344 12.0608 10.0392 11.9906 9.96894C11.9203 9.89867 11.8251 9.85906 11.7257 9.85876Z" fill="#17479E"/>
<path id="Vector_4" d="M7.26672 11.3474H4.29297C4.24368 11.3472 4.19484 11.3568 4.14926 11.3756C4.10369 11.3944 4.06228 11.422 4.02742 11.4569C3.99257 11.4917 3.96495 11.5331 3.94617 11.5787C3.92738 11.6243 3.9178 11.6731 3.91797 11.7224V19.1512C3.9178 19.2005 3.92738 19.2493 3.94617 19.2949C3.96495 19.3404 3.99257 19.3819 4.02742 19.4167C4.06228 19.4516 4.10369 19.4792 4.14926 19.498C4.19484 19.5168 4.24368 19.5263 4.29297 19.5262H7.26672C7.31601 19.5263 7.36486 19.5168 7.41043 19.498C7.456 19.4792 7.49741 19.4516 7.53227 19.4167C7.56712 19.3819 7.59474 19.3404 7.61352 19.2949C7.63231 19.2493 7.64189 19.2005 7.64172 19.1512V11.7224C7.64189 11.6731 7.63231 11.6243 7.61352 11.5787C7.59474 11.5331 7.56712 11.4917 7.53227 11.4569C7.49741 11.422 7.456 11.3944 7.41043 11.3756C7.36486 11.3568 7.31601 11.3472 7.26672 11.3474Z" fill="#17479E"/>
<path id="Vector_5" d="M16.5597 13.4812V8.74866C16.5594 8.64929 16.5198 8.55408 16.4495 8.48382C16.3793 8.41356 16.2841 8.37395 16.1847 8.37366H13.2109C13.1116 8.37395 13.0164 8.41356 12.9461 8.48382C12.8758 8.55408 12.8362 8.64929 12.8359 8.74866V19.1512C12.8422 19.4525 13.1092 19.5558 13.3722 19.5262C13.3122 19.3085 13.2684 19.0866 13.241 18.8624C13.0999 17.7218 13.3517 16.5671 13.9551 15.5888C14.5584 14.6106 15.4771 13.8672 16.5597 13.4812Z" fill="#17479E"/>
<path id="Vector_6" d="M21.0187 14.0513V5.77502C21.0184 5.67566 20.9788 5.58044 20.9085 5.51018C20.8383 5.43991 20.743 5.40031 20.6437 5.40002H17.6699C17.5706 5.40032 17.4753 5.43993 17.4051 5.51019C17.3348 5.58045 17.2952 5.67566 17.2949 5.77502V13.2863C18.5885 13.0379 19.9278 13.313 21.0187 14.0513Z" fill="#17479E"/>
<path id="Vector_7" d="M17.108 16.7362C17.1063 16.6399 17.0668 16.5482 16.998 16.4807C16.9293 16.4133 16.8369 16.3755 16.7406 16.3755C16.6443 16.3755 16.5518 16.4133 16.4831 16.4807C16.4144 16.5482 16.3748 16.6399 16.373 16.7362C16.3748 16.8325 16.4143 16.9242 16.4831 16.9917C16.5518 17.0591 16.6442 17.0969 16.7405 17.0969C16.8368 17.0969 16.9293 17.0591 16.998 16.9917C17.0667 16.9242 17.1063 16.8325 17.108 16.7362Z" fill="#17479E"/>
<path id="Vector_8" d="M19.3457 19.7101C19.3475 19.8064 19.387 19.8981 19.4557 19.9655C19.5244 20.033 19.6169 20.0708 19.7132 20.0708C19.8095 20.0708 19.9019 20.033 19.9707 19.9656C20.0394 19.8981 20.0789 19.8064 20.0807 19.7101C20.0789 19.6138 20.0394 19.5221 19.9707 19.4546C19.902 19.3872 19.8095 19.3494 19.7132 19.3494C19.6169 19.3494 19.5245 19.3872 19.4557 19.4546C19.387 19.5221 19.3475 19.6138 19.3457 19.7101Z" fill="#17479E"/>
</g>
</svg>
