<svg width="16" height="16" viewBox="0 0 16 16" fill="none" xmlns="http://www.w3.org/2000/svg">
<path d="M15.5032 12.0936C14.804 11.3944 14.1067 10.6952 13.4075 9.99789C12.853 9.41521 12.1257 9.41521 11.543 9.99789C11.1069 10.4339 10.669 10.87 10.2329 11.3079C10.1164 11.4245 10.0281 11.4245 9.88332 11.3662C9.6202 11.1914 9.30066 11.0749 9.03751 10.9001C7.78574 10.1144 6.70875 9.09381 5.77647 7.92848C5.31034 7.34581 4.90247 6.73495 4.61113 6.03576C4.55287 5.89103 4.55287 5.80269 4.6694 5.68616C5.13553 5.27829 5.54341 4.84224 5.97946 4.46256C6.5922 3.8517 6.5922 3.1525 5.97946 2.54164C5.60166 2.16197 5.28026 1.84244 4.93255 1.49285C4.55287 1.11505 4.20327 0.765455 3.85368 0.415847C3.30107 -0.138616 2.57182 -0.138616 1.99102 0.415847C1.55309 0.851908 1.11704 1.28797 0.679087 1.72591C0.271236 2.13377 0.068228 2.6281 0.00995039 3.18258C-0.0483042 4.08476 0.154681 4.95877 0.476079 5.80269C1.11704 7.57888 2.10755 9.09381 3.30107 10.5204C4.90247 12.4432 6.85346 13.9863 9.09579 15.0652C10.1164 15.5313 11.1652 15.9392 12.2704 15.9975C13.0861 16.0257 13.7571 15.8227 14.3097 15.2099C14.6875 14.8021 15.1254 14.4243 15.5032 14.0164C16.0859 13.4037 16.0859 12.6763 15.5032 12.0936Z" fill="#F30000"/>
</svg>
