<svg width="381" height="389" viewBox="0 0 381 389" fill="none" xmlns="http://www.w3.org/2000/svg">
<path d="M192.536 183.705C193.157 183.705 193.766 183.946 194.226 184.393L200.25 190.242C200.881 190.855 201.144 191.772 200.94 192.635L198.984 200.879C198.779 201.741 198.133 202.434 197.297 202.684L189.318 205.079C188.482 205.33 187.571 205.104 186.94 204.492L180.916 198.642C180.285 198.029 180.022 197.112 180.226 196.249L182.183 188.006C182.388 187.143 183.034 186.45 183.87 186.2L191.849 183.806C192.076 183.737 192.308 183.705 192.537 183.705H192.536ZM188.628 205.105C188.63 205.105 188.631 205.104 188.632 205.104C188.855 205.104 189.079 205.071 189.296 205.007L197.276 202.612C198.086 202.369 198.712 201.698 198.912 200.862L200.867 192.618C201.065 191.781 200.81 190.891 200.198 190.297L194.174 184.448C193.563 183.854 192.678 183.635 191.868 183.879L183.889 186.274C183.078 186.517 182.452 187.187 182.252 188.024L180.295 196.268C180.097 197.105 180.352 197.995 180.965 198.589L186.989 204.438C187.435 204.871 188.025 205.105 188.625 205.106C188.626 205.106 188.627 205.106 188.628 205.105V205.105Z" fill="url(#paint0_linear_2034_12290)"/>
<path d="M193.366 183.272C194.099 183.272 194.812 183.59 195.308 184.16L201.155 190.884C201.768 191.589 201.967 192.58 201.675 193.474L198.889 202C198.597 202.893 197.854 203.564 196.951 203.754L188.315 205.556C187.411 205.745 186.469 205.424 185.856 204.721L180.009 197.997C179.396 197.292 179.197 196.301 179.489 195.408L182.275 186.881C182.567 185.988 183.31 185.317 184.213 185.127L192.849 183.325C193.02 183.289 193.193 183.272 193.366 183.272ZM187.798 205.53C187.798 205.529 187.799 205.529 187.799 205.529C187.965 205.529 188.133 205.512 188.3 205.478L196.936 203.675C197.812 203.492 198.533 202.84 198.815 201.974L201.602 193.448C201.885 192.582 201.692 191.62 201.098 190.937L195.25 184.213C194.656 183.53 193.743 183.219 192.865 183.404L184.23 185.206C183.354 185.389 182.632 186.041 182.35 186.907L179.564 195.433C179.281 196.299 179.475 197.261 180.068 197.944L185.915 204.668C186.397 205.221 187.086 205.53 187.798 205.531C187.798 205.531 187.798 205.53 187.798 205.53V205.53Z" fill="url(#paint1_linear_2034_12290)"/>
<path d="M194.269 182.887C195.128 182.887 195.952 183.301 196.473 184.011L202.06 191.643C202.646 192.442 202.768 193.508 202.382 194.424L198.695 203.172C198.309 204.088 197.464 204.731 196.494 204.848L187.22 205.965C186.248 206.082 185.281 205.659 184.697 204.86L179.109 197.229C178.524 196.429 178.401 195.363 178.787 194.448L182.475 185.699C182.861 184.783 183.705 184.141 184.675 184.023L193.95 182.906C194.057 182.892 194.163 182.887 194.27 182.887H194.269ZM186.896 205.902C187 205.902 187.102 205.895 187.206 205.883L196.481 204.766C197.423 204.653 198.242 204.03 198.616 203.141L202.303 194.393C202.678 193.505 202.558 192.471 201.991 191.696L196.404 184.064C195.836 183.289 194.897 182.878 193.957 182.991L184.682 184.109C183.74 184.222 182.921 184.845 182.547 185.733L178.859 194.482C178.485 195.37 178.604 196.404 179.172 197.179L184.759 204.81C185.264 205.5 186.061 205.902 186.896 205.902Z" fill="url(#paint2_linear_2034_12290)"/>
<path d="M195.243 182.569C195.243 182.569 195.244 182.568 195.244 182.568C196.244 182.569 197.184 183.097 197.714 183.966L202.945 192.532C203.494 193.429 203.531 194.565 203.043 195.498L198.384 204.401C197.895 205.333 196.949 205.934 195.913 205.97L186.022 206.307C184.983 206.34 184.001 205.807 183.454 204.911L178.223 196.345C177.675 195.448 177.637 194.312 178.125 193.379L182.785 184.476C183.273 183.544 184.22 182.943 185.255 182.907L195.146 182.57C195.178 182.57 195.209 182.57 195.242 182.57C195.243 182.57 195.243 182.57 195.243 182.569V182.569ZM185.926 206.221C185.925 206.22 185.926 206.22 185.926 206.22C185.957 206.22 185.987 206.22 186.019 206.22L195.91 205.883C196.915 205.849 197.831 205.265 198.305 204.361L202.964 195.459C203.437 194.555 203.4 193.453 202.87 192.582L197.638 184.016C197.106 183.147 196.151 182.623 195.149 182.661L185.258 182.998C184.253 183.032 183.337 183.616 182.863 184.519L178.204 193.422C177.731 194.326 177.768 195.428 178.298 196.299L183.53 204.864C184.045 205.706 184.956 206.221 185.925 206.222C185.926 206.222 185.926 206.221 185.926 206.221V206.221Z" fill="url(#paint3_linear_2034_12290)"/>
<path d="M185.808 181.771C185.86 181.771 185.912 181.771 185.964 181.774L196.437 182.318C197.535 182.375 198.527 183.03 199.027 184.028L203.802 193.549C204.302 194.546 204.242 195.749 203.644 196.689L197.946 205.665C197.35 206.605 196.296 207.153 195.2 207.098L184.727 206.554C183.629 206.497 182.637 205.842 182.137 204.844L177.362 195.323C176.862 194.326 176.922 193.122 177.518 192.183L183.216 183.207C183.785 182.311 184.767 181.771 185.806 181.771H185.808ZM195.356 207.005C195.356 207.006 195.357 207.007 195.358 207.007C196.366 207.007 197.317 206.483 197.869 205.614L203.567 196.638C204.146 195.726 204.205 194.558 203.72 193.591L198.945 184.071C198.46 183.104 197.498 182.469 196.434 182.414L185.96 181.87C184.896 181.815 183.876 182.347 183.297 183.258L177.599 192.234C177.02 193.146 176.963 194.314 177.446 195.279L182.221 204.799C182.706 205.766 183.668 206.401 184.732 206.456L195.205 207C195.255 207.004 195.305 207.004 195.354 207.004C195.355 207.004 195.356 207.004 195.356 207.005V207.005Z" fill="url(#paint4_linear_2034_12290)"/>
<path d="M186.378 180.619C186.378 180.618 186.378 180.618 186.379 180.618C186.524 180.618 186.67 180.628 186.816 180.649L197.828 182.175C198.981 182.334 199.971 183.116 200.412 184.215L204.622 194.703C205.063 195.801 204.894 197.066 204.182 198.004L197.379 206.965C196.666 207.903 195.508 208.387 194.355 208.228L183.343 206.701C182.19 206.542 181.2 205.76 180.758 204.661L176.549 194.174C176.107 193.075 176.277 191.81 176.989 190.873L183.791 181.912C184.414 181.092 185.375 180.62 186.378 180.619C186.378 180.619 186.379 180.619 186.378 180.619V180.619ZM194.79 208.156C195.761 208.156 196.695 207.697 197.299 206.903L204.101 197.942C204.793 197.032 204.956 195.805 204.528 194.74L200.318 184.253C199.89 183.188 198.93 182.43 197.812 182.274L186.8 180.748C185.683 180.594 184.558 181.063 183.868 181.971L177.066 190.932C176.374 191.843 176.211 193.07 176.639 194.134L180.849 204.622C181.277 205.686 182.237 206.445 183.355 206.6L194.367 208.127C194.508 208.146 194.65 208.156 194.791 208.156H194.79Z" fill="url(#paint5_linear_2034_12290)"/>
<path d="M187.06 179.452C187.31 179.452 187.561 179.479 187.809 179.536L199.303 182.149C200.506 182.423 201.483 183.339 201.852 184.538L205.38 195.994C205.749 197.194 205.461 198.515 204.626 199.441L196.661 208.284C195.827 209.21 194.561 209.615 193.356 209.342L181.862 206.728C180.659 206.455 179.682 205.539 179.311 204.339L175.783 192.883C175.414 191.683 175.703 190.362 176.537 189.436L184.502 180.593C185.165 179.859 186.099 179.452 187.057 179.452H187.06ZM199.278 182.253C199.278 182.253 199.278 182.253 199.278 182.253L187.785 179.64C186.619 179.375 185.39 179.768 184.581 180.665L176.616 189.508C175.807 190.407 175.526 191.687 175.884 192.851L179.412 204.307C179.769 205.47 180.718 206.359 181.886 206.624L193.38 209.237C194.546 209.503 195.775 209.109 196.584 208.212L204.549 199.369C205.358 198.471 205.639 197.191 205.279 196.027L201.751 184.571C201.394 183.407 200.446 182.519 199.278 182.254C199.278 182.254 199.278 182.253 199.278 182.253V182.253Z" fill="url(#paint6_linear_2034_12290)"/>
<path d="M187.866 178.284C187.865 178.283 187.866 178.282 187.867 178.282C188.232 178.283 188.601 178.339 188.958 178.454L200.866 182.258C202.113 182.657 203.065 183.713 203.35 185.012L206.072 197.43C206.358 198.73 205.936 200.098 204.975 201.001L195.79 209.615C194.829 210.517 193.456 210.83 192.209 210.431L180.301 206.627C179.053 206.228 178.102 205.172 177.816 203.873L175.094 191.455C174.809 190.154 175.23 188.787 176.192 187.885L185.378 179.272C186.064 178.629 186.956 178.286 187.865 178.286C187.866 178.286 187.866 178.285 187.866 178.284V178.284ZM193.301 210.484C194.183 210.484 195.05 210.151 195.715 209.528L204.899 200.914C205.832 200.04 206.24 198.713 205.963 197.452L203.241 185.034C202.964 183.773 202.041 182.749 200.832 182.362L188.924 178.558C187.714 178.171 186.385 178.474 185.452 179.35L176.266 187.964C175.332 188.838 174.925 190.165 175.202 191.426L177.924 203.844C178.201 205.105 179.124 206.129 180.332 206.516L192.241 210.32C192.588 210.431 192.946 210.484 193.3 210.484H193.301Z" fill="url(#paint7_linear_2034_12290)"/>
<path d="M188.797 177.116C188.798 177.117 188.798 177.117 188.799 177.117C189.296 177.117 189.794 177.213 190.265 177.41L202.505 182.51C203.788 183.044 204.701 184.245 204.887 185.643L206.676 199.003C206.864 200.401 206.3 201.808 205.206 202.674L194.755 210.933C193.66 211.797 192.183 212.003 190.901 211.469L178.66 206.369C177.378 205.835 176.465 204.633 176.279 203.235L174.49 189.876C174.302 188.476 174.866 187.071 175.96 186.205L186.411 177.946C187.102 177.4 187.946 177.116 188.795 177.115C188.796 177.115 188.797 177.116 188.797 177.116V177.116ZM202.462 182.621L190.221 177.521C188.979 177.003 187.547 177.203 186.485 178.041L176.034 186.301C174.973 187.139 174.426 188.503 174.607 189.86L176.396 203.22C176.577 204.577 177.464 205.741 178.706 206.259L190.946 211.359C192.19 211.878 193.622 211.677 194.682 210.839L205.134 202.58C206.195 201.741 206.742 200.377 206.56 199.02L204.771 185.661C204.59 184.303 203.704 183.14 202.462 182.621Z" fill="url(#paint8_linear_2034_12290)"/>
<path d="M189.865 175.97C189.865 175.969 189.865 175.969 189.865 175.969C190.506 175.969 191.149 176.121 191.738 176.428L204.217 182.926C205.524 183.607 206.382 184.957 206.457 186.451L207.177 200.719C207.253 202.213 206.534 203.648 205.302 204.462L193.544 212.232C192.312 213.047 190.736 213.129 189.428 212.448L176.949 205.949C175.642 205.268 174.784 203.918 174.709 202.424L173.989 188.156C173.913 186.662 174.631 185.228 175.863 184.415L187.622 176.645C188.298 176.197 189.08 175.971 189.864 175.971C189.864 175.971 189.865 175.97 189.865 175.97V175.97ZM204.158 183.039L191.679 176.541C190.412 175.88 188.883 175.96 187.688 176.749L175.929 184.519C174.735 185.308 174.039 186.699 174.111 188.147L174.831 202.415C174.905 203.865 175.737 205.174 177.005 205.835L189.484 212.333C190.751 212.994 192.28 212.913 193.475 212.124L205.234 204.354C206.429 203.565 207.123 202.174 207.051 200.726L206.331 186.458C206.257 185.009 205.425 183.699 204.158 183.039Z" fill="url(#paint9_linear_2034_12290)"/>
<path d="M191.07 174.86C191.071 174.86 191.071 174.859 191.072 174.859C191.876 174.859 192.676 175.084 193.379 175.528L205.987 183.524C207.308 184.361 208.096 185.867 208.044 187.452L207.556 202.584C207.506 204.169 206.621 205.617 205.25 206.365L192.155 213.499C190.784 214.247 189.11 214.191 187.791 213.354L175.183 205.358C173.862 204.521 173.073 203.015 173.125 201.431L173.612 186.3C173.662 184.715 174.547 183.267 175.918 182.52L189.013 175.385C189.654 175.036 190.362 174.861 191.068 174.861C191.069 174.861 191.069 174.861 191.07 174.86V174.86ZM205.915 183.64C205.915 183.64 205.914 183.64 205.914 183.64L193.306 175.645C192.026 174.832 190.405 174.779 189.075 175.503L175.98 182.638C174.651 183.362 173.793 184.767 173.743 186.303L173.256 201.434C173.208 202.971 173.971 204.429 175.252 205.242L187.86 213.238C189.141 214.051 190.762 214.104 192.091 213.38L205.186 206.245C206.515 205.521 207.373 204.116 207.422 202.579L207.91 187.447C207.959 185.91 207.195 184.452 205.915 183.639C205.915 183.639 205.915 183.639 205.915 183.64V183.64Z" fill="url(#paint10_linear_2034_12290)"/>
<path d="M192.418 173.788C192.418 173.787 192.418 173.787 192.418 173.787C193.402 173.787 194.376 174.105 195.187 174.721L207.8 184.312C209.121 185.317 209.823 186.977 209.63 188.645L207.792 204.579C207.599 206.247 206.54 207.697 205.026 208.361L190.575 214.703C189.061 215.367 187.3 215.157 185.979 214.152L173.366 204.563C172.045 203.559 171.344 201.899 171.537 200.23L173.374 184.297C173.567 182.628 174.627 181.178 176.14 180.514L190.591 174.172C191.175 173.915 191.798 173.789 192.417 173.789C192.417 173.789 192.418 173.788 192.418 173.788V173.788ZM188.749 214.942C188.749 214.942 188.749 214.943 188.749 214.943C189.35 214.943 189.952 214.821 190.519 214.572L204.97 208.229C206.437 207.586 207.466 206.179 207.652 204.561L209.49 188.628C209.677 187.009 208.997 185.401 207.716 184.427L195.103 174.836C193.822 173.862 192.114 173.657 190.647 174.302L176.196 180.645C174.727 181.288 173.7 182.695 173.514 184.312L171.676 200.245C171.49 201.863 172.169 203.473 173.45 204.447L186.063 214.036C186.848 214.633 187.795 214.941 188.748 214.941C188.748 214.941 188.749 214.942 188.749 214.942V214.942Z" fill="url(#paint11_linear_2034_12290)"/>
<path d="M193.911 172.783C195.094 172.783 196.259 173.217 197.169 174.039L209.648 185.312C210.955 186.493 211.55 188.309 211.2 190.054L207.865 206.711C207.516 208.455 206.271 209.89 204.614 210.454L188.8 215.838C187.146 216.401 185.304 216.018 183.997 214.839L171.518 203.566C170.211 202.385 169.616 200.568 169.965 198.824L173.3 182.166C173.65 180.423 174.895 178.988 176.551 178.424L192.365 173.039C192.871 172.868 193.393 172.784 193.913 172.783H193.911ZM187.253 215.941C187.757 215.941 188.263 215.859 188.753 215.693L204.567 210.309C206.174 209.763 207.382 208.372 207.719 206.681L211.054 190.023C211.393 188.333 210.816 186.57 209.549 185.425L197.07 174.152C195.803 173.007 194.019 172.636 192.411 173.182L176.597 178.566C174.991 179.112 173.782 180.503 173.445 182.194L170.11 198.851C169.771 200.542 170.348 202.305 171.615 203.45L184.094 214.723C184.975 215.518 186.107 215.941 187.253 215.941Z" fill="url(#paint12_linear_2034_12290)"/>
<path d="M195.555 171.861C196.96 171.861 198.331 172.443 199.321 173.503L211.511 186.54C212.789 187.906 213.257 189.879 212.737 191.688L207.758 208.973C207.236 210.784 205.796 212.184 203.999 212.629L186.83 216.875C185.033 217.32 183.123 216.748 181.846 215.383L169.655 202.345C168.378 200.979 167.91 199.008 168.43 197.197L173.408 179.912C173.93 178.101 175.37 176.701 177.17 176.256L194.338 172.01C194.741 171.911 195.15 171.861 195.556 171.861H195.555ZM185.612 216.863C186.006 216.863 186.402 216.815 186.793 216.719L203.962 212.473C205.706 212.042 207.102 210.683 207.607 208.929L212.585 191.644C213.091 189.888 212.636 187.976 211.397 186.651L199.207 173.614C197.968 172.289 196.117 171.737 194.373 172.166L177.205 176.412C175.461 176.843 174.064 178.202 173.558 179.956L168.579 197.242C168.074 198.998 168.529 200.909 169.766 202.234L181.956 215.271C182.916 216.298 184.247 216.863 185.609 216.863H185.612Z" fill="url(#paint13_linear_2034_12290)"/>
<path d="M197.345 171.028C197.345 171.028 197.346 171.027 197.346 171.027C198.997 171.027 200.59 171.789 201.64 173.122L213.372 187.998C214.601 189.555 214.925 191.682 214.215 193.546L207.448 211.345C206.739 213.208 205.094 214.557 203.158 214.863L184.658 217.786C182.72 218.091 180.754 217.314 179.526 215.757L167.794 200.881C166.565 199.324 166.241 197.198 166.951 195.334L173.718 177.536C174.427 175.672 176.072 174.323 178.008 174.017L196.508 171.094C196.786 171.05 197.066 171.029 197.344 171.029C197.345 171.029 197.345 171.029 197.345 171.028V171.028ZM213.243 188.104L201.511 173.228C200.319 171.717 198.413 170.964 196.533 171.26L178.034 174.183C176.155 174.479 174.561 175.787 173.873 177.594L167.106 195.393C166.419 197.2 166.731 199.262 167.923 200.772L179.655 215.647C180.847 217.158 182.753 217.911 184.633 217.615L203.132 214.692C205.011 214.396 206.605 213.089 207.293 211.281L214.06 193.483C214.749 191.675 214.435 189.613 213.243 188.104Z" fill="url(#paint14_linear_2034_12290)"/>
<path d="M199.282 170.312C201.209 170.312 203.037 171.293 204.123 172.936L215.21 189.709C216.372 191.465 216.526 193.74 215.615 195.643L206.912 213.82C206.001 215.723 204.148 216.998 202.075 217.145L182.285 218.548C180.212 218.695 178.203 217.694 177.042 215.938L165.954 199.165C164.793 197.409 164.639 195.134 165.55 193.231L174.252 175.054C175.164 173.151 177.018 171.876 179.09 171.729L198.88 170.326C199.014 170.316 199.148 170.312 199.281 170.312H199.282ZM215.064 189.809C215.064 189.81 215.064 189.81 215.064 189.81L203.977 173.037C202.851 171.334 200.902 170.364 198.893 170.506L179.103 171.909C177.094 172.051 175.296 173.287 174.412 175.133L165.709 193.31C164.825 195.157 164.976 197.361 166.102 199.064L177.19 215.837C178.316 217.54 180.264 218.511 182.274 218.369L202.064 216.965C204.073 216.823 205.87 215.587 206.755 213.741L215.457 195.564C216.342 193.718 216.191 191.514 215.065 189.809C215.065 189.809 215.064 189.809 215.064 189.809V189.809Z" fill="url(#paint15_linear_2034_12290)"/>
<path d="M180.344 169.414C180.374 169.414 180.404 169.414 180.434 169.414L201.453 169.733C203.655 169.765 205.688 171.004 206.76 172.965L217 191.685C218.072 193.646 218.037 196.061 216.908 197.988L206.129 216.389C205.016 218.29 202.989 219.461 200.822 219.461C200.792 219.461 200.761 219.461 200.731 219.461L179.713 219.143C177.511 219.11 175.478 217.871 174.406 215.91L164.166 197.19C163.093 195.229 163.128 192.814 164.258 190.887L175.037 172.484C176.149 170.585 178.177 169.414 180.344 169.414ZM216.836 191.778C216.837 191.778 216.837 191.777 216.837 191.776L206.597 173.058C205.557 171.156 203.585 169.955 201.451 169.922L180.433 169.604C180.402 169.604 180.374 169.604 180.344 169.604C178.242 169.604 176.275 170.739 175.196 172.582L164.417 190.985C163.323 192.854 163.29 195.195 164.328 197.096L174.568 215.816C175.609 217.717 177.581 218.918 179.714 218.951L200.733 219.269C202.868 219.309 204.874 218.16 205.968 216.291L216.747 197.89C217.841 196.022 217.874 193.679 216.836 191.78C216.836 191.779 216.836 191.779 216.836 191.778V191.778Z" fill="url(#paint16_linear_2034_12290)"/>
<path d="M181.413 167.061C181.626 167.061 181.841 167.072 182.056 167.094L204.222 169.341C206.544 169.577 208.583 171.07 209.543 173.236L218.717 193.934C219.677 196.102 219.43 198.649 218.069 200.581L205.078 219.032C203.717 220.964 201.43 222.02 199.108 221.784L176.942 219.537C174.621 219.3 172.581 217.808 171.621 215.641L162.447 194.944C161.485 192.775 161.734 190.229 163.095 188.297L176.086 169.846C177.321 168.093 179.318 167.061 181.411 167.061H181.413ZM218.538 194.018L209.363 173.32C208.432 171.218 206.455 169.771 204.202 169.543L182.036 167.296C179.785 167.068 177.566 168.09 176.247 169.964L163.256 188.415C161.937 190.289 161.695 192.758 162.627 194.86L171.801 215.558C172.732 217.659 174.71 219.107 176.962 219.335L199.129 221.582C201.381 221.809 203.598 220.788 204.917 218.914L217.908 200.463C219.227 198.589 219.469 196.119 218.538 194.018Z" fill="url(#paint17_linear_2034_12290)"/>
<path d="M182.714 164.672C183.131 164.672 183.553 164.712 183.971 164.79L207.18 169.178C209.61 169.639 211.632 171.4 212.458 173.775L220.335 196.463C221.159 198.839 220.676 201.507 219.069 203.424L203.739 221.724C202.133 223.641 199.625 224.544 197.195 224.086L173.986 219.698C171.556 219.237 169.533 217.476 168.707 215.101L160.831 192.413C160.006 190.037 160.492 187.369 162.096 185.452L177.428 167.152C178.758 165.566 180.705 164.672 182.715 164.672H182.714ZM220.135 196.537C220.136 196.537 220.137 196.536 220.136 196.535L212.26 173.849C211.46 171.545 209.499 169.836 207.141 169.391L183.932 165.003C181.576 164.556 179.144 165.434 177.586 167.292L162.254 185.593C160.696 187.451 160.226 190.037 161.027 192.341L168.904 215.029C169.704 217.332 171.665 219.042 174.021 219.487L197.23 223.875C199.588 224.322 202.019 223.444 203.576 221.585L218.907 203.285C220.464 201.427 220.934 198.842 220.134 196.539C220.134 196.538 220.134 196.537 220.135 196.537V196.537Z" fill="url(#paint18_linear_2034_12290)"/>
<path d="M184.26 162.268C184.26 162.268 184.26 162.268 184.261 162.268C184.906 162.268 185.557 162.355 186.195 162.533L210.317 169.278C212.843 169.984 214.825 172.028 215.488 174.612L221.821 199.285C222.484 201.87 221.738 204.642 219.875 206.52L202.086 224.448C200.223 226.326 197.497 227.055 194.97 226.348L170.848 219.603C168.322 218.896 166.339 216.853 165.676 214.269L159.344 189.595C158.681 187.011 159.426 184.24 161.289 182.363L179.078 164.434C180.471 163.031 182.346 162.27 184.259 162.269C184.259 162.269 184.26 162.269 184.26 162.268V162.268ZM221.606 199.344L215.273 174.67C214.63 172.165 212.709 170.183 210.258 169.497L186.136 162.752C183.686 162.067 181.042 162.772 179.236 164.593L161.447 182.522C159.641 184.343 158.918 187.03 159.56 189.537L165.893 214.211C166.536 216.716 168.458 218.698 170.908 219.384L195.03 226.129C197.48 226.813 200.124 226.108 201.93 224.287L219.719 206.359C221.525 204.538 222.249 201.851 221.606 199.344Z" fill="url(#paint19_linear_2034_12290)"/>
<path d="M186.064 159.868C186.965 159.868 187.873 160.027 188.741 160.353L213.621 169.668C216.228 170.643 218.141 172.981 218.614 175.771L223.143 202.398C223.618 205.188 222.587 208.046 220.456 209.858L200.103 227.173C197.972 228.985 195.03 229.507 192.423 228.532L167.542 219.216C164.936 218.241 163.023 215.901 162.549 213.114L158.021 186.486C157.546 183.698 158.576 180.838 160.708 179.026L181.06 161.711C182.48 160.503 184.261 159.868 186.062 159.868H186.064ZM222.911 202.439C222.911 202.439 222.911 202.439 222.911 202.439L218.383 175.812C217.923 173.108 216.067 170.84 213.541 169.894L188.66 160.578C186.134 159.632 183.279 160.137 181.213 161.896L160.861 179.209C158.795 180.966 157.796 183.739 158.256 186.443L162.784 213.071C163.244 215.775 165.1 218.042 167.626 218.989L192.507 228.304C195.035 229.25 197.888 228.746 199.954 226.986L220.306 209.672C222.372 207.914 223.371 205.142 222.911 202.439C222.911 202.439 222.911 202.439 222.911 202.439V202.439Z" fill="url(#paint20_linear_2034_12290)"/>
<path d="M188.134 157.494C189.321 157.494 190.511 157.753 191.618 158.28L217.075 170.378C219.74 171.644 221.556 174.288 221.813 177.276L224.267 205.806C224.523 208.794 223.186 211.719 220.777 213.439L197.773 229.87C195.364 231.591 192.211 231.872 189.545 230.606L164.089 218.508C161.424 217.241 159.608 214.597 159.351 211.609L156.897 183.08C156.64 180.092 157.976 177.167 160.387 175.445L183.391 159.014C184.801 158.008 186.464 157.494 188.136 157.494H188.134ZM224.018 205.826L221.564 177.297C221.316 174.4 219.554 171.836 216.969 170.607L191.513 158.509C188.926 157.28 185.87 157.554 183.533 159.223L160.529 175.654C158.193 177.323 156.897 180.158 157.146 183.056L159.599 211.585C159.848 214.483 161.609 217.046 164.195 218.275L189.651 230.373C192.236 231.602 195.294 231.328 197.63 229.659L220.634 213.228C222.971 211.559 224.267 208.724 224.018 205.826Z" fill="url(#paint21_linear_2034_12290)"/>
<path d="M190.487 155.173C191.991 155.173 193.495 155.565 194.84 156.35L220.662 171.44C223.366 173.02 225.052 175.977 225.062 179.155L225.158 209.502C225.168 212.68 223.5 215.647 220.806 217.244L195.08 232.501C192.386 234.098 189.031 234.11 186.327 232.53L160.504 217.441C157.801 215.861 156.114 212.904 156.104 209.726L156.008 179.379C155.998 176.201 157.666 173.233 160.36 171.637L186.087 156.38C187.443 155.575 188.965 155.173 190.487 155.173ZM190.677 233.437C192.154 233.437 193.629 233.047 194.944 232.269L220.67 217.011C223.283 215.463 224.9 212.584 224.89 209.503L224.794 179.157C224.784 176.074 223.149 173.208 220.527 171.676L194.705 156.587C192.084 155.055 188.831 155.065 186.218 156.614L160.491 171.871C157.878 173.42 156.262 176.299 156.272 179.379L156.367 209.726C156.377 212.808 158.012 215.675 160.634 217.206L186.456 232.296C187.758 233.057 189.217 233.437 190.675 233.437H190.677Z" fill="url(#paint22_linear_2034_12290)"/>
<path d="M193.132 152.937C194.99 152.937 196.838 153.501 198.41 154.61L224.355 172.892C227.072 174.807 228.595 178.081 228.326 181.437L225.771 213.488C225.505 216.844 223.484 219.825 220.5 221.268L192 235.038C189.016 236.481 185.473 236.186 182.756 234.273L156.811 215.992C154.094 214.077 152.571 210.803 152.84 207.445L155.395 175.394C155.661 172.038 157.682 169.056 160.666 167.614L189.166 153.844C190.423 153.236 191.781 152.937 193.132 152.937ZM225.493 213.466L228.047 181.414C228.308 178.159 226.831 174.985 224.195 173.128L198.251 154.847C195.616 152.99 192.182 152.706 189.286 154.104L160.787 167.874C157.894 169.272 155.933 172.163 155.675 175.418L153.12 207.469C152.86 210.724 154.337 213.9 156.972 215.756L182.917 234.037C185.552 235.894 188.986 236.178 191.881 234.78L220.38 221.01C223.274 219.611 225.234 216.721 225.493 213.466Z" fill="url(#paint23_linear_2034_12290)"/>
<path d="M196.072 150.812C196.072 150.812 196.072 150.813 196.072 150.813C198.321 150.813 200.546 151.597 202.33 153.094L228.127 174.757C230.829 177.026 232.149 180.622 231.573 184.143L226.073 217.753C225.497 221.273 223.102 224.237 219.826 225.488L188.529 237.437C185.251 238.689 181.537 238.057 178.834 235.788L153.037 214.125C150.335 211.855 149.016 208.26 149.592 204.739L155.092 171.129C155.667 167.609 158.061 164.644 161.339 163.393L192.636 151.444C193.748 151.02 194.913 150.811 196.071 150.811C196.071 150.811 196.072 150.811 196.072 150.812V150.812ZM185.093 237.767C185.093 237.767 185.093 237.768 185.094 237.768C186.216 237.768 187.344 237.566 188.425 237.153L219.722 225.204C222.901 223.991 225.222 221.116 225.781 217.703L231.281 184.093C231.84 180.679 230.559 177.192 227.939 174.992L202.142 153.329C199.522 151.129 195.92 150.515 192.742 151.728L161.444 163.677C158.266 164.891 155.944 167.766 155.385 171.179L149.885 204.789C149.326 208.203 150.607 211.689 153.227 213.89L179.024 235.553C180.753 237.006 182.911 237.766 185.092 237.766C185.093 237.766 185.093 237.766 185.093 237.767V237.767Z" fill="url(#paint24_linear_2034_12290)"/>
<path d="M199.318 148.834C202.003 148.834 204.637 149.893 206.605 151.851L231.949 177.07C234.603 179.711 235.684 183.628 234.767 187.292L226.019 222.282C225.103 225.946 222.317 228.859 218.745 229.883L184.654 239.653C181.084 240.676 177.217 239.672 174.563 237.029L149.219 211.81C146.566 209.169 145.485 205.252 146.401 201.588L155.149 166.598C156.065 162.934 158.852 160.021 162.423 158.998L196.515 149.227C197.438 148.962 198.381 148.834 199.319 148.834H199.318ZM225.712 222.202L234.46 187.212C235.348 183.659 234.302 179.86 231.728 177.3L206.384 152.08C203.811 149.52 200.06 148.544 196.599 149.537L162.507 159.307C159.045 160.3 156.342 163.124 155.454 166.677L146.707 201.667C145.819 205.219 146.866 209.019 149.439 211.579L174.783 236.798C177.356 239.36 181.105 240.334 184.568 239.342L218.66 229.571C222.122 228.579 224.824 225.755 225.712 222.202Z" fill="url(#paint25_linear_2034_12290)"/>
<path d="M202.865 147.035C202.865 147.036 202.866 147.036 202.867 147.036C206.037 147.036 209.111 148.434 211.224 150.924L235.779 179.857C238.35 182.888 239.147 187.122 237.86 190.908L225.562 227.058C224.275 230.844 221.078 233.666 217.217 234.42L180.367 241.636C176.508 242.39 172.512 240.979 169.94 237.948L145.385 209.015C142.814 205.984 142.017 201.75 143.304 197.964L155.6 161.814C156.887 158.028 160.085 155.206 163.945 154.451L200.796 147.234C201.484 147.099 202.175 147.034 202.863 147.034C202.863 147.034 202.864 147.035 202.865 147.035V147.035ZM178.299 241.498C178.299 241.498 178.299 241.497 178.3 241.497C178.967 241.497 179.637 241.434 180.304 241.302L217.155 234.085C220.898 233.353 223.998 230.616 225.247 226.945L237.545 190.795C238.793 187.124 238.02 183.017 235.525 180.08L210.97 151.147C208.476 148.208 204.603 146.839 200.86 147.572L164.009 154.789C160.266 155.521 157.166 158.258 155.917 161.929L143.621 198.079C142.373 201.75 143.146 205.857 145.639 208.796L170.194 237.729C172.243 240.143 175.223 241.499 178.298 241.499C178.298 241.499 178.299 241.498 178.299 241.498V241.498Z" fill="url(#paint26_linear_2034_12290)"/>
<path d="M206.72 145.464C210.431 145.464 213.976 147.276 216.185 150.371L239.582 183.154C242.032 186.587 242.504 191.131 240.812 195.013L224.666 232.065C222.974 235.944 219.352 238.633 215.211 239.08L175.668 243.348C171.526 243.796 167.432 241.939 164.982 238.506L141.585 205.723C139.134 202.29 138.663 197.746 140.355 193.864L156.501 156.812C158.191 152.933 161.815 150.244 165.955 149.797L205.498 145.529C205.906 145.484 206.316 145.464 206.72 145.464ZM224.343 231.919L240.49 194.867C242.129 191.104 241.671 186.699 239.296 183.368L215.899 150.584C213.523 147.254 209.552 145.455 205.537 145.89L165.994 150.158C161.977 150.591 158.465 153.199 156.825 156.961L140.678 194.013C139.039 197.777 139.497 202.182 141.872 205.512L165.269 238.296C167.645 241.626 171.616 243.425 175.631 242.99L215.174 238.722C219.191 238.289 222.704 235.683 224.343 231.919Z" fill="url(#paint27_linear_2034_12290)"/>
<path d="M210.871 144.15C215.186 144.15 219.227 146.464 221.47 150.237L243.307 186.981C245.595 190.83 245.696 195.67 243.571 199.613L223.281 237.269C221.156 241.212 217.096 243.723 212.683 243.817L170.557 244.728C166.141 244.823 161.984 242.493 159.696 238.644L137.859 201.9C135.571 198.051 135.47 193.211 137.595 189.268L157.885 151.612C160.01 147.668 164.07 145.158 168.483 145.064L210.609 144.153C210.696 144.152 210.783 144.15 210.869 144.15H210.871ZM170.295 244.348C170.379 244.348 170.463 244.348 170.549 244.344L212.675 243.434C216.953 243.341 220.891 240.908 222.952 237.084L243.242 199.428C245.303 195.603 245.206 190.911 242.987 187.178L221.149 150.434C218.932 146.703 214.904 144.442 210.617 144.535L168.491 145.445C164.213 145.538 160.275 147.971 158.214 151.795L137.924 189.451C135.863 193.276 135.962 197.968 138.179 201.701L160.017 238.445C162.19 242.102 166.111 244.348 170.295 244.348Z" fill="url(#paint28_linear_2034_12290)"/>
<path d="M170.746 140.267C171.019 140.267 171.293 140.276 171.566 140.293L216.128 143.161C220.795 143.462 224.985 146.301 227.063 150.573L246.906 191.358C248.984 195.629 248.667 200.75 246.079 204.72L221.361 242.637C218.773 246.607 214.265 248.885 209.599 248.587L165.037 245.719C160.37 245.418 156.18 242.579 154.103 238.307L134.259 197.522C132.181 193.251 132.498 188.13 135.086 184.16L159.804 146.243C162.239 142.506 166.377 140.267 170.746 140.267ZM221.197 242.522C221.197 242.523 221.196 242.523 221.195 242.523L221.087 242.449C221.056 242.428 221.047 242.385 221.068 242.353L245.748 204.495C248.259 200.644 248.566 195.679 246.55 191.537L226.707 150.753C224.691 146.611 220.629 143.858 216.103 143.565L171.541 140.697C167.014 140.404 162.646 142.617 160.135 146.467L135.417 184.382C132.906 188.233 132.599 193.197 134.615 197.339L154.458 238.124C156.474 242.265 160.537 245.019 165.062 245.312L209.624 248.18C214.104 248.47 218.435 246.302 220.957 242.52C220.998 242.459 221.08 242.443 221.14 242.483L221.196 242.522C221.196 242.522 221.197 242.522 221.197 242.522V242.522Z" fill="url(#paint29_linear_2034_12290)"/>
<path d="M173.212 135.383C173.211 135.383 173.211 135.382 173.212 135.382C173.886 135.382 174.562 135.432 175.24 135.534L222.04 142.616C226.941 143.357 231.117 146.737 232.938 151.437L250.323 196.305C252.144 201.004 251.362 206.382 248.281 210.338L218.865 248.126C215.785 252.083 210.825 254.082 205.924 253.339L159.124 246.257C154.223 245.516 150.047 242.136 148.226 237.437L130.841 192.569C129.02 187.869 129.802 182.492 132.884 178.535L162.299 140.749C164.954 137.339 169.004 135.384 173.211 135.384C173.212 135.384 173.212 135.383 173.212 135.383V135.383ZM207.955 253.064C212.034 253.064 215.961 251.167 218.536 247.861L247.952 210.075C250.939 206.238 251.698 201.023 249.932 196.466L232.547 151.598C230.781 147.04 226.732 143.763 221.978 143.044L175.178 135.962C170.426 135.243 165.616 137.181 162.628 141.018L133.213 178.804C130.225 182.641 129.467 187.856 131.232 192.413L148.617 237.281C150.383 241.837 154.433 245.116 159.186 245.835L205.986 252.917C206.643 253.016 207.301 253.064 207.954 253.064H207.955Z" fill="url(#paint30_linear_2034_12290)"/>
<path d="M176.168 130.451C177.289 130.451 178.419 130.581 179.533 130.849L228.331 142.583C233.442 143.812 237.555 147.76 239.066 152.887L253.498 201.845C255.011 206.973 253.713 212.579 250.115 216.478L215.75 253.703C212.151 257.601 206.74 259.26 201.629 258.031L152.831 246.298C147.721 245.069 143.607 241.121 142.096 235.993L127.664 187.035C126.151 181.907 127.449 176.301 131.047 172.402L165.413 135.177C168.226 132.129 172.148 130.451 176.168 130.451ZM215.427 253.391L249.792 216.166C253.282 212.386 254.541 206.949 253.074 201.977L238.641 153.019C237.176 148.047 233.186 144.217 228.23 143.026L179.432 131.293C174.476 130.1 169.229 131.708 165.74 135.489L131.375 172.714C127.885 176.494 126.626 181.931 128.093 186.903L142.526 235.861C143.991 240.833 147.981 244.663 152.937 245.854L201.735 257.588C206.69 258.779 211.938 257.172 215.427 253.391Z" fill="url(#paint31_linear_2034_12290)"/>
<path d="M179.644 125.507C181.265 125.507 182.897 125.764 184.478 126.291L234.977 143.118C240.266 144.881 244.264 149.423 245.412 154.974L256.37 207.982C257.518 213.534 255.659 219.335 251.516 223.124L211.975 259.305C207.834 263.094 201.975 264.354 196.686 262.591L146.187 245.765C140.898 244.002 136.9 239.458 135.752 233.908L124.794 180.901C123.646 175.349 125.505 169.547 129.648 165.758L169.189 129.577C172.093 126.921 175.841 125.507 179.642 125.507H179.644ZM211.817 259.126C211.817 259.126 211.817 259.126 211.817 259.125L211.773 259.076C211.71 259.004 211.716 258.894 211.787 258.829L251.201 222.765C255.217 219.091 257.02 213.464 255.907 208.081L244.949 155.074C243.836 149.69 239.959 145.284 234.83 143.576L184.33 126.75C179.201 125.04 173.521 126.262 169.505 129.936L129.963 166.117C125.947 169.792 124.144 175.419 125.257 180.801L136.215 233.809C137.328 239.191 141.205 243.598 146.334 245.308L196.834 262.134C201.942 263.835 207.597 262.632 211.61 258.992C211.637 258.968 211.679 258.97 211.703 258.998L211.816 259.126C211.816 259.127 211.817 259.126 211.817 259.126V259.126Z" fill="url(#paint32_linear_2034_12290)"/>
<path d="M183.663 120.599C183.663 120.599 183.664 120.6 183.664 120.6C185.844 120.6 188.034 121.036 190.098 121.926L241.949 144.286C247.379 146.627 251.204 151.788 251.931 157.754L258.864 214.72C259.591 220.686 257.118 226.644 252.416 230.269L207.5 264.875C202.795 268.5 196.5 269.296 191.07 266.954L139.219 244.595C133.79 242.254 129.965 237.092 129.238 231.126L122.304 174.158C121.578 168.192 124.05 162.235 128.753 158.61L173.668 124.004C176.584 121.759 180.11 120.598 183.662 120.598C183.663 120.598 183.663 120.598 183.663 120.599V120.599ZM207.346 264.674C207.347 264.673 207.347 264.673 207.347 264.672L207.277 264.578C207.232 264.518 207.244 264.433 207.304 264.387L252.112 229.863C256.674 226.348 259.07 220.572 258.365 214.785L251.432 157.819C250.727 152.033 247.02 147.029 241.753 144.758L189.902 122.398C184.637 120.127 178.531 120.901 173.969 124.414L129.053 159.021C124.491 162.536 122.095 168.312 122.799 174.098L129.733 231.066C130.438 236.851 134.145 241.857 139.412 244.128L191.263 266.487C196.492 268.743 202.551 267.997 207.101 264.543C207.152 264.504 207.226 264.514 207.265 264.566L207.345 264.674C207.345 264.674 207.346 264.674 207.346 264.674V264.674Z" fill="url(#paint33_linear_2034_12290)"/>
<path d="M188.249 115.776C191.052 115.776 193.859 116.455 196.413 117.826L249.205 146.151C254.734 149.117 258.321 154.915 258.566 161.28L260.906 222.063C261.151 228.429 258.02 234.494 252.737 237.893L202.282 270.35C196.999 273.749 190.282 274.018 184.752 271.052L131.959 242.726C126.43 239.76 122.844 233.962 122.599 227.597L120.259 166.815C120.014 160.449 123.144 154.383 128.428 150.984L178.882 118.528C181.725 116.698 184.983 115.776 188.248 115.776H188.249ZM192.917 272.56C192.917 272.56 192.917 272.559 192.918 272.559C196.083 272.559 199.243 271.664 201.999 269.891L252.453 237.435C257.577 234.138 260.612 228.256 260.375 222.083L258.035 161.301C257.797 155.128 254.319 149.506 248.959 146.629L196.166 118.303C190.806 115.426 184.292 115.687 179.167 118.984L128.713 151.441C123.589 154.738 120.553 160.62 120.791 166.793L123.131 227.575C123.369 233.748 126.847 239.37 132.207 242.247L185 270.573C187.475 271.9 190.199 272.561 192.916 272.561C192.917 272.561 192.917 272.561 192.917 272.56V272.56Z" fill="url(#paint34_linear_2034_12290)"/>
<path d="M193.423 111.098C193.423 111.098 193.424 111.099 193.425 111.099C196.921 111.099 200.408 112.097 203.44 114.073L256.706 148.782C262.285 152.417 265.565 158.864 265.268 165.609L262.421 230C262.122 236.745 258.287 242.865 252.411 245.973L196.299 275.656C190.423 278.765 183.306 278.437 177.727 274.802L124.46 240.093C118.881 236.458 115.601 230.011 115.898 223.266L118.745 158.874C119.044 152.13 122.879 146.01 128.755 142.902L184.867 113.219C187.547 111.8 190.487 111.097 193.421 111.097C193.422 111.097 193.422 111.097 193.423 111.098V111.098ZM187.742 277.206C190.587 277.206 193.437 276.525 196.037 275.149L252.149 245.466C257.847 242.453 261.568 236.517 261.857 229.976L264.704 165.585C264.992 159.045 261.812 152.792 256.402 149.268L203.136 114.559C197.727 111.033 190.827 110.717 185.127 113.731L129.015 143.413C123.317 146.429 119.596 152.362 119.307 158.903L116.461 223.295C116.172 229.834 119.352 236.086 124.762 239.612L178.029 274.321C180.97 276.238 184.354 277.206 187.742 277.206Z" fill="url(#paint35_linear_2034_12290)"/>
<path d="M199.202 106.629C199.202 106.629 199.202 106.628 199.203 106.628C203.469 106.628 207.701 108.035 211.187 110.753L264.396 152.248C269.968 156.593 272.868 163.699 271.964 170.792L263.327 238.525C262.422 245.619 257.837 251.732 251.36 254.48L189.514 280.72C183.037 283.468 175.551 282.476 169.979 278.13L116.77 236.637C111.198 232.292 108.298 225.184 109.203 218.091L117.84 150.358C118.744 143.264 123.33 137.151 129.807 134.403L191.652 108.163C194.079 107.135 196.647 106.63 199.201 106.63C199.201 106.63 199.202 106.63 199.202 106.629V106.629ZM189.284 280.158L251.13 253.919C257.41 251.254 261.858 245.326 262.734 238.446L271.371 170.714C272.249 163.836 269.436 156.944 264.033 152.73L210.825 111.235C205.42 107.022 198.163 106.058 191.881 108.723L130.035 134.962C123.754 137.627 119.307 143.555 118.43 150.435L109.793 218.168C108.915 225.046 111.729 231.938 117.131 236.151L170.34 277.646C175.744 281.859 183.002 282.823 189.284 280.158Z" fill="url(#paint36_linear_2034_12290)"/>
<path d="M205.602 102.427C205.602 102.428 205.603 102.428 205.603 102.428C210.727 102.428 215.77 104.347 219.661 107.949L272.215 156.601C277.718 161.696 280.159 169.464 278.584 176.871L263.539 247.605C261.963 255.014 256.587 261.052 249.508 263.364L181.91 285.444C174.831 287.757 167.014 286.028 161.509 280.933L108.955 232.281C103.452 227.186 101.011 219.418 102.586 212.011L117.631 141.277C119.207 133.868 124.583 127.831 131.662 125.518L199.26 103.436C201.336 102.758 203.475 102.426 205.602 102.426C205.602 102.426 205.602 102.427 205.602 102.427V102.427ZM181.811 285.138C181.811 285.138 181.811 285.138 181.811 285.138L181.798 285.097C181.752 284.95 181.833 284.793 181.98 284.746L249.313 262.751C256.178 260.509 261.392 254.653 262.92 247.47L277.965 176.736C279.492 169.553 277.126 162.019 271.79 157.079L219.236 108.427C213.899 103.486 206.319 101.809 199.453 104.052L131.855 126.135C124.991 128.376 119.776 134.233 118.248 141.416L103.203 212.15C101.676 219.333 104.042 226.865 109.378 231.807L161.932 280.459C167.259 285.39 174.819 287.07 181.674 284.847C181.697 284.84 181.721 284.852 181.728 284.874L181.811 285.138C181.811 285.139 181.811 285.138 181.811 285.138V285.138Z" fill="url(#paint37_linear_2034_12290)"/>
<path d="M212.629 98.5698C212.628 98.5695 212.628 98.5689 212.629 98.5689C218.704 98.5693 224.625 101.126 228.851 105.757L280.088 161.908C285.453 167.789 287.35 176.212 285.039 183.891L262.966 257.211C260.655 264.89 254.45 270.778 246.771 272.575L173.464 289.744C165.787 291.542 157.684 289.006 152.318 283.126L101.083 226.974C95.717 221.094 93.8204 212.67 96.1316 204.991L118.204 131.671C120.515 123.992 126.722 118.105 134.399 116.308L207.707 99.1388C209.338 98.7573 210.989 98.5707 212.628 98.5706C212.629 98.5706 212.629 98.5701 212.629 98.5698V98.5698ZM168.538 289.63C168.538 289.629 168.538 289.629 168.539 289.629C170.129 289.629 171.73 289.447 173.313 289.078L246.62 271.909C254.066 270.165 260.083 264.456 262.325 257.011L284.398 183.691C286.64 176.245 284.799 168.076 279.596 162.374L228.359 106.222C223.156 100.52 215.3 98.0606 207.854 99.8045L134.547 116.973C127.102 118.717 121.084 124.425 118.842 131.871L96.7694 205.191C94.5288 212.638 96.3683 220.806 101.571 226.509L152.806 282.66C156.903 287.151 162.646 289.63 168.537 289.631C168.537 289.631 168.538 289.63 168.538 289.63V289.63Z" fill="url(#paint38_linear_2034_12290)"/>
<path d="M220.279 95.1299C227.414 95.1299 234.277 98.4688 238.745 104.279L287.934 168.228C293.085 174.924 294.352 183.991 291.241 191.89L261.521 267.301C258.409 275.199 251.342 280.85 243.077 282.052L164.169 293.513C155.904 294.713 147.571 291.298 142.42 284.602L93.2313 220.653C88.0803 213.956 86.8131 204.889 89.9248 196.991L119.644 121.58C122.756 113.682 129.824 108.03 138.088 106.829L216.996 95.3678C218.092 95.2086 219.19 95.1299 220.279 95.1299ZM164.07 292.796L242.978 281.335C250.992 280.171 257.845 274.689 260.863 267.031L290.583 191.619C293.6 183.961 292.372 175.169 287.377 168.674L238.188 104.726C233.854 99.0918 227.199 95.8538 220.281 95.8538C219.224 95.8538 218.16 95.9291 217.097 96.0831L138.189 107.544C130.175 108.708 123.322 114.19 120.304 121.848L90.5845 197.26C87.5667 204.918 88.7953 213.71 93.7902 220.205L142.979 284.153C147.974 290.648 156.055 293.96 164.07 292.796Z" fill="url(#paint39_linear_2034_12290)"/>
<path d="M228.548 92.188C236.866 92.188 244.728 96.4785 249.323 103.617L295.667 175.614C300.521 183.155 301.065 192.843 297.089 200.9L259.114 277.823C255.136 285.878 247.18 291.204 238.348 291.72L154.027 296.647C145.192 297.16 136.696 292.799 131.842 285.259L85.4982 213.262C80.6442 205.721 80.1005 196.033 84.0766 187.977L122.052 111.053C126.03 102.997 133.985 97.6714 142.817 97.1562L227.138 92.2291C227.61 92.2017 228.08 92.188 228.548 92.188ZM152.616 295.921C153.071 295.921 153.527 295.907 153.984 295.882L238.305 290.955C246.868 290.455 254.584 285.29 258.441 277.477L296.416 200.554C300.273 192.742 299.744 183.346 295.038 176.035L248.692 104.038C244.236 97.1169 236.611 92.9547 228.547 92.9547C228.092 92.9547 227.637 92.9684 227.179 92.9941L142.857 97.9212C134.294 98.421 126.579 103.586 122.722 111.397L84.7462 188.321C80.8893 196.134 81.418 205.528 86.1243 212.841L132.468 284.838C136.924 291.759 144.549 295.921 152.614 295.921H152.616Z" fill="url(#paint40_linear_2034_12290)"/>
<path d="M147.95 87.3677C148.185 87.3677 148.42 87.3711 148.657 87.3779L238.122 89.8441C247.493 90.1025 256.086 95.4832 260.552 103.886L303.191 184.122C307.657 192.525 307.383 202.806 302.479 210.95L255.652 288.72C250.747 296.865 241.875 301.763 232.51 301.506L143.044 299.04C133.674 298.781 125.08 293.401 120.614 284.998L77.9761 204.762C73.5099 196.359 73.7835 186.078 78.6878 177.934L125.515 100.164C130.295 92.2246 138.843 87.3694 147.95 87.3677ZM233.216 300.704C233.216 300.704 233.217 300.703 233.217 300.703C242.049 300.703 250.336 295.995 254.972 288.296L301.799 210.526C306.554 202.628 306.819 192.659 302.489 184.511L259.851 104.275C255.521 96.1267 247.186 90.9086 238.101 90.6587L148.635 88.1926C139.552 87.9427 130.95 92.6936 126.195 100.592L79.3675 178.362C74.611 186.26 74.3475 196.229 78.6777 204.377L121.316 284.613C125.646 292.761 133.981 297.979 143.066 298.229L232.532 300.695C232.76 300.702 232.988 300.705 233.216 300.705C233.216 300.705 233.216 300.705 233.216 300.704V300.704Z" fill="url(#paint41_linear_2034_12290)"/>
<path d="M152.601 77.405C153.623 77.405 154.649 77.4632 155.676 77.5795L249.926 88.3186C259.797 89.443 268.402 95.907 272.382 105.185L310.386 193.784C314.365 203.063 313.179 213.893 307.287 222.046L251.041 299.905C245.15 308.06 235.36 312.428 225.487 311.302L131.237 300.562C121.366 299.438 112.761 292.974 108.781 283.697L70.7774 195.097C66.7979 185.818 67.9845 174.988 73.8757 166.835L130.122 88.9758C135.399 81.6715 143.808 77.405 152.599 77.405H152.601ZM228.565 310.617C237.092 310.617 245.244 306.481 250.363 299.397L306.609 221.538C312.321 213.631 313.472 203.128 309.614 194.132L271.61 105.532C267.749 96.5334 259.406 90.2662 249.834 89.1761L155.584 78.437C146.01 77.3451 136.517 81.5808 130.805 89.4875L74.5589 167.346C68.8473 175.253 67.6959 185.756 71.5545 194.753L109.558 283.353C113.419 292.351 121.762 298.618 131.334 299.708L225.585 310.448C226.58 310.561 227.577 310.617 228.567 310.617H228.565Z" fill="url(#paint42_linear_2034_12290)"/>
<path d="M158.24 67.302C158.239 67.3023 158.239 67.3028 158.24 67.3028C160.138 67.3029 162.049 67.4894 163.947 67.8727L262.526 87.7833C272.85 89.8678 281.371 97.475 284.761 107.634L317.141 204.642C320.532 214.801 318.331 226.128 311.399 234.203L245.198 311.298C238.265 319.373 227.545 323.093 217.219 321.007L118.64 301.097C108.316 299.012 99.7951 291.405 96.4048 281.246L64.025 184.238C60.6346 174.078 62.8351 162.752 69.7685 154.677L135.97 77.5816C141.627 70.9913 149.809 67.3032 158.239 67.3011C158.24 67.3011 158.24 67.3017 158.24 67.302V67.302ZM222.928 320.668C231.103 320.668 239.037 317.092 244.524 310.699L310.725 233.604C317.448 225.774 319.582 214.79 316.294 204.938L283.914 107.93C280.626 98.0774 272.363 90.7012 262.351 88.68L163.772 68.7695C161.933 68.3981 160.078 68.2167 158.237 68.2167C150.062 68.2167 142.129 71.7953 136.641 78.1857L70.4399 155.281C63.7162 163.111 61.5829 174.095 64.8709 183.947L97.2506 280.955C100.539 290.808 108.801 298.184 118.813 300.205L217.394 320.116C219.233 320.487 221.088 320.668 222.928 320.668Z" fill="url(#paint43_linear_2034_12290)"/>
<path d="M164.919 57.142C164.919 57.1415 164.92 57.1411 164.92 57.1411C167.798 57.1412 170.695 57.5451 173.528 58.3751L275.876 88.3641C286.595 91.5045 294.926 100.311 297.618 111.348L323.323 216.723C326.015 227.758 322.7 239.519 314.674 247.414L238.03 322.8C230.002 330.695 218.358 333.648 207.639 330.508L105.291 300.519C94.5724 297.379 86.2408 288.572 83.5486 277.536L57.8439 172.162C55.1518 161.126 58.4666 149.366 66.4927 141.471L143.137 66.085C149.041 60.2767 156.906 57.1431 164.918 57.1429C164.919 57.1429 164.919 57.1425 164.919 57.142V57.142ZM216.248 330.774C216.248 330.775 216.248 330.775 216.249 330.775C224.019 330.775 231.644 327.735 237.371 322.103L314.015 246.717C321.799 239.061 325.013 227.657 322.402 216.956L296.697 111.581C294.087 100.88 286.007 92.3397 275.613 89.2934L173.264 59.3044C162.87 56.2581 151.578 59.123 143.793 66.7781L67.149 142.164C59.3646 149.819 56.1504 161.224 58.762 171.925L84.4667 277.3C87.0766 288.002 95.1564 296.542 105.551 299.588L207.9 329.577C210.647 330.381 213.456 330.773 216.247 330.773C216.248 330.773 216.248 330.774 216.248 330.774V330.774Z" fill="url(#paint44_linear_2034_12290)"/>
<path d="M172.693 47.0111C172.694 47.0105 172.695 47.0102 172.695 47.0102C176.668 47.0104 180.662 47.7343 184.477 49.2162L289.924 90.1891C300.968 94.4796 308.994 104.538 310.87 116.434L328.794 230.037C330.67 241.935 326.144 254.05 316.976 261.657L229.453 334.286C220.287 341.891 207.731 343.952 196.689 339.661L91.2415 298.688C80.1976 294.398 72.1714 284.34 70.295 272.444L52.3697 158.842C50.4933 146.945 55.0198 134.828 64.1873 127.222L151.711 54.5935C157.711 49.6153 165.162 47.0122 172.691 47.0119C172.692 47.0119 172.693 47.0116 172.693 47.0111V47.0111ZM208.475 340.843C208.475 340.843 208.475 340.844 208.475 340.844C215.778 340.844 223.003 338.321 228.822 333.492L316.345 260.863C325.234 253.487 329.625 241.738 327.803 230.199L309.88 116.596C308.059 105.06 300.276 95.3062 289.566 91.1457L184.119 50.1729C180.422 48.7353 176.546 48.0336 172.694 48.0336C165.391 48.0336 158.166 50.5562 152.347 55.3858L64.8234 128.015C55.9346 135.391 51.5439 147.14 53.3649 158.678L71.2903 272.28C73.1114 283.816 80.8941 293.57 91.6039 297.73L197.051 338.703C200.748 340.14 204.623 340.842 208.475 340.842C208.475 340.842 208.475 340.843 208.475 340.843V340.843Z" fill="url(#paint45_linear_2034_12290)"/>
<path d="M181.612 37.0156C181.612 37.0161 181.613 37.0165 181.613 37.0165C186.807 37.0166 192.017 38.1821 196.835 40.5454L304.594 93.3988C315.879 98.9335 323.476 110.284 324.416 123.017L333.405 244.598C334.347 257.331 328.506 269.713 318.162 276.912L219.395 345.642C209.051 352.84 195.614 353.874 184.33 348.337L76.5713 295.485C65.2857 289.951 57.691 278.601 56.7494 265.868L47.7599 144.284C46.8183 131.551 52.6591 119.169 63.0031 111.971L161.77 43.2408C167.696 39.1165 174.641 37.0149 181.611 37.0148C181.612 37.0148 181.612 37.0151 181.612 37.0156V37.0156ZM199.554 350.784C199.554 350.783 199.555 350.783 199.555 350.783C206.316 350.783 213.047 348.746 218.796 344.747L317.563 276.016C327.593 269.036 333.257 257.03 332.344 244.682L323.355 123.1C322.442 110.753 315.077 99.7482 304.132 94.3795L196.374 41.526C185.431 36.159 172.401 37.1602 162.369 44.1411L63.6023 112.871C53.5722 119.852 47.9076 131.858 48.8206 144.205L57.8101 265.789C58.7232 278.137 66.0897 289.141 77.0328 294.51L184.791 347.362C189.464 349.653 194.517 350.784 199.554 350.785C199.554 350.785 199.554 350.784 199.554 350.784V350.784Z" fill="url(#paint46_linear_2034_12290)"/>
<path d="M191.721 27.2623C191.721 27.2628 191.722 27.2632 191.722 27.2632C198.278 27.2633 204.83 29.0141 210.645 32.5103L319.805 98.1172C331.237 104.989 338.264 117.661 338.145 131.192L337.004 260.39C336.885 273.92 329.634 286.463 318.081 293.122L207.78 356.713C196.228 363.372 181.95 363.242 170.518 356.371L61.3584 290.764C49.9268 283.892 42.8994 271.219 43.0185 257.689L44.1598 128.491C44.279 114.961 51.5297 102.418 63.0821 95.7572L173.383 32.1663C179.058 28.896 185.39 27.2616 191.721 27.2615C191.721 27.2615 191.721 27.2618 191.721 27.2623V27.2623ZM189.444 360.468C195.582 360.468 201.723 358.885 207.226 355.712L317.528 292.121C328.729 285.664 335.76 273.501 335.876 260.379L337.017 131.182C337.133 118.06 330.319 105.771 319.233 99.1081L210.073 33.5013C198.987 26.8387 185.142 26.7104 173.939 33.1693L63.6376 96.7601C52.436 103.219 45.4052 115.38 45.2894 128.502L44.1481 257.699C44.0323 270.821 50.8466 283.11 61.9324 289.773L171.092 355.38C176.732 358.77 183.086 360.468 189.444 360.468Z" fill="url(#paint47_linear_2034_12290)"/>
<path d="M203.1 17.862C204.321 17.862 205.545 17.9202 206.767 18.0366C213.658 18.6938 220.285 21.1993 225.931 25.2827L335.453 104.483C341.099 108.567 345.609 114.115 348.498 120.529C351.386 126.944 352.571 134.05 351.927 141.077L339.421 277.392C338.776 284.419 336.319 291.176 332.315 296.933C328.31 302.69 322.869 307.289 316.578 310.234L194.55 367.349C188.259 370.293 181.292 371.502 174.399 370.845C167.507 370.188 160.879 367.683 155.235 363.599L45.7127 284.399C40.0665 280.315 35.5567 274.767 32.6682 268.352C29.7813 261.938 28.5947 254.832 29.2392 247.805L41.7449 111.49C42.3894 104.463 44.8466 97.7061 48.8513 91.949C52.856 86.1918 58.2973 81.5932 64.5879 78.6479L186.616 21.533C191.792 19.1096 197.427 17.862 203.1 17.862ZM178.103 369.784C183.529 369.784 188.976 368.615 194.051 366.24L316.079 309.125C328.473 303.325 336.96 291.121 338.231 277.277L350.737 140.962C352.007 127.118 345.886 113.521 334.763 105.478L225.241 26.2771C218.673 21.5279 210.889 19.0959 203.064 19.0959C197.638 19.0959 192.192 20.2649 187.118 22.6403L65.0898 79.7552C52.6965 85.5551 44.2088 97.7592 42.9399 111.603L30.4342 247.918C29.1637 261.762 35.2848 275.359 46.4075 283.403L155.93 362.603C162.497 367.352 170.282 369.784 178.107 369.784H178.103Z" fill="url(#paint48_linear_2034_12290)"/>
<path d="M215.719 8.97838C218.186 8.97838 220.656 9.20085 223.098 9.64753C230.317 10.9687 237.096 14.217 242.7 19.0415L351.419 112.63C357.023 117.454 361.301 123.723 363.789 130.759C366.276 137.794 366.907 145.405 365.611 152.766L340.484 295.564C339.188 302.925 336.003 309.837 331.271 315.552C326.54 321.266 320.392 325.628 313.492 328.165L179.646 377.375C172.746 379.911 165.283 380.554 158.064 379.233C150.845 377.912 144.066 374.664 138.462 369.839L29.7434 276.251C24.1392 271.426 19.861 265.158 17.3736 258.122C14.8862 251.086 14.2551 243.477 15.5508 236.115L40.6782 93.3166C41.9739 85.9559 45.1595 79.0435 49.8909 73.3291C54.6223 67.6147 60.7703 63.2523 67.6702 60.716L201.516 11.5061C206.081 9.82725 210.893 8.97838 215.717 8.97838H215.719ZM165.501 378.598C170.118 378.598 174.759 377.799 179.218 376.16L313.064 326.95C326.657 321.952 336.686 309.839 339.239 295.337L364.366 152.538C366.917 138.036 361.644 123.123 350.603 113.617L241.885 20.029C234.466 13.642 225.121 10.2825 215.665 10.2825C211.048 10.2825 206.407 11.0817 201.947 12.7212L68.1015 61.9311C54.5082 66.9284 44.4798 79.0417 41.9269 93.5442L16.7996 236.343C14.2468 250.845 19.522 265.758 30.5625 275.263L139.281 368.852C146.699 375.239 156.045 378.598 165.501 378.598Z" fill="url(#paint49_linear_2034_12290)"/>
<path d="M229.605 0.735324C233.465 0.735324 237.327 1.24875 241.08 2.27388C248.588 4.32586 255.461 8.37161 260.956 13.9748L367.564 122.68C373.061 128.283 377.029 135.291 379.04 142.947C381.052 150.602 381.052 158.695 379.04 166.35L340.018 314.846C338.006 322.501 334.038 329.509 328.543 335.112C323.048 340.715 316.173 344.763 308.668 346.813L163.036 386.602C155.529 388.654 147.592 388.654 140.084 386.602C132.577 384.55 125.704 380.504 120.208 374.901L13.5999 266.195C8.10312 260.592 4.13536 253.582 2.12464 245.929C0.112235 238.274 0.112235 230.181 2.12464 222.525L41.1458 74.0298C43.1582 66.3747 47.1259 59.3665 52.621 53.7633C58.1161 48.1601 64.9891 44.1127 72.4966 42.0624L218.128 2.27388C221.881 1.24875 225.743 0.735324 229.603 0.735324H229.605ZM151.618 386.767C151.618 386.766 151.618 386.766 151.619 386.766C155.316 386.766 159.037 386.28 162.69 385.282L308.322 345.494C323.112 341.453 334.762 329.574 338.724 314.493L377.745 165.998C381.708 150.917 377.445 134.691 366.618 123.65L260.009 14.9451C249.182 3.90482 233.269 -0.442129 218.479 3.59851L72.8474 43.387C58.0573 47.4277 46.4076 59.3066 42.4449 74.3875L3.42376 222.883C-0.538945 237.964 3.72416 254.19 14.5515 265.23L121.16 373.935C129.312 382.248 140.349 386.767 151.617 386.768C151.618 386.768 151.618 386.767 151.618 386.767V386.767Z" fill="url(#paint50_linear_2034_12290)"/>
<defs>
<linearGradient id="paint0_linear_2034_12290" x1="190.583" y1="205.18" x2="190.583" y2="183.705" gradientUnits="userSpaceOnUse">
<stop stop-color="white" stop-opacity="0"/>
<stop offset="1" stop-color="white"/>
</linearGradient>
<linearGradient id="paint1_linear_2034_12290" x1="190.582" y1="205.609" x2="190.582" y2="183.272" gradientUnits="userSpaceOnUse">
<stop stop-color="white" stop-opacity="0"/>
<stop offset="1" stop-color="white"/>
</linearGradient>
<linearGradient id="paint2_linear_2034_12290" x1="190.585" y1="205.984" x2="190.585" y2="182.887" gradientUnits="userSpaceOnUse">
<stop stop-color="white" stop-opacity="0"/>
<stop offset="1" stop-color="white"/>
</linearGradient>
<linearGradient id="paint3_linear_2034_12290" x1="190.584" y1="206.309" x2="190.584" y2="182.568" gradientUnits="userSpaceOnUse">
<stop stop-color="white" stop-opacity="0"/>
<stop offset="1" stop-color="white"/>
</linearGradient>
<linearGradient id="paint4_linear_2034_12290" x1="190.582" y1="207.102" x2="190.582" y2="181.771" gradientUnits="userSpaceOnUse">
<stop stop-color="white" stop-opacity="0"/>
<stop offset="1" stop-color="white"/>
</linearGradient>
<linearGradient id="paint5_linear_2034_12290" x1="190.585" y1="208.258" x2="190.585" y2="180.618" gradientUnits="userSpaceOnUse">
<stop stop-color="white" stop-opacity="0"/>
<stop offset="1" stop-color="white"/>
</linearGradient>
<linearGradient id="paint6_linear_2034_12290" x1="190.582" y1="209.426" x2="190.582" y2="179.452" gradientUnits="userSpaceOnUse">
<stop stop-color="white" stop-opacity="0"/>
<stop offset="1" stop-color="white"/>
</linearGradient>
<linearGradient id="paint7_linear_2034_12290" x1="190.583" y1="210.602" x2="190.583" y2="178.282" gradientUnits="userSpaceOnUse">
<stop stop-color="white" stop-opacity="0"/>
<stop offset="1" stop-color="white"/>
</linearGradient>
<linearGradient id="paint8_linear_2034_12290" x1="190.583" y1="211.762" x2="190.583" y2="177.115" gradientUnits="userSpaceOnUse">
<stop stop-color="white" stop-opacity="0"/>
<stop offset="1" stop-color="white"/>
</linearGradient>
<linearGradient id="paint9_linear_2034_12290" x1="190.583" y1="212.906" x2="190.583" y2="175.969" gradientUnits="userSpaceOnUse">
<stop stop-color="white" stop-opacity="0"/>
<stop offset="1" stop-color="white"/>
</linearGradient>
<linearGradient id="paint10_linear_2034_12290" x1="190.585" y1="214.023" x2="190.585" y2="174.859" gradientUnits="userSpaceOnUse">
<stop stop-color="white" stop-opacity="0"/>
<stop offset="1" stop-color="white"/>
</linearGradient>
<linearGradient id="paint11_linear_2034_12290" x1="190.583" y1="215.086" x2="190.583" y2="173.787" gradientUnits="userSpaceOnUse">
<stop stop-color="white" stop-opacity="0"/>
<stop offset="1" stop-color="white"/>
</linearGradient>
<linearGradient id="paint12_linear_2034_12290" x1="190.583" y1="216.094" x2="190.583" y2="172.783" gradientUnits="userSpaceOnUse">
<stop stop-color="white" stop-opacity="0"/>
<stop offset="1" stop-color="white"/>
</linearGradient>
<linearGradient id="paint13_linear_2034_12290" x1="190.583" y1="217.023" x2="190.583" y2="171.861" gradientUnits="userSpaceOnUse">
<stop stop-color="white" stop-opacity="0"/>
<stop offset="1" stop-color="white"/>
</linearGradient>
<linearGradient id="paint14_linear_2034_12290" x1="190.583" y1="217.852" x2="190.583" y2="171.027" gradientUnits="userSpaceOnUse">
<stop stop-color="white" stop-opacity="0"/>
<stop offset="1" stop-color="white"/>
</linearGradient>
<linearGradient id="paint15_linear_2034_12290" x1="190.582" y1="218.562" x2="190.582" y2="170.312" gradientUnits="userSpaceOnUse">
<stop stop-color="white" stop-opacity="0"/>
<stop offset="1" stop-color="white"/>
</linearGradient>
<linearGradient id="paint16_linear_2034_12290" x1="190.583" y1="219.461" x2="190.583" y2="169.414" gradientUnits="userSpaceOnUse">
<stop stop-color="white" stop-opacity="0"/>
<stop offset="1" stop-color="white"/>
</linearGradient>
<linearGradient id="paint17_linear_2034_12290" x1="190.582" y1="221.816" x2="190.582" y2="167.061" gradientUnits="userSpaceOnUse">
<stop stop-color="white" stop-opacity="0"/>
<stop offset="1" stop-color="white"/>
</linearGradient>
<linearGradient id="paint18_linear_2034_12290" x1="190.583" y1="224.203" x2="190.583" y2="164.672" gradientUnits="userSpaceOnUse">
<stop stop-color="white" stop-opacity="0"/>
<stop offset="1" stop-color="white"/>
</linearGradient>
<linearGradient id="paint19_linear_2034_12290" x1="190.582" y1="226.613" x2="190.582" y2="162.268" gradientUnits="userSpaceOnUse">
<stop stop-color="white" stop-opacity="0"/>
<stop offset="1" stop-color="white"/>
</linearGradient>
<linearGradient id="paint20_linear_2034_12290" x1="190.582" y1="229.016" x2="190.582" y2="159.868" gradientUnits="userSpaceOnUse">
<stop stop-color="white" stop-opacity="0"/>
<stop offset="1" stop-color="white"/>
</linearGradient>
<linearGradient id="paint21_linear_2034_12290" x1="190.582" y1="231.391" x2="190.582" y2="157.494" gradientUnits="userSpaceOnUse">
<stop stop-color="white" stop-opacity="0"/>
<stop offset="1" stop-color="white"/>
</linearGradient>
<linearGradient id="paint22_linear_2034_12290" x1="190.583" y1="233.707" x2="190.583" y2="155.173" gradientUnits="userSpaceOnUse">
<stop stop-color="white" stop-opacity="0"/>
<stop offset="1" stop-color="white"/>
</linearGradient>
<linearGradient id="paint23_linear_2034_12290" x1="190.583" y1="235.945" x2="190.583" y2="152.937" gradientUnits="userSpaceOnUse">
<stop stop-color="white" stop-opacity="0"/>
<stop offset="1" stop-color="white"/>
</linearGradient>
<linearGradient id="paint24_linear_2034_12290" x1="190.582" y1="238.07" x2="190.582" y2="150.811" gradientUnits="userSpaceOnUse">
<stop stop-color="white" stop-opacity="0"/>
<stop offset="1" stop-color="white"/>
</linearGradient>
<linearGradient id="paint25_linear_2034_12290" x1="190.584" y1="240.047" x2="190.584" y2="148.834" gradientUnits="userSpaceOnUse">
<stop stop-color="white" stop-opacity="0"/>
<stop offset="1" stop-color="white"/>
</linearGradient>
<linearGradient id="paint26_linear_2034_12290" x1="190.582" y1="241.836" x2="190.582" y2="147.034" gradientUnits="userSpaceOnUse">
<stop stop-color="white" stop-opacity="0"/>
<stop offset="1" stop-color="white"/>
</linearGradient>
<linearGradient id="paint27_linear_2034_12290" x1="190.583" y1="243.414" x2="190.583" y2="145.464" gradientUnits="userSpaceOnUse">
<stop stop-color="white" stop-opacity="0"/>
<stop offset="1" stop-color="white"/>
</linearGradient>
<linearGradient id="paint28_linear_2034_12290" x1="190.583" y1="244.73" x2="190.583" y2="144.15" gradientUnits="userSpaceOnUse">
<stop stop-color="white" stop-opacity="0"/>
<stop offset="1" stop-color="white"/>
</linearGradient>
<linearGradient id="paint29_linear_2034_12290" x1="190.583" y1="248.613" x2="190.583" y2="140.267" gradientUnits="userSpaceOnUse">
<stop stop-color="white" stop-opacity="0"/>
<stop offset="1" stop-color="white"/>
</linearGradient>
<linearGradient id="paint30_linear_2034_12290" x1="190.582" y1="253.492" x2="190.582" y2="135.382" gradientUnits="userSpaceOnUse">
<stop stop-color="white" stop-opacity="0"/>
<stop offset="1" stop-color="white"/>
</linearGradient>
<linearGradient id="paint31_linear_2034_12290" x1="190.581" y1="258.43" x2="190.581" y2="130.451" gradientUnits="userSpaceOnUse">
<stop stop-color="white" stop-opacity="0"/>
<stop offset="1" stop-color="white"/>
</linearGradient>
<linearGradient id="paint32_linear_2034_12290" x1="190.582" y1="263.375" x2="190.582" y2="125.507" gradientUnits="userSpaceOnUse">
<stop stop-color="white" stop-opacity="0"/>
<stop offset="1" stop-color="white"/>
</linearGradient>
<linearGradient id="paint33_linear_2034_12290" x1="190.584" y1="268.281" x2="190.584" y2="120.598" gradientUnits="userSpaceOnUse">
<stop stop-color="white" stop-opacity="0"/>
<stop offset="1" stop-color="white"/>
</linearGradient>
<linearGradient id="paint34_linear_2034_12290" x1="190.582" y1="273.102" x2="190.582" y2="115.776" gradientUnits="userSpaceOnUse">
<stop stop-color="white" stop-opacity="0"/>
<stop offset="1" stop-color="white"/>
</linearGradient>
<linearGradient id="paint35_linear_2034_12290" x1="190.583" y1="277.777" x2="190.583" y2="111.097" gradientUnits="userSpaceOnUse">
<stop stop-color="white" stop-opacity="0"/>
<stop offset="1" stop-color="white"/>
</linearGradient>
<linearGradient id="paint36_linear_2034_12290" x1="190.583" y1="282.254" x2="190.583" y2="106.628" gradientUnits="userSpaceOnUse">
<stop stop-color="white" stop-opacity="0"/>
<stop offset="1" stop-color="white"/>
</linearGradient>
<linearGradient id="paint37_linear_2034_12290" x1="190.585" y1="286.453" x2="190.585" y2="102.426" gradientUnits="userSpaceOnUse">
<stop stop-color="white" stop-opacity="0"/>
<stop offset="1" stop-color="white"/>
</linearGradient>
<linearGradient id="paint38_linear_2034_12290" x1="190.585" y1="290.312" x2="190.585" y2="98.5689" gradientUnits="userSpaceOnUse">
<stop stop-color="white" stop-opacity="0"/>
<stop offset="1" stop-color="white"/>
</linearGradient>
<linearGradient id="paint39_linear_2034_12290" x1="190.583" y1="293.75" x2="190.583" y2="95.1299" gradientUnits="userSpaceOnUse">
<stop stop-color="white" stop-opacity="0"/>
<stop offset="1" stop-color="white"/>
</linearGradient>
<linearGradient id="paint40_linear_2034_12290" x1="190.583" y1="296.688" x2="190.583" y2="92.188" gradientUnits="userSpaceOnUse">
<stop stop-color="white" stop-opacity="0"/>
<stop offset="1" stop-color="white"/>
</linearGradient>
<linearGradient id="paint41_linear_2034_12290" x1="190.583" y1="301.516" x2="190.583" y2="87.3677" gradientUnits="userSpaceOnUse">
<stop stop-color="white" stop-opacity="0"/>
<stop offset="1" stop-color="white"/>
</linearGradient>
<linearGradient id="paint42_linear_2034_12290" x1="190.582" y1="311.477" x2="190.582" y2="77.405" gradientUnits="userSpaceOnUse">
<stop stop-color="white" stop-opacity="0"/>
<stop offset="1" stop-color="white"/>
</linearGradient>
<linearGradient id="paint43_linear_2034_12290" x1="190.583" y1="321.578" x2="190.583" y2="67.3011" gradientUnits="userSpaceOnUse">
<stop stop-color="white" stop-opacity="0"/>
<stop offset="1" stop-color="white"/>
</linearGradient>
<linearGradient id="paint44_linear_2034_12290" x1="190.584" y1="331.742" x2="190.584" y2="57.1411" gradientUnits="userSpaceOnUse">
<stop stop-color="white" stop-opacity="0"/>
<stop offset="1" stop-color="white"/>
</linearGradient>
<linearGradient id="paint45_linear_2034_12290" x1="190.582" y1="341.867" x2="190.582" y2="47.0102" gradientUnits="userSpaceOnUse">
<stop stop-color="white" stop-opacity="0"/>
<stop offset="1" stop-color="white"/>
</linearGradient>
<linearGradient id="paint46_linear_2034_12290" x1="190.583" y1="351.867" x2="190.583" y2="37.0148" gradientUnits="userSpaceOnUse">
<stop stop-color="white" stop-opacity="0"/>
<stop offset="1" stop-color="white"/>
</linearGradient>
<linearGradient id="paint47_linear_2034_12290" x1="190.582" y1="361.617" x2="190.582" y2="27.2615" gradientUnits="userSpaceOnUse">
<stop stop-color="white" stop-opacity="0"/>
<stop offset="1" stop-color="white"/>
</linearGradient>
<linearGradient id="paint48_linear_2034_12290" x1="190.583" y1="371.02" x2="190.583" y2="17.862" gradientUnits="userSpaceOnUse">
<stop stop-color="white" stop-opacity="0"/>
<stop offset="1" stop-color="white"/>
</linearGradient>
<linearGradient id="paint49_linear_2034_12290" x1="190.581" y1="379.902" x2="190.581" y2="8.97839" gradientUnits="userSpaceOnUse">
<stop stop-color="white" stop-opacity="0"/>
<stop offset="1" stop-color="white"/>
</linearGradient>
<linearGradient id="paint50_linear_2034_12290" x1="190.582" y1="388.141" x2="190.582" y2="0.735321" gradientUnits="userSpaceOnUse">
<stop stop-color="white" stop-opacity="0"/>
<stop offset="1" stop-color="white"/>
</linearGradient>
</defs>
</svg>
