<svg width="49" height="49" viewBox="0 0 49 49" fill="none" xmlns="http://www.w3.org/2000/svg">
<path d="M25.0051 32.8627L21.0177 31.5346C20.8968 31.4927 20.7894 31.4189 20.7072 31.3209C20.6249 31.2229 20.5707 31.1044 20.5505 30.978C20.5302 30.8517 20.5446 30.7222 20.5921 30.6033C20.6396 30.4845 20.7185 30.3808 20.8203 30.3033C21.8078 29.4367 22.5936 28.3642 23.1223 27.1614C23.651 25.9586 23.9098 24.6546 23.8805 23.341C23.8805 18.6783 20.7307 14.8984 16.845 14.8984C12.9594 14.8984 9.80958 18.6783 9.80958 23.341C9.78029 24.6546 10.0391 25.9586 10.5678 27.1614C11.0965 28.3642 11.8822 29.4367 12.8698 30.3033C12.9716 30.3808 13.0505 30.4845 13.098 30.6033C13.1455 30.7222 13.1599 30.8517 13.1396 30.978C13.1194 31.1044 13.0652 31.2229 12.9829 31.3209C12.9006 31.4189 12.7933 31.4927 12.6724 31.5346L8.685 32.8627C7.7147 33.1859 6.82652 33.7168 6.08235 34.4183C5.33817 35.1198 4.75589 35.9752 4.37606 36.9247L3.54595 39C3.46055 39.2135 3.42878 39.4447 3.45341 39.6733C3.47804 39.9019 3.55832 40.121 3.68724 40.3114C3.81615 40.5019 3.98976 40.6578 4.19289 40.7656C4.39601 40.8733 4.62245 40.9297 4.8524 40.9297H28.8377C29.0676 40.9297 29.2941 40.8733 29.4972 40.7656C29.7003 40.6578 29.8739 40.5019 30.0029 40.3114C30.1318 40.121 30.212 39.9019 30.2367 39.6733C30.2613 39.4447 30.2295 39.2135 30.1441 39L29.314 36.9247C28.9342 35.9752 28.3519 35.1198 27.6077 34.4183C26.8636 33.7168 25.9754 33.1859 25.0051 32.8627Z" fill="white"/>
<path d="M29.8602 14.9305C29.7094 14.9307 29.56 14.9011 29.4206 14.8433C29.2813 14.7856 29.1547 14.7009 29.0482 14.5941L26.7514 12.2972C26.5373 12.0816 26.4174 11.7899 26.418 11.4861C26.4185 11.1822 26.5395 10.891 26.7543 10.6762C26.9691 10.4613 27.2604 10.3404 27.5642 10.3398C27.868 10.3393 28.1597 10.4592 28.3753 10.6732L29.8602 12.1581L33.642 8.37635C33.8576 8.1623 34.1493 8.04242 34.4531 8.04297C34.7569 8.04352 35.0481 8.16446 35.263 8.3793C35.4778 8.59414 35.5988 8.88537 35.5993 9.18919C35.5999 9.49302 35.48 9.78468 35.2659 10.0003L30.6722 14.5941C30.5657 14.7009 30.4391 14.7856 30.2998 14.8433C30.1604 14.9011 30.011 14.9307 29.8602 14.9305Z" fill="white"/>
<path d="M44.4062 10.3359H38.2812C37.9767 10.3359 37.6846 10.2149 37.4692 9.99957C37.2538 9.78419 37.1328 9.49208 37.1328 9.1875C37.1328 8.88292 37.2538 8.59081 37.4692 8.37543C37.6846 8.16006 37.9767 8.03906 38.2812 8.03906H44.4062C44.7108 8.03906 45.0029 8.16006 45.2183 8.37543C45.4337 8.59081 45.5547 8.88292 45.5547 9.1875C45.5547 9.49208 45.4337 9.78419 45.2183 9.99957C45.0029 10.2149 44.7108 10.3359 44.4062 10.3359Z" fill="white"/>
<path d="M41.3438 14.9297H38.2812C37.9767 14.9297 37.6846 14.8087 37.4692 14.5933C37.2538 14.3779 37.1328 14.0858 37.1328 13.7812C37.1328 13.4767 37.2538 13.1846 37.4692 12.9692C37.6846 12.7538 37.9767 12.6328 38.2812 12.6328H41.3438C41.6483 12.6328 41.9404 12.7538 42.1558 12.9692C42.3712 13.1846 42.4922 13.4767 42.4922 13.7812C42.4922 14.0858 42.3712 14.3779 42.1558 14.5933C41.9404 14.8087 41.6483 14.9297 41.3438 14.9297Z" fill="white"/>
<path d="M29.8622 27.1805C29.7114 27.1807 29.562 27.1511 29.4226 27.0933C29.2833 27.0356 29.1567 26.9509 29.0502 26.8441L26.7534 24.5472C26.6461 24.4407 26.5609 24.3141 26.5027 24.1746C26.4445 24.0351 26.4143 23.8855 26.4141 23.7343C26.4138 23.5832 26.4434 23.4335 26.5011 23.2938C26.5588 23.1541 26.6435 23.0271 26.7504 22.9203C26.8573 22.8134 26.9842 22.7287 27.1239 22.6709C27.2636 22.6132 27.4133 22.5837 27.5645 22.5839C27.7156 22.5842 27.8652 22.6143 28.0047 22.6725C28.1442 22.7308 28.2708 22.816 28.3773 22.9232L29.8622 24.4081L33.644 20.6264C33.8596 20.4123 34.1513 20.2924 34.4551 20.293C34.7589 20.2935 35.0501 20.4145 35.265 20.6293C35.4798 20.8441 35.6008 21.1354 35.6013 21.4392C35.6019 21.743 35.482 22.0347 35.2679 22.2503L30.6742 26.8441C30.5677 26.9509 30.4411 27.0356 30.3018 27.0933C30.1624 27.1511 30.013 27.1807 29.8622 27.1805Z" fill="white"/>
<path d="M44.4062 22.5859H38.2812C37.9767 22.5859 37.6846 22.4649 37.4692 22.2496C37.2538 22.0342 37.1328 21.7421 37.1328 21.4375C37.1328 21.1329 37.2538 20.8408 37.4692 20.6254C37.6846 20.4101 37.9767 20.2891 38.2812 20.2891H44.4062C44.7108 20.2891 45.0029 20.4101 45.2183 20.6254C45.4337 20.8408 45.5547 21.1329 45.5547 21.4375C45.5547 21.7421 45.4337 22.0342 45.2183 22.2496C45.0029 22.4649 44.7108 22.5859 44.4062 22.5859Z" fill="white"/>
<path d="M41.3438 27.1797H38.2812C37.9767 27.1797 37.6846 27.0587 37.4692 26.8433C37.2538 26.6279 37.1328 26.3358 37.1328 26.0312C37.1328 25.7267 37.2538 25.4346 37.4692 25.2192C37.6846 25.0038 37.9767 24.8828 38.2812 24.8828H41.3438C41.6483 24.8828 41.9404 25.0038 42.1558 25.2192C42.3712 25.4346 42.4922 25.7267 42.4922 26.0312C42.4922 26.3358 42.3712 26.6279 42.1558 26.8433C41.9404 27.0587 41.6483 27.1797 41.3438 27.1797Z" fill="white"/>
<path d="M44.4062 33.3047H38.2812C37.9767 33.3047 37.6846 33.1837 37.4692 32.9683C37.2538 32.7529 37.1328 32.4608 37.1328 32.1562C37.1328 31.8517 37.2538 31.5596 37.4692 31.3442C37.6846 31.1288 37.9767 31.0078 38.2812 31.0078H44.4062C44.7108 31.0078 45.0029 31.1288 45.2183 31.3442C45.4337 31.5596 45.5547 31.8517 45.5547 32.1562C45.5547 32.4608 45.4337 32.7529 45.2183 32.9683C45.0029 33.1837 44.7108 33.3047 44.4062 33.3047Z" fill="white"/>
<path d="M41.3438 37.8984H38.2812C37.9767 37.8984 37.6846 37.7774 37.4692 37.5621C37.2538 37.3467 37.1328 37.0546 37.1328 36.75C37.1328 36.4454 37.2538 36.1533 37.4692 35.9379C37.6846 35.7226 37.9767 35.6016 38.2812 35.6016H41.3438C41.6483 35.6016 41.9404 35.7226 42.1558 35.9379C42.3712 36.1533 42.4922 36.4454 42.4922 36.75C42.4922 37.0546 42.3712 37.3467 42.1558 37.5621C41.9404 37.7774 41.6483 37.8984 41.3438 37.8984Z" fill="white"/>
</svg>
