<svg width="51" height="41" viewBox="0 0 51 41" fill="none" xmlns="http://www.w3.org/2000/svg">
<path fill-rule="evenodd" clip-rule="evenodd" d="M5.07873 6.46653C8.52777 2.72741 13.7468 0.832031 20.5884 0.832031H23.0467V7.76207L21.0702 8.15786C17.7023 8.83145 15.3595 10.1565 14.1057 12.101C13.4516 13.1486 13.0805 14.348 13.029 15.582H20.5884C21.2404 15.582 21.8656 15.8411 22.3266 16.3021C22.7877 16.7631 23.0467 17.3884 23.0467 18.0404V35.2487L23.0469 40.1654H18.1302H5.83852H3.38004H0.921855V37.7339C0.921757 37.725 0.921708 37.716 0.921708 37.707V25.4154L0.929083 18.2395C0.906958 17.9666 0.439874 11.5012 5.07873 6.46653ZM45.1717 40.1654H32.8802H30.4217H27.9635V37.7339L27.9634 37.707V25.4154L27.9707 18.2395C27.9486 17.9666 27.4815 11.5012 32.1204 6.46653C35.5694 2.72741 40.7885 0.832031 47.63 0.832031H50.0884V7.76207L48.1119 8.15786C44.7439 8.83145 42.4011 10.1565 41.1474 12.101C40.4932 13.1486 40.1222 14.348 40.0706 15.582H47.63C48.2821 15.582 48.9073 15.8411 49.3683 16.3021C49.8294 16.7631 50.0884 17.3884 50.0884 18.0404V35.2487L50.0885 40.1654H45.1717Z" fill="#F30000"/>
</svg>
