<svg width="85" height="85" viewBox="0 0 85 85" fill="none" xmlns="http://www.w3.org/2000/svg">
<circle cx="42.5" cy="42.5" r="42.5" fill="#B2D3FF"/>
<path fill-rule="evenodd" clip-rule="evenodd" d="M21.0787 27.4626C24.5278 23.7235 29.7468 21.8281 36.5884 21.8281H39.0467V28.7582L37.0702 29.154C33.7023 29.8275 31.3595 31.1526 30.1057 33.0971C29.4516 34.1447 29.0805 35.3441 29.029 36.5781H36.5884C37.2404 36.5781 37.8656 36.8372 38.3266 37.2982C38.7877 37.7592 39.0467 38.3845 39.0467 39.0365V56.2448L39.0469 61.1615H34.1302H21.8385H19.38H16.9219V58.73C16.9218 58.7211 16.9217 58.7121 16.9217 58.7031V46.4115L16.9291 39.2356C16.907 38.9627 16.4399 32.4973 21.0787 27.4626ZM61.1717 61.1615H48.8802H46.4217H43.9635V58.73L43.9634 58.7031V46.4115L43.9707 39.2356C43.9486 38.9627 43.4815 32.4973 48.1204 27.4626C51.5694 23.7235 56.7885 21.8281 63.63 21.8281H66.0884V28.7582L64.1119 29.154C60.7439 29.8275 58.4011 31.1526 57.1474 33.0971C56.4932 34.1447 56.1222 35.3441 56.0706 36.5781H63.63C64.2821 36.5781 64.9073 36.8372 65.3683 37.2982C65.8294 37.7592 66.0884 38.3845 66.0884 39.0365V56.2448L66.0885 61.1615H61.1717Z" fill="#17479E"/>
</svg>
