<svg width="743" height="746" viewBox="0 0 743 746" fill="none" xmlns="http://www.w3.org/2000/svg">
<mask id="path-1-outside-1_2371_10228" maskUnits="userSpaceOnUse" x="25.418" y="467.048" width="693" height="279" fill="black">
<rect fill="white" x="25.418" y="467.048" width="693" height="279"/>
<path d="M703.339 488.967C698.407 481.494 690.145 477.048 681.204 477.048H576.509C567.507 477.048 559.122 481.68 554.066 489.522C513.988 552.266 445.733 589.69 371.559 589.69C297.384 589.69 229.191 552.266 189.113 489.522C184.119 481.741 175.795 477.048 166.669 477.048H61.9128C52.9724 477.048 44.7103 481.494 39.7777 488.967C34.9067 496.254 34.1051 505.455 37.4346 513.484C94.2215 648.481 225.368 735.742 371.497 735.742C517.626 735.742 648.834 648.481 705.621 513.484C709.012 505.455 708.149 496.254 703.278 488.967"/>
</mask>
<path d="M703.339 488.967C698.407 481.494 690.145 477.048 681.204 477.048H576.509C567.507 477.048 559.122 481.68 554.066 489.522C513.988 552.266 445.733 589.69 371.559 589.69C297.384 589.69 229.191 552.266 189.113 489.522C184.119 481.741 175.795 477.048 166.669 477.048H61.9128C52.9724 477.048 44.7103 481.494 39.7777 488.967C34.9067 496.254 34.1051 505.455 37.4346 513.484C94.2215 648.481 225.368 735.742 371.497 735.742C517.626 735.742 648.834 648.481 705.621 513.484C709.012 505.455 708.149 496.254 703.278 488.967" fill="#D6071E"/>
<path d="M554.066 489.522L545.661 484.104L545.65 484.122L545.638 484.139L554.066 489.522ZM189.113 489.522L197.54 484.139L197.535 484.13L197.529 484.121L189.113 489.522ZM39.7777 488.967L48.0914 494.524L48.1074 494.5L48.1233 494.476L39.7777 488.967ZM37.4346 513.484L28.1975 517.315L28.2072 517.338L28.217 517.361L37.4346 513.484ZM705.621 513.484L696.409 509.592L696.406 509.599L696.403 509.606L705.621 513.484ZM711.685 483.458C704.903 473.184 693.507 467.048 681.204 467.048V487.048C686.782 487.048 691.91 489.805 694.994 494.476L711.685 483.458ZM681.204 467.048H576.509V487.048H681.204V467.048ZM576.509 467.048C563.996 467.048 552.496 473.501 545.661 484.104L562.471 494.941C565.747 489.858 571.018 487.048 576.509 487.048V467.048ZM545.638 484.139C507.393 544.015 442.31 579.69 371.559 579.69V599.69C449.156 599.69 520.584 560.517 562.493 494.906L545.638 484.139ZM371.559 579.69C300.81 579.69 235.788 544.018 197.54 484.139L180.685 494.906C222.593 560.514 293.958 599.69 371.559 599.69V579.69ZM197.529 484.121C190.768 473.588 179.334 467.048 166.669 467.048V487.048C172.256 487.048 177.469 489.894 180.697 494.924L197.529 484.121ZM166.669 467.048H61.9128V487.048H166.669V467.048ZM61.9128 467.048C49.6097 467.048 38.2138 473.184 31.432 483.458L48.1233 494.476C51.2068 489.805 56.3352 487.048 61.9128 487.048V467.048ZM31.4639 483.41C24.6935 493.538 23.6171 506.27 28.1975 517.315L46.6718 509.653C44.5931 504.641 45.1199 498.969 48.0914 494.524L31.4639 483.41ZM28.217 517.361C86.5596 656.057 221.331 745.742 371.497 745.742V725.742C229.405 725.742 101.883 640.906 46.6523 509.606L28.217 517.361ZM371.497 745.742C521.661 745.742 656.495 656.059 714.838 517.361L696.403 509.606C641.173 640.904 513.591 725.742 371.497 725.742V745.742ZM714.833 517.375C719.533 506.246 718.332 493.494 711.591 483.41L694.964 494.524C697.965 499.014 698.49 504.665 696.409 509.592L714.833 517.375Z" fill="white" mask="url(#path-1-outside-1_2371_10228)"/>
<mask id="path-3-outside-2_2371_10228" maskUnits="userSpaceOnUse" x="0" y="0" width="743" height="422" fill="black">
<rect fill="white" width="743" height="422"/>
<path d="M371.438 10C172.098 10 10 172.417 10 372.073C10 381.954 10.4933 391.65 11.2332 401.345L12.0963 411.782H731.027L731.828 401.284C732.568 391.65 733 381.954 733 372.073C733 172.417 570.84 10 371.5 10M560.296 274.438H182.642C218.958 203.974 291.283 159.325 371.438 159.325C451.593 159.325 523.98 203.974 560.296 274.438Z"/>
</mask>
<path d="M371.438 10C172.098 10 10 172.417 10 372.073C10 381.954 10.4933 391.65 11.2332 401.345L12.0963 411.782H731.027L731.828 401.284C732.568 391.65 733 381.954 733 372.073C733 172.417 570.84 10 371.5 10M560.296 274.438H182.642C218.958 203.974 291.283 159.325 371.438 159.325C451.593 159.325 523.98 203.974 560.296 274.438Z" fill="#17479E"/>
<path d="M11.2332 401.345L1.26222 402.106L1.26464 402.138L1.26725 402.17L11.2332 401.345ZM12.0963 411.782L2.13037 412.606L2.8892 421.782H12.0963V411.782ZM731.027 411.782V421.782H740.292L740.998 412.543L731.027 411.782ZM731.828 401.284L721.858 400.518L721.857 400.522L731.828 401.284ZM560.296 274.438V284.438H576.7L569.185 269.856L560.296 274.438ZM182.642 274.438L173.753 269.856L166.238 284.438H182.642V274.438ZM371.438 0C166.558 0 0 166.912 0 372.073H20C20 177.923 177.638 20 371.438 20V0ZM0 372.073C0 382.284 0.509811 392.247 1.26222 402.106L21.2042 400.584C20.4769 391.053 20 381.624 20 372.073H0ZM1.26725 402.17L2.13037 412.606L22.0623 410.958L21.1992 400.521L1.26725 402.17ZM12.0963 421.782H731.027V401.782H12.0963V421.782ZM740.998 412.543L741.799 402.045L721.857 400.522L721.056 411.021L740.998 412.543ZM741.799 402.049C742.556 392.2 743 382.246 743 372.073H723C723 381.662 722.581 391.099 721.858 400.518L741.799 402.049ZM743 372.073C743 166.909 576.378 0 371.5 0V20C565.302 20 723 177.925 723 372.073H743ZM560.296 264.438H182.642V284.438H560.296V264.438ZM191.531 279.019C226.144 211.861 295.052 169.325 371.438 169.325V149.325C287.514 149.325 211.773 196.088 173.753 269.856L191.531 279.019ZM371.438 169.325C447.828 169.325 516.796 211.864 551.407 279.019L569.185 269.856C531.164 196.085 455.359 149.325 371.438 149.325V169.325Z" fill="white" mask="url(#path-3-outside-2_2371_10228)"/>
</svg>
