<svg width="20" height="19" viewBox="0 0 20 19" fill="none" xmlns="http://www.w3.org/2000/svg">
<path fill-rule="evenodd" clip-rule="evenodd" d="M5.50781 4.375C5.50781 1.95875 7.47016 0 9.89084 0C12.3115 0 14.2739 1.95875 14.2739 4.375C14.2739 6.79125 12.3115 8.75 9.89084 8.75C7.47016 8.75 5.50781 6.79125 5.50781 4.375ZM9.89084 1.25C8.1618 1.25 6.76011 2.64913 6.76011 4.375C6.76011 6.10087 8.1618 7.5 9.89084 7.5C11.6199 7.5 13.0216 6.10087 13.0216 4.375C13.0216 2.64913 11.6199 1.25 9.89084 1.25Z" fill="#545454"/>
<path d="M0.5 15.4779C0.5 12.4526 2.95706 10 5.98799 10H13.7964C16.8274 10 19.2844 12.4526 19.2844 15.4779C19.2844 17.2851 17.8168 18.75 16.0063 18.75H8.63991C8.29409 18.75 8.01377 18.4702 8.01377 18.125C8.01377 17.7798 8.29409 17.5 8.63991 17.5H16.0063C17.1251 17.5 18.0321 16.5947 18.0321 15.4779C18.0321 13.1429 16.1357 11.25 13.7964 11.25H5.98799C3.64868 11.25 1.75229 13.1429 1.75229 15.4779C1.75229 16.5947 2.65926 17.5 3.77807 17.5H5.50918C5.855 17.5 6.13532 17.7798 6.13532 18.125C6.13532 18.4702 5.855 18.75 5.50918 18.75H3.77807C1.96764 18.75 0.5 17.2851 0.5 15.4779Z" fill="#545454"/>
</svg>
