<svg width="18" height="17" viewBox="0 0 18 17" fill="none" xmlns="http://www.w3.org/2000/svg">
<path d="M13.8146 17.0006C13.7995 17.0006 13.7394 17.0006 13.7294 16.9956C6.52621 16.9606 0.575309 11.0556 0.500171 3.83062C0.490153 2.76062 0.920942 1.73062 1.68234 1.00562C2.4237 0.300618 3.39548 -0.0493824 4.41234 0.0056176C4.54258 0.0156176 4.67282 0.0256176 4.80305 0.0506176C5.01845 0.0856176 5.23384 0.140618 5.43922 0.215618C5.60452 0.275618 5.72975 0.420618 5.75981 0.590618L6.96702 5.77562C7.01711 6.00062 6.9019 6.25062 6.69652 6.35062L5.33904 7.06562C6.26073 9.36562 8.11412 11.2256 10.4133 12.1506L11.1096 10.7856C11.2148 10.5806 11.4452 10.4706 11.6706 10.5256L16.9152 11.7506C17.0806 11.7906 17.2258 11.9156 17.2809 12.0756C17.3561 12.2856 17.4112 12.5006 17.4462 12.7206C17.4763 12.9156 17.4963 13.1156 17.4963 13.3156C17.4913 15.3406 15.8433 16.9956 13.8146 17.0006ZM4.19194 1.00062C3.51069 1.00062 2.86951 1.25562 2.36859 1.73062C1.80757 2.26562 1.49199 3.02562 1.497 3.82062C1.57214 10.5006 7.07722 15.9656 13.7695 16.0006C15.2873 15.9956 16.4895 14.7906 16.4895 13.3156C16.4895 13.1706 16.4794 13.0256 16.4544 12.8856V12.8806C16.4444 12.8106 16.4294 12.7356 16.4093 12.6656L11.8209 11.5906L11.0996 13.0056C10.9844 13.2306 10.7039 13.3356 10.4734 13.2456C7.57313 12.2306 5.23885 9.89562 4.23702 6.99062C4.15687 6.75562 4.26206 6.49062 4.48748 6.38062L5.90507 5.63562L4.84313 1.07562C4.773 1.06062 4.70287 1.04562 4.63274 1.03062C4.53757 1.01562 4.44239 1.00562 4.34722 1.00062C4.29713 1.00062 4.24704 1.00062 4.19194 1.00062Z" fill="#545454"/>
</svg>
