<svg width="20" height="15" viewBox="0 0 20 15" fill="none" xmlns="http://www.w3.org/2000/svg">
<path fill-rule="evenodd" clip-rule="evenodd" d="M17.8753 10.6307C17.8753 12.3196 16.4989 13.6912 14.8091 13.6912H4.74935C3.05949 13.6912 1.68311 12.3195 1.68311 10.6307V4.24152C1.68311 3.67785 1.83772 3.14844 2.10611 2.69406L7.01463 7.59359C7.74898 8.32875 8.73239 8.73383 9.78025 8.73383C10.826 8.73383 11.8094 8.32875 12.5437 7.59359L17.4522 2.69406C17.7207 3.14844 17.8752 3.67781 17.8752 4.24152V10.6307H17.8753ZM14.809 1.18094H4.74935C4.05151 1.18094 3.40732 1.41668 2.892 1.80891L7.84991 6.75988C8.36312 7.26996 9.04805 7.55289 9.78025 7.55289C10.5103 7.55289 11.1953 7.26996 11.7084 6.75988L16.6663 1.80891C16.1511 1.41668 15.5069 1.18094 14.809 1.18094ZM14.809 0H4.74935C2.40674 0 0.5 1.90324 0.5 4.24156V10.6307C0.5 12.9712 2.40674 14.8723 4.74935 14.8723H14.809C17.1516 14.8723 19.0584 12.9712 19.0584 10.6307V4.24152C19.0584 1.9032 17.1516 0 14.809 0Z" fill="#545454"/>
</svg>
