<svg width="46" height="46" viewBox="0 0 46 46" fill="none" xmlns="http://www.w3.org/2000/svg">
<rect width="46" height="46" rx="23" fill="#EE3824"/>
<path d="M37.6707 26.0787C37.2674 24.6742 36.4744 23.4136 35.3778 22.4338C33.2149 20.5003 30.7095 18.2174 30.7095 15.3163V11.9133C30.7095 10.8584 29.851 10 28.7956 10H12.8728C11.8174 10 10.9589 10.8584 10.9589 11.9133V33.9197C10.9589 34.9746 11.8174 35.833 12.8728 35.833H26.9101C28.0061 35.833 29.0991 36.0044 30.195 36.0044C32.6008 36.0044 34.8324 34.918 36.3183 33.0243C37.1055 32.0219 37.6371 30.8302 37.8563 29.5789C37.9338 29.136 37.9729 28.6821 37.9729 28.2303C37.9729 27.4973 37.8711 26.7733 37.6707 26.0787ZM14.6959 13.5969C14.6959 13.5023 14.7727 13.4255 14.8674 13.4255H26.801C26.8957 13.4255 26.9725 13.5023 26.9725 13.5969V17.985C26.9725 18.0796 26.8957 18.1564 26.801 18.1564H14.8674C14.7727 18.1564 14.6959 18.0796 14.6959 17.985V13.5969ZM26.9725 20.6333V20.9642C26.9725 21.0796 26.9046 21.1835 26.801 21.2343C26.7434 21.2621 26.6861 21.2909 26.6295 21.3203C26.5771 21.3471 26.5253 21.3748 26.4735 21.403C26.3901 21.4479 26.3064 21.4955 26.2245 21.5445C25.8749 21.7523 25.5409 21.9882 25.2308 22.2456C25.2284 22.2477 25.2256 22.2497 25.2232 22.2518C25.2205 22.2538 25.2181 22.2563 25.2155 22.2585C25.0825 22.3696 24.9534 22.4844 24.8291 22.6028C24.7698 22.6591 24.7115 22.7163 24.6545 22.7742C24.6108 22.8185 24.568 22.8629 24.5256 22.9078C24.503 22.9319 24.4715 22.9457 24.4385 22.9457C24.3434 22.9457 24.267 22.8689 24.267 22.7742V20.6333C24.267 20.5387 24.3434 20.4619 24.4385 20.4619H26.801C26.8957 20.4619 26.9725 20.5387 26.9725 20.6333ZM17.4014 32.3527C17.4014 32.4477 17.325 32.5241 17.2299 32.5241H14.8674C14.7727 32.5241 14.6959 32.4477 14.6959 32.3527V30.2121C14.6959 30.1172 14.7727 30.0407 14.8674 30.0407H17.2299C17.325 30.0407 17.4014 30.1172 17.4014 30.2121V32.3527ZM17.4014 27.5635C17.4014 27.6581 17.325 27.7349 17.2299 27.7349H14.8674C14.7727 27.7349 14.6959 27.6581 14.6959 27.5635V25.4225C14.6959 25.3279 14.7727 25.2511 14.8674 25.2511H17.2299C17.325 25.2511 17.4014 25.3279 17.4014 25.4225V27.5635ZM17.4014 22.7742C17.4014 22.8689 17.325 22.9457 17.2299 22.9457H14.8674C14.7727 22.9457 14.6959 22.8689 14.6959 22.7742V20.6333C14.6959 20.5387 14.7727 20.4619 14.8674 20.4619H17.2299C17.325 20.4619 17.4014 20.5387 17.4014 20.6333V22.7742ZM22.187 32.3527C22.187 32.4477 22.1102 32.5241 22.0155 32.5241H19.6529C19.5579 32.5241 19.4814 32.4477 19.4814 32.3527V30.2121C19.4814 30.1172 19.5579 30.0407 19.6529 30.0407H22.0155C22.1102 30.0407 22.187 30.1172 22.187 30.2121V32.3527ZM22.187 27.5635C22.187 27.6581 22.1102 27.7349 22.0155 27.7349H19.6529C19.5579 27.7349 19.4814 27.6581 19.4814 27.5635V25.4225C19.4814 25.3279 19.5579 25.2511 19.6529 25.2511H22.0155C22.1102 25.2511 22.187 25.3279 22.187 25.4225V27.5635ZM22.187 22.7742C22.187 22.8689 22.1102 22.9457 22.0155 22.9457H19.6529C19.5579 22.9457 19.4814 22.8689 19.4814 22.7742V20.6333C19.4814 20.5387 19.5579 20.4619 19.6529 20.4619H22.0155C22.1102 20.4619 22.187 20.5387 22.187 20.6333V22.7742ZM36.5045 29.3427C36.3245 30.3722 35.8868 31.3527 35.2389 32.1782C34.0147 33.7384 32.1762 34.6332 30.195 34.6332C26.6628 34.6332 23.7892 31.7606 23.7892 28.2303C23.7892 26.3249 24.6295 24.5322 26.0945 23.3111C26.0979 23.3084 26.101 23.306 26.1041 23.3032C26.1052 23.3021 26.1064 23.301 26.1077 23.2999C26.363 23.0883 26.6385 22.8942 26.9266 22.7225C26.9931 22.6831 27.061 22.6443 27.13 22.6069C28.0633 22.0972 29.1235 21.8277 30.195 21.8277C30.2256 21.8277 30.2551 21.8277 30.2883 21.8284C31.8312 21.8503 33.3136 22.428 34.463 23.4558C35.3668 24.2635 36.0199 25.3012 36.3522 26.4579C36.5172 27.0297 36.6009 27.6262 36.6009 28.2303C36.6009 28.6033 36.5687 28.9776 36.5045 29.3427Z" fill="white"/>
<path d="M33.0135 29.7555C33.0135 30.8115 32.2502 31.6972 31.2332 31.9153C31.038 31.9572 30.881 32.1189 30.881 32.3185C30.881 32.5265 30.7124 32.6952 30.5043 32.6952H29.8865C29.678 32.6952 29.509 32.5262 29.509 32.3177C29.509 32.1182 29.3523 31.9566 29.1577 31.9124C28.4346 31.7481 27.8508 31.2257 27.614 30.5481C27.489 30.1904 27.8072 29.8748 28.1861 29.8748C28.5649 29.8748 28.8744 30.2393 29.1862 30.4546C29.3146 30.5432 29.4733 30.5957 29.6449 30.5957H30.7452C31.2395 30.5957 31.6415 30.219 31.6415 29.7555C31.6415 29.5357 31.5516 29.328 31.3876 29.1703C31.2175 29.0061 30.9894 28.9156 30.7452 28.9156H29.6449C28.3939 28.9156 27.3766 27.9234 27.3766 26.704C27.3766 26.1089 27.6157 25.5504 28.0499 25.1318C28.359 24.8336 28.7411 24.6322 29.1567 24.5439C29.352 24.5024 29.509 24.3408 29.509 24.1411C29.509 23.9332 29.6776 23.7646 29.8855 23.7646H30.5036C30.712 23.7646 30.881 23.9336 30.881 24.1421C30.881 24.3417 31.0378 24.5032 31.2323 24.5474C31.9555 24.7117 32.5393 25.2341 32.776 25.9117C32.901 26.2694 32.5828 26.585 32.204 26.585C31.8251 26.585 31.5158 26.2204 31.204 26.0052C31.0757 25.9165 30.9169 25.8641 30.7452 25.8641H29.6449C29.401 25.8641 29.1725 25.9546 29.0024 26.1188C28.8388 26.2765 28.7486 26.4846 28.7486 26.704C28.7486 27.1675 29.1506 27.5443 29.6449 27.5443H30.7452C31.3465 27.5443 31.9131 27.7712 32.3405 28.1833C32.7744 28.6019 33.0135 29.1603 33.0135 29.7555Z" fill="white"/>
</svg>
