<svg width="46" height="46" viewBox="0 0 46 46" fill="none" xmlns="http://www.w3.org/2000/svg">
<rect width="46" height="46" rx="23" fill="#17479E"/>
<g clip-path="url(#clip0_2508_1284)">
<path d="M34.4316 31.5275L28.9139 26.0094C29.8514 24.5168 30.3955 22.7527 30.3955 20.8595C30.3955 15.5034 26.0535 11.162 20.6975 11.162C15.3416 11.162 11 15.5034 11 20.8595C11 26.2159 15.3414 30.5569 20.6975 30.5569C22.7578 30.5569 24.6662 29.9128 26.2365 28.8183L31.6886 34.2708C32.0675 34.6492 32.5641 34.8377 33.0601 34.8377C33.5568 34.8377 34.0528 34.6492 34.4322 34.2708C35.1893 33.5129 35.1893 32.2852 34.4316 31.5275ZM20.6975 27.415C17.0774 27.415 14.1425 24.4803 14.1425 20.8599C14.1425 17.2396 17.0774 14.3047 20.6975 14.3047C24.3179 14.3047 27.2526 17.2396 27.2526 20.8599C27.2526 24.4803 24.3179 27.415 20.6975 27.415Z" fill="white"/>
</g>
<defs>
<clipPath id="clip0_2508_1284">
<rect width="24" height="24" fill="white" transform="translate(11 11)"/>
</clipPath>
</defs>
</svg>
