<svg width="46" height="46" viewBox="0 0 46 46" fill="none" xmlns="http://www.w3.org/2000/svg">
<rect width="46" height="46" rx="23" fill="#24BB5C"/>
<path d="M23.003 11H22.997C16.3805 11 11 16.382 11 23C11 25.625 11.846 28.058 13.2845 30.0335L11.789 34.4915L16.4015 33.017C18.299 34.274 20.5625 35 23.003 35C29.6195 35 35 29.6165 35 23C35 16.3835 29.6195 11 23.003 11Z" fill="white"/>
<path d="M29.9575 27.457C29.668 28.2745 28.519 28.9525 27.6025 29.1505C26.9755 29.284 26.1565 29.3905 23.3995 28.2475C19.873 26.7865 17.602 23.203 17.425 22.9705C17.2555 22.738 16 21.073 16 19.351C16 17.629 16.8745 16.7905 17.227 16.4305C17.5165 16.135 17.995 16 18.454 16C18.6025 16 18.736 16.0075 18.856 16.0135C19.2085 16.0285 19.3855 16.0495 19.618 16.606C19.9075 17.3035 20.6125 19.0255 20.6965 19.2025C20.782 19.3795 20.8675 19.6195 20.7475 19.852C20.635 20.092 20.536 20.1985 20.359 20.4025C20.182 20.6065 20.014 20.7625 19.837 20.9815C19.675 21.172 19.492 21.376 19.696 21.7285C19.9 22.0735 20.605 23.224 21.643 24.148C22.9825 25.3405 24.0685 25.7215 24.457 25.8835C24.7465 26.0035 25.0915 25.975 25.303 25.75C25.5715 25.4605 25.903 24.9805 26.2405 24.508C26.4805 24.169 26.7835 24.127 27.1015 24.247C27.4255 24.3595 29.14 25.207 29.4925 25.3825C29.845 25.5595 30.0775 25.6435 30.163 25.792C30.247 25.9405 30.247 26.638 29.9575 27.457Z" fill="#24BB5C"/>
</svg>
