<svg width="46" height="46" viewBox="0 0 46 46" fill="none" xmlns="http://www.w3.org/2000/svg">
<rect width="46" height="46" rx="23" fill="#17479E"/>
<path d="M33.0448 28.52C32.3892 27.9703 28.5448 25.5358 27.9058 25.6475C27.6058 25.7008 27.3763 25.9565 26.762 26.6893C26.4779 27.0499 26.166 27.3877 25.829 27.6995C25.2116 27.5504 24.614 27.3288 24.0485 27.0395C21.831 25.9599 20.0395 24.1679 18.9605 21.95C18.6712 21.3846 18.4496 20.7869 18.3005 20.1695C18.6123 19.8325 18.9501 19.5206 19.3108 19.2365C20.0428 18.6223 20.2993 18.3942 20.3525 18.0927C20.4643 17.4523 18.0275 13.6093 17.48 12.9538C17.2505 12.6823 17.042 12.5 16.775 12.5C16.001 12.5 12.5 16.829 12.5 17.39C12.5 17.4358 12.575 21.9425 18.2668 27.7333C24.0575 33.425 28.5642 33.5 28.61 33.5C29.171 33.5 33.5 29.999 33.5 29.225C33.5 28.958 33.3177 28.7495 33.0448 28.52Z" fill="white"/>
<path d="M28.25 22.25H29.75C29.7482 20.6592 29.1155 19.1342 27.9907 18.0093C26.8658 16.8845 25.3408 16.2518 23.75 16.25V17.75C24.9431 17.7512 26.087 18.2257 26.9307 19.0693C27.7743 19.913 28.2488 21.0569 28.25 22.25Z" fill="white"/>
<path d="M32 22.25H33.5C33.497 19.6651 32.4688 17.1868 30.641 15.359C28.8132 13.5312 26.3349 12.503 23.75 12.5V14C25.9372 14.0026 28.0342 14.8726 29.5808 16.4192C31.1274 17.9658 31.9974 20.0628 32 22.25Z" fill="white"/>
</svg>
