<svg width="46" height="46" viewBox="0 0 46 46" fill="none" xmlns="http://www.w3.org/2000/svg">
<rect width="46" height="46" rx="23" fill="#EE3824"/>
<path d="M24.8656 23.1303L33.3674 15.5056C33.1073 15.3538 32.8117 15.2734 32.5105 15.2725H13.4895C13.1883 15.2734 12.8927 15.3538 12.6326 15.5056L21.1344 23.1303C22.1829 24.1157 23.817 24.1157 24.8656 23.1303Z" fill="white"/>
<path d="M34.0934 16.2402L27.4824 22.1693L34.1417 29.6697C34.3124 29.3387 34.401 28.9716 34.4 28.5992V17.4003C34.4017 16.9933 34.2959 16.5932 34.0934 16.2402Z" fill="white"/>
<path d="M11.9062 16.2402C11.7038 16.5932 11.598 16.9933 11.5996 17.4003V28.5992C11.5987 28.9716 11.6873 29.3387 11.8579 29.6697L18.5172 22.1693L11.9062 16.2402Z" fill="white"/>
<path d="M25.4654 23.9789C24.0797 25.2808 21.9204 25.2808 20.5348 23.9789L19.2756 22.8496L12.5391 30.4369C12.8204 30.6253 13.151 30.7265 13.4895 30.7279H32.5106C32.8491 30.7265 33.1797 30.6253 33.461 30.4369L26.7245 22.8496L25.4654 23.9789Z" fill="white"/>
</svg>
