<svg width="24" height="24" viewBox="0 0 24 24" fill="none" xmlns="http://www.w3.org/2000/svg">
<path d="M15.75 6.75C15.3522 6.75 14.9706 6.59196 14.6893 6.31066C14.408 6.02936 14.25 5.64782 14.25 5.25V1.5H6C5.60218 1.5 5.22064 1.65804 4.93934 1.93934C4.65804 2.22064 4.5 2.60218 4.5 3V21C4.5 21.3978 4.65804 21.7794 4.93934 22.0607C5.22064 22.342 5.60218 22.5 6 22.5H18C18.3978 22.5 18.7794 22.342 19.0607 22.0607C19.342 21.7794 19.5 21.3978 19.5 21V6.75H15.75ZM9.75 17.25H8.25C8.05109 17.25 7.86032 17.171 7.71967 17.0303C7.57902 16.8897 7.5 16.6989 7.5 16.5C7.5 16.3011 7.57902 16.1103 7.71967 15.9697C7.86032 15.829 8.05109 15.75 8.25 15.75H9.75C9.94891 15.75 10.1397 15.829 10.2803 15.9697C10.421 16.1103 10.5 16.3011 10.5 16.5C10.5 16.6989 10.421 16.8897 10.2803 17.0303C10.1397 17.171 9.94891 17.25 9.75 17.25ZM10.5 13.5C10.3011 13.5 10.1103 13.421 9.96967 13.2803C9.82902 13.1397 9.75 12.9489 9.75 12.75C9.75 12.5511 9.82902 12.3603 9.96967 12.2197C10.1103 12.079 10.3011 12 10.5 12H12.75V11.25H11.25C10.8522 11.25 10.4706 11.092 10.1893 10.8107C9.90804 10.5294 9.75 10.1478 9.75 9.75V9C9.75 8.60218 9.90804 8.22064 10.1893 7.93934C10.4706 7.65804 10.8522 7.5 11.25 7.5C11.25 7.30109 11.329 7.11032 11.4697 6.96967C11.6103 6.82902 11.8011 6.75 12 6.75C12.1989 6.75 12.3897 6.82902 12.5303 6.96967C12.671 7.11032 12.75 7.30109 12.75 7.5H13.5C13.6989 7.5 13.8897 7.57902 14.0303 7.71967C14.171 7.86032 14.25 8.05109 14.25 8.25C14.25 8.44891 14.171 8.63968 14.0303 8.78033C13.8897 8.92098 13.6989 9 13.5 9H11.25V9.75H12.75C13.1478 9.75 13.5294 9.90804 13.8107 10.1893C14.092 10.4706 14.25 10.8522 14.25 11.25V12C14.25 12.3978 14.092 12.7794 13.8107 13.0607C13.5294 13.342 13.1478 13.5 12.75 13.5C12.75 13.6989 12.671 13.8897 12.5303 14.0303C12.3897 14.171 12.1989 14.25 12 14.25C11.8011 14.25 11.6103 14.171 11.4697 14.0303C11.329 13.8897 11.25 13.6989 11.25 13.5H10.5ZM16.0875 18.6675L14.5875 19.4175C14.4733 19.475 14.3463 19.5024 14.2186 19.4971C14.0909 19.4917 13.9666 19.4538 13.8577 19.3869C13.7487 19.32 13.6586 19.2264 13.596 19.115C13.5334 19.0035 13.5004 18.8778 13.5 18.75V17.64C13.1703 18.0408 12.9161 18.4983 12.75 18.99C12.6978 19.1452 12.5963 19.2791 12.4608 19.3712C12.3254 19.4633 12.1635 19.5085 12 19.5C11.9187 19.498 11.838 19.4854 11.76 19.4625C11.6663 19.4312 11.5797 19.3817 11.5052 19.3168C11.4307 19.2519 11.3697 19.173 11.3258 19.0844C11.2819 18.9959 11.2559 18.8996 11.2493 18.801C11.2428 18.7025 11.2557 18.6036 11.2875 18.51C11.385 18.2325 12.27 15.75 14.25 15.75C14.4489 15.75 14.6397 15.829 14.7803 15.9697C14.921 16.1103 15 16.3011 15 16.5V17.535L15.4125 17.3325C15.5873 17.2597 15.7832 17.2557 15.9608 17.3214C16.1385 17.387 16.2847 17.5175 16.3701 17.6865C16.4556 17.8555 16.4739 18.0505 16.4215 18.2325C16.3691 18.4145 16.2498 18.5699 16.0875 18.6675Z" fill="#17479E"/>
<path d="M15.75 1.94336V5.25086H19.0575L15.75 1.94336Z" fill="#17479E"/>
</svg>
