<svg width="24" height="24" viewBox="0 0 24 24" fill="none" xmlns="http://www.w3.org/2000/svg">
<path d="M22.0032 18.5V20C22.0024 20.265 21.8968 20.5189 21.7094 20.7063C21.5221 20.8936 21.2682 20.9992 21.0032 21H14.4531C14.7192 20.7881 14.9417 20.5266 15.1082 20.23C15.5923 19.3826 15.9304 18.4597 16.1082 17.5H21.0032C21.2682 17.5008 21.5221 17.6064 21.7094 17.7937C21.8968 17.9811 22.0024 18.235 22.0032 18.5Z" fill="#17479E"/>
<path d="M21.999 15V16.5C21.9983 16.765 21.8926 17.0189 21.7053 17.2063C21.5179 17.3936 21.264 17.4992 20.999 17.5H16.104C16.1785 17.1096 16.2104 16.7123 16.199 16.315C16.1639 15.5171 15.9826 14.7324 15.6641 14H20.999C21.264 14.0008 21.5179 14.1064 21.7053 14.2937C21.8926 14.4811 21.9983 14.735 21.999 15Z" fill="#17479E"/>
<path d="M22.0018 11.5V13C22.0011 13.265 21.8955 13.5189 21.7081 13.7063C21.5207 13.8936 21.2668 13.9992 21.0018 14H15.6669C15.1129 12.7743 14.3383 11.6608 13.3818 10.715C13.3168 10.64 13.2418 10.57 13.1719 10.5H21.0018C21.2668 10.5008 21.5207 10.6064 21.7081 10.7937C21.8955 10.9811 22.0011 11.235 22.0018 11.5Z" fill="#17479E"/>
<path d="M21.0139 9.20529L14.4639 10.5003L13.3789 10.7153C13.3138 10.6403 13.2389 10.5703 13.1689 10.5003C12.6066 9.9422 12.0086 9.42111 11.3789 8.94029C11.6189 8.67029 11.8539 8.38529 12.069 8.09029L20.5239 6.41529C20.8196 6.3637 21.1237 6.43163 21.3693 6.60415C21.615 6.77666 21.782 7.03964 21.8339 7.33529L21.934 7.89029C21.9853 8.18655 21.9174 8.49111 21.745 8.73748C21.5727 8.98384 21.3098 9.15202 21.0139 9.20529Z" fill="#17479E"/>
<path d="M8.00025 13.4805V14.6355C7.87599 14.5983 7.76705 14.522 7.6896 14.418C7.61214 14.3139 7.57031 14.1877 7.57031 14.058C7.57031 13.9283 7.61214 13.802 7.6896 13.698C7.76705 13.594 7.87599 13.5177 8.00025 13.4805Z" fill="#17479E"/>
<path d="M9 15.8652C9.12425 15.9024 9.2332 15.9787 9.31065 16.0828C9.3881 16.1868 9.42993 16.313 9.42993 16.4427C9.42993 16.5724 9.3881 16.6987 9.31065 16.8027C9.2332 16.9068 9.12425 16.983 9 17.0202V15.8652Z" fill="#17479E"/>
<path d="M10.4406 9.02014C11.0376 8.43038 11.5675 7.77641 12.0207 7.07014C12.4527 6.29731 12.7885 5.47453 13.0207 4.62014C13.0756 4.44514 13.1257 4.29014 13.1707 4.16014C13.207 4.05294 13.2058 3.9366 13.1673 3.83016C13.1289 3.72372 13.0554 3.6335 12.959 3.57425C12.8626 3.515 12.7489 3.49025 12.6366 3.50403C12.5242 3.51782 12.4199 3.56933 12.3407 3.65014C12.2209 3.77159 12.0774 3.8671 11.9192 3.93075C11.7609 3.9944 11.5913 4.02483 11.4208 4.02014C11.2528 4.00486 11.0913 3.94817 10.9507 3.85514C10.6646 3.62112 10.3053 3.49542 9.93577 3.50014C9.5677 3.49521 9.20981 3.621 8.92577 3.85514C8.8087 3.96132 8.65631 4.02013 8.49827 4.02013C8.34022 4.02013 8.18783 3.96132 8.07077 3.85514C7.78333 3.62533 7.42627 3.50014 7.05827 3.50014C6.69026 3.50014 6.3332 3.62533 6.04577 3.85514C5.9802 3.90782 5.90791 3.95153 5.8308 3.98511C5.8108 3.99511 5.72069 4.00011 5.61571 4.02011C5.24063 3.96099 4.88549 3.81172 4.5808 3.58511C4.49406 3.52765 4.39155 3.49869 4.28756 3.50228C4.18358 3.50587 4.0833 3.54183 4.00073 3.60513C3.91816 3.66844 3.8574 3.75594 3.82694 3.85543C3.79648 3.95491 3.79783 4.06143 3.8308 4.16011C3.87572 4.29011 3.92577 4.44511 3.9807 4.62011C4.21293 5.47449 4.54876 6.29726 4.9807 7.07011C5.43389 7.77638 5.9638 8.43036 6.56078 9.02011C4.91578 10.1951 1.55078 12.9901 1.42578 16.3401C1.44677 17.6014 1.79659 18.8354 2.44067 19.9201C2.63156 20.2505 2.90651 20.5245 3.2376 20.7142C3.56868 20.9039 3.94409 21.0025 4.32566 21.0001H12.6758C13.0573 21.0026 13.4327 20.9039 13.7638 20.7142C14.0949 20.5245 14.3699 20.2505 14.5608 19.9201C15.2048 18.8355 15.5547 17.6015 15.5756 16.3401C15.4507 12.9901 12.0857 10.1951 10.4406 9.02014ZM10.4306 16.4401C10.4102 16.833 10.258 17.2075 9.99852 17.5033C9.73908 17.799 9.38757 17.9987 9.00071 18.0701V18.5001C9.00071 18.6327 8.94803 18.7599 8.85426 18.8537C8.76049 18.9475 8.63331 19.0001 8.50071 19.0001C8.3681 19.0001 8.24092 18.9475 8.14715 18.8537C8.05338 18.7599 8.00071 18.6327 8.00071 18.5001V18.0701C7.61384 17.9987 7.26233 17.799 7.0029 17.5033C6.74346 17.2075 6.59123 16.833 6.57078 16.4401C6.57078 16.3075 6.62345 16.1804 6.71722 16.0866C6.81099 15.9928 6.93817 15.9401 7.07078 15.9401C7.20338 15.9401 7.33056 15.9928 7.42433 16.0866C7.5181 16.1804 7.57078 16.3075 7.57078 16.4401C7.58131 16.5673 7.62714 16.6889 7.7031 16.7914C7.77906 16.8939 7.88214 16.9731 8.00071 17.0201V15.6851C7.61423 15.6148 7.26281 15.4161 7.00331 15.1212C6.74381 14.8263 6.59141 14.4524 6.57078 14.0601C6.59123 13.6673 6.74346 13.2927 7.0029 12.997C7.26233 12.7013 7.61384 12.5016 8.00071 12.4301V12.0001C8.00071 11.8675 8.05338 11.7404 8.14715 11.6466C8.24092 11.5528 8.3681 11.5001 8.50071 11.5001C8.63331 11.5001 8.76049 11.5528 8.85426 11.6466C8.94803 11.7404 9.00071 11.8675 9.00071 12.0001V12.4301C9.38757 12.5016 9.73908 12.7013 9.99852 12.997C10.258 13.2927 10.4102 13.6673 10.4306 14.0601C10.4306 14.1927 10.378 14.3199 10.2842 14.4137C10.1904 14.5075 10.0632 14.5601 9.93064 14.5601C9.79803 14.5601 9.67085 14.5075 9.57708 14.4137C9.48332 14.3199 9.43064 14.1927 9.43064 14.0601C9.4201 13.933 9.37427 13.8114 9.29831 13.7089C9.22235 13.6064 9.11928 13.5272 9.00071 13.4801V14.8151C9.38718 14.8855 9.7386 15.0842 9.9981 15.3791C10.2576 15.674 10.41 16.0479 10.4306 16.4401Z" fill="#17479E"/>
</svg>
