<svg width="24" height="24" viewBox="0 0 24 24" fill="none" xmlns="http://www.w3.org/2000/svg">
<g clip-path="url(#clip0_675_56259)">
<path d="M17.1947 5.74414C17.4783 6.35501 17.6897 6.99684 17.8247 7.65664C18.8502 8.21352 19.7316 9.00202 20.3988 9.95942C21.066 10.9168 21.5006 12.0167 21.668 13.1716C21.8354 14.3265 21.731 15.5045 21.3632 16.6119C20.9953 17.7194 20.3741 18.7257 19.5489 19.5509C18.7237 20.376 17.7174 20.9972 16.61 21.3651C15.5025 21.733 14.3245 21.8374 13.1696 21.67C12.0147 21.5026 10.9149 21.068 9.95747 20.4008C9.00007 19.7336 8.21157 18.8521 7.65469 17.8266C6.99488 17.6916 6.35305 17.4802 5.74219 17.1966C6.24192 18.6373 7.0995 19.9273 8.23443 20.9457C9.36936 21.9641 10.7444 22.6774 12.2306 23.0187C13.7168 23.36 15.2653 23.3182 16.7308 22.897C18.1964 22.4759 19.5309 21.6893 20.6091 20.6111C21.6873 19.5328 22.4739 18.1983 22.8951 16.7328C23.3162 15.2672 23.3581 13.7187 23.0168 12.2326C22.6755 10.7464 21.9621 9.37132 20.9438 8.23639C19.9254 7.10145 18.6353 6.24388 17.1947 5.74414Z" fill="#17479E"/>
<path d="M14.2526 5.2507C15.256 5.24841 16.2526 5.41577 17.2001 5.7457C16.6163 4.48622 15.7371 3.38628 14.6372 2.53931C13.5373 1.69235 12.2492 1.12339 10.8823 0.880784C9.51549 0.638173 8.11028 0.729077 6.78608 1.14577C5.46188 1.56246 4.25782 2.29264 3.27621 3.27425C2.29459 4.25587 1.56442 5.45992 1.14772 6.78412C0.73103 8.10832 0.640127 9.51354 0.882737 10.8804C1.12535 12.2472 1.6943 13.5353 2.54127 14.6352C3.38823 15.7351 4.48817 16.6144 5.74765 17.1982C5.41773 16.2506 5.25037 15.2541 5.25265 14.2507C5.25265 11.8637 6.20086 9.57456 7.88869 7.88674C9.57652 6.19891 11.8657 5.2507 14.2526 5.2507Z" fill="#17479E"/>
<path d="M6.75 14.2507C6.74978 15.5002 7.06172 16.7299 7.6575 17.8282C9.05342 18.1119 10.4979 18.0455 11.8618 17.6348C13.2258 17.2241 14.4668 16.4821 15.4741 15.4748C16.4813 14.4676 17.2234 13.2265 17.6341 11.8626C18.0448 10.4986 18.1112 9.05414 17.8275 7.65823C16.6851 7.03821 15.4011 6.72574 14.1016 6.75147C12.802 6.7772 11.5314 7.14024 10.4144 7.80498C9.29742 8.46973 8.37237 9.41337 7.72997 10.5434C7.08757 11.6733 6.74987 12.9509 6.75 14.2507Z" fill="#17479E"/>
</g>
<defs>
<clipPath id="clip0_675_56259">
<rect width="24" height="24" fill="white"/>
</clipPath>
</defs>
</svg>
