<svg width="24" height="24" viewBox="0 0 24 24" fill="none" xmlns="http://www.w3.org/2000/svg">
<path fill-rule="evenodd" clip-rule="evenodd" d="M18.6863 13.3819C18.7283 13.0522 18.75 12.7162 18.75 12.375C18.75 8.02575 15.2242 4.5 10.875 4.5C6.52576 4.5 3 8.02575 3 12.375C3 16.7242 6.52576 20.25 10.875 20.25C11.9449 20.25 12.9649 20.0367 13.8948 19.6502C13.4102 18.974 13.125 18.1453 13.125 17.25C13.125 14.9718 14.9718 13.125 17.25 13.125C17.7551 13.125 18.239 13.2158 18.6863 13.3819ZM11.25 8.00003C11.25 7.79288 11.0821 7.62503 10.875 7.62503C10.6679 7.62503 10.5 7.79288 10.5 8.00003V8.87595C9.45885 8.90895 8.625 9.76335 8.625 10.8125C8.625 11.8826 9.49245 12.75 10.5625 12.75H11.1875C11.8433 12.75 12.375 13.2817 12.375 13.9375C12.375 14.5933 11.8433 15.1249 11.1875 15.1249H9.62497C9.4179 15.1249 9.24997 15.2929 9.24997 15.4999C9.24997 15.7071 9.4179 15.8749 9.62497 15.8749H10.5V16.7501C10.5 16.9571 10.6679 17.1251 10.875 17.1251C11.0821 17.1251 11.25 16.9571 11.25 16.7501V15.874C12.2912 15.841 13.125 14.9866 13.125 13.9375C13.125 12.8674 12.2576 12 11.1875 12H10.5625C9.90667 12 9.375 11.4683 9.375 10.8125C9.375 10.1567 9.90667 9.62497 10.5625 9.62497H10.8702L10.875 9.62505L10.8798 9.62497H12.125C12.3321 9.62497 12.5 9.45712 12.5 9.24997C12.5 9.0429 12.3321 8.87497 12.125 8.87497H11.25V8.00003ZM21 17.25C21 19.321 19.3211 21 17.25 21C15.179 21 13.5 19.321 13.5 17.25C13.5 15.179 15.179 13.5 17.25 13.5C19.3211 13.5 21 15.179 21 17.25ZM17.5152 19.7652L19.0152 18.2652C19.1616 18.1187 19.1616 17.8813 19.0152 17.7348C18.8687 17.5884 18.6313 17.5884 18.4848 17.7348L17.625 18.5947V15.75C17.625 15.5429 17.4571 15.375 17.25 15.375C17.0429 15.375 16.875 15.5429 16.875 15.75V18.5947L16.0152 17.7348C15.8687 17.5884 15.6313 17.5884 15.4848 17.7348C15.3384 17.8813 15.3384 18.1187 15.4848 18.2652L16.9848 19.7652C17.1313 19.9116 17.3687 19.9116 17.5152 19.7652Z" fill="#17479E"/>
</svg>
