<svg width="19" height="19" viewBox="0 0 19 19" fill="none" xmlns="http://www.w3.org/2000/svg">
<g clip-path="url(#clip0_675_56224)">
<path d="M5.04883 8.98047C2.28644 8.98047 0.0390625 11.2278 0.0390625 13.9902C0.0390625 16.7526 2.28644 19 5.04883 19C7.81121 19 10.0586 16.7526 10.0586 13.9902C10.0586 11.2278 7.81121 8.98047 5.04883 8.98047ZM7.26077 13.3819L4.66311 15.9795C4.55446 16.0882 4.41199 16.1426 4.26953 16.1426C4.12707 16.1426 3.98461 16.0882 3.87595 15.9795L2.76267 14.8662C2.54528 14.6489 2.54528 14.2964 2.76267 14.079C2.98002 13.8617 3.33248 13.8617 3.54987 14.079L4.26953 14.7987L6.47361 12.5947C6.69096 12.3773 7.04342 12.3773 7.26081 12.5947C7.47816 12.812 7.47816 13.1645 7.26077 13.3819Z" fill="#17479E"/>
<path d="M14.6973 4.82422C14.3899 4.82422 14.1406 4.57499 14.1406 4.26758V0H6.16211C5.24131 0 4.49219 0.749127 4.49219 1.66992V7.89276C4.67558 7.87613 4.86117 7.86719 5.04883 7.86719C6.94616 7.86719 8.64462 8.73466 9.76862 10.0938H15.8105C16.118 10.0938 16.3672 10.343 16.3672 10.6504C16.3672 10.9578 16.118 11.207 15.8105 11.207H10.502C10.8499 11.886 11.0743 12.6382 11.1463 13.4336H15.8105C16.118 13.4336 16.3672 13.6828 16.3672 13.9902C16.3672 14.2976 16.118 14.5469 15.8105 14.5469H11.1463C10.9798 16.3852 9.99762 17.9916 8.56524 19H17.2949C18.2157 19 18.9648 18.2509 18.9648 17.3301V4.82422H14.6973ZM15.8105 7.86719H7.64648C7.33907 7.86719 7.08984 7.61796 7.08984 7.31055C7.08984 7.00313 7.33907 6.75391 7.64648 6.75391H15.8105C16.118 6.75391 16.3672 7.00313 16.3672 7.31055C16.3672 7.61796 16.118 7.86719 15.8105 7.86719Z" fill="#17479E"/>
<path d="M15.25 0.325928V3.71093H18.6348L15.25 0.325928Z" fill="#17479E"/>
</g>
<defs>
<clipPath id="clip0_675_56224">
<rect width="19" height="19" fill="white"/>
</clipPath>
</defs>
</svg>
