<svg width="24" height="24" viewBox="0 0 24 24" fill="none" xmlns="http://www.w3.org/2000/svg">
<path d="M12.001 9.54066C13.6713 9.54066 15.03 8.18217 15.03 6.51159C15.03 4.84186 13.6713 3.48295 12.001 3.48295C10.3308 3.48295 8.97216 4.84186 8.97216 6.51159C8.97211 8.18217 10.3307 9.54066 12.001 9.54066ZM10.401 6.34613C10.491 6.25477 10.6402 6.25477 10.7324 6.34613L11.5225 7.13644L13.2697 5.38992C13.4882 5.17228 13.82 5.50322 13.6011 5.72128L11.6893 7.63383C11.5973 7.72383 11.4499 7.72598 11.3579 7.63383L10.4009 6.67753C10.3088 6.58612 10.3088 6.43753 10.401 6.34613ZM7.20746 10.7796L4.29708 15.8205C4.15664 16.0643 3.84497 16.1482 3.60132 16.0071L1.94204 15.0499C1.70302 14.9112 1.6133 14.5984 1.75547 14.3529L4.66585 9.31191C4.8075 9.06647 5.1211 8.98617 5.36382 9.12483L7.02094 10.0825C7.26455 10.2232 7.34794 10.5358 7.20746 10.7796ZM8.37296 17.651L7.50816 18.8805C7.26014 19.2307 6.89363 19.2063 6.6368 19.0268C6.38218 18.8468 6.23518 18.5084 6.48099 18.1577L7.34354 16.9333C7.82077 16.2543 8.8418 16.9728 8.37296 17.651ZM7.68375 10.8645L9.96858 11.6805C10.8421 10.8888 11.4676 10.6023 12.7648 10.8883C13.6033 11.073 14.8653 11.2623 16.3139 10.8522C16.1523 10.4127 16.3393 9.91125 16.7441 9.67655L17.8459 9.04045V1.99805H6.15394V9.0405L7.25574 9.67659C7.67007 9.91561 7.84946 10.4186 7.68375 10.8645ZM12.001 3.01425C13.9303 3.01425 15.4974 4.58311 15.4974 6.51159C15.4974 8.4405 13.9303 10.0094 12.001 10.0094C10.0718 10.0094 8.50247 8.4405 8.50247 6.51159C8.50243 4.58316 10.0718 3.01425 12.001 3.01425ZM10.1222 18.1591L8.66264 20.2351C8.18743 20.9157 7.15641 20.1937 7.63543 19.5128L9.09502 17.4372C9.57544 16.7572 10.6003 17.4793 10.1222 18.1591ZM16.5378 11.275L18.9499 15.454L17.6616 16.1116L13.1358 13.4908C12.4202 13.0779 11.7201 13.4102 11.1012 13.7032C10.9801 13.7606 10.8395 13.8047 10.7873 13.9025C10.5345 14.3763 10.2492 15.1992 9.85229 15.4127C9.44621 15.6311 9.17625 15.6298 9.06872 15.5618C8.96775 15.4976 8.95243 15.3391 8.95899 15.2177L9.05335 13.2199C9.22453 13.0545 9.37819 12.9012 9.52964 12.753C10.8663 11.4363 11.2702 11.0389 12.6639 11.3463C13.5725 11.546 14.9487 11.7503 16.5378 11.275ZM22.0578 15.0499L20.4007 16.0071C20.1575 16.1471 19.8439 16.0642 19.7027 15.8205L16.7924 10.7796C16.6519 10.5358 16.7353 10.2232 16.9789 10.0825L18.6382 9.12488C18.8819 8.98425 19.1935 9.0682 19.334 9.31195L22.2443 14.3529C22.3844 14.5947 22.3019 14.9094 22.0578 15.0499ZM16.9065 17.6664V17.666L15.3899 16.7838C15.2801 16.7186 15.1352 16.7562 15.0694 16.8682C15.0058 16.9802 15.0431 17.1236 15.155 17.1888L17.0667 18.3021C17.2379 18.4014 17.3411 18.5355 17.374 18.7005C17.4609 19.1415 16.9965 19.7131 16.4368 19.3867L14.4131 18.2097C14.3034 18.1446 14.1586 18.1825 14.0927 18.2946C14.029 18.4061 14.0663 18.5496 14.1783 18.6148L15.7103 19.5063C16.079 19.7224 16.0856 20.0913 15.9298 20.3613C15.7718 20.6309 15.447 20.8066 15.076 20.591L13.4365 19.6361C13.3245 19.571 13.1819 19.6089 13.116 19.7205C13.0524 19.8325 13.0897 19.976 13.2016 20.0411L14.4505 20.7682C15.1685 21.1862 14.5358 22.2704 13.8184 21.8528L12.7408 21.2247C13.1257 20.4656 12.502 19.6752 11.7553 19.6469C12.3177 18.7957 11.5358 17.871 10.7061 17.951C10.8566 17.0161 9.66071 16.284 8.90635 16.9501C8.82732 16.7289 8.67371 16.5372 8.48274 16.4026C8.03719 16.0895 7.36993 16.0787 6.95949 16.6638L6.47007 17.3571L5.00832 15.5289L7.45997 11.282L9.58679 12.0414L8.66058 12.948C8.61666 12.9892 8.59252 13.0455 8.59032 13.105L8.48935 15.1952C8.46961 15.6414 8.65833 15.8565 8.82075 15.9588C9.11925 16.1472 9.5648 16.0999 10.074 15.8252C10.5064 15.5922 10.7566 15.0555 11.0003 14.5365C11.0573 14.4147 11.1122 14.2984 11.1671 14.1911C11.2132 14.1699 11.257 14.1484 11.3032 14.1268C11.8914 13.8475 12.3984 13.6065 12.901 13.8967L17.5387 16.5808C18.2541 16.9975 17.6261 18.0839 16.9065 17.6664ZM11.3491 19.4121L10.1464 21.123C9.67027 21.8029 8.6408 21.082 9.11916 20.4007L10.3241 18.6893C10.5699 18.3387 10.9387 18.363 11.1933 18.543C11.4501 18.7225 11.5972 19.061 11.3491 19.4121ZM12.2622 21.1123L11.8298 21.7259C11.4836 22.2173 10.8989 21.9721 10.728 21.6016C10.6666 21.4666 10.627 21.2534 10.8026 21.004L11.2351 20.3899C11.2351 20.3309 11.6277 19.907 12.1064 20.2431C12.361 20.4227 12.508 20.7612 12.2622 21.1123Z" fill="#17479E"/>
</svg>
