<svg width="24" height="24" viewBox="0 0 24 24" fill="none" xmlns="http://www.w3.org/2000/svg">
<path d="M16.815 2.49805L14.625 3.81055L12.4425 2.49805L10.2525 3.81055L8.07 2.49805L5.88 3.81055L3.69 2.49805L1.5 3.81055V19.7105C1.5 20.7005 2.3025 21.503 3.2925 21.503H13.914C12.3307 20.3855 11.292 18.5458 11.292 16.4653C11.292 13.0648 14.058 10.2988 17.4585 10.2988C17.991 10.2988 18.5047 10.3738 18.9975 10.5013V3.81055L16.815 2.49805ZM9.74025 17.0188H5.14425C4.7715 17.0188 4.46925 16.7165 4.46925 16.3438C4.46925 15.971 4.7715 15.6688 5.14425 15.6688H9.74025C10.113 15.6688 10.4152 15.971 10.4152 16.3438C10.4152 16.7165 10.113 17.0188 9.74025 17.0188ZM10.8075 13.3393H5.145C4.77225 13.3393 4.47 13.037 4.47 12.6643C4.47 12.2915 4.77225 11.9893 5.145 11.9893H10.8075C11.1803 11.9893 11.4825 12.2915 11.4825 12.6643C11.4825 13.037 11.1803 13.3393 10.8075 13.3393ZM15.3563 9.6538H5.14425C4.7715 9.6538 4.46925 9.35155 4.46925 8.9788C4.46925 8.60605 4.7715 8.3038 5.14425 8.3038H15.3563C15.729 8.3038 16.0312 8.60605 16.0312 8.9788C16.0312 9.35155 15.729 9.6538 15.3563 9.6538Z" fill="#17479E"/>
<path d="M17.4595 11.4238C14.6747 11.4238 12.418 13.6813 12.418 16.4653C12.418 19.2493 14.6755 21.5068 17.4595 21.5068C20.2435 21.5068 22.501 19.2493 22.501 16.4653C22.501 13.6813 20.2435 11.4238 17.4595 11.4238ZM18.1322 18.8901V19.0333C18.1322 19.4061 17.83 19.7083 17.4572 19.7083C17.0935 19.7083 16.801 19.4188 16.7875 19.0581C16.5377 19.0221 16.3015 18.9118 16.1185 18.7356C15.8815 18.5061 15.7502 18.1986 15.7502 17.8686C15.7502 17.4958 16.0525 17.1936 16.4252 17.1936C16.747 17.1936 17.0155 17.4178 17.0837 17.7193C17.6072 17.6833 18.0055 17.5453 18.013 17.3886C18.0152 17.3968 17.8862 17.2566 17.3065 17.1238C16.0907 16.8478 15.5027 16.2876 15.5597 15.4573C15.589 15.0238 15.8102 14.3631 16.783 14.0421V13.8973C16.783 13.5246 17.0852 13.2223 17.458 13.2223C17.8225 13.2223 18.1142 13.5118 18.1277 13.8733C18.3752 13.9093 18.6085 14.0151 18.793 14.1936C19.0277 14.4201 19.162 14.7373 19.162 15.0636C19.162 15.4363 18.8597 15.7386 18.487 15.7386C18.166 15.7386 17.8967 15.5143 17.8285 15.2136C17.2825 15.2496 16.918 15.3801 16.9067 15.5496C16.9052 15.5421 17.0042 15.6711 17.6057 15.8076C19.0847 16.1443 19.3772 16.8703 19.363 17.4208C19.3525 17.7883 19.192 18.5406 18.1322 18.8901Z" fill="#17479E"/>
</svg>
