<svg width="24" height="24" viewBox="0 0 24 24" fill="none" xmlns="http://www.w3.org/2000/svg">
<path d="M10.0577 5.7749C10.0577 4.6406 9.60705 3.55276 8.80497 2.7507C8.0029 1.94863 6.91506 1.49804 5.78076 1.49805C4.64646 1.49805 3.55862 1.94866 2.75656 2.75073C1.95449 3.5528 1.5039 4.64065 1.50391 5.77494C1.74352 11.4541 9.81985 11.4485 10.0577 5.7749ZM5.40391 8.56119V8.15244C5.10932 8.06997 4.84981 7.89338 4.66497 7.64963C4.48012 7.40588 4.3801 7.10835 4.38016 6.80244C4.38207 6.70425 4.42243 6.61073 4.49255 6.54197C4.56267 6.4732 4.65696 6.43469 4.75517 6.43469C4.85338 6.43469 4.94767 6.47322 5.01778 6.54198C5.0879 6.61075 5.12825 6.70427 5.13016 6.80246C5.13054 6.93114 5.16906 7.05682 5.24087 7.1636C5.31267 7.27038 5.41453 7.35348 5.53356 7.40237C5.65259 7.45127 5.78344 7.46377 5.90957 7.43829C6.03571 7.41282 6.15145 7.35052 6.24218 7.25926C6.3329 7.16801 6.39453 7.0519 6.41927 6.92562C6.44401 6.79934 6.43074 6.66856 6.38115 6.54982C6.33157 6.43108 6.24788 6.32971 6.14068 6.25853C6.03348 6.18735 5.90759 6.14955 5.77891 6.14992C5.44058 6.14961 5.11381 6.02679 4.85902 5.8042C4.60423 5.5816 4.43866 5.27427 4.39293 4.93905C4.3472 4.60383 4.42439 4.26338 4.61024 3.98067C4.79609 3.69796 5.07803 3.4921 5.40391 3.40117V2.98867C5.40391 2.88922 5.44342 2.79383 5.51374 2.72351C5.58407 2.65318 5.67945 2.61367 5.77891 2.61367C5.87836 2.61367 5.97375 2.65318 6.04407 2.72351C6.1144 2.79383 6.15391 2.88922 6.15391 2.98867V3.40117C6.44947 3.48245 6.71014 3.65861 6.89579 3.90253C7.08145 4.14646 7.1818 4.44463 7.18141 4.75117C7.18141 4.85063 7.1419 4.94601 7.07157 5.01634C7.00125 5.08666 6.90586 5.12617 6.80641 5.12617C6.70695 5.12617 6.61157 5.08666 6.54124 5.01634C6.47092 4.94601 6.43141 4.85063 6.43141 4.75117C6.43178 4.62249 6.39398 4.49659 6.3228 4.38939C6.25161 4.28219 6.15024 4.19851 6.0315 4.14892C5.91275 4.09933 5.78197 4.08607 5.65569 4.11081C5.52941 4.13555 5.4133 4.19719 5.32205 4.28791C5.2308 4.37864 5.1685 4.49439 5.14303 4.62053C5.11756 4.74667 5.13007 4.87752 5.17897 4.99655C5.22787 5.11558 5.31097 5.21743 5.41776 5.28923C5.52455 5.36103 5.65023 5.39955 5.77891 5.39992C6.11598 5.40325 6.4406 5.52776 6.69344 5.7507C6.94628 5.97364 7.11045 6.28012 7.15595 6.61413C7.20145 6.94813 7.12524 7.28736 6.94124 7.5698C6.75725 7.85225 6.47776 8.05905 6.15386 8.15242L6.15391 8.56117C6.1521 8.65943 6.11179 8.75305 6.04167 8.8219C5.97154 8.89075 5.87719 8.92932 5.77892 8.92933C5.68064 8.92933 5.5863 8.89076 5.51617 8.82191C5.44604 8.75307 5.40572 8.65945 5.40391 8.56119Z" fill="#17479E"/>
<path d="M21.018 14.9926C18.3389 12.6027 13.9274 14.5767 13.9493 18.2252C13.9539 19.3582 14.4063 20.4434 15.2078 21.2442C16.0093 22.0451 17.095 22.4965 18.228 22.5001C22.1801 22.4995 23.9921 17.526 21.018 14.9926ZM15.6218 16.7363C15.6249 16.442 15.744 16.1608 15.9533 15.9538C16.1625 15.7468 16.445 15.6307 16.7393 15.6307C17.0336 15.6307 17.3161 15.7468 17.5253 15.9538C17.7345 16.1609 17.8536 16.442 17.8568 16.7364C17.8534 17.0306 17.7343 17.3116 17.525 17.5184C17.3158 17.7253 17.0335 17.8413 16.7393 17.8413C16.4451 17.8413 16.1627 17.7253 15.9535 17.5184C15.7443 17.3116 15.6251 17.0305 15.6218 16.7363ZM17.0055 19.9763C16.9344 20.044 16.8396 20.0812 16.7415 20.0798C16.6433 20.0784 16.5496 20.0387 16.4804 19.969C16.4112 19.8993 16.3721 19.8053 16.3714 19.7071C16.3707 19.609 16.4086 19.5144 16.4768 19.4438L19.4467 16.4738C19.5173 16.4055 19.6119 16.3675 19.7102 16.3681C19.8084 16.3687 19.9026 16.4078 19.9723 16.4771C20.042 16.5463 20.0818 16.6402 20.0831 16.7384C20.0844 16.8367 20.0471 16.9315 19.9792 17.0026L17.0055 19.9763ZM19.713 20.8276C19.4189 20.8241 19.1381 20.7048 18.9314 20.4956C18.7246 20.2864 18.6087 20.0042 18.6087 19.7101C18.6087 19.416 18.7247 19.1337 18.9314 18.9245C19.1381 18.7153 19.419 18.5961 19.713 18.5926C20.0072 18.5959 20.2883 18.7151 20.4951 18.9243C20.702 19.1335 20.818 19.4159 20.818 19.7101C20.818 20.0043 20.702 20.2866 20.4951 20.4959C20.2882 20.7051 20.0072 20.8242 19.713 20.8276Z" fill="#17479E"/>
<path d="M11.7238 9.85938H8.75C8.65064 9.85967 8.55543 9.89928 8.48516 9.96954C8.4149 10.0398 8.3753 10.135 8.375 10.2344V19.1519C8.37483 19.2012 8.38441 19.25 8.4032 19.2956C8.42198 19.3412 8.4496 19.3826 8.48445 19.4175C8.51931 19.4523 8.56072 19.4799 8.60629 19.4987C8.65187 19.5175 8.70071 19.5271 8.75 19.5269H11.7238C11.773 19.5271 11.8219 19.5175 11.8675 19.4987C11.913 19.4799 11.9544 19.4523 11.9893 19.4175C12.0242 19.3826 12.0518 19.3412 12.0706 19.2956C12.0893 19.25 12.0989 19.2012 12.0988 19.1519V10.2344C12.0985 10.135 12.0589 10.0398 11.9886 9.96955C11.9183 9.89928 11.8231 9.85967 11.7238 9.85938Z" fill="#17479E"/>
<path d="M7.26672 11.3477H4.29297C4.24368 11.3475 4.19484 11.3571 4.14926 11.3759C4.10369 11.3946 4.06228 11.4223 4.02742 11.4571C3.99257 11.492 3.96495 11.5334 3.94617 11.5789C3.92738 11.6245 3.9178 11.6734 3.91797 11.7227V19.1514C3.9178 19.2007 3.92738 19.2495 3.94617 19.2951C3.96495 19.3407 3.99257 19.3821 4.02742 19.417C4.06228 19.4518 4.10369 19.4794 4.14926 19.4982C4.19484 19.517 4.24368 19.5266 4.29297 19.5264H7.26672C7.31601 19.5266 7.36486 19.517 7.41043 19.4982C7.456 19.4794 7.49741 19.4518 7.53227 19.417C7.56712 19.3821 7.59474 19.3407 7.61352 19.2951C7.63231 19.2495 7.64189 19.2007 7.64172 19.1514V11.7227C7.64189 11.6734 7.63231 11.6245 7.61352 11.5789C7.59474 11.5334 7.56712 11.492 7.53227 11.4571C7.49741 11.4223 7.456 11.3946 7.41043 11.3759C7.36486 11.3571 7.31601 11.3475 7.26672 11.3477Z" fill="#17479E"/>
<path d="M16.5597 13.4806V8.74805C16.5594 8.64868 16.5198 8.55347 16.4495 8.48321C16.3793 8.41295 16.2841 8.37334 16.1847 8.37305H13.2109C13.1116 8.37334 13.0164 8.41295 12.9461 8.48321C12.8758 8.55347 12.8362 8.64868 12.8359 8.74805V19.1505C12.8422 19.4519 13.1092 19.5552 13.3722 19.5256C13.3122 19.3078 13.2684 19.086 13.241 18.8618C13.0999 17.7212 13.3517 16.5665 13.9551 15.5882C14.5584 14.61 15.4771 13.8665 16.5597 13.4806Z" fill="#17479E"/>
<path d="M21.0206 14.0516V5.77539C21.0203 5.67602 20.9807 5.58081 20.9105 5.51054C20.8402 5.44028 20.745 5.40068 20.6456 5.40039H17.6719C17.5725 5.40069 17.4773 5.44029 17.407 5.51055C17.3368 5.58082 17.2972 5.67603 17.2969 5.77539V13.2866C18.5905 13.0383 19.9297 13.3134 21.0206 14.0516Z" fill="#17479E"/>
<path d="M17.11 16.7357C17.1082 16.6394 17.0687 16.5477 17 16.4803C16.9313 16.4128 16.8388 16.375 16.7425 16.375C16.6462 16.375 16.5538 16.4128 16.485 16.4802C16.4163 16.5477 16.3768 16.6394 16.375 16.7357C16.3768 16.832 16.4163 16.9237 16.485 16.9912C16.5537 17.0586 16.6462 17.0964 16.7425 17.0964C16.8388 17.0964 16.9312 17.0587 17 16.9912C17.0687 16.9237 17.1082 16.832 17.11 16.7357Z" fill="#17479E"/>
<path d="M19.3438 19.7103C19.3455 19.8066 19.385 19.8983 19.4538 19.9658C19.5225 20.0332 19.6149 20.071 19.7112 20.071C19.8075 20.071 19.9 20.0333 19.9687 19.9658C20.0374 19.8984 20.077 19.8066 20.0787 19.7103C20.077 19.6141 20.0375 19.5223 19.9687 19.4549C19.9 19.3874 19.8076 19.3496 19.7113 19.3496C19.615 19.3496 19.5225 19.3874 19.4538 19.4548C19.3851 19.5223 19.3455 19.614 19.3438 19.7103Z" fill="#17479E"/>
</svg>
