<svg width="24" height="24" viewBox="0 0 24 24" fill="none" xmlns="http://www.w3.org/2000/svg">
<path fill-rule="evenodd" clip-rule="evenodd" d="M18 10.25C15.378 10.25 13.25 12.378 13.25 15C13.25 17.622 15.378 19.75 18 19.75C20.622 19.75 22.75 17.622 22.75 15C22.75 12.378 20.622 10.25 18 10.25ZM16.055 16.03L17.055 17.03C17.207 17.182 17.415 17.261 17.629 17.249C17.842 17.236 18.041 17.134 18.173 16.966L20.088 14.552C20.345 14.227 20.29 13.755 19.966 13.498C19.642 13.241 19.169 13.295 18.912 13.62L17.521 15.375L17.116 14.97C16.823 14.677 16.348 14.677 16.055 14.97C15.763 15.262 15.763 15.738 16.055 16.03Z" fill="#17479E"/>
<path fill-rule="evenodd" clip-rule="evenodd" d="M15.653 9.75H1.25V16C1.25 16.729 1.54 17.429 2.055 17.945C2.571 18.46 3.271 18.75 4 18.75H13.642C12.775 17.743 12.25 16.432 12.25 15C12.25 12.662 13.648 10.649 15.653 9.75ZM8.001 14.25H5C4.586 14.25 4.25 14.586 4.25 15C4.25 15.414 4.586 15.75 5 15.75H8.001C8.415 15.75 8.751 15.414 8.751 15C8.751 14.586 8.415 14.25 8.001 14.25ZM1.25 8.25H20.75V7C20.75 6.271 20.46 5.571 19.945 5.055C19.429 4.54 18.729 4.25 18 4.25C14.537 4.25 7.463 4.25 4 4.25C3.271 4.25 2.571 4.54 2.055 5.055C1.54 5.571 1.25 6.271 1.25 7V8.25Z" fill="#17479E"/>
</svg>
