<svg width="21" height="21" viewBox="0 0 21 21" fill="none" xmlns="http://www.w3.org/2000/svg">
<g clip-path="url(#clip0_675_56263)">
<path d="M0.0820313 20.3438C0.0819882 20.4192 0.0968114 20.4939 0.125653 20.5635C0.154495 20.6332 0.19679 20.6966 0.25012 20.7499C0.30345 20.8032 0.366768 20.8455 0.436455 20.8743C0.506142 20.9032 0.58083 20.918 0.65625 20.918H8.61328V7.79297H0.0820313V20.3438ZM1.80469 9.51562C1.80469 9.36333 1.86519 9.21728 1.97287 9.10959C2.08056 9.0019 2.22661 8.94141 2.37891 8.94141C2.5312 8.94141 2.67725 9.0019 2.78494 9.10959C2.89263 9.21728 2.95312 9.36333 2.95312 9.51562V13.4531C2.95312 13.6054 2.89263 13.7515 2.78494 13.8592C2.67725 13.9668 2.5312 14.0273 2.37891 14.0273C2.22661 14.0273 2.08056 13.9668 1.97287 13.8592C1.86519 13.7515 1.80469 13.6054 1.80469 13.4531V9.51562Z" fill="#17479E"/>
<path d="M15.3398 18.0469C16.6537 18.0469 17.7188 16.9818 17.7188 15.668C17.7188 14.3541 16.6537 13.2891 15.3398 13.2891C14.026 13.2891 12.9609 14.3541 12.9609 15.668C12.9609 16.9818 14.026 18.0469 15.3398 18.0469Z" fill="#17479E"/>
<path d="M9.76172 20.918H20.3438C20.496 20.9179 20.642 20.8574 20.7497 20.7497C20.8574 20.642 20.9179 20.496 20.918 20.3438V10.418H9.76172V20.918ZM15.3398 12.1406C16.0375 12.1406 16.7195 12.3475 17.2995 12.7351C17.8796 13.1227 18.3317 13.6736 18.5987 14.3181C18.8657 14.9627 18.9355 15.6719 18.7994 16.3561C18.6633 17.0404 18.3274 17.6689 17.8341 18.1622C17.3407 18.6555 16.7122 18.9914 16.028 19.1275C15.3438 19.2636 14.6345 19.1938 13.99 18.9268C13.3455 18.6598 12.7946 18.2077 12.407 17.6277C12.0194 17.0476 11.8125 16.3656 11.8125 15.668C11.8135 14.7328 12.1855 13.8362 12.8468 13.1749C13.5081 12.5136 14.4047 12.1417 15.3398 12.1406Z" fill="#17479E"/>
<path d="M12.3867 4.67578V0.65625C12.3868 0.58083 12.3719 0.506142 12.3431 0.436455C12.3143 0.366768 12.272 0.30345 12.2186 0.25012C12.1653 0.19679 12.102 0.154495 12.0323 0.125653C11.9626 0.0968114 11.8879 0.0819882 11.8125 0.0820313H0.65625C0.58083 0.0819882 0.506142 0.0968114 0.436455 0.125653C0.366768 0.154495 0.30345 0.19679 0.25012 0.25012C0.19679 0.30345 0.154495 0.366768 0.125653 0.436455C0.0968114 0.506142 0.0819882 0.58083 0.0820313 0.65625V6.64453H8.61328V6.39844C8.6138 5.94172 8.79546 5.50386 9.11841 5.18091C9.44136 4.85796 9.87922 4.6763 10.3359 4.67578H12.3867ZM2.95312 4.34766C2.95312 4.49995 2.89263 4.646 2.78494 4.75369C2.67725 4.86138 2.5312 4.92188 2.37891 4.92188C2.22661 4.92188 2.08056 4.86138 1.97287 4.75369C1.86519 4.646 1.80469 4.49995 1.80469 4.34766V2.37891C1.80469 2.22661 1.86519 2.08056 1.97287 1.97287C2.08056 1.86519 2.22661 1.80469 2.37891 1.80469C2.5312 1.80469 2.67725 1.86519 2.78494 1.97287C2.89263 2.08056 2.95312 2.22661 2.95312 2.37891V4.34766Z" fill="#17479E"/>
<path d="M20.3438 5.82422H10.3359C10.1837 5.82431 10.0377 5.88483 9.93 5.9925C9.82233 6.10017 9.76181 6.24617 9.76172 6.39844V9.26953H20.918V6.39844C20.9179 6.24617 20.8574 6.10017 20.7497 5.9925C20.642 5.88483 20.496 5.82431 20.3438 5.82422ZM12.0586 8.12109C11.945 8.12109 11.834 8.08742 11.7396 8.02432C11.6451 7.96122 11.5715 7.87154 11.5281 7.76662C11.4846 7.66169 11.4733 7.54624 11.4954 7.43485C11.5176 7.32346 11.5723 7.22115 11.6526 7.14084C11.7329 7.06054 11.8352 7.00585 11.9466 6.98369C12.058 6.96153 12.1734 6.9729 12.2783 7.01637C12.3833 7.05983 12.4729 7.13343 12.536 7.22786C12.5991 7.32229 12.6328 7.43331 12.6328 7.54688C12.6327 7.69914 12.5722 7.84514 12.4645 7.95281C12.3569 8.06048 12.2109 8.12101 12.0586 8.12109ZM14.3555 8.12109C14.2419 8.12109 14.1309 8.08742 14.0364 8.02432C13.942 7.96122 13.8684 7.87154 13.825 7.76662C13.7815 7.66169 13.7701 7.54624 13.7923 7.43485C13.8144 7.32346 13.8691 7.22115 13.9494 7.14084C14.0297 7.06054 14.1321 7.00585 14.2434 6.98369C14.3548 6.96153 14.4703 6.9729 14.5752 7.01637C14.6801 7.05983 14.7698 7.13343 14.8329 7.22786C14.896 7.32229 14.9297 7.43331 14.9297 7.54688C14.9296 7.69914 14.8691 7.84514 14.7614 7.95281C14.6537 8.06048 14.5077 8.12101 14.3555 8.12109Z" fill="#17479E"/>
</g>
<defs>
<clipPath id="clip0_675_56263">
<rect width="21" height="21" fill="white"/>
</clipPath>
</defs>
</svg>
