<svg width="21" height="21" viewBox="0 0 21 21" fill="none" xmlns="http://www.w3.org/2000/svg">
<g clip-path="url(#clip0_675_56269)">
<path fill-rule="evenodd" clip-rule="evenodd" d="M16.4352 8.87713C17.6161 8.87713 18.6003 7.99271 18.7587 6.85355C19.6713 6.78005 20.3798 6.0124 20.3798 5.09562V3.87286C20.3798 3.69165 20.2329 3.54473 20.0517 3.54473C17.7908 3.54473 15.5298 3.54473 13.2689 3.54473C13.0877 3.54473 12.9408 3.69165 12.9408 3.87286C12.9408 4.05407 13.0877 4.20098 13.2689 4.20098H14.0892V6.53116C14.0892 7.82147 15.1449 8.87713 16.4352 8.87713ZM18.5631 2.88853C18.1892 2.08638 17.3744 1.52693 16.4352 1.52693C15.4959 1.52693 14.6811 2.08638 14.3072 2.88853H18.5631ZM10.9367 13.9121H19.9844C20.1648 13.9121 20.3125 14.0598 20.3125 14.2403V20.0156C20.3125 20.1961 20.1649 20.3438 19.9844 20.3438H10.9367C10.7563 20.3438 10.6086 20.1961 10.6086 20.0156V14.2403C10.6086 14.0597 10.7562 13.9121 10.9367 13.9121ZM15.4303 17.1181L14.5623 17.9861C14.4342 18.1143 14.4342 18.322 14.5623 18.4501C14.6904 18.5782 14.8982 18.5782 15.0263 18.4501L15.8943 17.5821C16.0224 17.454 16.0224 17.2462 15.8943 17.1181C15.7662 16.99 15.5585 16.99 15.4303 17.1181ZM15.2638 15.9723L13.4165 17.8196C13.2884 17.9478 13.2884 18.1555 13.4165 18.2836C13.5446 18.4118 13.7524 18.4118 13.8805 18.2836L15.7278 16.4362C15.8559 16.3081 15.8559 16.1004 15.7278 15.9723C15.5997 15.8441 15.392 15.8441 15.2638 15.9723ZM14.118 15.8058L13.25 16.6738C13.1218 16.8019 13.1218 17.0097 13.25 17.1378C13.3781 17.2659 13.5859 17.2659 13.7139 17.1378L14.582 16.2697C14.7101 16.1416 14.7101 15.9339 14.582 15.8058C14.4539 15.6776 14.2461 15.6776 14.118 15.8058ZM18.8089 17.6436C18.4597 17.6436 18.1766 17.9267 18.1766 18.2759C18.1766 18.6251 18.4597 18.9082 18.8089 18.9082C19.1581 18.9082 19.4412 18.6251 19.4412 18.2759C19.4412 17.9267 19.1581 17.6436 18.8089 17.6436ZM18.8089 15.3476C18.4597 15.3476 18.1766 15.6307 18.1766 15.9799C18.1766 16.3291 18.4597 16.6122 18.8089 16.6122C19.1581 16.6122 19.4412 16.3291 19.4412 15.9799C19.4412 15.6307 19.1581 15.3476 18.8089 15.3476ZM11.8391 15.1426V19.1133H17.3053V15.1426H11.8391ZM1.48178 10.5363H3.14344V11.9201H0.625V11.393C0.625 10.9218 1.01055 10.5363 1.48178 10.5363ZM5.0818 13.5194C6.72714 13.5194 8.06105 14.8533 8.06105 16.4987C8.06105 18.1438 6.72689 19.4779 5.0818 19.4779C3.43646 19.4779 2.10259 18.144 2.10259 16.4987C2.10259 14.8534 3.43646 13.5194 5.0818 13.5194ZM2.86855 15.7911C3.97413 15.4932 4.61418 15.8497 5.2596 16.2095C5.82086 16.5224 6.38733 16.838 7.40464 16.522C7.40472 16.5142 7.40476 16.5065 7.40476 16.4987C7.40476 15.2156 6.36481 14.1757 5.08176 14.1757C4.0697 14.1757 3.17519 14.831 2.86855 15.7911ZM7.28549 17.2354C6.20591 17.4856 5.57116 17.132 4.94173 16.7811C4.36841 16.4616 3.80035 16.1451 2.75888 16.5114C2.76573 17.7893 3.80375 18.8216 5.0818 18.8216C6.0827 18.8216 6.96962 18.1807 7.28549 17.2354ZM3.79969 10.5363H8.6819C9.15313 10.5363 9.53868 10.9218 9.53868 11.393V11.9201H3.79969V10.5363ZM9.53868 12.5763C6.56747 12.5763 3.59621 12.5764 0.625 12.5764V19.487C0.625 19.9582 1.01055 20.3438 1.48178 20.3438H8.6819C9.15313 20.3438 9.53868 19.9582 9.53868 19.487V12.5763ZM2.44412 0.65625H11.4284C11.7893 0.65625 12.0846 0.951521 12.0846 1.3125V7.72037H1.78787V1.3125C1.78787 0.951521 2.08319 0.65625 2.44412 0.65625ZM2.87897 4.03229V5.48108C2.87897 5.66229 3.02589 5.80921 3.2071 5.80921C3.3883 5.80921 3.53522 5.66229 3.53522 5.48108V4.03229C3.53522 3.85108 3.3883 3.70416 3.2071 3.70416C3.02589 3.70416 2.87897 3.85104 2.87897 4.03229ZM12.0846 8.37662V8.67206H1.78787V8.37662H12.0846ZM12.0846 9.32827H1.78787V9.87997H8.68186C9.51403 9.87997 10.1949 10.5608 10.1949 11.393V13.595C10.3757 13.3875 10.6416 13.2558 10.9367 13.2558H12.0846V9.32827H12.0846ZM18.7811 11.2383V11.8211H14.0892V11.2383H18.7811ZM18.7811 12.4774V13.2558H14.0892V12.4774H18.7811ZM15.761 9.28733H17.1093C17.8993 9.28733 18.5658 9.84256 18.738 10.5821H14.1324C14.3046 9.84256 14.9711 9.28733 15.761 9.28733ZM18.7811 6.19073V4.20098H19.7236V5.09566C19.7236 5.64207 19.32 6.10952 18.7811 6.19073Z" fill="#17479E"/>
</g>
<defs>
<clipPath id="clip0_675_56269">
<rect width="21" height="21" fill="white"/>
</clipPath>
</defs>
</svg>
