<svg width="30" height="28" viewBox="0 0 30 28" fill="none" xmlns="http://www.w3.org/2000/svg">
<path d="M17.1141 15.2674C16.7733 15.2674 16.4969 14.991 16.4969 14.6501V11.8291H13.4969V14.6501C13.4969 14.991 13.2205 15.2674 12.8796 15.2674H10.0586V18.2612H12.8796C13.2205 18.2612 13.4969 18.5376 13.4969 18.8785V21.6995H16.4907V18.8785C16.4907 18.5376 16.7671 18.2612 17.108 18.2612H19.9351V15.2674H17.1141Z" fill="white"/>
<path d="M25.7407 5.96973H4.25926C2.2963 5.96973 0 7.08701 0 10.229V23.6426C0 26.7845 2.2963 27.9018 4.25926 27.9018H25.7407C27.7037 27.9018 30 26.7845 30 23.6426V10.229C30 7.08701 27.7099 5.96973 25.7407 5.96973ZM21.1728 18.5747C21.1728 19.0826 20.761 19.4944 20.2531 19.4944H17.7346V22.0129C17.7346 22.5209 17.3228 22.9327 16.8148 22.9327H13.1852C12.6772 22.9327 12.2654 22.5209 12.2654 22.0129V19.4944H9.75309C9.24514 19.4978 8.83056 19.0888 8.82716 18.5808C8.82716 18.5788 8.82716 18.5767 8.82716 18.5747V14.9512C8.82716 14.4433 9.23897 14.0315 9.74691 14.0315H12.2654V11.5129C12.2654 11.005 12.6772 10.5932 13.1852 10.5932H16.8086C17.3166 10.5932 17.7284 11.005 17.7284 11.5129V14.0315H20.2469C20.7549 14.0281 21.1694 14.4371 21.1728 14.945C21.1728 14.9471 21.1728 14.9491 21.1728 14.9512V18.5747Z" fill="white"/>
<path d="M18.9681 0.2373C18.9004 0.233442 18.8325 0.233442 18.7648 0.2373H11.2339C10.2434 0.181205 9.39493 0.938612 9.33883 1.92904C9.33497 1.99679 9.33497 2.06462 9.33883 2.13236V4.91014H10.5734L10.5796 2.13236C10.5796 1.95335 10.5796 1.47187 11.2401 1.47187H18.7648C19.4253 1.47187 19.4253 1.94718 19.4253 2.13236V4.91014H20.6598V2.13236C20.716 1.14185 19.9585 0.293473 18.9681 0.2373Z" fill="white"/>
</svg>
