<svg width="30" height="30" viewBox="0 0 30 30" fill="none" xmlns="http://www.w3.org/2000/svg">
<path fill-rule="evenodd" clip-rule="evenodd" d="M25.0418 13.8053C26.7948 15.7479 28.1017 17.4333 28.9624 18.9444C32.1144 24.4788 27.6304 30.0998 21.6254 29.9987C15.6203 30.0998 11.1364 24.4788 14.2883 18.9444C15.149 17.4333 16.456 15.7479 18.2089 13.8053C18.4181 13.8716 18.6407 13.9075 18.8714 13.9075H24.3793C24.61 13.9075 24.8326 13.8716 25.0418 13.8053ZM2.74997 0C1.23744 0 0 1.2375 0 2.74997V22.8535C0 24.3661 1.23744 25.6035 2.74997 25.6035H12.8767C11.8869 23.2385 12.1864 20.6798 13.4475 18.4655C13.7051 18.0132 13.9877 17.5649 14.289 17.1221C14.1147 17.0093 13.9989 16.8132 13.9989 16.591V15.7691C13.9989 15.4209 14.2829 15.1369 14.6311 15.1369H15.7777C16.2902 14.507 16.8234 13.8938 17.3571 13.3019C17.1995 13.1524 17.064 12.9799 16.9559 12.79H14.6311C14.2829 12.79 13.9989 12.506 13.9989 12.1578V11.3359C13.9989 10.9877 14.2829 10.7037 14.6311 10.7037H16.9108C17.1072 10.3211 17.4125 10.003 17.7852 9.79044L17.1282 9.13352C16.7283 8.73366 16.5122 8.21803 16.4794 7.69291H3.66661C3.3184 7.69291 3.03443 7.40894 3.03443 7.06073V4.57937C3.03443 4.23116 3.3184 3.94719 3.66661 3.94719H17.5748C17.923 3.94719 18.2069 4.23116 18.2069 4.57937V5.37492C18.6531 5.27258 19.1276 5.30663 19.5612 5.48452C19.8545 4.78266 20.4905 4.27266 21.2414 4.14122V2.74997C21.2414 1.2375 20.0039 0 18.4915 0H2.74997ZM18.8715 12.9397C18.1924 12.9397 17.6369 12.3842 17.6369 11.7051C17.6369 11.0261 18.1924 10.4706 18.8715 10.4706H24.3793C25.0584 10.4706 25.6139 11.0261 25.6139 11.7052C25.6139 12.3841 25.0584 12.9397 24.3793 12.9397H18.8715ZM4.24744 10.7037H6.61025C6.95846 10.7037 7.24243 10.9877 7.24243 11.3359V12.1577C7.24243 12.5059 6.95846 12.7899 6.61025 12.7899H4.24744C3.89923 12.7899 3.61526 12.5059 3.61526 12.1577V11.3359C3.61526 10.9877 3.89923 10.7037 4.24744 10.7037ZM9.43927 19.5701C9.09107 19.5701 8.80709 19.8541 8.80709 20.2023V21.0241C8.80709 21.3724 9.09107 21.6563 9.43927 21.6563H11.8021C12.1503 21.6563 12.4343 21.3724 12.4343 21.0241V20.2023C12.4343 19.8541 12.1503 19.5701 11.8021 19.5701H9.43927ZM4.24744 19.5701H6.61025C6.95846 19.5701 7.24243 19.8541 7.24243 20.2023V21.0241C7.24243 21.3724 6.95846 21.6563 6.61025 21.6563H4.24744C3.89923 21.6563 3.61526 21.3724 3.61526 21.0241V20.2023C3.61526 19.8541 3.89923 19.5701 4.24744 19.5701ZM9.43927 15.1369C9.09107 15.1369 8.80709 15.4208 8.80709 15.769V16.5909C8.80709 16.9391 9.09107 17.2231 9.43927 17.2231H11.8021C12.1503 17.2231 12.4343 16.9391 12.4343 16.5909V15.769C12.4343 15.4208 12.1503 15.1369 11.8021 15.1369H9.43927ZM4.24744 15.1369H6.61025C6.95846 15.1369 7.24243 15.4208 7.24243 15.769V16.5909C7.24243 16.9391 6.95846 17.2231 6.61025 17.2231H4.24744C3.89923 17.2231 3.61526 16.9391 3.61526 16.5909V15.769C3.61526 15.4209 3.89923 15.1369 4.24744 15.1369ZM9.43927 10.7037H11.8021C12.1503 10.7037 12.4343 10.9877 12.4343 11.3359V12.1577C12.4343 12.5059 12.1503 12.7899 11.8021 12.7899H9.43927C9.09107 12.7899 8.80709 12.5059 8.80709 12.1577V11.3359C8.80709 10.9877 9.09107 10.7037 9.43927 10.7037ZM21.562 24.1928C21.191 24.1831 20.8309 24.0826 20.5437 23.8914C20.2839 23.7183 20.0854 23.4652 20.0025 23.1327C19.9286 22.8325 19.6254 22.649 19.3252 22.7228C19.025 22.7967 18.8415 23.0999 18.9154 23.4001C19.072 24.0282 19.4423 24.5031 19.9257 24.8251C20.2559 25.045 20.6394 25.1904 21.0409 25.2612V25.6967C21.0409 26.0066 21.2921 26.2578 21.602 26.2578C21.9119 26.2578 22.1631 26.0066 22.1631 25.6967V25.2719C22.6511 25.1975 23.1482 25.0194 23.5386 24.7232C24.0077 24.3673 24.3198 23.8576 24.3035 23.1736C24.3016 23.0952 24.2971 23.0264 24.29 22.9675C24.199 22.218 23.7936 21.7301 23.2558 21.4055C22.7836 21.1203 22.2172 20.9783 21.698 20.8931C21.3234 20.8316 20.929 20.7275 20.6401 20.5389C20.4162 20.3928 20.2557 20.1812 20.2407 19.8719C20.2244 19.5372 20.3705 19.2671 20.6008 19.0799C20.7811 18.9333 21.0112 18.8314 21.2607 18.7812C21.361 18.761 21.4643 18.7493 21.5686 18.7466C21.5797 18.7473 21.5907 18.7476 21.602 18.7476C21.6155 18.7476 21.6288 18.7472 21.6421 18.7462C21.78 18.7482 21.919 18.7659 22.0546 18.8003C22.4717 18.906 22.8515 19.1809 23.0515 19.6572C23.1713 19.9429 23.5001 20.0773 23.7857 19.9575C24.0714 19.8376 24.2058 19.5088 24.0859 19.2232C23.7338 18.3846 23.0634 17.9 22.3264 17.7132C22.2723 17.6995 22.2179 17.6874 22.1631 17.6771V17.2423C22.1631 16.9325 21.9119 16.6812 21.602 16.6812C21.2922 16.6812 21.0409 16.9325 21.0409 17.2423V17.6855C20.6158 17.7712 20.2166 17.9506 19.895 18.2121C19.4009 18.6139 19.0875 19.1972 19.1228 19.9246C19.1583 20.6554 19.523 21.1457 20.0308 21.4771C20.4734 21.766 21.017 21.9156 21.5183 21.9978C21.9208 22.0639 22.3507 22.1684 22.6773 22.3656C22.9385 22.5232 23.1347 22.7537 23.1766 23.0991C23.1822 23.1451 23.1852 23.1786 23.1857 23.1999C23.1922 23.4745 23.0608 23.6838 22.8635 23.8335C22.6166 24.0208 22.2698 24.1313 21.923 24.1734C21.8285 24.1849 21.746 24.1914 21.6761 24.193L21.6494 24.1935C21.6337 24.1922 21.6179 24.1915 21.602 24.1915C21.5885 24.1913 21.5752 24.1919 21.562 24.1928ZM18.8662 9.5029L17.8125 8.4492C17.3191 7.95577 17.3191 7.14837 17.8125 6.655C18.2322 6.2353 18.8965 6.16442 19.3959 6.48492C19.5814 6.60395 19.7944 6.62295 19.9979 6.53869C20.2015 6.45438 20.3386 6.29041 20.3856 6.07502C20.51 5.5055 21.0199 5.07564 21.6254 5.07552C22.2199 5.07552 22.7385 5.49462 22.8652 6.07502C22.9122 6.29041 23.0494 6.45438 23.2529 6.53869C23.4565 6.62307 23.6695 6.60395 23.8549 6.48492C24.3455 6.17004 25.0101 6.22684 25.4382 6.65488V6.655C25.9317 7.14843 25.9317 7.95583 25.4382 8.4492L24.3845 9.5029L24.3793 9.50284H18.8714L18.8662 9.5029Z" fill="white"/>
</svg>
