<svg width="32" height="28" viewBox="0 0 32 28" fill="none" xmlns="http://www.w3.org/2000/svg">
<path fill-rule="evenodd" clip-rule="evenodd" d="M31.3288 6.50758V9.53002H30.5205V6.80018L31.3288 6.50758ZM29.8493 14.6487H32L31.4429 10.3141H30.4064L29.8493 14.6487ZM20.7086 16.1868C17.9229 13.4845 13.406 13.4845 10.6203 16.1868C7.82956 18.894 7.83899 23.2752 10.6203 25.9732C13.6716 28.9332 18.7131 28.6021 21.329 25.2867C23.5038 22.5305 23.2385 18.6411 20.7086 16.1868ZM19.1589 27.9999C20.2035 27.5026 21.1202 26.7891 21.8469 25.916H25.5238C25.8188 25.916 26.0873 26.0333 26.2821 26.2223C26.9646 26.8844 26.4654 27.9999 25.5238 27.9999H19.1589ZM25.5238 25.1318H22.4202C22.8281 24.4933 23.1424 23.7926 23.3447 23.0479H25.5238C25.8187 23.0479 26.0872 23.1652 26.2821 23.3542C26.9647 24.0164 26.4652 25.1319 25.5238 25.1319L25.5238 25.1318ZM25.5238 22.2637C26.4654 22.2637 26.9647 21.1482 26.2821 20.4861C26.0873 20.2971 25.8188 20.1798 25.5238 20.1798H23.5525C23.6357 20.8723 23.6221 21.5776 23.513 22.2637H25.5238ZM9.48202 25.916C10.2084 26.7891 11.1257 27.5028 12.17 28H5.80508C5.51012 28 5.24162 27.8826 5.04675 27.6936C4.36427 27.0316 4.86354 25.916 5.80508 25.916H9.48202ZM7.98422 23.0479C8.1865 23.7927 8.5008 24.4934 8.90866 25.1319H5.80508C5.51012 25.1319 5.24162 25.0145 5.04675 24.8255C4.36414 24.1633 4.86367 23.0479 5.80508 23.0479H7.98429H7.98422ZM7.77635 20.1798H5.80508C4.86367 20.1798 4.36414 21.2952 5.04675 21.9574C5.24162 22.1464 5.51012 22.2638 5.80508 22.2638H7.81596C7.70677 21.5773 7.69316 20.8726 7.77635 20.1798ZM23.9319 8.34848L31.3288 5.67073L15.6643 0L0 5.67066L15.6644 11.3413L23.9319 8.34842L23.9319 8.34848ZM25.1425 8.74401V15.6717C25.1425 15.6781 24.8875 15.7502 24.4336 15.8732C23.8287 16.0371 22.9576 16.182 21.8916 16.2984C18.7098 12.4047 12.6191 12.4047 9.43729 16.2984C8.3712 16.1819 7.50011 16.037 6.89529 15.8732C6.44136 15.7502 6.1864 15.6781 6.1864 15.6717V8.74401L15.5239 12.1243C15.6114 12.1559 15.7106 12.1584 15.805 12.1243L25.1425 8.74401ZM16.0685 25.4105C16.0685 25.627 15.8876 25.8025 15.6644 25.8025C15.4412 25.8025 15.2602 25.627 15.2602 25.4105V24.6966C14.144 24.5383 13.187 23.7032 13.187 22.5937C13.187 22.3771 13.368 22.2016 13.5912 22.2016C13.8144 22.2016 13.9954 22.3771 13.9954 22.5937C13.9954 23.7984 15.8247 24.402 16.8666 23.5279C17.1549 23.286 17.3333 22.9555 17.3333 22.5937C17.3333 20.4914 13.456 22.049 13.456 19.3409C13.456 18.365 14.2831 17.624 15.2601 17.4673V16.7498C15.2601 16.5332 15.441 16.3577 15.6642 16.3577C15.8875 16.3577 16.0684 16.5332 16.0684 16.7498V17.4673C17.0453 17.6239 17.8726 18.3649 17.8726 19.3409C17.8726 19.5574 17.6916 19.7329 17.4684 19.7329C17.2452 19.7329 17.0642 19.5574 17.0642 19.3409C17.0642 18.3368 15.525 17.8339 14.6522 18.5662C14.4126 18.7673 14.2643 19.0414 14.2643 19.3409C14.2643 21.1805 18.1416 19.6988 18.1416 22.5937C18.1416 23.7032 17.1847 24.5383 16.0684 24.6966V25.4105H16.0685Z" fill="white"/>
</svg>
