<svg width="27" height="28" viewBox="0 0 27 28" fill="none" xmlns="http://www.w3.org/2000/svg">
<path d="M7.125 28H1.875C1.392 28 1 27.608 1 27.125V21.875C1 21.392 1.392 21 1.875 21H7.125C7.608 21 8 21.392 8 21.875V27.125C8 27.608 7.608 28 7.125 28Z" fill="white"/>
<path d="M17.125 28H11.875C11.392 28 11 27.6335 11 27.1818V16.8182C11 16.3665 11.392 16 11.875 16H17.125C17.608 16 18 16.3665 18 16.8182V27.1818C18 27.6335 17.608 28 17.125 28Z" fill="white"/>
<path d="M26.125 28H20.875C20.392 28 20 27.601 20 27.1094V9.89062C20 9.399 20.392 9 20.875 9H26.125C26.608 9 27 9.399 27 9.89062V27.1094C27 27.601 26.608 28 26.125 28Z" fill="white"/>
<path d="M16.8241 0.165745C16.7081 0.0576533 16.537 -0.004274 16.3899 0.000229803C13.008 0.0599052 9.06265 1.91772 6.55764 4.61663C3.84686 4.70783 1.58589 5.47686 0.175474 6.80435C0.0223503 6.94848 -0.0362674 7.15903 0.0223504 7.35494C0.0809682 7.55086 0.247251 7.70174 0.458993 7.75015L3.00588 8.32439L2.99033 8.34015C2.77739 8.56196 2.78696 8.90313 3.01186 9.11481L7.31488 13.1649C7.43092 13.2752 7.58405 13.3292 7.73837 13.3292C7.88192 13.3292 8.02428 13.282 8.13793 13.1851L8.15467 13.1705L8.76478 15.5676C8.81502 15.7658 8.97532 15.9234 9.18467 15.9786C9.23851 15.9932 9.29234 16 9.34737 16C9.50408 16 9.65601 15.9426 9.77085 15.8356C11.1825 14.507 11.9983 12.3789 12.0952 9.82753C14.9663 7.46191 16.9366 3.75303 17 0.573339C17.0012 0.421336 16.939 0.273836 16.8241 0.165745Z" fill="white"/>
</svg>
