<svg width="16" height="16" viewBox="0 0 16 16" fill="none" xmlns="http://www.w3.org/2000/svg">
<path d="M7.99994 15.9996C6.67156 15.9997 5.36409 15.6689 4.19553 15.0372C3.02697 14.4055 2.0341 13.4927 1.30656 12.3813C0.579008 11.2699 0.139676 9.99476 0.0282136 8.67107C-0.0832485 7.34737 0.136668 6.01676 0.668113 4.79932C1.19956 3.58188 2.0258 2.51595 3.07227 1.69772C4.11874 0.879501 5.35249 0.334746 6.66217 0.112628C7.97185 -0.10949 9.31622 -0.00197805 10.5739 0.42546C11.8317 0.852897 12.9632 1.58681 13.8663 2.56094C13.9134 2.60861 13.9504 2.66524 13.9751 2.72749C13.9999 2.78973 14.0119 2.85632 14.0104 2.92328C14.0089 2.99025 13.994 3.05624 13.9665 3.11733C13.939 3.17842 13.8995 3.23336 13.8504 3.2789C13.8013 3.32444 13.7435 3.35964 13.6805 3.38242C13.6175 3.4052 13.5506 3.41508 13.4837 3.4115C13.4168 3.40791 13.3514 3.39092 13.2912 3.36153C13.231 3.33214 13.1773 3.29096 13.1333 3.24043C12.0246 2.04447 10.5332 1.27315 8.9164 1.05964C7.29964 0.846123 5.65907 1.20381 4.27792 2.07096C2.89678 2.9381 1.86174 4.26027 1.35152 5.80919C0.841294 7.35812 0.887901 9.03658 1.48329 10.5548C2.07868 12.073 3.18549 13.3357 4.61263 14.1249C6.03977 14.9141 7.69766 15.1802 9.30008 14.8773C10.9025 14.5744 12.3489 13.7215 13.3895 12.4658C14.4301 11.2102 14.9996 9.63061 14.9998 7.99982C14.9998 7.86721 15.0525 7.74004 15.1462 7.64627C15.24 7.55251 15.3672 7.49983 15.4998 7.49983C15.6324 7.49983 15.7595 7.55251 15.8533 7.64627C15.9471 7.74004 15.9998 7.86721 15.9998 7.99982C15.9972 10.1207 15.1536 12.154 13.6539 13.6538C12.1542 15.1535 10.1209 15.9971 7.99994 15.9996Z" fill="black"/>
<path d="M13.5 3.49992C13.3674 3.49992 13.2402 3.44724 13.1464 3.35348C13.0527 3.25971 13 3.13254 13 2.99993V0.499988C13 0.367383 13.0527 0.240209 13.1464 0.146443C13.2402 0.0526772 13.3674 0 13.5 0C13.6326 0 13.7598 0.0526772 13.8535 0.146443C13.9473 0.240209 14 0.367383 14 0.499988V2.99993C14 3.13254 13.9473 3.25971 13.8535 3.35348C13.7598 3.44724 13.6326 3.49992 13.5 3.49992Z" fill="black"/>
<path d="M13.5 3.49998H11C10.8674 3.49998 10.7403 3.4473 10.6465 3.35353C10.5527 3.25977 10.5001 3.13259 10.5001 2.99999C10.5001 2.86738 10.5527 2.74021 10.6465 2.64644C10.7403 2.55268 10.8674 2.5 11 2.5H13.5C13.6326 2.5 13.7598 2.55268 13.8535 2.64644C13.9473 2.74021 14 2.86738 14 2.99999C14 3.13259 13.9473 3.25977 13.8535 3.35353C13.7598 3.4473 13.6326 3.49998 13.5 3.49998Z" fill="black"/>
</svg>
