<svg width="50" height="51" viewBox="0 0 50 51" fill="none" xmlns="http://www.w3.org/2000/svg">
<path d="M47.9468 33.1211C47.6057 32.6044 47.0343 32.2969 46.416 32.2969H39.1757C38.5532 32.2969 37.9733 32.6172 37.6236 33.1596C34.852 37.4987 30.1317 40.0868 25.0021 40.0868C19.8725 40.0868 15.1565 37.4987 12.3848 33.1596C12.0395 32.6215 11.4638 32.2969 10.8327 32.2969H3.58814C2.96986 32.2969 2.39848 32.6044 2.05736 33.1211C1.7205 33.6251 1.66507 34.2614 1.89532 34.8166C5.82249 44.1526 14.8921 50.1872 24.9978 50.1872C35.1036 50.1872 44.1774 44.1526 48.1046 34.8166C48.3391 34.2614 48.2794 33.6251 47.9426 33.1211" fill="#EE3824"/>
<path d="M24.9957 0C11.2101 0 0 11.2322 0 25.0396C0 25.723 0.0341174 26.3935 0.0852858 27.064L0.144975 27.7858H49.8635L49.919 27.0597C49.9701 26.3935 50 25.723 50 25.0396C50 11.2322 38.7856 0 25 0M38.0565 18.2875H11.9393C14.4508 13.4145 19.4525 10.3268 24.9957 10.3268C30.539 10.3268 35.5449 13.4145 38.0565 18.2875Z" fill="#17479E"/>
</svg>
