<svg width="13" height="13" viewBox="0 0 13 13" fill="none" xmlns="http://www.w3.org/2000/svg">
<path d="M6.22356 7.99524C5.10901 7.07863 4.36481 5.94756 3.97357 5.30399L3.68172 4.75371C3.78377 4.6442 4.56194 3.81079 4.89916 3.35861C5.32294 2.7908 4.70852 2.27798 4.70852 2.27798C4.70852 2.27798 2.97966 0.548607 2.58566 0.205566C2.19165 -0.137955 1.7381 0.0528369 1.7381 0.0528369C0.909987 0.58799 0.0515036 1.05326 1.73848e-06 3.29089C-0.00191908 5.38588 1.58815 7.54666 3.30764 9.21948C5.02989 11.1087 7.39454 13.0022 9.68066 13C11.9177 12.949 12.3828 12.0905 12.9178 11.2622C12.9178 11.2622 13.1087 10.809 12.7656 10.4145C12.4223 10.0202 10.6929 8.29074 10.6929 8.29074C10.6929 8.29074 10.1806 7.67609 9.61272 8.1003C9.18954 8.41669 8.42961 9.12042 8.24654 9.29104C8.2469 9.29164 6.97568 8.61384 6.22356 7.99524Z" fill="#F30000"/>
</svg>
