<svg width="15" height="15" viewBox="0 0 15 15" fill="none" xmlns="http://www.w3.org/2000/svg">
<g clip-path="url(#clip0_675_52413)">
<path d="M3.76076 7.95703H3.08807C2.91161 7.95703 2.7523 8.06209 2.6825 8.22391L0.820312 12.56L5.24277 10.3012C4.71336 9.5687 4.18957 8.76075 3.76076 7.95703Z" fill="#F30000"/>
<path d="M12.3165 8.22391C12.2468 8.06209 12.0874 7.95703 11.911 7.95703H11.2383C10.4285 9.47452 9.24877 11.0427 8.49827 11.9055C7.97047 12.5109 7.0277 12.5102 6.5007 11.9055C6.4468 11.8436 6.16539 11.5177 5.77778 11.0167L4.98047 11.4241L7.99645 14.4343L13.7112 11.4716L12.3165 8.22391Z" fill="#F30000"/>
<path d="M0.276602 13.827L0.0360474 14.3872C-0.0884644 14.6771 0.124854 15.0008 0.441512 15.0008H6.91761C6.95812 14.9707 6.95858 14.9726 7.17602 14.8598L4.15558 11.8457L0.276602 13.827Z" fill="#F30000"/>
<path d="M14.9623 14.3854L14.0587 12.2812L8.81641 14.999H14.5569C14.8728 14.999 15.0871 14.6758 14.9623 14.3854Z" fill="#F30000"/>
<path d="M7.94093 3.96369C7.94093 3.72085 7.74295 3.52344 7.49976 3.52344C7.25646 3.52344 7.05859 3.72085 7.05859 3.96369C7.05859 4.20642 7.25646 4.40395 7.49976 4.40395C7.74295 4.40395 7.94093 4.20642 7.94093 3.96369Z" fill="#F30000"/>
<path d="M7.83457 11.2974C7.98312 11.1269 11.4721 7.091 11.4721 4.31672C11.4721 -1.40395 3.53125 -1.47376 3.53125 4.31672C3.53125 7.091 7.02021 11.1269 7.16876 11.2974C7.34465 11.4991 7.65902 11.4989 7.83457 11.2974ZM6.17815 3.96459C6.17815 3.23629 6.77187 2.64383 7.50166 2.64383C8.23134 2.64383 8.82506 3.23629 8.82506 3.96459C8.82506 4.69278 8.23134 5.28524 7.50166 5.28524C6.77187 5.28524 6.17815 4.69278 6.17815 3.96459Z" fill="#F30000"/>
</g>
<defs>
<clipPath id="clip0_675_52413">
<rect width="15" height="15" fill="white"/>
</clipPath>
</defs>
</svg>
