<svg width="20" height="20" viewBox="0 0 20 20" fill="none" xmlns="http://www.w3.org/2000/svg">
<path d="M9.99609 0C4.47344 0 -0.00390625 4.47734 -0.00390625 10C-0.00390625 15.5227 4.47344 20 9.99609 20C15.5188 20 19.9961 15.5227 19.9961 10C19.9961 4.47734 15.5188 0 9.99609 0ZM15.7383 10.2852L12.3152 13.7375C12.2782 13.7769 12.2336 13.8085 12.1841 13.8304C12.1346 13.8523 12.0813 13.8641 12.0272 13.8651C11.9731 13.866 11.9193 13.8561 11.8691 13.8359C11.8189 13.8158 11.7732 13.7858 11.7348 13.7477C11.6964 13.7096 11.666 13.6641 11.6454 13.6141C11.6249 13.564 11.6145 13.5104 11.615 13.4563C11.6155 13.4022 11.6269 13.3487 11.6484 13.2991C11.6699 13.2494 11.7011 13.2046 11.7402 13.1672L14.4793 10.4051H4.5418C4.43436 10.4051 4.33133 10.3624 4.25536 10.2864C4.1794 10.2105 4.13672 10.1074 4.13672 10C4.13672 9.89257 4.1794 9.78953 4.25536 9.71357C4.33133 9.6376 4.43436 9.59492 4.5418 9.59492H14.4789L11.7398 6.83281C11.7007 6.79543 11.6695 6.75059 11.648 6.70094C11.6265 6.65128 11.6151 6.59783 11.6146 6.54372C11.6141 6.48961 11.6245 6.43595 11.645 6.38591C11.6656 6.33586 11.696 6.29045 11.7344 6.25234C11.7729 6.21424 11.8185 6.18422 11.8687 6.16405C11.9189 6.14388 11.9727 6.13398 12.0268 6.13493C12.0809 6.13588 12.1342 6.14765 12.1837 6.16956C12.2332 6.19147 12.2778 6.22307 12.3148 6.2625L15.7383 9.71484C15.8136 9.79065 15.8558 9.89316 15.8558 10C15.8558 10.1068 15.8136 10.2093 15.7383 10.2852Z" fill="#EE3824"/>
</svg>
