<svg width="30" height="29" viewBox="0 0 30 29" fill="none" xmlns="http://www.w3.org/2000/svg">
<path d="M28.9614 25.13L27.4498 23.63C27.3523 23.5419 27.2239 23.4952 27.0921 23.5H24.5728V21C24.5732 20.9342 24.5605 20.869 24.5354 20.8081C24.5103 20.7471 24.4734 20.6917 24.4267 20.645L22.9151 19.145C22.868 19.0987 22.8122 19.062 22.7508 19.0371C22.6894 19.0122 22.6237 18.9996 22.5574 19H20.0381V16.5C20.0385 16.4342 20.0258 16.369 20.0007 16.3081C19.9756 16.2471 19.9387 16.1917 19.892 16.145L18.3804 14.645C18.3333 14.5987 18.2775 14.562 18.2161 14.5371C18.1547 14.5122 18.089 14.4996 18.0227 14.5H11.9764C11.9101 14.4996 11.8444 14.5122 11.783 14.5371C11.7216 14.562 11.6658 14.5987 11.6187 14.645L10.1071 16.145C10.0604 16.1917 10.0235 16.2471 9.9984 16.3081C9.97333 16.369 9.96062 16.4342 9.961 16.5V19H7.44173C7.37542 18.9996 7.30968 19.0122 7.24829 19.0371C7.18691 19.062 7.13107 19.0987 7.08399 19.145L5.57243 20.645C5.52573 20.6917 5.48878 20.7471 5.46371 20.8081C5.43863 20.869 5.42592 20.9342 5.42631 21V23.5H2.90703C2.84072 23.4996 2.77499 23.5122 2.7136 23.5371C2.65221 23.562 2.59637 23.5987 2.54929 23.645L1.03773 25.145C0.99103 25.1917 0.954085 25.2471 0.929011 25.308C0.903936 25.369 0.891227 25.4342 0.89161 25.5V28.5C0.89161 28.6326 0.944695 28.7598 1.03919 28.8536C1.13368 28.9473 1.26183 29 1.39547 29H28.6036C28.7373 29 28.8654 28.9473 28.9599 28.8536C29.0544 28.7598 29.1075 28.6326 29.1075 28.5V25.5C29.1099 25.4317 29.0982 25.3636 29.0731 25.3C29.0479 25.2363 29.0099 25.1785 28.9614 25.13ZM23.5651 21.19V23.5H15.5034V21.19L16.7177 20H22.3508L23.5651 21.19ZM19.5343 24.775L19.237 24.5H19.8315L19.5343 24.775ZM14.9996 20.275L14.7023 20H15.2968L14.9996 20.275ZM10.9687 16.69L12.183 15.5H17.8161L19.0304 16.69V19H10.9687V16.69ZM6.43402 21.19L7.64831 20H13.2814L14.4957 21.19V23.5H6.43402V21.19ZM10.4649 24.775L10.1676 24.5H10.7621L10.4649 24.775ZM1.89932 25.69L3.11361 24.5H8.74671L9.961 25.69V28H1.89932V25.69ZM10.9687 25.69L12.183 24.5H17.8161L19.0304 25.69V28H10.9687V25.69ZM28.0998 28H20.0381V25.69L21.2524 24.5H26.8855L28.0998 25.69V28Z" fill="white"/>
<path d="M14.9993 11.3649C15.8519 11.3649 16.6853 11.1235 17.3942 10.6714C18.1032 10.2192 18.6557 9.57658 18.982 8.82469C19.3082 8.07279 19.3936 7.24543 19.2273 6.44723C19.0609 5.64902 18.6504 4.91582 18.0475 4.34035C17.4446 3.76488 16.6765 3.37297 15.8403 3.2142C15.0041 3.05543 14.1373 3.13691 13.3496 3.44836C12.5619 3.7598 11.8887 4.28722 11.415 4.9639C10.9413 5.64059 10.6885 6.43615 10.6885 7.25C10.6898 8.34093 11.1444 9.38682 11.9526 10.1582C12.7607 10.9296 13.8564 11.3636 14.9993 11.3649ZM14.9993 4.10334C15.6513 4.10334 16.2886 4.28789 16.8307 4.63364C17.3728 4.9794 17.7954 5.47085 18.0449 6.04582C18.2944 6.6208 18.3596 7.25349 18.2324 7.86388C18.1052 8.47427 17.7913 9.03495 17.3303 9.47502C16.8692 9.91509 16.2819 10.2148 15.6424 10.3362C15.0029 10.4576 14.3401 10.3953 13.7378 10.1571C13.1354 9.91897 12.6206 9.51565 12.2583 8.99819C11.8961 8.48072 11.7028 7.87235 11.7028 7.25C11.7041 6.41584 12.0519 5.61622 12.6698 5.02639C13.2877 4.43655 14.1254 4.10462 14.9993 4.10334Z" fill="white"/>
<path d="M14.9998 13.7162C16.2399 13.7162 17.4522 13.337 18.4833 12.6265C19.5145 11.916 20.3182 10.9061 20.7927 9.72454C21.2673 8.543 21.3915 7.24286 21.1495 5.98853C20.9076 4.73421 20.3104 3.58204 19.4335 2.67773C18.5566 1.77341 17.4393 1.15756 16.223 0.908063C15.0067 0.658563 13.746 0.786615 12.6002 1.27603C11.4545 1.76544 10.4752 2.59423 9.78622 3.65759C9.09724 4.72096 8.72949 5.97113 8.72949 7.25003C8.73215 8.96414 9.39361 10.6073 10.5689 11.8193C11.7443 13.0314 13.3376 13.7135 14.9998 13.7162ZM14.9998 1.81841C16.0415 1.81841 17.0598 2.13697 17.926 2.7338C18.7921 3.33064 19.4672 4.17894 19.8659 5.17144C20.2645 6.16394 20.3688 7.25606 20.1656 8.30969C19.9624 9.36332 19.4607 10.3311 18.7241 11.0908C17.9875 11.8504 17.049 12.3677 16.0273 12.5773C15.0056 12.7869 13.9466 12.6793 12.9842 12.2682C12.0217 11.8571 11.1991 11.1609 10.6204 10.2677C10.0416 9.37445 9.73274 8.3243 9.73274 7.25003C9.73406 5.8099 10.2894 4.42914 11.2769 3.41081C12.2643 2.39248 13.6033 1.81978 14.9998 1.81841Z" fill="white"/>
<path d="M15.1854 8.26438H13.9343C13.8016 8.26438 13.6743 8.31821 13.5804 8.41404C13.4866 8.50987 13.4339 8.63984 13.4339 8.77537C13.4339 8.91089 13.4866 9.04087 13.5804 9.13669C13.6743 9.23252 13.8016 9.28636 13.9343 9.28636H14.4347C14.4347 9.42188 14.4874 9.55186 14.5813 9.64769C14.6751 9.74352 14.8024 9.79735 14.9351 9.79735C15.0679 9.79735 15.1951 9.74352 15.289 9.64769C15.3828 9.55186 15.4356 9.42188 15.4356 9.28636C15.7674 9.25248 16.0724 9.0854 16.2835 8.82186C16.4947 8.55833 16.5947 8.21994 16.5615 7.88113C16.5283 7.54232 16.3647 7.23085 16.1066 7.01523C15.8485 6.79962 15.5172 6.69752 15.1854 6.7314H14.6849C14.6211 6.73152 14.5596 6.70671 14.5131 6.66206C14.4666 6.61742 14.4385 6.5563 14.4347 6.49123C14.4347 6.42347 14.4611 6.35848 14.508 6.31057C14.5549 6.26265 14.6186 6.23574 14.6849 6.23574H15.936C16.0687 6.23574 16.196 6.1819 16.2898 6.08607C16.3837 5.99024 16.4364 5.86027 16.4364 5.72474C16.4364 5.58922 16.3837 5.45925 16.2898 5.36342C16.196 5.26759 16.0687 5.21375 15.936 5.21375H15.4356C15.4356 5.07823 15.3828 4.94825 15.289 4.85243C15.1951 4.7566 15.0679 4.70276 14.9351 4.70276C14.8024 4.70276 14.6751 4.7566 14.5813 4.85243C14.4874 4.94825 14.4347 5.07823 14.4347 5.21375C14.1307 5.27679 13.8604 5.45295 13.6764 5.70802C13.4924 5.96308 13.4078 6.27887 13.439 6.59407C13.4701 6.90927 13.6149 7.20139 13.8451 7.41373C14.0754 7.62607 14.3747 7.74348 14.6849 7.74316H15.1854C15.2517 7.74316 15.3154 7.77008 15.3623 7.818C15.4092 7.86591 15.4356 7.9309 15.4356 7.99866C15.4369 8.03306 15.4314 8.06739 15.4195 8.09958C15.4075 8.13176 15.3893 8.16115 15.3659 8.18597C15.3425 8.21079 15.3145 8.23052 15.2835 8.244C15.2524 8.25747 15.2191 8.2644 15.1854 8.26438Z" fill="white"/>
<path d="M22.994 7.83779H24.6399C24.7854 7.83779 24.925 7.77585 25.0279 7.66561C25.1308 7.55537 25.1886 7.40585 25.1886 7.24995C25.1886 7.09404 25.1308 6.94452 25.0279 6.83428C24.925 6.72404 24.7854 6.66211 24.6399 6.66211H22.994C22.8485 6.66211 22.7089 6.72404 22.606 6.83428C22.5031 6.94452 22.4453 7.09404 22.4453 7.24995C22.4453 7.40585 22.5031 7.55537 22.606 7.66561C22.7089 7.77585 22.8485 7.83779 22.994 7.83779Z" fill="white"/>
<path d="M20.6561 1.95946C20.8027 1.95772 20.9428 1.90887 21.047 1.82318L22.248 0.82689C22.3074 0.784761 22.3555 0.732917 22.3895 0.674613C22.4235 0.61631 22.4426 0.552805 22.4457 0.488084C22.4487 0.423364 22.4355 0.358825 22.407 0.298519C22.3786 0.238213 22.3354 0.183442 22.2801 0.137644C22.2249 0.0918455 22.1589 0.0560084 22.0862 0.0323821C22.0135 0.00875574 21.9357 -0.00214968 21.8577 0.000350197C21.7796 0.00285007 21.7031 0.0187013 21.6328 0.046909C21.5625 0.0751167 21.5 0.115072 21.4492 0.164266L20.2595 1.16055C20.154 1.2486 20.0947 1.36771 20.0947 1.49186C20.0947 1.61602 20.154 1.73512 20.2595 1.82318C20.365 1.90999 20.5074 1.95894 20.6561 1.95946Z" fill="white"/>
<path d="M8.93711 1.82088C9.04374 1.90964 9.18799 1.95946 9.33834 1.95946C9.48869 1.95946 9.63294 1.90964 9.73957 1.82088C9.84557 1.73158 9.90506 1.6108 9.90506 1.48489C9.90506 1.35899 9.84557 1.2382 9.73957 1.14891L8.52166 0.138583C8.41503 0.0498215 8.27078 0 8.12043 0C7.97008 0 7.82584 0.0498215 7.71921 0.138583C7.61321 0.227875 7.55371 0.348662 7.55371 0.474565C7.55371 0.600468 7.61321 0.721256 7.71921 0.810547L8.93711 1.82088Z" fill="white"/>
<path d="M5.3592 7.83779H7.00514C7.15065 7.83779 7.2902 7.77585 7.39309 7.66561C7.49599 7.55537 7.55379 7.40585 7.55379 7.24995C7.55379 7.09404 7.49599 6.94452 7.39309 6.83428C7.2902 6.72404 7.15065 6.66211 7.00514 6.66211H5.3592C5.21368 6.66211 5.07413 6.72404 4.97124 6.83428C4.86835 6.94452 4.81055 7.09404 4.81055 7.24995C4.81055 7.40585 4.86835 7.55537 4.97124 7.66561C5.07413 7.77585 5.21368 7.83779 5.3592 7.83779Z" fill="white"/>
<path d="M8.11754 14.5C8.1928 14.5003 8.26741 14.4883 8.33708 14.4647C8.40676 14.441 8.47013 14.4062 8.52356 14.3621L9.73591 13.354C9.78951 13.3098 9.83205 13.2572 9.86108 13.1993C9.89011 13.1413 9.90506 13.0792 9.90506 13.0164C9.90506 12.9536 9.89011 12.8915 9.86108 12.8335C9.83205 12.7756 9.78951 12.723 9.73591 12.6788C9.62876 12.5902 9.48382 12.5405 9.33274 12.5405C9.18167 12.5405 9.03673 12.5902 8.92958 12.6788L7.71724 13.6916C7.63887 13.7581 7.58568 13.8422 7.56427 13.9336C7.54286 14.0249 7.55416 14.1195 7.59678 14.2056C7.63941 14.2916 7.71147 14.3654 7.80404 14.4177C7.89661 14.4701 8.00561 14.4987 8.11754 14.5Z" fill="white"/>
<path d="M21.0691 12.6788C20.962 12.5902 20.8173 12.5405 20.6664 12.5405C20.5155 12.5405 20.3707 12.5902 20.2637 12.6788C20.2101 12.723 20.1677 12.7756 20.1387 12.8335C20.1097 12.8914 20.0947 12.9536 20.0947 13.0163C20.0947 13.0791 20.1097 13.1412 20.1387 13.1992C20.1677 13.2571 20.2101 13.3097 20.2637 13.3539L21.4746 14.3617C21.5816 14.4503 21.7264 14.5 21.8773 14.5C22.0282 14.5 22.173 14.4503 22.28 14.3617C22.3864 14.2727 22.4461 14.1522 22.4461 14.0266C22.4461 13.901 22.3864 13.7805 22.28 13.6914L21.0691 12.6788Z" fill="white"/>
</svg>
