<svg width="19" height="23" viewBox="0 0 19 23" fill="none" xmlns="http://www.w3.org/2000/svg">
<path d="M1.40422 7.23242H1.3491C0.64252 7.23242 0.0664062 7.82824 0.0664062 8.55479V14.3122C0.0664062 15.0416 0.64252 15.6355 1.3491 15.6355H1.40516C2.11175 15.6355 2.68786 15.0396 2.68786 14.3122V8.55475C2.68692 7.82824 2.10992 7.23242 1.40422 7.23242Z" fill="#17479E"/>
<path d="M3.30078 16.5341C3.30078 17.2029 3.83093 17.7475 4.47963 17.7475H5.73937V20.8574C5.73937 21.5877 6.31731 22.1816 7.02207 22.1816H7.07719C7.78471 22.1816 8.36172 21.5868 8.36172 20.8574V17.7475H10.1222V20.8574C10.1222 21.5877 10.702 22.1816 11.4067 22.1816H11.461C12.1685 22.1816 12.7446 21.5868 12.7446 20.8574V17.7475H14.0052C14.653 17.7475 15.1832 17.2029 15.1832 16.5341V7.44336H3.30078V16.5341Z" fill="#17479E"/>
<path d="M12.202 1.93144L13.2026 0.339133C13.2669 0.238703 13.2384 0.101385 13.1401 0.0359978C13.0427 -0.0303117 12.9095 -0.00282183 12.8461 0.100419L11.8087 1.7477C11.0305 1.41901 10.1613 1.23431 9.24333 1.23431C8.32449 1.23431 7.4571 1.41901 6.67704 1.7477L5.64152 0.100419C5.57814 -0.00282183 5.44396 -0.0303117 5.34565 0.0359978C5.24734 0.101341 5.21884 0.238703 5.28316 0.339133L6.28468 1.93144C4.47916 2.84366 3.26172 4.56292 3.26172 6.53507C3.26172 6.65632 3.26909 6.77568 3.27918 6.89407H15.2084C15.2185 6.77568 15.2249 6.65632 15.2249 6.53507C15.2249 4.56292 14.0066 2.84366 12.202 1.93144ZM6.47764 4.78266C6.16064 4.78266 5.90336 4.51931 5.90336 4.19158C5.90336 3.86386 6.16064 3.60143 6.47764 3.60143C6.79648 3.60143 7.05193 3.86381 7.05193 4.19158C7.05193 4.51935 6.79465 4.78266 6.47764 4.78266ZM12.0081 4.78266C11.6911 4.78266 11.4338 4.51931 11.4338 4.19158C11.4338 3.86386 11.6911 3.60143 12.0081 3.60143C12.326 3.60143 12.5815 3.86381 12.5815 4.19158C12.5815 4.51931 12.326 4.78266 12.0081 4.78266Z" fill="#17479E"/>
<path d="M17.1347 7.23242H17.0814C16.3748 7.23242 15.7969 7.82824 15.7969 8.55479V14.3122C15.7969 15.0416 16.3758 15.6355 17.0814 15.6355H17.1356C17.8431 15.6355 18.4183 15.0396 18.4183 14.3122V8.55475C18.4183 7.82824 17.8413 7.23242 17.1347 7.23242Z" fill="#17479E"/>
</svg>
