<svg width="28" height="23" viewBox="0 0 28 23" fill="none" xmlns="http://www.w3.org/2000/svg">
<path d="M20.7834 5.66173C20.4053 4.15004 19.5329 2.80804 18.3049 1.8488C17.0768 0.889566 15.5635 0.368093 14.0053 0.367189C12.447 0.366284 10.9331 0.885999 9.70394 1.84381C8.47479 2.80162 7.60087 4.14261 7.22094 5.65385C5.42879 5.82204 3.77031 6.67415 2.58999 8.03317C1.40968 9.39219 0.79825 11.1537 0.882718 12.9517C0.967186 14.7497 1.74106 16.4461 3.04358 17.6885C4.3461 18.9309 6.07716 19.6238 7.87719 19.6232H10.5022C10.7343 19.6232 10.9568 19.531 11.1209 19.3669C11.285 19.2029 11.3772 18.9803 11.3772 18.7482C11.3772 18.5162 11.285 18.2936 11.1209 18.1295C10.9568 17.9654 10.7343 17.8732 10.5022 17.8732H7.87719C7.18775 17.8752 6.50466 17.7414 5.86693 17.4795C5.2292 17.2175 4.64932 16.8324 4.16039 16.3464C3.17295 15.3647 2.61594 14.0309 2.61187 12.6385C2.60781 11.2462 3.15704 9.90918 4.13874 8.92174C5.12043 7.9343 6.45418 7.37729 7.84656 7.37323C8.07108 7.39013 8.29387 7.32303 8.47172 7.18496C8.64956 7.04689 8.76978 6.84768 8.80906 6.62598C8.98723 5.37653 9.6102 4.23331 10.5635 3.40627C11.5169 2.57923 12.7366 2.1239 13.9987 2.1239C15.2608 2.1239 16.4805 2.57923 17.4338 3.40627C18.3872 4.23331 19.0101 5.37653 19.1883 6.62598C19.2341 6.83998 19.3527 7.03146 19.5239 7.16774C19.6952 7.30402 19.9084 7.37665 20.1272 7.37323C21.5196 7.37323 22.8549 7.92635 23.8395 8.91092C24.8241 9.89548 25.3772 11.2308 25.3772 12.6232C25.3772 14.0156 24.8241 15.351 23.8395 16.3355C22.8549 17.3201 21.5196 17.8732 20.1272 17.8732H17.5022C17.2701 17.8732 17.0476 17.9654 16.8835 18.1295C16.7194 18.2936 16.6272 18.5162 16.6272 18.7482C16.6272 18.9803 16.7194 19.2029 16.8835 19.3669C17.0476 19.531 17.2701 19.6232 17.5022 19.6232H20.1272C21.914 19.6045 23.6261 18.9032 24.9125 17.6629C26.1989 16.4226 26.9623 14.7373 27.0462 12.9523C27.1301 11.1673 26.5282 9.4178 25.3638 8.06231C24.1994 6.70681 22.5607 5.84795 20.7834 5.66173Z" fill="#17479E"/>
<path d="M17.7612 13.2434C17.9263 13.4028 18.1473 13.491 18.3767 13.489C18.6061 13.487 18.8256 13.395 18.9878 13.2328C19.1501 13.0705 19.2421 12.8511 19.2441 12.6217C19.2461 12.3922 19.1579 12.1712 18.9985 12.0062L14.6235 7.63119C14.4594 7.46715 14.2369 7.375 14.0049 7.375C13.7729 7.375 13.5503 7.46715 13.3862 7.63119L9.01125 12.0062C8.85186 12.1712 8.76366 12.3922 8.76566 12.6217C8.76765 12.8511 8.85967 13.0705 9.02191 13.2328C9.18414 13.395 9.4036 13.487 9.63302 13.489C9.86244 13.491 10.0835 13.4028 10.2485 13.2434L13.1299 10.3621V21.3748C13.1299 21.6069 13.2221 21.8294 13.3862 21.9935C13.5502 22.1576 13.7728 22.2498 14.0049 22.2498C14.2369 22.2498 14.4595 22.1576 14.6236 21.9935C14.7877 21.8294 14.8799 21.6069 14.8799 21.3748V10.3621L17.7612 13.2434Z" fill="#17479E"/>
</svg>
