<svg width="36" height="34" viewBox="0 0 36 34" fill="none" xmlns="http://www.w3.org/2000/svg">
<path d="M36.0004 16.0708C36.0004 15.4075 35.4607 14.8678 34.7973 14.8678H32.1165V12.2434C32.1165 11.9561 31.8837 11.7233 31.5964 11.7233C31.309 11.7233 31.0762 11.9561 31.0762 12.2434V14.8678H30.248V1.75902H31.0762V10.0269C31.0762 10.3142 31.309 10.547 31.5964 10.547C31.8837 10.547 32.1165 10.3142 32.1165 10.0269V1.60423C32.1165 1.11599 31.7193 0.71875 31.231 0.71875H30.0932C29.6049 0.71875 29.2077 1.11599 29.2077 1.60423V1.76478H21.9289C21.7265 1.76478 21.5377 1.86471 21.424 2.03206C21.3102 2.1994 21.2868 2.41169 21.3613 2.59984L22.379 5.17077L21.3611 7.74211C21.2869 7.93026 21.3104 8.14241 21.4241 8.30975C21.5378 8.4771 21.7266 8.57689 21.9289 8.57689H29.2077V14.8678H26.5269C25.8635 14.8678 25.3238 15.4075 25.3238 16.0709V18.2343C25.3238 18.4878 25.4031 18.723 25.5376 18.9172C25.4031 19.1114 25.3238 19.3465 25.3238 19.6001V21.7635C25.3238 22.0171 25.4031 22.2522 25.5376 22.4464C25.4031 22.6406 25.3238 22.8758 25.3238 23.1293V25.2927C25.3238 25.5463 25.4031 25.7815 25.5376 25.9756C25.4031 26.1698 25.3238 26.4049 25.3238 26.6585V28.822C25.3238 29.0755 25.4031 29.3107 25.5376 29.5049C25.4031 29.699 25.3238 29.9342 25.3238 30.1878V32.3512C25.3238 33.0145 25.8634 33.5542 26.5269 33.5542H34.7973C35.4606 33.5542 36.0004 33.0146 36.0004 32.3512V30.1878C36.0004 29.9342 35.9211 29.699 35.7866 29.5049C35.9211 29.3107 36.0004 29.0755 36.0004 28.822V26.6585C36.0004 26.405 35.9211 26.1698 35.7866 25.9756C35.9211 25.7815 36.0004 25.5464 36.0004 25.2927V23.1293C36.0004 22.8758 35.9211 22.6406 35.7866 22.4464C35.9211 22.2522 36.0004 22.0171 36.0004 21.7635V19.6C36.0004 19.3465 35.9211 19.1113 35.7866 18.9171C35.9211 18.7229 36.0004 18.4878 36.0004 18.2342V16.0708ZM22.5613 7.53662L23.4093 5.39456C23.4661 5.25031 23.4661 5.09136 23.4089 4.94614L22.5613 2.80505H29.2078V7.53662H22.5613ZM26.3642 16.0708C26.3642 15.9811 26.4372 15.908 26.5269 15.908H34.7974C34.8872 15.908 34.9602 15.9811 34.9602 16.0708V18.2342C34.9602 18.324 34.8872 18.397 34.7974 18.397H26.5269C26.4371 18.397 26.3641 18.324 26.3641 18.2342L26.3642 16.0708ZM34.9601 19.6V21.7634C34.9601 21.8533 34.8871 21.9263 34.7973 21.9263H26.5269C26.4371 21.9263 26.3641 21.8533 26.3641 21.7634V19.6C26.3641 19.5103 26.4371 19.4373 26.5269 19.4373H34.7973C34.8871 19.4373 34.9601 19.5103 34.9601 19.6ZM34.9601 23.1293V25.2927C34.9601 25.3825 34.8871 25.4555 34.7973 25.4555H26.5269C26.4371 25.4555 26.3641 25.3825 26.3641 25.2927V23.1293C26.3641 23.0396 26.4371 22.9666 26.5269 22.9666H34.7973C34.8871 22.9666 34.9601 23.0396 34.9601 23.1293ZM34.9601 26.6585V28.8219C34.9601 28.9117 34.8871 28.9847 34.7973 28.9847H26.5269C26.4371 28.9847 26.3641 28.9117 26.3641 28.8219V26.6585C26.3641 26.5687 26.4371 26.4957 26.5269 26.4957H34.7973C34.8871 26.4958 34.9601 26.5687 34.9601 26.6585ZM34.9601 32.3512C34.9601 32.4409 34.8871 32.514 34.7973 32.514H26.5269C26.4371 32.514 26.3641 32.4409 26.3641 32.3512V30.1878C26.3641 30.098 26.4371 30.025 26.5269 30.025H34.7973C34.8871 30.025 34.9601 30.098 34.9601 30.1878V32.3512Z" fill="white"/>
<path d="M23.648 25.2928V23.1294C23.648 22.466 23.1084 21.9263 22.445 21.9263H20.5265C20.2391 21.9263 20.0063 22.1591 20.0063 22.4464C20.0063 22.7337 20.2391 22.9665 20.5265 22.9665H22.445C22.5347 22.9665 22.6078 23.0396 22.6078 23.1294V25.2928C22.6078 25.3825 22.5347 25.4556 22.445 25.4556H14.1746C14.0848 25.4556 14.0118 25.3825 14.0118 25.2928V23.1294C14.0118 23.0396 14.0848 22.9665 14.1746 22.9665H14.5013C14.5021 22.9665 14.5029 22.9667 14.5039 22.9667C14.5048 22.9667 14.5057 22.9665 14.5066 22.9665H18.3098C18.5971 22.9665 18.8299 22.7337 18.8299 22.4464C18.8299 22.1591 18.5971 21.9263 18.3098 21.9263H16.8798L15.6535 17.3923C15.5872 17.1473 15.4538 16.9264 15.2678 16.7537L10.782 12.5861V11.3944L15.1203 6.92735C15.2496 6.79399 15.3208 6.61832 15.3208 6.43267V5.43914C15.3208 5.17269 15.1739 4.931 14.9373 4.80832C14.7009 4.68564 14.4186 4.70485 14.2009 4.85846L10.4584 7.49784C10.46 7.45997 10.4614 7.42204 10.4614 7.38375C10.4614 5.91954 9.27011 4.72829 7.80589 4.72829C6.34167 4.72829 5.15042 5.91954 5.15042 7.38375C5.15042 8.57535 5.93944 9.58608 7.02243 9.92112L7.01459 9.92666C6.55569 10.2503 6.28168 10.7787 6.28168 11.3403V11.7582L1.21931 16.1097C1.07859 16.2307 0.997869 16.4066 0.997869 16.5922V17.4453C0.997869 17.6649 1.10876 17.8661 1.29448 17.9834C1.3983 18.049 1.51572 18.0822 1.63389 18.0822C1.7271 18.0822 1.82065 18.0615 1.90831 18.0198L6.28162 15.9346V19.9726C6.28162 19.9789 6.28092 19.9852 6.27967 19.9913L5.12698 25.4556H1.82218C1.15876 25.4556 0.619141 25.9952 0.619141 26.6585V28.8219C0.619141 29.0755 0.698479 29.3107 0.832951 29.5049C0.698479 29.6991 0.619141 29.9343 0.619141 30.1878V32.3512C0.619141 33.0146 1.15876 33.5543 1.82218 33.5543H10.0926C10.756 33.5543 11.2957 33.0147 11.2957 32.3512V30.1878C11.2957 29.9343 11.2163 29.6991 11.0818 29.5049C11.2163 29.3107 11.2957 29.0756 11.2957 28.822V26.6586C11.2957 25.9953 10.756 25.4556 10.0926 25.4556H7.88696L10.628 20.7555C10.7288 20.5829 10.7821 20.3859 10.7821 20.1858V18.4828L13.2532 20.1864L13.8139 21.9817C13.3263 22.1353 12.9716 22.5916 12.9716 23.1294V25.2928C12.9716 25.5463 13.0509 25.7815 13.1853 25.9757C13.0509 26.1699 12.9716 26.405 12.9716 26.6586V28.822C12.9716 29.0756 13.0509 29.3107 13.1854 29.5049C13.0509 29.6991 12.9716 29.9343 12.9716 30.1878V32.3512C12.9716 33.0146 13.5112 33.5543 14.1746 33.5543H22.4451C23.1084 33.5543 23.6482 33.0147 23.6482 32.3512V30.1878C23.6482 29.9343 23.5688 29.6991 23.4344 29.5049C23.5688 29.3107 23.6482 29.0756 23.6482 28.822V26.6586C23.6482 26.4051 23.5688 26.1699 23.4344 25.9757C23.5687 25.7814 23.648 25.5463 23.648 25.2928ZM6.19063 7.38375C6.19063 6.49314 6.91521 5.76856 7.80582 5.76856C8.69643 5.76856 9.42102 6.49314 9.42102 7.38375C9.42102 8.27437 8.69643 8.99895 7.80582 8.99895C6.91521 8.99895 6.19063 8.27437 6.19063 7.38375ZM22.445 26.4958C22.5348 26.4958 22.6078 26.5689 22.6078 26.6586V28.822C22.6078 28.9118 22.5348 28.9849 22.445 28.9849H14.1746C14.0848 28.9849 14.0118 28.9118 14.0118 28.822V26.6586C14.0118 26.5689 14.0848 26.4958 14.1746 26.4958H22.445ZM2.03814 16.8054V16.7776L6.28162 13.1299V14.7821L2.03814 16.8054ZM10.2553 32.3512C10.2553 32.441 10.1823 32.514 10.0925 32.514H1.82218C1.73244 32.514 1.65941 32.441 1.65941 32.3512V30.1878C1.65941 30.0981 1.73244 30.0251 1.82218 30.0251H10.0926C10.1824 30.0251 10.2554 30.0981 10.2554 30.1878L10.2553 32.3512ZM10.2553 26.6585V28.8219C10.2553 28.9118 10.1823 28.9848 10.0925 28.9848H1.82218C1.73244 28.9848 1.65941 28.9118 1.65941 28.8219V26.6585C1.65941 26.5688 1.73244 26.4958 1.82218 26.4958H10.0926C10.1824 26.4958 10.2553 26.5688 10.2553 26.6585ZM9.72949 20.2311L6.68267 25.4555H6.19014L7.29747 20.2057C7.31356 20.1292 7.32182 20.0507 7.32182 19.9725V11.3403C7.32182 11.1165 7.43105 10.9058 7.614 10.7768L14.2805 6.07516V6.29896L9.88879 10.821C9.79454 10.9181 9.74177 11.0481 9.74177 11.1835V20.1858C9.74177 20.2017 9.73754 20.2173 9.72949 20.2311ZM10.782 17.2192V14.0059L14.5598 17.5158C14.603 17.5558 14.6338 17.6071 14.6492 17.6639L15.8021 21.9263H14.8865L14.1927 19.705C14.158 19.594 14.0872 19.4979 13.9914 19.4319L10.782 17.2192ZM22.6078 32.3512C22.6078 32.441 22.5348 32.514 22.445 32.514H14.1746C14.0848 32.514 14.0118 32.441 14.0118 32.3512V30.1878C14.0118 30.0981 14.0848 30.0251 14.1746 30.0251H22.445C22.5348 30.0251 22.6078 30.0981 22.6078 30.1878V32.3512Z" fill="white"/>
</svg>
