<svg width="30" height="28" viewBox="0 0 30 28" fill="none" xmlns="http://www.w3.org/2000/svg">
<path fill-rule="evenodd" clip-rule="evenodd" d="M9.46234 26.1018H4.04733C3.83401 26.1018 3.66992 25.9377 3.66992 25.7244V21.9995C3.66992 21.7862 3.83401 21.6221 4.04733 21.6221H9.46234C9.67566 21.6221 9.83975 21.7862 9.83975 21.9995V25.7244C9.83975 25.9377 9.67566 26.1018 9.46234 26.1018ZM4.42474 25.3469H9.08493V22.3769H4.42474V25.3469Z" fill="white" stroke="white" stroke-width="0.3"/>
<path fill-rule="evenodd" clip-rule="evenodd" d="M14.8774 26.1018H9.46237C9.24905 26.1018 9.08496 25.9377 9.08496 25.7243V17.7003C9.08496 17.487 9.24905 17.3229 9.46237 17.3229H14.8774C15.0907 17.3229 15.2712 17.487 15.2712 17.7003V25.7243C15.2712 25.9377 15.0907 26.1018 14.8774 26.1018ZM9.83978 25.3469H14.5V18.0941H9.83978V25.3469Z" fill="white" stroke="white" stroke-width="0.3"/>
<path fill-rule="evenodd" clip-rule="evenodd" d="M20.3079 26.1018H14.8764C14.6631 26.1018 14.499 25.9377 14.499 25.7244V13.1222C14.499 12.9253 14.6631 12.7448 14.8764 12.7448H20.3079C20.5212 12.7448 20.6853 12.9253 20.6853 13.1222V25.7244C20.6853 25.9377 20.5212 26.1018 20.3079 26.1018ZM15.2703 25.347H19.914V13.516H15.2703V25.347Z" fill="white" stroke="white" stroke-width="0.3"/>
<path fill-rule="evenodd" clip-rule="evenodd" d="M25.7229 26.1018H20.3079C20.0946 26.1018 19.9141 25.9377 19.9141 25.7244V7.7728C19.9141 7.57589 20.0946 7.39539 20.3079 7.39539H25.7229C25.9362 7.39539 26.1003 7.57589 26.1003 7.7728V25.7244C26.1003 25.9377 25.9362 26.1018 25.7229 26.1018ZM20.6853 25.347H25.3455V8.16661H20.6853V25.347Z" fill="white" stroke="white" stroke-width="0.3"/>
<path fill-rule="evenodd" clip-rule="evenodd" d="M28.381 27.8411H1.37155C1.15823 27.8411 0.994141 27.6606 0.994141 27.4473V25.7243C0.994141 25.511 1.15823 25.3469 1.37155 25.3469H28.381C28.5943 25.3469 28.7748 25.511 28.7748 25.7243V27.4473C28.7748 27.6606 28.5943 27.8411 28.381 27.8411ZM1.76537 27.0699H28.0036V26.1017H1.76537V27.0699Z" fill="white" stroke="white" stroke-width="0.3"/>
<path fill-rule="evenodd" clip-rule="evenodd" d="M7.26263 20.9656H2.47116C2.25784 20.9656 2.09375 20.7851 2.09375 20.5718C2.09375 20.3585 2.25784 20.1944 2.47116 20.1944H6.86881V15.6491C6.86881 15.4358 7.04931 15.2717 7.26263 15.2717H11.6603V10.7263C11.6603 10.513 11.8244 10.3325 12.0377 10.3325H16.4517V5.80361C16.4517 5.59029 16.6158 5.40979 16.8291 5.40979H21.6206C21.8175 5.40979 21.998 5.59029 21.998 5.80361C21.998 6.00052 21.8175 6.18102 21.6206 6.18102H17.2066V10.7263C17.2066 10.9397 17.0425 11.1038 16.8291 11.1038H12.4315V15.6491C12.4315 15.8624 12.251 16.0265 12.0377 16.0265H7.64004V20.5718C7.64004 20.7851 7.45954 20.9656 7.26263 20.9656Z" fill="white" stroke="white" stroke-width="0.3"/>
<path fill-rule="evenodd" clip-rule="evenodd" d="M23.5397 6.88668C23.474 6.88668 23.392 6.85386 23.3264 6.80463C23.1951 6.72259 23.1459 6.5749 23.1787 6.42722L23.5397 4.45813L22.0957 3.09617C21.9808 2.99771 21.948 2.83362 21.9808 2.70235C22.03 2.55467 22.1613 2.45621 22.309 2.4398L24.2945 2.19367L25.1314 0.372254C25.197 0.240981 25.3283 0.158936 25.476 0.158936C25.64 0.158936 25.7713 0.240981 25.837 0.372254L26.6738 2.19367L28.6593 2.4398C28.807 2.45621 28.9383 2.55467 28.9875 2.70235C29.0203 2.83362 28.9875 2.99771 28.8726 3.09617L27.4122 4.45813L27.7896 6.42722C27.8225 6.5749 27.7568 6.72259 27.642 6.80463C27.5271 6.90309 27.363 6.90309 27.2317 6.83745L25.476 5.86931L23.7366 6.83745C23.671 6.87027 23.6053 6.88668 23.5397 6.88668ZM23.2115 3.09617L24.2289 4.0479C24.3273 4.14635 24.3601 4.27763 24.3437 4.4089L24.0812 5.77086L25.2955 5.09808C25.4103 5.03245 25.558 5.03245 25.6729 5.09808L26.8871 5.77086L26.6246 4.4089C26.6082 4.27763 26.641 4.14635 26.7395 4.0479L27.7568 3.09617L26.3785 2.91567C26.2472 2.89926 26.1323 2.81721 26.0831 2.70235L25.476 1.43885L24.8852 2.70235C24.836 2.81721 24.7211 2.89926 24.5899 2.91567L23.2115 3.09617Z" fill="white" stroke="white" stroke-width="0.3"/>
</svg>
