<svg width="19" height="23" viewBox="0 0 19 23" fill="none" xmlns="http://www.w3.org/2000/svg">
<path d="M13.9 0C13.9501 0 14.0001 0 14.053 0C14.1759 1.56437 13.5967 2.73327 12.8928 3.57974C12.2021 4.42037 11.2563 5.23568 9.72654 5.11197C9.62449 3.57 10.2046 2.4878 10.9076 1.64327C11.5596 0.856216 12.7548 0.155853 13.9 0Z" fill="#17479E"/>
<path d="M18.5305 16.2832C18.5305 16.2988 18.5305 16.3124 18.5305 16.327C18.1006 17.6693 17.4874 18.8197 16.7391 19.8873C16.0559 20.8565 15.2188 22.1608 13.724 22.1608C12.4324 22.1608 11.5745 21.3046 10.2507 21.2812C8.85044 21.2578 8.08038 21.9971 6.8001 22.1832C6.65365 22.1832 6.50719 22.1832 6.36358 22.1832C5.42344 22.0429 4.66472 21.2753 4.11198 20.5837C2.4821 18.5401 1.22261 15.9004 0.988281 12.5222C0.988281 12.1911 0.988281 11.8608 0.988281 11.5297C1.08749 9.112 2.22699 7.1463 3.7416 6.19365C4.54095 5.68713 5.63981 5.25561 6.8634 5.44848C7.3878 5.53225 7.92354 5.71733 8.39313 5.90045C8.83816 6.07676 9.39468 6.38944 9.92191 6.37288C10.2791 6.36217 10.6343 6.17027 10.9943 6.03488C12.0488 5.64232 13.0825 5.1923 14.4449 5.40367C16.0824 5.65888 17.2446 6.40892 17.9626 7.56613C16.5775 8.47495 15.4824 9.8445 15.6695 12.1833C15.8358 14.3077 17.0339 15.5507 18.5305 16.2832Z" fill="#17479E"/>
</svg>
