<svg width="10" height="10" viewBox="0 0 10 10" fill="none" xmlns="http://www.w3.org/2000/svg">
<path d="M5.89143 4.99232L9.82456 1.05919C9.9384 0.941318 10.0014 0.783442 9.99998 0.619569C9.99855 0.455696 9.93282 0.298938 9.81694 0.183058C9.70106 0.0671781 9.5443 0.00144764 9.38043 2.36266e-05C9.21656 -0.00140039 9.05868 0.0615961 8.9408 0.175445L5.00768 4.10857L1.07456 0.175445C0.956679 0.0615961 0.798803 -0.00140039 0.63493 2.36266e-05C0.471057 0.00144764 0.314299 0.0671781 0.198419 0.183058C0.0825385 0.298938 0.016808 0.455696 0.015384 0.619569C0.01396 0.783442 0.0769565 0.941318 0.190805 1.05919L4.12393 4.99232L0.190805 8.92544C0.131111 8.9831 0.0834971 9.05206 0.0507415 9.12832C0.0179859 9.20457 0.000744733 9.28658 2.35977e-05 9.36957C-0.000697537 9.45256 0.0151162 9.53486 0.0465417 9.61167C0.0779673 9.68848 0.124375 9.75826 0.183058 9.81694C0.241741 9.87562 0.311524 9.92203 0.388334 9.95346C0.465144 9.98488 0.547444 10.0007 0.630431 9.99998C0.713418 9.99926 0.79543 9.98201 0.871683 9.94926C0.947935 9.9165 1.0169 9.86889 1.07456 9.8092L5.00768 5.87607L8.9408 9.8092C9.05868 9.92304 9.21656 9.98604 9.38043 9.98462C9.5443 9.98319 9.70106 9.91746 9.81694 9.80158C9.93282 9.6857 9.99855 9.52894 9.99998 9.36507C10.0014 9.2012 9.9384 9.04332 9.82456 8.92544L5.89143 4.99232Z" fill="black"/>
</svg>
