<svg width="33" height="33" viewBox="0 0 33 33" fill="none" xmlns="http://www.w3.org/2000/svg">
<path d="M2.19825 29.7026H3.29737V30.7951C3.28868 31.3751 3.51436 31.9341 3.92332 32.3454C4.33782 32.7665 4.90474 33.0025 5.49562 32.9999H23.6311C24.8452 32.9999 25.8294 32.0158 25.8294 30.8017V24.207C25.8294 23.9034 25.5833 23.6574 25.2798 23.6574C24.9763 23.6574 24.7303 23.9034 24.7303 24.207V30.8017C24.7303 31.4087 24.2382 31.9008 23.6311 31.9008H5.49562C5.19845 31.9023 4.91336 31.7833 4.70535 31.5711C4.5026 31.3669 4.39118 31.0894 4.39649 30.8017V29.7026H20.3338C21.5478 29.7026 22.532 28.7184 22.532 27.5043V25.449C22.532 25.1455 22.286 24.8994 21.9825 24.8994C21.6789 24.8994 21.4329 25.1455 21.4329 25.449V27.5043C21.4329 28.1114 20.9408 28.6034 20.3338 28.6034H2.19825C1.59122 28.6034 1.09912 28.1114 1.09912 27.5043V2.22449C1.09912 1.61746 1.59122 1.12537 2.19825 1.12537H20.3338C20.9408 1.12537 21.4329 1.61746 21.4329 2.22449V6.62098C21.4329 6.9245 21.6789 7.17055 21.9825 7.17055C22.286 7.17055 22.532 6.9245 22.532 6.62098V2.22449C22.532 1.01043 21.5478 0.0262451 20.3338 0.0262451H2.19825C0.984188 0.0262451 0 1.01043 0 2.22449V27.5043C0 28.7184 0.984188 29.7026 2.19825 29.7026Z" fill="white"/>
<path d="M2.74683 3.32361C2.44331 3.32361 2.19727 3.56966 2.19727 3.87317V8.81922C2.19727 9.12274 2.44331 9.36879 2.74683 9.36879H4.94507C5.24859 9.36879 5.49464 9.12274 5.49464 8.81922C5.49464 8.51571 5.24859 8.26966 4.94507 8.26966H3.29639V3.87317C3.29639 3.56966 3.05034 3.32361 2.74683 3.32361Z" fill="white"/>
<path d="M10.4414 6.3462C10.4414 4.65135 9.47583 3.32361 8.24317 3.32361C7.0105 3.32361 6.04492 4.65135 6.04492 6.3462C6.04492 8.04104 7.0105 9.36879 8.24317 9.36879C9.47583 9.36879 10.4414 8.04104 10.4414 6.3462ZM7.14404 6.3462C7.14404 5.213 7.72328 4.42273 8.24317 4.42273C8.76305 4.42273 9.34229 5.213 9.34229 6.3462C9.34229 7.47939 8.76305 8.26966 8.24317 8.26966C7.72328 8.26966 7.14404 7.47994 7.14404 6.3462Z" fill="white"/>
<path d="M13.7114 3.69949C13.6372 3.47397 13.4267 3.32153 13.1893 3.32153C12.9519 3.32153 12.7413 3.47397 12.6672 3.69949L11.0185 8.64555C10.9226 8.93389 11.0786 9.24538 11.3669 9.34129C11.6553 9.4372 11.9668 9.28121 12.0627 8.99287L12.3039 8.26965H14.0757L14.317 8.99287C14.379 9.17939 14.5359 9.31865 14.7284 9.35818C14.921 9.39771 15.12 9.33151 15.2505 9.18452C15.381 9.03752 15.4232 8.83207 15.3611 8.64555L13.7114 3.69949ZM12.6699 7.17053L13.1898 5.61087L13.7097 7.17053H12.6699Z" fill="white"/>
<path d="M17.5864 8.81932V5.99402L19.3044 9.0864C19.4013 9.26077 19.5852 9.36889 19.7847 9.36888C19.8312 9.36895 19.8776 9.36304 19.9226 9.35129C20.165 9.28844 20.3342 9.06971 20.3342 8.81932V3.87326C20.3342 3.56975 20.0882 3.3237 19.7847 3.3237C19.4812 3.3237 19.2351 3.56975 19.2351 3.87326V6.69856L17.5172 3.60617C17.3955 3.38733 17.1413 3.2784 16.8989 3.34126C16.6565 3.40412 16.4873 3.62287 16.4873 3.87326V8.81932C16.4873 9.12283 16.7334 9.36888 17.0369 9.36888C17.3404 9.36888 17.5864 9.12283 17.5864 8.81932Z" fill="white"/>
<path d="M2.74683 13.2158H9.89113C10.1946 13.2158 10.4407 12.9698 10.4407 12.6663C10.4407 12.3627 10.1946 12.1167 9.89113 12.1167H2.74683C2.44331 12.1167 2.19727 12.3627 2.19727 12.6663C2.19727 12.9698 2.44331 13.2158 2.74683 13.2158Z" fill="white"/>
<path d="M2.74683 15.9636H9.89113C10.1946 15.9636 10.4407 15.7176 10.4407 15.4141C10.4407 15.1105 10.1946 14.8645 9.89113 14.8645H2.74683C2.44331 14.8645 2.19727 15.1105 2.19727 15.4141C2.19727 15.7176 2.44331 15.9636 2.74683 15.9636Z" fill="white"/>
<path d="M2.74683 18.7114H9.89113C10.1946 18.7114 10.4407 18.4654 10.4407 18.1619C10.4407 17.8584 10.1946 17.6123 9.89113 17.6123H2.74683C2.44331 17.6123 2.19727 17.8584 2.19727 18.1619C2.19727 18.4654 2.44331 18.7114 2.74683 18.7114Z" fill="white"/>
<path d="M12.0898 12.6663C12.0898 12.9698 12.3359 13.2158 12.6394 13.2158H17.7723C18.0758 13.2158 18.3219 12.9698 18.3219 12.6663C18.3219 12.3627 18.0758 12.1167 17.7723 12.1167H12.6394C12.3359 12.1167 12.0898 12.3627 12.0898 12.6663Z" fill="white"/>
<path d="M12.6394 15.9636H14.7717C15.0752 15.9636 15.3213 15.7176 15.3213 15.4141C15.3213 15.1105 15.0752 14.8645 14.7717 14.8645H12.6394C12.3359 14.8645 12.0898 15.1105 12.0898 15.4141C12.0898 15.7176 12.3359 15.9636 12.6394 15.9636Z" fill="white"/>
<path d="M12.6394 18.7114H14.8761C15.1796 18.7114 15.4257 18.4654 15.4257 18.1619C15.4257 17.8584 15.1796 17.6123 14.8761 17.6123H12.6394C12.3359 17.6123 12.0898 17.8584 12.0898 18.1619C12.0898 18.4654 12.3359 18.7114 12.6394 18.7114Z" fill="white"/>
<path d="M2.74683 21.4592H9.89113C10.1946 21.4592 10.4407 21.2132 10.4407 20.9097C10.4407 20.6062 10.1946 20.3601 9.89113 20.3601H2.74683C2.44331 20.3601 2.19727 20.6062 2.19727 20.9097C2.19727 21.2132 2.44331 21.4592 2.74683 21.4592Z" fill="white"/>
<path d="M16.4149 20.9097C16.4149 20.6062 16.1688 20.3601 15.8653 20.3601H12.6394C12.3359 20.3601 12.0898 20.6062 12.0898 20.9097C12.0898 21.2132 12.3359 21.4592 12.6394 21.4592H15.8653C16.1688 21.4592 16.4149 21.2132 16.4149 20.9097Z" fill="white"/>
<path d="M3.29761 25.8557H5.01939C5.51996 25.8573 5.97796 25.5743 6.20039 25.1259C6.23798 25.0405 6.32796 24.9908 6.42022 25.0044C6.5124 25.0095 6.59047 25.0742 6.61256 25.1638L6.70984 25.5029C6.84763 25.9999 7.26528 26.3691 7.77544 26.4448C7.8447 26.4558 7.9147 26.4613 7.98482 26.4613C8.42499 26.4621 8.83584 26.2407 9.07735 25.8727L9.70989 24.9242C9.75048 24.862 9.81973 24.8245 9.894 24.8245C9.96827 24.8245 10.0375 24.862 10.0781 24.9242L10.3067 25.2682C10.5516 25.6357 10.9642 25.8562 11.4058 25.8557H13.1897C13.4932 25.8557 13.7393 25.6096 13.7393 25.3061C13.7393 25.0026 13.4932 24.7566 13.1897 24.7566H11.4036C11.3298 24.7567 11.2609 24.7197 11.2201 24.6582L10.9915 24.3169C10.7471 23.9485 10.3344 23.7271 9.89235 23.7271C9.45027 23.7271 9.03759 23.9485 8.79322 24.3169L8.16123 25.2633C8.11407 25.3362 8.02844 25.3745 7.94268 25.361C7.85691 25.3476 7.78708 25.285 7.76444 25.2012L7.66772 24.8621C7.51923 24.3377 7.06355 23.9587 6.52093 23.9082C5.97831 23.8577 5.4605 24.1461 5.21778 24.634C5.18055 24.7095 5.10352 24.7571 5.01939 24.7566H3.29761C2.99409 24.7566 2.74805 25.0026 2.74805 25.3061C2.74805 25.6096 2.99409 25.8557 3.29761 25.8557Z" fill="white"/>
<path d="M15.3875 25.8557H18.4199H18.4287C18.6653 25.8553 18.893 25.7651 19.0657 25.6034C20.317 24.4494 22.8857 22.5012 26.0297 22.4369C26.5294 22.4348 26.94 22.0418 26.964 21.5427C26.9739 21.3405 27.2272 16.5653 28.6127 13.9687L32.9102 5.9011C33.0025 5.72773 32.9953 5.5183 32.8913 5.3517C32.7873 5.1851 32.6023 5.08664 32.406 5.09341C32.2097 5.10018 32.032 5.21115 31.9397 5.38451L27.901 12.9685L25.8159 11.8583L23.0516 10.385L28.1373 0.834145C28.2426 0.660091 28.2432 0.442073 28.1388 0.267466C28.0343 0.09286 27.842 -0.00975999 27.6388 0.000734383C27.4356 0.0112287 27.2548 0.13312 27.169 0.317557L21.8223 10.3504C20.4374 12.9487 16.6152 15.8196 16.4531 15.9405C16.0532 16.2394 15.9567 16.7987 16.2332 17.2144C17.9924 19.9578 17.6956 23.3986 17.4851 24.7566H15.3875C15.0839 24.7566 14.8379 25.0026 14.8379 25.3061C14.8379 25.6096 15.0839 25.8557 15.3875 25.8557ZM17.2268 16.733C17.8819 16.2312 20.9979 13.778 22.5153 11.3473L25.7192 13.0509L27.402 13.9483C26.2287 16.5631 25.928 20.5194 25.8769 21.3438C23.6312 21.4911 21.4796 22.3017 19.6949 23.6728L21.4722 20.3002C22.5543 20.5696 23.6677 19.9919 24.0706 18.9521C24.4734 17.9123 24.0397 16.7352 23.0585 16.2054C22.0774 15.6755 20.8552 15.9584 20.2067 16.8655C19.5581 17.7725 19.6857 19.0205 20.5044 19.7775L18.7398 23.12C18.8756 20.8884 18.3493 18.6665 17.2268 16.733ZM21.4656 19.1318C21.0733 18.9228 20.8456 18.498 20.8885 18.0556C20.9315 17.6132 21.2366 17.2402 21.6618 17.1105C21.7657 17.0791 21.8736 17.063 21.9822 17.0627C22.4396 17.063 22.849 17.3466 23.0101 17.7747C23.1712 18.2028 23.0504 18.686 22.7066 18.9878C22.3629 19.2896 21.8682 19.3469 21.4645 19.1318H21.4656Z" fill="white"/>
</svg>
