<svg width="36" height="36" viewBox="0 0 36 36" fill="none" xmlns="http://www.w3.org/2000/svg">
<g clip-path="url(#clip0_2318_2708)">
<path d="M8.0505 11.25H0V36H8.0505V11.25Z" fill="#1976D2"/>
<path d="M29.979 11.5403C29.8935 11.5133 29.8125 11.484 29.7225 11.4592C29.6145 11.4345 29.5065 11.4143 29.3962 11.3963C28.9688 11.3108 28.5008 11.25 27.9518 11.25C23.2583 11.25 20.2815 14.6633 19.3005 15.9818V11.25H11.25V36H19.3005V22.5C19.3005 22.5 25.3845 14.0265 27.9518 20.25C27.9518 25.8053 27.9518 36 27.9518 36H36V19.2982C36 15.5587 33.4373 12.4425 29.979 11.5403Z" fill="#1976D2"/>
<path d="M3.9375 7.875C6.11212 7.875 7.875 6.11212 7.875 3.9375C7.875 1.76288 6.11212 0 3.9375 0C1.76288 0 0 1.76288 0 3.9375C0 6.11212 1.76288 7.875 3.9375 7.875Z" fill="#1976D2"/>
</g>
<defs>
<clipPath id="clip0_2318_2708">
<rect width="36" height="36" fill="white"/>
</clipPath>
</defs>
</svg>
