<svg width="36" height="26" viewBox="0 0 36 26" fill="none" xmlns="http://www.w3.org/2000/svg">
<path d="M34.47 3.01C33.4935 1.273 32.4338 0.9535 30.276 0.832C28.1205 0.68575 22.7002 0.625 18.0045 0.625C13.2997 0.625 7.87725 0.68575 5.724 0.82975C3.57075 0.9535 2.50875 1.27075 1.52325 3.01C0.5175 4.74475 0 7.73275 0 12.9933C0 12.9978 0 13 0 13C0 13.0045 0 13.0068 0 13.0068V13.0113C0 18.2493 0.5175 21.2598 1.52325 22.9765C2.50875 24.7135 3.5685 25.0285 5.72175 25.1748C7.87725 25.3008 13.2997 25.375 18.0045 25.375C22.7002 25.375 28.1205 25.3007 30.2782 25.177C32.436 25.0308 33.4958 24.7158 34.4723 22.9788C35.487 21.262 36 18.2515 36 13.0135C36 13.0135 36 13.0068 36 13.0023C36 13.0023 36 12.9978 36 12.9955C36 7.73275 35.487 4.74475 34.47 3.01Z" fill="#F44336"/>
<path d="M13.5 19.75V6.25L24.75 13L13.5 19.75Z" fill="#FAFAFA"/>
</svg>
