<svg width="24" height="25" viewBox="0 0 24 25" fill="none" xmlns="http://www.w3.org/2000/svg">
<path d="M14.8702 18.1693L8.34375 14.4012M8.34375 10.7538L14.8702 6.98572" stroke="#17479E" stroke-width="2" stroke-miterlimit="2.6131"/>
<path d="M20.6074 7.73636C22.0316 6.31215 22.0316 4.00304 20.6074 2.57882C19.1832 1.15461 16.8741 1.15461 15.4499 2.57882C14.0256 4.00304 14.0256 6.31215 15.4499 7.73636C16.8741 9.16058 19.1832 9.16058 20.6074 7.73636Z" stroke="#17479E" stroke-width="2" stroke-miterlimit="2.6131"/>
<path d="M21.652 20.3908C21.8717 18.3887 20.4268 16.5875 18.4248 16.3678C16.4227 16.1481 14.6215 17.5929 14.4018 19.595C14.182 21.5971 15.6269 23.3982 17.629 23.618C19.6311 23.8377 21.4322 22.3929 21.652 20.3908Z" stroke="#17479E" stroke-width="2" stroke-miterlimit="2.6131"/>
<path d="M8.78409 13.1637C9.10676 11.1755 7.75659 9.30216 5.76841 8.97949C3.78023 8.65682 1.90691 10.007 1.58424 11.9952C1.26158 13.9834 2.61174 15.8567 4.59992 16.1793C6.58811 16.502 8.46142 15.1518 8.78409 13.1637Z" stroke="#17479E" stroke-width="2" stroke-miterlimit="2.6131"/>
</svg>
