<svg width="146" height="75" viewBox="0 0 146 75" fill="none" xmlns="http://www.w3.org/2000/svg">
<g clip-path="url(#clip0_675_55400)">
<path d="M41.1088 8.12418H37.4848C36.1824 8.12418 35.1232 9.18503 35.1232 10.4864V20.2716L35.5019 29.1871L20.9691 9.09868C20.5257 8.48808 19.8113 8.12109 19.057 8.12109H15.6116C14.3092 8.12109 13.25 9.18195 13.25 10.4833V41.316C13.25 42.6205 14.3092 43.6782 15.6116 43.6782H19.2787C20.5811 43.6782 21.6403 42.6174 21.6403 41.316V32.3758L21.4124 22.9052L35.7575 42.7037C36.2009 43.3144 36.9152 43.6782 37.6695 43.6782H41.1119C42.4143 43.6782 43.4735 42.6174 43.4735 41.316V10.4864C43.4735 9.18195 42.4143 8.12418 41.1119 8.12418" fill="#17479E"/>
<path d="M80.2393 23.6278C79.2941 14.7986 71.3564 7.85372 62.1656 7.81671C59.3114 7.80746 56.4602 7.81055 53.606 7.81363H51.0227C49.3477 7.81671 48.8859 8.27621 48.8828 9.95693C48.8828 13.5188 48.8828 17.0838 48.8828 20.6487V25.9931V30.2674C48.8828 34.187 48.8828 38.1066 48.8859 42.0262C48.8859 43.5651 49.3046 43.9845 50.838 43.9845H52.7131C53.9385 43.9876 55.164 43.9876 56.3863 43.9876C58.6001 43.9876 60.8139 43.9845 63.0277 43.9691C64.0099 43.9598 64.949 43.8611 65.8204 43.6792C75.2052 41.7117 81.2677 33.2803 80.2393 23.6278ZM56.5588 15.2365C57.2146 15.2273 57.8673 15.1995 58.517 15.1718C60.3398 15.0978 62.0609 15.0237 63.7328 15.3075C69.3736 16.2573 72.7204 20.8985 72.2555 27.128C71.8552 32.5402 67.6555 36.5153 62.0455 36.7898C60.6908 36.8545 59.3514 36.8391 57.9289 36.8206C57.4732 36.8145 57.0175 36.8083 56.5557 36.8052V15.2365H56.5588Z" fill="#17479E"/>
<path d="M145.999 39.0724C145.993 37.3546 145.516 36.8828 143.792 36.8828C141.295 36.8766 138.795 36.8828 136.294 36.8828H132.316V15.5516C132.316 13.7229 132.316 11.891 132.313 10.0623C132.313 8.34457 131.778 7.82031 130.029 7.82031C129.105 7.82031 128.181 7.82031 127.261 7.82031H127.011C125.093 7.82031 124.625 8.27981 124.625 10.1641V33.8976C124.625 36.6053 124.625 39.3098 124.625 42.0113C124.625 42.5356 124.677 43.1308 125.096 43.5502C125.398 43.8524 125.817 43.9973 126.38 43.9973H126.386C132.356 43.9788 138.323 43.9788 144.291 43.9942H144.303C144.86 43.9942 145.276 43.8493 145.571 43.5532C145.864 43.2603 146.009 42.8378 146.002 42.3012V40.8734C146.002 40.2751 146.006 39.6737 146.002 39.0755" fill="#17479E"/>
<path d="M118.846 31.7319C118.6 31.3588 118.187 31.1367 117.741 31.1367H112.513C112.063 31.1367 111.644 31.368 111.392 31.7597C109.39 34.8929 105.982 36.7617 102.278 36.7617C98.574 36.7617 95.1686 34.8929 93.1672 31.7597C92.9178 31.3711 92.5022 31.1367 92.0465 31.1367H86.8153C86.3688 31.1367 85.9562 31.3588 85.7099 31.7319C85.4667 32.0958 85.4266 32.5553 85.5929 32.9562C88.4287 39.6976 94.9777 44.0551 102.275 44.0551C109.572 44.0551 116.124 39.6976 118.96 32.9562C119.129 32.5553 119.086 32.0958 118.843 31.7319" fill="#EE3824"/>
<path d="M102.276 7.81641C92.3212 7.81641 84.2266 15.927 84.2266 25.8972C84.2266 26.3906 84.2512 26.8748 84.2881 27.359L84.3312 27.8801H120.232L120.272 27.3559C120.309 26.8748 120.331 26.3906 120.331 25.8972C120.331 15.927 112.233 7.81641 102.279 7.81641M111.707 21.0216H92.8478C94.6613 17.5029 98.273 15.2732 102.276 15.2732C106.278 15.2732 109.893 17.5029 111.707 21.0216Z" fill="#17479E"/>
<path d="M0.171875 7.81445C0.171875 16.3476 0.171875 32.7846 0.171875 41.3208V41.5028C0.171875 41.6878 0.171875 41.8728 0.171875 42.0548C0.174954 42.5698 0.322746 42.9769 0.612172 43.2606C0.898519 43.5381 1.29879 43.68 1.80067 43.68H1.83761C2.66894 43.6707 3.49719 43.6738 4.3316 43.68H5.58784C7.45371 43.68 7.82935 43.3068 7.82935 41.475V20.9364C7.82935 19.1971 7.82935 9.55685 7.82935 7.81754H0.171875V7.81445Z" fill="#17479E"/>
<path fill-rule="evenodd" clip-rule="evenodd" d="M0 0L7.83297 7.81456V0H0Z" fill="#EE3824"/>
<path d="M39.1654 51.5C32.6995 51.5 27.4375 56.7704 27.4375 63.2496C27.4375 69.7288 32.6995 74.9992 39.1654 74.9992C45.6313 74.9992 50.8995 69.7288 50.8995 63.2496C50.8995 56.7704 45.6344 51.5 39.1654 51.5ZM46.9491 63.2496C46.9491 67.5485 43.4575 71.0426 39.1623 71.0426C34.8671 71.0426 31.3817 67.5454 31.3817 63.2496C31.3817 58.9537 34.8733 55.4535 39.1623 55.4535C43.4514 55.4535 46.9491 58.9507 46.9491 63.2496Z" fill="#17479E"/>
<path d="M20.5406 51.5254H20.5376C20.1311 51.5254 19.7832 51.7135 19.58 52.0435C18.5978 53.6502 17.5879 55.2754 16.6057 56.8513L11.9903 64.2742L9.78878 60.7369C7.98449 57.835 6.17712 54.93 4.34819 52.0126C4.22811 51.8184 4.04953 51.5254 3.60923 51.5254L0.148438 51.5316V74.9999H4.0834V58.3932C5.6229 60.885 9.78878 67.8299 10.5555 69.1097C10.7217 69.3872 11.0173 69.5538 11.3437 69.5538H12.6307C12.9571 69.5538 13.2527 69.3872 13.4189 69.1097C13.4651 69.0326 18.1236 61.2242 19.4722 59.0346C19.6139 58.8064 19.7555 58.5782 19.8941 58.3593V75.003H23.8044V51.5377L21.8308 51.5439C21.3997 51.5439 20.9717 51.5439 20.5437 51.5316" fill="#17479E"/>
<path d="M116.514 51.5254C115.279 51.5254 114.121 52.1884 113.493 53.2585L108.308 61.9397C107.628 60.7678 104.684 55.7133 103.757 54.159L103.308 53.3449C102.692 52.2254 101.513 51.5285 100.235 51.5285H97.4453L97.8056 51.988C97.9564 52.2409 98.0611 52.4105 98.1658 52.5832L99.3358 54.4397C101.488 57.8597 103.791 61.5264 106.06 65.1716C106.27 65.5077 106.381 65.8932 106.384 66.291C106.405 68.314 106.402 73.5505 106.402 74.7069V75.003H110.306V74.6607C110.306 72.9769 110.303 68.1969 110.319 66.2263C110.319 65.8809 110.42 65.5416 110.602 65.2456C111.744 63.4076 112.843 61.6529 113.964 59.8704L115.704 57.0949C116.184 56.3116 118.586 52.3858 118.817 51.9664L119.057 51.5285H116.514V51.5254Z" fill="#17479E"/>
<path d="M70.385 68.7771L70.3542 68.737C70.2926 68.6537 70.2434 68.5859 70.1941 68.515L67.4723 64.654C66.6256 63.4543 65.7788 62.2547 64.9352 61.0581L64.7597 60.8114C62.9585 58.2611 61.0957 55.6243 59.2698 53.0123C58.5771 52.0255 57.8535 51.5413 57.0499 51.529C56.6034 51.5228 55.6951 51.5259 55.1717 51.529H54.5312V75.0035H58.4139V58.3012C58.497 58.4091 58.5586 58.4893 58.614 58.5664L61.1203 62.1221C63.5312 65.5421 68.1096 71.5958 69.7815 73.9796C70.2311 74.6211 70.97 75.0035 71.7552 75.0035H72.371H74.3138V51.532H70.3819V68.7833L70.385 68.7771Z" fill="#17479E"/>
<path d="M82.5212 65.0455H87.0165C88.5221 65.0455 90.0309 65.0455 91.5365 65.0394C92.5618 65.0363 93.1653 64.7279 93.4978 64.0402C93.855 63.3031 93.8026 62.5168 93.7534 61.7705V61.4744H82.5181V55.0753H94.6678V51.498H78.5V74.9941H94.9573V71.4508H82.5181V65.0425L82.5212 65.0455Z" fill="#17479E"/>
</g>
<defs>
<clipPath id="clip0_675_55400">
<rect width="146" height="75" fill="white"/>
</clipPath>
</defs>
</svg>
