<svg width="24" height="24" viewBox="0 0 24 24" fill="none" xmlns="http://www.w3.org/2000/svg">
<g clip-path="url(#clip0_675_55527)">
<path d="M12.0026 7.42773C9.48101 7.42773 7.42969 9.47906 7.42969 12.0004C7.42969 14.522 9.48101 16.5733 12.0026 16.5733C14.5239 16.5733 16.5752 14.522 16.5752 12.0004C16.5752 9.47906 14.5239 7.42773 12.0026 7.42773ZM14.7174 11.1393L11.4415 14.4152C11.304 14.5527 11.1236 14.6216 10.9435 14.6216C10.7633 14.6216 10.5831 14.5529 10.4456 14.4152L9.19372 13.1633C8.9187 12.8885 8.9187 12.4426 9.19372 12.1676C9.46856 11.8926 9.91442 11.8926 10.1894 12.1676L10.9435 12.9216L13.7217 10.1435C13.9966 9.86852 14.4424 9.86852 14.7174 10.1435C14.9925 10.4184 14.9925 10.8642 14.7174 11.1393Z" fill="#EB0208"/>
<path d="M22.1947 6.51181L22.194 6.49313C22.1835 6.2626 22.1766 6.01871 22.1724 5.74734C22.1528 4.42404 21.1008 3.32944 19.7773 3.25547C17.018 3.10148 14.8833 2.2017 13.0594 0.423934L13.0438 0.409102C12.4489 -0.136367 11.5515 -0.136367 10.9564 0.409102L10.9409 0.423934C9.11698 2.2017 6.98234 3.10148 4.22295 3.25565C2.89965 3.32944 1.84753 4.42404 1.82793 5.74753C1.8239 6.01706 1.81676 6.26095 1.80633 6.49313L1.80523 6.53653C1.75158 9.3503 1.68493 12.8522 2.85643 16.0307C3.5006 17.7786 4.47618 19.298 5.7559 20.547C7.21342 21.9693 9.12247 23.0986 11.43 23.9031C11.505 23.9293 11.583 23.9505 11.6625 23.9665C11.7746 23.9888 11.8874 24 12.0001 24C12.1129 24 12.2259 23.9888 12.3378 23.9665C12.4173 23.9505 12.4958 23.9291 12.5713 23.9028C14.876 23.0967 16.783 21.967 18.2393 20.5448C19.5184 19.2955 20.494 17.7757 21.1387 16.0274C22.3146 12.8394 22.2482 9.33089 22.1947 6.51181ZM11.9998 17.9815C8.70169 17.9815 6.01866 15.2985 6.01866 12.0004C6.01866 8.70229 8.70169 6.01926 11.9998 6.01926C15.2977 6.01926 17.9809 8.70229 17.9809 12.0004C17.9809 15.2985 15.2977 17.9815 11.9998 17.9815Z" fill="#EB0208"/>
</g>
<defs>
<clipPath id="clip0_675_55527">
<rect width="24" height="24" fill="white"/>
</clipPath>
</defs>
</svg>
