<svg width="24" height="24" viewBox="0 0 24 24" fill="none" xmlns="http://www.w3.org/2000/svg">
<g clip-path="url(#clip0_675_55523)">
<path d="M18.3989 3.1989V3.39885H15V0H15.1279L18.3989 3.1989Z" fill="#EB0208"/>
<path d="M14.4001 4.59847C14.0722 4.59847 13.8003 4.32652 13.8003 3.9987V0H1.60441C1.16454 0 0.804688 0.359925 0.804688 0.799725V23.1922C0.804688 23.6321 1.16461 23.992 1.60441 23.992H14.8C13.9203 23.3362 13.2325 22.4325 12.8246 21.3928H4.00359C3.67569 21.3928 3.40381 21.1209 3.40381 20.7931C3.40381 20.4652 3.67576 20.1933 4.00359 20.1933H12.4967C12.4408 19.8733 12.4007 19.5375 12.4007 19.2016C12.4007 18.8578 12.4327 18.5218 12.4887 18.1939H4.00359C3.67569 18.1939 3.40381 17.922 3.40381 17.5942C3.40381 17.2663 3.67576 16.9944 4.00359 16.9944H12.8246C13.1285 16.2427 13.5684 15.5629 14.1281 14.995H4.00359C3.67569 14.995 3.40381 14.7231 3.40381 14.3953C3.40381 14.0674 3.67576 13.7955 4.00359 13.7955H15.1999C15.3359 13.7955 15.4558 13.8514 15.5518 13.9234C16.3995 13.4677 17.3672 13.2037 18.3989 13.2037V4.59847H14.4001ZM9.51376 6.55785L9.97756 6.66982C10.8493 6.8937 11.4571 7.6695 11.4571 8.57317V8.77312C11.4571 9.5889 10.9292 10.2687 10.2015 10.5245V11.0604C10.2015 11.3883 9.92956 11.6602 9.60174 11.6602C9.27391 11.6602 9.00196 11.3882 9.00196 11.0604V10.5245C8.27424 10.2686 7.74639 9.58882 7.74639 8.77312C7.74639 8.43727 8.01031 8.17335 8.34616 8.17335C8.67406 8.17335 8.94594 8.43727 8.94594 8.77312C8.94594 9.13305 9.24181 9.42892 9.60174 9.42892C9.96166 9.42892 10.2575 9.13305 10.2575 8.77312V8.57317C10.2575 8.22135 10.0256 7.9254 9.68971 7.83742L9.22591 7.72545C8.35419 7.50157 7.74639 6.72577 7.74639 5.8221V5.62215C7.74639 4.80637 8.27424 4.12657 9.00196 3.87075V3.33487C9.00196 3.00697 9.27391 2.7351 9.60174 2.7351C9.92956 2.7351 10.2015 3.00705 10.2015 3.33487V3.87075C10.9292 4.12665 11.4571 4.80645 11.4571 5.62215C11.4571 5.958 11.1932 6.22192 10.8573 6.22192C10.5294 6.22192 10.2575 5.958 10.2575 5.62215C10.2575 5.26222 9.96166 4.96635 9.60174 4.96635C9.24181 4.96635 8.94594 5.26222 8.94594 5.62215V5.8221C8.94594 6.17392 9.17784 6.46987 9.51376 6.55785Z" fill="#EB0208"/>
<path d="M18.3938 14.4004C15.7463 14.4004 13.5938 16.5529 13.5938 19.2004C13.5938 21.8479 15.7463 24.0004 18.3938 24.0004C21.0413 24.0004 23.1938 21.8479 23.1938 19.2004C23.1938 16.5529 21.0413 14.4004 18.3938 14.4004ZM20.5838 18.4579L18.2962 20.7379C18.1912 20.8504 18.0488 20.9029 17.8988 20.9029C17.7563 20.9029 17.6138 20.8504 17.5013 20.7379L16.2038 19.4404C15.9863 19.2229 15.9863 18.8629 16.2038 18.6454C16.4213 18.4279 16.7813 18.4279 16.9988 18.6454L17.8988 19.5454L19.7887 17.6629C20.0062 17.4379 20.3663 17.4379 20.5838 17.6629C20.8013 17.8804 20.8013 18.2404 20.5838 18.4579Z" fill="#EB0208"/>
</g>
<defs>
<clipPath id="clip0_675_55523">
<rect width="24" height="24" fill="white"/>
</clipPath>
</defs>
</svg>
