<svg width="30" height="30" viewBox="0 0 30 30" fill="none" xmlns="http://www.w3.org/2000/svg">
<path d="M9.36719 15.4692C7.23484 15.4692 5.5 17.2041 5.5 19.3364C5.5 21.0375 6.62781 22.5361 8.22859 23.0311L8.53234 22.372C8.59984 22.2248 8.73953 22.1292 8.89703 22.1081V21.5939H8.47281C8.21406 21.5939 8.00406 21.3839 8.00406 21.1252C8.00406 20.8664 8.21406 20.6564 8.47281 20.6564H9.67234C9.73891 20.6564 9.79516 20.6002 9.79516 20.5331V19.9256C9.79516 19.8591 9.73891 19.8028 9.67234 19.8028H9.06484C8.47984 19.8028 8.00453 19.327 8.00453 18.7425V18.1369C8.00453 17.6095 8.39266 17.1745 8.8975 17.0934V16.5577C8.8975 16.2989 9.1075 16.0889 9.36625 16.0889C9.625 16.0889 9.835 16.2989 9.835 16.5577V17.0761H10.2644C10.5231 17.0761 10.7331 17.2861 10.7331 17.5448C10.7331 17.8036 10.5231 18.0136 10.2644 18.0136H9.37188C9.37188 18.0136 9.36813 18.0145 9.36625 18.0145C9.36438 18.0145 9.3625 18.0136 9.36063 18.0136H9.06531C8.99734 18.0136 8.9425 18.0689 8.9425 18.1364V18.742C8.9425 18.81 8.99781 18.8648 9.06531 18.8648H9.67281C10.2578 18.8648 10.7331 19.3406 10.7331 19.9252V20.5327C10.7331 21.0619 10.3427 21.4978 9.835 21.577V22.0992H10.668L12.0573 19.0842C12.1338 18.9183 12.3002 18.8114 12.483 18.8114H13.1964C12.9391 16.9303 11.3139 15.4688 9.36766 15.4688L9.36719 15.4692Z" fill="#EB0208"/>
<path d="M12.6816 23.0371H10.972H9.26203L8.17969 25.387H13.7644L12.6816 23.0371Z" fill="#EB0208"/>
<path d="M14.4955 19.748H12.7855L11.7031 22.0979H12.9805H16.01H17.2878L16.205 19.748H14.4955Z" fill="#EB0208"/>
<path d="M16.465 16.4609C16.4622 16.4609 16.4598 16.4619 16.457 16.4619C16.4547 16.4619 16.4523 16.4609 16.4505 16.4609H16.3094L15.2266 18.8108H20.8112L19.7284 16.4609H16.465Z" fill="#EB0208"/>
<path d="M6.91656 11.1738C6.62641 11.1738 6.39062 11.4096 6.39062 11.6998C6.39062 11.9899 6.62641 12.2257 6.91656 12.2257H11.8295C12.1192 12.2257 12.355 11.9899 12.355 11.6998C12.355 11.4096 12.1192 11.1738 11.8295 11.1738H6.91656Z" fill="#EB0208"/>
<path d="M18.0189 23.0371H16.3089L15.2266 25.387H20.8113L19.7284 23.0371H18.0189Z" fill="#EB0208"/>
<path d="M22.3313 23.0371H20.7656L21.5484 24.7354L22.3313 23.0371Z" fill="#EB0208"/>
<path d="M25.0736 23.0371H23.3636L22.2812 25.387H27.8659L26.7831 23.0371H25.0736Z" fill="#EB0208"/>
<path d="M17.2344 19.748L18.0172 21.4468L18.8 19.748H17.2344Z" fill="#EB0208"/>
<path d="M12.5116 5.66758C12.4484 5.61977 12.2234 5.47961 11.9735 5.66336C11.7321 5.83961 11.448 5.93336 11.1513 5.93336C10.5598 5.93336 10.0334 5.55742 9.84117 4.9982L9.80086 4.88055C9.70336 4.60211 9.45023 4.58008 9.37336 4.58008H9.37242C9.29742 4.58008 9.0457 4.60211 8.94914 4.88148L8.90883 4.99867C8.76211 5.42102 8.43398 5.73883 8.00789 5.87055C7.58226 6.0018 7.1332 5.92633 6.77555 5.66242C6.55805 5.50586 6.27398 5.57195 6.13195 5.77539C6.07336 5.85883 6.01805 5.99711 6.08601 6.1818L7.58414 10.2374H11.1673L12.6621 6.18086C12.7699 5.89023 12.5754 5.71445 12.513 5.66711L12.5116 5.66758Z" fill="#EB0208"/>
<path d="M14.4937 24.7354L14.7694 24.1368C14.7717 24.1307 14.775 24.1251 14.7773 24.1195L15.2761 23.0371H13.7109L14.4937 24.7354Z" fill="#EB0208"/>
<path d="M21.5423 19.748H19.8323L18.75 22.0979H20.0273H23.0569H24.3347L23.2519 19.748H21.5423Z" fill="#EB0208"/>
<path d="M7.14562 25.3871L7.8375 23.8862C5.91234 23.2346 4.56562 21.4079 4.56562 19.337C4.56562 16.6876 6.72094 14.5323 9.37031 14.5323C11.8322 14.5323 13.8839 16.4138 14.1459 18.8124H14.1952L15.5845 15.7979C15.6141 15.7337 15.66 15.6816 15.7125 15.638C14.9691 14.4652 13.9045 13.5184 12.6534 12.908C12.4181 13.0693 12.1345 13.1645 11.8284 13.1645H6.91547C6.6075 13.1645 6.32203 13.0674 6.08578 12.9043C3.51984 14.1563 1.875 16.7649 1.875 19.637V19.712C1.90312 22.6515 4.215 25.081 7.14609 25.3876L7.14562 25.3871Z" fill="#EB0208"/>
</svg>
