<svg width="24" height="24" viewBox="0 0 24 24" fill="none" xmlns="http://www.w3.org/2000/svg">
<g clip-path="url(#clip0_675_55517)">
<path d="M18.4384 15.7134L14.0565 17.6132C14.0801 17.742 14.0924 17.8727 14.0931 18.0037C14.0892 18.6039 13.8474 19.1782 13.4206 19.6004C12.9939 20.0226 12.4172 20.2583 11.8169 20.2559H7.812C7.71254 20.2559 7.61716 20.2163 7.54683 20.146C7.47651 20.0757 7.437 19.9803 7.437 19.8809C7.437 19.7814 7.47651 19.686 7.54683 19.6157C7.61716 19.5454 7.71254 19.5059 7.812 19.5059H11.8169C12.0162 19.509 12.2141 19.4725 12.3991 19.3985C12.5841 19.3244 12.7525 19.2143 12.8946 19.0745C13.0366 18.9347 13.1494 18.7681 13.2264 18.5842C13.3034 18.4004 13.3431 18.2031 13.3431 18.0038C13.3431 17.8046 13.3034 17.6073 13.2264 17.4234C13.1494 17.2396 13.0366 17.073 12.8946 16.9332C12.7525 16.7934 12.5841 16.6833 12.3991 16.6092C12.2141 16.5352 12.0162 16.4986 11.8169 16.5018H8.50653C8.13965 16.5336 7.77051 16.4764 7.43042 16.3352C6.28248 15.768 5.02915 15.4456 3.75 15.3885V14.625C3.75001 14.5758 3.74032 14.527 3.72148 14.4815C3.70264 14.436 3.67502 14.3946 3.64019 14.3598C3.60537 14.325 3.56402 14.2974 3.51852 14.2785C3.47302 14.2597 3.42425 14.25 3.375 14.25H1.125C1.07575 14.25 1.02698 14.2597 0.981479 14.2785C0.935976 14.2974 0.894631 14.325 0.859806 14.3598C0.824982 14.3946 0.79736 14.436 0.778519 14.4815C0.759678 14.527 0.749987 14.5758 0.75 14.625V22.875C0.749987 22.9242 0.759678 22.973 0.778519 23.0185C0.79736 23.064 0.824982 23.1054 0.859806 23.1402C0.894631 23.175 0.935976 23.2026 0.981479 23.2215C1.02698 23.2403 1.07575 23.25 1.125 23.25H3.375C3.42425 23.25 3.47302 23.2403 3.51852 23.2215C3.56402 23.2026 3.60537 23.175 3.64019 23.1402C3.67502 23.1054 3.70264 23.064 3.72148 23.0185C3.74032 22.973 3.75001 22.9242 3.75 22.875V22.2837C3.75 22.2837 10.1622 22.8746 10.2936 22.8746C10.6868 22.8766 11.0723 22.7652 11.4038 22.5538L19.6716 17.9308C19.9324 17.7627 20.122 17.5043 20.2041 17.205C20.2861 16.9058 20.2548 16.5868 20.1162 16.3092C19.9662 16.0137 19.7085 15.7871 19.3963 15.6762C19.084 15.5653 18.7411 15.5786 18.4384 15.7134Z" fill="#EB0208"/>
<path d="M7.07758 7.875C7.01005 8.13421 6.87459 8.3707 6.68517 8.56009C6.49574 8.74948 6.25922 8.8849 6 8.95237V10.1726C6.25922 10.2401 6.49574 10.3755 6.68517 10.5649C6.87459 10.7543 7.01005 10.9908 7.07758 11.25H15.4224C15.49 10.9908 15.6254 10.7543 15.8148 10.5649C16.0043 10.3755 16.2408 10.2401 16.5 10.1726V8.95275C16.2554 8.88756 16.0314 8.76102 15.8494 8.5851L15.0141 9.42041C14.5907 9.82664 14.0283 10.0561 13.4416 10.062C12.8753 10.0557 12.3337 9.82868 11.9323 9.42919C11.7208 9.23013 11.5534 8.989 11.4407 8.72133C11.3281 8.45365 11.2727 8.16536 11.2782 7.875H7.07758Z" fill="#EB0208"/>
<path d="M18.75 7.0044C18.3201 7.10635 17.8718 7.10149 17.4443 6.99024L16.3787 8.05577C16.5145 8.17951 16.6913 8.24868 16.875 8.25C16.9242 8.24999 16.973 8.25968 17.0185 8.27852C17.064 8.29736 17.1054 8.32498 17.1402 8.35981C17.175 8.39463 17.2026 8.43598 17.2215 8.48148C17.2403 8.52698 17.25 8.57575 17.25 8.625V10.5C17.25 10.5492 17.2403 10.598 17.2215 10.6435C17.2026 10.689 17.175 10.7304 17.1402 10.7652C17.1054 10.8 17.064 10.8276 17.0185 10.8465C16.973 10.8653 16.9242 10.875 16.875 10.875C16.6762 10.8752 16.4855 10.9543 16.3449 11.0949C16.2043 11.2355 16.1252 11.4262 16.125 11.625C16.125 11.6742 16.1153 11.723 16.0965 11.7685C16.0776 11.814 16.05 11.8554 16.0152 11.8902C15.9804 11.925 15.939 11.9526 15.8935 11.9715C15.848 11.9903 15.7992 12 15.75 12H6.75C6.70075 12 6.65198 11.9903 6.60648 11.9715C6.56098 11.9526 6.51963 11.925 6.48481 11.8902C6.44998 11.8554 6.42236 11.814 6.40352 11.7685C6.38468 11.723 6.37499 11.6742 6.375 11.625C6.37477 11.4262 6.29568 11.2355 6.15508 11.0949C6.01448 10.9543 5.82384 10.8752 5.625 10.875C5.57575 10.875 5.52698 10.8653 5.48148 10.8465C5.43598 10.8276 5.39463 10.8 5.35981 10.7652C5.32498 10.7304 5.29736 10.689 5.27852 10.6435C5.25968 10.598 5.24999 10.5492 5.25 10.5V8.625C5.24999 8.57575 5.25968 8.52698 5.27852 8.48148C5.29736 8.43598 5.32498 8.39463 5.35981 8.35981C5.39463 8.32498 5.43598 8.29736 5.48148 8.27852C5.52698 8.25968 5.57575 8.24999 5.625 8.25C5.82384 8.24977 6.01448 8.17068 6.15508 8.03008C6.29568 7.88948 6.37477 7.69884 6.375 7.5C6.37499 7.45075 6.38468 7.40198 6.40352 7.35648C6.42236 7.31098 6.44998 7.26963 6.48481 7.23481C6.51963 7.19998 6.56098 7.17236 6.60648 7.15352C6.65198 7.13468 6.70075 7.12499 6.75 7.125H11.4278C11.5514 6.80481 11.7402 6.51382 11.9823 6.27051L12.6278 5.625H4.125C4.07575 5.62499 4.02698 5.63468 3.98148 5.65352C3.93598 5.67236 3.89463 5.69998 3.85981 5.73481C3.82498 5.76963 3.79736 5.81098 3.77852 5.85648C3.75968 5.90198 3.74999 5.95075 3.75 6V13.125C3.74999 13.1742 3.75968 13.223 3.77852 13.2685C3.79736 13.314 3.82498 13.3554 3.85981 13.3902C3.89463 13.425 3.93598 13.4526 3.98148 13.4715C4.02698 13.4903 4.07575 13.5 4.125 13.5H18.375C18.4242 13.5 18.473 13.4903 18.5185 13.4715C18.564 13.4526 18.6054 13.425 18.6402 13.3902C18.675 13.3554 18.7026 13.314 18.7215 13.2685C18.7403 13.223 18.75 13.1742 18.75 13.125V7.0044Z" fill="#EB0208"/>
<path d="M22.8741 0.75H21.3741C21.3248 0.749987 21.276 0.759678 21.2305 0.778519C21.185 0.79736 21.1437 0.824982 21.1089 0.859806C21.074 0.894631 21.0464 0.935976 21.0276 0.981479C21.0087 1.02698 20.9991 1.07575 20.9991 1.125V1.5H15.1551C14.8185 1.49908 14.485 1.56493 14.174 1.69373C13.863 1.82253 13.5806 2.01173 13.3432 2.25038L10.7188 4.875H13.3769L14.5473 3.70459C14.6177 3.63427 14.713 3.59477 14.8125 3.59477C14.9119 3.59477 15.0073 3.63428 15.0776 3.7046C15.1479 3.77492 15.1874 3.87029 15.1874 3.96974C15.1874 4.06918 15.1479 4.16456 15.0776 4.23488L12.4974 6.81508C12.2495 7.05296 12.0874 7.3662 12.0364 7.70591C12.0053 7.92013 12.0261 8.13868 12.0969 8.34321C12.1678 8.54774 12.2867 8.73229 12.4436 8.88136C12.7151 9.14875 13.0804 9.29937 13.4614 9.30101C13.8424 9.30265 14.209 9.15519 14.4827 8.89015L17.2508 6.12242C17.5775 6.27873 17.9391 6.34782 18.3004 6.32297C18.6617 6.29812 19.0104 6.18017 19.3127 5.9806C19.3986 5.93063 19.5009 5.91685 19.597 5.9423C19.6931 5.96774 19.7752 6.03033 19.8252 6.11628C19.8751 6.20224 19.8889 6.30453 19.8635 6.40064C19.838 6.49676 19.7754 6.57883 19.6895 6.6288C19.6263 6.66555 19.5626 6.69696 19.4991 6.72923V10.0008C20.0302 9.75184 20.5331 9.44662 20.9991 9.09037V9.375C20.9991 9.42425 21.0087 9.47302 21.0276 9.51852C21.0464 9.56402 21.074 9.60537 21.1089 9.64019C21.1437 9.67502 21.185 9.70264 21.2305 9.72148C21.276 9.74032 21.3248 9.75001 21.3741 9.75H22.8741C22.9233 9.75001 22.9721 9.74032 23.0176 9.72148C23.0631 9.70264 23.1044 9.67502 23.1393 9.64019C23.1741 9.60537 23.2017 9.56402 23.2205 9.51852C23.2394 9.47302 23.2491 9.42425 23.2491 9.375V1.125C23.2491 1.07575 23.2394 1.02698 23.2205 0.981479C23.2017 0.935977 23.1741 0.894632 23.1393 0.859808C23.1044 0.824983 23.0631 0.797361 23.0176 0.77852C22.9721 0.759679 22.9233 0.749988 22.8741 0.75Z" fill="#EB0208"/>
</g>
<defs>
<clipPath id="clip0_675_55517">
<rect width="24" height="24" fill="white"/>
</clipPath>
</defs>
</svg>
