<svg width="24" height="24" viewBox="0 0 24 24" fill="none" xmlns="http://www.w3.org/2000/svg">
<path d="M19.7891 16.2341C18.2178 15.4728 15.4578 17.0516 13.2378 18.3228C12.3603 18.8291 11.5278 19.3053 11.1678 19.3803C10.8566 19.4403 10.6091 19.4028 10.4028 19.2603C10.1553 19.0916 10.0128 18.8066 9.93406 18.5928C10.0841 18.5478 10.2678 18.5141 10.4853 18.5066C12.6566 18.4241 14.0178 17.6216 14.0403 16.4141C14.0478 15.8478 13.8266 15.5328 13.6353 15.3678C13.2003 14.9891 12.6078 15.0716 12.5478 15.0791C12.5291 15.0828 10.6728 15.3453 9.55531 15.2028L9.45406 15.1878C8.33656 15.0453 7.27906 14.9066 6.23656 16.3766C5.45281 17.4903 4.14406 17.3253 4.09156 17.3178C3.98281 17.2991 3.87406 17.3328 3.79156 17.4041C3.70906 17.4753 3.66406 17.5803 3.66406 17.6891V22.2191C3.66406 22.4066 3.80656 22.5678 3.99781 22.5903L9.63406 23.2166C9.82531 23.2391 10.0166 23.2503 10.2116 23.2503C11.2278 23.2503 12.2366 22.9541 13.0953 22.3916L19.8866 17.9591C20.1866 17.7603 20.3591 17.4153 20.3366 17.0553C20.3141 16.6991 20.1078 16.3916 19.7891 16.2341Z" fill="#EB0208"/>
<path d="M12.6797 11.5566C15.0047 11.5566 16.8984 9.65531 16.8984 7.31531C16.8984 4.97531 15.0047 3.07031 12.6797 3.07031C10.3547 3.07031 8.46094 4.97531 8.46094 7.31531C8.46094 9.65531 10.3547 11.5566 12.6797 11.5566ZM13.3922 7.97531C13.2834 7.89656 13.0622 7.78031 12.6009 7.68281C12.1172 7.57781 11.7647 7.43906 11.5209 7.25531C11.2434 7.04906 11.1009 6.74906 11.1009 6.38156C11.1009 6.01406 11.2509 5.71031 11.5509 5.46656C11.7572 5.29781 12.0122 5.18906 12.3047 5.14406V4.72031C12.3047 4.51031 12.4734 4.34531 12.6797 4.34531C12.8859 4.34531 13.0547 4.51031 13.0547 4.72031V5.14781C13.3547 5.20031 13.6134 5.30906 13.8197 5.48531C14.0897 5.71406 14.2397 6.00281 14.2584 6.33656C14.2697 6.54656 14.1122 6.72281 13.9059 6.73406C13.7034 6.74531 13.5197 6.58781 13.5084 6.38156C13.5009 6.25406 13.4484 6.15281 13.3359 6.05531C13.1822 5.92781 12.9572 5.86406 12.6609 5.86406C12.3872 5.86406 12.1734 5.92406 12.0272 6.04406C11.8697 6.17156 11.8509 6.28781 11.8509 6.38156C11.8509 6.53531 11.8959 6.60281 11.9672 6.65531C12.0722 6.73406 12.2972 6.84656 12.7584 6.94781C13.2422 7.05281 13.5947 7.19156 13.8384 7.37531C14.1122 7.57781 14.2584 7.88156 14.2584 8.24906C14.2584 8.61656 14.1084 8.92031 13.8084 9.16406C13.6022 9.33281 13.3472 9.43781 13.0547 9.48656V9.91031C13.0547 10.1166 12.8859 10.2853 12.6797 10.2853C12.4734 10.2853 12.3047 10.1166 12.3047 9.91031V9.48281C12.0047 9.43031 11.7459 9.31781 11.5397 9.14531C11.2659 8.91656 11.1197 8.62781 11.1009 8.29031C11.0897 8.08406 11.2472 7.90781 11.4534 7.89656C11.6597 7.88531 11.8359 8.03906 11.8509 8.24906C11.8584 8.37656 11.9072 8.47406 12.0234 8.57156C12.1772 8.70281 12.4022 8.76656 12.6984 8.76656C12.9722 8.76656 13.1859 8.70656 13.3322 8.58656C13.4897 8.45531 13.5084 8.34281 13.5084 8.24906C13.5084 8.09531 13.4597 8.02781 13.3922 7.97531Z" fill="#EB0208"/>
<path d="M5.72791 8.32125L6.15541 8.01375C6.50791 11.3025 9.29416 13.8787 12.6767 13.8787C16.2954 13.8787 19.2429 10.9312 19.2429 7.3125C19.2429 3.69375 16.2954 0.75 12.6767 0.75C10.0442 0.75 7.67041 2.31375 6.63541 4.73625C6.55666 4.9275 6.64291 5.14875 6.83416 5.2275C7.02166 5.31 7.24291 5.22375 7.32541 5.0325C8.24416 2.8875 10.3442 1.5 12.6767 1.5C15.8829 1.5 18.4929 4.11 18.4929 7.31625C18.4929 10.5225 15.8829 13.1325 12.6767 13.1325C9.72916 13.1325 7.29166 10.9275 6.91291 8.085L7.24291 8.325C7.31041 8.37375 7.38541 8.39625 7.46041 8.39625C7.57666 8.39625 7.69291 8.34375 7.76416 8.23875C7.88416 8.07 7.84666 7.8375 7.67791 7.71375L6.70291 7.0125C6.57166 6.91875 6.39541 6.91875 6.26416 7.0125L5.28916 7.71375C5.12041 7.83375 5.08291 8.07 5.20291 8.23875C5.32291 8.4075 5.55916 8.445 5.72791 8.325V8.32125Z" fill="#EB0208"/>
</svg>
