<svg width="24" height="24" viewBox="0 0 24 24" fill="none" xmlns="http://www.w3.org/2000/svg">
<g clip-path="url(#clip0_675_55486)">
<path d="M12 5.62517C12.3884 5.62517 12.7032 5.31035 12.7032 4.92202V2.43753C12.7032 2.0492 12.3884 1.73438 12 1.73438C11.6117 1.73438 11.2969 2.0492 11.2969 2.43753V4.92202C11.2969 5.31035 11.6117 5.62517 12 5.62517Z" fill="#EB0208"/>
<path d="M8.11897 6.82045C8.39353 7.09506 8.83877 7.09511 9.11338 6.82045C9.38798 6.54585 9.38798 6.10066 9.11338 5.82605L7.35661 4.06924C7.08205 3.79463 6.63681 3.79463 6.3622 4.06924C6.0876 4.34384 6.0876 4.78903 6.3622 5.06364L8.11897 6.82045Z" fill="#EB0208"/>
<path d="M15.3758 7.02643C15.5558 7.02643 15.7358 6.9578 15.873 6.82045L17.6298 5.06364C17.9044 4.78903 17.9044 4.34384 17.6298 4.06924C17.3553 3.79463 16.91 3.79463 16.6354 4.06924L14.8786 5.82605C14.4344 6.2703 14.755 7.02643 15.3758 7.02643Z" fill="#EB0208"/>
<path d="M18.1438 14.8596L16.4229 9.3528C16.3312 9.05926 16.0593 8.85938 15.7518 8.85938H8.25142C7.94386 8.85938 7.67202 9.05926 7.58028 9.3528L5.85938 14.8596H18.1438Z" fill="#EB0208"/>
<path d="M22.3809 16.2656C21.5182 16.2656 15.3019 16.2656 14.3942 16.2656C12.5713 22.099 12.7053 21.6349 12.7053 21.7489C12.7053 22.0344 12.9367 22.2659 13.2222 22.2659H23.2831C23.7912 22.2659 24.1086 21.7945 23.9707 21.353L22.3809 16.2656Z" fill="#EB0208"/>
<path d="M11.2725 21.5948L9.6071 16.2656C8.64621 16.2656 2.46139 16.2656 1.62041 16.2656L0.0354022 21.3376C-0.115917 21.8218 0.238755 22.2659 0.70176 22.2659H10.7791C11.1275 22.2659 11.3764 21.9274 11.2725 21.5948Z" fill="#EB0208"/>
</g>
<defs>
<clipPath id="clip0_675_55486">
<rect width="24" height="24" fill="white"/>
</clipPath>
</defs>
</svg>
