<svg width="24" height="24" viewBox="0 0 24 24" fill="none" xmlns="http://www.w3.org/2000/svg">
<g clip-path="url(#clip0_675_55459)">
<path d="M18.2558 4.09791C18.2558 3.53484 18.0361 3.00478 17.6378 2.60653L15.6493 0.618C15.2566 0.225234 14.6991 0 14.1443 0H14.0234V4.21875H18.2559L18.2558 4.09791Z" fill="#EB0208"/>
<path d="M12.8408 14.5095C12.9754 14.101 13.2102 13.7206 13.5165 13.4123L18.2772 8.67075V5.625H13.3365C12.9479 5.625 12.6562 5.31052 12.6562 4.92188V0H2.10938C0.946219 0 0 0.946219 0 2.10938V21.8906C0 23.0538 0.946219 24 2.10938 24H16.149C17.3122 24 18.2772 23.0538 18.2772 21.8906V16.6429L17.5045 17.3969C17.1914 17.7072 16.8248 17.9331 16.4114 18.0712L14.1757 18.8175L13.8351 18.8361C13.272 18.8361 12.7392 18.5621 12.4082 18.1035C12.08 17.6468 11.9908 17.055 12.1693 16.5201L12.8408 14.5095ZM3.51562 12.6562H10.524C10.9127 12.6562 11.2272 12.9707 11.2272 13.3594C11.2272 13.748 10.9127 14.0625 10.524 14.0625H3.51562C3.12698 14.0625 2.8125 13.748 2.8125 13.3594C2.8125 12.9707 3.12698 12.6562 3.51562 12.6562ZM2.8125 10.5469C2.8125 10.1582 3.12698 9.84375 3.51562 9.84375H10.524C10.9127 9.84375 11.2272 10.1582 11.2272 10.5469C11.2272 10.9355 10.9127 11.25 10.524 11.25H3.51562C3.12698 11.25 2.8125 10.9355 2.8125 10.5469ZM2.8125 16.1719C2.8125 15.7832 3.12698 15.4688 3.51562 15.4688H10.524C10.9127 15.4688 11.2272 15.7832 11.2272 16.1719C11.2272 16.5605 10.9127 16.875 10.524 16.875H3.51562C3.12698 16.875 2.8125 16.5605 2.8125 16.1719ZM13.3365 19.6875C13.7252 19.6875 14.0397 20.002 14.0397 20.3906C14.0397 20.7793 13.7252 21.0938 13.3365 21.0938H9.1178C8.72916 21.0938 8.41467 20.7793 8.41467 20.3906C8.41467 20.002 8.72916 19.6875 9.1178 19.6875H13.3365ZM3.51562 8.4375C3.12698 8.4375 2.8125 8.12302 2.8125 7.73438C2.8125 7.34573 3.12698 7.03125 3.51562 7.03125H13.3365C13.7252 7.03125 14.0397 7.34573 14.0397 7.73438C14.0397 8.12302 13.7252 8.4375 13.3365 8.4375H3.51562Z" fill="#EB0208"/>
<path d="M14.1148 15.1309L13.503 16.9661C13.4114 17.241 13.673 17.5025 13.9479 17.4107L15.782 16.7981L14.1148 15.1309Z" fill="#EB0208"/>
<path d="M19.576 9.3418L14.9453 13.9725L16.9424 15.9696C17.989 14.9228 20.0255 12.8861 21.5729 11.3387L19.576 9.3418Z" fill="#EB0208"/>
<path d="M23.5875 7.32625C23.3403 7.07767 22.9764 6.93555 22.5904 6.93555C22.2045 6.93555 21.8406 7.07767 21.592 7.32695L20.5703 8.34869L22.5671 10.3455C23.1265 9.78606 23.5131 9.39944 23.5889 9.32364C24.1382 8.77356 24.1381 7.87759 23.5875 7.32625Z" fill="#EB0208"/>
<path d="M23.5859 9.32248L23.586 9.32239C23.5878 9.32061 23.5886 9.31981 23.5901 9.31836C23.5886 9.31986 23.5878 9.32066 23.5859 9.32248Z" fill="#EB0208"/>
<path d="M23.5938 9.31873C23.596 9.31648 23.5986 9.31386 23.6 9.3125C23.5986 9.31391 23.596 9.31648 23.5938 9.31873Z" fill="#EB0208"/>
<path d="M23.5938 9.31204C23.5983 9.30749 23.5984 9.3074 23.5938 9.31204V9.31204Z" fill="#EB0208"/>
</g>
<defs>
<clipPath id="clip0_675_55459">
<rect width="24" height="24" fill="white"/>
</clipPath>
</defs>
</svg>
