<svg width="24" height="24" viewBox="0 0 24 24" fill="none" xmlns="http://www.w3.org/2000/svg">
<path d="M10.0538 5.7749C10.0537 4.6406 9.60314 3.55276 8.80107 2.7507C7.99899 1.94863 6.91115 1.49804 5.77685 1.49805C4.64255 1.49805 3.55472 1.94866 2.75265 2.75073C1.95059 3.5528 1.49999 4.64065 1.5 5.77494C1.73962 11.4541 9.81594 11.4485 10.0538 5.7749ZM5.4 8.56119V8.15244C5.10542 8.06997 4.8459 7.89338 4.66106 7.64963C4.47622 7.40588 4.37619 7.10835 4.37625 6.80244C4.37817 6.70425 4.41852 6.61073 4.48864 6.54197C4.55876 6.4732 4.65305 6.43469 4.75126 6.43469C4.84947 6.43469 4.94376 6.47322 5.01388 6.54198C5.08399 6.61075 5.12434 6.70427 5.12625 6.80246C5.12663 6.93114 5.16516 7.05682 5.23696 7.1636C5.30877 7.27038 5.41062 7.35348 5.52965 7.40237C5.64868 7.45127 5.77953 7.46377 5.90567 7.43829C6.0318 7.41282 6.14755 7.35052 6.23827 7.25926C6.329 7.16801 6.39062 7.0519 6.41536 6.92562C6.4401 6.79934 6.42684 6.66856 6.37725 6.54982C6.32766 6.43108 6.24398 6.32971 6.13678 6.25853C6.02958 6.18735 5.90368 6.14955 5.775 6.14992C5.43667 6.14961 5.1099 6.02679 4.85511 5.8042C4.60033 5.5816 4.43476 5.27427 4.38902 4.93905C4.34329 4.60383 4.42049 4.26338 4.60634 3.98067C4.79219 3.69796 5.07412 3.4921 5.4 3.40117V2.98867C5.4 2.88922 5.43951 2.79383 5.50984 2.72351C5.58016 2.65318 5.67554 2.61367 5.775 2.61367C5.87446 2.61367 5.96984 2.65318 6.04017 2.72351C6.11049 2.79383 6.15 2.88922 6.15 2.98867V3.40117C6.44557 3.48245 6.70623 3.65861 6.89189 3.90253C7.07754 4.14646 7.17789 4.44463 7.1775 4.75117C7.1775 4.85063 7.13799 4.94601 7.06767 5.01634C6.99734 5.08666 6.90196 5.12617 6.8025 5.12617C6.70304 5.12617 6.60766 5.08666 6.53734 5.01634C6.46701 4.94601 6.4275 4.85063 6.4275 4.75117C6.42787 4.62249 6.39007 4.49659 6.31889 4.38939C6.24771 4.28219 6.14634 4.19851 6.02759 4.14892C5.90885 4.09933 5.77807 4.08607 5.65179 4.11081C5.52551 4.13555 5.4094 4.19719 5.31814 4.28791C5.22689 4.37864 5.16459 4.49439 5.13912 4.62053C5.11365 4.74667 5.12616 4.87752 5.17506 4.99655C5.22396 5.11558 5.30706 5.21743 5.41385 5.28923C5.52064 5.36103 5.64632 5.39955 5.775 5.39992C6.11207 5.40325 6.43669 5.52776 6.68953 5.7507C6.94237 5.97364 7.10654 6.28012 7.15204 6.61413C7.19754 6.94813 7.12133 7.28736 6.93734 7.5698C6.75334 7.85225 6.47386 8.05905 6.14996 8.15242L6.15 8.56117C6.14819 8.65943 6.10789 8.75305 6.03776 8.8219C5.96764 8.89075 5.87329 8.92932 5.77501 8.92933C5.67674 8.92933 5.58239 8.89076 5.51226 8.82191C5.44213 8.75307 5.40181 8.65945 5.4 8.56119Z" fill="#EB0208"/>
<path d="M21.0219 14.9926C18.3428 12.6027 13.9313 14.5767 13.9532 18.2252C13.9578 19.3582 14.4102 20.4434 15.2117 21.2442C16.0132 22.0451 17.0989 22.4965 18.2319 22.5001C22.184 22.4995 23.996 17.526 21.0219 14.9926ZM15.6257 16.7363C15.6288 16.442 15.7479 16.1608 15.9572 15.9538C16.1664 15.7468 16.4489 15.6307 16.7432 15.6307C17.0375 15.6307 17.32 15.7468 17.5292 15.9538C17.7384 16.1609 17.8575 16.442 17.8607 16.7364C17.8574 17.0306 17.7382 17.3116 17.5289 17.5184C17.3197 17.7253 17.0374 17.8413 16.7432 17.8413C16.449 17.8413 16.1666 17.7253 15.9574 17.5184C15.7482 17.3116 15.629 17.0305 15.6257 16.7363ZM17.0094 19.9763C16.9383 20.044 16.8435 20.0812 16.7454 20.0798C16.6472 20.0784 16.5535 20.0387 16.4843 19.969C16.4151 19.8993 16.376 19.8053 16.3753 19.7071C16.3746 19.609 16.4125 19.5144 16.4807 19.4438L19.4506 16.4738C19.5212 16.4055 19.6158 16.3675 19.7141 16.3681C19.8124 16.3687 19.9065 16.4078 19.9762 16.4771C20.0459 16.5463 20.0857 16.6402 20.087 16.7384C20.0883 16.8367 20.051 16.9315 19.9831 17.0026L17.0094 19.9763ZM19.7169 20.8276C19.4228 20.8241 19.142 20.7048 18.9353 20.4956C18.7286 20.2864 18.6126 20.0042 18.6126 19.7101C18.6126 19.416 18.7286 19.1337 18.9353 18.9245C19.142 18.7153 19.4229 18.5961 19.7169 18.5926C20.0111 18.5959 20.2922 18.7151 20.499 18.9243C20.7059 19.1335 20.8219 19.4159 20.8219 19.7101C20.8219 20.0043 20.7059 20.2866 20.499 20.4959C20.2921 20.7051 20.0111 20.8242 19.7169 20.8276Z" fill="#EB0208"/>
<path d="M11.7238 9.85938H8.75C8.65064 9.85967 8.55543 9.89928 8.48516 9.96954C8.4149 10.0398 8.3753 10.135 8.375 10.2344V19.1519C8.37483 19.2012 8.38441 19.25 8.4032 19.2956C8.42198 19.3412 8.4496 19.3826 8.48445 19.4175C8.51931 19.4523 8.56072 19.4799 8.60629 19.4987C8.65187 19.5175 8.70071 19.5271 8.75 19.5269H11.7238C11.773 19.5271 11.8219 19.5175 11.8675 19.4987C11.913 19.4799 11.9544 19.4523 11.9893 19.4175C12.0242 19.3826 12.0518 19.3412 12.0706 19.2956C12.0893 19.25 12.0989 19.2012 12.0988 19.1519V10.2344C12.0985 10.135 12.0589 10.0398 11.9886 9.96955C11.9183 9.89928 11.8231 9.85967 11.7238 9.85938Z" fill="#EB0208"/>
<path d="M7.27063 11.3477H4.29688C4.24758 11.3475 4.19874 11.3571 4.15317 11.3759C4.10759 11.3946 4.06619 11.4223 4.03133 11.4571C3.99647 11.492 3.96886 11.5334 3.95007 11.5789C3.93129 11.6245 3.92171 11.6734 3.92188 11.7227V19.1514C3.92171 19.2007 3.93129 19.2495 3.95007 19.2951C3.96886 19.3407 3.99647 19.3821 4.03133 19.417C4.06619 19.4518 4.10759 19.4794 4.15317 19.4982C4.19874 19.517 4.24758 19.5266 4.29688 19.5264H7.27063C7.31992 19.5266 7.36876 19.517 7.41434 19.4982C7.45991 19.4794 7.50132 19.4518 7.53617 19.417C7.57103 19.3821 7.59865 19.3407 7.61743 19.2951C7.63622 19.2495 7.6458 19.2007 7.64563 19.1514V11.7227C7.6458 11.6734 7.63622 11.6245 7.61743 11.5789C7.59865 11.5334 7.57103 11.492 7.53617 11.4571C7.50132 11.4223 7.45991 11.3946 7.41434 11.3759C7.36876 11.3571 7.31992 11.3475 7.27063 11.3477Z" fill="#EB0208"/>
<path d="M16.5597 13.4806V8.74805C16.5594 8.64868 16.5198 8.55347 16.4495 8.48321C16.3793 8.41295 16.2841 8.37334 16.1847 8.37305H13.2109C13.1116 8.37334 13.0164 8.41295 12.9461 8.48321C12.8758 8.55347 12.8362 8.64868 12.8359 8.74805V19.1505C12.8422 19.4519 13.1092 19.5552 13.3722 19.5256C13.3122 19.3078 13.2684 19.086 13.241 18.8618C13.0999 17.7212 13.3517 16.5665 13.9551 15.5882C14.5584 14.61 15.4771 13.8665 16.5597 13.4806Z" fill="#EB0208"/>
<path d="M21.0206 14.0516V5.77539C21.0203 5.67602 20.9807 5.58081 20.9105 5.51054C20.8402 5.44028 20.745 5.40068 20.6456 5.40039H17.6719C17.5725 5.40069 17.4773 5.44029 17.407 5.51055C17.3368 5.58082 17.2972 5.67603 17.2969 5.77539V13.2866C18.5905 13.0383 19.9297 13.3134 21.0206 14.0516Z" fill="#EB0208"/>
<path d="M17.11 16.7357C17.1082 16.6394 17.0687 16.5477 17 16.4803C16.9313 16.4128 16.8388 16.375 16.7425 16.375C16.6462 16.375 16.5538 16.4128 16.485 16.4802C16.4163 16.5477 16.3768 16.6394 16.375 16.7357C16.3768 16.832 16.4163 16.9237 16.485 16.9912C16.5537 17.0586 16.6462 17.0964 16.7425 17.0964C16.8388 17.0964 16.9312 17.0587 17 16.9912C17.0687 16.9237 17.1082 16.832 17.11 16.7357Z" fill="#EB0208"/>
<path d="M19.3438 19.7103C19.3455 19.8066 19.385 19.8983 19.4538 19.9658C19.5225 20.0332 19.6149 20.071 19.7112 20.071C19.8075 20.071 19.9 20.0333 19.9687 19.9658C20.0374 19.8984 20.077 19.8066 20.0787 19.7103C20.077 19.6141 20.0375 19.5223 19.9687 19.4549C19.9 19.3874 19.8076 19.3496 19.7113 19.3496C19.615 19.3496 19.5225 19.3874 19.4538 19.4548C19.3851 19.5223 19.3455 19.614 19.3438 19.7103Z" fill="#EB0208"/>
</svg>
