<svg width="105" height="17" viewBox="0 0 105 17" fill="none" xmlns="http://www.w3.org/2000/svg">
<path d="M2.38005 13.4563L1.59884 14.0691L1.26562 13.1342L2.04683 12.5215L2.38005 13.4563Z" fill="#F7D909"/>
<mask id="mask0_2345_25029" style="mask-type:luminance" maskUnits="userSpaceOnUse" x="7" y="6" width="4" height="5">
<path d="M9.89052 6.36914L7.47656 8.26106L8.40401 10.8972L10.818 9.00339L9.89052 6.36914Z" fill="white"/>
</mask>
<g mask="url(#mask0_2345_25029)">
<path d="M7.47656 10.5605L10.818 10.7827V10.8975H7.47656V10.5605Z" fill="#E7C012"/>
<path d="M7.47656 10.4629L10.818 10.685V10.7831L7.47656 10.561V10.4629Z" fill="#E7C012"/>
<path d="M7.47656 10.3652L10.818 10.5874V10.6855L7.47656 10.4633V10.3652Z" fill="#E7C112"/>
<path d="M7.47656 10.2676L10.818 10.4897V10.5878L7.47656 10.3657V10.2676Z" fill="#E8C211"/>
<path d="M7.47656 10.166L10.818 10.39V10.4881L7.47656 10.266V10.166Z" fill="#E8C311"/>
<path d="M7.47656 10.0684L10.818 10.2905V10.3905L7.47656 10.1665V10.0684Z" fill="#E9C411"/>
<path d="M7.47656 9.9707L10.818 10.1928V10.291L7.47656 10.0688V9.9707Z" fill="#E9C510"/>
<path d="M7.47656 9.87305L10.818 10.0952V10.1933L7.47656 9.97116V9.87305Z" fill="#EAC610"/>
<path d="M7.47656 9.77539L10.818 9.99753V10.0956L7.47656 9.8735V9.77539Z" fill="#EAC710"/>
<path d="M7.47656 9.67383L10.818 9.89782V9.99594L7.47656 9.77379V9.67383Z" fill="#EBC810"/>
<path d="M7.47656 9.57617L10.818 9.79832V9.89828L7.47656 9.67429V9.57617Z" fill="#EBC90F"/>
<path d="M7.47656 9.47852L10.818 9.70066V9.79877L7.47656 9.57663V9.47852Z" fill="#ECCA0F"/>
<path d="M7.47656 9.38086L10.818 9.603V9.70112L7.47656 9.47897V9.38086Z" fill="#ECCB0F"/>
<path d="M7.47656 9.2832L10.818 9.50535V9.60346L7.47656 9.38132V9.2832Z" fill="#ECCC0E"/>
<path d="M7.47656 9.18164L10.818 9.40378V9.50375L7.47656 9.28161V9.18164Z" fill="#EDCD0E"/>
<path d="M7.47656 9.08398L10.818 9.30613V9.40424L7.47656 9.1821V9.08398Z" fill="#EDCE0E"/>
<path d="M7.47656 8.98633L10.818 9.20847V9.30658L7.47656 9.08444V8.98633Z" fill="#EECF0D"/>
<path d="M7.47656 8.88867L10.818 9.11082V9.20893L7.47656 8.98679V8.88867Z" fill="#EED00D"/>
<path d="M7.47656 8.78711L10.818 9.0111V9.10922L7.47656 8.88707V8.78711Z" fill="#EFD20D"/>
<path d="M7.47656 8.68945L10.818 8.9116V9.01156L7.47656 8.78757V8.68945Z" fill="#EFD30D"/>
<path d="M7.47656 8.5918L10.818 8.81394V8.91205L7.47656 8.68991V8.5918Z" fill="#F0D40C"/>
<path d="M7.47656 8.49414L10.818 8.71628V8.8144L7.47656 8.59225V8.49414Z" fill="#F0D50C"/>
<path d="M7.47656 8.39648L10.818 8.61863V8.71674L7.47656 8.4946V8.39648Z" fill="#F1D60C"/>
<path d="M7.47656 8.29492L10.818 8.51892V8.61703L7.47656 8.39489V8.29492Z" fill="#F1D70B"/>
<path d="M7.47656 8.19727L10.818 8.41941V8.51937L7.47656 8.29538V8.19727Z" fill="#F1D80B"/>
<path d="M7.47656 8.09961L10.818 8.32175V8.41987L7.47656 8.19772V8.09961Z" fill="#F2D90B"/>
<path d="M7.47656 8.00195L10.818 8.2241V8.32221L7.47656 8.10007V8.00195Z" fill="#F2DA0A"/>
<path d="M7.47656 7.9043L10.818 8.12644V8.22455L7.47656 8.00241V7.9043Z" fill="#F3DB0A"/>
<path d="M7.47656 7.80273L10.818 8.02488V8.12486L7.47656 7.90272V7.80273Z" fill="#F3DC0A"/>
<path d="M7.47656 7.70508L10.818 7.92722V8.02533L7.47656 7.80319V7.70508Z" fill="#F4DD0A"/>
<path d="M7.47656 7.60742L10.818 7.82957V7.92768L7.47656 7.70554V7.60742Z" fill="#F4DE09"/>
<path d="M7.47656 7.50977L10.818 7.73191V7.83002L7.47656 7.60788V7.50977Z" fill="#F5DF09"/>
<path d="M7.47656 7.4082L10.818 7.6322V7.73031L7.47656 7.50817V7.4082Z" fill="#F5E009"/>
<path d="M7.47656 7.31055L10.818 7.53269V7.63265L7.47656 7.40866V7.31055Z" fill="#F6E108"/>
<path d="M7.47656 7.21289L10.818 7.43503V7.53315L7.47656 7.311V7.21289Z" fill="#F6E208"/>
<path d="M10.818 7.43358L7.47656 7.21143V6.36914H10.818V7.43358Z" fill="#F6E208"/>
</g>
<path d="M7.0797 8.57227L2.39062 12.2506L2.72014 13.1873L7.41292 9.50712L7.0797 8.57227Z" fill="#C1C1C1"/>
<mask id="mask1_2345_25029" style="mask-type:luminance" maskUnits="userSpaceOnUse" x="1" y="6" width="4" height="6">
<path d="M3.52333 6.72461L1.10938 8.61838L2.19418 11.6969L4.60814 9.80315L3.52333 6.72461Z" fill="white"/>
</mask>
<g mask="url(#mask1_2345_25029)">
<path d="M4.60562 6.84884L4.28906 6.72852H4.60562V6.84884Z" fill="#8E8E90"/>
<path d="M4.6087 7.0173L3.85156 6.72852H4.29215L4.6087 6.84884V7.0173Z" fill="#8F8F91"/>
<path d="M4.60788 7.18391L3.41016 6.72852H3.85074L4.60788 7.0173V7.18391Z" fill="#909092"/>
<path d="M4.60706 7.35237L2.96875 6.72852H3.40933L4.60706 7.18391V7.35237Z" fill="#919193"/>
<path d="M4.60624 7.52083L2.52734 6.72852H2.96793L4.60624 7.35237V7.52083Z" fill="#919193"/>
<path d="M4.60542 7.68744L2.08594 6.72852H2.52652L4.60542 7.52083V7.68744Z" fill="#929294"/>
<path d="M4.60665 7.85589L1.64844 6.72852H2.08717L4.60665 7.68744V7.85589Z" fill="#939395"/>
<path d="M4.60882 8.0225L1.40625 6.80441L1.43587 6.72852H1.65061L4.60882 7.85589V8.0225Z" fill="#949496"/>
<path d="M4.60967 8.18928L1.35156 6.94898L1.4071 6.80273L4.60967 8.02082V8.18928Z" fill="#959597"/>
<path d="M4.61052 8.35808L1.29688 7.09742L1.35241 6.95117L4.61052 8.19147V8.35808Z" fill="#969698"/>
<path d="M4.60746 8.52483L1.23828 7.24195L1.29382 7.0957L4.60746 8.35637V8.52483Z" fill="#979799"/>
<path d="M4.60831 8.68972L1.18359 7.38648L1.23913 7.24023L4.60831 8.52311V8.68972Z" fill="#98989A"/>
<path d="M4.60525 8.86037L1.125 7.53492L1.18054 7.38867L4.60525 8.69191V8.86037Z" fill="#99999B"/>
<path d="M4.60814 9.02712L1.10938 7.69426V7.57948L1.12789 7.5332L4.60814 8.85866V9.02712Z" fill="#9A9A9C"/>
<path d="M4.60814 9.19673L1.10938 7.86573V7.69727L4.60814 9.03013V9.19673Z" fill="#9B9B9D"/>
<path d="M4.60814 9.3647L1.10938 8.03369V7.86523L4.60814 9.19624V9.3647Z" fill="#9C9C9E"/>
<path d="M4.60814 9.53082L1.10938 8.19981V8.0332L4.60814 9.36421V9.53082Z" fill="#9D9D9F"/>
<path d="M4.60814 9.70064L1.10938 8.36963V8.20117L4.60814 9.53218V9.70064Z" fill="#9E9EA0"/>
<path d="M4.60814 9.86676L1.10938 8.53575V8.36914L4.60814 9.70015V9.86676Z" fill="#9F9FA1"/>
<path d="M4.60814 10.0327L1.10938 8.70166V8.5332L4.60814 9.86421V10.0327Z" fill="#A0A0A2"/>
<path d="M4.60814 10.2006L1.10938 8.86778V8.70117L4.60814 10.0322V10.2006Z" fill="#A1A1A3"/>
<path d="M4.60814 10.3686L1.10938 9.0376V8.86914L4.60814 10.202V10.3686Z" fill="#A2A3A5"/>
<path d="M4.60814 10.5366L1.10938 9.20372V9.03711L4.60814 10.3681V10.5366Z" fill="#A3A4A6"/>
<path d="M4.60814 10.7045L1.10938 9.37354V9.20508L4.60814 10.5379V10.7045Z" fill="#A4A5A7"/>
<path d="M4.60814 10.8466L4.60073 10.8688L1.10938 9.54151V9.37305L4.60814 10.7041V10.8466Z" fill="#A5A6A8"/>
<path d="M4.60073 10.8683L4.54519 11.0146L1.10938 9.70762V9.54102L4.60073 10.8683Z" fill="#A6A7A9"/>
<path d="M4.54519 11.0159L4.48781 11.1622L1.10938 9.87744V9.70898L4.54519 11.0159Z" fill="#A8A8AA"/>
<path d="M4.48781 11.1617L4.43227 11.3079L1.10938 10.0436V9.87695L4.48781 11.1617Z" fill="#A9AAAC"/>
<path d="M4.43227 11.3054L4.37674 11.4535L1.10938 10.2095V10.041L4.43227 11.3054Z" fill="#AAABAD"/>
<path d="M4.37674 11.4569L4.3212 11.6031L1.10938 10.3795V10.2129L4.37674 11.4569Z" fill="#ABACAE"/>
<path d="M4.3212 11.6006L4.28418 11.6987H4.13978L1.10938 10.5454V10.377L4.3212 11.6006Z" fill="#ACADAF"/>
<path d="M3.6992 11.6982L1.10938 10.7134V10.5449L4.13978 11.6982H3.6992Z" fill="#ADAEB0"/>
<path d="M3.25861 11.6977L1.10938 10.8795V10.7129L3.6992 11.6977H3.25861Z" fill="#AFB0B2"/>
<path d="M2.81803 11.6991L1.10938 11.0493V10.8809L3.25861 11.6991H2.81803Z" fill="#B0B1B3"/>
<path d="M2.37744 11.6986L1.10938 11.2154V11.0488L2.81803 11.6986H2.37744Z" fill="#B1B2B4"/>
<path d="M1.10938 11.2168L2.37744 11.7H1.10938V11.2168Z" fill="#B1B2B4"/>
</g>
<mask id="mask2_2345_25029" style="mask-type:luminance" maskUnits="userSpaceOnUse" x="0" y="9" width="12" height="8">
<path d="M10.817 9.00586L0.683594 16.9549H5.82436L11.9315 12.164L10.817 9.00586Z" fill="white"/>
</mask>
<g mask="url(#mask2_2345_25029)">
<path d="M1.19452 9.00586H0.683594V16.953H1.19452V9.00586Z" fill="#F6CC08"/>
<path d="M1.70624 9.00586H1.19531V16.953H1.70624V9.00586Z" fill="#F6CD08"/>
<path d="M2.21796 9.00586H1.70703V16.953H2.21796V9.00586Z" fill="#F6CE08"/>
<path d="M2.72968 9.00586H2.21875V16.953H2.72968V9.00586Z" fill="#F6CF08"/>
<path d="M3.2414 9.00586H2.73047V16.953H3.2414V9.00586Z" fill="#F6D008"/>
<path d="M3.74921 9.00586H3.23828V16.953H3.74921V9.00586Z" fill="#F6D108"/>
<path d="M4.26093 9.00586H3.75V16.953H4.26093V9.00586Z" fill="#F6D208"/>
<path d="M4.77265 9.00586H4.26172V16.953H4.77265V9.00586Z" fill="#F6D308"/>
<path d="M5.28437 9.00586H4.77344V16.953H5.28437V9.00586Z" fill="#F6D408"/>
<path d="M5.79609 9.00586H5.28516V16.953H5.79609V9.00586Z" fill="#F6D508"/>
<path d="M6.30781 9.00586H5.79688V16.953H6.30781V9.00586Z" fill="#F6D608"/>
<path d="M6.81562 9.00586H6.30469V16.953H6.81562V9.00586Z" fill="#F6D808"/>
<path d="M7.32734 9.00586H6.81641V16.953H7.32734V9.00586Z" fill="#F6D908"/>
<path d="M7.83905 9.00586H7.32812V16.953H7.83905V9.00586Z" fill="#F6DA08"/>
<path d="M8.35077 9.00586H7.83984V16.953H8.35077V9.00586Z" fill="#F6DB08"/>
<path d="M8.86249 9.00586H8.35156V16.953H8.86249V9.00586Z" fill="#F6DC08"/>
<path d="M9.37421 9.00586H8.86328V16.953H9.37421V9.00586Z" fill="#F6DD08"/>
<path d="M9.88593 9.00586H9.375V16.953H9.88593V9.00586Z" fill="#F6DE08"/>
<path d="M10.3976 9.00586H9.88672V16.953H10.3976V9.00586Z" fill="#F6DF08"/>
<path d="M10.9094 9.00586H10.3984V16.953H10.9094V9.00586Z" fill="#F6E008"/>
<path d="M11.4172 9.00586H10.9062V16.953H11.4172V9.00586Z" fill="#F6E108"/>
<path d="M11.9289 9.00586H11.418V16.953H11.9289V9.00586Z" fill="#F6E208"/>
</g>
<mask id="mask3_2345_25029" style="mask-type:luminance" maskUnits="userSpaceOnUse" x="0" y="0" width="12" height="9">
<path d="M6.03675 0.732422L0 5.46778L1.11072 8.62222L11.1701 0.732422H6.03675Z" fill="white"/>
</mask>
<g mask="url(#mask3_2345_25029)">
<path d="M11.1721 1.22669L10.0503 2.10416L8.97656 0.732422H11.1721V1.22669Z" fill="#8E8E90"/>
<path d="M10.0482 2.10416L9.80382 2.29483L8.58203 0.732422H8.97448L10.0482 2.10416Z" fill="#8E8E90"/>
<path d="M9.80359 2.29483L9.55924 2.4855L8.1875 0.732422H8.5818L9.80359 2.29483Z" fill="#8E8E90"/>
<path d="M9.55901 2.4855L9.31465 2.67803L7.79297 0.732422H8.18727L9.55901 2.4855Z" fill="#8F8F91"/>
<path d="M9.31443 2.67803L9.07007 2.8687L7.39844 0.732422H7.79274L9.31443 2.67803Z" fill="#909092"/>
<path d="M9.06984 2.8687L8.82548 3.05937L7.00391 0.732422H7.39821L9.06984 2.8687Z" fill="#919193"/>
<path d="M8.82731 3.05937L8.5811 3.25005L6.61328 0.732422H7.00573L8.82731 3.05937Z" fill="#919193"/>
<path d="M8.58088 3.25005L8.33652 3.44257L6.21875 0.732422H6.61305L8.58088 3.25005Z" fill="#929294"/>
<path d="M8.33629 3.44257L8.09193 3.63325L5.82422 0.732422H6.21852L8.33629 3.44257Z" fill="#939395"/>
<path d="M8.08986 3.63325L7.8455 3.82392L5.42969 0.734273L5.43339 0.732422H5.82214L8.08986 3.63325Z" fill="#949496"/>
<path d="M5.43247 0.732422L5.1875 0.924022L7.60301 4.01242L7.848 3.82082L5.43247 0.732422Z" fill="#959597"/>
<path d="M5.19028 0.923828L4.94531 1.11543L7.36083 4.20381L7.6058 4.01221L5.19028 0.923828Z" fill="#969698"/>
<path d="M4.94419 1.11523L4.69922 1.30683L7.11473 4.39523L7.3597 4.20364L4.94419 1.11523Z" fill="#979799"/>
<path d="M4.69809 1.30664L4.45312 1.49824L6.86864 4.58663L7.11361 4.39503L4.69809 1.30664Z" fill="#98989A"/>
<path d="M4.45591 1.49805L4.21094 1.68965L6.62645 4.77804L6.87144 4.58644L4.45591 1.49805Z" fill="#99999B"/>
<path d="M4.21372 1.68945L3.96875 1.88105L6.38426 4.96944L6.62923 4.77784L4.21372 1.68945Z" fill="#9A9A9C"/>
<path d="M3.96762 1.88086L3.72266 2.07246L6.13817 5.16085L6.38314 4.96926L3.96762 1.88086Z" fill="#9B9B9D"/>
<path d="M3.72153 2.06836L3.47656 2.25996L5.89208 5.34835L6.13705 5.15675L3.72153 2.06836Z" fill="#9C9C9E"/>
<path d="M3.47934 2.25977L3.23438 2.45136L5.64989 5.53976L5.89486 5.34817L3.47934 2.25977Z" fill="#9D9D9F"/>
<path d="M3.23325 2.45508L2.98828 2.64667L5.4038 5.73508L5.64876 5.54346L3.23325 2.45508Z" fill="#9E9EA0"/>
<path d="M2.98716 2.64258L2.74219 2.83418L5.1577 5.92258L5.40267 5.73098L2.98716 2.64258Z" fill="#9F9FA1"/>
<path d="M2.74497 2.83398L2.5 3.02558L4.91551 6.11397L5.16048 5.92237L2.74497 2.83398Z" fill="#A0A0A2"/>
<path d="M2.49887 3.02539L2.25391 3.21699L4.66942 6.30538L4.91439 6.11378L2.49887 3.02539Z" fill="#A1A1A3"/>
<path d="M2.2528 3.2168L2.00781 3.4084L4.42335 6.49678L4.66831 6.30518L2.2528 3.2168Z" fill="#A2A3A5"/>
<path d="M2.0106 3.4082L1.76562 3.5998L4.18115 6.68819L4.42612 6.49659L2.0106 3.4082Z" fill="#A3A4A6"/>
<path d="M1.76841 3.59961L1.52344 3.79121L3.93896 6.8796L4.18393 6.688L1.76841 3.59961Z" fill="#A4A5A7"/>
<path d="M1.52232 3.79102L1.27734 3.98261L3.69286 7.071L3.93785 6.8794L1.52232 3.79102Z" fill="#A5A6A8"/>
<path d="M1.27622 3.98242L1.03125 4.17402L3.44677 7.26243L3.69174 7.07081L1.27622 3.98242Z" fill="#A6A7A9"/>
<path d="M1.03403 4.17383L0.789062 4.36543L3.20458 7.45381L3.44955 7.26222L1.03403 4.17383Z" fill="#A8A8AA"/>
<path d="M0.787941 4.36523L0.542969 4.55683L2.95849 7.64522L3.20346 7.45362L0.787941 4.36523Z" fill="#A9AAAC"/>
<path d="M0.541847 4.55664L0.296875 4.74824L2.71239 7.83663L2.95736 7.64503L0.541847 4.55664Z" fill="#AAABAD"/>
<path d="M0.29966 4.74805L0.0546875 4.93965L2.47021 8.02803L2.71518 7.83643L0.29966 4.74805Z" fill="#ABACAE"/>
<path d="M2.47135 8.0291L2.22699 8.21977L0 5.37263V4.98203L0.0555359 4.93945L2.47135 8.0291Z" fill="#ACADAF"/>
<path d="M2.22699 8.22019L1.98078 8.41086L0 5.87657V5.37305L2.22699 8.22019Z" fill="#ADAEB0"/>
<path d="M1.98078 8.41124L1.73642 8.60376L0 6.38233V5.87695L1.98078 8.41124Z" fill="#AFB0B2"/>
<path d="M1.73642 8.60229L1.71236 8.62081H1.35878L0 6.88438V6.38086L1.73642 8.60229Z" fill="#B0B1B3"/>
<path d="M0.964473 8.62119L0 7.38829V6.88477L1.35878 8.62119H0.964473Z" fill="#B1B2B4"/>
<path d="M0 7.38867L0.964473 8.62157H0V7.38867Z" fill="#B1B2B4"/>
</g>
<path d="M60.6495 7.76326C59.4351 7.61887 58.9612 7.37822 58.9612 6.90431C58.9612 6.33044 59.5351 5.98612 60.4977 5.98612C61.3492 5.98612 62.0675 6.41744 62.31 6.82286L62.4007 6.9728L63.9687 6.16568L63.8872 6.00093C63.3226 4.85133 62.1342 4.24414 60.4496 4.24414C58.7539 4.2571 57.0434 5.06977 57.0434 6.85618C57.0434 8.88139 58.7798 9.36085 60.4792 9.56263C62.0546 9.73108 62.2378 10.2365 62.2378 10.6011C62.2378 11.5841 60.9161 11.6619 60.5125 11.6619C59.4592 11.6619 58.6484 11.212 58.3448 10.4605L58.267 10.2698L56.625 11.1213L56.6898 11.2805C57.2803 12.7356 58.5243 13.4427 60.4884 13.4427C62.2693 13.4427 64.1705 12.6967 64.1705 10.6048C64.1705 8.513 62.4803 7.99281 60.6532 7.76882L60.6495 7.76326Z" fill="#696969"/>
<path d="M71.0181 7.91257L68.3931 4.30273H66.2031V13.4088H68.2394V7.47939L70.72 10.8689H71.2402L73.7838 7.47939V13.4088H75.8201V4.30273H73.6449L71.0181 7.91257Z" fill="#696969"/>
<path d="M80.7965 4.28711L76.7109 13.3931H78.9213L79.6673 11.7493H83.9695L84.7044 13.3931H86.9277L82.8421 4.28711H80.7947H80.7965ZM83.1383 9.82589H80.5022L81.8202 6.80474L83.1383 9.82589Z" fill="#696969"/>
<path d="M96.9375 4.28711V6.17348H99.7013V13.3931H101.738V6.17348H104.501V4.28711H96.9375Z" fill="#696969"/>
<path d="M96.3802 13.4082L93.5627 10.2371C94.8622 9.85201 95.6008 8.8283 95.6008 7.38622C95.6008 5.94413 94.5586 4.31508 92.2668 4.30212C91.5763 4.30212 90.8858 4.29842 90.1953 4.29657C89.5049 4.29287 88.8125 4.29102 88.122 4.29102H87.9258V13.41H89.9621V10.4981H91.2561L93.7959 13.41H96.3802V13.4082ZM93.5645 7.42324C93.5645 8.00266 93.2239 8.62096 92.2668 8.62096H89.9621V6.22552H92.2668C93.2239 6.22552 93.5645 6.86973 93.5645 7.42324Z" fill="#696969"/>
<path d="M17.1484 7.04102H15.125V13.4128H17.1484V7.04102Z" fill="#696969"/>
<path d="M25.4863 13.41L21.2063 7.91195V13.41H19.1719V4.30397H20.7954L24.7717 9.33737V4.29102H26.8081V13.41H25.4863Z" fill="#696969"/>
<path d="M28.1602 6.19301H30.924V13.4127H32.9603V6.19301H35.7223V4.30664H28.1602V6.19301Z" fill="#696969"/>
<path d="M37.0469 13.4127H43.9611V11.4023H39.0702V9.82876H43.7871V7.90351H39.0702V6.29297H43.9611V4.30664H37.0469V13.4127Z" fill="#696969"/>
<path d="M54.056 13.4082L51.2385 10.2371C52.538 9.85201 53.2766 8.8283 53.2766 7.38622C53.2766 5.94413 52.2344 4.31508 49.9426 4.30212C49.2521 4.30212 48.5616 4.29842 47.8711 4.29657C47.1806 4.29287 46.4883 4.29102 45.7978 4.29102H45.6016V13.41H47.6379V10.4981H48.9319L51.4717 13.41H54.056V13.4082ZM51.2403 7.42324C51.2403 8.00266 50.8997 8.62096 49.9426 8.62096H47.6379V6.22552H49.9426C50.8997 6.22552 51.2403 6.86973 51.2403 7.42324Z" fill="#696969"/>
<path d="M17.1484 4.29102H15.125V6.31437H17.1484V4.29102Z" fill="#F6D808"/>
</svg>
