<svg width="18" height="7" viewBox="0 0 18 7" fill="none" xmlns="http://www.w3.org/2000/svg">
<path d="M17.8818 0.320988C17.7502 0.118519 17.5282 0 17.2893 0H14.4849C14.2435 0 14.0191 0.125927 13.885 0.338272C12.812 2.03704 10.9831 3.04938 8.99808 3.04938C7.01308 3.04938 5.18658 2.03704 4.1136 0.338272C3.97948 0.125927 3.75513 0 3.51371 0H0.70934C0.470358 0 0.248449 0.120988 0.116766 0.320988C-0.0124792 0.518519 -0.036865 0.767901 0.0558011 0.985185C1.57504 4.63951 5.0866 7 9.00052 7C12.9144 7 16.426 4.63951 17.9452 0.985185C18.0355 0.767901 18.0135 0.518519 17.8843 0.320988" fill="#17479E"/>
</svg>
