<svg width="361" height="57" viewBox="0 0 361 57" fill="none" xmlns="http://www.w3.org/2000/svg">
<path d="M52.8841 10.5098H48.2201C46.5465 10.5098 45.183 11.883 45.183 13.5687V26.2288L45.6687 37.7632L26.9659 11.7711C26.3983 10.9813 25.4795 10.5098 24.5081 10.5098H20.0723C18.3987 10.5098 17.0352 11.883 17.0352 13.5687V53.4587C17.0352 55.1443 18.3987 56.5176 20.0723 56.5176H24.789C26.4626 56.5176 27.8261 55.1443 27.8261 53.4587V41.8948L27.5335 29.6414L45.9905 55.2563C46.564 56.0461 47.4828 56.5176 48.4483 56.5176H52.8783C54.5519 56.5176 55.9154 55.1443 55.9154 53.4587V13.5687C55.9154 11.883 54.5519 10.5098 52.8783 10.5098" fill="#17479E"/>
<path d="M103.236 30.572C102.019 19.1437 91.807 10.1614 79.9861 10.1142C76.3169 10.1024 72.6419 10.1083 68.9727 10.1142H65.6488C63.4953 10.1142 62.8984 10.7154 62.8984 12.8844C62.8984 17.4934 62.8984 22.1024 62.8984 26.7174V33.6309V39.1594C62.8984 44.2282 62.8984 49.3028 62.8984 54.3716C62.8984 56.3637 63.4368 56.906 65.4089 56.906H67.8199C69.3999 56.906 70.9741 56.9119 72.5483 56.9119C75.3982 56.9119 78.2422 56.906 81.0921 56.8883C82.3561 56.8765 83.5616 56.7527 84.6852 56.5111C96.7577 53.9649 104.564 43.0553 103.236 30.572ZM72.7648 19.7154C73.6075 19.7036 74.4502 19.6683 75.2811 19.6329C77.6278 19.5327 79.8398 19.4443 81.9933 19.8097C89.2497 21.0356 93.5567 27.0415 92.9598 35.1044C92.4449 42.1064 87.0435 47.2518 79.8222 47.6054C78.0784 47.6879 76.3579 47.6702 74.5262 47.6466C73.941 47.6408 73.3558 47.6349 72.7589 47.629V19.7154H72.7648Z" fill="#17479E"/>
<path d="M187.848 50.5514C187.836 48.3294 187.228 47.7223 185.004 47.7223C181.791 47.7223 178.573 47.7223 175.36 47.7223H170.239V20.1211C170.239 17.7518 170.239 15.3824 170.239 13.0189C170.239 10.7969 169.549 10.1191 167.302 10.1191C166.114 10.1191 164.926 10.1191 163.738 10.1191H163.416C160.946 10.1191 160.344 10.7144 160.344 13.1545V43.8618C160.344 47.3628 160.344 50.8637 160.344 54.3588C160.344 55.0366 160.414 55.8087 160.952 56.351C161.339 56.74 161.877 56.9286 162.603 56.9286H162.608C170.286 56.905 177.97 56.905 185.648 56.9286H185.665C186.385 56.9286 186.917 56.74 187.298 56.3569C187.672 55.9797 187.86 55.4315 187.854 54.736V52.8853C187.854 52.1132 187.854 51.3353 187.854 50.5631" fill="#17479E"/>
<path d="M152.915 41.0572C152.599 40.5739 152.067 40.291 151.493 40.291H144.764C144.184 40.291 143.646 40.5916 143.324 41.0985C140.749 45.1535 136.36 47.57 131.597 47.57C126.833 47.57 122.45 45.1535 119.875 41.0985C119.554 40.5916 119.015 40.291 118.436 40.291H111.706C111.133 40.291 110.6 40.5798 110.284 41.0572C109.974 41.5287 109.915 42.124 110.138 42.6427C113.784 51.3657 122.21 57.0002 131.603 57.0002C140.995 57.0002 149.422 51.3657 153.068 42.6427C153.284 42.124 153.231 41.5287 152.921 41.0572" fill="#EE3824"/>
<path d="M131.599 10.1133C118.795 10.1133 108.379 20.6103 108.379 33.5062C108.379 34.1427 108.408 34.7734 108.461 35.3982L108.513 36.076H154.703L154.755 35.3982C154.802 34.7734 154.832 34.1486 154.832 33.5121C154.832 20.6103 144.409 10.1192 131.605 10.1192M143.73 27.1997H119.468C121.803 22.6437 126.45 19.7616 131.599 19.7616C136.749 19.7616 141.401 22.6496 143.73 27.1997Z" fill="#17479E"/>
<path d="M0.222656 10.1074C0.222656 21.1467 0.222656 42.4119 0.222656 53.463V53.6988C0.222656 53.9404 0.222656 54.1762 0.222656 54.4119C0.222656 55.0779 0.41577 55.6025 0.790294 55.9738C1.15897 56.3334 1.67394 56.5161 2.31765 56.5161H2.36446C3.43537 56.5043 4.50042 56.5102 5.57132 56.5161H7.18646C9.58575 56.5161 10.0715 56.0328 10.0715 53.6634V27.0878C10.0715 24.8363 10.0715 12.3648 10.0715 10.1133H0.222656V10.1074Z" fill="#17479E"/>
<path fill-rule="evenodd" clip-rule="evenodd" d="M0 0L10.077 10.1139V0H0Z" fill="#EE3824"/>
<path d="M258.209 26.1211C249.888 26.1211 243.117 32.9403 243.117 41.3215C243.117 49.7026 249.888 56.5219 258.209 56.5219C266.531 56.5219 273.307 49.7026 273.307 41.3215C273.307 32.9403 266.537 26.1211 258.209 26.1211ZM268.228 41.3215C268.228 46.8794 263.734 51.406 258.209 51.406C252.685 51.406 248.197 46.8853 248.197 41.3215C248.197 35.7576 252.685 31.237 258.209 31.237C263.734 31.237 268.228 35.7635 268.228 41.3215Z" fill="#17479E"/>
<path d="M234.242 26.1504C233.721 26.1504 233.271 26.3979 233.013 26.8223C231.749 28.9028 230.45 31.0011 229.186 33.0404L223.246 42.6416L220.414 38.0679C218.091 34.3135 215.767 30.5531 213.415 26.781C213.263 26.5276 213.029 26.1504 212.461 26.1504H208.008V56.5217H213.07V35.0384C215.054 38.2624 220.408 47.2447 221.397 48.9009C221.614 49.2604 221.994 49.4785 222.409 49.4785H224.066C224.487 49.4785 224.867 49.2604 225.078 48.9009C225.136 48.8007 231.129 38.6985 232.867 35.8636C233.048 35.5689 233.23 35.2742 233.411 34.9913V56.5217H238.444V26.1622H235.904C235.348 26.1681 234.804 26.1622 234.248 26.1504" fill="#17479E"/>
<path d="M357.729 26.1504C356.137 26.1504 354.65 27.0109 353.843 28.3901L347.172 39.618C346.294 38.1033 342.508 31.561 341.32 29.5512L340.74 28.4962C339.945 27.0463 338.435 26.1445 336.79 26.1445H333.203L333.665 26.7398C333.859 27.064 333.993 27.2879 334.134 27.5119L335.638 29.9166C338.405 34.3371 341.367 39.0817 344.287 43.8027C344.556 44.2388 344.702 44.7398 344.702 45.2467C344.731 47.8636 344.726 54.6416 344.726 56.1386V56.5217H349.747V56.0797C349.747 53.899 349.747 47.7162 349.764 45.1701C349.764 44.7221 349.893 44.286 350.127 43.9029C351.596 41.5217 353.012 39.2526 354.451 36.9481L356.687 33.3587C357.301 32.3449 360.397 27.2703 360.69 26.7221L361 26.1563H357.729V26.1504Z" fill="#17479E"/>
<path d="M298.384 48.4713L298.343 48.4183C298.261 48.3122 298.197 48.2238 298.138 48.1295L294.639 43.1314C293.551 41.5755 292.462 40.0254 291.374 38.4753L291.145 38.157C288.828 34.8564 286.429 31.4438 284.082 28.0666C283.193 26.7935 282.256 26.1629 281.226 26.1452C280.653 26.1393 279.482 26.1452 278.809 26.1452H277.984V56.5165H282.982V34.9094C283.087 35.045 283.169 35.1511 283.239 35.2513L286.464 39.8544C289.565 44.2808 295.458 52.1138 297.606 55.1963C298.185 56.0273 299.133 56.5224 300.146 56.5224H300.936H303.434V26.1511H298.378V48.4713H298.384Z" fill="#17479E"/>
<path d="M313.986 43.6437H319.767C321.704 43.6437 323.647 43.6437 325.584 43.6378C326.901 43.6378 327.679 43.237 328.106 42.347C328.563 41.3922 328.498 40.3785 328.434 39.406V39.0229H313.98V30.7478H329.61V26.1211H308.812V56.5219H329.985V51.9423H313.98V43.6496L313.986 43.6437Z" fill="#17479E"/>
</svg>
