<svg width="16" height="18" viewBox="0 0 16 18" fill="none" xmlns="http://www.w3.org/2000/svg">
<path d="M2.02862 6.06641H1.98537C1.43097 6.06641 0.978943 6.5339 0.978943 7.10396V11.6213C0.978943 12.1936 1.43097 12.6596 1.98537 12.6596H2.02935C2.58375 12.6596 3.03578 12.1921 3.03578 11.6213V7.10392C3.03504 6.5339 2.58231 6.06641 2.02862 6.06641Z" fill="white"/>
<path d="M3.51974 13.3651C3.51974 13.8898 3.93571 14.3172 4.44469 14.3172H5.4331V16.7572C5.4331 17.3302 5.88656 17.7962 6.43952 17.7962H6.48277C7.0379 17.7962 7.49063 17.3295 7.49063 16.7572V14.3172H8.87195V16.7572C8.87195 17.3302 9.32685 17.7962 9.87981 17.7962H9.92236C10.4775 17.7962 10.9295 17.3295 10.9295 16.7572V14.3172H11.9186C12.4268 14.3172 12.8428 13.8898 12.8428 13.3651V6.23236H3.51974V13.3651Z" fill="white"/>
<path d="M10.5014 1.90606L11.2865 0.656714C11.337 0.577915 11.3146 0.470173 11.2375 0.418869C11.1611 0.366842 11.0565 0.388411 11.0068 0.469415L10.1929 1.7619C9.58225 1.504 8.90025 1.35908 8.18002 1.35908C7.45908 1.35908 6.77852 1.504 6.16647 1.7619L5.35399 0.469415C5.30426 0.388411 5.19898 0.366842 5.12184 0.418869C5.0447 0.470139 5.02234 0.577915 5.07281 0.656714L5.85862 1.90606C4.44198 2.6218 3.48676 3.97076 3.48676 5.51815C3.48676 5.61328 3.49254 5.70693 3.50046 5.79982H12.8603C12.8682 5.70693 12.8732 5.61328 12.8732 5.51815C12.8733 3.97076 11.9173 2.6218 10.5014 1.90606ZM6.01002 4.14317C5.7613 4.14317 5.55943 3.93654 5.55943 3.67941C5.55943 3.42227 5.7613 3.21636 6.01002 3.21636C6.26018 3.21636 6.46061 3.42223 6.46061 3.67941C6.46061 3.93658 6.25874 4.14317 6.01002 4.14317ZM10.3493 4.14317C10.1006 4.14317 9.89872 3.93654 9.89872 3.67941C9.89872 3.42227 10.1006 3.21636 10.3493 3.21636C10.5987 3.21636 10.7992 3.42223 10.7992 3.67941C10.7992 3.93654 10.5987 4.14317 10.3493 4.14317Z" fill="white"/>
<path d="M14.3704 6.06641H14.3286C13.7742 6.06641 13.3207 6.5339 13.3207 7.10396V11.6213C13.3207 12.1936 13.7749 12.6596 14.3286 12.6596H14.3711C14.9262 12.6596 15.3776 12.1921 15.3776 11.6213V7.10392C15.3776 6.5339 14.9248 6.06641 14.3704 6.06641Z" fill="white"/>
</svg>
