<svg width="16" height="16" viewBox="0 0 16 16" fill="none" xmlns="http://www.w3.org/2000/svg">
<path d="M4.73155 8.54779H4.05887C3.8824 8.54779 3.7231 8.65285 3.65329 8.81467L1.79111 13.1507L6.21356 10.892C5.68416 10.1595 5.16036 9.35151 4.73155 8.54779Z" fill="white"/>
<path d="M13.2873 8.81467C13.2176 8.65285 13.0582 8.54779 12.8818 8.54779H12.2091C11.3993 10.0653 10.2196 11.6335 9.46906 12.4962C8.94126 13.1016 7.9985 13.1009 7.4715 12.4962C7.4176 12.4343 7.13618 12.1085 6.74857 11.6075L5.95126 12.0149L8.96724 15.025L14.682 12.0624L13.2873 8.81467Z" fill="white"/>
<path d="M1.2474 14.4197L1.00684 14.9799C0.88233 15.2698 1.09565 15.5936 1.41231 15.5936H7.8884C7.92892 15.5635 7.92937 15.5653 8.14681 15.4526L5.12637 12.4384L1.2474 14.4197Z" fill="white"/>
<path d="M15.937 14.98L15.0334 12.8759L9.79111 15.5937H15.5316C15.8476 15.5937 16.0618 15.2705 15.937 14.98Z" fill="white"/>
<path d="M8.91173 4.55836C8.91173 4.31551 8.71375 4.1181 8.47056 4.1181C8.22726 4.1181 8.02939 4.31551 8.02939 4.55836C8.02939 4.80109 8.22726 4.99861 8.47056 4.99861C8.71375 4.99861 8.91173 4.80109 8.91173 4.55836Z" fill="white"/>
<path d="M8.80537 11.8921C8.95391 11.7215 12.4429 7.68566 12.4429 4.91139C12.4429 -0.809284 4.50204 -0.879093 4.50204 4.91139C4.50204 7.68566 7.99101 11.7215 8.13955 11.8921C8.31545 12.0938 8.62981 12.0936 8.80537 11.8921ZM7.14895 4.55925C7.14895 3.83095 7.74267 3.23849 8.47246 3.23849C9.20213 3.23849 9.79585 3.83095 9.79585 4.55925C9.79585 5.28744 9.20213 5.8799 8.47246 5.8799C7.74267 5.8799 7.14895 5.28744 7.14895 4.55925Z" fill="white"/>
</svg>
