<svg width="15" height="18" viewBox="0 0 15 18" fill="none" xmlns="http://www.w3.org/2000/svg">
<path d="M11.1045 0.390625C11.1437 0.390625 11.183 0.390625 11.2246 0.390625C11.3209 1.61806 10.8665 2.53519 10.3142 3.19935C9.77225 3.85892 9.03016 4.49862 7.82991 4.40156C7.74985 3.1917 8.20504 2.34259 8.7566 1.67996C9.26813 1.06243 10.2059 0.512909 11.1045 0.390625Z" fill="white"/>
<path d="M14.737 13.1685C14.737 13.1807 14.737 13.1914 14.737 13.2029C14.3997 14.2561 13.9185 15.1587 13.3314 15.9963C12.7954 16.7568 12.1386 17.7801 10.9657 17.7801C9.95231 17.7801 9.27917 17.1083 8.24053 17.09C7.14185 17.0717 6.53765 17.6517 5.53313 17.7977C5.41822 17.7977 5.30331 17.7977 5.19062 17.7977C4.45298 17.6877 3.85768 17.0854 3.42399 16.5428C2.14516 14.9393 1.15694 12.8681 0.973083 10.2176C0.973083 9.95775 0.973083 9.69866 0.973083 9.43881C1.05093 7.54187 1.94499 5.99956 3.13338 5.25209C3.76056 4.85467 4.62275 4.51609 5.5828 4.66742C5.99424 4.73315 6.41459 4.87836 6.78304 5.02204C7.13222 5.16038 7.56887 5.40571 7.98255 5.39272C8.26278 5.38431 8.54152 5.23375 8.82398 5.12752C9.65132 4.81951 10.4624 4.46641 11.5314 4.63226C12.8161 4.8325 13.728 5.421 14.2914 6.32896C13.2046 7.04203 12.3454 8.11661 12.4922 9.95164C12.6227 11.6185 13.5627 12.5937 14.737 13.1685Z" fill="white"/>
</svg>
