<svg width="16" height="16" viewBox="0 0 16 16" fill="none" xmlns="http://www.w3.org/2000/svg">
<path d="M7.75646 15.1371C7.70634 15.1371 7.65622 15.1371 7.60575 15.1368C6.41924 15.1397 5.32292 15.1096 4.25675 15.0447C3.27926 14.9852 2.38701 14.6474 1.67631 14.0679C0.990545 13.5087 0.522245 12.7526 0.284458 11.8209C0.0775055 11.0097 0.0665342 10.2134 0.0560249 9.44321C0.0484027 8.8906 0.0405496 8.23579 0.0389328 7.56989C0.0405496 6.90122 0.0484027 6.24641 0.0560249 5.69381C0.0665342 4.92374 0.0775055 4.12746 0.284458 3.31616C0.522245 2.38442 0.990545 1.62832 1.67631 1.06914C2.38701 0.489622 3.27926 0.151823 4.25686 0.0923471C5.32304 0.0275589 6.41958 -0.00269867 7.60864 0.000188508C8.7955 -0.0023522 9.89147 0.0275589 10.9576 0.0923471C11.9351 0.151823 12.8274 0.489622 13.5381 1.06914C14.224 1.62832 14.6921 2.38442 14.9299 3.31616C15.1369 4.12734 15.1479 4.92374 15.1584 5.69381C15.166 6.24641 15.174 6.90122 15.1755 7.56712V7.56989C15.174 8.23579 15.166 8.8906 15.1584 9.44321C15.1479 10.2133 15.137 11.0096 14.9299 11.8209C14.6921 12.7526 14.224 13.5087 13.5381 14.0679C12.8274 14.6474 11.9351 14.9852 10.9576 15.0447C9.93662 15.1068 8.88777 15.1371 7.75646 15.1371ZM7.60575 13.9542C8.77298 13.957 9.8447 13.9276 10.8858 13.8643C11.6249 13.8194 12.2658 13.5795 12.7908 13.1514C13.276 12.7556 13.6103 12.2096 13.7841 11.5284C13.9564 10.8532 13.9663 10.1282 13.9759 9.42704C13.9834 8.87813 13.9913 8.22794 13.9929 7.56851C13.9913 6.90896 13.9834 6.25889 13.9759 5.70998C13.9663 5.00886 13.9564 4.28383 13.7841 3.60846C13.6103 2.92732 13.276 2.3813 12.7908 1.98552C12.2658 1.55753 11.6249 1.31766 10.8858 1.27274C9.8447 1.20934 8.77298 1.18012 7.60852 1.18266C6.44153 1.17989 5.36969 1.20934 4.32858 1.27274C3.58946 1.31766 2.94863 1.55753 2.42362 1.98552C1.93835 2.3813 1.60413 2.92732 1.43032 3.60846C1.25801 4.28383 1.24808 5.00874 1.2385 5.70998C1.23099 6.25935 1.22314 6.90989 1.22152 7.56989C1.22314 8.22701 1.23099 8.87767 1.2385 9.42704C1.24808 10.1282 1.25801 10.8532 1.43032 11.5284C1.60413 12.2096 1.93835 12.7556 2.42362 13.1514C2.94863 13.5794 3.58946 13.8192 4.32858 13.8642C5.36969 13.9276 6.44176 13.9571 7.60575 13.9542ZM7.57757 11.2641C5.53992 11.2641 3.88199 9.60627 3.88199 7.56851C3.88199 5.53074 5.53992 3.87293 7.57757 3.87293C9.61534 3.87293 11.2732 5.53074 11.2732 7.56851C11.2732 9.60627 9.61534 11.2641 7.57757 11.2641ZM7.57757 5.05551C6.19196 5.05551 5.06458 6.1829 5.06458 7.56851C5.06458 8.95412 6.19196 10.0815 7.57757 10.0815C8.9633 10.0815 10.0906 8.95412 10.0906 7.56851C10.0906 6.1829 8.9633 5.05551 7.57757 5.05551ZM11.6871 2.69034C11.1973 2.69034 10.8001 3.08738 10.8001 3.57728C10.8001 4.06718 11.1973 4.46422 11.6871 4.46422C12.177 4.46422 12.574 4.06718 12.574 3.57728C12.574 3.08738 12.177 2.69034 11.6871 2.69034Z" fill="white"/>
</svg>
