<svg width="19" height="24" viewBox="0 0 19 24" fill="none" xmlns="http://www.w3.org/2000/svg">
<path d="M18.7631 21.0121L18.7634 21.0123C18.8036 21.0528 18.8351 21.1012 18.8559 21.1543C18.8765 21.2069 18.8863 21.263 18.8845 21.3194V23.2233C18.8845 23.3341 18.8405 23.4403 18.7622 23.5186C18.6839 23.5969 18.5777 23.6409 18.4669 23.6409H1.31759C1.20684 23.6409 1.10062 23.5969 1.02231 23.5186C0.944 23.4403 0.900005 23.3341 0.900005 23.2233V21.3181V21.3178H1.00001L18.7631 21.0121ZM18.7631 21.0121L17.8104 20.0594L17.8105 20.0593M18.7631 21.0121L17.8105 20.0593M17.8105 20.0593L17.807 20.0562M17.8105 20.0593L17.807 20.0562M17.807 20.0562C17.7267 19.983 17.621 19.944 17.5125 19.9475M17.807 20.0562L17.7397 20.1301C17.6782 20.0741 17.5973 20.0445 17.5142 20.0475M15.9049 18.1634L15.9052 18.1637C15.9439 18.2027 15.9745 18.249 15.9953 18.2999C16.016 18.3506 16.0266 18.405 16.0263 18.4598M15.9049 18.1634L15.9263 19.9475H16.0263M15.9049 18.1634L14.9522 17.2107L14.9519 17.2104M15.9049 18.1634L14.9519 17.2104M16.0263 18.4598C16.0263 18.46 16.0263 18.4601 16.0263 18.4602L15.9263 18.4596H16.0263V18.4598ZM16.0263 18.4598V19.9475M16.0263 19.9475V20.0475H17.5142M16.0263 19.9475H17.5125M17.5125 19.9475C17.5118 19.9475 17.5112 19.9476 17.5105 19.9476L17.5142 20.0475M17.5125 19.9475H17.5142V20.0475M14.9519 17.2104C14.9129 17.1717 14.8666 17.1411 14.8157 17.1203C14.7649 17.0995 14.7106 17.089 14.6557 17.0893M14.9519 17.2104L14.8815 17.2814C14.8518 17.252 14.8166 17.2287 14.7779 17.2129C14.7392 17.1971 14.6978 17.189 14.656 17.1893M13.0467 15.3052L13.047 15.3055C13.0857 15.3445 13.1163 15.3908 13.1371 15.4416C13.1578 15.4924 13.1683 15.5468 13.1681 15.6016M13.0467 15.3052L13.0681 17.0893H13.1681M13.0467 15.3052L12.0939 14.3524L12.0937 14.3522M13.0467 15.3052L12.0937 14.3522M13.1681 15.6016C13.1681 15.6017 13.1681 15.6018 13.1681 15.602L13.0681 15.6014H13.1681V15.6016ZM13.1681 15.6016V17.0893M13.1681 17.0893V17.1893H14.656M13.1681 17.0893H14.6557M14.6557 17.0893C14.6556 17.0893 14.6555 17.0893 14.6554 17.0893L14.656 17.1893M14.6557 17.0893H14.656V17.1893M12.0937 14.3522C12.0546 14.3135 12.0084 14.2828 11.9575 14.2621C11.9067 14.2413 11.8523 14.2308 11.7975 14.2311M12.0937 14.3522L11.7978 14.3311M7.69059 14.3524L7.69088 14.3522C7.7299 14.3135 7.77617 14.2828 7.82705 14.2621C7.87783 14.2413 7.9322 14.2308 7.98705 14.2311M7.69059 14.3524L11.7978 14.3311M7.69059 14.3524L6.73785 15.3052L6.73756 15.3055M7.69059 14.3524L6.73756 15.3055M7.98705 14.2311C7.98715 14.2311 7.98726 14.2311 7.98736 14.2311L7.98678 14.3311V14.2311H7.98705ZM7.98705 14.2311H11.7975M11.7975 14.2311C11.7974 14.2311 11.7973 14.2311 11.7972 14.2311L11.7978 14.3311M11.7975 14.2311H11.7978V14.3311M6.73756 15.3055C6.69886 15.3445 6.66824 15.3908 6.64746 15.4416C6.62671 15.4924 6.61618 15.5468 6.61646 15.6017M6.73756 15.3055L6.80856 15.3759C6.77913 15.4056 6.75584 15.4408 6.74003 15.4795C6.72423 15.5182 6.71622 15.5596 6.71646 15.6014M4.83236 17.2107L4.83265 17.2104C4.87167 17.1717 4.91794 17.1411 4.96882 17.1203C5.0196 17.0995 5.07397 17.089 5.12883 17.0893M4.83236 17.2107L6.61646 17.1893V17.0893M4.83236 17.2107L3.87962 18.1634L3.87933 18.1637M4.83236 17.2107L3.87933 18.1637M5.12883 17.0893C5.12893 17.0893 5.12903 17.0893 5.12913 17.0893L5.12856 17.1893V17.0893H5.12883ZM5.12883 17.0893H6.61646M6.61646 17.0893H6.71646V15.6014M6.61646 17.0893V15.6017M6.61646 15.6017C6.61646 15.6018 6.61646 15.6019 6.61646 15.602L6.71646 15.6014M6.61646 15.6017V15.6014H6.71646M3.87933 18.1637C3.84063 18.2027 3.81001 18.249 3.78923 18.2999M3.87933 18.1637L3.78923 18.2999M3.78923 18.2999C3.76849 18.3507 3.75796 18.405 3.75823 18.4599M3.78923 18.2999L3.75823 18.4599M3.75823 18.4599V19.9475H2.27065H2.27033V20.0475L3.75823 18.4599ZM14.4847 17.9244L15.1911 18.6221V19.9475H10.3098V18.6221L11.0163 17.9244H14.4847ZM7.45162 15.7639L8.15805 15.0662H11.6265L12.3329 15.7639V17.0893H7.45162V15.7639ZM4.59339 18.6221L5.29982 17.9244H8.76826L9.47469 18.6221V19.9475H4.59339V18.6221ZM1.73517 21.4803L2.44159 20.7827H5.91004L6.61646 21.4803V22.8057H1.73517V21.4803ZM7.45162 21.4803L8.15805 20.7827H11.6265L12.3329 21.4803V22.8057H7.45162V21.4803ZM18.0494 22.8057H13.1681V21.4803L13.8745 20.7827H17.3429L18.0494 21.4803V22.8057Z" fill="black" stroke="black" stroke-width="0.2"/>
<path d="M9.89337 10.1347H9.89343C10.5668 10.1347 11.225 9.93505 11.7848 9.56097C12.3446 9.1869 12.781 8.65521 13.0387 8.03314C13.2963 7.41107 13.3637 6.72657 13.2324 6.06619C13.101 5.4058 12.7768 4.7992 12.3007 4.32309C11.8246 3.84698 11.218 3.52275 10.5576 3.39139C9.89721 3.26003 9.2127 3.32745 8.59064 3.58512C7.96857 3.84279 7.43688 4.27913 7.0628 4.83898C6.68873 5.39883 6.48906 6.05703 6.48906 6.73035L6.48906 6.7304C6.49012 7.63296 6.84913 8.49824 7.48733 9.13644C8.12553 9.77465 8.99082 10.1337 9.89337 10.1347ZM9.89343 4.21524C10.3909 4.21524 10.8771 4.36275 11.2907 4.63911C11.7044 4.91548 12.0267 5.30828 12.2171 5.76786C12.4074 6.22743 12.4573 6.73314 12.3602 7.22102C12.2632 7.7089 12.0236 8.15705 11.6719 8.50879C11.3201 8.86054 10.872 9.10008 10.3841 9.19712C9.89622 9.29417 9.39052 9.24436 8.93094 9.054C8.47137 8.86364 8.07856 8.54127 7.8022 8.12766C7.52583 7.71406 7.37833 7.22779 7.37833 6.73035H7.32833L7.37833 6.73042C7.37935 6.06367 7.64467 5.42452 8.11614 4.95305C8.5876 4.48158 9.22675 4.21626 9.89351 4.21524L9.89343 4.16524V4.21524Z" fill="black" stroke="black" stroke-width="0.1"/>
<path d="M9.8918 11.7127H9.89188C10.8774 11.7127 11.8408 11.4204 12.6602 10.8729C13.4797 10.3254 14.1183 9.54715 14.4955 8.63664C14.8726 7.72614 14.9713 6.72424 14.779 5.75766C14.5868 4.79107 14.1122 3.9032 13.4153 3.20633C12.7184 2.50946 11.8306 2.03489 10.864 1.84262C9.89741 1.65036 8.89551 1.74903 7.98501 2.12618C7.0745 2.50332 6.29628 3.14199 5.74875 3.96142C5.20123 4.78086 4.90898 5.74425 4.90898 6.72977L4.90898 6.72985C4.91109 8.05073 5.43674 9.3169 6.37075 10.2509C7.30475 11.1849 8.57092 11.7106 9.8918 11.7127ZM9.89188 2.63614C10.7015 2.63614 11.493 2.87623 12.1662 3.32604C12.8394 3.77586 13.3641 4.41519 13.6739 5.16321C13.9837 5.91122 14.0648 6.73431 13.9068 7.5284C13.7489 8.32249 13.359 9.0519 12.7865 9.62441C12.214 10.1969 11.4846 10.5868 10.6905 10.7447C9.89642 10.9027 9.07333 10.8216 8.32531 10.5118C7.5773 10.202 6.93796 9.67726 6.48815 9.00407C6.03833 8.33088 5.79825 7.53941 5.79825 6.72977C5.79929 5.64439 6.23092 4.60377 6.9984 3.83629C7.76588 3.06881 8.8065 2.63719 9.89188 2.63614Z" fill="black" stroke="black" stroke-width="0.1"/>
<path d="M16.2071 7.16251H17.391C17.5089 7.16251 17.622 7.11566 17.7054 7.03228C17.7888 6.94889 17.8357 6.8358 17.8357 6.71787C17.8357 6.59995 17.7888 6.48686 17.7054 6.40347C17.622 6.32009 17.5089 6.27324 17.391 6.27324H16.2071C16.0892 6.27324 15.9761 6.32009 15.8927 6.40347C15.8093 6.48686 15.7625 6.59995 15.7625 6.71787C15.7625 6.8358 15.8093 6.94889 15.8927 7.03228C15.9761 7.11566 16.0892 7.16251 16.2071 7.16251Z" fill="black" stroke="black" stroke-width="0.1"/>
<path d="M14.3556 2.69544L14.3566 2.69543C14.4717 2.69378 14.5816 2.64756 14.6634 2.56649L14.6635 2.56635L15.4988 1.73105C15.5446 1.69143 15.5819 1.64284 15.6083 1.58827C15.635 1.53311 15.65 1.47303 15.6524 1.41179C15.6547 1.35056 15.6444 1.2895 15.6221 1.23244C15.5997 1.17538 15.5658 1.12356 15.5225 1.08023C15.4791 1.0369 15.4273 1.00299 15.3703 0.980638C15.3132 0.958284 15.2521 0.947966 15.1909 0.950331C15.1297 0.952697 15.0696 0.967694 15.0144 0.994382C14.9598 1.0208 14.9112 1.05811 14.8716 1.104L14.0441 1.93931L14.0796 1.97456L14.0441 1.93937L14.0441 1.93934C13.9613 2.02264 13.9148 2.13532 13.9148 2.25278C13.9148 2.37024 13.9613 2.48293 14.0441 2.56624L14.0444 2.56649C14.1272 2.64863 14.239 2.69494 14.3556 2.69544Z" fill="black" stroke="black" stroke-width="0.1"/>
<path d="M5.74821 2.5667L5.74842 2.56649C5.83124 2.48319 5.87772 2.37049 5.87772 2.25303C5.87772 2.13556 5.83124 2.02287 5.74842 1.93956L5.74842 1.93956L5.74815 1.93929L4.9037 1.10273L4.86845 1.13819L4.90364 1.10267L4.90367 1.1027C4.82037 1.01991 4.70769 0.973437 4.59024 0.973437C4.47277 0.973437 4.36008 1.01992 4.27677 1.10273L4.27677 1.10273L4.27656 1.10294C4.19375 1.18625 4.14727 1.29894 4.14727 1.41641C4.14727 1.53387 4.19375 1.64657 4.27656 1.72987L4.27656 1.72987L4.27683 1.73014L5.12128 2.5667C5.12129 2.56671 5.1213 2.56672 5.12131 2.56673C5.20462 2.64953 5.3173 2.696 5.43475 2.696C5.55221 2.696 5.66491 2.64952 5.74821 2.5667Z" fill="black" stroke="black" stroke-width="0.1"/>
<path d="M2.39463 7.16251H3.57853C3.69645 7.16251 3.80954 7.11566 3.89293 7.03228C3.97631 6.94889 4.02316 6.8358 4.02316 6.71787C4.02316 6.59995 3.97631 6.48686 3.89293 6.40347C3.80954 6.32009 3.69645 6.27324 3.57853 6.27324H2.39463C2.27671 6.27324 2.16361 6.32009 2.08023 6.40347C1.99685 6.48686 1.95 6.59995 1.95 6.71787C1.95 6.8358 1.99685 6.94889 2.08023 7.03228C2.16361 7.11566 2.27671 7.16251 2.39463 7.16251Z" fill="black" stroke="black" stroke-width="0.1"/>
<path d="M4.58802 12.4633L4.5876 12.4633C4.50058 12.4621 4.41583 12.4353 4.34385 12.3864C4.27188 12.3375 4.21585 12.2685 4.18271 12.188C4.14957 12.1075 4.14078 12.0191 4.15743 11.9337C4.17408 11.8482 4.21543 11.7696 4.27636 11.7074L4.27663 11.7072L4.27663 11.7072L5.11325 10.8666L5.11343 10.8664C5.19674 10.7836 5.30943 10.7371 5.4269 10.7371C5.54435 10.7371 5.65702 10.7836 5.74032 10.8664C5.74034 10.8664 5.74035 10.8664 5.74036 10.8664L5.70511 10.9019C5.7421 10.9386 5.77146 10.9822 5.7915 11.0303C5.81153 11.0784 5.82185 11.13 5.82185 11.1821C5.82185 11.2342 5.81153 11.2857 5.7915 11.3338C5.77146 11.3819 5.7421 11.4256 5.70511 11.4622L4.58802 12.4633ZM4.58802 12.4633C4.64653 12.4636 4.70454 12.4524 4.75872 12.4303C4.81289 12.4082 4.86216 12.3756 4.90371 12.3344L4.90385 12.3342L5.74032 11.4977C5.74035 11.4977 5.74037 11.4977 5.74039 11.4977L4.58802 12.4633Z" fill="black" stroke="black" stroke-width="0.1"/>
<path d="M14.0346 10.8664C13.993 10.9077 13.9599 10.9569 13.9373 11.0111C13.9147 11.0652 13.9031 11.1234 13.9031 11.1821C13.9031 11.2408 13.9147 11.2989 13.9373 11.353C13.9599 11.4072 13.9929 11.4563 14.0346 11.4977C14.0346 11.4977 14.0346 11.4977 14.0346 11.4977L14.8711 12.3342L14.8712 12.3343C14.9545 12.4171 15.0672 12.4636 15.1847 12.4636C15.3022 12.4636 15.4148 12.4171 15.4982 12.3343L15.4984 12.3341C15.5812 12.2508 15.6277 12.1381 15.6277 12.0206C15.6277 11.9032 15.5812 11.7905 15.4984 11.7072L15.4983 11.7072L14.6617 10.8666L14.6617 10.8666L14.6615 10.8664C14.5782 10.7836 14.4655 10.7371 14.3481 10.7371C14.2306 10.7371 14.1179 10.7836 14.0346 10.8664ZM14.0346 10.8664C14.0346 10.8664 14.0346 10.8664 14.0346 10.8664L14.0699 10.9019L14.0346 10.8664C14.0346 10.8664 14.0346 10.8664 14.0346 10.8664Z" fill="black" stroke="black" stroke-width="0.1"/>
<path d="M9.99082 8.04377C9.94161 8.04377 9.9088 8.02737 9.87599 7.99456L8.89168 7.01025C8.84246 6.96103 8.82606 6.89541 8.85887 6.82979C8.87527 6.76417 8.94089 6.73136 9.00651 6.73136H9.49867C9.62991 6.73136 9.76115 6.68214 9.84318 6.58371C9.94161 6.50169 9.99082 6.37045 9.99082 6.2392C9.99082 6.10796 9.94161 5.97672 9.84318 5.8947C9.76115 5.79626 9.62991 5.74705 9.49867 5.74705H9.00651C8.90808 5.74705 8.84246 5.68143 8.84246 5.583C8.84246 5.48457 8.90808 5.41895 9.00651 5.41895H10.8111C10.9095 5.41895 10.9751 5.48457 10.9751 5.583C10.9751 5.68143 10.9095 5.74705 10.8111 5.74705H10.1549C10.2533 5.8947 10.3189 6.05875 10.3189 6.2392C10.3189 6.45247 10.2369 6.66574 10.0728 6.81339C9.9252 6.97744 9.71194 7.05946 9.49867 7.05946H9.40024L10.1057 7.76489C10.1713 7.83051 10.1713 7.92894 10.1057 7.99456C10.0728 8.02737 10.04 8.04377 9.99082 8.04377Z" fill="black"/>
<path d="M9.99082 8.04377C9.94161 8.04377 9.9088 8.02737 9.87599 7.99456L8.89168 7.01025C8.84246 6.96103 8.82606 6.89541 8.85887 6.82979C8.87527 6.76417 8.94089 6.73136 9.00651 6.73136H9.49867C9.62991 6.73136 9.76115 6.68214 9.84318 6.58371C9.94161 6.50169 9.99082 6.37045 9.99082 6.2392C9.99082 6.10796 9.94161 5.97672 9.84318 5.8947C9.76115 5.79626 9.62991 5.74705 9.49867 5.74705H9.00651C8.90808 5.74705 8.84246 5.68143 8.84246 5.583C8.84246 5.48457 8.90808 5.41895 9.00651 5.41895H10.8111C10.9095 5.41895 10.9751 5.48457 10.9751 5.583C10.9751 5.68143 10.9095 5.74705 10.8111 5.74705H10.1549C10.2533 5.8947 10.3189 6.05875 10.3189 6.2392C10.3189 6.45247 10.2369 6.66574 10.0728 6.81339C9.9252 6.97744 9.71194 7.05946 9.49867 7.05946H9.40024L10.1057 7.76489C10.1713 7.83051 10.1713 7.92894 10.1057 7.99456C10.0728 8.02737 10.04 8.04377 9.99082 8.04377Z" stroke="black"/>
<path d="M10.8104 6.40232H9.00585C8.90742 6.40232 8.8418 6.3367 8.8418 6.23827C8.8418 6.13984 8.90742 6.07422 9.00585 6.07422H10.8104C10.9088 6.07422 10.9745 6.13984 10.9745 6.23827C10.9745 6.3367 10.9088 6.40232 10.8104 6.40232Z" fill="black"/>
<path d="M10.8104 6.40232H9.00585C8.90742 6.40232 8.8418 6.3367 8.8418 6.23827C8.8418 6.13984 8.90742 6.07422 9.00585 6.07422H10.8104C10.9088 6.07422 10.9745 6.13984 10.9745 6.23827C10.9745 6.3367 10.9088 6.40232 10.8104 6.40232Z" stroke="black"/>
</svg>
