<svg width="25" height="23" viewBox="0 0 25 23" fill="none" xmlns="http://www.w3.org/2000/svg">
<mask id="path-1-outside-1_2644_35935" maskUnits="userSpaceOnUse" x="-0.215271" y="-0.729553" width="26" height="24" fill="black">
<rect fill="white" x="-0.215271" y="-0.729553" width="26" height="24"/>
<path d="M24.539 12.003C24.3106 11.5872 23.3733 10.3528 20.8993 11.9242L16.5369 14.6953C16.3182 14.8342 16.0959 14.9323 15.8637 14.9908C15.9498 14.8404 16.0172 14.6702 16.0634 14.4818C16.2864 13.574 15.7917 12.6263 14.9372 12.3242C14.9206 12.3183 14.9037 12.3137 14.8865 12.3103C13.6328 12.0637 12.3954 11.5758 11.4011 11.1837C11.0556 11.0475 10.7294 10.9188 10.452 10.8208C9.33509 10.4255 8.32554 10.9148 7.4852 11.4454L4.23968 13.4948L3.93373 12.9052C3.79868 12.6449 3.57809 12.4573 3.31259 12.3771C3.04709 12.2968 2.76944 12.3337 2.53084 12.4811L1.30689 13.2366C0.812906 13.5415 0.638519 14.2278 0.918052 14.7666L4.51646 21.701C4.70565 22.0655 5.05491 22.2704 5.41409 22.2704C5.58572 22.2704 5.75967 22.2236 5.91935 22.1251L7.1433 21.3696C7.38199 21.2222 7.55391 20.9817 7.62751 20.6922C7.70111 20.4027 7.66724 20.0999 7.53214 19.8395L7.16115 19.1246L7.90094 18.6587L13.4882 20.2915C13.8038 20.3838 14.1135 20.4298 14.4166 20.4298C15.0209 20.4298 15.5986 20.2468 16.1422 19.8817L24.0588 14.5653C24.7804 14.0807 25.0093 12.8594 24.539 12.003ZM6.88148 20.4667C6.86314 20.5389 6.8207 20.5986 6.76196 20.6348L5.53801 21.3903C5.41757 21.4646 5.25833 21.4165 5.1902 21.2852L1.59175 14.3507C1.52367 14.2195 1.56779 14.0457 1.68818 13.9714L2.91213 13.2159C2.95036 13.1923 2.99284 13.1803 3.0361 13.1803C3.05928 13.1803 3.0827 13.1837 3.10578 13.1908C3.17197 13.2108 3.2267 13.257 3.25989 13.321L6.8584 20.2555C6.89159 20.3195 6.89977 20.3945 6.88148 20.4667ZM23.6528 13.8463L15.7362 19.1628C15.1084 19.5843 14.4196 19.6897 13.6886 19.476L7.94643 17.798C7.84738 17.769 7.74165 17.7841 7.65272 17.8401L6.77981 18.3898L4.62107 14.2297L7.87312 12.1762C8.60062 11.7168 9.38778 11.332 10.2131 11.6239C10.4783 11.7177 10.7839 11.8383 11.1379 11.9778C12.1523 12.3778 13.4131 12.8749 14.7212 13.1357C15.177 13.3094 15.4319 13.7897 15.3156 14.2633C15.1625 14.8862 14.6868 14.9637 14.3082 14.9163C13.6655 14.7722 13.0549 14.5821 12.4087 14.3809C12.1023 14.2854 11.7855 14.1868 11.4599 14.0916C11.2535 14.0315 11.0412 14.1649 10.9858 14.3902C10.9305 14.6154 11.0531 14.8469 11.2595 14.9072C11.579 15.0006 11.8927 15.0983 12.196 15.1928C12.8619 15.4002 13.4909 15.5961 14.1681 15.7471C14.1707 15.7476 14.1809 15.7497 14.1835 15.7501L14.726 15.8463C15.5375 15.9879 16.2572 15.85 16.9265 15.4248L21.2889 12.6537C22.5445 11.8561 23.5112 11.7749 23.8748 12.4368C24.1253 12.893 24.0132 13.6043 23.6528 13.8463ZM3.2673 14.5552C3.30218 14.8156 3.13694 15.0576 2.8981 15.0957C2.65926 15.1338 2.43741 14.9536 2.40247 14.6931C2.36754 14.4327 2.53283 14.1906 2.77167 14.1525C3.01051 14.1145 3.23236 14.2948 3.2673 14.5552ZM9.34893 7.32752C9.6635 7.32752 9.91937 7.61771 9.91937 7.97435C9.91937 8.2075 10.0927 8.39653 10.3065 8.39653H22.0607C22.2745 8.39653 22.4478 8.2075 22.4478 7.97435C22.4478 7.61771 22.7037 7.32752 23.0182 7.32752C23.232 7.32752 23.4053 7.13848 23.4053 6.90533V3.28445C23.4053 3.0513 23.232 2.86227 23.0182 2.86227C22.7037 2.86227 22.4478 2.57207 22.4478 2.21543C22.4478 1.98228 22.2745 1.79325 22.0607 1.79325H10.3065C10.0927 1.79325 9.91937 1.98228 9.91937 2.21543C9.91937 2.57207 9.6635 2.86227 9.34893 2.86227C9.13516 2.86227 8.96183 3.0513 8.96183 3.28445V6.90533C8.96183 7.13854 9.13516 7.32752 9.34893 7.32752ZM9.73603 3.64367C10.1689 3.49913 10.5105 3.11864 10.6387 2.63767H21.7284C21.8567 3.11869 22.1982 3.49918 22.6311 3.64367V6.54616C22.1982 6.69071 21.8567 7.0712 21.7284 7.55217H10.6387C10.5105 7.07115 10.1689 6.69066 9.73603 6.54616V3.64367ZM11.1318 5.09497C11.1318 4.86182 11.3051 4.67279 11.5189 4.67279H12.9624C13.1762 4.67279 13.3495 4.86182 13.3495 5.09497C13.3495 5.32812 13.1762 5.51715 12.9624 5.51715H11.5189C11.3051 5.51715 11.1318 5.32812 11.1318 5.09497ZM19.0175 5.09497C19.0175 4.86182 19.1908 4.67279 19.4046 4.67279H20.8481C21.0619 4.67279 21.2352 4.86182 21.2352 5.09497C21.2352 5.32812 21.0619 5.51715 20.8481 5.51715H19.4046C19.1908 5.51715 19.0175 5.32812 19.0175 5.09497ZM16.5659 5.85901C16.5792 5.84234 16.5897 5.82434 16.5841 5.77378C16.5776 5.71595 16.5625 5.58053 16.1231 5.50185C15.2566 5.3467 15.1039 4.79776 15.0899 4.48439C15.0682 3.99672 15.3481 3.58377 15.7965 3.42308V3.39743C15.7965 3.16428 15.9698 2.97525 16.1836 2.97525C16.3974 2.97525 16.5707 3.16428 16.5707 3.39743V3.41749C16.878 3.52726 17.1322 3.7726 17.2647 4.11657C17.3475 4.33156 17.2548 4.57901 17.0577 4.66925C16.8607 4.7595 16.6337 4.65849 16.5509 4.44344C16.4544 4.19303 16.2111 4.17995 16.0828 4.21182C16.0294 4.22501 15.8559 4.28069 15.8632 4.44344C15.8679 4.54793 15.9975 4.62371 16.2485 4.66867C16.9205 4.789 17.2919 5.12653 17.3526 5.67199C17.3837 5.95063 17.3141 6.20631 17.1515 6.41133C17.0131 6.58596 16.8075 6.7152 16.5707 6.78269V6.79245C16.5707 7.0256 16.3974 7.21464 16.1836 7.21464C15.9698 7.21464 15.7965 7.0256 15.7965 6.79245V6.77509C15.4082 6.64986 15.1149 6.3385 15.0189 5.91865C14.9673 5.69241 15.0935 5.46327 15.3009 5.40691C15.5085 5.35044 15.7184 5.48818 15.7701 5.71442C15.8184 5.92572 16.034 5.99564 16.2065 5.991C16.3773 5.98651 16.5166 5.92118 16.5659 5.85901ZM0.810632 0.692628C0.810632 0.459478 0.983955 0.270447 1.19773 0.270447H3.48891C3.70268 0.270447 3.87601 0.459478 3.87601 0.692628C3.87601 0.925777 3.70268 1.11481 3.48891 1.11481H1.19773C0.983955 1.11481 0.810632 0.925777 0.810632 0.692628ZM2.90531 4.04965C2.69154 4.04965 2.51821 3.86062 2.51821 3.62747C2.51821 3.39432 2.69154 3.20529 2.90531 3.20529H6.49414C6.70791 3.20529 6.88123 3.39432 6.88123 3.62747C6.88123 3.86062 6.70791 4.04965 6.49414 4.04965H2.90531ZM5.04862 1.11481H7.60777V6.14018H3.98967C3.77589 6.14018 3.60257 6.32922 3.60257 6.56237C3.60257 6.79552 3.77589 6.98455 3.98967 6.98455H7.60772V9.07503H6.70414C6.49036 9.07503 6.31704 9.26406 6.31704 9.49721C6.31704 9.73036 6.49036 9.91939 6.70414 9.91939H24.3723C24.586 9.91939 24.7594 9.73036 24.7594 9.49721V0.692628C24.7594 0.459478 24.586 0.270447 24.3723 0.270447H5.04862C4.83485 0.270447 4.66152 0.459478 4.66152 0.692628C4.66152 0.925777 4.83485 1.11481 5.04862 1.11481ZM23.9852 9.07498H8.38191V1.11481H23.9852V9.07498ZM0.810632 6.56231C0.810632 6.32916 0.983955 6.14013 1.19773 6.14013H2.34334C2.55712 6.14013 2.73044 6.32916 2.73044 6.56231C2.73044 6.79546 2.55712 6.98449 2.34334 6.98449H1.19773C0.983955 6.98449 0.810632 6.79551 0.810632 6.56231ZM2.74617 9.49716C2.74617 9.26401 2.91949 9.07498 3.13326 9.07498H5.10543C5.3192 9.07498 5.49252 9.26401 5.49252 9.49716C5.49252 9.7303 5.3192 9.91934 5.10543 9.91934H3.13326C2.91949 9.91934 2.74617 9.73036 2.74617 9.49716Z"/>
</mask>
<path d="M24.539 12.003C24.3106 11.5872 23.3733 10.3528 20.8993 11.9242L16.5369 14.6953C16.3182 14.8342 16.0959 14.9323 15.8637 14.9908C15.9498 14.8404 16.0172 14.6702 16.0634 14.4818C16.2864 13.574 15.7917 12.6263 14.9372 12.3242C14.9206 12.3183 14.9037 12.3137 14.8865 12.3103C13.6328 12.0637 12.3954 11.5758 11.4011 11.1837C11.0556 11.0475 10.7294 10.9188 10.452 10.8208C9.33509 10.4255 8.32554 10.9148 7.4852 11.4454L4.23968 13.4948L3.93373 12.9052C3.79868 12.6449 3.57809 12.4573 3.31259 12.3771C3.04709 12.2968 2.76944 12.3337 2.53084 12.4811L1.30689 13.2366C0.812906 13.5415 0.638519 14.2278 0.918052 14.7666L4.51646 21.701C4.70565 22.0655 5.05491 22.2704 5.41409 22.2704C5.58572 22.2704 5.75967 22.2236 5.91935 22.1251L7.1433 21.3696C7.38199 21.2222 7.55391 20.9817 7.62751 20.6922C7.70111 20.4027 7.66724 20.0999 7.53214 19.8395L7.16115 19.1246L7.90094 18.6587L13.4882 20.2915C13.8038 20.3838 14.1135 20.4298 14.4166 20.4298C15.0209 20.4298 15.5986 20.2468 16.1422 19.8817L24.0588 14.5653C24.7804 14.0807 25.0093 12.8594 24.539 12.003ZM6.88148 20.4667C6.86314 20.5389 6.8207 20.5986 6.76196 20.6348L5.53801 21.3903C5.41757 21.4646 5.25833 21.4165 5.1902 21.2852L1.59175 14.3507C1.52367 14.2195 1.56779 14.0457 1.68818 13.9714L2.91213 13.2159C2.95036 13.1923 2.99284 13.1803 3.0361 13.1803C3.05928 13.1803 3.0827 13.1837 3.10578 13.1908C3.17197 13.2108 3.2267 13.257 3.25989 13.321L6.8584 20.2555C6.89159 20.3195 6.89977 20.3945 6.88148 20.4667ZM23.6528 13.8463L15.7362 19.1628C15.1084 19.5843 14.4196 19.6897 13.6886 19.476L7.94643 17.798C7.84738 17.769 7.74165 17.7841 7.65272 17.8401L6.77981 18.3898L4.62107 14.2297L7.87312 12.1762C8.60062 11.7168 9.38778 11.332 10.2131 11.6239C10.4783 11.7177 10.7839 11.8383 11.1379 11.9778C12.1523 12.3778 13.4131 12.8749 14.7212 13.1357C15.177 13.3094 15.4319 13.7897 15.3156 14.2633C15.1625 14.8862 14.6868 14.9637 14.3082 14.9163C13.6655 14.7722 13.0549 14.5821 12.4087 14.3809C12.1023 14.2854 11.7855 14.1868 11.4599 14.0916C11.2535 14.0315 11.0412 14.1649 10.9858 14.3902C10.9305 14.6154 11.0531 14.8469 11.2595 14.9072C11.579 15.0006 11.8927 15.0983 12.196 15.1928C12.8619 15.4002 13.4909 15.5961 14.1681 15.7471C14.1707 15.7476 14.1809 15.7497 14.1835 15.7501L14.726 15.8463C15.5375 15.9879 16.2572 15.85 16.9265 15.4248L21.2889 12.6537C22.5445 11.8561 23.5112 11.7749 23.8748 12.4368C24.1253 12.893 24.0132 13.6043 23.6528 13.8463ZM3.2673 14.5552C3.30218 14.8156 3.13694 15.0576 2.8981 15.0957C2.65926 15.1338 2.43741 14.9536 2.40247 14.6931C2.36754 14.4327 2.53283 14.1906 2.77167 14.1525C3.01051 14.1145 3.23236 14.2948 3.2673 14.5552ZM9.34893 7.32752C9.6635 7.32752 9.91937 7.61771 9.91937 7.97435C9.91937 8.2075 10.0927 8.39653 10.3065 8.39653H22.0607C22.2745 8.39653 22.4478 8.2075 22.4478 7.97435C22.4478 7.61771 22.7037 7.32752 23.0182 7.32752C23.232 7.32752 23.4053 7.13848 23.4053 6.90533V3.28445C23.4053 3.0513 23.232 2.86227 23.0182 2.86227C22.7037 2.86227 22.4478 2.57207 22.4478 2.21543C22.4478 1.98228 22.2745 1.79325 22.0607 1.79325H10.3065C10.0927 1.79325 9.91937 1.98228 9.91937 2.21543C9.91937 2.57207 9.6635 2.86227 9.34893 2.86227C9.13516 2.86227 8.96183 3.0513 8.96183 3.28445V6.90533C8.96183 7.13854 9.13516 7.32752 9.34893 7.32752ZM9.73603 3.64367C10.1689 3.49913 10.5105 3.11864 10.6387 2.63767H21.7284C21.8567 3.11869 22.1982 3.49918 22.6311 3.64367V6.54616C22.1982 6.69071 21.8567 7.0712 21.7284 7.55217H10.6387C10.5105 7.07115 10.1689 6.69066 9.73603 6.54616V3.64367ZM11.1318 5.09497C11.1318 4.86182 11.3051 4.67279 11.5189 4.67279H12.9624C13.1762 4.67279 13.3495 4.86182 13.3495 5.09497C13.3495 5.32812 13.1762 5.51715 12.9624 5.51715H11.5189C11.3051 5.51715 11.1318 5.32812 11.1318 5.09497ZM19.0175 5.09497C19.0175 4.86182 19.1908 4.67279 19.4046 4.67279H20.8481C21.0619 4.67279 21.2352 4.86182 21.2352 5.09497C21.2352 5.32812 21.0619 5.51715 20.8481 5.51715H19.4046C19.1908 5.51715 19.0175 5.32812 19.0175 5.09497ZM16.5659 5.85901C16.5792 5.84234 16.5897 5.82434 16.5841 5.77378C16.5776 5.71595 16.5625 5.58053 16.1231 5.50185C15.2566 5.3467 15.1039 4.79776 15.0899 4.48439C15.0682 3.99672 15.3481 3.58377 15.7965 3.42308V3.39743C15.7965 3.16428 15.9698 2.97525 16.1836 2.97525C16.3974 2.97525 16.5707 3.16428 16.5707 3.39743V3.41749C16.878 3.52726 17.1322 3.7726 17.2647 4.11657C17.3475 4.33156 17.2548 4.57901 17.0577 4.66925C16.8607 4.7595 16.6337 4.65849 16.5509 4.44344C16.4544 4.19303 16.2111 4.17995 16.0828 4.21182C16.0294 4.22501 15.8559 4.28069 15.8632 4.44344C15.8679 4.54793 15.9975 4.62371 16.2485 4.66867C16.9205 4.789 17.2919 5.12653 17.3526 5.67199C17.3837 5.95063 17.3141 6.20631 17.1515 6.41133C17.0131 6.58596 16.8075 6.7152 16.5707 6.78269V6.79245C16.5707 7.0256 16.3974 7.21464 16.1836 7.21464C15.9698 7.21464 15.7965 7.0256 15.7965 6.79245V6.77509C15.4082 6.64986 15.1149 6.3385 15.0189 5.91865C14.9673 5.69241 15.0935 5.46327 15.3009 5.40691C15.5085 5.35044 15.7184 5.48818 15.7701 5.71442C15.8184 5.92572 16.034 5.99564 16.2065 5.991C16.3773 5.98651 16.5166 5.92118 16.5659 5.85901ZM0.810632 0.692628C0.810632 0.459478 0.983955 0.270447 1.19773 0.270447H3.48891C3.70268 0.270447 3.87601 0.459478 3.87601 0.692628C3.87601 0.925777 3.70268 1.11481 3.48891 1.11481H1.19773C0.983955 1.11481 0.810632 0.925777 0.810632 0.692628ZM2.90531 4.04965C2.69154 4.04965 2.51821 3.86062 2.51821 3.62747C2.51821 3.39432 2.69154 3.20529 2.90531 3.20529H6.49414C6.70791 3.20529 6.88123 3.39432 6.88123 3.62747C6.88123 3.86062 6.70791 4.04965 6.49414 4.04965H2.90531ZM5.04862 1.11481H7.60777V6.14018H3.98967C3.77589 6.14018 3.60257 6.32922 3.60257 6.56237C3.60257 6.79552 3.77589 6.98455 3.98967 6.98455H7.60772V9.07503H6.70414C6.49036 9.07503 6.31704 9.26406 6.31704 9.49721C6.31704 9.73036 6.49036 9.91939 6.70414 9.91939H24.3723C24.586 9.91939 24.7594 9.73036 24.7594 9.49721V0.692628C24.7594 0.459478 24.586 0.270447 24.3723 0.270447H5.04862C4.83485 0.270447 4.66152 0.459478 4.66152 0.692628C4.66152 0.925777 4.83485 1.11481 5.04862 1.11481ZM23.9852 9.07498H8.38191V1.11481H23.9852V9.07498ZM0.810632 6.56231C0.810632 6.32916 0.983955 6.14013 1.19773 6.14013H2.34334C2.55712 6.14013 2.73044 6.32916 2.73044 6.56231C2.73044 6.79546 2.55712 6.98449 2.34334 6.98449H1.19773C0.983955 6.98449 0.810632 6.79551 0.810632 6.56231ZM2.74617 9.49716C2.74617 9.26401 2.91949 9.07498 3.13326 9.07498H5.10543C5.3192 9.07498 5.49252 9.26401 5.49252 9.49716C5.49252 9.7303 5.3192 9.91934 5.10543 9.91934H3.13326C2.91949 9.91934 2.74617 9.73036 2.74617 9.49716Z" fill="black"/>
<path d="M24.539 12.003C24.3106 11.5872 23.3733 10.3528 20.8993 11.9242L16.5369 14.6953C16.3182 14.8342 16.0959 14.9323 15.8637 14.9908C15.9498 14.8404 16.0172 14.6702 16.0634 14.4818C16.2864 13.574 15.7917 12.6263 14.9372 12.3242C14.9206 12.3183 14.9037 12.3137 14.8865 12.3103C13.6328 12.0637 12.3954 11.5758 11.4011 11.1837C11.0556 11.0475 10.7294 10.9188 10.452 10.8208C9.33509 10.4255 8.32554 10.9148 7.4852 11.4454L4.23968 13.4948L3.93373 12.9052C3.79868 12.6449 3.57809 12.4573 3.31259 12.3771C3.04709 12.2968 2.76944 12.3337 2.53084 12.4811L1.30689 13.2366C0.812906 13.5415 0.638519 14.2278 0.918052 14.7666L4.51646 21.701C4.70565 22.0655 5.05491 22.2704 5.41409 22.2704C5.58572 22.2704 5.75967 22.2236 5.91935 22.1251L7.1433 21.3696C7.38199 21.2222 7.55391 20.9817 7.62751 20.6922C7.70111 20.4027 7.66724 20.0999 7.53214 19.8395L7.16115 19.1246L7.90094 18.6587L13.4882 20.2915C13.8038 20.3838 14.1135 20.4298 14.4166 20.4298C15.0209 20.4298 15.5986 20.2468 16.1422 19.8817L24.0588 14.5653C24.7804 14.0807 25.0093 12.8594 24.539 12.003ZM6.88148 20.4667C6.86314 20.5389 6.8207 20.5986 6.76196 20.6348L5.53801 21.3903C5.41757 21.4646 5.25833 21.4165 5.1902 21.2852L1.59175 14.3507C1.52367 14.2195 1.56779 14.0457 1.68818 13.9714L2.91213 13.2159C2.95036 13.1923 2.99284 13.1803 3.0361 13.1803C3.05928 13.1803 3.0827 13.1837 3.10578 13.1908C3.17197 13.2108 3.2267 13.257 3.25989 13.321L6.8584 20.2555C6.89159 20.3195 6.89977 20.3945 6.88148 20.4667ZM23.6528 13.8463L15.7362 19.1628C15.1084 19.5843 14.4196 19.6897 13.6886 19.476L7.94643 17.798C7.84738 17.769 7.74165 17.7841 7.65272 17.8401L6.77981 18.3898L4.62107 14.2297L7.87312 12.1762C8.60062 11.7168 9.38778 11.332 10.2131 11.6239C10.4783 11.7177 10.7839 11.8383 11.1379 11.9778C12.1523 12.3778 13.4131 12.8749 14.7212 13.1357C15.177 13.3094 15.4319 13.7897 15.3156 14.2633C15.1625 14.8862 14.6868 14.9637 14.3082 14.9163C13.6655 14.7722 13.0549 14.5821 12.4087 14.3809C12.1023 14.2854 11.7855 14.1868 11.4599 14.0916C11.2535 14.0315 11.0412 14.1649 10.9858 14.3902C10.9305 14.6154 11.0531 14.8469 11.2595 14.9072C11.579 15.0006 11.8927 15.0983 12.196 15.1928C12.8619 15.4002 13.4909 15.5961 14.1681 15.7471C14.1707 15.7476 14.1809 15.7497 14.1835 15.7501L14.726 15.8463C15.5375 15.9879 16.2572 15.85 16.9265 15.4248L21.2889 12.6537C22.5445 11.8561 23.5112 11.7749 23.8748 12.4368C24.1253 12.893 24.0132 13.6043 23.6528 13.8463ZM3.2673 14.5552C3.30218 14.8156 3.13694 15.0576 2.8981 15.0957C2.65926 15.1338 2.43741 14.9536 2.40247 14.6931C2.36754 14.4327 2.53283 14.1906 2.77167 14.1525C3.01051 14.1145 3.23236 14.2948 3.2673 14.5552ZM9.34893 7.32752C9.6635 7.32752 9.91937 7.61771 9.91937 7.97435C9.91937 8.2075 10.0927 8.39653 10.3065 8.39653H22.0607C22.2745 8.39653 22.4478 8.2075 22.4478 7.97435C22.4478 7.61771 22.7037 7.32752 23.0182 7.32752C23.232 7.32752 23.4053 7.13848 23.4053 6.90533V3.28445C23.4053 3.0513 23.232 2.86227 23.0182 2.86227C22.7037 2.86227 22.4478 2.57207 22.4478 2.21543C22.4478 1.98228 22.2745 1.79325 22.0607 1.79325H10.3065C10.0927 1.79325 9.91937 1.98228 9.91937 2.21543C9.91937 2.57207 9.6635 2.86227 9.34893 2.86227C9.13516 2.86227 8.96183 3.0513 8.96183 3.28445V6.90533C8.96183 7.13854 9.13516 7.32752 9.34893 7.32752ZM9.73603 3.64367C10.1689 3.49913 10.5105 3.11864 10.6387 2.63767H21.7284C21.8567 3.11869 22.1982 3.49918 22.6311 3.64367V6.54616C22.1982 6.69071 21.8567 7.0712 21.7284 7.55217H10.6387C10.5105 7.07115 10.1689 6.69066 9.73603 6.54616V3.64367ZM11.1318 5.09497C11.1318 4.86182 11.3051 4.67279 11.5189 4.67279H12.9624C13.1762 4.67279 13.3495 4.86182 13.3495 5.09497C13.3495 5.32812 13.1762 5.51715 12.9624 5.51715H11.5189C11.3051 5.51715 11.1318 5.32812 11.1318 5.09497ZM19.0175 5.09497C19.0175 4.86182 19.1908 4.67279 19.4046 4.67279H20.8481C21.0619 4.67279 21.2352 4.86182 21.2352 5.09497C21.2352 5.32812 21.0619 5.51715 20.8481 5.51715H19.4046C19.1908 5.51715 19.0175 5.32812 19.0175 5.09497ZM16.5659 5.85901C16.5792 5.84234 16.5897 5.82434 16.5841 5.77378C16.5776 5.71595 16.5625 5.58053 16.1231 5.50185C15.2566 5.3467 15.1039 4.79776 15.0899 4.48439C15.0682 3.99672 15.3481 3.58377 15.7965 3.42308V3.39743C15.7965 3.16428 15.9698 2.97525 16.1836 2.97525C16.3974 2.97525 16.5707 3.16428 16.5707 3.39743V3.41749C16.878 3.52726 17.1322 3.7726 17.2647 4.11657C17.3475 4.33156 17.2548 4.57901 17.0577 4.66925C16.8607 4.7595 16.6337 4.65849 16.5509 4.44344C16.4544 4.19303 16.2111 4.17995 16.0828 4.21182C16.0294 4.22501 15.8559 4.28069 15.8632 4.44344C15.8679 4.54793 15.9975 4.62371 16.2485 4.66867C16.9205 4.789 17.2919 5.12653 17.3526 5.67199C17.3837 5.95063 17.3141 6.20631 17.1515 6.41133C17.0131 6.58596 16.8075 6.7152 16.5707 6.78269V6.79245C16.5707 7.0256 16.3974 7.21464 16.1836 7.21464C15.9698 7.21464 15.7965 7.0256 15.7965 6.79245V6.77509C15.4082 6.64986 15.1149 6.3385 15.0189 5.91865C14.9673 5.69241 15.0935 5.46327 15.3009 5.40691C15.5085 5.35044 15.7184 5.48818 15.7701 5.71442C15.8184 5.92572 16.034 5.99564 16.2065 5.991C16.3773 5.98651 16.5166 5.92118 16.5659 5.85901ZM0.810632 0.692628C0.810632 0.459478 0.983955 0.270447 1.19773 0.270447H3.48891C3.70268 0.270447 3.87601 0.459478 3.87601 0.692628C3.87601 0.925777 3.70268 1.11481 3.48891 1.11481H1.19773C0.983955 1.11481 0.810632 0.925777 0.810632 0.692628ZM2.90531 4.04965C2.69154 4.04965 2.51821 3.86062 2.51821 3.62747C2.51821 3.39432 2.69154 3.20529 2.90531 3.20529H6.49414C6.70791 3.20529 6.88123 3.39432 6.88123 3.62747C6.88123 3.86062 6.70791 4.04965 6.49414 4.04965H2.90531ZM5.04862 1.11481H7.60777V6.14018H3.98967C3.77589 6.14018 3.60257 6.32922 3.60257 6.56237C3.60257 6.79552 3.77589 6.98455 3.98967 6.98455H7.60772V9.07503H6.70414C6.49036 9.07503 6.31704 9.26406 6.31704 9.49721C6.31704 9.73036 6.49036 9.91939 6.70414 9.91939H24.3723C24.586 9.91939 24.7594 9.73036 24.7594 9.49721V0.692628C24.7594 0.459478 24.586 0.270447 24.3723 0.270447H5.04862C4.83485 0.270447 4.66152 0.459478 4.66152 0.692628C4.66152 0.925777 4.83485 1.11481 5.04862 1.11481ZM23.9852 9.07498H8.38191V1.11481H23.9852V9.07498ZM0.810632 6.56231C0.810632 6.32916 0.983955 6.14013 1.19773 6.14013H2.34334C2.55712 6.14013 2.73044 6.32916 2.73044 6.56231C2.73044 6.79546 2.55712 6.98449 2.34334 6.98449H1.19773C0.983955 6.98449 0.810632 6.79551 0.810632 6.56231ZM2.74617 9.49716C2.74617 9.26401 2.91949 9.07498 3.13326 9.07498H5.10543C5.3192 9.07498 5.49252 9.26401 5.49252 9.49716C5.49252 9.7303 5.3192 9.91934 5.10543 9.91934H3.13326C2.91949 9.91934 2.74617 9.73036 2.74617 9.49716Z" stroke="black" stroke-width="0.2" mask="url(#path-1-outside-1_2644_35935)"/>
</svg>
