<svg width="17" height="13" viewBox="0 0 17 13" fill="none" xmlns="http://www.w3.org/2000/svg">
<path d="M9.53906 12.7474H1.20573C0.580729 12.7474 0.164062 12.3307 0.164062 11.7057C0.164062 11.0807 0.580729 10.6641 1.20573 10.6641H9.53906C10.1641 10.6641 10.5807 11.0807 10.5807 11.7057C10.5807 12.3307 10.1641 12.7474 9.53906 12.7474Z" fill="white"/>
<path d="M15.7891 7.54427H1.20573C0.580729 7.54427 0.164062 7.1276 0.164062 6.5026C0.164062 5.8776 0.580729 5.46094 1.20573 5.46094H15.7891C16.4141 5.46094 16.8307 5.8776 16.8307 6.5026C16.8307 7.1276 16.4141 7.54427 15.7891 7.54427Z" fill="white"/>
<path d="M15.7891 2.33333H7.45573C6.83073 2.33333 6.41406 1.91667 6.41406 1.29167C6.41406 0.666667 6.83073 0.25 7.45573 0.25H15.7891C16.4141 0.25 16.8307 0.666667 16.8307 1.29167C16.8307 1.91667 16.4141 2.33333 15.7891 2.33333Z" fill="white"/>
</svg>
