<svg width="17" height="14" viewBox="0 0 17 14" fill="none" xmlns="http://www.w3.org/2000/svg">
<path d="M8.33842 13.1834C8.33702 13.1834 8.33549 13.1834 8.33396 13.1834C7.83024 13.1799 3.37713 13.1385 2.11548 12.7906C1.23375 12.5489 0.537713 11.84 0.300055 10.9408C-0.0300692 9.67704 -0.00905437 7.24401 -0.00676185 7.04973C-0.00892701 6.85637 -0.0301966 4.40321 0.299036 3.1291C0.299418 3.12793 0.299673 3.12663 0.300055 3.12546C0.535039 2.23653 1.24674 1.50565 2.11332 1.26332C2.11548 1.26267 2.11777 1.26215 2.11994 1.2615C3.36733 0.927227 7.82922 0.886319 8.33396 0.882812H8.343C8.84799 0.886319 13.3129 0.927746 14.563 1.27618C15.4424 1.51721 16.138 2.22523 16.3763 3.12325C16.7187 4.39827 16.687 6.85675 16.6836 7.06428C16.686 7.26869 16.706 9.6799 16.3778 10.95C16.3775 10.9513 16.3772 10.9525 16.3769 10.9536C16.1391 11.8528 15.4432 12.5617 14.5605 12.8037C14.5593 12.8041 14.558 12.8043 14.5569 12.8047C13.3096 13.1389 8.84761 13.1798 8.343 13.1834C8.34147 13.1834 8.33994 13.1834 8.33842 13.1834ZM1.55967 3.47012C1.26979 4.59476 1.29718 7.01662 1.29743 7.04103V7.05857C1.28877 7.73023 1.31921 9.67535 1.5598 10.5966C1.67646 11.0378 2.0197 11.3872 2.45503 11.5066C3.38592 11.7633 7.01283 11.8441 8.33842 11.8536C9.66745 11.8441 13.2997 11.7655 14.2237 11.5191C14.6576 11.3993 14.9997 11.051 15.1172 10.6093C15.358 9.67458 15.3882 7.73893 15.3794 7.07155C15.3794 7.06454 15.3794 7.05753 15.3795 7.05051C15.3915 6.3708 15.3679 4.40295 15.1183 3.47428C15.1181 3.47337 15.1178 3.47246 15.1177 3.47155C15.0005 3.02845 14.6571 2.67898 14.2218 2.55964C13.3 2.30263 9.66719 2.22212 8.33842 2.21264C7.01028 2.22212 3.38159 2.30055 2.45477 2.54678C2.02773 2.66755 1.67672 3.02949 1.55967 3.47012ZM6.67621 9.72587V4.34022L11.2409 7.03311L6.67621 9.72587Z" fill="white"/>
</svg>
