<svg width="15" height="15" viewBox="0 0 15 15" fill="none" xmlns="http://www.w3.org/2000/svg">
<path d="M1.78108 0C0.70177 0 -0.00390625 0.70873 -0.00390625 1.64026C-0.00390625 2.55121 0.680748 3.28016 1.73967 3.28016H1.76015C2.86057 3.28016 3.54541 2.55121 3.54541 1.64026C3.52483 0.70873 2.86057 0 1.78108 0Z" fill="white"/>
<path d="M0.179688 4.57812H3.33497V14.0709H0.179688V4.57812Z" fill="white"/>
<path d="M11.0849 4.35156C9.3827 4.35156 8.24131 5.95103 8.24131 5.95103V4.57436H5.08594V14.0672H8.24113V8.76601C8.24113 8.48221 8.2617 8.19887 8.34507 7.99592C8.57317 7.42923 9.09225 6.84214 9.96395 6.84214C11.1057 6.84214 11.5623 7.71266 11.5623 8.98881V14.0672H14.7174V8.62416C14.7174 5.70838 13.1606 4.35156 11.0849 4.35156Z" fill="white"/>
</svg>
