<svg width="13" height="14" viewBox="0 0 13 14" fill="none" xmlns="http://www.w3.org/2000/svg">
<path d="M6.22356 8.58924C5.10901 7.67262 4.36481 6.54156 3.97357 5.89798L3.68172 5.3477C3.78377 5.2382 4.56194 4.40479 4.89916 3.9526C5.32294 3.38479 4.70852 2.87197 4.70852 2.87197C4.70852 2.87197 2.97966 1.1426 2.58566 0.79956C2.19165 0.456039 1.7381 0.646831 1.7381 0.646831C0.909987 1.18198 0.0515036 1.64726 1.73848e-06 3.88488C-0.00191908 5.97987 1.58815 8.14065 3.30764 9.81347C5.02989 11.7027 7.39454 13.5962 9.68066 13.594C11.9177 13.543 12.3828 12.6845 12.9178 11.8562C12.9178 11.8562 13.1087 11.403 12.7656 11.0085C12.4223 10.6142 10.6929 8.88473 10.6929 8.88473C10.6929 8.88473 10.1806 8.27009 9.61272 8.6943C9.18954 9.01068 8.42961 9.71441 8.24654 9.88503C8.2469 9.88563 6.97568 9.20784 6.22356 8.58924Z" fill="white"/>
</svg>
