<svg width="20" height="19" viewBox="0 0 20 19" fill="none" xmlns="http://www.w3.org/2000/svg">
<path d="M14.2738 14.6313L14.1789 14.5364L14.0741 14.6203C12.6881 15.7298 10.9353 16.3975 9.02946 16.3975C4.56698 16.3975 0.93125 12.7549 0.93125 8.29211C0.93125 3.82944 4.56681 0.193884 9.02946 0.193884C13.4922 0.193884 17.1295 3.82948 17.1295 8.29211C17.1295 10.2002 16.4609 11.9559 15.3505 13.344L15.2666 13.4488L15.3615 13.5437L18.796 16.9782C18.9342 17.1233 19.0102 17.3167 19.0079 17.5171C19.0055 17.7181 18.9246 17.9101 18.7824 18.0521C18.6402 18.1941 18.4481 18.2747 18.2471 18.2768C18.0467 18.2788 17.8534 18.2025 17.7084 18.0641L14.2738 14.6313ZM15.5943 8.29211C15.5943 4.65458 12.667 1.72725 9.02946 1.72725C5.39193 1.72725 2.46458 4.65458 2.46458 8.29211C2.46458 11.9294 5.39171 14.8642 9.02946 14.8642C12.6672 14.8642 15.5943 11.9294 15.5943 8.29211Z" fill="black" stroke="white" stroke-width="0.3"/>
</svg>
