<svg width="19" height="17" viewBox="0 0 19 17" fill="none" xmlns="http://www.w3.org/2000/svg">
<path d="M16.9946 3.13586L17.2208 3.17808C17.2208 3.17808 17.6248 3.38012 17.7575 3.73595C17.8932 4.0948 17.2328 4.09782 17.2328 4.09782L16.9403 3.79325L16.9946 3.13586Z" fill="url(#paint0_linear_2789_12775)"/>
<path d="M2.33866 7.26455L1.77174 6.97205C1.77174 6.97205 1.45812 7.10473 1.26513 7.56309C1.07213 8.02145 2.33866 7.72593 2.33866 7.72593V7.26455Z" fill="#BB9051"/>
<path d="M12.6126 2.92816L0.30324 11.4259C0.140402 11.5405 0.134371 11.8179 0.291178 11.9385L5.90307 16.2779C6.12923 16.4528 6.41872 16.4558 6.6479 16.2899L18.707 7.46954C18.8698 7.34892 18.8668 7.06546 18.701 6.95087L12.8719 2.92816C12.7905 2.87388 12.691 2.87388 12.6126 2.92816Z" fill="#BB9051"/>
<path d="M12.1432 0.31391L1.7698 6.97219C1.5949 7.08376 1.59188 7.37928 1.76377 7.4999L6.6248 10.8562C6.70621 10.9105 6.80271 10.9105 6.88413 10.8562L17.2364 3.70939C17.4113 3.58877 17.4023 3.28722 17.2213 3.17866L12.3814 0.307879C12.306 0.262646 12.2156 0.265661 12.1432 0.31391Z" fill="url(#paint1_linear_2789_12775)"/>
<path d="M2.20984 7.24413L12.2696 0.78186L16.7839 3.45965L6.75423 10.3803L2.20984 7.24413Z" fill="url(#paint2_linear_2789_12775)"/>
<path d="M6.73789 11.1362L6.31571 16.0666C6.29762 16.2928 6.0805 16.4134 5.92068 16.2897L0.115796 11.8057C0.0162834 11.7272 -0.025934 11.5795 0.0162834 11.4468L1.26169 7.56583C1.31899 7.39093 1.49389 7.31855 1.6326 7.41203L6.61124 10.8497C6.69869 10.907 6.74693 11.0186 6.73789 11.1362Z" fill="url(#paint3_linear_2789_12775)"/>
<path d="M17.7594 3.73595L18.9777 6.96557C19.029 7.10429 18.9867 7.26713 18.8782 7.34553L6.71355 16.2413C6.53262 16.374 6.30042 16.2051 6.32153 15.9549L6.73768 11.0999C6.74672 11.0034 6.79195 10.9189 6.86433 10.8707L17.3945 3.60326C17.5272 3.50677 17.6961 3.57311 17.7594 3.73595Z" fill="url(#paint4_linear_2789_12775)"/>
<path d="M6.3179 11.194L5.93794 15.651C5.93191 15.7294 5.84144 15.7686 5.77812 15.7233L0.374297 11.586C0.341126 11.5619 0.326048 11.5167 0.33811 11.4775L1.42068 7.86185C1.43878 7.79551 1.51718 7.76837 1.57448 7.80757L6.27266 11.1005C6.30282 11.1247 6.32091 11.1578 6.3179 11.194Z" fill="url(#paint5_linear_2789_12775)"/>
<path d="M3.69951 6.28467L2.20984 7.2436L6.75423 10.3798L12.6888 6.28467H3.69951Z" fill="url(#paint6_linear_2789_12775)"/>
<path d="M1.76038 7.49952C2.58361 8.03327 3.40685 8.57304 4.22104 9.11885L6.66663 10.7653L6.64553 10.7533L6.77218 10.8015L6.71187 10.7985L6.83852 10.7683L6.80233 10.7834L9.35648 8.9922L11.9257 7.22511C12.7791 6.63105 13.6446 6.0581 14.507 5.47308C15.3664 4.89109 16.2349 4.31814 17.1064 3.75122C16.2711 4.3694 15.4297 4.98155 14.5854 5.58466C13.738 6.18776 12.8967 6.7969 12.0433 7.39096L9.48916 9.17916L6.91994 10.9463L6.90486 10.9583L6.88677 10.9613L6.76012 10.9915L6.72996 10.9975L6.6998 10.9855L6.57315 10.9342L6.56109 10.9282L6.55204 10.9221L4.14867 9.21837C3.34654 8.65748 2.55044 8.08151 1.76038 7.49952Z" fill="white"/>
<path d="M17.5077 3.87805L18.732 6.94484C18.7893 7.08657 18.7411 7.24639 18.6144 7.33384L14.8872 9.92116L13.4277 6.89961L17.5077 3.87805Z" fill="url(#paint7_linear_2789_12775)"/>
<path d="M9.74822 3.7695L9.49793 3.93837C9.38937 3.92027 9.28684 3.88409 9.21447 3.83885C9.01545 3.71522 9.00037 3.52222 9.17828 3.4016C9.3562 3.28098 9.65172 3.284 9.84773 3.40763C9.94724 3.47096 10.0136 3.56143 10.0256 3.65189L10.2307 3.6338C10.2126 3.52222 10.1221 3.4016 9.98343 3.31415C9.69092 3.13021 9.26875 3.12116 9.01243 3.29304C8.75611 3.46493 8.78023 3.73934 9.06671 3.92027C9.19939 4.00471 9.39239 4.062 9.55824 4.07708L9.88995 3.85393L9.74822 3.7695Z" fill="url(#paint8_linear_2789_12775)"/>
<path d="M11.015 3.96547C10.7255 3.78454 10.3064 3.77549 10.05 3.95039C9.79371 4.12228 9.82085 4.39669 10.1073 4.58064C10.3968 4.76157 10.819 4.7676 11.0753 4.59571C11.3316 4.4178 11.3045 4.1464 11.015 3.96547ZM10.9095 4.48716C10.7315 4.60778 10.436 4.60476 10.246 4.48716C10.0561 4.36955 10.038 4.17354 10.2159 4.05292C10.3938 3.9323 10.6893 3.93833 10.8823 4.05895C11.0693 4.17656 11.0874 4.36653 10.9095 4.48716Z" fill="url(#paint9_linear_2789_12775)"/>
<path d="M11.863 4.50206L11.7001 4.39954L10.8015 5.00566L11.3865 5.37053L11.5222 5.27705L11.1031 5.0147L11.863 4.50206Z" fill="url(#paint10_linear_2789_12775)"/>
<path d="M12.8374 5.11162L12.4393 4.86133L11.5437 5.46745L11.9357 5.71472C12.2282 5.89867 12.6293 5.9047 12.8886 5.7298C13.151 5.55188 13.1269 5.29255 12.8374 5.11162ZM12.7228 5.62727C12.5418 5.75091 12.2674 5.74789 12.0805 5.63029L11.8422 5.48253L12.4665 5.06035L12.6986 5.2051C12.8886 5.3227 12.9067 5.50363 12.7228 5.62727Z" fill="url(#paint11_linear_2789_12775)"/>
<path d="M9.77715 3.70968L9.52686 3.87855C9.4183 3.86046 9.31577 3.82427 9.2434 3.77904C9.04438 3.6554 9.0293 3.46241 9.20721 3.34179C9.38513 3.22117 9.68065 3.22418 9.87666 3.34782C9.97617 3.41115 10.0425 3.50161 10.0546 3.59208L10.2596 3.57398C10.2415 3.46241 10.1511 3.34179 10.0124 3.25434C9.71985 3.07039 9.29768 3.06134 9.04136 3.23323C8.78504 3.40511 8.80917 3.67953 9.09564 3.86046C9.22832 3.94489 9.42132 4.00219 9.58717 4.01727L9.91888 3.79412L9.77715 3.70968Z" fill="url(#paint12_linear_2789_12775)"/>
<path d="M11.0439 3.9026C10.7544 3.72167 10.3353 3.71263 10.079 3.88753C9.82264 4.05941 9.84978 4.33382 10.1363 4.51777C10.4257 4.6987 10.8479 4.70473 11.1042 4.53285C11.3606 4.35795 11.3334 4.08655 11.0439 3.9026ZM10.9384 4.42731C10.7605 4.54793 10.4649 4.54491 10.275 4.42731C10.085 4.3097 10.0669 4.11369 10.2448 3.99307C10.4227 3.87245 10.7183 3.87848 10.9112 3.9991C11.0982 4.11671 11.1163 4.30668 10.9384 4.42731Z" fill="url(#paint13_linear_2789_12775)"/>
<path d="M11.893 4.4392L11.7302 4.33667L10.8346 4.94279L11.4166 5.30767L11.5523 5.2172L11.1331 4.95184L11.893 4.4392Z" fill="url(#paint14_linear_2789_12775)"/>
<path d="M12.8662 5.0518L12.4681 4.80151L11.5725 5.40763L11.9645 5.65491C12.257 5.83885 12.6581 5.84488 12.9174 5.66998C13.1798 5.49207 13.1557 5.23273 12.8662 5.0518ZM12.7516 5.56444C12.5706 5.68808 12.2962 5.68506 12.1093 5.56746L11.871 5.4197L12.4953 4.99752L12.7275 5.14227C12.9174 5.25987 12.9355 5.44081 12.7516 5.56444Z" fill="url(#paint15_linear_2789_12775)"/>
<defs>
<linearGradient id="paint0_linear_2789_12775" x1="16.9421" y1="3.61684" x2="17.7783" y2="3.61684" gradientUnits="userSpaceOnUse">
<stop offset="0.00558659" stop-color="#B07A24"/>
<stop offset="1" stop-color="#FFDF6B"/>
</linearGradient>
<linearGradient id="paint1_linear_2789_12775" x1="1.63651" y1="5.58625" x2="17.3637" y2="5.58625" gradientUnits="userSpaceOnUse">
<stop offset="0.00558659" stop-color="#B07A24"/>
<stop offset="1" stop-color="#FFDF6B"/>
</linearGradient>
<linearGradient id="paint2_linear_2789_12775" x1="2.20863" y1="5.58197" x2="16.7842" y2="5.58197" gradientUnits="userSpaceOnUse">
<stop offset="0.00558659" stop-color="#F7C642"/>
<stop offset="1" stop-color="#FAE77D"/>
</linearGradient>
<linearGradient id="paint3_linear_2789_12775" x1="0.00120577" y1="11.8542" x2="6.73819" y2="11.8542" gradientUnits="userSpaceOnUse">
<stop offset="0.00558659" stop-color="#B07A24"/>
<stop offset="1" stop-color="#FFDF6B"/>
</linearGradient>
<linearGradient id="paint4_linear_2789_12775" x1="6.32214" y1="9.92139" x2="18.9988" y2="9.92139" gradientUnits="userSpaceOnUse">
<stop offset="0.00558659" stop-color="#B07A24"/>
<stop offset="1" stop-color="#FFDF6B"/>
</linearGradient>
<linearGradient id="paint5_linear_2789_12775" x1="6.83446" y1="17.8843" x2="2.21497" y2="9.27493" gradientUnits="userSpaceOnUse">
<stop stop-color="white"/>
<stop offset="0.9423" stop-color="white" stop-opacity="0"/>
</linearGradient>
<linearGradient id="paint6_linear_2789_12775" x1="2.20863" y1="8.33311" x2="16.7842" y2="8.33311" gradientUnits="userSpaceOnUse">
<stop offset="0.00558659" stop-color="#B07A24"/>
<stop offset="1" stop-color="#FFDF6B"/>
</linearGradient>
<linearGradient id="paint7_linear_2789_12775" x1="19.2112" y1="8.26081" x2="15.519" y2="6.59323" gradientUnits="userSpaceOnUse">
<stop stop-color="white"/>
<stop offset="0.9423" stop-color="white" stop-opacity="0"/>
</linearGradient>
<linearGradient id="paint8_linear_2789_12775" x1="8.92347" y1="4.24535" x2="10.5799" y2="2.36728" gradientUnits="userSpaceOnUse">
<stop offset="0.00558659" stop-color="#B07A24"/>
<stop offset="1" stop-color="#FFDF6B"/>
</linearGradient>
<linearGradient id="paint9_linear_2789_12775" x1="9.85764" y1="5.06915" x2="11.5141" y2="3.19139" gradientUnits="userSpaceOnUse">
<stop offset="0.00558659" stop-color="#B07A24"/>
<stop offset="1" stop-color="#FFDF6B"/>
</linearGradient>
<linearGradient id="paint10_linear_2789_12775" x1="10.6278" y1="5.74748" x2="12.2842" y2="3.86971" gradientUnits="userSpaceOnUse">
<stop offset="0.00558659" stop-color="#B07A24"/>
<stop offset="1" stop-color="#FFDF6B"/>
</linearGradient>
<linearGradient id="paint11_linear_2789_12775" x1="11.4538" y1="6.47614" x2="13.1103" y2="4.59837" gradientUnits="userSpaceOnUse">
<stop offset="0.00558659" stop-color="#B07A24"/>
<stop offset="1" stop-color="#FFDF6B"/>
</linearGradient>
<linearGradient id="paint12_linear_2789_12775" x1="10.5301" y1="2.25891" x2="9.47228" y2="3.61409" gradientUnits="userSpaceOnUse">
<stop offset="0.00558659" stop-color="#B07A24"/>
<stop offset="1" stop-color="#FFDF6B"/>
</linearGradient>
<linearGradient id="paint13_linear_2789_12775" x1="11.5147" y1="3.0272" x2="10.4565" y2="4.38237" gradientUnits="userSpaceOnUse">
<stop offset="0.00558659" stop-color="#B07A24"/>
<stop offset="1" stop-color="#FFDF6B"/>
</linearGradient>
<linearGradient id="paint14_linear_2789_12775" x1="12.3113" y1="3.64792" x2="11.2535" y2="5.0028" gradientUnits="userSpaceOnUse">
<stop offset="0.00558659" stop-color="#B07A24"/>
<stop offset="1" stop-color="#FFDF6B"/>
</linearGradient>
<linearGradient id="paint15_linear_2789_12775" x1="13.1967" y1="4.34044" x2="12.1385" y2="5.69532" gradientUnits="userSpaceOnUse">
<stop offset="0.00558659" stop-color="#B07A24"/>
<stop offset="1" stop-color="#FFDF6B"/>
</linearGradient>
</defs>
</svg>
