<svg width="13" height="19" viewBox="0 0 13 19" fill="none" xmlns="http://www.w3.org/2000/svg">
<path d="M9.41645 10.1881C9.30925 9.97088 9.25385 9.73571 9.25385 9.49788C9.25385 9.26005 9.30925 9.02488 9.41645 8.80763L12.7572 2.03745C13.6761 0.417068 11.773 -0.514824 10.6101 0.300414C8.45213 1.81324 2.9846 6.36614 0.508949 8.44369C0.348395 8.57839 0.220334 8.74152 0.132765 8.92291C0.0451965 9.10429 0 9.30002 0 9.49788C0 9.69574 0.0451965 9.89147 0.132765 10.0729C0.220334 10.2542 0.348395 10.4174 0.508949 10.5521C2.9846 12.6296 8.45213 17.1825 10.6101 18.6953C11.8018 19.5308 13.659 18.5485 12.7572 16.9583L9.41645 10.1881Z" fill="white"/>
</svg>
