<svg width="13" height="19" viewBox="0 0 13 19" fill="none" xmlns="http://www.w3.org/2000/svg">
<path d="M3.58355 10.1881C3.69075 9.97088 3.74615 9.73571 3.74615 9.49788C3.74615 9.26005 3.69075 9.02488 3.58355 8.80763L0.242816 2.03745C-0.676133 0.417068 1.22703 -0.514824 2.38992 0.300414C4.54787 1.81324 10.0154 6.36614 12.4911 8.44369C12.6516 8.57839 12.7797 8.74152 12.8672 8.92291C12.9548 9.10429 13 9.30002 13 9.49788C13 9.69574 12.9548 9.89147 12.8672 10.0729C12.7797 10.2542 12.6516 10.4174 12.4911 10.5521C10.0154 12.6296 4.54787 17.1825 2.38992 18.6953C1.19823 19.5308 -0.65899 18.5485 0.242816 16.9583L3.58355 10.1881Z" fill="white"/>
</svg>
