<svg width="51" height="51" viewBox="0 0 51 51" fill="none" xmlns="http://www.w3.org/2000/svg">
<rect width="51" height="51" rx="25.5" transform="matrix(-1 0 0 1 51 0)" fill="url(#paint0_linear_675_56919)"/>
<path d="M22.5836 26.1881C22.6908 25.9709 22.7462 25.7357 22.7462 25.4979C22.7462 25.2601 22.6908 25.0249 22.5836 24.8076L19.2428 18.0374C18.3239 16.4171 20.227 15.4852 21.3899 16.3004C23.5479 17.8132 29.0154 22.3661 31.4911 24.4437C31.6516 24.5784 31.7797 24.7415 31.8672 24.9229C31.9548 25.1043 32 25.3 32 25.4979C32 25.6957 31.9548 25.8915 31.8672 26.0729C31.7797 26.2542 31.6516 26.4174 31.4911 26.5521C29.0154 28.6296 23.5479 33.1825 21.3899 34.6953C20.1982 35.5308 18.341 34.5485 19.2428 32.9583L22.5836 26.1881Z" fill="white"/>
<defs>
<linearGradient id="paint0_linear_675_56919" x1="4.64465" y1="2.70155" x2="27.7762" y2="54.825" gradientUnits="userSpaceOnUse">
<stop stop-color="#17479E"/>
<stop offset="1" stop-color="#C63B3B"/>
</linearGradient>
</defs>
</svg>
