<svg width="42" height="42" viewBox="0 0 42 42" fill="none" xmlns="http://www.w3.org/2000/svg">
<g id="renovation" clip-path="url(#clip0_675_37071)">
<g id="Group">
<path id="Vector" d="M11.0701 16.8706L14.3295 20.1299L20.13 14.3294L16.8707 11.0701C17.7692 8.05702 16.9599 4.7788 14.7038 2.5227C12.3804 0.199327 8.9958 -0.592931 5.87082 0.454936C5.49241 0.581838 5.19907 0.88437 5.0839 1.26655C4.96873 1.64865 5.04608 2.06299 5.29136 2.37783L8.71452 6.77167L6.77169 8.71458L2.37785 5.29125C2.06302 5.0459 1.64868 4.96862 1.26666 5.0838C0.884473 5.19897 0.581942 5.49223 0.45504 5.87072C-0.592991 8.99578 0.199266 12.3803 2.52272 14.7037C4.77882 16.9598 8.05704 17.7692 11.0701 16.8706Z" fill="#17479E"/>
<path id="Vector_2" d="M30.9309 25.1343L27.6716 21.875L21.8711 27.6754L25.1304 30.9347C24.2319 33.9478 25.0412 37.226 27.2973 39.4822C28.9425 41.1275 31.1197 42.005 33.3602 42.0049C34.2837 42.0049 35.2182 41.8558 36.1303 41.5499C36.5087 41.423 36.802 41.1204 36.9172 40.7382C37.0324 40.3561 36.955 39.9418 36.7097 39.627L33.2866 35.2331L35.2294 33.2903L39.6232 36.7135C39.938 36.9587 40.3522 37.0359 40.7344 36.9209C41.1166 36.8058 41.4191 36.5125 41.546 36.134C42.5941 33.0089 41.8018 29.6244 39.4784 27.301C37.2222 25.045 33.944 24.2359 30.9309 25.1343Z" fill="#17479E"/>
<path id="Vector_3" d="M11.3503 26.5909C10.8697 26.1103 10.0907 26.1103 9.61015 26.5909L1.1994 35.0016C-0.3998 36.6008 -0.3998 39.2029 1.1994 40.8021C2.7986 42.4013 5.40071 42.4013 6.99991 40.8021L15.4107 32.3914C15.8912 31.9108 15.8912 31.1318 15.4107 30.6513L11.3503 26.5909Z" fill="#17479E"/>
<path id="Vector_4" d="M32.462 19.9812C33.0043 20.5234 33.7253 20.8222 34.4922 20.8222C35.2591 20.8222 35.9801 20.5234 36.5224 19.9812L41.1628 15.3408C42.2822 14.2214 42.2822 12.3999 41.1628 11.2805L30.7219 0.839549C29.6025 -0.27985 27.7811 -0.27985 26.6615 0.839549L22.0212 5.47997C20.9018 6.59937 20.9018 8.42088 22.0212 9.54027L32.462 19.9812Z" fill="#17479E"/>
<path id="Vector_5" d="M23.4684 14.4727L13.0898 24.8512L13.09 24.8513L17.1501 28.9116L27.5287 18.533L23.4684 14.4727Z" fill="#17479E"/>
</g>
</g>
<defs>
<clipPath id="clip0_675_37071">
<rect width="42" height="42" fill="white"/>
</clipPath>
</defs>
</svg>
