<svg width="46" height="46" viewBox="0 0 46 46" fill="none" xmlns="http://www.w3.org/2000/svg">
<g id="profit (1)">
<g id="Group">
<path id="Vector" d="M16.7922 41.0508H7.07878C5.71504 41.0508 4.60547 42.1604 4.60547 43.525C4.60547 44.8887 5.71504 45.9983 7.07878 45.9983H21.1585C19.3518 44.7081 17.8524 43.0147 16.7922 41.0508Z" fill="#17479E"/>
<path id="Vector_2" d="M7.07878 38.3529H15.6729C15.2731 37.0287 15.0592 35.6263 15.0592 34.1744C15.0592 33.9166 15.0664 33.6605 15.079 33.4062H7.07878C5.71504 33.4062 4.60547 34.5158 4.60547 35.8796C4.60547 37.2434 5.71504 38.3529 7.07878 38.3529Z" fill="#17479E"/>
<path id="Vector_3" d="M7.07878 30.717H15.477C15.9199 28.913 16.7015 27.2393 17.75 25.7695H7.07878C5.71504 25.7695 4.60547 26.8791 4.60547 28.2428C4.60547 29.6074 5.71504 30.717 7.07878 30.717Z" fill="#17479E"/>
<path id="Vector_4" d="M7.07878 23.0657H20.2367C22.4027 21.241 25.1077 20.038 28.0743 19.7317C27.7239 18.7912 26.8166 18.1191 25.7555 18.1191H7.07878C5.71504 18.1191 4.60547 19.2287 4.60547 20.5924C4.60547 21.9561 5.71504 23.0657 7.07878 23.0657Z" fill="#17479E"/>
<path id="Vector_5" d="M21.2788 25.7632C19.9016 27.1224 18.8558 28.8159 18.2737 30.7106C15.8498 38.5965 22.1076 46.4933 30.3068 45.9734C36.4878 45.5961 41.4002 40.4483 41.4002 34.1739C41.4002 23.8443 28.8339 18.3027 21.2788 25.7632ZM33.8447 37.365C33.6012 38.8141 32.5447 40.283 30.8917 40.8274V41.1868C30.8917 41.9807 30.2056 42.5958 29.448 42.5308C28.749 42.4814 28.1965 41.8992 28.1965 41.1868V40.9847C27.3102 40.8674 26.6235 40.5431 25.8634 40.045C25.7187 39.9507 25.5983 39.833 25.504 39.7C24.672 38.5356 25.9961 37.0562 27.2424 37.7316H27.2433C27.9568 38.1091 27.9431 38.365 29.5001 38.3524C29.8684 38.3497 30.1811 38.2464 30.4326 38.082V38.0811C31.3062 37.511 31.6869 35.9438 30.2682 35.4416C29.1244 35.0386 27.1484 34.2983 26.3637 33.3699H26.3628C24.7753 31.5437 25.6969 28.2555 28.1964 27.5258C28.1964 27.1797 28.1166 26.4429 28.8568 26.0022C29.6168 25.551 30.8917 25.849 30.8917 27.4611C31.2022 27.5431 31.6221 27.7107 32.0421 27.9047C32.8753 28.2895 33.0931 29.3737 32.4709 30.0483C32.0711 30.4817 31.436 30.6054 30.9025 30.3545C30.4921 30.1614 29.9206 29.8172 28.9897 30.1006C28.2327 30.3297 28.127 31.3985 28.43 31.6342C29.086 32.1515 30.3726 32.6195 31.1665 32.9C33.1017 33.5847 34.1789 35.3788 33.8447 37.365Z" fill="#17479E"/>
<path id="Vector_6" d="M10.9408 9.17022H12.6127C13.2191 9.17022 13.7105 9.66166 13.7105 10.268V14.3306C13.7105 14.937 14.202 15.4284 14.8074 15.4284H18.0264C18.6319 15.4284 19.1234 14.9369 19.1234 14.3306V10.268C19.1234 9.66157 19.6148 9.17022 20.2212 9.17022H21.8931C22.7699 9.17022 23.2927 8.19182 22.805 7.46238L17.3293 0.487178C16.8944 -0.162393 15.9395 -0.162393 15.5046 0.487178L10.0289 7.46238C9.54108 8.19182 10.064 9.17022 10.9408 9.17022Z" fill="#17479E"/>
</g>
</g>
</svg>
