<svg width="48" height="48" viewBox="0 0 48 48" fill="none" xmlns="http://www.w3.org/2000/svg">
<g id="decentralized">
<g id="_x32_0">
<path id="Vector" d="M43.5 3H40.5C39.6709 3 39 3.6709 39 4.5C39 5.14572 39.4115 5.68414 39.9832 5.89572L37.9395 7.93945C37.3535 8.52539 37.3535 9.47461 37.9395 10.0605C38.2324 10.3535 38.6162 10.5 39 10.5C39.3838 10.5 39.7676 10.3535 40.0605 10.0605L42.1043 8.01682C42.3159 8.58847 42.8543 9 43.5 9C44.3291 9 45 8.3291 45 7.5V4.5C45 3.6709 44.3291 3 43.5 3Z" fill="#17479E"/>
<path id="Vector_2" d="M43.5 39C42.8543 39 42.3159 39.4115 42.1043 39.9832L40.0605 37.9395C39.4746 37.3535 38.5254 37.3535 37.9395 37.9395C37.3535 38.5254 37.3535 39.4746 37.9395 40.0605L39.9831 42.1042C39.4115 42.3158 39 42.8544 39 43.5C39 44.3291 39.6709 45 40.5 45H43.5C44.3291 45 45 44.3291 45 43.5V40.5C45 39.6709 44.3291 39 43.5 39Z" fill="#17479E"/>
<path id="Vector_3" d="M8.01682 5.89572C8.58847 5.68414 9 5.14572 9 4.5C9 3.6709 8.3291 3 7.5 3H4.5C3.6709 3 3 3.6709 3 4.5V7.5C3 8.3291 3.6709 9 4.5 9C5.14563 9 5.68423 8.58847 5.89581 8.01691L7.93945 10.0605C8.23242 10.3535 8.61621 10.5 9 10.5C9.38379 10.5 9.76758 10.3535 10.0605 10.0605C10.6465 9.47461 10.6465 8.52539 10.0605 7.93945L8.01682 5.89572Z" fill="#17479E"/>
<path id="Vector_4" d="M7.93945 37.9395L5.89581 39.9831C5.68423 39.4114 5.14572 39 4.5 39C3.6709 39 3 39.6709 3 40.5V43.5C3 44.3291 3.6709 45 4.5 45H7.5C8.3291 45 9 44.3291 9 43.5C9 42.8543 8.58856 42.3158 8.01691 42.1042L10.0605 40.0605C10.6465 39.4746 10.6465 38.5254 10.0605 37.9395C9.47461 37.3535 8.52539 37.3535 7.93945 37.9395Z" fill="#17479E"/>
<path id="Vector_5" d="M19.5 20.2876V16.5C19.5 15.6715 18.8285 15 18 15H15C14.1715 15 13.5 15.6715 13.5 16.5V24.5334C15.0538 22.61 17.1261 21.1307 19.5 20.2876Z" fill="#17479E"/>
<path id="Vector_6" d="M27 19.8476V10.5C27 9.67154 26.3285 9 25.5 9H22.5C21.6715 9 21 9.67154 21 10.5V19.8476C21.9664 19.6272 22.9677 19.5 24 19.5C25.0323 19.5 26.0336 19.6272 27 19.8476Z" fill="#17479E"/>
<path id="Vector_7" d="M34.5 24.5334V4.5C34.5 3.67154 33.8285 3 33 3H30C29.1715 3 28.5 3.67154 28.5 4.5V20.2876C30.8739 21.1307 32.9462 22.61 34.5 24.5334Z" fill="#17479E"/>
<path id="Vector_8" d="M24 21C17.3833 21 12 26.3833 12 33C12 39.6167 17.3833 45 24 45C30.6167 45 36 39.6167 36 33C36 26.3833 30.6167 21 24 21ZM24 32.25C26.4814 32.25 28.5 34.2686 28.5 36.75C28.5 38.9746 26.8738 40.8146 24.75 41.1742V42.75C24.75 43.1646 24.4146 43.5 24 43.5C23.5854 43.5 23.25 43.1646 23.25 42.75V41.1742C21.1262 40.8146 19.5 38.9746 19.5 36.75C19.5 36.3354 19.8354 36 20.25 36C20.6646 36 21 36.3354 21 36.75C21 38.4045 22.3455 39.75 24 39.75C25.6545 39.75 27 38.4045 27 36.75C27 35.0955 25.6545 33.75 24 33.75C21.5186 33.75 19.5 31.7314 19.5 29.25C19.5 27.0254 21.1262 25.1854 23.25 24.8258V23.25C23.25 22.8354 23.5854 22.5 24 22.5C24.4146 22.5 24.75 22.8354 24.75 23.25V24.8258C26.8738 25.1854 28.5 27.0254 28.5 29.25C28.5 29.6646 28.1646 30 27.75 30C27.3354 30 27 29.6646 27 29.25C27 27.5955 25.6545 26.25 24 26.25C22.3455 26.25 21 27.5955 21 29.25C21 30.9045 22.3455 32.25 24 32.25Z" fill="#17479E"/>
</g>
</g>
</svg>
