<svg width="46" height="56" viewBox="0 0 46 56" fill="none" xmlns="http://www.w3.org/2000/svg">
<g id="accounting (1)">
<g id="Group">
<path id="Vector" d="M44.1925 33.0494C43.5494 30.8088 42.285 28.798 40.5366 27.235C38.4695 25.386 35.8466 24.2879 33.0937 24.108V10.4525C33.0937 8.76977 31.7248 7.40039 30.0421 7.40039H4.65508C2.97234 7.40039 1.60352 8.76977 1.60352 10.4525V45.5575C1.60352 47.2402 2.97234 48.6096 4.65508 48.6096H29.6642C30.5119 48.7906 31.3858 48.883 32.2734 48.883C36.1091 48.883 39.6671 47.15 42.0362 44.1291C43.2912 42.53 44.1389 40.6291 44.4884 38.633C44.612 37.9264 44.6743 37.2023 44.6743 36.4816C44.6743 35.3123 44.5119 34.1573 44.1925 33.0494ZM7.56172 13.1382C7.56172 12.9873 7.68422 12.8648 7.83516 12.8648H26.862C27.013 12.8648 27.1355 12.9873 27.1355 13.1382V20.1382C27.1355 20.2891 27.013 20.4116 26.862 20.4116H7.83516C7.68422 20.4116 7.56172 20.2891 7.56172 20.1382V13.1382ZM27.1355 24.3628V25.193C27.0436 25.2345 26.9523 25.2772 26.862 25.3215C26.7702 25.3658 26.6788 25.4117 26.5886 25.4588C26.5049 25.5014 26.4223 25.5457 26.3398 25.5905C26.2069 25.6622 26.0734 25.7382 25.9427 25.8164C25.3855 26.1478 24.8528 26.5241 24.3584 26.9348C24.3546 26.938 24.3502 26.9413 24.3464 26.9446C24.3442 26.9463 24.342 26.9479 24.3404 26.9501C24.126 27.1289 23.9182 27.3137 23.718 27.5046C23.6234 27.5943 23.5305 27.6856 23.4397 27.778C23.3505 27.8683 23.2636 27.9591 23.1777 28.0515H23.0952C22.9437 28.0515 22.8217 27.929 22.8217 27.778V24.3628C22.8217 24.2119 22.9437 24.0894 23.0952 24.0894H26.862C27.013 24.0894 27.1355 24.2119 27.1355 24.3628ZM11.8755 43.0577C11.8755 43.2092 11.7535 43.3312 11.602 43.3312H7.83516C7.68422 43.3312 7.56172 43.2092 7.56172 43.0577V39.643C7.56172 39.4916 7.68422 39.3696 7.83516 39.3696H11.602C11.7535 39.3696 11.8755 39.4916 11.8755 39.643V43.0577ZM11.8755 35.4179C11.8755 35.5688 11.7535 35.6913 11.602 35.6913H7.83516C7.68422 35.6913 7.56172 35.5688 7.56172 35.4179V32.0027C7.56172 31.8517 7.68422 31.7292 7.83516 31.7292H11.602C11.7535 31.7292 11.8755 31.8517 11.8755 32.0027V35.4179ZM11.8755 27.778C11.8755 27.929 11.7535 28.0515 11.602 28.0515H7.83516C7.68422 28.0515 7.56172 27.929 7.56172 27.778V24.3628C7.56172 24.2119 7.68422 24.0894 7.83516 24.0894H11.602C11.7535 24.0894 11.8755 24.2119 11.8755 24.3628V27.778ZM19.5055 43.0577C19.5055 43.2092 19.383 43.3312 19.232 43.3312H15.4652C15.3137 43.3312 15.1917 43.2092 15.1917 43.0577V39.643C15.1917 39.4916 15.3137 39.3696 15.4652 39.3696H19.232C19.383 39.3696 19.5055 39.4916 19.5055 39.643V43.0577ZM19.5055 35.4179C19.5055 35.5688 19.383 35.6913 19.232 35.6913H15.4652C15.3137 35.6913 15.1917 35.5688 15.1917 35.4179V32.0027C15.1917 31.8517 15.3137 31.7292 15.4652 31.7292H19.232C19.383 31.7292 19.5055 31.8517 19.5055 32.0027V35.4179ZM19.5055 27.778C19.5055 27.929 19.383 28.0515 19.232 28.0515H15.4652C15.3137 28.0515 15.1917 27.929 15.1917 27.778V24.3628C15.1917 24.2119 15.3137 24.0894 15.4652 24.0894H19.232C19.383 24.0894 19.5055 24.2119 19.5055 24.3628V27.778ZM42.3331 38.2562C42.046 39.8984 41.3482 41.4625 40.3152 42.7794C38.3634 45.2682 35.4321 46.6955 32.2734 46.6955C26.6416 46.6955 22.0599 42.1133 22.0599 36.4816C22.0599 33.442 23.3998 30.5824 25.7355 28.6345C25.7409 28.6301 25.7459 28.6263 25.7508 28.6219C25.7519 28.6208 25.753 28.6202 25.7535 28.6191C26.1615 28.2806 26.6017 27.97 27.0622 27.6955C27.1683 27.6326 27.2766 27.5708 27.3865 27.5112C28.8745 26.698 30.5649 26.2681 32.2734 26.2681C32.322 26.2681 32.3691 26.2681 32.4221 26.2692C34.882 26.3042 37.2455 27.2257 39.0781 28.8652C40.5191 30.1537 41.5604 31.8091 42.0903 33.6542C42.3534 34.5664 42.4868 35.518 42.4868 36.4816C42.4868 37.0766 42.4354 37.6738 42.3331 38.2562Z" fill="#17479E"/>
<path id="Vector_2" d="M36.7686 38.9141C36.7686 40.7882 35.2625 42.326 33.3687 42.4354V43.6035H31.1812V42.4348C29.3962 42.326 27.9781 40.8735 27.9781 39.1044H30.1656C30.1656 39.7382 30.7185 40.2545 31.3977 40.2545H33.1521C33.9402 40.2545 34.5811 39.6534 34.5811 38.9141C34.5811 38.5635 34.4378 38.2321 34.1764 37.9805C33.9052 37.7186 33.5415 37.5742 33.1521 37.5742H31.3977C29.4033 37.5742 27.7812 35.9916 27.7812 34.0463C27.7812 33.097 28.1624 32.2061 28.8548 31.5384C29.4842 30.9308 30.3034 30.5753 31.1812 30.5255V29.3574H33.3687V30.5261C35.1537 30.6349 36.5717 32.0874 36.5717 33.8566H34.3842C34.3842 33.2222 33.8319 32.7065 33.1521 32.7065H31.3977C31.0089 32.7065 30.6447 32.8509 30.3734 33.1128C30.1126 33.3644 29.9687 33.6963 29.9687 34.0463C29.9687 34.7857 30.6097 35.3867 31.3977 35.3867H33.1521C34.1108 35.3867 35.0142 35.7488 35.6956 36.4061C36.3874 37.0738 36.7686 37.9647 36.7686 38.9141Z" fill="#17479E"/>
</g>
</g>
</svg>
