<svg width="44" height="44" viewBox="0 0 44 44" fill="none" xmlns="http://www.w3.org/2000/svg">
<g id="debt-consolidation">
<path id="Vector" fill-rule="evenodd" clip-rule="evenodd" d="M38.8378 28.6106C39.0358 31.1375 38.4108 33.6517 36.6081 36.0125C34.3702 38.9434 31.1969 40.513 27.5093 40.513H19.6689C15.9808 40.513 12.8071 38.9428 10.5694 36.0113C5.38587 29.2204 9.93541 21.163 15.8267 15.1808C15.9607 15.2017 16.0981 15.2127 16.238 15.2127H22.5192C22.8396 15.3967 23.1595 15.5813 23.4786 15.7672C25.1761 16.7561 27.2807 16.4722 28.6657 15.2127C28.7227 15.1907 30.8281 15.2491 31.2797 15.1911C30.0042 16.3801 29.1216 17.9849 28.8479 19.7898C27.3649 18.732 25.5498 18.1095 23.5893 18.1095C18.5824 18.1095 14.5235 22.1684 14.5235 27.1753C14.5235 32.1822 18.5824 36.2411 23.5893 36.2411C28.387 36.2411 32.3137 32.5142 32.6335 27.7976C34.4827 28.8987 36.7311 29.2058 38.8378 28.6106ZM6.46388 7.96014V22.0651C7.14536 22.2954 7.82899 22.5953 8.48959 22.9855C9.90395 19.9117 11.9124 16.83 14.504 14.5661C15.5576 13.6457 16.7763 12.9511 18.2911 11.2254C19.9737 12.1964 22.6647 13.7018 24.1706 14.5791C25.6101 15.4178 27.4744 14.9262 28.3131 13.4867C29.1507 12.0491 28.6584 10.1815 27.2207 9.34399C24.1745 7.5693 21.4107 5.88484 18.3003 4.22538C17.0949 3.58231 15.7834 3.74525 14.5029 4.22195C11.5064 5.3375 10.0329 7.16857 6.46388 7.96014ZM36.6797 14.4395C33.0639 14.4395 30.1328 17.3706 30.1328 20.9864C30.1328 24.6021 33.0639 27.5333 36.6797 27.5333C40.2954 27.5333 43.2266 24.6021 43.2266 20.9864C43.2266 17.3706 40.2954 14.4395 36.6797 14.4395ZM38.7735 18.1854L35.6769 21.3111L34.5722 20.2342C34.1084 19.7831 33.3666 19.7934 32.9154 20.2572C32.4643 20.721 32.4745 21.4628 32.9384 21.914L34.8745 23.801C35.3339 24.248 36.0687 24.2431 36.5219 23.7873L40.4349 19.8376C40.8911 19.3787 40.8891 18.637 40.4303 18.1808C39.9715 17.7245 39.2298 17.7266 38.7735 18.1854ZM5.08887 7.25133V22.4285C5.08887 22.8134 4.774 23.1282 4.38926 23.1282H1.47305C1.08823 23.1282 0.773438 22.8134 0.773438 22.4285V7.25133C0.773438 6.86641 1.08823 6.55154 1.47305 6.55154H4.38926C4.774 6.55154 5.08887 6.86641 5.08887 7.25133ZM23.5892 20.8476C20.0944 20.8476 17.2614 23.6807 17.2614 27.1754C17.2614 30.6702 20.0944 33.5032 23.5892 33.5032C27.0839 33.5032 29.917 30.6702 29.917 27.1754C29.9169 23.6807 27.0839 20.8476 23.5892 20.8476ZM22.9017 23.4144V23.9268C22.5659 24.0212 22.2653 24.201 22.0252 24.4411C20.7578 25.7085 21.6734 27.8629 23.4419 27.8629C23.7267 27.8629 23.96 27.8276 24.1809 28.0485C24.5837 28.4513 24.2849 29.1232 23.7365 29.1232C23.3615 29.1232 23.041 29.183 22.8093 28.8619C22.5883 28.5549 22.1603 28.4852 21.8532 28.7062C21.5463 28.9272 21.4765 29.3552 21.6975 29.6623C21.986 30.0622 22.4181 30.3463 22.9017 30.4526V30.9365C22.9017 31.3161 23.2096 31.624 23.5892 31.624C23.9689 31.624 24.2767 31.3161 24.2767 30.9365V30.424C24.6125 30.3297 24.9131 30.1499 25.1532 29.9098C26.4205 28.6424 25.5051 26.488 23.7365 26.488C23.4517 26.488 23.2184 26.5233 22.9975 26.3024C22.5947 25.8996 22.8935 25.2277 23.4419 25.2277C23.8271 25.2277 24.1343 25.1672 24.3691 25.4917C24.5916 25.7987 25.0209 25.8673 25.3278 25.6448C25.6349 25.4223 25.7034 24.993 25.4809 24.6861C25.1938 24.2895 24.76 24.0046 24.2767 23.8985V23.4145C24.2767 23.0349 23.9688 22.727 23.5892 22.727C23.2095 22.7269 22.9017 23.0347 22.9017 23.4144ZM30.0398 11.278H30.9403C31.6442 11.278 32.2202 11.854 32.2202 12.5579C32.2202 13.2618 31.6442 13.8377 30.9403 13.8377H29.68C30.0651 13.0195 30.1749 12.1273 30.0398 11.278ZM20.0991 13.8377H17.6097C17.9378 13.5615 18.2523 13.2673 18.5546 12.9615C19.0687 13.2547 19.5839 13.5463 20.0991 13.8377ZM21.2077 4.25366C21.715 3.81993 22.4398 3.49414 23.5892 3.49414C27.3836 3.49414 26.5557 7.04293 28.5221 6.31616C33.2064 4.58469 33.5951 5.51204 31.6774 8.24941C31.1489 9.00376 30.8264 9.48759 30.5902 9.90302H29.5833C29.2126 9.19712 28.6478 8.58396 27.9129 8.15591C25.6772 6.85335 23.4609 5.52287 21.2077 4.25366Z" fill="#17479E"/>
</g>
</svg>
