<svg width="28" height="35" viewBox="0 0 28 35" fill="none" xmlns="http://www.w3.org/2000/svg">
<path d="M6.9186 22.086C6.9186 21.5159 6.52303 21.1759 5.82507 21.1759C5.54007 21.1759 5.34705 21.204 5.24609 21.2309V23.06C5.36563 23.0869 5.51259 23.0959 5.71514 23.0959C6.45909 23.0959 6.9186 22.72 6.9186 22.086Z" fill="white"/>
<path d="M11.2434 21.1953C10.9308 21.1953 10.7288 21.2223 10.6094 21.2503V25.3011C10.7289 25.3292 10.9219 25.3292 11.0964 25.3292C12.3644 25.3382 13.1914 24.6402 13.1914 23.1613C13.2003 21.8753 12.4468 21.1953 11.2434 21.1953Z" fill="white"/>
<path d="M19.2698 0H5.48258C3.4684 0 1.82907 1.64047 1.82907 3.65351V17.1636H1.47223C0.659291 17.1636 0 17.8222 0 18.6359V27.5643C0 28.3779 0.65922 29.0365 1.47223 29.0365H1.82907V30.6737C1.82907 32.6889 3.4684 34.3272 5.48258 34.3272H24.2947C26.3076 34.3272 27.9471 32.6889 27.9471 30.6737V8.64689L19.2698 0ZM3.86226 20.2471C4.29372 20.1742 4.90018 20.1193 5.75463 20.1193C6.61811 20.1193 7.23355 20.2841 7.64706 20.6152C8.04207 20.9272 8.30863 21.4421 8.30863 22.0482C8.30863 22.6541 8.10664 23.1692 7.73912 23.5181C7.2611 23.9681 6.55418 24.1701 5.72722 24.1701C5.54317 24.1701 5.3782 24.1609 5.24919 24.1431V26.357H3.86226V20.2471ZM24.2947 32.0897H5.48258C4.70268 32.0897 4.0676 31.4547 4.0676 30.6737V29.0365H21.6043C22.4174 29.0365 23.0766 28.3779 23.0766 27.5643V18.6359C23.0766 17.8222 22.4174 17.1636 21.6043 17.1636H4.0676V3.65351C4.0676 2.87475 4.70275 2.23967 5.48258 2.23967L18.4327 2.22614V7.01298C18.4327 8.41116 19.5672 9.54669 20.9664 9.54669L25.6557 9.53323L25.7084 30.6736C25.7084 31.4547 25.0745 32.0897 24.2947 32.0897ZM9.20295 26.329V20.2471C9.71735 20.1653 10.3878 20.1193 11.0954 20.1193C12.2713 20.1193 13.0338 20.3302 13.6313 20.7801C14.2743 21.2581 14.6782 22.0201 14.6782 23.1141C14.6782 24.299 14.2467 25.1171 13.6492 25.6219C12.9972 26.1639 12.0048 26.4209 10.7924 26.4209C10.0663 26.4209 9.55189 26.3749 9.20295 26.329ZM19.2295 22.7282V23.867H17.006V26.357H15.6006V20.1653H19.3854V21.3131H17.006V22.7282H19.2295Z" fill="white"/>
</svg>
