<svg width="29" height="35" viewBox="0 0 29 35" fill="none" xmlns="http://www.w3.org/2000/svg">
<path d="M7.59438 22.0839C7.59438 21.5138 7.19881 21.1738 6.50086 21.1738C6.21585 21.1738 6.02283 21.202 5.92188 21.2289V23.0579C6.04142 23.0848 6.18837 23.0938 6.39093 23.0938C7.13487 23.0938 7.59438 22.718 7.59438 22.0839Z" fill="#FF7350"/>
<path d="M11.9192 21.1953C11.6066 21.1953 11.4046 21.2223 11.2852 21.2503V25.3011C11.4047 25.3292 11.5977 25.3292 11.7722 25.3292C13.0402 25.3382 13.8671 24.6402 13.8671 23.1613C13.8761 21.8753 13.1226 21.1953 11.9192 21.1953Z" fill="#FF7350"/>
<path d="M19.9456 0H6.15836C4.14418 0 2.50485 1.64047 2.50485 3.65351V17.1636H2.14801C1.33507 17.1636 0.675781 17.8222 0.675781 18.6359V27.5643C0.675781 28.3779 1.335 29.0365 2.14801 29.0365H2.50485V30.6737C2.50485 32.6889 4.14418 34.3272 6.15836 34.3272H24.9704C26.9833 34.3272 28.6229 32.6889 28.6229 30.6737V8.64689L19.9456 0ZM4.53804 20.2471C4.9695 20.1742 5.57596 20.1193 6.43041 20.1193C7.29389 20.1193 7.90933 20.2841 8.32284 20.6152C8.71785 20.9272 8.98441 21.4421 8.98441 22.0482C8.98441 22.6541 8.78242 23.1692 8.4149 23.5181C7.93688 23.9681 7.22996 24.1701 6.403 24.1701C6.21895 24.1701 6.05399 24.1609 5.92498 24.1431V26.357H4.53804V20.2471ZM24.9704 32.0897H6.15836C5.37846 32.0897 4.74338 31.4547 4.74338 30.6737V29.0365H22.2801C23.0932 29.0365 23.7524 28.3779 23.7524 27.5643V18.6359C23.7524 17.8222 23.0932 17.1636 22.2801 17.1636H4.74338V3.65351C4.74338 2.87475 5.37853 2.23967 6.15836 2.23967L19.1085 2.22614V7.01298C19.1085 8.41116 20.243 9.54669 21.6422 9.54669L26.3315 9.53323L26.3842 30.6736C26.3842 31.4547 25.7503 32.0897 24.9704 32.0897ZM9.87873 26.329V20.2471C10.3931 20.1653 11.0636 20.1193 11.7712 20.1193C12.9471 20.1193 13.7096 20.3302 14.3071 20.7801C14.9501 21.2581 15.354 22.0201 15.354 23.1141C15.354 24.299 14.9225 25.1171 14.325 25.6219C13.673 26.1639 12.6806 26.4209 11.4681 26.4209C10.7421 26.4209 10.2277 26.3749 9.87873 26.329ZM19.9053 22.7282V23.867H17.6818V26.357H16.2763V20.1653H20.0612V21.3131H17.6818V22.7282H19.9053Z" fill="#FF7350"/>
</svg>
