<svg width="39" height="39" viewBox="0 0 39 39" fill="none" xmlns="http://www.w3.org/2000/svg">
<circle cx="19.5" cy="19.5" r="19.5" fill="white" fill-opacity="0.25"/>
<circle cx="19.5" cy="19.5" r="19.5" fill="#17479E"/>
<path d="M15.4561 23.2224C15.4561 22.8552 15.2013 22.6362 14.7518 22.6362C14.5682 22.6362 14.4439 22.6543 14.3789 22.6717V23.8497C14.4559 23.8671 14.5505 23.8728 14.681 23.8728C15.1602 23.8728 15.4561 23.6308 15.4561 23.2224Z" fill="white"/>
<path d="M18.2404 22.6514C18.0391 22.6514 17.909 22.6687 17.832 22.6868V25.2958C17.909 25.3139 18.0333 25.3139 18.1457 25.3139C18.9624 25.3197 19.495 24.8701 19.495 23.9176C19.5008 23.0893 19.0155 22.6514 18.2404 22.6514Z" fill="white"/>
<path d="M23.4112 9H14.5312C13.2339 9 12.1781 10.0566 12.1781 11.3531V20.0546H11.9482C11.4246 20.0546 11 20.4788 11 21.0029V26.7535C11 27.2775 11.4246 27.7017 11.9482 27.7017H12.1781V28.7561C12.1781 30.0541 13.2339 31.1093 14.5312 31.1093H26.6476C27.944 31.1093 29 30.0541 29 28.7561V14.5692L23.4112 9ZM13.4876 22.0407C13.7655 21.9937 14.1561 21.9583 14.7064 21.9583C15.2626 21.9583 15.6589 22.0645 15.9253 22.2777C16.1797 22.4786 16.3514 22.8103 16.3514 23.2006C16.3514 23.5909 16.2213 23.9227 15.9846 24.1474C15.6767 24.4372 15.2214 24.5673 14.6888 24.5673C14.5702 24.5673 14.464 24.5614 14.3809 24.5499V25.9759H13.4876V22.0407ZM26.6476 29.6682H14.5312C14.0289 29.6682 13.6198 29.2591 13.6198 28.7561V27.7017H24.9148C25.4385 27.7017 25.863 27.2775 25.863 26.7535V21.0029C25.863 20.4788 25.4385 20.0546 24.9148 20.0546H13.6198V11.3531C13.6198 10.8516 14.0289 10.4425 14.5312 10.4425L22.872 10.4338V13.5169C22.872 14.4174 23.6027 15.1488 24.5039 15.1488L27.5242 15.1401L27.5581 28.7561C27.5581 29.2591 27.1498 29.6682 26.6476 29.6682ZM16.9274 25.9578V22.0407C17.2587 21.9879 17.6905 21.9583 18.1462 21.9583C18.9036 21.9583 19.3947 22.0942 19.7796 22.3839C20.1937 22.6918 20.4538 23.1826 20.4538 23.8872C20.4538 24.6504 20.176 25.1772 19.7911 25.5024C19.3712 25.8515 18.732 26.017 17.9511 26.017C17.4834 26.017 17.1521 25.9874 16.9274 25.9578ZM23.3852 23.6386V24.3721H21.9531V25.9759H21.0479V21.9879H23.4857V22.7272H21.9531V23.6386H23.3852Z" fill="white"/>
</svg>
