<svg width="42" height="42" viewBox="0 0 42 42" fill="none" xmlns="http://www.w3.org/2000/svg">
<g id="ventilator" clip-path="url(#clip0_675_37225)">
<g id="Group">
<path id="Vector" d="M15.1582 30.1211H25.65V36.1422H15.1582V30.1211Z" fill="white"/>
<path id="Vector_2" d="M25.2727 41.9984H27.4875C27.7336 41.9984 27.9305 41.8016 27.9305 41.5555V40.1691H27.9797C28.9148 40.1691 29.6777 39.4062 29.6777 38.4711V18.9559C29.6777 18.0207 28.9148 17.2578 27.9797 17.2578H12.8367C11.9016 17.2578 11.1387 18.0207 11.1387 18.9559V38.4711C11.1387 39.4062 11.9016 40.1691 12.8367 40.1691H12.8859V41.5555C12.8859 41.8016 13.0828 41.9984 13.3289 41.9984H15.5437C15.7898 41.9984 15.9867 41.8016 15.9867 41.5555V40.1691H24.8297V41.5555C24.8297 41.8016 25.0266 41.9984 25.2727 41.9984ZM14.7234 20.3996H26.1012C26.3473 20.3996 26.5441 20.5965 26.5441 20.8426C26.5441 21.0887 26.3473 21.2855 26.1012 21.2855H14.7234C14.4773 21.2855 14.2805 21.0887 14.2805 20.8426C14.2805 20.5965 14.4773 20.3996 14.7234 20.3996ZM14.7234 23.2461H26.1012C26.3473 23.2461 26.5441 23.443 26.5441 23.6891C26.5441 23.9352 26.3473 24.132 26.1012 24.132H14.7234C14.4773 24.132 14.2805 23.9352 14.2805 23.6891C14.2805 23.443 14.4773 23.2461 14.7234 23.2461ZM14.7234 26.1008H26.1012C26.3473 26.1008 26.5441 26.2977 26.5441 26.5438C26.5441 26.7898 26.3473 26.9867 26.1012 26.9867H14.7234C14.4773 26.9867 14.2805 26.7898 14.2805 26.5438C14.2805 26.2977 14.4773 26.1008 14.7234 26.1008ZM14.7152 37.0273C14.4691 37.0273 14.2723 36.8305 14.2723 36.5844V29.6773C14.2723 29.4312 14.4691 29.2344 14.7152 29.2344H26.093C26.3391 29.2344 26.5359 29.4312 26.5359 29.6773V36.5844C26.5359 36.8305 26.3391 37.0273 26.093 37.0273H14.7152Z" fill="white"/>
<path id="Vector_3" d="M31.0227 13.0266V1.69805C31.0227 0.762891 30.2598 0 29.3246 0H11.491C10.5559 0 9.79297 0.762891 9.79297 1.69805V13.0266C9.79297 13.9617 10.5559 14.7246 11.491 14.7246H15.002V16.3652H25.8137V14.7246H29.3246C30.2598 14.7328 31.0227 13.9699 31.0227 13.0266ZM27.4625 11.2055C27.4625 11.4188 27.2902 11.591 27.077 11.591H13.7387C13.5254 11.591 13.3531 11.4188 13.3531 11.2055V3.52734C13.3531 3.31406 13.5254 3.1418 13.7387 3.1418H27.077C27.2902 3.1418 27.4625 3.31406 27.4625 3.52734V11.2055Z" fill="white"/>
<path id="Vector_4" d="M37.0609 36.618C37.0609 38.0699 35.8961 39.284 34.4031 39.284C32.9348 39.284 31.7453 38.0945 31.7453 36.618V35.002C32.6395 34.9609 33.3449 34.2227 33.3449 33.3203V31.893C33.3449 30.9578 32.5902 30.2031 31.6551 30.2031H30.5723V35.0102H30.8594V36.618C30.8594 38.5785 32.4508 40.1699 34.4031 40.1699C36.3227 40.1699 37.9469 38.6277 37.9469 36.618V25.3633H37.0609V36.618Z" fill="white"/>
<path id="Vector_5" d="M9.96602 28.8918V27.284H10.2531V22.477H9.17031C8.23516 22.477 7.48047 23.2316 7.48047 24.1668V25.5941C7.48047 26.4965 8.19414 27.2266 9.08828 27.2758V28.8918C9.08828 30.3602 7.89883 31.5578 6.43047 31.5578C4.97031 31.5578 3.77266 30.3848 3.77266 28.8918V18.2852C3.625 18.3016 3.47734 18.3098 3.32148 18.3098C3.17383 18.3098 3.02617 18.3016 2.88672 18.2852V28.8836C2.88672 30.8688 4.49453 32.4355 6.43047 32.4355C8.37461 32.4438 9.96602 30.8441 9.96602 28.8918Z" fill="white"/>
<path id="Vector_6" d="M5.32305 16.8146C5.74961 16.5275 6.00391 16.0436 6.00391 15.5104V12.992C6.00391 12.5572 5.82344 12.1389 5.51172 11.8436L4.4043 10.8018C3.79727 10.2275 2.8457 10.2275 2.23867 10.8018L1.12305 11.8436C0.811328 12.1389 0.630859 12.5572 0.630859 12.992V15.5104C0.630859 16.0436 0.885156 16.5275 1.31172 16.8146C1.92695 17.2248 2.61602 17.4299 3.32148 17.4299C4.02695 17.4299 4.71602 17.2248 5.32305 16.8146Z" fill="white"/>
<path id="Vector_7" d="M39.9477 13.3125H35.0422C34.2629 13.3125 33.623 13.9441 33.623 14.7316V20.8512C33.623 21.6305 34.2629 22.2621 35.0422 22.2621H35.4688V22.9266C35.4688 23.7797 36.166 24.4687 37.0109 24.4687H37.9789C38.832 24.4687 39.5211 23.7715 39.5211 22.9266V22.2621H39.9477C40.7352 22.2621 41.3668 21.6305 41.3668 20.8512V14.7316C41.3668 13.9523 40.7352 13.3125 39.9477 13.3125Z" fill="white"/>
</g>
</g>
<defs>
<clipPath id="clip0_675_37225">
<rect width="42" height="42" fill="white"/>
</clipPath>
</defs>
</svg>
