<svg width="42" height="42" viewBox="0 0 42 42" fill="none" xmlns="http://www.w3.org/2000/svg">
<g id="crusher" clip-path="url(#clip0_675_37267)">
<g id="Group">
<path id="Vector" d="M11.1562 24.6094C11.8358 24.6094 12.3867 24.0585 12.3867 23.3789C12.3867 22.6993 11.8358 22.1484 11.1562 22.1484C10.4767 22.1484 9.92578 22.6993 9.92578 23.3789C9.92578 24.0585 10.4767 24.6094 11.1562 24.6094Z" fill="white"/>
<path id="Vector_2" d="M38.7613 20.0696L40.148 17.0223L37.2004 14.0747L34.1531 15.4613C34.1362 15.4541 34.1194 15.4469 34.1026 15.4397L32.9273 12.3047H28.7602L27.585 15.4398C27.5682 15.447 27.5513 15.4542 27.5345 15.4614L24.4872 14.0748L21.5396 17.0224L22.9263 20.0697C22.919 20.0865 22.9118 20.1033 22.9046 20.1201L21 20.834L19.0954 20.1201C19.0882 20.1032 19.081 20.0864 19.0737 20.0696L20.4604 17.0223L17.5128 14.0747L14.4655 15.4613C14.4487 15.4541 14.4318 15.4469 14.415 15.4397L13.2398 12.3047H9.07266L7.89748 15.4398C7.88066 15.447 7.86384 15.4542 7.84703 15.4614L4.79965 14.0747L1.85202 17.0223L3.23868 20.0696C3.23146 20.0864 3.22424 20.1032 3.21702 20.1201L0 21.2953V25.4625L3.2171 26.6377C3.22432 26.6545 3.23154 26.6713 3.23876 26.6881L1.85202 29.7355L4.79965 32.6831L7.84695 31.2965C7.86376 31.3037 7.88058 31.3109 7.89739 31.3181L9.07266 34.4531H13.2398L14.415 31.3181C14.4318 31.3108 14.4487 31.3036 14.4655 31.2964L17.5128 32.6831L20.4604 29.7354L19.0737 26.6881C19.081 26.6713 19.0882 26.6545 19.0954 26.6377L21 25.9238L22.9046 26.6378C22.9118 26.6546 22.919 26.6714 22.9263 26.6882L21.5396 29.7355L24.4872 32.6831L27.5345 31.2965C27.5513 31.3037 27.5682 31.3109 27.585 31.3181L28.7602 34.4531H32.9273L34.1025 31.3181C34.1193 31.3108 34.1362 31.3036 34.153 31.2964L37.2003 32.6831L40.1479 29.7354L38.7612 26.6881C38.7685 26.6713 38.7757 26.6545 38.7829 26.6377L42 25.4625V21.2953L38.7829 20.1201C38.7757 20.1032 38.7685 20.0864 38.7613 20.0696ZM11.1562 27.0703C9.12073 27.0703 7.46484 25.4144 7.46484 23.3789C7.46484 21.3434 9.12073 19.6875 11.1562 19.6875C13.1918 19.6875 14.8477 21.3434 14.8477 23.3789C14.8477 25.4144 13.1918 27.0703 11.1562 27.0703ZM30.8438 27.0703C28.8082 27.0703 27.1523 25.4144 27.1523 23.3789C27.1523 21.3434 28.8082 19.6875 30.8438 19.6875C32.8793 19.6875 34.5352 21.3434 34.5352 23.3789C34.5352 25.4144 32.8793 27.0703 30.8438 27.0703Z" fill="white"/>
<path id="Vector_3" d="M30.8438 24.6094C31.5233 24.6094 32.0742 24.0585 32.0742 23.3789C32.0742 22.6993 31.5233 22.1484 30.8438 22.1484C30.1642 22.1484 29.6133 22.6993 29.6133 23.3789C29.6133 24.0585 30.1642 24.6094 30.8438 24.6094Z" fill="white"/>
<path id="Vector_4" d="M19.7695 34.4531H22.2305V36.9141H19.7695V34.4531Z" fill="white"/>
<path id="Vector_5" d="M24.6914 36.9141H27.1523V39.375H24.6914V36.9141Z" fill="white"/>
<path id="Vector_6" d="M29.6133 39.375H32.0742V42H29.6133V39.375Z" fill="white"/>
<path id="Vector_7" d="M19.7695 39.375H22.2305V42H19.7695V39.375Z" fill="white"/>
<path id="Vector_8" d="M14.8477 36.9141H17.3086V39.375H14.8477V36.9141Z" fill="white"/>
<path id="Vector_9" d="M9.92578 39.375H12.3867V42H9.92578V39.375Z" fill="white"/>
<path id="Vector_10" d="M18.0468 11.1283L21.0004 14.0819L23.9541 11.1283L26.1915 12.146L27.0341 9.90068C26.5618 7.46903 24.653 5.55269 22.2309 5.05657V4.92187C22.2309 3.56524 23.3352 2.46094 24.6918 2.46094V0C21.9774 0 19.77 2.20738 19.77 4.92187V5.05657C17.3479 5.55269 15.4391 7.46903 14.9668 9.90068L15.8094 12.146L18.0468 11.1283Z" fill="white"/>
<path id="Vector_11" d="M18.4999 0.927773C17.8499 0.357656 17.0088 0 16.0781 0H14.8477V1.23047C14.8477 2.84066 15.8904 4.19861 17.3308 4.70211C17.3726 3.31382 17.7913 2.02248 18.4999 0.927773Z" fill="white"/>
</g>
</g>
<defs>
<clipPath id="clip0_675_37267">
<rect width="42" height="42" fill="white"/>
</clipPath>
</defs>
</svg>
