<svg width="42" height="42" viewBox="0 0 42 42" fill="none" xmlns="http://www.w3.org/2000/svg">
<g id="butcher" clip-path="url(#clip0_675_37257)">
<g id="Layer_x0020_1">
<path id="Vector" fill-rule="evenodd" clip-rule="evenodd" d="M9.94237 24.6145C9.83327 24.6145 9.72499 24.5784 9.63722 24.5086L7.068 22.4808C6.94085 22.3799 6.87194 22.2241 6.88179 22.0625C7.34526 14.9126 8.92683 9.37469 11.5838 5.60043C13.8011 2.45289 16.71 0.71875 19.7746 0.71875C21.6269 0.71875 23.4341 1.3791 24.8663 2.57922C25.6612 3.16984 26.3306 3.89172 26.8556 4.72352C26.9278 4.83918 26.9499 4.97863 26.9155 5.1107C26.881 5.24195 26.7941 5.35434 26.6743 5.41914C26.2723 5.63816 25.9229 5.93266 25.6366 6.29523C24.4808 7.75949 24.731 9.8923 26.196 11.0481C26.4914 11.2819 26.8195 11.4624 27.1714 11.5862C27.2961 11.6297 27.3986 11.7224 27.4544 11.8422C27.5102 11.962 27.5159 12.0989 27.4692 12.2228C26.5775 14.6083 24.7736 16.8395 22.1084 18.8542C19.093 21.1339 15.0488 23.0649 10.0876 24.5931C10.04 24.6079 9.99077 24.6145 9.94237 24.6145ZM15.1678 9.66262C15.1456 9.66262 15.1226 9.66098 15.1005 9.6577C14.8306 9.62078 14.6428 9.37223 14.6797 9.10316C15.1473 5.68902 17.9724 4.85559 18.093 4.82195C18.3547 4.74813 18.6262 4.9007 18.7 5.16238C18.773 5.42324 18.6221 5.69477 18.3612 5.76941C18.2603 5.79812 16.0324 6.48145 15.655 9.23688C15.6206 9.48379 15.4098 9.66262 15.1678 9.66262ZM15.2367 17.2587C15.0406 17.2587 14.856 17.1414 14.7789 16.9486C14.678 16.696 14.8019 16.4097 15.0546 16.3088L17.7969 15.217C18.0495 15.1169 18.3358 15.2399 18.4359 15.4926C18.5368 15.7452 18.4137 16.0315 18.1611 16.1316L15.418 17.2234C15.3589 17.2472 15.2966 17.2587 15.2367 17.2587ZM14.6469 19.7525C14.4508 19.7525 14.2662 19.6352 14.1891 19.4424C14.0882 19.1897 14.2121 18.9034 14.4639 18.8025L17.2071 17.7107C17.4597 17.6098 17.746 17.7337 17.8461 17.9855C17.947 18.2382 17.8239 18.5245 17.5713 18.6254L14.8282 19.7172C14.7691 19.741 14.7067 19.7525 14.6469 19.7525Z" fill="white"/>
<path id="Vector_2" fill-rule="evenodd" clip-rule="evenodd" d="M6.11102 32.5526C5.99781 32.5526 5.88297 32.5444 5.76812 32.5264C4.67137 32.3598 3.76328 31.4321 3.2432 29.9645C1.69527 29.7988 0.582109 29.1311 0.16539 28.1032C-0.17504 27.2641 0.0169135 26.3322 0.678085 25.6111C1.69363 24.5045 3.48602 24.1805 5.51957 24.7227L6.59582 23.3594L8.89023 25.1706L7.81398 26.534C8.81312 28.3863 8.91402 30.2057 8.0732 31.4493C7.59578 32.1564 6.87965 32.5526 6.11102 32.5526Z" fill="white"/>
<path id="Vector_3" fill-rule="evenodd" clip-rule="evenodd" d="M19.7129 35.5385C17.635 35.5385 15.6736 35.0283 14.1913 34.103C12.6377 33.1317 11.7812 31.8168 11.7812 30.4001C11.7812 28.9826 12.6377 27.6676 14.1913 26.6964C15.6736 25.7711 17.635 25.2608 19.7129 25.2608C24.8488 25.2608 25.8996 23.2158 27.0128 21.0502C28.1112 18.9108 29.2482 16.6992 34.07 16.6992C36.1806 16.6992 38.1666 17.4539 39.6629 18.8238C41.1706 20.2052 42.0016 22.0444 42.0016 24.0041C42.0016 28.2541 37.1789 31.0686 33.1332 32.6805C28.208 34.6444 22.7242 35.5385 19.7129 35.5385ZM23.0712 33.2564C20.2018 33.2564 17.9533 31.7708 17.9533 29.8751C17.9533 27.9785 20.2009 26.4938 23.0712 26.4938C26.1507 26.4938 26.7503 25.3273 27.4443 23.9762C28.1202 22.6612 28.8864 21.1699 31.9979 21.1699C34.8197 21.1699 37.1158 23.2912 37.1158 25.8982C37.1158 28.0729 35.1684 29.9981 31.4852 31.4665C28.3991 32.6961 24.9604 33.2564 23.0712 33.2564ZM31.9979 22.1543C29.4877 22.1543 28.9717 23.1575 28.3196 24.4266C27.5846 25.8572 26.752 27.4781 23.0712 27.4781C20.8309 27.4781 18.9377 28.5757 18.9377 29.8751C18.9377 31.1745 20.8309 32.272 23.0712 32.272C24.9268 32.272 28.2876 31.6814 31.1201 30.5518C32.9912 29.8062 36.1314 28.2098 36.1314 25.8982C36.1314 23.8343 34.2767 22.1543 31.9979 22.1543ZM32.1381 27.5159C31.0077 27.5159 30.0873 26.5963 30.0873 25.4659C30.0873 24.3347 31.0077 23.4151 32.1381 23.4151C33.2693 23.4151 34.1889 24.3347 34.1889 25.4659C34.1889 26.5963 33.2693 27.5159 32.1381 27.5159ZM32.1381 24.3987C31.55 24.3987 31.0717 24.8777 31.0717 25.4651C31.0717 26.0532 31.55 26.5315 32.1381 26.5315C32.7263 26.5315 33.2045 26.0532 33.2045 25.4651C33.2045 24.8777 32.7263 24.3987 32.1381 24.3987Z" fill="white"/>
<path id="Vector_4" fill-rule="evenodd" clip-rule="evenodd" d="M21.7388 41.2787C16.8514 41.2787 14.5151 40.1376 13.3995 39.0917C12.2486 38.0122 12.2453 36.9163 12.2461 36.8695V33.7925C12.6637 34.2289 13.1485 34.6128 13.6702 34.9385C15.4437 36.0467 17.6389 36.5241 19.7126 36.5241C21.6125 36.5241 23.6403 36.2411 25.504 35.8884C27.928 35.4298 30.3521 34.7752 32.6662 33.9164C32.9443 33.813 33.2215 33.7064 33.498 33.5964C36.3182 32.4718 39.8472 30.645 41.7052 27.9453C41.7602 29.5113 41.7487 31.2577 41.1687 32.3479C37.4355 39.3608 30.2832 40.7479 24.4688 41.1729C23.4803 41.245 22.5722 41.2787 21.7388 41.2787Z" fill="white"/>
</g>
</g>
<defs>
<clipPath id="clip0_675_37257">
<rect width="42" height="42" fill="white"/>
</clipPath>
</defs>
</svg>
