<svg width="42" height="42" viewBox="0 0 42 42" fill="none" xmlns="http://www.w3.org/2000/svg">
<g id="workstation">
<path id="Vector" d="M38.0625 6.5625H17.0625V3.9375C17.0625 3.21234 16.4752 2.625 15.75 2.625H1.3125C0.587344 2.625 0 3.21234 0 3.9375V38.0625C0 38.7877 0.587344 39.375 1.3125 39.375H15.75C16.4752 39.375 17.0625 38.7877 17.0625 38.0625V36.75H34.125C34.8502 36.75 35.4375 36.1627 35.4375 35.4375C35.4375 34.7123 34.8502 34.125 34.125 34.125H29.9513L29.1637 30.1875H38.0625C40.2339 30.1875 42 28.4214 42 26.25V10.5C42 8.32863 40.2339 6.5625 38.0625 6.5625ZM6.5625 30.8438C6.5625 29.7585 7.44598 28.875 8.53125 28.875C9.61652 28.875 10.5 29.7585 10.5 30.8438C10.5 31.929 9.61652 32.8125 8.53125 32.8125C7.44598 32.8125 6.5625 31.929 6.5625 30.8438ZM10.5 23.625H6.5625C5.83734 23.625 5.25 23.0377 5.25 22.3125C5.25 21.5873 5.83734 21 6.5625 21H10.5C11.2252 21 11.8125 21.5873 11.8125 22.3125C11.8125 23.0377 11.2252 23.625 10.5 23.625ZM2.625 18.375V15.75H14.4375V18.375H2.625ZM14.4375 9.1875V11.8125H2.625V9.1875H14.4375ZM17.0625 30.1875H20.7113L19.9237 34.125H17.0625V30.1875ZM17.0625 24.9375C17.0625 23.3516 17.0625 11.2484 17.0625 9.1875H38.0625C38.786 9.1875 39.375 9.77648 39.375 10.5V24.9375H17.0625Z" fill="white"/>
</g>
</svg>
