<svg width="42" height="42" viewBox="0 0 42 42" fill="none" xmlns="http://www.w3.org/2000/svg">
<g id="plastic-bag (1)">
<g id="layer1">
<path id="path5846" d="M7.22064 1.31251C6.85772 1.3104 6.562 1.60325 6.56055 1.9662V3.93876H13.1256V1.9662C13.1242 1.60576 12.8323 1.31395 12.4719 1.31251H7.22064ZM29.5331 1.31251C29.1707 1.31112 28.8758 1.60377 28.8743 1.9662V3.93876H35.4381V1.9662C35.4367 1.60377 35.1417 1.31112 34.7793 1.31251H29.5331ZM35.4381 5.25121H28.8743V11.1563C28.8743 11.5312 28.5956 11.8099 28.2206 11.8099H25.5944C25.2194 11.8099 24.9355 11.5312 24.9355 11.1563C24.9355 10.0769 24.0487 9.19005 22.9694 9.19005H19.0306C17.9512 9.19005 17.0644 10.0769 17.0644 11.1563C17.0644 11.5312 16.7792 11.8099 16.4043 11.8099H13.7844C13.4095 11.8099 13.1256 11.5312 13.1256 11.1563V5.25121H6.56055V38.7213C6.56055 39.8006 7.45381 40.6875 8.53314 40.6875H33.4719C34.5518 40.6875 35.3886 39.7897 35.4381 38.7354V5.25121ZM20.9634 17.861C21.2114 17.8486 21.4451 17.9749 21.5684 18.1904L24.387 23.07L24.6984 21.9113C24.7669 21.6305 25.011 21.4275 25.2996 21.4114C25.7497 21.3891 26.0877 21.8168 25.9622 22.2496L25.2457 24.9387C25.1524 25.2892 24.7925 25.4976 24.4421 25.404L21.753 24.6811C20.8908 24.4641 21.2373 23.1694 22.0927 23.4122L23.2449 23.7224L20.9968 19.8323L18.614 23.9595C18.1912 24.7743 16.9823 24.0714 17.481 23.3007L20.4302 18.1904C20.5406 17.9975 20.7415 17.8735 20.9634 17.861ZM16.7388 25.2489C17.0341 25.2501 17.2922 25.4483 17.3695 25.7334L18.0911 28.4263C18.3335 29.2814 17.0393 29.6278 16.8221 28.766L16.5107 27.6035L14.2638 31.4974H19.0306C19.9058 31.4974 19.9058 32.8099 19.0306 32.8099H13.1256C12.6219 32.8082 12.308 32.2635 12.5591 31.8268L15.3776 26.9459L14.2151 27.2587C13.3522 27.514 13.0013 26.198 13.8767 25.9898L16.5645 25.2733C16.6213 25.2584 16.6799 25.2489 16.7388 25.2489ZM25.8904 26.3769C26.1377 26.367 26.3691 26.4956 26.4903 26.7114L29.446 31.8268C29.6981 32.2653 29.3802 32.8119 28.8743 32.8099H23.2372L24.0883 33.6636C24.8062 34.2785 23.7779 35.3069 23.1629 34.589L21.1916 32.6215C20.9337 32.3649 20.9337 31.9475 21.1916 31.6909L23.1629 29.7248C23.2814 29.6028 23.4427 29.5316 23.6128 29.5261C24.2074 29.5112 24.5124 30.2331 24.0883 30.6502L23.2437 31.4974H27.7361L25.3521 27.3702C25.0958 26.9424 25.3921 26.3962 25.8904 26.3769Z" fill="white"/>
</g>
</g>
</svg>
