<svg width="42" height="42" viewBox="0 0 42 42" fill="none" xmlns="http://www.w3.org/2000/svg">
<g id="bioengineering" clip-path="url(#clip0_675_37253)">
<path id="Vector" d="M39.1707 13.8418C38.9673 13.8418 38.8734 13.7181 38.8304 13.6143C38.7875 13.5108 38.7667 13.3566 38.9102 13.2131C39.4447 12.6786 39.7389 11.9682 39.7389 11.2123C39.7389 10.4567 39.4447 9.7463 38.9102 9.21182L32.788 3.08962C31.6851 1.98669 29.8903 1.98669 28.7871 3.08962C28.6432 3.23349 28.4894 3.21234 28.3856 3.16941C28.2818 3.12647 28.1584 3.03258 28.1584 2.82911C28.1584 1.26924 26.8892 0 25.329 0H16.6712C15.111 0 13.8418 1.26924 13.8418 2.82911C13.8418 3.03258 13.7181 3.12647 13.6146 3.16941C13.5108 3.21234 13.3569 3.23349 13.2131 3.08962C12.1101 1.98637 10.3151 1.98637 9.21214 3.08962L3.08962 9.21182C1.98669 10.3151 1.98669 12.1098 3.08994 13.2127C3.23381 13.3566 3.21266 13.5104 3.16973 13.6143C3.12679 13.7181 3.0329 13.8418 2.82943 13.8418C1.26924 13.8418 0 15.111 0 16.6709V25.329C0 26.8892 1.26924 28.1584 2.82943 28.1584C3.03258 28.1584 3.12647 28.2818 3.16941 28.3856C3.21234 28.4894 3.23349 28.6432 3.08962 28.7871C1.98669 29.89 1.98669 31.6851 3.08962 32.788L9.21182 38.9102C10.3147 40.0131 12.1098 40.0135 13.2131 38.9102C13.3569 38.7663 13.5104 38.7875 13.6143 38.8304C13.7181 38.8734 13.8418 38.9673 13.8418 39.1707C13.8418 40.7309 15.111 42.0002 16.6709 42.0002H25.329C26.8888 42.0002 28.1581 40.7306 28.1581 39.1707C28.1581 38.9673 28.2818 38.8734 28.3853 38.8304C28.4891 38.7875 28.6429 38.7667 28.7868 38.9102C29.89 40.0135 31.6848 40.0135 32.788 38.9102L38.9102 32.788C40.0131 31.6851 40.0131 29.89 38.9102 28.7871C38.7663 28.6432 38.7872 28.4894 38.8301 28.3856C38.873 28.2818 38.9669 28.1584 39.1704 28.1584C40.7306 28.1584 41.9995 26.8892 41.9995 25.329V16.6709C41.9998 15.111 40.7306 13.8418 39.1707 13.8418ZM35.6947 20.9999C35.6947 29.1027 29.1027 35.6947 20.9999 35.6947C12.8971 35.6947 6.30517 29.1027 6.30517 20.9999C6.30517 12.8974 12.8974 6.30517 20.9999 6.30517C29.1027 6.30517 35.6947 12.8974 35.6947 20.9999Z" fill="white"/>
<path id="Vector_2" d="M20.9994 8.76562C14.2537 8.76562 8.76562 14.2537 8.76562 20.9994C8.76562 27.7452 14.2537 33.2333 20.9994 33.2333C27.7452 33.2333 33.2333 27.7452 33.2333 20.9994C33.2333 14.2537 27.7452 8.76562 20.9994 8.76562ZM27.0717 24.9613L21.8005 29.482C21.5701 29.6797 21.2846 29.7787 20.9994 29.7787C20.7143 29.7787 20.4288 29.6797 20.1984 29.482L14.9272 24.9613C13.1014 23.3956 12.0542 21.118 12.0542 18.7128C12.0542 16.5502 13.5055 14.6203 15.5828 14.0194C17.6246 13.4289 19.8235 14.2389 20.9994 15.9933C22.1751 14.2389 24.3739 13.4289 26.4161 14.0191C28.4934 14.6203 29.9443 16.5502 29.9443 18.7128C29.9447 21.118 28.8975 23.3956 27.0717 24.9613Z" fill="white"/>
<path id="Vector_3" d="M25.7324 16.3839C24.6891 16.0821 23.5621 16.5179 22.993 17.4433L22.0477 18.9807C21.8241 19.3447 21.4271 19.5668 20.9996 19.5668C20.5721 19.5668 20.1754 19.3447 19.9515 18.9807L19.0062 17.4433C18.5579 16.7143 17.7639 16.2891 16.9365 16.2891C16.7138 16.2891 16.4885 16.3199 16.2668 16.3839C15.236 16.6823 14.5156 17.64 14.5156 18.7135C14.5156 20.3996 15.2497 21.9963 16.5299 23.0938L20.9996 26.9278L25.4696 23.0938C26.7498 21.9963 27.4839 20.3996 27.4839 18.7135C27.4839 17.64 26.7635 16.6823 25.7324 16.3839Z" fill="white"/>
</g>
<defs>
<clipPath id="clip0_675_37253">
<rect width="42" height="42" fill="white"/>
</clipPath>
</defs>
</svg>
