<svg width="42" height="42" viewBox="0 0 42 42" fill="none" xmlns="http://www.w3.org/2000/svg">
<g id="sweater">
<path id="Vector" d="M38.7195 32.6622L38.5948 32.0781C38.2326 32.324 37.8308 32.506 37.407 32.6162L34.782 33.5809C34.3906 33.7683 33.9678 33.8818 33.5352 33.9156L33.7714 34.3881C33.9302 34.705 34.1991 34.9531 34.5277 35.086C34.8562 35.2188 35.222 35.2274 35.5564 35.11L37.768 34.3356C38.103 34.2201 38.3844 33.9865 38.5595 33.6785C38.7347 33.3704 38.7916 33.0091 38.7195 32.6622Z" fill="white"/>
<path id="Vector_2" d="M7.96733 33.8434L3.85264 32.3341C3.69823 32.2791 3.55729 32.1918 3.4392 32.0781L3.31452 32.6622C3.24175 33.0075 3.29678 33.3674 3.46937 33.6752C3.64197 33.983 3.9204 34.2176 4.25295 34.3356L6.46452 35.11C6.79894 35.2274 7.16469 35.2188 7.49327 35.086C7.82184 34.9531 8.09071 34.705 8.24952 34.3881L8.48577 33.9156C8.30972 33.9309 8.13251 33.9062 7.96733 33.8434Z" fill="white"/>
<path id="Vector_3" d="M33.8159 33.2522L37.9306 31.7362C38.0572 31.6923 38.166 31.6083 38.2405 31.497C38.3151 31.3857 38.3515 31.2531 38.344 31.1194C38.4753 27.5625 34.1244 14.9756 31.4272 9.84375C30.574 11.0644 29.5765 13.1644 29.8915 15.0938C30.3115 17.5941 30.8103 18.1912 31.2959 18.7688C31.6026 19.1381 31.774 19.6012 31.7815 20.0813V30.7191C31.7796 30.8429 31.7642 30.9661 31.7356 31.0866C32.1531 31.7696 32.6111 32.427 33.1072 33.0553C33.1921 33.1552 33.305 33.2273 33.4314 33.2624C33.5577 33.2975 33.6916 33.2939 33.8159 33.2522Z" fill="white"/>
<path id="Vector_4" d="M29.209 34.6322H12.8027C12.3634 34.6685 11.9211 34.6398 11.4902 34.5469L11.6149 35.3934C11.6665 35.7385 11.8397 36.0537 12.1032 36.2823C12.3667 36.5109 12.7033 36.6379 13.0521 36.6403H28.9399C29.2888 36.6379 29.6253 36.5109 29.8888 36.2823C30.1523 36.0537 30.3255 35.7385 30.3771 35.3934L30.5018 34.5469C30.0773 34.6383 29.6418 34.6671 29.209 34.6322Z" fill="white"/>
<path id="Vector_5" d="M29.2616 15.2006C28.9401 12.9825 29.9572 10.9547 30.771 9.65531L31.0597 9.24844C30.9394 9.07842 30.7983 8.9241 30.6397 8.78906C29.1736 7.80483 27.6383 6.92756 26.046 6.16406V6.56437C26.1452 7.71615 25.7895 8.86097 25.0551 9.75375C23.4866 11.8209 18.5976 11.8144 17.0226 9.75375C16.6141 9.25849 16.31 8.68579 16.1285 8.07006C15.9469 7.45432 15.8916 6.80825 15.966 6.17062C14.916 6.70219 13.5116 7.43062 12.4222 8.08687C11.8487 8.36953 11.3412 8.76977 10.9326 9.26156L11.2213 9.65531C12.0482 10.9678 13.0588 12.9759 12.7372 15.2006C12.2779 17.8781 11.7004 18.5672 11.1885 19.1709C10.9706 19.4354 10.8502 19.7667 10.8472 20.1094C10.8932 20.2931 10.8013 30.6094 10.8472 30.8325L11.3263 33.4575C11.3571 33.6013 11.4353 33.7305 11.5484 33.8245C11.6614 33.9185 11.8028 33.9719 11.9497 33.9759H30.036C30.183 33.9719 30.3243 33.9185 30.4374 33.8245C30.5504 33.7305 30.6286 33.6013 30.6594 33.4575L31.1385 30.8325C31.1421 30.7954 31.1421 30.758 31.1385 30.7209V20.1094C31.1487 19.7722 31.0446 19.4415 30.8432 19.1709C30.2985 18.5672 29.721 17.8781 29.2616 15.2006Z" fill="white"/>
<path id="Vector_6" d="M10.2184 20.1086C10.226 19.6285 10.3973 19.1655 10.704 18.7961C11.1897 18.2186 11.6884 17.6214 12.1084 15.1211C12.4234 13.1983 11.4128 11.0655 10.5728 9.87109C8.70247 13.0473 1.96935 31.0942 4.06935 31.7373L8.18404 33.2533C8.25349 33.2785 8.32671 33.2918 8.4006 33.2927C8.4959 33.2934 8.59006 33.2719 8.67553 33.2297C8.76099 33.1875 8.8354 33.1259 8.89279 33.0498C9.38882 32.4215 9.84682 31.7641 10.2643 31.0811C10.2361 30.9606 10.2207 30.8374 10.2184 30.7136V20.1086Z" fill="white"/>
<path id="Vector_7" d="M17.9681 8.89367C19.0706 10.3637 22.9819 10.3899 24.0778 8.89367C24.6071 8.2391 24.855 7.40117 24.7669 6.56398V5.55335C24.4388 5.38929 24.2813 5.29085 23.9663 5.42867C23.0244 5.91826 21.968 6.14496 20.9081 6.08492C19.9048 6.12206 18.9093 5.8958 18.0206 5.42867C17.7122 5.29742 17.5481 5.38929 17.2266 5.55335C17.2791 6.74773 17.0034 7.69273 17.9681 8.89367Z" fill="white"/>
</g>
</svg>
