<svg width="42" height="42" viewBox="0 0 42 42" fill="none" xmlns="http://www.w3.org/2000/svg">
<g id="leather">
<path id="Vector" d="M37.4073 29.635C35.5474 28.7369 32.4268 26.4199 32.4268 20.9984C32.4268 15.5769 35.5474 13.2599 37.4073 12.3618C37.549 12.2938 37.6634 12.1796 37.7318 12.0381C37.8002 11.8966 37.8186 11.7361 37.7839 11.5827L36.9166 7.67884C36.8786 7.51267 36.7813 7.36609 36.6428 7.26659C36.5044 7.1671 36.3345 7.12153 36.1648 7.13844C29.4357 7.65924 26.6931 3.57824 25.8258 1.79954C25.7692 1.6797 25.6798 1.57839 25.5679 1.50739C25.456 1.43639 25.3263 1.3986 25.1937 1.39844H16.8007C16.6686 1.39894 16.5394 1.4368 16.4279 1.50765C16.3164 1.57851 16.2273 1.67946 16.1707 1.79884C15.3034 3.57894 12.5587 7.66134 5.83174 7.13844C5.66211 7.12153 5.49215 7.1671 5.35373 7.26659C5.21531 7.36609 5.11796 7.51267 5.07993 7.67884L4.21053 11.5827C4.17581 11.736 4.19407 11.8965 4.26235 12.038C4.33063 12.1795 4.44488 12.2937 4.58644 12.3618C6.44634 13.2599 9.56764 15.5762 9.56764 20.9984C9.56764 26.4206 6.44634 28.7369 4.58644 29.635C4.44488 29.7032 4.33063 29.8174 4.26235 29.9589C4.19407 30.1004 4.17581 30.2609 4.21053 30.4141L5.07783 34.318C5.11586 34.4842 5.21321 34.6308 5.35163 34.7303C5.49005 34.8298 5.66001 34.8754 5.82963 34.8584C6.22863 34.8276 6.6141 34.8125 6.98604 34.8129C12.8772 34.8129 15.3524 38.5229 16.1686 40.1973C16.2252 40.3172 16.3147 40.4185 16.4266 40.4895C16.5385 40.5605 16.6682 40.5983 16.8007 40.5984H25.1937C25.3258 40.5979 25.4551 40.5601 25.5666 40.4892C25.678 40.4184 25.7672 40.3174 25.8237 40.198C26.691 38.4179 29.435 34.3348 36.1627 34.8584C36.3325 34.8753 36.5025 34.8297 36.6409 34.73C36.7794 34.6304 36.8767 34.4836 36.9145 34.3173L37.7818 30.4141C37.8167 30.2611 37.7986 30.1007 37.7306 29.9592C37.6626 29.8177 37.5486 29.7035 37.4073 29.635ZM32.9392 14.3988C32.6494 14.8141 32.392 15.251 32.1692 15.7057C32.1116 15.8237 32.022 15.923 31.9106 15.9925C31.7992 16.0619 31.6705 16.0986 31.5392 16.0984C31.4328 16.0991 31.3276 16.0752 31.2319 16.0284C31.0654 15.9468 30.9381 15.8023 30.878 15.6268C30.8179 15.4513 30.8299 15.2592 30.9113 15.0925C31.1652 14.5733 31.4587 14.0744 31.7891 13.6001C31.8953 13.4478 32.0577 13.3439 32.2405 13.3113C32.4233 13.2787 32.6116 13.32 32.7639 13.4262C32.9162 13.5324 33.0201 13.6947 33.0527 13.8775C33.0854 14.0603 33.044 14.2486 32.9378 14.4009L32.9392 14.3988ZM33.8492 11.3601C34.2579 11.019 34.6894 10.706 35.1407 10.4235C35.2985 10.3252 35.4889 10.2936 35.67 10.3357C35.8511 10.3778 36.0081 10.4901 36.1064 10.6479C36.2047 10.8057 36.2363 10.9961 36.1942 11.1772C36.1521 11.3583 36.0398 11.5152 35.882 11.6135C35.4832 11.8623 35.1019 12.1383 34.741 12.4395C34.6703 12.4984 34.5888 12.5427 34.5009 12.57C34.4131 12.5973 34.3208 12.607 34.2292 12.5987C34.1376 12.5903 34.0486 12.5639 33.9672 12.5211C33.8857 12.4783 33.8136 12.4199 33.7547 12.3492C33.6959 12.2785 33.6516 12.197 33.6243 12.1091C33.597 12.0213 33.5872 11.929 33.5956 11.8374C33.604 11.7458 33.6303 11.6568 33.6731 11.5754C33.7159 11.494 33.7743 11.4218 33.845 11.3629L33.8492 11.3601ZM30.8238 8.68894C30.8465 8.59979 30.8866 8.51599 30.9417 8.44233C30.9968 8.36867 31.0659 8.30659 31.145 8.25966C31.2241 8.21272 31.3117 8.18184 31.4028 8.16877C31.4939 8.15571 31.5866 8.16073 31.6757 8.18354C32.106 8.29296 32.5418 8.37942 32.9812 8.44254C33.161 8.4733 33.3217 8.57301 33.429 8.72045C33.5364 8.86789 33.582 9.05141 33.5561 9.23195C33.5302 9.41248 33.4348 9.57578 33.2903 9.68707C33.1458 9.79837 32.9636 9.84887 32.7824 9.82784C32.293 9.75792 31.8077 9.66188 31.3285 9.54014C31.2394 9.51751 31.1556 9.47753 31.0819 9.4225C31.0082 9.36747 30.9461 9.29846 30.8991 9.21941C30.8521 9.14036 30.8211 9.05282 30.808 8.9618C30.7948 8.87078 30.7997 8.77806 30.8224 8.68894H30.8238ZM29.9152 18.0584C29.9524 17.876 30.0604 17.7159 30.2157 17.6131C30.3709 17.5104 30.5606 17.4736 30.743 17.5107C30.9254 17.5478 31.0856 17.6559 31.1883 17.8111C31.291 17.9664 31.3279 18.156 31.2907 18.3384C31.2029 18.7769 31.1381 19.2197 31.0968 19.6649C31.0808 19.8385 31.0006 19.9998 30.8719 20.1174C30.7432 20.2349 30.5753 20.3002 30.401 20.3005C30.3793 20.3005 30.3576 20.3005 30.3359 20.3005C30.1515 20.2828 29.9816 20.1927 29.8636 20.0499C29.7455 19.9072 29.6888 19.7234 29.7059 19.5389C29.7496 19.0421 29.8195 18.5479 29.9152 18.0584ZM24.0107 2.89574C24.0899 2.84896 24.1775 2.81824 24.2686 2.80534C24.3597 2.79245 24.4524 2.79762 24.5414 2.82057C24.6305 2.84351 24.7142 2.88379 24.7877 2.93908C24.8611 2.99438 24.923 3.06362 24.9697 3.14284C25.2076 3.54674 25.4706 3.9353 25.7572 4.30624C25.8707 4.45327 25.921 4.63935 25.8973 4.82353C25.8735 5.00771 25.7776 5.17491 25.6305 5.28834C25.4835 5.40177 25.2974 5.45215 25.1132 5.42839C24.9291 5.40463 24.7619 5.30867 24.6484 5.16164C24.3269 4.74435 24.0314 4.30765 23.7636 3.85404C23.6694 3.69418 23.6425 3.50343 23.6888 3.32373C23.7351 3.14403 23.8509 2.99009 24.0107 2.89574ZM8.24394 12.3464C8.18513 12.4172 8.11296 12.4756 8.03155 12.5184C7.95015 12.5613 7.8611 12.5876 7.7695 12.596C7.6779 12.6044 7.58555 12.5946 7.49772 12.5673C7.40989 12.54 7.32831 12.4956 7.25763 12.4367C6.89672 12.1355 6.51549 11.8595 6.11664 11.6107C6.0385 11.5621 5.97071 11.4985 5.91715 11.4236C5.86359 11.3487 5.8253 11.264 5.80447 11.1744C5.78363 11.0847 5.78067 10.9918 5.79573 10.901C5.8108 10.8102 5.84361 10.7232 5.89229 10.6451C5.94096 10.567 6.00455 10.4992 6.07942 10.4456C6.15429 10.392 6.23898 10.3538 6.32865 10.3329C6.41831 10.3121 6.51121 10.3091 6.60202 10.3242C6.69284 10.3393 6.7798 10.3721 6.85793 10.4207C7.31066 10.7031 7.74357 11.016 8.15364 11.3573C8.22477 11.4162 8.28357 11.4885 8.32664 11.5702C8.36971 11.6518 8.3962 11.7412 8.40459 11.8331C8.41298 11.925 8.40311 12.0177 8.37554 12.1058C8.34797 12.1939 8.30324 12.2757 8.24394 12.3464ZM8.42803 9.23424C8.40185 9.05055 8.44966 8.86398 8.56097 8.71553C8.67228 8.56707 8.83797 8.46888 9.02164 8.44254C9.46109 8.37942 9.89687 8.29296 10.3271 8.18354C10.507 8.13713 10.698 8.16408 10.858 8.25846C11.018 8.35285 11.134 8.50694 11.1804 8.68684C11.2268 8.86673 11.1999 9.0577 11.1055 9.21773C11.0111 9.37775 10.857 9.49373 10.6771 9.54014C10.198 9.66188 9.71265 9.75792 9.22324 9.82784C9.13223 9.8409 9.03954 9.83591 8.95046 9.81315C8.86138 9.79039 8.77766 9.7503 8.70407 9.69518C8.63049 9.64006 8.56849 9.57098 8.5216 9.49189C8.47472 9.4128 8.44388 9.32525 8.43084 9.23424H8.42803ZM9.06223 14.3988C8.95604 14.2465 8.91471 14.0582 8.94733 13.8754C8.97995 13.6926 9.08386 13.5303 9.23618 13.4241C9.38851 13.3179 9.57679 13.2766 9.75959 13.3092C9.94239 13.3418 10.1047 13.4457 10.2109 13.598C10.5414 14.0723 10.8348 14.5712 11.0887 15.0904C11.1702 15.2571 11.1822 15.4492 11.1221 15.6247C11.062 15.8002 10.9347 15.9447 10.7681 16.0263C10.6725 16.0731 10.5673 16.097 10.4608 16.0963C10.3296 16.0965 10.2009 16.0598 10.0895 15.9904C9.97809 15.9209 9.88846 15.8216 9.83083 15.7036C9.60843 15.2497 9.35147 14.8134 9.06223 14.3988ZM8.15224 30.6388C7.74346 30.9793 7.31196 31.2915 6.86074 31.5733C6.7826 31.622 6.69564 31.6548 6.60482 31.6699C6.51401 31.685 6.42111 31.682 6.33145 31.6612C6.24178 31.6403 6.15709 31.602 6.08222 31.5485C6.00735 31.4949 5.94376 31.4271 5.89508 31.349C5.84641 31.2709 5.8136 31.1839 5.79854 31.0931C5.78347 31.0023 5.78643 30.9094 5.80727 30.8197C5.8281 30.73 5.86639 30.6453 5.91995 30.5705C5.97351 30.4956 6.0413 30.432 6.11944 30.3833C6.51829 30.1345 6.89952 29.8586 7.26044 29.5573C7.4032 29.4385 7.58732 29.3813 7.77229 29.3982C7.95725 29.4152 8.12792 29.5049 8.24673 29.6476C8.36555 29.7904 8.42279 29.9745 8.40585 30.1595C8.38892 30.3445 8.2992 30.5151 8.15644 30.6339L8.15224 30.6388ZM11.1776 33.3107C11.1549 33.3998 11.1147 33.4836 11.0596 33.5571C11.0045 33.6307 10.9354 33.6927 10.8562 33.7396C10.7771 33.7865 10.6896 33.8173 10.5985 33.8303C10.5075 33.8433 10.4148 33.8383 10.3257 33.8154C9.89606 33.7057 9.46072 33.6194 9.02164 33.5571C8.83784 33.5307 8.67208 33.4323 8.56083 33.2836C8.44957 33.135 8.40193 32.9482 8.42839 32.7644C8.45484 32.5806 8.55322 32.4148 8.70189 32.3036C8.85056 32.1923 9.03734 32.1447 9.22114 32.1711C9.70986 32.2411 10.1945 32.3371 10.6729 32.4588C10.8527 32.5046 11.0069 32.6197 11.1018 32.7791C11.1967 32.9384 11.2244 33.1288 11.179 33.3086L11.1776 33.3107ZM11.1307 26.8175C10.9115 27.2746 10.6623 27.7165 10.3845 28.1405C10.2824 28.2957 10.1228 28.404 9.9409 28.4416C9.75895 28.4791 9.56954 28.4428 9.41433 28.3407C9.25913 28.2386 9.15084 28.0791 9.1133 27.8971C9.07576 27.7152 9.11203 27.5257 9.21413 27.3705C9.45791 26.9992 9.67656 26.6119 9.86863 26.2113C9.90483 26.1231 9.95867 26.0432 10.0268 25.9766C10.095 25.9099 10.1761 25.8579 10.2651 25.8237C10.3541 25.7895 10.4492 25.7738 10.5444 25.7776C10.6397 25.7815 10.7332 25.8047 10.8191 25.846C10.9051 25.8873 10.9817 25.9457 11.0443 26.0176C11.1069 26.0895 11.1541 26.1735 11.1831 26.2643C11.2121 26.3552 11.2222 26.451 11.2128 26.5459C11.2035 26.6407 11.1748 26.7327 11.1286 26.8161L11.1307 26.8175ZM12.0862 23.9384C12.054 24.0964 11.9682 24.2384 11.8433 24.3405C11.7184 24.4425 11.5622 24.4983 11.4009 24.4984C11.3539 24.4986 11.307 24.494 11.2609 24.4844C11.1705 24.4665 11.0844 24.431 11.0077 24.3797C10.9311 24.3285 10.8653 24.2626 10.8141 24.1858C10.763 24.109 10.7276 24.0229 10.7098 23.9324C10.6921 23.8419 10.6924 23.7488 10.7107 23.6584C10.7986 23.22 10.8633 22.7772 10.9046 22.3319C10.9111 22.2389 10.9361 22.1481 10.9782 22.0649C11.0202 21.9816 11.0785 21.9076 11.1495 21.8472C11.2206 21.7868 11.303 21.7412 11.3919 21.7131C11.4809 21.685 11.5745 21.6749 11.6674 21.6835C11.7602 21.6921 11.8504 21.7191 11.9327 21.7631C12.015 21.807 12.0876 21.8669 12.1464 21.9393C12.2052 22.0117 12.2489 22.0952 12.275 22.1847C12.3011 22.2742 12.309 22.3681 12.2983 22.4607C12.2536 22.9567 12.1828 23.4499 12.0862 23.9384ZM11.6662 20.2984C11.6445 20.2984 11.6228 20.2984 11.6011 20.2984C11.4268 20.2981 11.2589 20.2328 11.1303 20.1153C11.0016 19.9977 10.9214 19.8364 10.9053 19.6628C10.8637 19.2183 10.7988 18.7762 10.7107 18.3384C10.6742 18.1564 10.7114 17.9673 10.8143 17.8127C10.9171 17.6582 11.0772 17.5508 11.2592 17.5142C11.4412 17.4776 11.6303 17.5149 11.7849 17.6177C11.9395 17.7206 12.0469 17.8806 12.0834 18.0626C12.1808 18.5497 12.2525 19.0416 12.2983 19.5361C12.3157 19.7207 12.2591 19.9047 12.141 20.0476C12.0229 20.1905 11.8529 20.2807 11.6683 20.2984H11.6662ZM15.0486 35.4184C14.9943 35.4928 14.9258 35.5558 14.8471 35.6037C14.7684 35.6516 14.6811 35.6834 14.59 35.6975C14.499 35.7115 14.4061 35.7075 14.3166 35.6855C14.2271 35.6636 14.1429 35.6242 14.0686 35.5696C13.7135 35.3095 13.3425 35.0717 12.9577 34.8577C12.8745 34.8148 12.8007 34.7555 12.7408 34.6835C12.6809 34.6115 12.636 34.5281 12.6089 34.4385C12.5817 34.3488 12.5729 34.2546 12.5828 34.1614C12.5928 34.0682 12.6213 33.978 12.6668 33.8961C12.7123 33.8142 12.7737 33.7422 12.8475 33.6845C12.9213 33.6267 13.0059 33.5844 13.0964 33.56C13.1868 33.5355 13.2812 33.5295 13.3741 33.5423C13.4669 33.555 13.5562 33.5862 13.6367 33.6341C14.0733 33.876 14.4941 34.1451 14.8967 34.4398C15.0452 34.549 15.1447 34.7123 15.1735 34.8943C15.2024 35.0764 15.1582 35.2624 15.0507 35.4121L15.0486 35.4184ZM15.1256 7.39814C14.6885 7.73443 14.2287 8.04012 13.7494 8.31304C13.6696 8.35854 13.5815 8.38787 13.4903 8.39933C13.3991 8.4108 13.3065 8.40419 13.2178 8.37988C13.1292 8.35557 13.0461 8.31404 12.9735 8.25765C12.9009 8.20126 12.8401 8.13112 12.7946 8.05124C12.7491 7.97136 12.7198 7.88329 12.7083 7.79208C12.6969 7.70086 12.7035 7.60828 12.7278 7.51962C12.7521 7.43096 12.7936 7.34795 12.85 7.27534C12.9064 7.20273 12.9766 7.14194 13.0564 7.09644C13.4806 6.85368 13.8874 6.58166 14.2737 6.28234C14.3466 6.22626 14.4298 6.18509 14.5185 6.16116C14.6073 6.13723 14.6999 6.13102 14.7911 6.14289C14.8822 6.15475 14.9702 6.18445 15.0499 6.2303C15.1295 6.27614 15.1994 6.33724 15.2555 6.41009C15.3116 6.48294 15.3527 6.56612 15.3767 6.65488C15.4006 6.74365 15.4068 6.83626 15.3949 6.92742C15.3831 7.01859 15.3534 7.10652 15.3075 7.1862C15.2617 7.26589 15.2006 7.33576 15.1277 7.39184L15.1256 7.39814ZM17.9907 39.1081C17.8841 39.1687 17.7633 39.1999 17.6407 39.1984C17.5188 39.1986 17.3989 39.167 17.2929 39.1066C17.1869 39.0462 17.0986 38.9591 17.0366 38.854C16.7648 38.3938 16.4607 37.9533 16.1266 37.5359C16.0677 37.4644 16.0235 37.3818 15.9967 37.293C15.9699 37.2042 15.961 37.111 15.9706 37.0187C15.9802 36.9264 16.008 36.837 16.0524 36.7556C16.0968 36.6742 16.1569 36.6024 16.2293 36.5444C16.3017 36.4864 16.3849 36.4434 16.4741 36.4179C16.5632 36.3923 16.6566 36.3848 16.7487 36.3956C16.8408 36.4065 16.9299 36.4355 17.0106 36.481C17.0914 36.5266 17.1624 36.5877 17.2193 36.6609C17.5946 37.1301 17.9362 37.6253 18.2413 38.1428C18.2879 38.2222 18.3183 38.31 18.3309 38.4011C18.3434 38.4922 18.3379 38.5849 18.3147 38.6739C18.2914 38.7629 18.2508 38.8465 18.1952 38.9198C18.1396 38.9931 18.0702 39.0547 17.9907 39.1011V39.1081ZM18.2378 3.86104C17.97 4.31465 17.6745 4.75135 17.353 5.16864C17.2396 5.31567 17.0724 5.41163 16.8882 5.43539C16.704 5.45915 16.518 5.40877 16.3709 5.29534C16.2239 5.18191 16.1279 5.01471 16.1042 4.83053C16.0804 4.64635 16.1308 4.46027 16.2442 4.31324C16.5308 3.9423 16.7938 3.55374 17.0317 3.14984C17.126 2.9899 17.28 2.87398 17.4598 2.82757C17.6396 2.78116 17.8304 2.80808 17.9904 2.90239C18.1503 2.9967 18.2662 3.15068 18.3127 3.33046C18.3591 3.51025 18.3321 3.7011 18.2378 3.86104ZM21.7007 39.1984H20.3007C20.1151 39.1984 19.937 39.1247 19.8058 38.9934C19.6745 38.8621 19.6007 38.6841 19.6007 38.4984C19.6007 38.3128 19.6745 38.1347 19.8058 38.0035C19.937 37.8722 20.1151 37.7984 20.3007 37.7984H21.7007C21.8864 37.7984 22.0644 37.8722 22.1957 38.0035C22.327 38.1347 22.4007 38.3128 22.4007 38.4984C22.4007 38.6841 22.327 38.8621 22.1957 38.9934C22.0644 39.1247 21.8864 39.1984 21.7007 39.1984ZM21.7007 4.19844H20.3007C20.1151 4.19844 19.937 4.12469 19.8058 3.99341C19.6745 3.86214 19.6007 3.68409 19.6007 3.49844C19.6007 3.31279 19.6745 3.13474 19.8058 3.00346C19.937 2.87219 20.1151 2.79844 20.3007 2.79844H21.7007C21.8864 2.79844 22.0644 2.87219 22.1957 3.00346C22.327 3.13474 22.4007 3.31279 22.4007 3.49844C22.4007 3.68409 22.327 3.86214 22.1957 3.99341C22.0644 4.12469 21.8864 4.19844 21.7007 4.19844ZM25.8762 37.5359C25.5422 37.9533 25.2381 38.3938 24.9662 38.854C24.9042 38.9593 24.8156 39.0465 24.7094 39.1069C24.6031 39.1673 24.4829 39.1989 24.3607 39.1984C24.2358 39.1986 24.1132 39.165 24.0058 39.1011C23.846 39.0068 23.7302 38.8528 23.6839 38.6731C23.6376 38.4934 23.6645 38.3027 23.7587 38.1428C24.0639 37.6253 24.4054 37.1301 24.7807 36.6609C24.8377 36.5877 24.9086 36.5266 24.9894 36.481C25.0702 36.4355 25.1592 36.4065 25.2514 36.3956C25.3435 36.3848 25.4368 36.3923 25.526 36.4179C25.6151 36.4434 25.6983 36.4864 25.7707 36.5444C25.8431 36.6024 25.9033 36.6742 25.9477 36.7556C25.9921 36.837 26.0199 36.9264 26.0295 37.0187C26.039 37.111 26.0301 37.2042 26.0034 37.293C25.9766 37.3818 25.9324 37.4644 25.8734 37.5359H25.8762ZM26.7463 6.41044C26.8595 6.26375 27.0262 6.1679 27.2099 6.14389C27.3936 6.11988 27.5793 6.16966 27.7263 6.28234C28.1122 6.57941 28.5183 6.84933 28.9415 7.09014C29.0214 7.13564 29.0916 7.19643 29.1479 7.26904C29.2043 7.34165 29.2459 7.42466 29.2702 7.51332C29.2945 7.60198 29.3011 7.69456 29.2896 7.78578C29.2782 7.87699 29.2488 7.96506 29.2033 8.04494C29.1578 8.12482 29.097 8.19496 29.0244 8.25135C28.9518 8.30774 28.8688 8.34927 28.7802 8.37358C28.6915 8.39789 28.5989 8.4045 28.5077 8.39303C28.4165 8.38157 28.3284 8.35224 28.2485 8.30674C27.7693 8.03382 27.3095 7.72813 26.8723 7.39184C26.7256 7.27835 26.6299 7.11124 26.6062 6.92722C26.5826 6.7432 26.633 6.55732 26.7463 6.41044ZM29.0402 34.8514C28.656 35.0655 28.2854 35.3032 27.9307 35.5633C27.8566 35.6177 27.7724 35.6569 27.6831 35.6787C27.5937 35.7005 27.501 35.7045 27.4101 35.6904C27.3192 35.6764 27.232 35.6446 27.1535 35.5968C27.0749 35.5491 27.0065 35.4863 26.9521 35.4121C26.8978 35.338 26.8586 35.2538 26.8368 35.1645C26.815 35.0751 26.811 34.9824 26.8251 34.8915C26.8391 34.8007 26.8709 34.7134 26.9186 34.6349C26.9664 34.5563 27.0292 34.4879 27.1033 34.4335C27.506 34.1388 27.9268 33.8697 28.3633 33.6278C28.4439 33.5799 28.5332 33.5487 28.626 33.536C28.7188 33.5232 28.8133 33.5292 28.9037 33.5537C28.9942 33.5781 29.0788 33.6204 29.1526 33.6782C29.2264 33.7359 29.2878 33.8079 29.3333 33.8898C29.3787 33.9717 29.4073 34.0619 29.4172 34.1551C29.4272 34.2483 29.4183 34.3425 29.3912 34.4322C29.3641 34.5218 29.3192 34.6052 29.2593 34.6772C29.1994 34.7492 29.1256 34.8085 29.0423 34.8514H29.0402ZM30.6005 24.4984C30.4393 24.4983 30.283 24.4425 30.1582 24.3405C30.0333 24.2384 29.9475 24.0964 29.9152 23.9384C29.8179 23.4514 29.7461 22.9595 29.7003 22.4649C29.6896 22.3723 29.6976 22.2784 29.7237 22.1889C29.7498 22.0994 29.7935 22.0159 29.8523 21.9435C29.911 21.8711 29.9837 21.8112 30.066 21.7673C30.1482 21.7233 30.2384 21.6963 30.3313 21.6877C30.4242 21.6791 30.5178 21.6892 30.6067 21.7173C30.6957 21.7454 30.7781 21.791 30.8491 21.8514C30.9202 21.9118 30.9785 21.9858 31.0205 22.0691C31.0626 22.1523 31.0876 22.2431 31.094 22.3361C31.1364 22.78 31.2021 23.2214 31.2907 23.6584C31.3272 23.8404 31.29 24.0294 31.1872 24.1838C31.0844 24.3383 30.9245 24.4457 30.7426 24.4823C30.696 24.4927 30.6483 24.4981 30.6005 24.4984ZM31.1976 25.8837C31.2806 25.844 31.3705 25.821 31.4623 25.8161C31.5541 25.8111 31.646 25.8243 31.7327 25.8548C31.8194 25.8854 31.8992 25.9327 31.9677 25.9941C32.0361 26.0555 32.0917 26.1298 32.1314 26.2127C32.3235 26.6133 32.5422 27.0006 32.7859 27.3719C32.8365 27.4488 32.8714 27.5348 32.8887 27.6252C32.906 27.7155 32.9054 27.8084 32.8868 27.8985C32.8682 27.9886 32.832 28.0741 32.7804 28.1503C32.7287 28.2264 32.6626 28.2916 32.5857 28.3421C32.5089 28.3927 32.4228 28.4276 32.3325 28.4449C32.2421 28.4622 32.1493 28.4616 32.0592 28.443C31.9691 28.4244 31.8835 28.3882 31.8074 28.3366C31.7313 28.2849 31.6661 28.2188 31.6155 28.1419C31.3378 27.7179 31.0885 27.276 30.8693 26.8189C30.8294 26.736 30.8062 26.646 30.801 26.5541C30.7959 26.4621 30.809 26.3701 30.8395 26.2832C30.87 26.1964 30.9173 26.1164 30.9788 26.0478C31.0402 25.9793 31.1146 25.9235 31.1976 25.8837ZM32.9784 33.555C32.5394 33.6173 32.104 33.7036 31.6743 33.8133C31.5853 33.8363 31.4925 33.8415 31.4014 33.8287C31.3104 33.8158 31.2227 33.7852 31.1434 33.7384C31.0642 33.6917 30.995 33.6298 30.9396 33.5563C30.8843 33.4828 30.844 33.3991 30.821 33.31C30.7981 33.221 30.7928 33.1282 30.8057 33.0371C30.8186 32.9461 30.8492 32.8584 30.896 32.7792C30.9427 32.6999 31.0046 32.6307 31.0781 32.5753C31.1516 32.52 31.2353 32.4797 31.3243 32.4567C31.8028 32.335 32.2874 32.239 32.7761 32.169C32.9599 32.1426 33.1467 32.1902 33.2954 32.3015C33.444 32.4127 33.5424 32.5785 33.5689 32.7623C33.5953 32.9461 33.5477 33.1329 33.4364 33.2815C33.3252 33.4302 33.1594 33.5286 32.9756 33.555H32.9784ZM36.1081 31.3507C36.0594 31.4287 35.9958 31.4963 35.921 31.5497C35.8461 31.603 35.7615 31.6411 35.6719 31.6618C35.5824 31.6825 35.4896 31.6853 35.3989 31.6701C35.3083 31.655 35.2215 31.6221 35.1435 31.5733C34.6908 31.291 34.2579 30.9781 33.8478 30.6367C33.7771 30.5779 33.7187 30.5057 33.6759 30.4243C33.6331 30.3429 33.6068 30.2539 33.5984 30.1623C33.59 30.0707 33.5998 29.9784 33.6271 29.8905C33.6544 29.8027 33.6987 29.7211 33.7575 29.6504C33.8164 29.5798 33.8885 29.5213 33.97 29.4785C34.0514 29.4357 34.1404 29.4094 34.232 29.401C34.3236 29.3926 34.4159 29.4024 34.5037 29.4297C34.5916 29.457 34.6731 29.5013 34.7438 29.5601C35.1047 29.8613 35.486 30.1373 35.8848 30.3861C35.9628 30.4348 36.0305 30.4984 36.0839 30.5732C36.1374 30.648 36.1756 30.7326 36.1963 30.8222C36.217 30.9118 36.2199 31.0045 36.2048 31.0952C36.1897 31.1859 36.1568 31.2727 36.1081 31.3507Z" fill="white"/>
</g>
</svg>
