<svg width="42" height="42" viewBox="0 0 42 42" fill="none" xmlns="http://www.w3.org/2000/svg">
<g id="sports-game">
<path id="Vector" d="M26.0932 18.2091L24.597 22.8203C22.6441 22.9857 20.7285 23.452 18.9182 24.2028H17.8507L15.9082 18.2091L21.0007 14.5078L26.0932 18.2091Z" fill="white"/>
<path id="Vector_2" d="M7.62055 14.9016L3.56055 17.8503C3.77137 15.1159 4.62911 12.4707 6.06305 10.1328L7.62055 14.9016Z" fill="white"/>
<path id="Vector_3" d="M16.2304 24.893L15.0404 26.3367C15.0316 26.3455 15.0141 26.3542 15.0054 26.363C13.5685 25.2331 11.8127 24.5838 9.98644 24.5069C8.16018 24.4299 6.35597 24.9293 4.82914 25.9342C4.05093 24.0635 3.60955 22.0699 3.52539 20.0455L8.75789 16.2305L14.1654 18.523L16.2304 24.893Z" fill="white"/>
<path id="Vector_4" d="M14.7617 16.8798L9.35422 14.5873L7.32422 8.33984C9.28589 5.86753 11.8845 3.97682 14.8405 2.87109L20.1255 6.71234V12.9773L14.7617 16.8798Z" fill="white"/>
<path id="Vector_5" d="M20.9995 5.18001L16.9395 2.23126C19.6081 1.58958 22.3908 1.58958 25.0595 2.23126L20.9995 5.18001Z" fill="white"/>
<path id="Vector_6" d="M27.2387 16.8798L21.875 12.9773V6.71234L27.16 2.87109C30.116 3.97682 32.7146 5.86753 34.6763 8.33984L32.6463 14.5873L27.2387 16.8798Z" fill="white"/>
<path id="Vector_7" d="M34.3789 14.9016L35.9364 10.1328C37.3703 12.4707 38.2281 15.1159 38.4389 17.8503L34.3789 14.9016Z" fill="white"/>
<path id="Vector_8" d="M38.4747 20.0455C38.3846 22.1263 37.9223 24.1741 37.1097 26.0917C33.9692 23.9492 30.2626 22.7888 26.4609 22.758L27.8347 18.523L33.2422 16.2305L38.4747 20.0455Z" fill="white"/>
<path id="Vector_9" d="M33.2501 32.3755C33.2478 30.3705 33.6804 28.3889 34.518 26.5672C31.9732 25.21 29.1334 24.5 26.2492 24.5C23.3651 24.5 20.5253 25.21 17.9805 26.5672C18.8159 28.3896 19.2484 30.3707 19.2484 32.3755C19.2484 34.3802 18.8159 36.3613 17.9805 38.1837C20.5253 39.541 23.3651 40.2509 26.2492 40.2509C29.1334 40.2509 31.9732 39.541 34.518 38.1837C33.6804 36.3621 33.2478 34.3804 33.2501 32.3755ZM29.7501 33.2505H28.8751V34.1255C28.8751 34.3575 28.7829 34.5801 28.6188 34.7442C28.4547 34.9083 28.2322 35.0005 28.0001 35.0005C27.768 35.0005 27.5455 34.9083 27.3814 34.7442C27.2173 34.5801 27.1251 34.3575 27.1251 34.1255V33.2505H25.3751V34.1255C25.3751 34.3575 25.2829 34.5801 25.1188 34.7442C24.9547 34.9083 24.7322 35.0005 24.5001 35.0005C24.268 35.0005 24.0455 34.9083 23.8814 34.7442C23.7173 34.5801 23.6251 34.3575 23.6251 34.1255V33.2505H22.7501C22.518 33.2505 22.2955 33.1583 22.1314 32.9942C21.9673 32.8301 21.8751 32.6075 21.8751 32.3755C21.8751 32.1434 21.9673 31.9208 22.1314 31.7567C22.2955 31.5927 22.518 31.5005 22.7501 31.5005H23.6251V30.6255C23.6251 30.3934 23.7173 30.1708 23.8814 30.0067C24.0455 29.8427 24.268 29.7505 24.5001 29.7505C24.7322 29.7505 24.9547 29.8427 25.1188 30.0067C25.2829 30.1708 25.3751 30.3934 25.3751 30.6255V31.5005H27.1251V30.6255C27.1251 30.3934 27.2173 30.1708 27.3814 30.0067C27.5455 29.8427 27.768 29.7505 28.0001 29.7505C28.2322 29.7505 28.4547 29.8427 28.6188 30.0067C28.7829 30.1708 28.8751 30.3934 28.8751 30.6255V31.5005H29.7501C29.9822 31.5005 30.2047 31.5927 30.3688 31.7567C30.5329 31.9208 30.6251 32.1434 30.6251 32.3755C30.6251 32.6075 30.5329 32.8301 30.3688 32.9942C30.2047 33.1583 29.9822 33.2505 29.7501 33.2505Z" fill="white"/>
<path id="Vector_10" d="M39.6211 30.666C38.5743 29.441 37.3646 28.3652 36.0257 27.4688V27.474C35.3505 29.0194 35.002 30.6876 35.002 32.374C35.002 34.0604 35.3505 35.7286 36.0257 37.274C37.3643 36.3778 38.5737 35.3024 39.6202 34.0776C40.0221 33.6002 40.2426 32.9961 40.2428 32.372C40.243 31.7478 40.0228 31.1437 39.6211 30.666Z" fill="white"/>
<path id="Vector_11" d="M16.4965 34.5781C15.0696 34.7054 13.7329 35.3301 12.72 36.3431C11.7071 37.356 11.0824 38.6927 10.9551 40.1195C12.3261 39.854 13.5864 39.1844 14.5739 38.1969C15.5614 37.2095 16.2309 35.9492 16.4965 34.5781Z" fill="white"/>
<path id="Vector_12" d="M11.4805 35.1074C12.848 33.7412 14.6724 32.9287 16.6027 32.8263C16.4996 31.1221 15.7761 29.5146 14.5688 28.3073C13.3616 27.1001 11.7541 26.3766 10.0499 26.2734C9.94833 28.204 9.13574 30.0287 7.76873 31.3957C6.40172 32.7627 4.57706 33.5753 2.64648 33.6768C2.74962 35.381 3.47312 36.9885 4.68039 38.1958C5.88765 39.4031 7.49514 40.1266 9.19936 40.2297C9.30179 38.2993 10.1142 36.475 11.4805 35.1074Z" fill="white"/>
<path id="Vector_13" d="M8.29528 26.3789C6.92424 26.6444 5.66395 27.314 4.67647 28.3015C3.68898 29.289 3.01943 30.5492 2.75391 31.9203C4.18073 31.793 5.51742 31.1683 6.53035 30.1553C7.54327 29.1424 8.16798 27.8057 8.29528 26.3789Z" fill="white"/>
</g>
</svg>
