<svg width="42" height="42" viewBox="0 0 42 42" fill="none" xmlns="http://www.w3.org/2000/svg">
<g id="agriculture">
<path id="Vector" fill-rule="evenodd" clip-rule="evenodd" d="M39.3943 24.5492C35.5173 24.5492 33.572 29.2463 36.3133 31.9876C36.5559 32.2302 36.6922 32.5592 36.6922 32.9022C36.6922 33.2453 36.5559 33.5743 36.3133 33.8169L33.529 36.6011C33.2865 36.8437 32.9575 36.98 32.6144 36.98C32.2713 36.98 31.9423 36.8437 31.6997 36.6011C28.9585 33.8599 24.2615 35.8054 24.2615 39.682C24.2614 40.0249 24.1252 40.3537 23.8828 40.5962C23.6404 40.8386 23.3116 40.9749 22.9688 40.9749H19.0312C18.8614 40.9749 18.6933 40.9415 18.5364 40.8765C18.3795 40.8115 18.2369 40.7163 18.1168 40.5962C17.9967 40.4761 17.9015 40.3335 17.8365 40.1766C17.7715 40.0197 17.7381 39.8515 17.7381 39.6817C17.7381 35.8 13.0445 33.8559 10.2998 36.6008C10.0573 36.8434 9.72825 36.9796 9.3852 36.9796C9.04214 36.9796 8.71313 36.8434 8.47055 36.6008L5.68665 33.8166C5.44408 33.574 5.30781 33.245 5.30781 32.9019C5.30781 32.5589 5.44408 32.2299 5.68665 31.9873C8.42797 29.2459 6.48277 24.5489 2.60572 24.5489C2.2628 24.549 1.9339 24.4128 1.69137 24.1703C1.44885 23.9279 1.31257 23.599 1.3125 23.2561V21.6975C1.31272 21.5888 1.356 21.4846 1.43287 21.4077C1.50974 21.3309 1.61394 21.2876 1.72266 21.2874H11.5406C11.5406 23.7961 12.5373 26.2022 14.3112 27.9761C16.0852 29.7501 18.4912 30.7467 21 30.7467C23.5088 30.7467 25.9148 29.7501 27.6888 27.9761C29.4627 26.2022 30.4594 23.7961 30.4594 21.2874H40.2773C40.3861 21.2876 40.4903 21.3309 40.5671 21.4077C40.644 21.4846 40.6873 21.5888 40.6875 21.6975V23.2561C40.6875 23.4259 40.6541 23.5941 40.5891 23.751C40.5241 23.9079 40.4288 24.0505 40.3087 24.1705C40.1887 24.2906 40.0461 24.3859 39.8892 24.4509C39.7323 24.5158 39.5641 24.5493 39.3943 24.5492ZM5.64761 20.1391C6.50672 19.5906 7.46315 19.2121 8.46497 19.0242V16.6517C7.75433 16.5046 6.75872 16.2469 6.08155 15.6652C5.20382 14.9109 4.75133 13.6126 4.76905 12.4754C4.77082 12.326 4.83094 12.1833 4.93657 12.0776C5.0422 11.972 5.18496 11.9119 5.33433 11.9101C6.4278 11.8932 7.70807 12.3501 8.46513 13.1565V11.5781C7.7545 11.431 6.75888 11.1732 6.08171 10.5915C5.20398 9.83686 4.7515 8.53896 4.76921 7.40168C4.77098 7.25231 4.83111 7.10957 4.93674 7.00395C5.04237 6.89833 5.18513 6.83823 5.33449 6.83648C6.42805 6.8195 7.70823 7.2765 8.4653 8.08287V6.97101C8.01962 6.27375 7.54827 5.59953 7.49782 4.74108C7.44064 3.77376 7.95088 2.67742 8.63789 2.01091C8.74469 1.90645 8.8881 1.84786 9.03749 1.84767C9.18689 1.84747 9.33045 1.90567 9.43753 2.00985C10.1368 2.68767 10.6535 3.76244 10.5788 4.7501C10.5132 5.61635 9.95621 6.46693 9.61365 6.97536V8.08442C10.3706 7.27707 11.6518 6.8195 12.7459 6.8364C12.8953 6.83819 13.038 6.89832 13.1437 7.00394C13.2493 7.10957 13.3094 7.25231 13.3112 7.40168C13.3288 8.53888 12.8764 9.83735 11.9987 10.5915C11.3215 11.174 10.3245 11.4313 9.61373 11.5784V13.1581C10.3707 12.3507 11.6518 11.8932 12.746 11.9101C12.8954 11.9119 13.0381 11.972 13.1438 12.0776C13.2494 12.1833 13.3095 12.326 13.3113 12.4754C13.3288 13.6126 12.8765 14.911 11.9988 15.6652C11.3215 16.2476 10.3245 16.5049 9.61382 16.652V18.9085C11.1083 18.8706 12.5217 19.2524 13.9205 19.6265C15.6068 18.6285 17.9728 18.0392 20.4255 17.9592V15.8314C19.7149 15.6843 18.7188 15.4265 18.0421 14.8449C17.1644 14.0906 16.7119 12.7923 16.7296 11.655C16.7314 11.5056 16.7915 11.3629 16.8971 11.2573C17.0028 11.1517 17.1455 11.0915 17.2949 11.0898C18.3884 11.0728 19.6686 11.5298 20.4257 12.3362V10.7577C19.7151 10.6107 18.719 10.3529 18.0423 9.77123C17.1645 9.01655 16.7121 7.71865 16.7298 6.58137C16.7315 6.43199 16.7917 6.28924 16.8973 6.18361C17.0029 6.07798 17.1457 6.01786 17.2951 6.01609C18.3885 5.99919 19.6688 6.45619 20.4259 7.26247V6.15062C19.9802 5.45335 19.5088 4.77922 19.4584 3.92076C19.4004 2.95345 19.911 1.8571 20.598 1.1906C20.7048 1.08614 20.8482 1.02756 20.9976 1.02734C21.147 1.02713 21.2906 1.0853 21.3977 1.18945C22.0969 1.86736 22.6136 2.94213 22.539 3.92979C22.4734 4.79604 21.9164 5.64662 21.5738 6.15497V7.26411C22.3307 6.45668 23.612 5.99919 24.7061 6.01609C24.8555 6.01786 24.9982 6.07798 25.1038 6.18361C25.2095 6.28924 25.2696 6.43199 25.2714 6.58137C25.2889 7.71857 24.8366 9.01704 23.9589 9.77123C23.2817 10.3537 22.2847 10.611 21.574 10.7581V12.3377C22.331 11.5303 23.612 11.0728 24.7063 11.0898C24.8556 11.0915 24.9984 11.1517 25.104 11.2573C25.2096 11.3629 25.2698 11.5056 25.2715 11.655C25.2891 12.7923 24.8368 14.0907 23.959 14.8449C23.2819 15.4273 22.2849 15.6846 21.5741 15.8317V17.9593C23.9781 18.0398 26.0173 18.6291 27.7026 19.6265C29.1747 19.2327 30.7278 18.8308 32.3858 18.9181V16.6517C31.6751 16.5046 30.6791 16.2469 30.0024 15.6652C29.1246 14.9109 28.6721 13.6126 28.6899 12.4754C28.6916 12.326 28.7517 12.1833 28.8574 12.0776C28.963 11.972 29.1058 11.9119 29.2551 11.9101C30.3486 11.8932 31.6289 12.3501 32.3859 13.1565V11.5781C31.6753 11.431 30.6793 11.1732 30.0025 10.5915C29.1248 9.83686 28.6723 8.53896 28.69 7.40168C28.6918 7.25231 28.7519 7.10957 28.8575 7.00395C28.9632 6.89833 29.1059 6.83823 29.2553 6.83648C30.3489 6.8195 31.629 7.2765 32.3861 8.08287V6.97101C31.9404 6.27375 31.4691 5.59953 31.4186 4.74108C31.3605 3.77376 31.871 2.67742 32.5582 2.01091C32.665 1.90645 32.8084 1.84786 32.9578 1.84767C33.1072 1.84747 33.2508 1.90567 33.3578 2.00985C34.0571 2.68767 34.5738 3.76244 34.4991 4.7501C34.4335 5.61635 33.8765 6.46693 33.534 6.97536V8.08442C34.2909 7.27707 35.5721 6.8195 36.6662 6.8364C36.8156 6.83819 36.9584 6.89832 37.064 7.00394C37.1696 7.10957 37.2297 7.25231 37.2315 7.40168C37.2492 8.53888 36.7968 9.83735 35.919 10.5915C35.2418 11.174 34.2448 11.4313 33.534 11.5784V13.1581C34.291 12.3507 35.5721 11.8932 36.6663 11.9101C36.8157 11.9119 36.9585 11.972 37.0641 12.0776C37.1697 12.1833 37.2298 12.326 37.2316 12.4754C37.2492 13.6126 36.7968 14.911 35.9191 15.6652C35.2419 16.2476 34.2448 16.5049 33.5341 16.652V19.0598C34.5056 19.2565 35.4351 19.6218 36.2806 20.1391H5.64761ZM14.2369 24.2265H27.7631C27.9154 24.2265 28.0614 24.166 28.1691 24.0583C28.2768 23.9507 28.3373 23.8046 28.3373 23.6523C28.3373 23.5 28.2768 23.354 28.1691 23.2463C28.0614 23.1386 27.9154 23.0781 27.7631 23.0781H14.2369C14.0846 23.0781 13.9386 23.1386 13.8309 23.2463C13.7232 23.354 13.6627 23.5 13.6627 23.6523C13.6627 23.8046 13.7232 23.9507 13.8309 24.0583C13.9386 24.166 14.0846 24.2265 14.2369 24.2265ZM20.0088 28.9561H21.9912C22.1435 28.9561 22.2895 28.8956 22.3972 28.7879C22.5049 28.6803 22.5654 28.5342 22.5654 28.3819C22.5654 28.2296 22.5049 28.0836 22.3972 27.9759C22.2895 27.8682 22.1435 27.8077 21.9912 27.8077H20.0088C19.8565 27.8077 19.7105 27.8682 19.6028 27.9759C19.4951 28.0836 19.4346 28.2296 19.4346 28.3819C19.4346 28.5342 19.4951 28.6803 19.6028 28.7879C19.7105 28.8956 19.8565 28.9561 20.0088 28.9561ZM15.6206 26.5913H26.3794C26.4548 26.5913 26.5294 26.5765 26.5991 26.5476C26.6688 26.5188 26.7321 26.4765 26.7854 26.4231C26.8387 26.3698 26.881 26.3065 26.9099 26.2369C26.9387 26.1672 26.9536 26.0925 26.9536 26.0171C26.9536 25.9417 26.9387 25.867 26.9099 25.7974C26.881 25.7277 26.8387 25.6644 26.7854 25.6111C26.7321 25.5578 26.6688 25.5155 26.5991 25.4866C26.5294 25.4577 26.4548 25.4429 26.3794 25.4429H15.6206C15.5451 25.4429 15.4705 25.4577 15.4008 25.4866C15.3311 25.5155 15.2678 25.5578 15.2145 25.6111C15.1612 25.6644 15.1189 25.7277 15.09 25.7974C15.0612 25.867 15.0463 25.9417 15.0463 26.0171C15.0463 26.0925 15.0612 26.1672 15.09 26.2369C15.1189 26.3065 15.1612 26.3698 15.2145 26.4231C15.2678 26.4765 15.3311 26.5188 15.4008 26.5476C15.4705 26.5765 15.5451 26.5913 15.6206 26.5913Z" fill="white"/>
</g>
</svg>
