<svg width="42" height="42" viewBox="0 0 42 42" fill="none" xmlns="http://www.w3.org/2000/svg">
<g id="pharmaceutical" clip-path="url(#clip0_675_37263)">
<path id="Vector" fill-rule="evenodd" clip-rule="evenodd" d="M39.1375 36.212V17.7052H32.2907V22.2625L36.6985 24.8074V36.212H39.1375ZM19.9354 1.22732C20.7596 1.22732 21.5334 1.44265 22.2041 1.81975C22.8183 1.20468 23.6672 0.824219 24.6052 0.824219C26.4482 0.824219 27.948 2.29356 27.997 4.12475C30.2434 3.45143 32.515 5.21806 32.358 7.60164C33.7419 8.54795 34.469 10.2085 34.2134 11.8771C33.2844 11.0238 32.1596 10.4274 30.9494 10.1332C30.0408 10.7858 28.8553 10.9518 27.7924 10.5575C27.3168 11.8568 26.0693 12.7842 24.6051 12.7842C23.0409 12.7842 21.7241 11.7256 21.3315 10.2858C18.3699 11.2201 15.2992 9.01775 15.2992 5.86356C15.2992 3.30304 17.3749 1.22732 19.9354 1.22732ZM5.91265 15.1002H13.5047C14.2766 15.1002 14.9081 14.4687 14.9081 13.6968V11.864C14.9081 11.0922 14.2766 10.4606 13.5047 10.4606H5.91265C5.14082 10.4606 4.50926 11.0921 4.50926 11.864V13.6968C4.50926 14.4686 5.14073 15.1002 5.91265 15.1002ZM18.5971 34.7235V25.8641H0.820312V34.7235H18.597H18.5971ZM8.16211 32.3463L7.18266 33.2486L7.18307 33.249C6.825 33.607 6.26629 33.7986 5.75794 33.7778C5.24327 33.7565 4.75995 33.5388 4.40688 33.1633L4.40639 33.1638C4.04406 32.8015 3.85801 32.2518 3.87754 31.7387C3.89813 31.2353 4.1096 30.7398 4.50696 30.3737L7.81594 27.325C9.08611 26.1546 11.178 27.0925 11.106 28.8488C11.1024 28.9373 11.0928 29.0257 11.0775 29.113L14.1831 29.9479C14.33 29.9706 14.6692 30.1737 14.802 30.2811L15.0737 30.5458C15.8623 31.4918 15.6242 32.9068 14.5624 33.5136C14.152 33.748 13.8191 33.7949 13.3642 33.7688L13.0704 33.7137L8.72443 32.5491C8.53379 32.498 8.35439 32.4191 8.19295 32.3177L8.16203 32.3462L8.16211 32.3463ZM10.6609 30.0191L11.1846 30.1594L10.6769 32.0545L8.97406 31.5982L10.4768 30.2138C10.5435 30.1524 10.6048 30.0873 10.6609 30.0191ZM11.6264 32.309L12.1341 30.4139L13.8327 30.869C13.9446 30.8837 14.1434 31.0054 14.235 31.0885C14.7162 31.5251 14.6614 32.3149 14.0699 32.664C13.831 32.805 13.654 32.8033 13.41 32.7828L11.6264 32.309ZM7.18815 29.2392L8.48121 28.0478C8.67981 27.8649 8.93542 27.7799 9.18725 27.7901C10.0641 27.826 10.4461 28.9061 9.81143 29.4909L8.51796 30.6826L7.18815 29.2392ZM5.82003 32.7979L5.79641 32.7973L5.78468 32.7967L5.77287 32.7961L5.76114 32.7952L5.74941 32.7943L5.73768 32.7932L5.72595 32.792L5.71421 32.7906L5.70257 32.7891L5.67927 32.7856L5.66762 32.7837L5.65605 32.7816L5.64449 32.7794L5.63292 32.777L5.59839 32.7692L5.5641 32.76L5.54146 32.7532L5.43047 32.7108C5.33818 32.6465 5.27166 32.6546 5.1021 32.4681L5.10226 32.4679L5.09955 32.4653C4.75781 32.1063 4.78054 31.4574 5.17207 31.0967L6.46554 29.905L7.79535 31.3484L6.4872 32.5533L6.48695 32.5531C6.32805 32.712 6.04513 32.8019 5.81987 32.798L5.82003 32.7979ZM3.16386 41.1758H16.2536C17.5444 41.1758 18.5971 40.1231 18.5971 38.8323V35.7078H0.820312V38.8323C0.820312 40.1231 1.8731 41.1758 3.16386 41.1758ZM18.5478 24.8796C18.2173 21.7456 16.2405 19.0836 13.5047 17.7806V16.0844H5.91273V17.7806C3.17691 19.0836 1.20012 21.7456 0.869531 24.8796H18.5478ZM18.6132 41.1758H41.1797V37.1963H19.5814V38.8323C19.5814 39.7453 19.2111 40.5738 18.6132 41.1758ZM35.7141 36.2119H19.5814V25.8118C19.5814 25.1457 19.5135 24.4902 19.3837 23.8533L22.0204 25.3756V21.4225L28.8672 25.3756V21.4225L35.714 25.3756V36.2119H35.7141ZM21.9539 31.3604V28.0996H32.3573V31.3604H21.9539ZM30.9661 16.7207H40.4622V13.969H30.9661V16.7207Z" fill="white"/>
</g>
<defs>
<clipPath id="clip0_675_37263">
<rect width="42" height="42" fill="white"/>
</clipPath>
</defs>
</svg>
