<svg width="51" height="51" viewBox="0 0 51 51" fill="none" xmlns="http://www.w3.org/2000/svg">
<rect width="51" height="51" rx="25.5" transform="matrix(-1 0 0 1 51 0)" fill="url(#paint0_linear_675_56922)"/>
<path d="M28.4164 26.1881C28.3092 25.9709 28.2538 25.7357 28.2538 25.4979C28.2538 25.2601 28.3092 25.0249 28.4164 24.8076L31.7572 18.0374C32.6761 16.4171 30.773 15.4852 29.6101 16.3004C27.4521 17.8132 21.9846 22.3661 19.5089 24.4437C19.3484 24.5784 19.2203 24.7415 19.1328 24.9229C19.0452 25.1043 19 25.3 19 25.4979C19 25.6957 19.0452 25.8915 19.1328 26.0729C19.2203 26.2542 19.3484 26.4174 19.5089 26.5521C21.9846 28.6296 27.4521 33.1825 29.6101 34.6953C30.8018 35.5308 32.659 34.5485 31.7572 32.9583L28.4164 26.1881Z" fill="white"/>
<defs>
<linearGradient id="paint0_linear_675_56922" x1="4.64465" y1="2.70155" x2="27.7762" y2="54.825" gradientUnits="userSpaceOnUse">
<stop stop-color="#17479E"/>
<stop offset="1" stop-color="#C63B3B"/>
</linearGradient>
</defs>
</svg>
