<svg width="24" height="24" viewBox="0 0 24 24" fill="none" xmlns="http://www.w3.org/2000/svg">
<g id="responsive" clip-path="url(#clip0_675_56197)">
<g id="Group">
<g id="Group_2">
<path id="Vector" d="M15.9999 0H2.0001C0.900293 0 0 0.899414 0 2.0001V21.9999C0 23.0997 0.900293 24 2.0001 24H12V9.9999C12 7.79373 13.7937 6 15.9999 6H18V2.0001C18 0.899414 17.0997 0 15.9999 0ZM9 21.9999H6.9999C6.4473 21.9999 6 21.5529 6 21C6 20.4471 6.4473 20.0001 6.9999 20.0001H9C9.55289 20.0001 9.9999 20.4471 9.9999 21C9.9999 21.5529 9.55289 21.9999 9 21.9999Z" fill="#17479E"/>
</g>
</g>
<g id="Group_3">
<g id="Group_4">
<path id="Vector_2" d="M21.9998 8.00012H15.9998C14.9003 8.00012 14 8.90041 14 9.99993V21.9999C14 23.0997 14.9003 24 15.9998 24H21.9998C23.0996 24 23.9999 23.0997 23.9999 21.9999V9.99993C23.9999 8.90041 23.0996 8.00012 21.9998 8.00012ZM18.9998 21.9999C18.4472 21.9999 17.9999 21.5529 17.9999 21C17.9999 20.4471 18.4472 20.0001 18.9998 20.0001C19.5527 20.0001 20 20.4471 20 21C20 21.5529 19.5527 21.9999 18.9998 21.9999Z" fill="#17479E"/>
</g>
</g>
</g>
<defs>
<clipPath id="clip0_675_56197">
<rect width="24" height="24" fill="white"/>
</clipPath>
</defs>
</svg>
