<svg width="24" height="24" viewBox="0 0 24 24" fill="none" xmlns="http://www.w3.org/2000/svg">
<g id="sewing-machine" clip-path="url(#clip0_675_56165)">
<g id="Group">
<g id="Group_2">
<g id="Group_3">
<path id="Vector" d="M21 15H19V16H21V15Z" fill="#17479E"/>
<path id="Vector_2" d="M22 6H15C15.5513 6 16 5.55127 16 5.00002V2.00002C16 1.44877 15.5513 1.00003 15 1.00003V0.500016C15 0.223641 14.7764 0 14.5 0C14.2236 0 14 0.223641 14 0.500016V1.00003C13.4487 1.00003 13 1.44877 13 2.00002V5.00002C13 5.55127 13.4487 6 14 6H11C11.5512 6 12 5.55127 12 5.00002V2.00002C12 1.44877 11.5512 1.00003 11 1.00003V0.500016C11 0.223641 10.7764 0 10.5 0C10.2236 0 9.99998 0.223641 9.99998 0.500016V1.00003C9.44873 1.00003 9 1.44877 9 2.00002V5.00002C9 5.55127 9.44873 6 9.99998 6H2.00002C0.896953 6 0 6.89695 0 8.00002V12.793C0 13.3823 0.2295 13.9365 0.6465 14.3535C1.0635 14.7705 1.61766 15 2.20702 15H3V15.5C3 15.7764 3.22364 16 3.50002 16V17.5C3.50002 17.7764 3.72366 18 4.00003 18C4.27636 18 4.5 17.7764 4.5 17.5V16C4.77637 16 5.00002 15.7763 5.00002 15.5V15H5.793C6.38236 15 6.93656 14.7705 7.35356 14.3535C7.77056 13.9365 8.00006 13.3823 8.00006 12.7929V11H16.0001V19H0.500016C0.223641 19 0 19.2236 0 19.5V22C0 23.103 0.896953 24 2.00002 24H22C23.103 24 24 23.103 24 22V8.00002C24 6.89695 23.103 6 22 6ZM10.5 9H9.50002C9.22364 9 9 8.77636 9 8.49998C9 8.22361 9.22364 7.99997 9.50002 7.99997H10.5C10.7764 7.99997 11 8.22361 11 8.49998C11 8.77636 10.7764 9 10.5 9ZM13.5 9H12.5C12.2236 9 12 8.77636 12 8.49998C12 8.22361 12.2236 7.99997 12.5 7.99997H13.5C13.7764 7.99997 14 8.22361 14 8.49998C14 8.77636 13.7764 9 13.5 9ZM22 19.5C22 19.7764 21.7763 20 21.5 20H18.5C18.2236 20 18 19.7764 18 19.5V14.5C18 14.2236 18.2236 14 18.5 14H21.5C21.7763 14 22 14.2236 22 14.5V19.5ZM20 12C18.897 12 18 11.103 18 9.99998C18 8.89692 18.897 7.99997 20 7.99997C21.1031 7.99997 22 8.89692 22 9.99998C22 11.103 21.103 12 20 12Z" fill="#17479E"/>
</g>
</g>
</g>
</g>
<defs>
<clipPath id="clip0_675_56165">
<rect width="24" height="24" fill="white"/>
</clipPath>
</defs>
</svg>
