<svg width="24" height="24" viewBox="0 0 24 24" fill="none" xmlns="http://www.w3.org/2000/svg">
<g id="stove" clip-path="url(#clip0_675_56171)">
<path id="Vector" d="M21.8438 2.15625H2.10938C0.946289 2.15625 0 3.10254 0 4.26562V14.8125H24V4.26562C24 3.10254 23.0068 2.15625 21.8438 2.15625ZM11.2969 9.1875C11.2969 10.0972 11.001 10.9349 10.5095 11.6246L11.0909 12.206C11.3655 12.4807 11.3655 12.9256 11.0909 13.2003C10.8162 13.4749 10.3713 13.4749 10.0966 13.2003L9.51526 12.6189C8.8255 13.1104 7.98779 13.4062 7.07812 13.4062C6.16846 13.4062 5.33075 13.1104 4.64099 12.6189L4.05963 13.2003C3.78497 13.4749 3.34003 13.4749 3.06537 13.2003C2.79071 12.9256 2.79071 12.4807 3.06537 12.206L3.64673 11.6246C3.15527 10.9349 2.85938 10.0972 2.85938 9.1875C2.85938 8.27783 3.15527 7.44012 3.64673 6.75037L3.06537 6.16901C2.79071 5.89435 2.79071 5.4494 3.06537 5.17474C3.34003 4.90009 3.78497 4.90009 4.05963 5.17474L4.64099 5.7561C5.33075 5.26465 6.16846 4.96875 7.07812 4.96875C7.98779 4.96875 8.8255 5.26465 9.51526 5.7561L10.0966 5.17474C10.3713 4.90009 10.8162 4.90009 11.0909 5.17474C11.3655 5.4494 11.3655 5.89435 11.0909 6.16901L10.5095 6.75037C11.001 7.44012 11.2969 8.27783 11.2969 9.1875ZM21.1406 9.1875C21.1406 10.0972 20.8447 10.9349 20.3533 11.6246L20.9346 12.206C21.2093 12.4807 21.2093 12.9256 20.9346 13.2003C20.66 13.4749 20.215 13.4749 19.9404 13.2003L19.359 12.6189C18.6693 13.1104 17.8315 13.4062 16.9219 13.4062C16.0122 13.4062 15.1745 13.1104 14.4847 12.6189L13.9034 13.2003C13.6287 13.4749 13.1838 13.4749 12.9091 13.2003C12.6345 12.9256 12.6345 12.4807 12.9091 12.206L13.4905 11.6246C12.999 10.9349 12.7031 10.0972 12.7031 9.1875C12.7031 8.27783 12.999 7.44012 13.4905 6.75037L12.9091 6.16901C12.6345 5.89435 12.6345 5.4494 12.9091 5.17474C13.1838 4.90009 13.6287 4.90009 13.9034 5.17474L14.4847 5.7561C15.1745 5.26465 16.0122 4.96875 16.9219 4.96875C17.8315 4.96875 18.6693 5.26465 19.359 5.7561L19.9404 5.17474C20.215 4.90009 20.66 4.90009 20.9346 5.17474C21.2093 5.4494 21.2093 5.89435 20.9346 6.16901L20.3533 6.75037C20.8447 7.44012 21.1406 8.27783 21.1406 9.1875Z" fill="#17479E"/>
<path id="Vector_2" d="M2.10938 21.8438H11.2969V16.2188H0V19.7344C0 20.8975 0.946289 21.8438 2.10938 21.8438ZM7.78125 17.625H9.1875C9.57605 17.625 9.89062 17.9396 9.89062 18.3281C9.89062 18.7167 9.57605 19.0312 9.1875 19.0312H7.78125C7.3927 19.0312 7.07812 18.7167 7.07812 18.3281C7.07812 17.9396 7.3927 17.625 7.78125 17.625ZM3.5625 17.625H4.96875C5.3573 17.625 5.67188 17.9396 5.67188 18.3281C5.67188 18.7167 5.3573 19.0312 4.96875 19.0312H3.5625C3.17395 19.0312 2.85938 18.7167 2.85938 18.3281C2.85938 17.9396 3.17395 17.625 3.5625 17.625Z" fill="#17479E"/>
<path id="Vector_3" d="M9.06665 8.19324C8.79199 8.4679 8.34705 8.4679 8.07239 8.19324C7.79773 7.91858 7.79773 7.47363 8.07239 7.19897L8.49792 6.77344C8.07971 6.52643 7.59814 6.375 7.07812 6.375C6.55811 6.375 6.07654 6.52643 5.65833 6.77344L6.08386 7.19897C6.35852 7.47363 6.35852 7.91858 6.08386 8.19324C5.8092 8.4679 5.36426 8.4679 5.0896 8.19324L4.66406 7.7677C4.41705 8.18591 4.26562 8.66748 4.26562 9.1875C4.26562 9.70752 4.41705 10.1891 4.66406 10.6073L5.0896 10.1818C5.36426 9.9071 5.8092 9.9071 6.08386 10.1818C6.35852 10.4564 6.35852 10.9014 6.08386 11.176L5.65833 11.6016C6.07654 11.8486 6.55811 12 7.07812 12C7.59814 12 8.07971 11.8486 8.49792 11.6016L8.07239 11.176C7.79773 10.9014 7.79773 10.4564 8.07239 10.1818C8.34705 9.9071 8.79199 9.9071 9.06665 10.1818L9.49219 10.6073C9.7392 10.1891 9.89062 9.70752 9.89062 9.1875C9.89062 8.66748 9.7392 8.18591 9.49219 7.7677L9.06665 8.19324Z" fill="#17479E"/>
<path id="Vector_4" d="M12.7031 21.8438H21.8438C23.0068 21.8438 24 20.8975 24 19.7344V16.2188H12.7031V21.8438ZM19.0312 17.625H20.4375C20.826 17.625 21.1406 17.9396 21.1406 18.3281C21.1406 18.7167 20.826 19.0312 20.4375 19.0312H19.0312C18.6427 19.0312 18.3281 18.7167 18.3281 18.3281C18.3281 17.9396 18.6427 17.625 19.0312 17.625ZM14.8125 17.625H16.2188C16.6073 17.625 16.9219 17.9396 16.9219 18.3281C16.9219 18.7167 16.6073 19.0312 16.2188 19.0312H14.8125C14.424 19.0312 14.1094 18.7167 14.1094 18.3281C14.1094 17.9396 14.424 17.625 14.8125 17.625Z" fill="#17479E"/>
<path id="Vector_5" d="M18.9104 8.19324C18.6357 8.4679 18.1908 8.4679 17.9161 8.19324C17.6415 7.91858 17.6415 7.47363 17.9161 7.19897L18.3417 6.77344C17.9235 6.52643 17.4419 6.375 16.9219 6.375C16.4019 6.375 15.9203 6.52643 15.5021 6.77344L15.9276 7.19897C16.2023 7.47363 16.2023 7.91858 15.9276 8.19324C15.653 8.4679 15.208 8.4679 14.9333 8.19324L14.5078 7.7677C14.2608 8.18591 14.1094 8.66748 14.1094 9.1875C14.1094 9.70752 14.2608 10.1891 14.5078 10.6073L14.9333 10.1818C15.208 9.9071 15.653 9.9071 15.9276 10.1818C16.2023 10.4564 16.2023 10.9014 15.9276 11.176L15.5021 11.6016C15.9203 11.8486 16.4019 12 16.9219 12C17.4419 12 17.9235 11.8486 18.3417 11.6016L17.9161 11.176C17.6415 10.9014 17.6415 10.4564 17.9161 10.1818C18.1908 9.9071 18.6357 9.9071 18.9104 10.1818L19.3359 10.6073C19.5829 10.1891 19.7344 9.70752 19.7344 9.1875C19.7344 8.66748 19.5829 8.18591 19.3359 7.7677L18.9104 8.19324Z" fill="#17479E"/>
</g>
<defs>
<clipPath id="clip0_675_56171">
<rect width="24" height="24" fill="white"/>
</clipPath>
</defs>
</svg>
