<svg width="24" height="24" viewBox="0 0 24 24" fill="none" xmlns="http://www.w3.org/2000/svg">
<g id="fridge" clip-path="url(#clip0_675_56204)">
<g id="Group">
<g id="Group_2">
<g id="Group_3">
<path id="Vector" d="M18 0H6.00002C4.897 0 4 0.896953 4 2.00002V6.50002C4 6.77639 4.22364 7.00003 4.50002 7.00003H19.5C19.7764 7.00003 20 6.77639 20 6.50002V2.00002C20 0.896953 19.103 0 18 0ZM9.50003 5.00002H6.50003C6.29786 5.00002 6.11528 4.87842 6.03813 4.69144C5.9605 4.50441 6.00344 4.28958 6.14655 4.14652L6.64656 3.6465C6.84189 3.45117 7.1583 3.45117 7.35358 3.6465C7.45122 3.74414 7.50006 3.87211 7.50006 4.00003H9.50008C9.77645 4.00003 10.0001 4.22367 10.0001 4.50005C10.0001 4.77642 9.77641 5.00002 9.50003 5.00002Z" fill="#17479E"/>
<path id="Vector_2" d="M19.5 8H4.50002C4.22364 8 4 8.22364 4 8.50002V21C4 22.103 4.89695 23 6.00002 23V23.5C6.00002 23.7764 6.22366 24 6.50003 24H7.50002C7.77639 24 8.00003 23.7764 8.00003 23.5V23H16V23.5C16 23.7764 16.2237 24 16.5001 24H17.5C17.7764 24 18.0001 23.7764 18.0001 23.5V23C19.1031 23 20.0001 22.103 20.0001 21V8.49997C20 8.22364 19.7764 8 19.5 8ZM9.50003 11H6.50003C6.29786 11 6.11528 10.8784 6.03813 10.6914C5.9605 10.5044 6.00344 10.2896 6.14655 10.1465L6.64656 9.64648C6.84189 9.45116 7.1583 9.45116 7.35358 9.64648C7.45122 9.74413 7.50006 9.87209 7.50006 10H9.50008C9.77645 10 10.0001 10.2237 10.0001 10.5C10.0001 10.7764 9.77641 11 9.50003 11Z" fill="#17479E"/>
</g>
</g>
</g>
</g>
<defs>
<clipPath id="clip0_675_56204">
<rect width="24" height="24" fill="white"/>
</clipPath>
</defs>
</svg>
