<svg width="24" height="24" viewBox="0 0 24 24" fill="none" xmlns="http://www.w3.org/2000/svg">
<g id="air-conditioner" clip-path="url(#clip0_675_56181)">
<g id="Group">
<g id="Group_2">
<path id="Vector" d="M18.923 10.2695H5.07686L4.24609 13.9618H19.7538L18.923 10.2695Z" fill="#17479E"/>
</g>
</g>
<g id="Group_3">
<g id="Group_4">
<path id="Vector_2" d="M21.9231 3.11536H2.07694C0.931687 3.11536 0 4.04704 0 5.19225V11.8845C0 13.0297 0.931687 13.9615 2.07694 13.9615H2.82694L3.84769 9.42492C3.91875 9.10898 4.1993 8.88454 4.52311 8.88454H19.4769C19.8008 8.88454 20.0813 9.10898 20.1524 9.42492L21.1731 13.9615H21.9231C23.0683 13.9615 24 13.0298 24 11.8845V5.19225C24 4.04704 23.0683 3.11536 21.9231 3.11536ZM15.6923 7.96148H14.7692C14.3869 7.96148 14.0769 7.6515 14.0769 7.26918C14.0769 6.88687 14.3869 6.57689 14.7692 6.57689H15.6923C16.0747 6.57689 16.3846 6.88687 16.3846 7.26918C16.3846 7.6515 16.0747 7.96148 15.6923 7.96148ZM18.9231 7.96148H18C17.6176 7.96148 17.3077 7.6515 17.3077 7.26918C17.3077 6.88687 17.6177 6.57689 18 6.57689H18.9231C19.3054 6.57689 19.6154 6.88687 19.6154 7.26918C19.6154 7.6515 19.3054 7.96148 18.9231 7.96148Z" fill="#17479E"/>
</g>
</g>
<g id="Group_5">
<g id="Group_6">
<path id="Vector_3" d="M12.4627 17.1154C12.4627 16.9226 12.4987 16.8626 12.5948 16.7024C12.726 16.4838 12.9242 16.1534 12.9242 15.5771C12.9242 15.1947 12.6143 14.8848 12.232 14.8848C11.8496 14.8848 11.5397 15.1948 11.5397 15.5771C11.5397 15.7699 11.5037 15.8298 11.4076 15.99C11.2764 16.2086 11.0781 16.539 11.0781 17.1154C11.0781 17.6917 11.2764 18.0222 11.4075 18.2408C11.5037 18.4011 11.5397 18.461 11.5397 18.6539C11.5397 18.8467 11.5037 18.9068 11.4075 19.067C11.2764 19.2856 11.0781 19.616 11.0781 20.1924C11.0781 20.5748 11.3881 20.8847 11.7704 20.8847C12.1527 20.8847 12.4627 20.5747 12.4627 20.1924C12.4627 19.9995 12.4987 19.9395 12.5949 19.7794C12.726 19.5607 12.9242 19.2303 12.9242 18.6539C12.9242 18.0775 12.726 17.7471 12.5949 17.5284C12.4987 17.3682 12.4627 17.3082 12.4627 17.1154Z" fill="#17479E"/>
</g>
</g>
<g id="Group_7">
<g id="Group_8">
<path id="Vector_4" d="M8.76741 17.1152C8.76741 16.9224 8.80336 16.8625 8.8995 16.7023C9.0307 16.4837 9.22894 16.1533 9.22894 15.5769C9.22894 15.1946 8.91895 14.8846 8.53664 14.8846C8.15433 14.8846 7.84434 15.1946 7.84434 15.5769C7.84434 15.7697 7.80839 15.8297 7.71225 15.9899C7.58105 16.2085 7.38281 16.5389 7.38281 17.1152C7.38281 17.6916 7.58105 18.022 7.7122 18.2407C7.80834 18.401 7.84434 18.4609 7.84434 18.6538C7.84434 18.8466 7.80839 18.9067 7.7122 19.0668C7.58105 19.2855 7.38281 19.6159 7.38281 20.1923C7.38281 20.5747 7.6928 20.8846 8.07511 20.8846C8.45742 20.8846 8.76741 20.5746 8.76741 20.1923C8.76741 19.9994 8.80336 19.9394 8.89955 19.7792C9.0307 19.5606 9.22894 19.2302 9.22894 18.6538C9.22894 18.0773 9.0307 17.747 8.89955 17.5283C8.80341 17.3681 8.76741 17.3081 8.76741 17.1152Z" fill="#17479E"/>
</g>
</g>
<g id="Group_9">
<g id="Group_10">
<path id="Vector_5" d="M16.1541 17.1154C16.1541 16.9226 16.1901 16.8626 16.2862 16.7024C16.4174 16.4838 16.6157 16.1534 16.6157 15.5771C16.6157 15.1947 16.3057 14.8848 15.9234 14.8848C15.541 14.8848 15.2311 15.1948 15.2311 15.5771C15.2311 15.7699 15.1951 15.8298 15.099 15.99C14.9678 16.2086 14.7695 16.539 14.7695 17.1154C14.7695 17.6917 14.9678 18.0222 15.0989 18.2408C15.1951 18.4011 15.2311 18.461 15.2311 18.6539C15.2311 18.8467 15.1951 18.9068 15.0989 19.067C14.9678 19.2856 14.7695 19.616 14.7695 20.1924C14.7695 20.5748 15.0795 20.8847 15.4618 20.8847C15.8441 20.8847 16.1541 20.5747 16.1541 20.1924C16.1541 19.9995 16.1901 19.9395 16.2863 19.7794C16.4174 19.5607 16.6157 19.2303 16.6157 18.6539C16.6157 18.0775 16.4174 17.7471 16.2863 17.5284C16.1901 17.3682 16.1541 17.3082 16.1541 17.1154Z" fill="#17479E"/>
</g>
</g>
</g>
<defs>
<clipPath id="clip0_675_56181">
<rect width="24" height="24" fill="white"/>
</clipPath>
</defs>
</svg>
