<svg width="24" height="24" viewBox="0 0 24 24" fill="none" xmlns="http://www.w3.org/2000/svg">
<g id="mixer-blender">
<path id="Vector" d="M14.279 7.97948C13.1713 7.91685 12.3395 7.76685 11.6056 7.6341C10.6914 7.46835 9.90163 7.32585 8.83175 7.39823C7.80575 7.46798 6.82587 7.71623 5.84375 8.1396C5.88462 11.1044 6.37662 14.7794 8.30562 16.8752H15.6972C17.7054 14.6935 18.1569 10.7991 18.1625 7.77735C16.8732 7.97985 15.5694 8.0526 14.279 7.97948Z" fill="#17479E"/>
<path id="Vector_2" d="M6.03612 4.14528C5.96225 4.81053 5.861 5.95691 5.84375 7.32116C6.80637 6.93941 7.77275 6.71741 8.7815 6.64878C9.94438 6.56966 10.7765 6.72041 11.7395 6.89478C12.452 7.02378 13.2598 7.16966 14.3218 7.22966C15.596 7.30278 16.8834 7.22741 18.1554 7.01928C18.1483 6.69791 18.1366 6.39153 18.1224 6.10166C18.1224 6.10128 18.1224 6.10091 18.1224 6.10053C18.1224 6.10053 18.1224 6.10016 18.1224 6.09978C18.0819 5.28041 18.0185 4.59978 17.9683 4.14528C17.9532 4.01103 17.8389 3.91016 17.702 3.91016H16.9775C16.9775 3.91016 16.9768 3.91016 16.9764 3.91016C16.976 3.91016 16.9756 3.91016 16.9753 3.91016H6.30275C6.16587 3.91016 6.05112 4.01141 6.03612 4.14528Z" fill="#17479E"/>
<path id="Vector_3" d="M7.66797 3.16087H16.3282C15.8508 2.52225 14.6718 1.5 11.9981 1.5C9.32434 1.5 8.14534 2.52225 7.66797 3.16087Z" fill="#17479E"/>
<path id="Vector_4" d="M19.7525 22.5L17.5621 17.625H6.44037L4.25 22.5H19.7525ZM12.0013 17.8894C13.1412 17.8894 14.0683 18.8167 14.0683 19.9564C14.0683 21.096 13.1409 22.0234 12.0013 22.0234C10.8616 22.0234 9.93425 21.096 9.93425 19.9564C9.93425 18.8167 10.8616 17.8894 12.0013 17.8894Z" fill="#17479E"/>
<path id="Vector_5" d="M12.0006 21.2725C12.727 21.2725 13.3176 20.6815 13.3176 19.9555C13.3176 19.3603 12.9182 18.862 12.3756 18.6992V19.2268C12.3756 19.4338 12.2076 19.6018 12.0006 19.6018C11.7936 19.6018 11.6256 19.4338 11.6256 19.2268V18.6992C11.0826 18.862 10.6836 19.3603 10.6836 19.9555C10.6836 20.6818 11.2746 21.2725 12.0006 21.2725Z" fill="#17479E"/>
<path id="Vector_6" d="M21.8464 18.6491C22.053 18.6491 22.2214 18.4807 22.2214 18.2741V7.53031C22.2214 6.12219 21.0758 4.97656 19.6676 4.97656H18.7969C18.8156 5.20681 18.8332 5.45731 18.849 5.72656H19.6676C20.6621 5.72656 21.4714 6.53581 21.4714 7.53031V18.2741C21.4714 18.4844 21.636 18.6491 21.8464 18.6491Z" fill="#17479E"/>
</g>
</svg>
