<svg width="24" height="24" viewBox="0 0 24 24" fill="none" xmlns="http://www.w3.org/2000/svg">
<path fill-rule="evenodd" clip-rule="evenodd" d="M22.7765 3.40234H1.22339C0.75675 3.40234 0.375 3.78409 0.375 4.25069V14.8733H23.625V4.25073C23.6249 3.78414 23.2432 3.40234 22.7765 3.40234ZM12.2524 10.5733L10.3334 11.6812V9.46539V7.24956L12.2524 8.3575L14.1713 9.46539L12.2524 10.5733ZM0.375 17.4406C0.375 17.9072 0.75675 18.289 1.22339 18.289H4.23403L3.50991 20.0832C3.43303 20.2749 3.52617 20.4926 3.71789 20.5695C3.90961 20.6464 4.12734 20.5533 4.20422 20.3615L5.0407 18.289H18.9592L19.7957 20.3615C19.8726 20.5533 20.0903 20.6464 20.282 20.5695C20.4737 20.4927 20.5669 20.2749 20.49 20.0832L19.7659 18.289H22.7765C23.2432 18.289 23.6249 17.9072 23.6249 17.4406V15.6233H0.375V17.4406ZM8.99044 16.3681H15.0096C15.2167 16.3681 15.3846 16.536 15.3846 16.7431C15.3846 16.9502 15.2167 17.1181 15.0096 17.1181H8.99044C8.78334 17.1181 8.61544 16.9502 8.61544 16.7431C8.61544 16.536 8.7833 16.3681 8.99044 16.3681Z" fill="#17479E"/>
</svg>
