<svg width="24" height="24" viewBox="0 0 24 24" fill="none" xmlns="http://www.w3.org/2000/svg">
<g id="laundry">
<g id="Laundry">
<path id="Vector" d="M18.75 1.5H5.25C4.65326 1.5 4.08097 1.73705 3.65901 2.15901C3.23705 2.58097 3 3.15326 3 3.75V20.25C3 20.8467 3.23705 21.419 3.65901 21.841C4.08097 22.2629 4.65326 22.5 5.25 22.5H18.75C19.3467 22.5 19.919 22.2629 20.341 21.841C20.7629 21.419 21 20.8467 21 20.25V3.75C21 3.15326 20.7629 2.58097 20.341 2.15901C19.919 1.73705 19.3467 1.5 18.75 1.5ZM15.75 3.75C15.8983 3.75 16.0433 3.79399 16.1667 3.8764C16.29 3.95881 16.3861 4.07594 16.4429 4.21299C16.4997 4.35003 16.5145 4.50083 16.4856 4.64632C16.4566 4.7918 16.3852 4.92544 16.2803 5.03033C16.1754 5.13522 16.0418 5.20665 15.8963 5.23559C15.7508 5.26453 15.6 5.24968 15.463 5.19291C15.3259 5.13614 15.2088 5.04001 15.1264 4.91668C15.044 4.79334 15 4.64834 15 4.5C15 4.30109 15.079 4.11032 15.2197 3.96967C15.3603 3.82902 15.5511 3.75 15.75 3.75ZM5.25 4.5C5.25 4.30109 5.32902 4.11032 5.46967 3.96967C5.61032 3.82902 5.80109 3.75 6 3.75H8.25C8.44891 3.75 8.63968 3.82902 8.78033 3.96967C8.92098 4.11032 9 4.30109 9 4.5C9 4.69891 8.92098 4.88968 8.78033 5.03033C8.63968 5.17098 8.44891 5.25 8.25 5.25H6C5.80109 5.25 5.61032 5.17098 5.46967 5.03033C5.32902 4.88968 5.25 4.69891 5.25 4.5ZM12 20.25C10.8133 20.25 9.65327 19.8981 8.66658 19.2388C7.67988 18.5795 6.91085 17.6425 6.45672 16.5461C6.0026 15.4497 5.88378 14.2433 6.11529 13.0795C6.3468 11.9156 6.91824 10.8465 7.75736 10.0074C8.59647 9.16824 9.66557 8.5968 10.8295 8.36529C11.9933 8.13378 13.1997 8.2526 14.2961 8.70672C15.3925 9.16085 16.3295 9.92988 16.9888 10.9166C17.6481 11.9033 18 13.0633 18 14.25C17.9982 15.8408 17.3655 17.3658 16.2407 18.4907C15.1158 19.6155 13.5908 20.2482 12 20.25ZM18 5.25C17.8517 5.25 17.7067 5.20601 17.5833 5.1236C17.46 5.04119 17.3639 4.92406 17.3071 4.78701C17.2503 4.64997 17.2355 4.49917 17.2644 4.35368C17.2934 4.2082 17.3648 4.07456 17.4697 3.96967C17.5746 3.86478 17.7082 3.79335 17.8537 3.76441C17.9992 3.73547 18.15 3.75032 18.287 3.80709C18.4241 3.86386 18.5412 3.95999 18.6236 4.08332C18.706 4.20666 18.75 4.35166 18.75 4.5C18.75 4.69891 18.671 4.88968 18.5303 5.03033C18.3897 5.17098 18.1989 5.25 18 5.25Z" fill="#17479E"/>
<path id="Vector_2" d="M12.0225 14.2509C11.3207 13.8974 10.5454 13.7145 9.75964 13.7168C8.97385 13.7192 8.1997 13.9068 7.5 14.2644C7.5007 15.4578 7.97547 16.6021 8.81988 17.4456C9.23798 17.8632 9.73425 18.1944 10.2803 18.4202C10.8264 18.646 11.4117 18.7621 12.0026 18.7617C12.5936 18.7614 13.1787 18.6447 13.7245 18.4182C14.2703 18.1917 14.7662 17.86 15.1838 17.4419C15.6015 17.0237 15.9326 16.5275 16.1585 15.9814C16.3843 15.4353 16.5003 14.8501 16.5 14.2591C15.8045 14.6063 15.0376 14.7864 14.2603 14.785C13.4829 14.7835 12.7167 14.6006 12.0225 14.2509Z" fill="#17479E"/>
</g>
</g>
</svg>
