<svg width="60" height="60" viewBox="0 0 60 60" fill="none" xmlns="http://www.w3.org/2000/svg">
<g clip-path="url(#clip0_3346_5853)">
<path d="M54.8438 32.8125V7.5C54.8438 7.25136 54.7451 7.0129 54.5692 6.83709C54.3934 6.66127 54.155 6.5625 53.9063 6.5625H45.4688C45.2202 6.5625 44.9817 6.66127 44.8059 6.83709C44.6301 7.0129 44.5313 7.25136 44.5313 7.5V32.8125H40.3126C40.1397 32.8118 39.97 32.8588 39.8222 32.9485C39.6745 33.0382 39.5543 33.167 39.4752 33.3207C39.396 33.4743 39.3609 33.6469 39.3737 33.8193C39.3864 33.9917 39.4466 34.1572 39.5476 34.2975L48.9226 47.4225C49.0093 47.544 49.1238 47.6431 49.2565 47.7114C49.3893 47.7798 49.5364 47.8154 49.6857 47.8154C49.835 47.8154 49.9821 47.7798 50.1149 47.7114C50.2476 47.6431 50.3621 47.544 50.4488 47.4225L59.8238 34.2975C59.9246 34.1574 59.9848 33.9923 59.9977 33.8202C60.0106 33.6482 59.9758 33.4759 59.8971 33.3223C59.8184 33.1688 59.6988 33.0399 59.5516 32.95C59.4043 32.86 59.2351 32.8125 59.0626 32.8125H54.8438Z" fill="#EE3824"/>
<path d="M15.4688 32.8125V7.5C15.4688 7.25136 15.3701 7.0129 15.1942 6.83709C15.0184 6.66127 14.78 6.5625 14.5313 6.5625H6.09383C5.84519 6.5625 5.60673 6.66127 5.43092 6.83709C5.2551 7.0129 5.15633 7.25136 5.15633 7.5V32.8125H0.937581C0.764719 32.8118 0.595019 32.8588 0.447237 32.9485C0.299455 33.0382 0.179344 33.167 0.10018 33.3207C0.0210165 33.4743 -0.0141185 33.6469 -0.00134145 33.8193C0.0114356 33.9917 0.0716273 34.1572 0.172581 34.2975L9.54758 47.4225C9.6343 47.544 9.7488 47.6431 9.88153 47.7114C10.0143 47.7798 10.1614 47.8154 10.3107 47.8154C10.46 47.8154 10.6071 47.7798 10.7399 47.7114C10.8726 47.6431 10.9871 47.544 11.0738 47.4225L20.4488 34.2975C20.5496 34.1574 20.6098 33.9923 20.6227 33.8202C20.6356 33.6482 20.6008 33.4759 20.5221 33.3223C20.4434 33.1688 20.3238 33.0399 20.1766 32.95C20.0293 32.86 19.8601 32.8125 19.6876 32.8125H15.4688Z" fill="#EE3824"/>
<path d="M41.25 43.1267H35.625V23.0923C33.8703 23.9376 31.9477 24.3766 30 24.3766C28.0523 24.3766 26.1297 23.9376 24.375 23.0923V43.1267H18.75C18.5759 43.1267 18.4052 43.1751 18.2571 43.2667C18.109 43.3582 17.9893 43.4892 17.9115 43.6449C17.8336 43.8006 17.8007 43.975 17.8163 44.1484C17.8319 44.3218 17.8955 44.4874 18 44.6267L29.25 59.6267C29.3373 59.7431 29.4506 59.8376 29.5807 59.9027C29.7109 59.9678 29.8545 60.0017 30 60.0017C30.1455 60.0017 30.2891 59.9678 30.4193 59.9027C30.5494 59.8376 30.6627 59.7431 30.75 59.6267L42 44.6267C42.1045 44.4874 42.1681 44.3218 42.1837 44.1484C42.1994 43.975 42.1664 43.8006 42.0885 43.6449C42.0107 43.4892 41.891 43.3582 41.7429 43.2667C41.5948 43.1751 41.4241 43.1267 41.25 43.1267Z" fill="#EE3824"/>
<path d="M34.8711 15C35.3889 15 35.8086 14.5803 35.8086 14.0625C35.8086 13.5447 35.3889 13.125 34.8711 13.125C34.3533 13.125 33.9336 13.5447 33.9336 14.0625C33.9336 14.5803 34.3533 15 34.8711 15Z" fill="#EE3824"/>
<path d="M25.1289 9.375C25.6467 9.375 26.0664 8.95527 26.0664 8.4375C26.0664 7.91973 25.6467 7.5 25.1289 7.5C24.6111 7.5 24.1914 7.91973 24.1914 8.4375C24.1914 8.95527 24.6111 9.375 25.1289 9.375Z" fill="#EE3824"/>
<path d="M30 0C27.775 0 25.5999 0.659801 23.7498 1.89597C21.8998 3.13213 20.4578 4.88914 19.6064 6.94481C18.7549 9.00048 18.5321 11.2625 18.9662 13.4448C19.4003 15.6271 20.4717 17.6316 22.0451 19.205C23.6184 20.7783 25.623 21.8498 27.8052 22.2838C29.9875 22.7179 32.2495 22.4951 34.3052 21.6436C36.3609 20.7922 38.1179 19.3502 39.354 17.5002C40.5902 15.6501 41.25 13.475 41.25 11.25C41.2468 8.2673 40.0605 5.4077 37.9514 3.29861C35.8423 1.18953 32.9827 0.00322601 30 0ZM22.3125 8.4375C22.3125 7.88124 22.4775 7.33747 22.7865 6.87496C23.0955 6.41245 23.5348 6.05196 24.0487 5.83909C24.5626 5.62622 25.1281 5.57052 25.6737 5.67904C26.2193 5.78756 26.7204 6.05543 27.1137 6.44876C27.5071 6.8421 27.7749 7.34324 27.8835 7.88881C27.992 8.43438 27.9363 8.99988 27.7234 9.5138C27.5105 10.0277 27.1501 10.467 26.6875 10.776C26.225 11.085 25.6813 11.25 25.125 11.25C24.3791 11.25 23.6637 10.9537 23.1363 10.4262C22.6088 9.89879 22.3125 9.18342 22.3125 8.4375ZM27.5269 17.4019C27.4026 17.6162 27.1985 17.7726 26.9592 17.8369C26.72 17.9012 26.465 17.8681 26.25 17.745C26.0347 17.6207 25.8776 17.4159 25.8132 17.1757C25.7489 16.9356 25.7826 16.6797 25.9069 16.4644L32.4694 5.09812C32.5305 4.99064 32.6123 4.89631 32.71 4.82056C32.8077 4.74481 32.9194 4.68914 33.0387 4.65674C33.158 4.62435 33.2826 4.61587 33.4052 4.63181C33.5278 4.64775 33.646 4.68778 33.7531 4.7496C33.8602 4.81142 33.954 4.89381 34.0291 4.99202C34.1042 5.09023 34.1591 5.20233 34.1907 5.32186C34.2223 5.44139 34.23 5.56599 34.2132 5.68849C34.1965 5.81099 34.1557 5.92897 34.0931 6.03562L27.5269 17.4019ZM34.875 16.875C34.3187 16.875 33.775 16.7101 33.3125 16.401C32.85 16.092 32.4895 15.6527 32.2766 15.1388C32.0637 14.6249 32.008 14.0594 32.1165 13.5138C32.2251 12.9682 32.4929 12.4671 32.8863 12.0738C33.2796 11.6804 33.7807 11.4126 34.3263 11.304C34.8719 11.1955 35.4374 11.2512 35.9513 11.4641C36.4652 11.677 36.9045 12.0374 37.2135 12.5C37.5226 12.9625 37.6875 13.5062 37.6875 14.0625C37.6875 14.8084 37.3912 15.5238 36.8637 16.0512C36.3363 16.5787 35.6209 16.875 34.875 16.875Z" fill="#EE3824"/>
</g>
<defs>
<clipPath id="clip0_3346_5853">
<rect width="60" height="60" fill="white"/>
</clipPath>
</defs>
</svg>
