<svg width="63" height="63" viewBox="0 0 63 63" fill="none" xmlns="http://www.w3.org/2000/svg">
<g clip-path="url(#clip0_3346_5842)">
<path d="M31.5 37.0371C37.6067 37.0371 42.5742 32.0696 42.5742 25.9629C42.5742 19.8562 37.6067 14.8887 31.5 14.8887C25.3933 14.8887 20.4258 19.8562 20.4258 25.9629C20.4258 32.0696 25.3933 37.0371 31.5 37.0371ZM24.658 26.5037C25.3789 25.7828 26.547 25.7828 27.2679 26.5037L29.6543 28.8901L35.7322 22.8122C36.4531 22.0912 37.6212 22.0912 38.3421 22.8122C39.0631 23.5331 39.0631 24.7012 38.3421 25.4221L30.9593 32.8049C30.5988 33.1654 30.1266 33.3457 29.6544 33.3457C29.1823 33.3457 28.7099 33.1654 28.3495 32.8049L24.6581 29.1135C23.9369 28.3926 23.9369 27.2246 24.658 26.5037Z" fill="#EE3824"/>
<path d="M6.20086 24.6578C5.47992 25.3787 5.47992 26.5468 6.20086 27.2677L9.76429 30.8311C10.2293 31.2961 10.4114 31.9793 10.242 32.6137L8.93877 37.4821C8.67557 38.4662 9.25955 39.4791 10.2437 39.7423L15.112 41.0472C15.7465 41.2167 16.2458 41.716 16.4152 42.3522L17.7201 47.2188C17.9851 48.2048 19.0035 48.7905 19.9804 48.5237L24.847 47.2205C25.4904 47.0511 26.1664 47.2313 26.6314 47.6982L30.1949 51.2616C30.5554 51.6221 31.0277 51.8024 31.4998 51.8024C31.9719 51.8024 32.4443 51.6221 32.8047 51.2616L36.3681 47.6982C36.8296 47.2349 37.5127 47.0529 38.1507 47.2205L43.0191 48.5237C44.0122 48.7923 45.0161 48.2046 45.2793 47.2188L46.5842 42.3504C46.7537 41.716 47.253 41.2167 47.8891 41.0472L52.7558 39.7423C53.7399 39.4791 54.3239 38.4662 54.0607 37.4821L52.7575 32.6155C52.5881 31.9792 52.7702 31.296 53.2352 30.831L56.7986 27.2676C57.5195 26.5467 57.5195 25.3786 56.7986 24.6576L53.2352 21.0942C52.7702 20.6292 52.5881 19.9461 52.7575 19.3116L54.0607 14.4433C54.3239 13.4591 53.7399 12.4462 52.7558 12.183L47.8874 10.8781C47.253 10.7087 46.7537 10.2094 46.5842 9.5732L45.2793 4.70657C45.0144 3.7206 44.0103 3.14388 43.0191 3.40166L38.1524 4.70485C37.5036 4.86703 36.8294 4.69218 36.368 4.22718L32.8046 0.540699C32.0836 -0.180233 30.9156 -0.180233 30.1946 0.540699L26.6312 4.22718C26.1662 4.69218 25.4849 4.86887 24.8486 4.70485L19.9803 3.40166C19.0051 3.14757 17.9849 3.72072 17.72 4.70657L16.4151 9.57492C16.2457 10.2094 15.7463 10.7087 15.1102 10.8781L10.2437 12.183C9.25955 12.4462 8.67557 13.4591 8.93877 14.4433L10.242 19.3099C10.4114 19.9462 10.2293 20.6293 9.76429 21.0943L6.20086 24.6578ZM31.4999 11.1971C39.6416 11.1971 46.2655 17.821 46.2655 25.9627C46.2655 34.1043 39.6416 40.7283 31.4999 40.7283C23.3583 40.7283 16.7343 34.1043 16.7343 25.9627C16.7343 17.821 23.3583 11.1971 31.4999 11.1971Z" fill="#EE3824"/>
<path d="M49.8725 44.3376L48.8433 48.1751C48.1981 50.5922 46.0027 52.281 43.5044 52.281C43.0159 52.281 42.5276 52.2162 42.0535 52.0882L38.2233 51.0626L36.6074 52.6785L41.9634 62.0778C42.2842 62.6311 42.8683 62.9808 43.5063 63.0006C43.5261 63.0006 43.5442 63.0006 43.5622 63.0006C44.1803 63.0006 44.7608 62.6905 45.1032 62.1715L49.1407 55.931L56.4587 55.4912C57.0985 55.4533 57.6717 55.0875 57.9745 54.5233C58.2773 53.961 58.2665 53.2797 57.9474 52.7263L52.6717 43.5879L49.8725 44.3376Z" fill="#EE3824"/>
<path d="M5.02262 54.5208C5.32544 55.0849 5.89859 55.4509 6.53843 55.4886L13.8564 55.9284L17.8939 62.169C18.2364 62.6881 18.8168 62.9981 19.435 62.9981C19.4529 62.9981 19.471 62.9981 19.4908 62.9981C20.129 62.9783 20.7129 62.6286 21.0337 62.0752L26.3897 52.6759L24.7739 51.0601L20.9347 52.0875C20.4787 52.2119 19.9902 52.2786 19.4999 52.2786C17.0017 52.2786 14.8028 50.5915 14.1539 48.1762L13.1248 44.3352L10.3261 43.5845L5.04969 52.7238C4.73063 53.2771 4.7198 53.9584 5.02262 54.5208Z" fill="#EE3824"/>
</g>
<defs>
<clipPath id="clip0_3346_5842">
<rect width="63" height="63" fill="white"/>
</clipPath>
</defs>
</svg>
