<svg width="52" height="60" viewBox="0 0 52 60" fill="none" xmlns="http://www.w3.org/2000/svg">
<path d="M26.0005 18.5698C19.6967 18.5698 14.5684 23.6981 14.5684 30.0015C14.5684 36.3054 19.6967 41.4337 26.0005 41.4337C32.3039 41.4337 37.4322 36.3054 37.4322 30.0015C37.4322 23.6981 32.3039 18.5698 26.0005 18.5698ZM32.7878 27.8487L24.5979 36.0385C24.2542 36.3823 23.8033 36.5544 23.3528 36.5544C22.9024 36.5544 22.4519 36.3827 22.1082 36.0385L18.9784 32.9088C18.2909 32.2217 18.2909 31.107 18.9784 30.4195C19.6655 29.7319 20.7802 29.7319 21.4678 30.4195L23.3528 32.3045L30.2984 25.3594C30.9855 24.6718 32.1002 24.6718 32.7878 25.3594C33.4753 26.0465 33.4753 27.1611 32.7878 27.8487Z" fill="#EE3824"/>
<path d="M51.4867 16.2795L51.4849 16.2328C51.4588 15.6565 51.4414 15.0468 51.4309 14.3684C51.3819 11.0601 48.7521 8.32361 45.4434 8.13867C38.5449 7.75369 33.2083 5.50425 28.6485 1.05983L28.6096 1.02276C27.1223 -0.340919 24.8788 -0.340919 23.3911 1.02276L23.3522 1.05983C18.7924 5.50425 13.4558 7.75369 6.55736 8.13913C3.24912 8.32361 0.618814 11.0601 0.569833 14.3688C0.559762 15.0426 0.541909 15.6524 0.515817 16.2328L0.513071 16.3413C0.378946 23.3758 0.212321 32.1305 3.14108 40.0768C4.75149 44.4466 7.19045 48.2451 10.3898 51.3675C14.0335 54.9234 18.8062 57.7464 24.5749 59.7578C24.7626 59.8232 24.9576 59.8764 25.1562 59.9162C25.4364 59.972 25.7184 59.9999 26.0004 59.9999C26.2823 59.9999 26.5648 59.972 26.8445 59.9162C27.0431 59.8764 27.2395 59.8228 27.4281 59.7569C33.19 57.7418 37.9576 54.9174 41.5982 51.362C44.7961 48.2387 47.235 44.4392 48.8468 40.0685C51.7866 32.0984 51.6204 23.3272 51.4867 16.2795ZM25.9994 44.9538C17.7542 44.9538 11.0466 38.2462 11.0466 30.0009C11.0466 21.7557 17.7542 15.0481 25.9994 15.0481C34.2442 15.0481 40.9523 21.7557 40.9523 30.0009C40.9523 38.2462 34.2442 44.9538 25.9994 44.9538Z" fill="#EE3824"/>
</svg>
