<svg width="52" height="52" viewBox="0 0 52 52" fill="none" xmlns="http://www.w3.org/2000/svg">
<path d="M48.2629 44.6875H33.7598L36.6848 52H51.1879L48.2629 44.6875Z" fill="#EE3824"/>
<path d="M44.525 43.0625L41.925 36.5625H27.4219C27.8434 37.6162 29.4996 41.7567 30.0219 43.0625H44.525Z" fill="#EE3824"/>
<path d="M22.0586 27.625L24.9836 34.9375H39.4867L36.5617 27.625H22.0586Z" fill="#EE3824"/>
<path d="M15.1125 44.6875L12.1875 52H23.5625L20.6375 44.6875H15.1125Z" fill="#EE3824"/>
<path d="M26.4875 44.6875L23.5625 52H34.9375L32.0125 44.6875H26.4875Z" fill="#EE3824"/>
<path d="M17.5492 43.0625L14.9492 36.5625H9.42422L6.82422 43.0625H17.5492Z" fill="#EE3824"/>
<path d="M25.6758 36.5625H20.1508L17.5508 43.0625H28.2758L25.6758 36.5625Z" fill="#EE3824"/>
<path d="M23.2367 34.9375L20.3117 27.625H15.4367L12.5117 34.9375H23.2367Z" fill="#EE3824"/>
<path d="M3.7375 44.6875L0.8125 52H12.1875L9.2625 44.6875H3.7375Z" fill="#EE3824"/>
<path d="M28.4378 12.8C28.4382 12.5742 28.3629 12.3547 28.2239 12.1767C28.085 11.9986 27.8905 11.8723 27.6713 11.8177L26.8145 11.6035V13.8125H27.4254C27.6938 13.8122 27.9512 13.7054 28.141 13.5156C28.3308 13.3258 28.4376 13.0684 28.4378 12.8Z" fill="#EE3824"/>
<path d="M25.1893 7.3125H24.5751C24.328 7.31248 24.0894 7.40282 23.9043 7.5665C23.7192 7.73018 23.6003 7.9559 23.5701 8.20114C23.5399 8.44637 23.6004 8.69421 23.7402 8.89794C23.88 9.10168 24.0895 9.24727 24.3292 9.30727L25.1893 9.52226V7.3125Z" fill="#EE3824"/>
<path d="M23.5577 20.8388L25.2899 23.9571C25.3603 24.0837 25.4632 24.1891 25.5881 24.2626C25.713 24.336 25.8552 24.3747 26 24.3747C26.1449 24.3747 26.2871 24.336 26.412 24.2626C26.5368 24.1891 26.6398 24.0837 26.7102 23.9571L28.4423 20.8388C30.9606 20.2403 33.1715 18.7379 34.6552 16.6168C36.1388 14.4958 36.792 11.9038 36.4907 9.33299C36.1894 6.76215 34.9546 4.39144 33.0207 2.67095C31.0868 0.950468 28.5885 0 26 0C23.4116 0 20.9132 0.950468 18.9794 2.67095C17.0455 4.39144 15.8106 6.76215 15.5093 9.33299C15.208 11.9038 15.8612 14.4958 17.3449 16.6168C18.8286 18.7379 21.0394 20.2403 23.5577 20.8388ZM23.9355 10.884C23.311 10.7279 22.7651 10.3488 22.4008 9.81816C22.0364 9.28751 21.8787 8.64192 21.9573 8.00303C22.0359 7.36415 22.3455 6.77607 22.8276 6.3496C23.3098 5.92312 23.9313 5.6877 24.575 5.68767H25.1892C25.1892 5.47218 25.2748 5.26552 25.4271 5.11315C25.5795 4.96077 25.7862 4.87517 26.0016 4.87517C26.2171 4.87517 26.4238 4.96077 26.5762 5.11315C26.7285 5.26552 26.8141 5.47218 26.8141 5.68767H27.4251C28.1243 5.68851 28.7947 5.96665 29.2891 6.46109C29.7835 6.95553 30.0617 7.62589 30.0625 8.32513C30.0625 8.54062 29.9769 8.74728 29.8245 8.89965C29.6722 9.05202 29.4655 9.13763 29.25 9.13763C29.0345 9.13763 28.8279 9.05202 28.6755 8.89965C28.5231 8.74728 28.4375 8.54062 28.4375 8.32513C28.4373 8.05669 28.3305 7.79931 28.1407 7.6095C27.9509 7.41968 27.6935 7.31293 27.4251 7.31267H26.8141V9.92892L28.0646 10.2416C28.6889 10.3979 29.2344 10.777 29.5986 11.3076C29.9628 11.8382 30.1204 12.4836 30.0418 13.1223C29.9632 13.761 29.6538 14.349 29.1718 14.7754C28.6898 15.2019 28.0686 15.4374 27.4251 15.4377H26.8141C26.8141 15.6532 26.7285 15.8598 26.5762 16.0122C26.4238 16.1646 26.2171 16.2502 26.0016 16.2502C25.7862 16.2502 25.5795 16.1646 25.4271 16.0122C25.2748 15.8598 25.1892 15.6532 25.1892 15.4377H24.575C23.8757 15.4368 23.2054 15.1587 22.7109 14.6643C22.2165 14.1698 21.9384 13.4995 21.9375 12.8002C21.9375 12.5847 22.0231 12.3781 22.1755 12.2257C22.3279 12.0733 22.5345 11.9877 22.75 11.9877C22.9655 11.9877 23.1722 12.0733 23.3246 12.2257C23.4769 12.3781 23.5625 12.5847 23.5625 12.8002C23.5628 13.0687 23.6695 13.326 23.8594 13.5158C24.0492 13.7057 24.3065 13.8124 24.575 13.8127H25.1892V11.1975L23.9355 10.884Z" fill="#EE3824"/>
<path d="M39 11.375H45.5C45.7155 11.375 45.9222 11.2894 46.0745 11.137C46.2269 10.9847 46.3125 10.778 46.3125 10.5625C46.3125 10.347 46.2269 10.1403 46.0745 9.98798C45.9222 9.8356 45.7155 9.75 45.5 9.75H39C38.7845 9.75 38.5778 9.8356 38.4255 9.98798C38.2731 10.1403 38.1875 10.347 38.1875 10.5625C38.1875 10.778 38.2731 10.9847 38.4255 11.137C38.5778 11.2894 38.7845 11.375 39 11.375Z" fill="#EE3824"/>
<path d="M39.0008 8.12558C39.1478 8.12559 39.2921 8.08554 39.4181 8.00971L43.4806 5.57221C43.5729 5.51772 43.6535 5.44549 43.7178 5.3597C43.782 5.27391 43.8287 5.17625 43.855 5.07235C43.8814 4.96845 43.8869 4.86036 43.8713 4.75431C43.8557 4.64826 43.8193 4.54634 43.7641 4.45444C43.709 4.36253 43.6362 4.28244 43.5499 4.21879C43.4637 4.15515 43.3657 4.10919 43.2616 4.08359C43.1575 4.05798 43.0494 4.05322 42.9434 4.06958C42.8375 4.08595 42.7359 4.12311 42.6443 4.17894L38.5818 6.61644C38.4295 6.70791 38.3113 6.84684 38.2454 7.01192C38.1795 7.177 38.1696 7.35913 38.2171 7.5304C38.2646 7.70167 38.367 7.85262 38.5086 7.96012C38.6501 8.06762 38.823 8.12574 39.0008 8.12558Z" fill="#EE3824"/>
<path d="M42.6452 16.9461C42.8299 17.0551 43.0502 17.0867 43.2581 17.034C43.466 16.9812 43.6446 16.8484 43.755 16.6645C43.8653 16.4806 43.8985 16.2606 43.8473 16.0523C43.796 15.844 43.6645 15.6645 43.4814 15.5528L39.4189 13.1153C39.2343 13.0062 39.014 12.9747 38.8061 13.0274C38.5982 13.0801 38.4196 13.2129 38.3092 13.3968C38.1988 13.5807 38.1657 13.8008 38.2169 14.0091C38.2681 14.2173 38.3996 14.3969 38.5827 14.5086L42.6452 16.9461Z" fill="#EE3824"/>
<path d="M6.5 11.375H13C13.2155 11.375 13.4222 11.2894 13.5745 11.137C13.7269 10.9847 13.8125 10.778 13.8125 10.5625C13.8125 10.347 13.7269 10.1403 13.5745 9.98798C13.4222 9.8356 13.2155 9.75 13 9.75H6.5C6.28451 9.75 6.07785 9.8356 5.92548 9.98798C5.7731 10.1403 5.6875 10.347 5.6875 10.5625C5.6875 10.778 5.7731 10.9847 5.92548 11.137C6.07785 11.2894 6.28451 11.375 6.5 11.375Z" fill="#EE3824"/>
<path d="M8.52022 5.57106L12.5827 8.00856C12.7674 8.1176 12.9877 8.1492 13.1956 8.09646C13.4035 8.04372 13.5821 7.91093 13.6925 7.72703C13.8028 7.54314 13.836 7.32307 13.7848 7.1148C13.7335 6.90654 13.602 6.72698 13.4189 6.61529L9.35645 4.17779C9.17176 4.06875 8.95145 4.03715 8.74357 4.08989C8.53568 4.14263 8.35708 4.27543 8.24671 4.45932C8.13634 4.64321 8.10315 4.86329 8.15439 5.07155C8.20563 5.27981 8.33713 5.45937 8.52022 5.57106Z" fill="#EE3824"/>
<path d="M8.93827 17.0631C9.08532 17.0631 9.22958 17.023 9.35557 16.9472L13.4181 14.5097C13.5104 14.4552 13.591 14.383 13.6553 14.2972C13.7195 14.2114 13.7662 14.1138 13.7925 14.0099C13.8189 13.906 13.8244 13.7979 13.8088 13.6918C13.7932 13.5858 13.7568 13.4838 13.7016 13.3919C13.6465 13.3 13.5737 13.2199 13.4874 13.1563C13.4012 13.0926 13.3032 13.0467 13.1991 13.0211C13.095 12.9955 12.9869 12.9907 12.8809 13.0071C12.775 13.0234 12.6734 13.0606 12.5818 13.1164L8.51935 15.5539C8.36695 15.6454 8.24875 15.7843 8.18287 15.9494C8.11699 16.1145 8.10706 16.2966 8.1546 16.4679C8.20215 16.6392 8.30454 16.7901 8.44609 16.8976C8.58763 17.0051 8.76053 17.0632 8.93827 17.0631Z" fill="#EE3824"/>
</svg>
