<svg width="52" height="52" viewBox="0 0 52 52" fill="none" xmlns="http://www.w3.org/2000/svg">
<g clip-path="url(#clip0_3346_5865)">
<path d="M14.1152 9.24219H25.4925C27.1218 5.59061 29.9868 2.63788 30.0108 2.58984C30.4678 2.16328 30.5897 1.52344 30.346 0.944531C30.1023 0.365625 29.5539 0 28.9445 0C26.2023 0 24.7094 0.975 23.5211 1.76719C22.4547 2.49844 21.632 3.04688 19.8039 3.04688C17.9758 3.04688 17.1531 2.49844 16.0867 1.76719C14.8984 0.975 13.4054 0 10.6633 0C10.0539 0 9.50545 0.365625 9.2617 0.944531C9.01795 1.52344 9.13982 2.16328 9.59686 2.58984C9.62093 2.63788 12.4859 5.59061 14.1152 9.24219Z" fill="#EE3824"/>
<path d="M30.5703 47.4297V50.4766C30.5703 51.3179 31.2524 52 32.0938 52H50.4766C51.3179 52 52 51.3179 52 50.4766V47.4297C52 46.5883 51.3179 45.9062 50.4766 45.9062H32.0938C31.2524 45.9062 30.5703 46.5883 30.5703 47.4297Z" fill="#EE3824"/>
<path d="M52 41.3359V38.2891C52 37.4477 51.3179 36.7656 50.4766 36.7656H32.0938C31.2524 36.7656 30.5703 37.4477 30.5703 38.2891V41.3359C30.5703 42.1773 31.2524 42.8594 32.0938 42.8594H50.4766C51.3179 42.8594 52 42.1773 52 41.3359Z" fill="#EE3824"/>
<path d="M30.3773 24.6391C27.3914 21.7141 24.9539 19.2359 24.4664 15.3359H25.8984C26.7516 15.3359 27.4219 14.6656 27.4219 13.8125C27.4219 12.9594 26.7516 12.2891 25.8984 12.2891H13.7109C12.8578 12.2891 12.1875 12.9594 12.1875 13.8125C12.1875 14.6656 12.8578 15.3359 13.7109 15.3359H15.143C14.6555 19.2359 12.218 21.7141 9.23203 24.6391C4.90547 28.8742 0 33.6883 0 44.6875C0.0609375 48.7094 3.50391 52 7.61719 52H27.7022C27.5316 51.5216 27.4219 51.0128 27.4219 50.4766V38.2891C27.4219 35.7693 29.4724 33.7188 31.9922 33.7188H37.4491C35.6058 29.768 32.8717 27.0867 30.3773 24.6391ZM19.8047 33.7188C22.3249 33.7188 24.375 35.7689 24.375 38.2891C24.375 40.2726 23.0975 41.9478 21.3281 42.5788V44.3828C21.3281 45.2249 20.6467 45.9062 19.8047 45.9062C18.9626 45.9062 18.2812 45.2249 18.2812 44.3828V42.5788C16.5118 41.9479 15.2344 40.2726 15.2344 38.2891C15.2344 37.447 15.9158 36.7656 16.7578 36.7656C17.5999 36.7656 18.2812 37.447 18.2812 38.2891C18.2812 39.1296 18.9642 39.8125 19.8047 39.8125C20.6452 39.8125 21.3281 39.1296 21.3281 38.2891C21.3281 37.4485 20.6452 36.7656 19.8047 36.7656C17.2845 36.7656 15.2344 34.7155 15.2344 32.1953C15.2344 30.2118 16.5118 28.5366 18.2812 27.9056V26.1016C18.2812 25.2595 18.9626 24.5781 19.8047 24.5781C20.6467 24.5781 21.3281 25.2595 21.3281 26.1016V27.9056C23.0975 28.5365 24.375 30.2118 24.375 32.1953C24.375 33.0374 23.6936 33.7188 22.8516 33.7188C22.0095 33.7188 21.3281 33.0374 21.3281 32.1953C21.3281 31.3548 20.6452 30.6719 19.8047 30.6719C18.9642 30.6719 18.2812 31.3548 18.2812 32.1953C18.2812 33.0358 18.9642 33.7188 19.8047 33.7188Z" fill="#EE3824"/>
</g>
<defs>
<clipPath id="clip0_3346_5865">
<rect width="52" height="52" fill="white"/>
</clipPath>
</defs>
</svg>
