<svg width="58" height="58" viewBox="0 0 58 58" fill="none" xmlns="http://www.w3.org/2000/svg">
<g clip-path="url(#clip0_3346_5876)">
<path d="M42.707 27.4141C34.2742 27.4141 27.4141 34.2742 27.4141 42.707C27.4141 51.1398 34.2742 58 42.707 58C51.1398 58 58 51.1398 58 42.707C58 34.2742 51.1398 27.4141 42.707 27.4141ZM49.5039 44.4062H42.707C41.768 44.4062 41.0078 43.646 41.0078 42.707V35.9102C41.0078 34.9712 41.768 34.2109 42.707 34.2109C43.646 34.2109 44.4062 34.9712 44.4062 35.9102V41.0078H49.5039C50.4429 41.0078 51.2031 41.768 51.2031 42.707C51.2031 43.646 50.4429 44.4062 49.5039 44.4062Z" fill="#EE3824"/>
<path d="M54.4883 5.21094C54.4883 4.25911 53.7409 3.51172 52.7891 3.51172H44.293V8.60938C44.293 9.56076 43.5456 10.3086 42.5938 10.3086C41.6419 10.3086 40.8945 9.56076 40.8945 8.60938V3.51172H34.0977V8.60938C34.0977 9.56076 33.3503 10.3086 32.3984 10.3086C31.4466 10.3086 30.6992 9.56076 30.6992 8.60938V3.51172H23.9023V8.60938C23.9023 9.56076 23.155 10.3086 22.2031 10.3086C21.2513 10.3086 20.5039 9.56076 20.5039 8.60938V3.51172H13.707V8.60938C13.707 9.56076 12.9596 10.3086 12.0078 10.3086C11.056 10.3086 10.3086 9.56076 10.3086 8.60938V3.51172H1.69922C0.747391 3.51172 0 4.25911 0 5.21094V13.707H54.4883V5.21094Z" fill="#EE3824"/>
<path d="M25.6016 34.0977H26.0096C26.6299 32.8923 27.33 31.7351 28.1867 30.6992H25.6016C24.6626 30.6992 23.9023 29.939 23.9023 29C23.9023 28.061 24.6626 27.3008 25.6016 27.3008H29C29.6961 27.3008 30.2903 27.7207 30.5532 28.3194C33.8087 25.5693 38.0081 23.9023 42.5938 23.9023H39.1953C38.2563 23.9023 37.4961 23.1421 37.4961 22.2031C37.4961 21.2641 38.2563 20.5039 39.1953 20.5039H42.5938C43.5327 20.5039 44.293 21.2641 44.293 22.2031C44.293 23.1421 43.5327 23.9023 42.5938 23.9023C47.1086 23.9023 51.2545 25.5122 54.4883 28.1867V17.1055H0V49.3906C0 50.3296 0.760224 51.0898 1.69922 51.0898H25.9657C24.6564 48.5375 23.9023 45.6541 23.9023 42.5938C23.9023 40.7233 24.2378 38.9409 24.7515 37.2359C24.2528 36.9399 23.9023 36.4195 23.9023 35.7969C23.9023 34.8579 24.6626 34.0977 25.6016 34.0977ZM25.6016 20.5039H29C29.939 20.5039 30.6992 21.2641 30.6992 22.2031C30.6992 23.1421 29.939 23.9023 29 23.9023H25.6016C24.6626 23.9023 23.9023 23.1421 23.9023 22.2031C23.9023 21.2641 24.6626 20.5039 25.6016 20.5039ZM15.4062 44.293H12.0078C11.0688 44.293 10.3086 43.5327 10.3086 42.5938C10.3086 41.6548 11.0688 40.8945 12.0078 40.8945H15.4062C16.3452 40.8945 17.1055 41.6548 17.1055 42.5938C17.1055 43.5327 16.3452 44.293 15.4062 44.293ZM15.4062 37.4961H12.0078C11.0688 37.4961 10.3086 36.7359 10.3086 35.7969C10.3086 34.8579 11.0688 34.0977 12.0078 34.0977H15.4062C16.3452 34.0977 17.1055 34.8579 17.1055 35.7969C17.1055 36.7359 16.3452 37.4961 15.4062 37.4961ZM15.4062 30.6992H12.0078C11.0688 30.6992 10.3086 29.939 10.3086 29C10.3086 28.061 11.0688 27.3008 12.0078 27.3008H15.4062C16.3452 27.3008 17.1055 28.061 17.1055 29C17.1055 29.939 16.3452 30.6992 15.4062 30.6992ZM15.4062 23.9023H12.0078C11.0688 23.9023 10.3086 23.1421 10.3086 22.2031C10.3086 21.2641 11.0688 20.5039 12.0078 20.5039H15.4062C16.3452 20.5039 17.1055 21.2641 17.1055 22.2031C17.1055 23.1421 16.3452 23.9023 15.4062 23.9023Z" fill="#EE3824"/>
<path d="M13.707 1.69922C13.707 0.747391 12.9596 0 12.0078 0C11.056 0 10.3086 0.747391 10.3086 1.69922V3.51172H13.707V1.69922Z" fill="#EE3824"/>
<path d="M23.9023 1.69922C23.9023 0.747391 23.155 0 22.2031 0C21.2513 0 20.5039 0.747391 20.5039 1.69922V3.51172H23.9023V1.69922Z" fill="#EE3824"/>
<path d="M34.0977 1.69922C34.0977 0.747391 33.3503 0 32.3984 0C31.4466 0 30.6992 0.747391 30.6992 1.69922V3.51172H34.0977V1.69922Z" fill="#EE3824"/>
<path d="M44.293 1.69922C44.293 0.747391 43.5456 0 42.5938 0C41.6419 0 40.8945 0.747391 40.8945 1.69922V3.51172H44.293V1.69922Z" fill="#EE3824"/>
</g>
<defs>
<clipPath id="clip0_3346_5876">
<rect width="58" height="58" fill="white"/>
</clipPath>
</defs>
</svg>
