<svg width="53" height="22" viewBox="0 0 53 22" fill="none" xmlns="http://www.w3.org/2000/svg">
<path d="M10.1484 17.9058C10.347 17.9058 10.5458 17.83 10.6973 17.6784L11.8709 16.5049C12.1741 16.2018 12.1741 15.7102 11.8709 15.4071C11.5678 15.1039 11.0762 15.1039 10.773 15.4071L9.59946 16.5805C9.29627 16.8837 9.29627 17.3753 9.59946 17.6784C9.75101 17.83 9.94965 17.9058 10.1484 17.9058Z" fill="black"/>
<path d="M43.1332 17.6785C43.2848 17.8301 43.4835 17.9059 43.6822 17.9059C43.8808 17.9059 44.0796 17.8301 44.2311 17.6785C44.5343 17.3753 44.5343 16.8838 44.2311 16.5806L43.0577 15.4072C42.7545 15.1039 42.2629 15.1039 41.9598 15.4072C41.6566 15.7103 41.6566 16.2018 41.9598 16.505L43.1332 17.6785Z" fill="black"/>
<path d="M50.659 8.06018C46.2743 6.02366 39.6783 5.82874 38.3463 5.81032L32.0566 1.80786C30.1981 0.625118 28.0514 0 25.8485 0H6.63433C5.31453 0 4.06875 0.641162 3.30171 1.71501L0.918417 5.05167C0.318246 5.89199 0.000976562 6.88189 0.000976562 7.91444V13.5534C0.000976562 15.1681 1.20639 16.5579 2.80485 16.7863L5.85746 17.2224C6.18995 19.6173 8.24976 21.4675 10.7346 21.4675C12.8881 21.4675 14.7219 20.0777 15.3895 18.1484H38.4409C39.1085 20.0777 40.9423 21.4675 43.0958 21.4675C45.8116 21.4675 48.0211 19.258 48.0211 16.5422C48.0211 13.8264 45.8116 11.6169 43.0958 11.6169C40.3801 11.6169 38.1706 13.8264 38.1706 16.5422C38.1706 16.5601 38.1717 16.5777 38.1719 16.5956H15.6585C15.6587 16.5777 15.6599 16.5601 15.6599 16.5422C15.6599 13.8264 13.4504 11.6169 10.7346 11.6169C8.32057 11.6169 6.30806 13.3632 5.89028 15.6586L3.0243 15.2492C2.18584 15.1294 1.55358 14.4004 1.55358 13.5534V9.85055H2.43675C2.86551 9.85055 3.2131 9.50296 3.2131 9.0742C3.2131 8.64545 2.86551 8.29785 2.43675 8.29785H1.55368V7.91444C1.55368 7.20744 1.77095 6.52953 2.1819 5.9542L4.5652 2.61755C5.04146 1.95082 5.81492 1.5527 6.63433 1.5527H7.73737L5.79142 4.95809C5.50407 5.46096 5.50603 6.0602 5.7968 6.5611C6.08747 7.062 6.6068 7.36105 7.18595 7.36105H38.1172C38.1908 7.36105 45.5258 7.38776 50.0052 9.46828C50.2678 9.59032 50.5019 9.75739 50.7019 9.95728H49.7343C49.3055 9.95728 48.9579 10.3049 48.9579 10.7336C48.9579 11.1624 49.3055 11.51 49.7343 11.51H51.4332C51.4415 11.594 51.4473 11.6785 51.4473 11.7641V15.7122C51.4473 16.1992 51.0511 16.5955 50.564 16.5955C50.1353 16.5955 49.7877 16.9431 49.7877 17.3718C49.7877 17.8006 50.1353 18.1482 50.564 18.1482C51.9071 18.1482 52.9999 17.0554 53 15.7123V11.7641C52.9999 10.1747 52.0811 8.7207 50.659 8.06018ZM43.0959 13.1696C44.9556 13.1696 46.4685 14.6825 46.4685 16.5422C46.4685 18.4019 44.9556 19.9148 43.0959 19.9148C41.2363 19.9148 39.7234 18.4019 39.7234 16.5422C39.7234 14.6825 41.2363 13.1696 43.0959 13.1696ZM10.7346 13.1696C12.5942 13.1696 14.1072 14.6825 14.1072 16.5422C14.1072 18.4019 12.5942 19.9148 10.7346 19.9148C8.87498 19.9148 7.36203 18.4019 7.36203 16.5422C7.36203 14.6825 8.87509 13.1696 10.7346 13.1696ZM31.223 3.11783L35.4513 5.80856H24.6844L24.0765 1.55281H25.8485C27.7555 1.55281 29.6141 2.09397 31.223 3.11783ZM22.5079 1.55281L23.1159 5.80856H15.6598V1.55281H22.5079ZM7.13958 5.78185C7.12416 5.75525 7.13327 5.7392 7.13937 5.72854L9.52557 1.5527H14.1071V5.80846H7.18585C7.17364 5.80846 7.155 5.80845 7.13958 5.78185Z" fill="black"/>
<path d="M18.2021 13.2755C17.7734 13.2755 17.4258 13.6231 17.4258 14.0518C17.4258 14.4806 17.7734 14.8282 18.2021 14.8282H35.6274C36.0561 14.8282 36.4037 14.4806 36.4037 14.0518C36.4037 13.6231 36.0561 13.2755 35.6274 13.2755H18.2021Z" fill="black"/>
</svg>
