<svg width="36" height="36" viewBox="0 0 36 36" fill="none" xmlns="http://www.w3.org/2000/svg">
<mask id="path-1-inside-1_4006_14605" fill="white">
<path d="M8.00817 12.8924L10.0825 14.2425L9.68078 14.861L10.0844 14.2409C10.1262 14.2681 10.1643 14.2988 10.1987 14.3324C10.2645 14.3822 10.331 14.4098 10.3941 14.4238C10.4693 14.4405 10.5505 14.4418 10.6268 14.4372L14.6105 13.7328L14.6105 13.7327C14.7972 13.6955 14.8938 13.5833 14.9167 13.4597C14.9279 13.3994 14.926 13.3314 14.9121 13.2615C14.8982 13.1915 14.8741 13.1283 14.841 13.0775C14.7721 12.9716 14.6396 12.9046 14.4529 12.9417L14.3084 12.2163L14.4529 12.942C14.4336 12.9458 14.4143 12.9488 14.3951 12.9511L10.9909 13.54L10.9911 13.541C10.7394 13.5845 10.4955 13.4954 10.3309 13.3242L6.49 9.48327L6.48994 9.48333C6.45608 9.44947 6.42626 9.41315 6.40034 9.37494C6.24958 9.1984 6.06451 9.09067 5.87131 9.04315C5.67106 8.99392 5.45773 9.0076 5.26038 9.07505C5.06542 9.14165 4.89109 9.25935 4.76607 9.41894C4.63803 9.5824 4.55856 9.79857 4.55856 10.0593C4.55856 10.0837 4.55736 10.1078 4.55504 10.1316L4.46306 19.7381C4.46388 19.7531 4.46437 19.7675 4.46465 19.7816H4.46549C4.46541 19.7891 4.46519 19.7966 4.46489 19.8041C4.46498 19.9538 4.43548 20.0529 4.4049 20.1533L4.40501 20.1533L4.40476 20.1544C4.40684 20.1484 4.40828 20.1454 4.39922 20.1793L4.39908 20.1793H4.39905L4.40015 20.1796C4.39829 20.1865 4.3963 20.1934 4.39425 20.2003L1.50864 32.8204C1.50335 32.8542 1.49575 32.8872 1.48603 32.9193C1.46547 33.0196 1.48371 33.1191 1.53114 33.2011C1.57885 33.2836 1.65613 33.3494 1.75321 33.3817C1.76919 33.3853 1.785 33.3896 1.80057 33.3943C1.90079 33.4149 2.00032 33.3966 2.08238 33.3492C2.17146 33.2977 2.24104 33.2117 2.26993 33.1036L2.26901 33.1033C2.27654 33.0751 2.28566 33.0477 2.29615 33.0212L5.29602 22.6267L6.00409 22.829L5.29323 22.6238C5.39004 22.2884 5.70354 22.0743 6.03762 22.0898C6.10152 22.0853 6.16477 22.0747 6.22659 22.0587C6.30294 22.0389 6.37799 22.0094 6.45024 21.9713L6.44945 21.9698C6.76472 21.8036 7.14548 21.8878 7.36408 22.1518L11.5095 26.4352L10.9806 26.9497L11.5122 26.4351C11.698 26.6271 11.7591 26.8939 11.6969 27.135L10.8186 31.6526L10.0932 31.5139L10.8195 31.6551C10.8035 31.737 10.7747 31.8131 10.7354 31.8816C10.702 31.9705 10.7022 32.0658 10.7308 32.1518C10.7629 32.2482 10.8325 32.3326 10.9317 32.3823C11.031 32.4319 11.1416 32.4364 11.2401 32.4036C11.3161 32.3782 11.3848 32.3296 11.4347 32.2615L12.5821 27.2363L13.3018 27.3982L12.5804 27.2335C12.6014 27.1416 12.6387 27.0578 12.6884 26.9841C12.7246 26.9161 12.7405 26.8391 12.7352 26.7626C12.7296 26.6802 12.6995 26.5994 12.644 26.5326L12.6416 26.5346C12.6161 26.504 12.5936 26.472 12.5739 26.4389L12.3544 26.1336L12.3528 26.1347C12.9627 26.9851 11.1261 24.4249 12.3544 26.1336L12.3528 26.1347C11.082 24.3626 8.06967 20.1621 7.62045 19.9442L7.94127 19.2794L7.61829 19.9451C7.35521 19.8175 7.20185 19.5545 7.20128 19.2805L6.81987 13.5274L6.81845 13.5275C6.79144 13.1197 7.10004 12.7673 7.50775 12.7403C7.69492 12.7279 7.87042 12.7862 8.00817 12.8924ZM9.24077 15.4545L8.39108 14.9015L8.65821 18.9307C9.81178 20.0537 12.3855 23.6426 13.555 25.2735C13.8905 25.7413 13.7463 25.5415 13.5538 25.2743L13.5529 25.275L13.7718 25.5796L13.7783 25.5873L13.7777 25.5878L13.7989 25.6174C14.0486 25.9284 14.1838 26.2946 14.2092 26.6643C14.2329 27.0104 14.1605 27.3605 13.9958 27.672L12.8619 32.6382C12.8509 32.7144 12.8276 32.7903 12.7913 32.863L12.7885 32.8616C12.557 33.3246 12.1589 33.6503 11.7025 33.8024C11.2483 33.9537 10.7358 33.9316 10.2728 33.7001C9.80975 33.4686 9.48411 33.0705 9.332 32.6142C9.19257 32.1958 9.20035 31.7278 9.38342 31.2947L10.1823 27.1857L6.60098 23.4852L6.59651 23.4864L6.57957 23.4907L3.71126 33.4294C3.7078 33.448 3.70356 33.4666 3.69859 33.4853L3.6954 33.4844L3.69766 33.485C3.56383 33.986 3.23908 34.3856 2.82228 34.6266C2.41788 34.8604 1.92773 34.945 1.44195 34.8282C1.4263 34.8251 1.41065 34.8215 1.395 34.8173L1.39525 34.8164C0.894259 34.6825 0.494742 34.3578 0.25375 33.941C0.0199392 33.5367 -0.0646059 33.0465 0.0521082 32.5607C0.0535009 32.5538 0.0549476 32.5468 0.0565315 32.5398L0.0572145 32.54L0.0639324 32.514L0.0640686 32.5141L2.95467 19.8722C2.95865 19.8473 2.96392 19.8224 2.97059 19.7975L2.97152 19.7978C2.97862 19.7712 2.97864 19.7765 2.98894 19.7438L3.0811 10.1176C3.0796 10.0983 3.07881 10.0789 3.07881 10.0592C3.07881 9.45019 3.27996 8.92541 3.60424 8.51142C3.91236 8.11811 4.3288 7.83257 4.78643 7.67621C5.24165 7.52064 5.74308 7.49139 6.22392 7.60963C6.71377 7.73012 7.17812 8.00205 7.54642 8.44722L11.1177 12.0184L14.1438 11.495C14.1505 11.4935 14.1572 11.492 14.1639 11.4907L14.164 11.4909C15.0387 11.3167 15.7014 11.6954 16.0779 12.274C16.218 12.4894 16.3143 12.7286 16.3629 12.9724C16.4115 13.2163 16.4143 13.4737 16.3675 13.7256C16.2426 14.3985 15.7831 14.9976 14.9244 15.1783C14.911 15.1814 14.8975 15.1842 14.8838 15.1867L14.755 14.4581L14.8822 15.1864L10.9004 15.8904C10.8714 15.8966 10.8418 15.9013 10.8115 15.9041L10.7429 15.1674L10.8094 15.9015C10.5991 15.9211 10.3497 15.9238 10.0762 15.8631C9.79982 15.8018 9.5133 15.6796 9.24077 15.4545ZM13.5538 25.2743C13.2961 24.9167 12.951 24.4374 13.5529 25.275L13.5538 25.2743Z"/>
</mask>
<path d="M8.00817 12.8924L10.0825 14.2425L9.68078 14.861L10.0844 14.2409C10.1262 14.2681 10.1643 14.2988 10.1987 14.3324C10.2645 14.3822 10.331 14.4098 10.3941 14.4238C10.4693 14.4405 10.5505 14.4418 10.6268 14.4372L14.6105 13.7328L14.6105 13.7327C14.7972 13.6955 14.8938 13.5833 14.9167 13.4597C14.9279 13.3994 14.926 13.3314 14.9121 13.2615C14.8982 13.1915 14.8741 13.1283 14.841 13.0775C14.7721 12.9716 14.6396 12.9046 14.4529 12.9417L14.3084 12.2163L14.4529 12.942C14.4336 12.9458 14.4143 12.9488 14.3951 12.9511L10.9909 13.54L10.9911 13.541C10.7394 13.5845 10.4955 13.4954 10.3309 13.3242L6.49 9.48327L6.48994 9.48333C6.45608 9.44947 6.42626 9.41315 6.40034 9.37494C6.24958 9.1984 6.06451 9.09067 5.87131 9.04315C5.67106 8.99392 5.45773 9.0076 5.26038 9.07505C5.06542 9.14165 4.89109 9.25935 4.76607 9.41894C4.63803 9.5824 4.55856 9.79857 4.55856 10.0593C4.55856 10.0837 4.55736 10.1078 4.55504 10.1316L4.46306 19.7381C4.46388 19.7531 4.46437 19.7675 4.46465 19.7816H4.46549C4.46541 19.7891 4.46519 19.7966 4.46489 19.8041C4.46498 19.9538 4.43548 20.0529 4.4049 20.1533L4.40501 20.1533L4.40476 20.1544C4.40684 20.1484 4.40828 20.1454 4.39922 20.1793L4.39908 20.1793H4.39905L4.40015 20.1796C4.39829 20.1865 4.3963 20.1934 4.39425 20.2003L1.50864 32.8204C1.50335 32.8542 1.49575 32.8872 1.48603 32.9193C1.46547 33.0196 1.48371 33.1191 1.53114 33.2011C1.57885 33.2836 1.65613 33.3494 1.75321 33.3817C1.76919 33.3853 1.785 33.3896 1.80057 33.3943C1.90079 33.4149 2.00032 33.3966 2.08238 33.3492C2.17146 33.2977 2.24104 33.2117 2.26993 33.1036L2.26901 33.1033C2.27654 33.0751 2.28566 33.0477 2.29615 33.0212L5.29602 22.6267L6.00409 22.829L5.29323 22.6238C5.39004 22.2884 5.70354 22.0743 6.03762 22.0898C6.10152 22.0853 6.16477 22.0747 6.22659 22.0587C6.30294 22.0389 6.37799 22.0094 6.45024 21.9713L6.44945 21.9698C6.76472 21.8036 7.14548 21.8878 7.36408 22.1518L11.5095 26.4352L10.9806 26.9497L11.5122 26.4351C11.698 26.6271 11.7591 26.8939 11.6969 27.135L10.8186 31.6526L10.0932 31.5139L10.8195 31.6551C10.8035 31.737 10.7747 31.8131 10.7354 31.8816C10.702 31.9705 10.7022 32.0658 10.7308 32.1518C10.7629 32.2482 10.8325 32.3326 10.9317 32.3823C11.031 32.4319 11.1416 32.4364 11.2401 32.4036C11.3161 32.3782 11.3848 32.3296 11.4347 32.2615L12.5821 27.2363L13.3018 27.3982L12.5804 27.2335C12.6014 27.1416 12.6387 27.0578 12.6884 26.9841C12.7246 26.9161 12.7405 26.8391 12.7352 26.7626C12.7296 26.6802 12.6995 26.5994 12.644 26.5326L12.6416 26.5346C12.6161 26.504 12.5936 26.472 12.5739 26.4389L12.3544 26.1336L12.3528 26.1347C12.9627 26.9851 11.1261 24.4249 12.3544 26.1336L12.3528 26.1347C11.082 24.3626 8.06967 20.1621 7.62045 19.9442L7.94127 19.2794L7.61829 19.9451C7.35521 19.8175 7.20185 19.5545 7.20128 19.2805L6.81987 13.5274L6.81845 13.5275C6.79144 13.1197 7.10004 12.7673 7.50775 12.7403C7.69492 12.7279 7.87042 12.7862 8.00817 12.8924ZM9.24077 15.4545L8.39108 14.9015L8.65821 18.9307C9.81178 20.0537 12.3855 23.6426 13.555 25.2735C13.8905 25.7413 13.7463 25.5415 13.5538 25.2743L13.5529 25.275L13.7718 25.5796L13.7783 25.5873L13.7777 25.5878L13.7989 25.6174C14.0486 25.9284 14.1838 26.2946 14.2092 26.6643C14.2329 27.0104 14.1605 27.3605 13.9958 27.672L12.8619 32.6382C12.8509 32.7144 12.8276 32.7903 12.7913 32.863L12.7885 32.8616C12.557 33.3246 12.1589 33.6503 11.7025 33.8024C11.2483 33.9537 10.7358 33.9316 10.2728 33.7001C9.80975 33.4686 9.48411 33.0705 9.332 32.6142C9.19257 32.1958 9.20035 31.7278 9.38342 31.2947L10.1823 27.1857L6.60098 23.4852L6.59651 23.4864L6.57957 23.4907L3.71126 33.4294C3.7078 33.448 3.70356 33.4666 3.69859 33.4853L3.6954 33.4844L3.69766 33.485C3.56383 33.986 3.23908 34.3856 2.82228 34.6266C2.41788 34.8604 1.92773 34.945 1.44195 34.8282C1.4263 34.8251 1.41065 34.8215 1.395 34.8173L1.39525 34.8164C0.894259 34.6825 0.494742 34.3578 0.25375 33.941C0.0199392 33.5367 -0.0646059 33.0465 0.0521082 32.5607C0.0535009 32.5538 0.0549476 32.5468 0.0565315 32.5398L0.0572145 32.54L0.0639324 32.514L0.0640686 32.5141L2.95467 19.8722C2.95865 19.8473 2.96392 19.8224 2.97059 19.7975L2.97152 19.7978C2.97862 19.7712 2.97864 19.7765 2.98894 19.7438L3.0811 10.1176C3.0796 10.0983 3.07881 10.0789 3.07881 10.0592C3.07881 9.45019 3.27996 8.92541 3.60424 8.51142C3.91236 8.11811 4.3288 7.83257 4.78643 7.67621C5.24165 7.52064 5.74308 7.49139 6.22392 7.60963C6.71377 7.73012 7.17812 8.00205 7.54642 8.44722L11.1177 12.0184L14.1438 11.495C14.1505 11.4935 14.1572 11.492 14.1639 11.4907L14.164 11.4909C15.0387 11.3167 15.7014 11.6954 16.0779 12.274C16.218 12.4894 16.3143 12.7286 16.3629 12.9724C16.4115 13.2163 16.4143 13.4737 16.3675 13.7256C16.2426 14.3985 15.7831 14.9976 14.9244 15.1783C14.911 15.1814 14.8975 15.1842 14.8838 15.1867L14.755 14.4581L14.8822 15.1864L10.9004 15.8904C10.8714 15.8966 10.8418 15.9013 10.8115 15.9041L10.7429 15.1674L10.8094 15.9015C10.5991 15.9211 10.3497 15.9238 10.0762 15.8631C9.79982 15.8018 9.5133 15.6796 9.24077 15.4545ZM13.5538 25.2743C13.2961 24.9167 12.951 24.4374 13.5529 25.275L13.5538 25.2743Z" fill="#212121"/>
<path d="M12.3544 26.1336L12.3253 26.0929L12.3236 26.0941L12.3528 26.1347L12.3819 26.1754L12.3835 26.1742L12.3544 26.1336ZM13.5538 25.2743L13.5243 25.234L13.5234 25.2346L13.5529 25.275L13.5824 25.3154L13.5833 25.3147L13.5538 25.2743ZM8.00817 12.8924L7.94691 12.9719L7.95362 12.9763L8.00817 12.8924ZM10.0825 14.2425L10.1664 14.297L10.2208 14.2132L10.1371 14.1587L10.0825 14.2425ZM9.68078 14.861L9.59692 14.8065L9.76459 14.9155L9.68078 14.861ZM10.0844 14.2409L10.1389 14.1571L10.0551 14.1025L10.0006 14.1863L10.0844 14.2409ZM10.1987 14.3324L10.1282 14.4045L10.1383 14.4122L10.1987 14.3324ZM10.3941 14.4238L10.3725 14.5214L10.3725 14.5215L10.3941 14.4238ZM10.6268 14.4372L10.6329 14.5377L10.6442 14.5357L10.6268 14.4372ZM14.6105 13.7328L14.6279 13.8313L14.7252 13.8141L14.7092 13.7167L14.6105 13.7328ZM14.6105 13.7327L14.591 13.6346L14.4962 13.6535L14.5118 13.7488L14.6105 13.7327ZM14.9167 13.4597L14.8184 13.4415L14.8184 13.4415L14.9167 13.4597ZM14.9121 13.2615L14.814 13.281L14.814 13.281L14.9121 13.2615ZM14.841 13.0775L14.7572 13.132L14.7572 13.132L14.841 13.0775ZM14.4529 12.9417L14.3549 12.9613L14.3744 13.0593L14.4725 13.0398L14.4529 12.9417ZM14.3084 12.2163L14.4065 12.1968L14.2103 12.2359L14.3084 12.2163ZM14.4529 12.942L14.4725 13.04L14.5705 13.0205L14.551 12.9224L14.4529 12.942ZM14.3951 12.9511L14.3832 12.8517L14.378 12.8526L14.3951 12.9511ZM10.9909 13.54L10.9739 13.4415L10.8764 13.4583L10.8922 13.556L10.9909 13.54ZM10.9911 13.541L11.0081 13.6395L11.1056 13.6227L11.0898 13.525L10.9911 13.541ZM10.3309 13.3242L10.403 13.2549L10.4016 13.2534L10.3309 13.3242ZM6.49 9.48327L6.56071 9.41256L6.49 9.34185L6.41929 9.41256L6.49 9.48327ZM6.48994 9.48333L6.41923 9.55404L6.48994 9.62475L6.56065 9.55404L6.48994 9.48333ZM6.40034 9.37494L6.48361 9.31846L6.47639 9.31L6.40034 9.37494ZM5.87131 9.04315L5.89519 8.94605L5.89518 8.94604L5.87131 9.04315ZM5.26038 9.07505L5.29271 9.16968L5.29272 9.16967L5.26038 9.07505ZM4.76607 9.41894L4.68735 9.35727L4.68735 9.35727L4.76607 9.41894ZM4.55504 10.1316L4.45513 10.1219L4.45504 10.1307L4.55504 10.1316ZM4.46306 19.7381L4.36286 19.7372L4.36321 19.7436L4.46306 19.7381ZM4.46465 19.7816L4.36467 19.7835L4.36658 19.8816H4.46465V19.7816ZM4.46549 19.7816L4.56549 19.7826L4.56659 19.6816H4.46549V19.7816ZM4.46489 19.8041L4.36489 19.8001L4.36489 19.8041L4.46489 19.8041ZM4.4049 20.1533L4.30924 20.1241L4.27886 20.2239L4.37976 20.2501L4.4049 20.1533ZM4.40501 20.1533L4.50268 20.1748L4.52334 20.0807L4.43015 20.0565L4.40501 20.1533ZM4.40476 20.1544L4.30709 20.133L4.49923 20.1872L4.40476 20.1544ZM4.39922 20.1793L4.37892 20.2772L4.47145 20.2964L4.49583 20.2051L4.39922 20.1793ZM4.39908 20.1793L4.41938 20.0814L4.40934 20.0793H4.39908V20.1793ZM4.39905 20.1793V20.0793L4.37241 20.2757L4.39905 20.1793ZM4.40015 20.1796L4.49677 20.2053L4.5223 20.1096L4.42679 20.0832L4.40015 20.1796ZM4.39425 20.2003L4.2982 20.1717L4.29676 20.178L4.39425 20.2003ZM1.50864 32.8204L1.41093 32.7981L1.40985 32.8049L1.50864 32.8204ZM1.48603 32.9193L1.38992 32.8902L1.38807 32.8992L1.48603 32.9193ZM1.53114 33.2011L1.61772 33.1511L1.61771 33.1511L1.53114 33.2011ZM1.75321 33.3817L1.72157 33.477L1.73073 33.4791L1.75321 33.3817ZM1.80057 33.3943L1.7714 33.4904L1.78044 33.4922L1.80057 33.3943ZM2.08238 33.3492L2.13243 33.4358L2.13244 33.4358L2.08238 33.3492ZM2.26993 33.1036L2.36655 33.1294L2.39242 33.0325L2.2955 33.0069L2.26993 33.1036ZM2.26901 33.1033L2.1724 33.0775L2.14652 33.1744L2.24344 33.2L2.26901 33.1033ZM2.29615 33.0212L2.38956 33.0582L2.39223 33.0489L2.29615 33.0212ZM5.29602 22.6267L5.32349 22.5305L5.22759 22.5031L5.19994 22.599L5.29602 22.6267ZM6.00409 22.829L5.97661 22.9251L6.03181 22.7329L6.00409 22.829ZM5.29323 22.6238L5.19715 22.5961L5.16942 22.6922L5.2655 22.7199L5.29323 22.6238ZM6.03762 22.0898L6.03297 22.1903L6.04465 22.1895L6.03762 22.0898ZM6.22659 22.0587L6.25165 22.1555L6.25166 22.1555L6.22659 22.0587ZM6.45024 21.9713L6.49685 22.0598L6.58536 22.0131L6.5387 21.9247L6.45024 21.9713ZM6.44945 21.9698L6.40281 21.8813L6.31435 21.928L6.36099 22.0164L6.44945 21.9698ZM7.36408 22.1518L7.28681 22.2158L7.29222 22.2214L7.36408 22.1518ZM11.5095 26.4352L11.5792 26.5069L11.6507 26.4374L11.5813 26.3657L11.5095 26.4352ZM10.9806 26.9497L10.9108 26.878L11.0501 27.0215L10.9806 26.9497ZM11.5122 26.4351L11.5841 26.3656L11.5145 26.2937L11.4427 26.3633L11.5122 26.4351ZM11.6969 27.135L11.5999 27.11L11.5987 27.1159L11.6969 27.135ZM10.8186 31.6526L10.7998 31.7509L10.8977 31.7696L10.9168 31.6717L10.8186 31.6526ZM10.0932 31.5139L10.112 31.4157L10.0741 31.6121L10.0932 31.5139ZM10.8195 31.6551L10.9176 31.6742L10.9367 31.5761L10.8386 31.557L10.8195 31.6551ZM10.7354 31.8816L10.6487 31.832L10.6447 31.8389L10.6419 31.8464L10.7354 31.8816ZM10.7308 32.1518L10.8257 32.1201L10.8257 32.1201L10.7308 32.1518ZM11.2401 32.4036L11.2085 32.3087L11.2085 32.3087L11.2401 32.4036ZM11.4347 32.2615L11.5154 32.3206L11.5276 32.3039L11.5322 32.2837L11.4347 32.2615ZM12.5821 27.2363L12.6041 27.1388L12.5068 27.1169L12.4846 27.2141L12.5821 27.2363ZM13.3018 27.3982L13.2798 27.4957L13.324 27.3007L13.3018 27.3982ZM12.5804 27.2335L12.483 27.2112L12.4607 27.3087L12.5582 27.331L12.5804 27.2335ZM12.6884 26.9841L12.7717 27.0404L12.7767 27.0311L12.6884 26.9841ZM12.7352 26.7626L12.6355 26.7694L12.6355 26.7694L12.7352 26.7626ZM12.644 26.5326L12.7209 26.4687L12.657 26.3918L12.5801 26.4556L12.644 26.5326ZM12.6416 26.5346L12.5648 26.5986L12.6286 26.6752L12.7054 26.6115L12.6416 26.5346ZM12.5739 26.4389L12.6601 26.3875L12.6551 26.3806L12.5739 26.4389ZM12.3544 26.1336L12.4356 26.0752L12.4356 26.0752L12.3544 26.1336ZM12.3528 26.1347L12.2715 26.193L12.2715 26.193L12.3528 26.1347ZM7.62045 19.9442L7.53039 19.9007L7.48702 19.9906L7.5768 20.0341L7.62045 19.9442ZM7.94127 19.2794L8.03133 19.3229L7.8513 19.2358L7.94127 19.2794ZM7.61829 19.9451L7.57464 20.0351L7.66461 20.0787L7.70826 19.9888L7.61829 19.9451ZM7.20128 19.2805L7.30148 19.2802L7.30106 19.2738L7.20128 19.2805ZM6.81987 13.5274L6.91965 13.5208L6.91309 13.4218L6.81411 13.4275L6.81987 13.5274ZM6.81845 13.5275L6.71866 13.5341L6.72522 13.633L6.8242 13.6273L6.81845 13.5275ZM7.50775 12.7403L7.50114 12.6405L7.50114 12.6405L7.50775 12.7403ZM9.24077 15.4545L9.30486 15.3769L9.29531 15.3707L9.24077 15.4545ZM8.39108 14.9015L8.44563 14.8177L8.27807 14.7087L8.2913 14.9081L8.39108 14.9015ZM8.65821 18.9307L8.55843 18.9374L8.56096 18.9756L8.58845 19.0024L8.65821 18.9307ZM13.555 25.2735L13.4737 25.3317L13.4738 25.3318L13.555 25.2735ZM13.5538 25.2743L13.4727 25.3328L13.4727 25.3328L13.5538 25.2743ZM13.5529 25.275L13.4717 25.3334L13.4717 25.3334L13.5529 25.275ZM13.7718 25.5796L13.6903 25.6381L13.6956 25.6444L13.7718 25.5796ZM13.7783 25.5873L13.8423 25.6642L13.92 25.5995L13.8545 25.5225L13.7783 25.5873ZM13.7777 25.5878L13.7137 25.511L13.6421 25.5706L13.6965 25.6463L13.7777 25.5878ZM13.7989 25.6174L13.7177 25.6759L13.7209 25.6799L13.7989 25.6174ZM14.2092 26.6643L14.309 26.6575L14.309 26.6575L14.2092 26.6643ZM13.9958 27.672L13.9074 27.6253L13.9013 27.6369L13.8984 27.6497L13.9958 27.672ZM12.8619 32.6382L12.7641 32.6158L12.763 32.6238L12.8619 32.6382ZM12.7913 32.863L12.7462 32.9523L12.8359 32.9975L12.8807 32.9077L12.7913 32.863ZM12.7885 32.8616L12.8335 32.7723L12.7439 32.7271L12.699 32.8169L12.7885 32.8616ZM11.7025 33.8024L11.7341 33.8972L11.7341 33.8972L11.7025 33.8024ZM10.2728 33.7001L10.3175 33.6107L10.3175 33.6107L10.2728 33.7001ZM9.332 32.6142L9.23713 32.6458L9.23713 32.6458L9.332 32.6142ZM9.38342 31.2947L9.47553 31.3337L9.47959 31.3241L9.48159 31.3138L9.38342 31.2947ZM10.1823 27.1857L10.2805 27.2048L10.2904 27.1536L10.2541 27.1162L10.1823 27.1857ZM6.60098 23.4852L6.67284 23.4157L6.63218 23.3736L6.57562 23.3885L6.60098 23.4852ZM6.59651 23.4864L6.6212 23.5833L6.62187 23.5831L6.59651 23.4864ZM6.57957 23.4907L6.55488 23.3938L6.49938 23.4079L6.4835 23.463L6.57957 23.4907ZM3.71126 33.4294L3.61473 33.4015L3.61295 33.4111L3.71126 33.4294ZM3.69859 33.4853L3.67297 33.5819L3.76947 33.6075L3.79521 33.511L3.69859 33.4853ZM3.6954 33.4844L3.72101 33.3878L3.66977 33.5811L3.6954 33.4844ZM3.69766 33.485L3.79428 33.5108L3.82014 33.414L3.7233 33.3884L3.69766 33.485ZM2.82228 34.6266L2.87233 34.7131L2.87234 34.7131L2.82228 34.6266ZM1.44195 34.8282L1.46533 34.7309L1.46146 34.7301L1.44195 34.8282ZM1.395 34.8173L1.29833 34.7918L1.27282 34.8882L1.36921 34.9139L1.395 34.8173ZM1.39525 34.8164L1.49193 34.842L1.51742 34.7455L1.42107 34.7198L1.39525 34.8164ZM0.25375 33.941L0.340321 33.8909L0.340317 33.8909L0.25375 33.941ZM0.0521082 32.5607L0.149413 32.5841L0.150166 32.5803L0.0521082 32.5607ZM0.0565315 32.5398L0.0798384 32.4426L-0.0185409 32.419L-0.040978 32.5177L0.0565315 32.5398ZM0.0572145 32.54L0.0339076 32.6372L0.12943 32.6601L0.154028 32.565L0.0572145 32.54ZM0.0639324 32.514L0.0842265 32.4161L-0.00903095 32.3968L-0.0328812 32.489L0.0639324 32.514ZM0.0640686 32.5141L0.0437745 32.612L0.139713 32.6319L0.161553 32.5364L0.0640686 32.5141ZM2.95467 19.8722L3.05236 19.8945L3.05341 19.888L2.95467 19.8722ZM2.97059 19.7975L2.99615 19.7008L2.89978 19.6754L2.87399 19.7716L2.97059 19.7975ZM2.97152 19.7978L2.94595 19.8944L3.04235 19.9199L3.06812 19.8236L2.97152 19.7978ZM2.98894 19.7438L3.08431 19.7739L3.08879 19.7597L3.08893 19.7448L2.98894 19.7438ZM3.0811 10.1176L3.18148 10.1185L3.1808 10.1098L3.0811 10.1176ZM3.60424 8.51142L3.52552 8.44975L3.52552 8.44976L3.60424 8.51142ZM4.78643 7.67621L4.81876 7.77084L4.81877 7.77084L4.78643 7.67621ZM6.22392 7.60963L6.24781 7.51253L6.2478 7.51253L6.22392 7.60963ZM7.54642 8.44722L7.46903 8.51125L7.47571 8.51793L7.54642 8.44722ZM11.1177 12.0184L11.047 12.0892L11.0836 12.1258L11.1347 12.117L11.1177 12.0184ZM14.1438 11.495L14.1609 11.5937L14.1658 11.5926L14.1438 11.495ZM14.1639 11.4907L14.2609 11.4663L14.2377 11.3741L14.1444 11.3926L14.1639 11.4907ZM14.164 11.4909L14.067 11.5153L14.0902 11.6076L14.1835 11.589L14.164 11.4909ZM16.0779 12.274L16.1618 12.2195L16.1618 12.2195L16.0779 12.274ZM16.3629 12.9724L16.2648 12.992L16.2648 12.992L16.3629 12.9724ZM16.3675 13.7256L16.2692 13.7073L16.2692 13.7074L16.3675 13.7256ZM14.9244 15.1783L14.9038 15.0804L14.9015 15.081L14.9244 15.1783ZM14.8838 15.1867L14.7853 15.2041L14.8028 15.3026L14.9013 15.2851L14.8838 15.1867ZM14.755 14.4581L14.8535 14.4407L14.6565 14.4753L14.755 14.4581ZM14.8822 15.1864L14.8996 15.2849L14.9979 15.2675L14.9807 15.1692L14.8822 15.1864ZM10.9004 15.8904L10.8829 15.7918L10.8793 15.7926L10.9004 15.8904ZM10.8115 15.9041L10.712 15.9134L10.7212 16.0129L10.8208 16.0037L10.8115 15.9041ZM10.7429 15.1674L10.8425 15.1582L10.6433 15.1765L10.7429 15.1674ZM10.8094 15.9015L10.8187 16.0011L10.918 15.9919L10.909 15.8925L10.8094 15.9015ZM10.0762 15.8631L10.0545 15.9607L10.0546 15.9607L10.0762 15.8631ZM8.00817 12.8924L7.95362 12.9763L10.028 14.3263L10.0825 14.2425L10.1371 14.1587L8.06271 12.8086L8.00817 12.8924ZM10.0825 14.2425L9.99864 14.188L9.59692 14.8065L9.68078 14.861L9.76464 14.9154L10.1664 14.297L10.0825 14.2425ZM9.68078 14.861L9.76459 14.9155L10.1682 14.2954L10.0844 14.2409L10.0006 14.1863L9.59697 14.8064L9.68078 14.861ZM10.0844 14.2409L10.0298 14.3247C10.066 14.3483 10.099 14.3749 10.1288 14.404L10.1987 14.3324L10.2686 14.2609C10.2296 14.2228 10.1863 14.1879 10.1389 14.1571L10.0844 14.2409ZM10.1987 14.3324L10.1383 14.4122C10.2163 14.4712 10.2962 14.5045 10.3725 14.5214L10.3941 14.4238L10.4158 14.3262C10.3658 14.3151 10.3127 14.2933 10.259 14.2527L10.1987 14.3324ZM10.3941 14.4238L10.3725 14.5215C10.4605 14.5409 10.552 14.5419 10.6328 14.537L10.6268 14.4372L10.6207 14.3374C10.549 14.3418 10.4782 14.34 10.4157 14.3262L10.3941 14.4238ZM10.6268 14.4372L10.6442 14.5357L14.6279 13.8313L14.6105 13.7328L14.5931 13.6344L10.6093 14.3387L10.6268 14.4372ZM14.6105 13.7328L14.7092 13.7167L14.7092 13.7165L14.6105 13.7327L14.5118 13.7488L14.5118 13.749L14.6105 13.7328ZM14.6105 13.7327L14.63 13.8308C14.8522 13.7865 14.9838 13.6462 15.015 13.478L14.9167 13.4597L14.8184 13.4415C14.8038 13.5203 14.7422 13.6045 14.591 13.6346L14.6105 13.7327ZM14.9167 13.4597L15.015 13.478C15.029 13.4028 15.0261 13.3218 15.0102 13.2419L14.9121 13.2615L14.814 13.281C14.826 13.341 14.8269 13.3959 14.8184 13.4415L14.9167 13.4597ZM14.9121 13.2615L15.0102 13.2419C14.9943 13.1622 14.9662 13.0865 14.9248 13.0229L14.841 13.0775L14.7572 13.132C14.782 13.1701 14.802 13.2208 14.814 13.281L14.9121 13.2615ZM14.841 13.0775L14.9248 13.0229C14.8313 12.8792 14.6558 12.7994 14.4334 12.8437L14.4529 12.9417L14.4725 13.0398C14.6234 13.0098 14.713 13.064 14.7572 13.132L14.841 13.0775ZM14.4529 12.9417L14.551 12.9222L14.4065 12.1968L14.3084 12.2163L14.2103 12.2359L14.3549 12.9613L14.4529 12.9417ZM14.3084 12.2163L14.2103 12.2359L14.3549 12.9615L14.4529 12.942L14.551 12.9224L14.4065 12.1968L14.3084 12.2163ZM14.4529 12.942L14.4334 12.8439C14.4167 12.8472 14.4 12.8498 14.3832 12.8518L14.3951 12.9511L14.4069 13.0504C14.4286 13.0478 14.4505 13.0444 14.4725 13.04L14.4529 12.942ZM14.3951 12.9511L14.378 12.8526L10.9739 13.4415L10.9909 13.54L11.008 13.6385L14.4121 13.0497L14.3951 12.9511ZM10.9909 13.54L10.8922 13.556L10.8924 13.557L10.9911 13.541L11.0898 13.525L11.0896 13.524L10.9909 13.54ZM10.9911 13.541L10.974 13.4425C10.7565 13.4801 10.5456 13.4032 10.403 13.2549L10.3309 13.3242L10.2588 13.3934C10.4454 13.5876 10.7224 13.689 11.0081 13.6395L10.9911 13.541ZM10.3309 13.3242L10.4016 13.2534L6.56071 9.41256L6.49 9.48327L6.41929 9.55399L10.2602 13.3949L10.3309 13.3242ZM6.49 9.48327L6.41929 9.41256L6.41923 9.41262L6.48994 9.48333L6.56065 9.55404L6.56071 9.55398L6.49 9.48327ZM6.48994 9.48333L6.56065 9.41262C6.53133 9.3833 6.50553 9.35187 6.4831 9.31881L6.40034 9.37494L6.31759 9.43108C6.34699 9.47443 6.38083 9.51564 6.41923 9.55404L6.48994 9.48333ZM6.40034 9.37494L6.47639 9.31C6.31195 9.11745 6.1086 8.99853 5.89519 8.94605L5.87131 9.04315L5.84743 9.14026C6.02042 9.1828 6.1872 9.27934 6.3243 9.43988L6.40034 9.37494ZM5.87131 9.04315L5.89518 8.94604C5.67487 8.89188 5.44201 8.90729 5.22803 8.98042L5.26038 9.07505L5.29272 9.16967C5.47344 9.1079 5.66724 9.09596 5.84743 9.14026L5.87131 9.04315ZM5.26038 9.07505L5.22805 8.98042C5.01659 9.05266 4.82545 9.18098 4.68735 9.35727L4.76607 9.41894L4.84479 9.4806C4.95673 9.33771 5.11426 9.23064 5.29271 9.16968L5.26038 9.07505ZM4.76607 9.41894L4.68735 9.35727C4.54475 9.53931 4.45856 9.77749 4.45856 10.0593H4.55856H4.65856C4.65856 9.81965 4.7313 9.62549 4.8448 9.4806L4.76607 9.41894ZM4.55856 10.0593H4.45856C4.45856 10.0804 4.45752 10.1013 4.45551 10.1219L4.55504 10.1316L4.65457 10.1413C4.6572 10.1143 4.65856 10.087 4.65856 10.0593H4.55856ZM4.55504 10.1316L4.45504 10.1307L4.36307 19.7372L4.46306 19.7381L4.56306 19.7391L4.65503 10.1326L4.55504 10.1316ZM4.46306 19.7381L4.36321 19.7436C4.36396 19.7572 4.36441 19.7705 4.36467 19.7835L4.46465 19.7816L4.56463 19.7796C4.56434 19.7646 4.56381 19.7489 4.56291 19.7327L4.46306 19.7381ZM4.46465 19.7816V19.8816H4.46549V19.7816V19.6816H4.46465V19.7816ZM4.46549 19.7816L4.3655 19.7805C4.36543 19.7868 4.36525 19.7933 4.36497 19.8001L4.46489 19.8041L4.56481 19.8081C4.56514 19.7999 4.56539 19.7914 4.56549 19.7826L4.46549 19.7816ZM4.46489 19.8041L4.36489 19.8041C4.36497 19.9384 4.3392 20.0258 4.30924 20.1241L4.4049 20.1533L4.50056 20.1824C4.53176 20.08 4.56498 19.9692 4.56489 19.804L4.46489 19.8041ZM4.4049 20.1533L4.37976 20.2501L4.37987 20.2501L4.40501 20.1533L4.43015 20.0565L4.43004 20.0565L4.4049 20.1533ZM4.40501 20.1533L4.30734 20.1318L4.30709 20.133L4.40476 20.1544L4.50243 20.1759L4.50268 20.1748L4.40501 20.1533ZM4.40476 20.1544L4.49923 20.1872C4.50035 20.184 4.49893 20.1886 4.49632 20.194C4.49574 20.1953 4.49463 20.1975 4.49305 20.2003C4.49199 20.2022 4.48831 20.2086 4.48216 20.2158C4.47919 20.2192 4.47257 20.2265 4.46228 20.2335C4.45302 20.2398 4.4297 20.2532 4.3971 20.2502C4.35972 20.2468 4.33558 20.2245 4.32367 20.207C4.31331 20.1918 4.30981 20.1776 4.30856 20.1718C4.30591 20.1596 4.3063 20.1497 4.30637 20.1475C4.3065 20.1438 4.30682 20.1408 4.30699 20.1393C4.30735 20.1363 4.30777 20.134 4.30789 20.1334C4.30824 20.1316 4.30755 20.135 4.3026 20.1535L4.39922 20.1793L4.49583 20.2051C4.49995 20.1897 4.50307 20.1777 4.50445 20.1704C4.50469 20.1691 4.50519 20.1663 4.5056 20.1629C4.5058 20.1612 4.50613 20.1581 4.50626 20.1542C4.50634 20.1519 4.50672 20.1419 4.50406 20.1296C4.50281 20.1238 4.4993 20.1096 4.48893 20.0944C4.477 20.0769 4.45285 20.0545 4.41545 20.0511C4.38284 20.0481 4.35951 20.0616 4.35022 20.0678C4.33991 20.0748 4.33328 20.0821 4.33028 20.0856C4.32408 20.0929 4.32036 20.0994 4.31924 20.1014C4.3176 20.1042 4.31643 20.1066 4.31577 20.108C4.31358 20.1126 4.31209 20.1167 4.31181 20.1174C4.3112 20.119 4.31067 20.1206 4.31029 20.1216L4.40476 20.1544ZM4.39922 20.1793L4.41951 20.0814L4.41938 20.0814L4.39908 20.1793L4.37879 20.2772L4.37892 20.2772L4.39922 20.1793ZM4.39908 20.1793V20.0793H4.39905V20.1793V20.2793H4.39908V20.1793ZM4.39905 20.1793L4.37241 20.2757L4.3735 20.276L4.40015 20.1796L4.42679 20.0832L4.4257 20.0829L4.39905 20.1793ZM4.40015 20.1796L4.30352 20.1538C4.30202 20.1595 4.30033 20.1653 4.2984 20.1718L4.39425 20.2003L4.49009 20.2288C4.49226 20.2215 4.49456 20.2136 4.49677 20.2053L4.40015 20.1796ZM4.39425 20.2003L4.29676 20.178L1.41116 32.7981L1.50864 32.8204L1.60613 32.8427L4.49173 20.2226L4.39425 20.2003ZM1.50864 32.8204L1.40985 32.8049C1.40527 32.8341 1.39872 32.8627 1.39033 32.8903L1.48603 32.9193L1.58174 32.9483C1.59279 32.9118 1.60142 32.8743 1.60744 32.8359L1.50864 32.8204ZM1.48603 32.9193L1.38807 32.8992C1.36248 33.024 1.38515 33.1484 1.44458 33.2512L1.53114 33.2011L1.61771 33.1511C1.58228 33.0898 1.56846 33.0152 1.58399 32.9394L1.48603 32.9193ZM1.53114 33.2011L1.44457 33.2512C1.50417 33.3543 1.60074 33.4364 1.72171 33.4766L1.75321 33.3817L1.78472 33.2867C1.71153 33.2625 1.65353 33.213 1.61772 33.1511L1.53114 33.2011ZM1.75321 33.3817L1.73073 33.4791C1.74446 33.4823 1.75809 33.4859 1.77152 33.49L1.80057 33.3943L1.82961 33.2986C1.81191 33.2932 1.79392 33.2884 1.7757 33.2842L1.75321 33.3817ZM1.80057 33.3943L1.78044 33.4922C1.9052 33.5179 2.02965 33.4952 2.13243 33.4358L2.08238 33.3492L2.03234 33.2626C1.97099 33.2981 1.89637 33.3119 1.82069 33.2963L1.80057 33.3943ZM2.08238 33.3492L2.13244 33.4358C2.24376 33.3714 2.3306 33.2639 2.36655 33.1294L2.26993 33.1036L2.17332 33.0777C2.15149 33.1595 2.09916 33.224 2.03233 33.2626L2.08238 33.3492ZM2.26993 33.1036L2.2955 33.0069L2.29457 33.0066L2.26901 33.1033L2.24344 33.2L2.24437 33.2002L2.26993 33.1036ZM2.26901 33.1033L2.36562 33.1291C2.37213 33.1047 2.38003 33.081 2.38913 33.058L2.29615 33.0212L2.20317 32.9844C2.1913 33.0144 2.18095 33.0455 2.1724 33.0775L2.26901 33.1033ZM2.29615 33.0212L2.39223 33.0489L5.3921 22.6544L5.29602 22.6267L5.19994 22.599L2.20007 32.9935L2.29615 33.0212ZM5.29602 22.6267L5.26855 22.7228L5.97661 22.9251L6.00409 22.829L6.03156 22.7328L5.32349 22.5305L5.29602 22.6267ZM6.00409 22.829L6.03181 22.7329L5.32096 22.5277L5.29323 22.6238L5.2655 22.7199L5.97636 22.9251L6.00409 22.829ZM5.29323 22.6238L5.38931 22.6516C5.47299 22.3616 5.74407 22.1763 6.03301 22.1897L6.03762 22.0898L6.04223 21.9899C5.663 21.9724 5.30708 22.2152 5.19715 22.5961L5.29323 22.6238ZM6.03762 22.0898L6.04465 22.1895C6.11488 22.1846 6.18415 22.173 6.25165 22.1555L6.22659 22.0587L6.20153 21.9619C6.14538 21.9764 6.08816 21.986 6.03059 21.99L6.03762 22.0898ZM6.22659 22.0587L6.25166 22.1555C6.336 22.1337 6.41825 22.1012 6.49685 22.0598L6.45024 21.9713L6.40363 21.8828C6.33773 21.9175 6.26989 21.9442 6.20152 21.9619L6.22659 22.0587ZM6.45024 21.9713L6.5387 21.9247L6.53791 21.9232L6.44945 21.9698L6.36099 22.0164L6.36179 22.0179L6.45024 21.9713ZM6.44945 21.9698L6.49609 22.0583C6.76863 21.9146 7.09801 21.9872 7.28705 22.2156L7.36408 22.1518L7.44111 22.0881C7.19294 21.7883 6.76081 21.6926 6.40281 21.8813L6.44945 21.9698ZM7.36408 22.1518L7.29222 22.2214L11.4376 26.5048L11.5095 26.4352L11.5813 26.3657L7.43594 22.0823L7.36408 22.1518ZM11.5095 26.4352L11.4397 26.3635L10.9108 26.878L10.9806 26.9497L11.0503 27.0213L11.5792 26.5069L11.5095 26.4352ZM10.9806 26.9497L11.0501 27.0215L11.5818 26.507L11.5122 26.4351L11.4427 26.3633L10.911 26.8778L10.9806 26.9497ZM11.5122 26.4351L11.4404 26.5047C11.601 26.6706 11.6539 26.9012 11.6001 27.1101L11.6969 27.135L11.7937 27.16C11.8642 26.8866 11.7951 26.5836 11.5841 26.3656L11.5122 26.4351ZM11.6969 27.135L11.5987 27.1159L10.7204 31.6336L10.8186 31.6526L10.9168 31.6717L11.7951 27.1541L11.6969 27.135ZM10.8186 31.6526L10.8374 31.5544L10.112 31.4157L10.0932 31.5139L10.0744 31.6121L10.7998 31.7509L10.8186 31.6526ZM10.0932 31.5139L10.0741 31.6121L10.8004 31.7533L10.8195 31.6551L10.8386 31.557L10.1123 31.4158L10.0932 31.5139ZM10.8195 31.6551L10.7213 31.636C10.7075 31.707 10.6825 31.7727 10.6487 31.832L10.7354 31.8816L10.8222 31.9313C10.8668 31.8534 10.8996 31.767 10.9176 31.6742L10.8195 31.6551ZM10.7354 31.8816L10.6419 31.8464C10.6 31.9577 10.6003 32.0766 10.636 32.1834L10.7308 32.1518L10.8257 32.1201C10.804 32.055 10.804 31.9834 10.829 31.9168L10.7354 31.8816ZM10.7308 32.1518L10.636 32.1834C10.6762 32.3043 10.7634 32.4099 10.887 32.4717L10.9317 32.3823L10.9765 32.2928C10.9016 32.2554 10.8497 32.1921 10.8257 32.1201L10.7308 32.1518ZM10.9317 32.3823L10.887 32.4717C11.0112 32.5338 11.1494 32.5392 11.2717 32.4984L11.2401 32.4036L11.2085 32.3087C11.1339 32.3336 11.0508 32.33 10.9765 32.2928L10.9317 32.3823ZM11.2401 32.4036L11.2717 32.4984C11.367 32.4667 11.453 32.4058 11.5154 32.3206L11.4347 32.2615L11.3541 32.2023C11.3166 32.2534 11.2653 32.2898 11.2085 32.3087L11.2401 32.4036ZM11.4347 32.2615L11.5322 32.2837L12.6796 27.2586L12.5821 27.2363L12.4846 27.2141L11.3373 32.2392L11.4347 32.2615ZM12.5821 27.2363L12.5602 27.3339L13.2798 27.4957L13.3018 27.3982L13.3237 27.3006L12.6041 27.1388L12.5821 27.2363ZM13.3018 27.3982L13.324 27.3007L12.6027 27.136L12.5804 27.2335L12.5582 27.331L13.2795 27.4957L13.3018 27.3982ZM12.5804 27.2335L12.6779 27.2557C12.6961 27.1762 12.7283 27.1037 12.7713 27.0401L12.6884 26.9841L12.6055 26.9282C12.549 27.0118 12.5067 27.1071 12.483 27.2112L12.5804 27.2335ZM12.6884 26.9841L12.7767 27.0311C12.8219 26.9462 12.8415 26.8505 12.835 26.7557L12.7352 26.7626L12.6355 26.7694C12.6395 26.8277 12.6273 26.886 12.6001 26.9371L12.6884 26.9841ZM12.7352 26.7626L12.835 26.7558C12.828 26.6536 12.7906 26.5526 12.7209 26.4687L12.644 26.5326L12.567 26.5965C12.6084 26.6463 12.6312 26.7068 12.6355 26.7694L12.7352 26.7626ZM12.644 26.5326L12.5801 26.4556L12.5777 26.4576L12.6416 26.5346L12.7054 26.6115L12.7078 26.6095L12.644 26.5326ZM12.6416 26.5346L12.7184 26.4705C12.6964 26.4441 12.6769 26.4164 12.6597 26.3877L12.5739 26.4389L12.488 26.4902C12.5103 26.5276 12.5358 26.5639 12.5648 26.5986L12.6416 26.5346ZM12.5739 26.4389L12.6551 26.3806L12.4356 26.0752L12.3544 26.1336L12.2732 26.1919L12.4927 26.4973L12.5739 26.4389ZM12.3528 26.1347L12.2715 26.193C12.3477 26.2993 12.3857 26.3523 12.3963 26.367C12.3976 26.3689 12.3985 26.3701 12.399 26.3707C12.3992 26.3711 12.3993 26.3712 12.3992 26.3711C12.3991 26.3709 12.4222 26.232 12.5612 26.2538C12.5615 26.2542 12.5618 26.2546 12.5618 26.2546C12.5618 26.2546 12.5618 26.2546 12.5617 26.2545C12.5611 26.2537 12.559 26.2507 12.5554 26.2457C12.5483 26.2358 12.5357 26.2182 12.5189 26.1948C12.4516 26.101 12.3176 25.9141 12.203 25.7541C12.1456 25.674 12.0931 25.6007 12.0563 25.5491C12.0378 25.5233 12.0233 25.503 12.0141 25.49C12.0094 25.4834 12.0062 25.479 12.0046 25.4766C12.0042 25.476 12.0039 25.4757 12.0039 25.4756C12.0038 25.4755 12.0039 25.4756 12.004 25.4759C12.004 25.4759 12.0046 25.4767 12.0054 25.4779C12.0059 25.4787 12.0074 25.4813 12.0085 25.4831C12.0116 25.4892 12.0001 25.5927 11.9097 25.6309C11.8781 25.6219 11.8484 25.6003 11.8457 25.5974C11.8448 25.5963 11.8433 25.5945 11.8429 25.594C11.8421 25.593 11.8416 25.5924 11.8416 25.5923C11.8415 25.5922 11.8414 25.5921 11.8415 25.5922C11.8423 25.5933 11.8448 25.5967 11.8496 25.6034C11.8543 25.6098 11.8608 25.6188 11.8693 25.6306C11.8863 25.6541 11.9113 25.6888 11.9455 25.7363C12.014 25.8315 12.1197 25.9783 12.2732 26.1919L12.3544 26.1336L12.4356 26.0752C12.282 25.8616 12.1764 25.7147 12.1078 25.6195C12.0736 25.5719 12.0486 25.5372 12.0315 25.5135C12.0229 25.5017 12.0163 25.4926 12.0116 25.486C12.007 25.4796 12.0036 25.4751 12.0019 25.4728C12.0017 25.4724 12.0014 25.472 12.001 25.4716C12.0008 25.4713 12.0001 25.4704 11.9993 25.4693C11.9988 25.4687 11.9973 25.4669 11.9963 25.4657C11.9936 25.4628 11.9638 25.4412 11.9323 25.4322C11.8419 25.4703 11.8304 25.5738 11.8335 25.58C11.8346 25.5819 11.8361 25.5845 11.8367 25.5853C11.8375 25.5867 11.8383 25.5877 11.8384 25.588C11.8388 25.5885 11.8391 25.5889 11.8393 25.5893C11.8398 25.59 11.8403 25.5907 11.8408 25.5915C11.8429 25.5945 11.8465 25.5994 11.8511 25.606C11.8605 25.6191 11.8751 25.6396 11.8936 25.6654C11.9305 25.7171 11.983 25.7905 12.0404 25.8705C12.1551 26.0306 12.2891 26.2176 12.3563 26.3113C12.3731 26.3347 12.3858 26.3524 12.3929 26.3623C12.3964 26.3672 12.3986 26.3703 12.3993 26.3712C12.3993 26.3713 12.3994 26.3714 12.3995 26.3715C12.3996 26.3716 12.3999 26.372 12.4002 26.3724C12.5391 26.3943 12.5623 26.2553 12.5621 26.2551C12.562 26.2549 12.5617 26.2545 12.5615 26.2543C12.5611 26.2536 12.5602 26.2523 12.5588 26.2505C12.5483 26.2358 12.5103 26.1827 12.434 26.0764L12.3528 26.1347ZM12.3528 26.1347L12.434 26.0764C11.7987 25.1905 10.7274 23.6966 9.7587 22.3969C9.27442 21.7471 8.81513 21.145 8.44846 20.6913C8.26522 20.4646 8.10422 20.2739 7.97429 20.1324C7.90938 20.0618 7.85124 20.0023 7.80127 19.9565C7.75335 19.9125 7.70621 19.8746 7.6641 19.8542L7.62045 19.9442L7.5768 20.0341C7.59085 20.041 7.61989 20.0615 7.66606 20.1038C7.71019 20.1443 7.76407 20.1992 7.827 20.2677C7.95275 20.4046 8.11072 20.5916 8.29291 20.817C8.6571 21.2676 9.11453 21.8673 9.59834 22.5164C10.5658 23.8144 11.636 25.3068 12.2715 26.193L12.3528 26.1347ZM7.62045 19.9442L7.71051 19.9876L8.03133 19.3229L7.94127 19.2794L7.85121 19.236L7.53039 19.9007L7.62045 19.9442ZM7.94127 19.2794L7.8513 19.2358L7.52833 19.9015L7.61829 19.9451L7.70826 19.9888L8.03124 19.3231L7.94127 19.2794ZM7.61829 19.9451L7.66194 19.8551C7.43457 19.7448 7.30177 19.5175 7.30128 19.2802L7.20128 19.2805L7.10128 19.2807C7.10193 19.5914 7.27586 19.8901 7.57464 20.0351L7.61829 19.9451ZM7.20128 19.2805L7.30106 19.2738L6.91965 13.5208L6.81987 13.5274L6.72008 13.534L7.1015 19.2871L7.20128 19.2805ZM6.81987 13.5274L6.81411 13.4275L6.81269 13.4276L6.81845 13.5275L6.8242 13.6273L6.82562 13.6272L6.81987 13.5274ZM6.81845 13.5275L6.91823 13.5208C6.89487 13.1682 7.16177 12.8634 7.51436 12.8401L7.50775 12.7403L7.50114 12.6405C7.03831 12.6712 6.68801 13.0713 6.71866 13.5341L6.81845 13.5275ZM7.50775 12.7403L7.51436 12.8401C7.67628 12.8293 7.82791 12.8797 7.94711 12.9716L8.00817 12.8924L8.06923 12.8133C7.91294 12.6928 7.71356 12.6264 7.50114 12.6405L7.50775 12.7403ZM9.24077 15.4545L9.29531 15.3707L8.44563 14.8177L8.39108 14.9015L8.33653 14.9853L9.18622 15.5383L9.24077 15.4545ZM8.39108 14.9015L8.2913 14.9081L8.55843 18.9374L8.65821 18.9307L8.75799 18.9241L8.49086 14.8949L8.39108 14.9015ZM8.65821 18.9307L8.58845 19.0024C9.15871 19.5575 10.0859 20.729 11.0207 21.9717C11.9538 23.2122 12.8889 24.5162 13.4737 25.3317L13.555 25.2735L13.6363 25.2152C13.0516 24.3998 12.1152 23.094 11.1806 21.8515C10.2477 20.6114 9.31127 19.4269 8.72796 18.8591L8.65821 18.9307ZM13.555 25.2735L13.4738 25.3318C13.5576 25.4487 13.6115 25.5239 13.6421 25.5667C13.6574 25.5882 13.6668 25.6013 13.6711 25.6074C13.6722 25.609 13.6729 25.6099 13.6731 25.6102C13.6733 25.6106 13.673 25.6101 13.6725 25.6094C13.6724 25.6092 13.6721 25.6087 13.6718 25.6082C13.6715 25.6078 13.6708 25.6067 13.6699 25.6052C13.6694 25.6044 13.6683 25.6023 13.6676 25.6011C13.6665 25.5989 13.6635 25.5922 13.6617 25.5876C13.6578 25.5731 13.6762 25.4942 13.7321 25.4573C13.7709 25.4555 13.8147 25.4734 13.8216 25.4788C13.8242 25.4812 13.8281 25.485 13.8294 25.4864C13.8302 25.4873 13.8315 25.4887 13.832 25.4893C13.833 25.4905 13.8337 25.4914 13.834 25.4918C13.8347 25.4926 13.8351 25.4932 13.8352 25.4933C13.8355 25.4936 13.8355 25.4937 13.8353 25.4934C13.8349 25.4929 13.8342 25.492 13.8331 25.4905C13.8152 25.466 13.7313 25.3497 13.6349 25.2159L13.5538 25.2743L13.4727 25.3328C13.5687 25.4661 13.6532 25.5833 13.6717 25.6085C13.6729 25.6101 13.6739 25.6116 13.6747 25.6127C13.6751 25.6132 13.6757 25.6139 13.6763 25.6147C13.6765 25.615 13.6771 25.6158 13.6778 25.6167C13.6782 25.6171 13.679 25.6181 13.68 25.6193C13.6805 25.6199 13.6819 25.6214 13.6827 25.6223C13.684 25.6237 13.6878 25.6275 13.6905 25.6299C13.6974 25.6354 13.7412 25.6533 13.7799 25.6515C13.8359 25.6146 13.8543 25.5357 13.8504 25.5211C13.8486 25.5165 13.8455 25.5098 13.8444 25.5076C13.8438 25.5064 13.8426 25.5043 13.8421 25.5035C13.8406 25.501 13.8393 25.499 13.8392 25.4989C13.8385 25.4978 13.8378 25.4968 13.8375 25.4964C13.8367 25.4952 13.8357 25.4937 13.8345 25.4921C13.8298 25.4853 13.8201 25.4718 13.8048 25.4504C13.7741 25.4074 13.7202 25.3321 13.6363 25.2152L13.555 25.2735ZM13.5529 25.275L13.4717 25.3334L13.6906 25.6379L13.7718 25.5796L13.853 25.5212L13.6341 25.2166L13.5529 25.275ZM13.7718 25.5796L13.6956 25.6444L13.7022 25.6521L13.7783 25.5873L13.8545 25.5225L13.8479 25.5148L13.7718 25.5796ZM13.7783 25.5873L13.7144 25.5104L13.7137 25.511L13.7777 25.5878L13.8416 25.6647L13.8423 25.6642L13.7783 25.5873ZM13.7777 25.5878L13.6965 25.6463L13.7178 25.6758L13.7989 25.6174L13.8801 25.5589L13.8588 25.5294L13.7777 25.5878ZM13.7989 25.6174L13.7209 25.6799C13.9575 25.9747 14.0854 26.3213 14.1094 26.6712L14.2092 26.6643L14.309 26.6575C14.2822 26.268 14.1397 25.8822 13.8769 25.5548L13.7989 25.6174ZM14.2092 26.6643L14.1094 26.6711C14.1319 26.9988 14.0633 27.3304 13.9074 27.6253L13.9958 27.672L14.0843 27.7187C14.2577 27.3906 14.3339 27.0219 14.309 26.6575L14.2092 26.6643ZM13.9958 27.672L13.8984 27.6497L12.7644 32.6159L12.8619 32.6382L12.9594 32.6604L14.0933 27.6943L13.9958 27.672ZM12.8619 32.6382L12.763 32.6238C12.7534 32.6897 12.7333 32.7553 12.7018 32.8183L12.7913 32.863L12.8807 32.9077C12.9219 32.8253 12.9483 32.7392 12.9609 32.6525L12.8619 32.6382ZM12.7913 32.863L12.8364 32.7737L12.8335 32.7723L12.7885 32.8616L12.7434 32.9509L12.7462 32.9523L12.7913 32.863ZM12.7885 32.8616L12.699 32.8169C12.4799 33.2552 12.1032 33.5634 11.6709 33.7075L11.7025 33.8024L11.7341 33.8972C12.2146 33.7371 12.634 33.3941 12.8779 32.9063L12.7885 32.8616ZM11.7025 33.8024L11.6709 33.7075C11.2409 33.8508 10.7559 33.8299 10.3175 33.6107L10.2728 33.7001L10.2281 33.7896C10.7157 34.0334 11.2557 34.0567 11.7341 33.8972L11.7025 33.8024ZM10.2728 33.7001L10.3175 33.6107C9.87922 33.3915 9.57096 33.0149 9.42687 32.5826L9.332 32.6142L9.23713 32.6458C9.39726 33.1262 9.74029 33.5457 10.2281 33.7896L10.2728 33.7001ZM9.332 32.6142L9.42687 32.5826C9.29485 32.1864 9.30226 31.7436 9.47553 31.3337L9.38342 31.2947L9.29131 31.2558C9.09844 31.7121 9.09028 32.2051 9.23713 32.6458L9.332 32.6142ZM9.38342 31.2947L9.48159 31.3138L10.2805 27.2048L10.1823 27.1857L10.0841 27.1666L9.28526 31.2757L9.38342 31.2947ZM10.1823 27.1857L10.2541 27.1162L6.67284 23.4157L6.60098 23.4852L6.52912 23.5547L10.1104 27.2552L10.1823 27.1857ZM6.60098 23.4852L6.57562 23.3885L6.57114 23.3897L6.59651 23.4864L6.62187 23.5831L6.62635 23.5819L6.60098 23.4852ZM6.59651 23.4864L6.57181 23.3895L6.55488 23.3938L6.57957 23.4907L6.60427 23.5876L6.6212 23.5833L6.59651 23.4864ZM6.57957 23.4907L6.4835 23.463L3.61518 33.4016L3.71126 33.4294L3.80734 33.4571L6.67565 23.5184L6.57957 23.4907ZM3.71126 33.4294L3.61295 33.4111C3.60997 33.4271 3.6063 33.4433 3.60197 33.4595L3.69859 33.4853L3.79521 33.511C3.80082 33.49 3.80562 33.4689 3.80957 33.4477L3.71126 33.4294ZM3.69859 33.4853L3.72421 33.3886L3.72101 33.3878L3.6954 33.4844L3.66978 33.5811L3.67297 33.5819L3.69859 33.4853ZM3.6954 33.4844L3.66977 33.5811L3.67203 33.5817L3.69766 33.485L3.7233 33.3884L3.72103 33.3878L3.6954 33.4844ZM3.69766 33.485L3.60105 33.4592C3.47435 33.9334 3.16705 34.3117 2.77223 34.54L2.82228 34.6266L2.87234 34.7131C3.31111 34.4594 3.6533 34.0385 3.79428 33.5108L3.69766 33.485ZM2.82228 34.6266L2.77223 34.54C2.38906 34.7615 1.9251 34.8415 1.46531 34.731L1.44195 34.8282L1.41858 34.9254C1.93035 35.0484 2.44669 34.9592 2.87233 34.7131L2.82228 34.6266ZM1.44195 34.8282L1.46146 34.7301C1.44779 34.7274 1.43425 34.7243 1.4208 34.7207L1.395 34.8173L1.36921 34.9139C1.38705 34.9187 1.4048 34.9228 1.42243 34.9263L1.44195 34.8282ZM1.395 34.8173L1.49168 34.8429L1.49193 34.842L1.39525 34.8164L1.29857 34.7908L1.29833 34.7918L1.395 34.8173ZM1.39525 34.8164L1.42107 34.7198C0.94678 34.593 0.568607 34.2858 0.340321 33.8909L0.25375 33.941L0.167179 33.991C0.420877 34.4298 0.841737 34.772 1.36943 34.913L1.39525 34.8164ZM0.25375 33.941L0.340317 33.8909C0.118795 33.5079 0.0388697 33.0439 0.149341 32.5841L0.0521082 32.5607L-0.0451251 32.5374C-0.168082 33.0492 -0.078917 33.5655 0.167182 33.991L0.25375 33.941ZM0.0521082 32.5607L0.150166 32.5803C0.151469 32.5738 0.152726 32.5678 0.154041 32.562L0.0565315 32.5398L-0.040978 32.5177C-0.0428305 32.5258 -0.0444673 32.5337 -0.0459499 32.5411L0.0521082 32.5607ZM0.0565315 32.5398L0.0332246 32.6371L0.0339076 32.6372L0.0572145 32.54L0.0805214 32.4428L0.0798384 32.4426L0.0565315 32.5398ZM0.0572145 32.54L0.154028 32.565L0.160746 32.5391L0.0639324 32.514L-0.0328812 32.489L-0.0395991 32.515L0.0572145 32.54ZM0.0639324 32.514L0.0436383 32.612L0.0437745 32.612L0.0640686 32.5141L0.0843627 32.4161L0.0842265 32.4161L0.0639324 32.514ZM0.0640686 32.5141L0.161553 32.5364L3.05215 19.8945L2.95467 19.8722L2.85718 19.8499L-0.0334155 32.4918L0.0640686 32.5141ZM2.95467 19.8722L3.05341 19.888C3.05687 19.8664 3.06143 19.8449 3.06718 19.8234L2.97059 19.7975L2.87399 19.7716C2.86642 19.7999 2.86044 19.8282 2.85592 19.8564L2.95467 19.8722ZM2.97059 19.7975L2.94502 19.8942L2.94595 19.8944L2.97152 19.7978L2.99708 19.7011L2.99615 19.7008L2.97059 19.7975ZM2.97152 19.7978L3.06812 19.8236C3.07104 19.8127 3.07201 19.81 3.07316 19.8068C3.07533 19.8008 3.07852 19.7923 3.08431 19.7739L2.98894 19.7438L2.89357 19.7138C2.88907 19.728 2.88709 19.7332 2.8849 19.7393C2.88168 19.7483 2.8791 19.7563 2.87491 19.7719L2.97152 19.7978ZM2.98894 19.7438L3.08893 19.7448L3.1811 10.1185L3.0811 10.1176L2.98111 10.1166L2.88894 19.7429L2.98894 19.7438ZM3.0811 10.1176L3.1808 10.1098C3.17949 10.093 3.17881 10.0762 3.17881 10.0592H3.07881H2.97881C2.97881 10.0816 2.97971 10.1036 2.98141 10.1253L3.0811 10.1176ZM3.07881 10.0592H3.17881C3.17881 9.47323 3.37204 8.97003 3.68297 8.57309L3.60424 8.51142L3.52552 8.44976C3.18788 8.88079 2.97881 9.42714 2.97881 10.0592H3.07881ZM3.60424 8.51142L3.68296 8.57309C3.9786 8.19571 4.37862 7.92123 4.81876 7.77084L4.78643 7.67621L4.7541 7.58158C4.27898 7.74392 3.84612 8.04051 3.52552 8.44975L3.60424 8.51142ZM4.78643 7.67621L4.81877 7.77084C5.25658 7.62121 5.7385 7.59324 6.20004 7.70674L6.22392 7.60963L6.2478 7.51253C5.74766 7.38954 5.22673 7.42006 4.75409 7.58158L4.78643 7.67621ZM6.22392 7.60963L6.20004 7.70674C6.66969 7.82225 7.11517 8.08284 7.46937 8.51097L7.54642 8.44722L7.62347 8.38348C7.24106 7.92126 6.75785 7.63798 6.24781 7.51253L6.22392 7.60963ZM7.54642 8.44722L7.47571 8.51793L11.047 12.0892L11.1177 12.0184L11.1884 11.9477L7.61713 8.37651L7.54642 8.44722ZM11.1177 12.0184L11.1347 12.117L14.1608 11.5935L14.1438 11.495L14.1268 11.3965L11.1006 11.9199L11.1177 12.0184ZM14.1438 11.495L14.1658 11.5926C14.1722 11.5911 14.1779 11.5899 14.1834 11.5888L14.1639 11.4907L14.1444 11.3926C14.1364 11.3942 14.1287 11.3959 14.1218 11.3975L14.1438 11.495ZM14.1639 11.4907L14.0669 11.5151L14.067 11.5153L14.164 11.4909L14.2609 11.4665L14.2609 11.4663L14.1639 11.4907ZM14.164 11.4909L14.1835 11.589C15.0142 11.4235 15.6377 11.7808 15.9941 12.3285L16.0779 12.274L16.1618 12.2195C15.7651 11.61 15.0631 11.2099 14.1444 11.3928L14.164 11.4909ZM16.0779 12.274L15.9941 12.3285C16.1272 12.5332 16.2187 12.7605 16.2648 12.992L16.3629 12.9724L16.461 12.9529C16.4099 12.6966 16.3088 12.4456 16.1618 12.2195L16.0779 12.274ZM16.3629 12.9724L16.2648 12.992C16.3109 13.2234 16.3137 13.4681 16.2692 13.7073L16.3675 13.7256L16.4659 13.7439C16.515 13.4794 16.512 13.2091 16.461 12.9529L16.3629 12.9724ZM16.3675 13.7256L16.2692 13.7074C16.1509 14.3446 15.7189 14.909 14.9038 15.0804L14.9244 15.1783L14.945 15.2762C15.8473 15.0863 16.3343 14.4525 16.4659 13.7439L16.3675 13.7256ZM14.9244 15.1783L14.9015 15.081C14.8899 15.0837 14.8782 15.0861 14.8663 15.0882L14.8838 15.1867L14.9013 15.2851C14.9168 15.2824 14.9321 15.2792 14.9472 15.2757L14.9244 15.1783ZM14.8838 15.1867L14.9823 15.1693L14.8535 14.4407L14.755 14.4581L14.6565 14.4755L14.7853 15.2041L14.8838 15.1867ZM14.755 14.4581L14.6565 14.4753L14.7837 15.2036L14.8822 15.1864L14.9807 15.1692L14.8535 14.4409L14.755 14.4581ZM14.8822 15.1864L14.8648 15.0879L10.8829 15.7919L10.9004 15.8904L10.9178 15.9889L14.8996 15.2849L14.8822 15.1864ZM10.9004 15.8904L10.8793 15.7926C10.854 15.7981 10.8283 15.8021 10.8023 15.8046L10.8115 15.9041L10.8208 16.0037C10.8552 16.0005 10.8888 15.9952 10.9215 15.9881L10.9004 15.8904ZM10.8115 15.9041L10.9111 15.8949L10.8425 15.1582L10.7429 15.1674L10.6434 15.1767L10.712 15.9134L10.8115 15.9041ZM10.7429 15.1674L10.6433 15.1765L10.7098 15.9105L10.8094 15.9015L10.909 15.8925L10.8425 15.1584L10.7429 15.1674ZM10.8094 15.9015L10.8001 15.802C10.5963 15.8209 10.3581 15.8232 10.0978 15.7655L10.0762 15.8631L10.0546 15.9607C10.3414 16.0243 10.6018 16.0213 10.8187 16.0011L10.8094 15.9015ZM10.0762 15.8631L10.0979 15.7655C9.8352 15.7072 9.56351 15.5914 9.30445 15.3774L9.24077 15.4545L9.17708 15.5316C9.46309 15.7679 9.76444 15.8964 10.0545 15.9607L10.0762 15.8631ZM13.5538 25.2743L13.6349 25.2159C13.5061 25.0372 13.3553 24.8278 13.312 24.7679C13.3067 24.7604 13.3028 24.7551 13.3008 24.7524C13.3004 24.7518 13.2998 24.751 13.2993 24.7504C13.2993 24.7503 13.2985 24.7492 13.2975 24.7479C13.2971 24.7474 13.296 24.7461 13.2954 24.7453C13.2939 24.7436 13.2856 24.7352 13.2782 24.7293C13.1676 24.7238 13.1236 24.8403 13.1302 24.8559C13.1316 24.8586 13.1337 24.8622 13.1344 24.8633C13.1353 24.8647 13.1361 24.8659 13.1362 24.866C13.1365 24.8664 13.1367 24.8667 13.1368 24.867C13.1371 24.8674 13.1374 24.8678 13.1376 24.8681C13.1381 24.8687 13.1386 24.8695 13.1392 24.8703C13.144 24.8771 13.1576 24.896 13.1816 24.9295C13.2299 24.9968 13.3212 25.1239 13.4717 25.3334L13.5529 25.275L13.6341 25.2166C13.4836 25.0072 13.3924 24.8802 13.3441 24.8129C13.3199 24.7792 13.3067 24.7608 13.3022 24.7545C13.2997 24.7509 13.3016 24.7534 13.3033 24.7562C13.304 24.7572 13.3061 24.7609 13.3075 24.7635C13.314 24.7791 13.2701 24.8956 13.1594 24.8902C13.1521 24.8842 13.1438 24.8758 13.1423 24.8741C13.1417 24.8733 13.1406 24.872 13.1403 24.8716C13.1397 24.8708 13.1392 24.8702 13.1391 24.8701C13.139 24.8699 13.1389 24.8697 13.1388 24.8697C13.1388 24.8696 13.1389 24.8697 13.1393 24.8703C13.1409 24.8726 13.1445 24.8775 13.1499 24.885C13.1931 24.9448 13.3437 25.1539 13.4727 25.3328L13.5538 25.2743Z" fill="#F1ECF0" mask="url(#path-1-inside-1_4006_14605)"/>
<path d="M5.60449 0.811523C6.34173 0.811523 7.01838 1.07333 7.5459 1.50879L7.7627 1.70508C8.3148 2.25719 8.65612 3.02011 8.65625 3.8623C8.65625 4.59954 8.39443 5.27621 7.95898 5.80371L7.7627 6.02051C7.21045 6.57272 6.44688 6.91406 5.60449 6.91406C4.86741 6.91395 4.19144 6.65215 3.66406 6.2168L3.44727 6.02051C2.89505 5.46829 2.55371 4.7047 2.55371 3.8623C2.55382 3.12521 2.81562 2.44925 3.25098 1.92188L3.44727 1.70508C3.99938 1.15297 4.76224 0.811653 5.60449 0.811523ZM5.60449 2.19141C5.20082 2.19152 4.83072 2.33501 4.54199 2.57324L4.42285 2.68066C4.12062 2.9829 3.93372 3.40091 3.93359 3.8623C3.93359 4.26615 4.0771 4.63693 4.31543 4.92578L4.42285 5.04492C4.72508 5.34715 5.1431 5.53405 5.60449 5.53418C6.00833 5.53418 6.37912 5.39067 6.66797 5.15234L6.78711 5.04492C7.08945 4.74258 7.27637 4.32386 7.27637 3.8623C7.27625 3.45866 7.13276 3.08853 6.89453 2.7998L6.78711 2.68066C6.48477 2.37833 6.06605 2.19141 5.60449 2.19141Z" fill="#212121" stroke="#F1ECF0" stroke-width="0.1"/>
<path d="M25.1562 3.10059C27.791 3.10059 30.201 4.11065 32.0176 5.7627L32.3721 6.10156C34.2236 7.95307 35.373 10.5072 35.373 13.3174V29.1465C35.3729 29.5272 35.0643 29.8357 34.6836 29.8359H15.6299C15.249 29.8359 14.9396 29.5273 14.9395 29.1465V13.3174C14.9395 10.6829 15.9498 8.27353 17.6016 6.45703L17.9404 6.10156C19.792 4.25003 22.3461 3.10061 25.1562 3.10059ZM24.7031 4.49219C22.6026 4.59972 20.6894 5.45013 19.2227 6.78418L18.916 7.07715C17.3142 8.679 16.3194 10.8879 16.3193 13.3174V28.4561H33.9932V13.3174C33.9932 11.0399 33.1193 8.95618 31.6904 7.38477L31.3965 7.07715C29.8948 5.57549 27.8597 4.60736 25.6094 4.49219L25.1562 4.48047L24.7031 4.49219Z" fill="#212121" stroke="#F1ECF0" stroke-width="0.1"/>
<path d="M22.8701 1.18262H27.4424C27.8234 1.18262 28.1328 1.49205 28.1328 1.87305V3.72168C28.1328 4.10267 27.8234 4.41211 27.4424 4.41211C27.0615 4.41197 26.7529 4.10259 26.7529 3.72168V2.5625H23.5596V3.72168C23.5596 4.10256 23.251 4.41192 22.8701 4.41211C22.4891 4.41211 22.1797 4.10267 22.1797 3.72168V1.87305L22.1943 1.7334C22.2588 1.41921 22.5369 1.18262 22.8701 1.18262Z" fill="#212121" stroke="#F1ECF0" stroke-width="0.1"/>
<path d="M18.2969 31.0342C18.9082 31.0342 19.4625 31.2819 19.8633 31.6826C20.2639 32.0832 20.5116 32.6369 20.5117 33.248C20.5117 33.8594 20.264 34.4137 19.8633 34.8145C19.4625 35.2152 18.9082 35.4629 18.2969 35.4629C17.6857 35.4628 17.1321 35.2151 16.7314 34.8145C16.3307 34.4137 16.083 33.8594 16.083 33.248C16.0831 32.6369 16.3308 32.0832 16.7314 31.6826C17.1321 31.282 17.6857 31.0343 18.2969 31.0342ZM18.2969 32.4141C18.0955 32.4142 17.9107 32.4857 17.7666 32.6045L17.707 32.6582C17.5562 32.809 17.463 33.0178 17.4629 33.248C17.4629 33.4497 17.5344 33.6351 17.6533 33.7793L17.707 33.8389C17.8578 33.9897 18.0666 34.0829 18.2969 34.083C18.4985 34.083 18.684 34.0115 18.8281 33.8926L18.8877 33.8389C19.0386 33.688 19.1318 33.4785 19.1318 33.248C19.1317 33.0467 19.0602 32.8618 18.9414 32.7178L18.8877 32.6582C18.7368 32.5073 18.5274 32.4141 18.2969 32.4141Z" fill="#212121" stroke="#F1ECF0" stroke-width="0.1"/>
<path d="M32.0156 31.0342C32.627 31.0342 33.1813 31.2819 33.582 31.6826C33.9827 32.0832 34.2303 32.6369 34.2305 33.248C34.2305 33.8594 33.9828 34.4137 33.582 34.8145C33.1813 35.2152 32.627 35.4629 32.0156 35.4629C31.4045 35.4628 30.8508 35.2151 30.4502 34.8145C30.0495 34.4137 29.8018 33.8594 29.8018 33.248C29.8019 32.6369 30.0496 32.0832 30.4502 31.6826C30.8508 31.282 31.4045 31.0343 32.0156 31.0342ZM32.0156 32.4141C31.8142 32.4142 31.6294 32.4857 31.4854 32.6045L31.4258 32.6582C31.275 32.809 31.1818 33.0178 31.1816 33.248C31.1816 33.4497 31.2532 33.6351 31.3721 33.7793L31.4258 33.8389C31.5766 33.9897 31.7854 34.0829 32.0156 34.083C32.2172 34.083 32.4027 34.0115 32.5469 33.8926L32.6064 33.8389C32.7573 33.688 32.8506 33.4785 32.8506 33.248C32.8505 33.0466 32.779 32.8618 32.6602 32.7178L32.6064 32.6582C32.4556 32.5073 32.2461 32.4141 32.0156 32.4141Z" fill="#212121" stroke="#F1ECF0" stroke-width="0.1"/>
<path d="M25.1582 0.0498047C25.539 0.0499961 25.8477 0.359359 25.8477 0.740234V1.50195C25.8477 1.88283 25.539 2.19219 25.1582 2.19238C24.7772 2.19238 24.4678 1.88295 24.4678 1.50195V0.740234C24.4678 0.359241 24.7772 0.0498047 25.1582 0.0498047Z" fill="#212121" stroke="#F1ECF0" stroke-width="0.1"/>
<path d="M17.7676 22.2021H26.8867C27.2677 22.2021 27.5771 22.5116 27.5771 22.8926V26.9404C27.5771 27.3214 27.2677 27.6299 26.8867 27.6299H17.7676C17.3866 27.6299 17.0771 27.3214 17.0771 26.9404V22.8926C17.0771 22.5116 17.3866 22.2021 17.7676 22.2021ZM18.457 26.251H26.1973V23.582H18.457V26.251Z" fill="#212121" stroke="#F1ECF0" stroke-width="0.1"/>
<path d="M29.1155 17.1027H32.509C32.89 17.1027 33.1985 17.4121 33.1985 17.7931V26.9435C33.1983 27.3243 32.8899 27.6329 32.509 27.6329H29.1155C28.7346 27.6329 28.4252 27.3243 28.425 26.9435V17.7931L28.4397 17.6534C28.5042 17.3393 28.7822 17.1027 29.1155 17.1027ZM29.8049 26.2531H31.8186V18.4825H29.8049V26.2531Z" fill="#212121" stroke="#F1ECF0" stroke-width="0.1"/>
<path d="M17.7676 13.3682H26.8867C27.2677 13.3682 27.5771 13.6776 27.5771 14.0586V20.6895C27.5771 21.0704 27.2677 21.3799 26.8867 21.3799H17.7676C17.3866 21.3799 17.0771 21.0704 17.0771 20.6895V14.0586C17.0771 13.6776 17.3866 13.3682 17.7676 13.3682ZM18.457 20H26.1973V14.748H18.457V20Z" fill="#212121" stroke="#F1ECF0" stroke-width="0.1"/>
<path d="M21.0742 11.8428H23.5762C23.837 11.8428 24.0773 11.9361 24.2646 12.0908L24.3418 12.1611C24.5378 12.3573 24.6592 12.6279 24.6592 12.9258V14.0596C24.6592 14.2361 24.5163 14.3797 24.3398 14.3799H20.3115C20.1349 14.3799 19.9912 14.2362 19.9912 14.0596V12.9258C19.9912 12.6651 20.0847 12.4256 20.2393 12.2383L20.3096 12.1611C20.5058 11.9649 20.7762 11.8428 21.0742 11.8428ZM21.0742 12.4824C20.9831 12.4824 20.8978 12.5107 20.8271 12.5586L20.7617 12.6133C20.6815 12.6935 20.6309 12.8041 20.6309 12.9258V13.7393H24.0195V12.9258C24.0195 12.8345 23.9913 12.7494 23.9434 12.6787L23.8887 12.6133C23.8085 12.5332 23.6978 12.4824 23.5762 12.4824H21.0742Z" fill="#212121" stroke="#F1ECF0" stroke-width="0.1"/>
</svg>
