<svg width="32" height="32" viewBox="0 0 32 32" fill="none" xmlns="http://www.w3.org/2000/svg">
<path d="M3.27439 21.756L2.04322 22.1461L0.995416 19.0051L0 19.3233L1.04781 22.4591C1.13163 22.7209 1.32024 22.9364 1.56647 23.0596C1.8127 23.1828 2.09561 23.2084 2.36804 23.1212L3.59921 22.7311C4.17551 23.7627 4.88278 24.7225 5.71578 25.5898L4.95612 26.6163C4.78847 26.837 4.72037 27.109 4.76228 27.3758C4.80419 27.6478 4.95612 27.8891 5.1814 28.0533L7.72233 29.8599C7.95285 30.0241 8.23052 30.0908 8.50819 30.0446C8.78585 30.0036 9.02685 29.8547 9.18926 29.634L9.95416 28.6127C11.0439 29.1259 12.1965 29.4903 13.3805 29.7059V30.9735C13.3805 31.5381 13.852 32 14.4283 32H17.5717C18.148 32 18.6195 31.5381 18.6195 30.9735V29.7059C19.8035 29.4903 20.9561 29.1208 22.0511 28.6076L22.8055 29.6289C22.9679 29.8547 23.2089 29.9984 23.4866 30.0446C23.7695 30.0908 24.0471 30.0241 24.2724 29.8599L26.8134 28.0533C27.0439 27.8891 27.1906 27.6478 27.2325 27.3758C27.2744 27.1038 27.2063 26.837 27.0439 26.6163L26.2895 25.5847C27.1172 24.7276 27.8297 23.7679 28.4008 22.726L29.632 23.1212C29.8991 23.2033 30.1821 23.1828 30.4335 23.0596C30.685 22.9313 30.8684 22.7209 30.9522 22.4591L32 19.3182L31.0046 19L29.9568 22.1461L28.7256 21.7509C28.2541 21.5969 27.7354 21.8022 27.4787 22.2385C26.9496 23.1931 26.2895 24.0809 25.5246 24.8764C25.1735 25.2408 25.1369 25.7951 25.4355 26.1852L26.1952 27.2116L23.6542 29.0182L22.8893 27.9866C22.5907 27.5914 22.0563 27.458 21.59 27.6684C20.5789 28.1405 19.5154 28.4793 18.4309 28.6794C17.9332 28.7718 17.5665 29.1927 17.5665 29.6854V30.953H14.4231V29.6854C14.4231 29.1927 14.0616 28.7667 13.5586 28.6794C12.4689 28.4793 11.4054 28.1405 10.389 27.6632C9.92796 27.458 9.39358 27.5863 9.09496 27.9866L8.3353 29.013L5.79437 27.2065L6.54879 26.1852C6.85265 25.79 6.81598 25.2357 6.45972 24.8713C5.69483 24.0758 5.03471 23.1879 4.50033 22.2231C4.24885 21.7971 3.73019 21.5918 3.25868 21.7458L3.27439 21.756Z" fill="black"/>
<path d="M15.5052 27C20.3413 27 24.5591 23.9098 26 19.3137L24.9993 19C23.6946 23.1569 19.8802 25.9542 15.5 25.9542C11.1198 25.9542 7.30539 23.1621 6.00075 19L5 19.3137C6.44087 23.9098 10.6587 27 15.4948 27H15.5052Z" fill="black"/>
<path d="M0 17H32V18H0V17Z" fill="black"/>
<path d="M30 16V8.77419C30 8.49032 29.7667 8.25806 29.4815 8.25806H25.3333V0.516129C25.3333 0.232258 25.1 0 24.8148 0H18.5926C18.3074 0 18.0741 0.232258 18.0741 0.516129V5.67742H13.9259V3.6129C13.9259 3.45806 13.8585 3.31355 13.7393 3.21548L10.6281 0.634839C10.4363 0.474839 10.1563 0.474839 9.96444 0.634839L6.85333 3.21548C6.73407 3.31355 6.66667 3.45806 6.66667 3.6129V7.74194H2.51852C2.23333 7.74194 2 7.97419 2 8.25806V16H3.03704V8.77419H6.66667V16H7.7037V3.85548L10.2963 1.70323L12.8889 3.85548V16H13.9259V6.70968H18.0741V16H19.1111V1.03226H24.2963V16H25.3333V9.29032H28.963V16H30Z" fill="black"/>
<path d="M15 5H17V6H15V5Z" fill="black"/>
<path d="M15 5H17V6H15V5Z" fill="black"/>
</svg>
