<svg width="32" height="34" viewBox="0 0 32 34" fill="none" xmlns="http://www.w3.org/2000/svg">
<path d="M28.2554 0H26.7895C26.1451 0 26.1451 0.996237 26.7895 0.996237H28.2554C29.7692 0.996237 31.0009 2.22001 31.0009 3.7242V15.2521C31.0009 16.7564 29.7693 17.9801 28.2554 17.9801H26.5928C26.4831 17.9801 26.3765 18.0161 26.2893 18.0826L23.2385 20.4097V18.4783C23.2385 18.2032 23.0149 17.9801 22.739 17.9801H16.6596C16.1617 17.9801 15.6832 17.8491 15.2612 17.6V12.0083C15.2612 10.9609 14.7263 10.0356 13.914 9.48809V3.7242C13.914 2.22001 15.1456 0.996237 16.6596 0.996237H23.6592C24.3035 0.996237 24.3035 0 23.6592 0H16.6596C14.5948 0 12.9149 1.67069 12.9149 3.7242V9.05028C12.6862 8.99582 12.4479 8.96613 12.2027 8.96613H3.0585C1.37207 8.96613 0 10.3308 0 12.0083V13.0839C0 13.7264 0.99903 13.7264 0.99903 13.0839V12.0083C0.99903 10.8802 1.92287 9.96237 3.0585 9.96237H12.2028C13.3384 9.96237 14.2623 10.8802 14.2623 12.0083V17.7983C14.2563 17.8423 14.2566 17.8866 14.2623 17.9302V21.099C14.2623 21.1617 14.2585 21.224 14.2528 21.2861H13.2227C12.0876 21.2861 11.1413 22.103 10.9451 23.1768C10.8997 23.1938 10.8561 23.2177 10.8156 23.2488L8.58147 24.969V23.6431C8.58147 23.368 8.35789 23.145 8.08195 23.145H3.0585C1.92287 23.145 0.99903 22.2272 0.99903 21.099V16.0726C0.99903 15.4301 0 15.4301 0 16.0726V21.0991C0 22.7766 1.37207 24.1413 3.0585 24.1413H7.5825V25.983C7.5825 26.3825 8.06903 26.6222 8.38732 26.3773L10.9072 24.4371V30.0409C10.9072 31.3111 11.946 32.3444 13.2228 32.3444H16.2881V33.5068C16.2881 33.9062 16.7746 34.1461 17.0929 33.9011L19.1146 32.3444H19.7119C20.9887 32.3444 22.0275 31.3111 22.0275 30.0409V29.1565C22.0275 28.514 21.0285 28.514 21.0285 29.1565V30.0409C21.0285 30.7618 20.4379 31.3482 19.7119 31.3482H18.9442C18.8337 31.3482 18.7264 31.3847 18.639 31.452L17.2871 32.4928V31.8462C17.2871 31.5711 17.0635 31.3481 16.7876 31.3481H13.2227C12.4968 31.3481 11.9062 30.7617 11.9062 30.0409V23.5896C11.9062 22.8687 12.4967 22.2824 13.2227 22.2824H19.7119C20.4378 22.2824 21.0285 22.8688 21.0285 23.5896V26.035C21.0285 26.6775 22.0275 26.6775 22.0275 26.035V23.5897C22.0275 22.3195 20.9887 21.2862 19.7119 21.2862H15.2556C15.2594 21.224 15.2613 18.7081 15.2613 18.7081C15.7018 18.8847 16.174 18.9764 16.6596 18.9764H22.2395V21.4179C22.2395 21.8165 22.724 22.0564 23.0426 21.8135L26.762 18.9764H28.2554C30.3202 18.9764 32 17.3058 32 15.2522V3.7242C31.9999 1.67069 30.3201 0 28.2554 0Z" fill="black"/>
<path d="M23.6943 4.0558C23.0874 3.90214 22.469 4.37773 22.469 4.99973C22.469 5.6793 22.2193 6.33422 21.7662 6.84351L20.4493 8.32156C20.364 8.19179 20.2167 8.10589 20.0489 8.10589H17.478C17.2139 8.10589 17 8.31815 17 8.57997V14.3173C17 14.5791 17.2139 14.7913 17.478 14.7913H20.0489C20.2421 14.7913 20.408 14.6775 20.4834 14.514C21.0039 14.8295 21.607 15 22.2207 15H26.7642C27.4585 15 28.0312 14.4025 27.9987 13.7156C27.9842 13.4115 28 9.32724 28 9.23653C28 8.56069 27.4456 8.01076 26.7656 8.01076L24.4029 8.00374L24.5007 7.77397C24.9478 6.72385 24.8742 5.50617 24.3041 4.51648C24.171 4.28526 23.9544 4.12173 23.6943 4.0558C23.9544 4.12173 23.4342 3.98994 23.6943 4.0558C23.9544 4.12173 23.0875 3.90214 23.6943 4.0558ZM19.5709 13.8432H17.956V9.05404H19.5709V13.8432ZM26.7642 8.95885C26.9186 8.95885 27.0441 9.08337 27.0441 9.23647C27.0441 9.32667 27.0431 9.57149 27.0419 9.9034C27.0348 11.736 27.0301 13.4716 27.0437 13.7601C27.0487 13.8642 26.9976 13.9336 26.9668 13.9658C26.9134 14.0212 26.8414 14.0518 26.7642 14.0518H22.2207C21.6791 14.0518 21.1491 13.8656 20.7281 13.5276L20.5269 13.3661V9.6663L22.4828 7.47107C23.0904 6.78814 23.425 5.91046 23.425 4.99966C23.425 4.97286 23.4619 4.96591 23.4741 4.98677C23.8974 5.72146 23.9519 6.62544 23.6201 7.40501L23.2429 8.29116C23.1806 8.43736 23.1963 8.60468 23.2844 8.73704C23.3727 8.86941 23.5218 8.94918 23.6817 8.94968L26.7642 8.95885Z" fill="black"/>
<path d="M4.45376 17.2115C4.2031 17.2115 4 17.4727 4 17.7949C4 18.1171 4.2031 18.3783 4.45376 18.3783H5.79132L5.54145 20.3213C5.50055 20.6391 5.6679 20.9394 5.91511 20.992C5.94022 20.9974 5.96508 20.9999 5.98965 20.9999C6.20769 20.9999 6.40003 20.7973 6.43681 20.5116L6.71112 18.3783H7.80577L7.5559 20.3213C7.515 20.6392 7.68235 20.9395 7.92956 20.9921C7.95467 20.9974 7.97953 21 8.0041 21C8.22214 21 8.41448 20.7974 8.45126 20.5117L8.72557 18.3784H10.5462C10.7969 18.3784 11 18.1172 11 17.795C11 17.4729 10.7969 17.2117 10.5462 17.2117H8.87562L9.05863 15.7885H10.5462C10.7969 15.7885 11 15.5273 11 15.2051C11 14.8829 10.7969 14.6217 10.5462 14.6217H9.20868L9.45855 12.6788C9.49945 12.3609 9.3321 12.0606 9.08489 12.008C8.83738 11.9553 8.60409 12.1706 8.56319 12.4884L8.28888 14.6217H7.19423L7.4441 12.6787C7.485 12.3609 7.31765 12.0605 7.07044 12.0079C6.82263 11.9552 6.5897 12.1705 6.54874 12.4883L6.27443 14.6216H4.45376C4.2031 14.6216 4 14.8828 4 15.205C4 15.5272 4.2031 15.7884 4.45376 15.7884H6.12438L5.94137 17.2115H4.45376ZM7.04424 15.7884H8.13889L7.95588 17.2115H6.86123L7.04424 15.7884Z" fill="black"/>
<path d="M15.9937 25.3029C15.5721 25.0398 15.0112 24.936 14.4486 25.0397C13.7276 25.1724 13 25.6833 13 26.5255C13 27.0497 13.2524 27.5047 13.7715 27.9165C14.1955 28.253 14.8074 28.5729 15.7555 28.9539C15.832 28.9846 15.916 29 16 29C16.0841 29 16.1681 28.9846 16.2446 28.9539C17.8985 28.2892 19 27.6219 19 26.5255C19 25.6787 18.2466 25.173 17.4999 25.0475C16.9389 24.9531 16.3951 25.0533 15.9937 25.3029ZM17.9557 26.5255C17.9557 27.1169 17.4382 27.5542 16 28.1544C14.5617 27.5541 14.0442 27.1168 14.0442 26.5255C14.0442 26.0855 14.3803 25.8668 14.6949 25.8089C14.7529 25.7982 14.815 25.7922 14.8788 25.7922C15.1154 25.7922 15.3756 25.875 15.536 26.1108C15.6274 26.2449 15.8121 26.3281 16.0103 26.325C16.2094 26.322 16.3889 26.2334 16.4731 26.0966C16.642 25.8221 16.9974 25.7738 17.2736 25.8203C17.6034 25.8757 17.9557 26.0901 17.9557 26.5255Z" fill="black"/>
</svg>
