<svg width="32" height="32" viewBox="0 0 32 32" fill="none" xmlns="http://www.w3.org/2000/svg">
<path d="M24.2066 3.5468L16.2057 0.0445304C16.0696 -0.0148435 15.915 -0.0148435 15.779 0.0445304L7.77805 3.5468C7.58375 3.6316 7.45812 3.8234 7.45801 4.03539V12.4097C7.4609 14.2917 8.36526 16.0584 9.89029 17.1612L15.42 21.1494C15.7615 21.3966 16.2231 21.3966 16.5647 21.1494L22.0944 17.1617C23.6194 16.0589 24.5238 14.2922 24.5267 12.4102V4.03539C24.5265 3.8234 24.4009 3.6316 24.2066 3.5468ZM23.4599 12.4102C23.4574 13.9496 22.7177 15.3946 21.4703 16.2966L15.9923 20.2474L10.5144 16.2966C9.26699 15.3946 8.52724 13.9496 8.5248 12.4102V4.38424L15.9923 1.11559L23.4599 4.38424V12.4102Z" fill="black"/>
<path d="M15.7792 2.37266L9.91183 4.94149C9.71754 5.02628 9.59191 5.21809 9.5918 5.43008V12.4096C9.59344 13.6063 10.1687 14.7298 11.1386 15.4307L15.6805 18.7068C15.8668 18.8412 16.1183 18.8412 16.3046 18.7068L20.8464 15.4307C21.8164 14.7298 22.3916 13.6063 22.3933 12.4096V5.43008C22.3932 5.21809 22.2675 5.02628 22.0733 4.94149L16.2059 2.37266C16.0699 2.31328 15.9152 2.31328 15.7792 2.37266ZM21.3265 5.77838V12.4096C21.3249 13.2635 20.9144 14.0651 20.2224 14.5655L15.9925 17.6166L11.7627 14.5655C11.0707 14.0651 10.6602 13.2635 10.6586 12.4096V5.77838L15.9925 3.44371L21.3265 5.77838Z" fill="black"/>
<path d="M4.40988 17.7076L3.25615 15.0118C3.0108 14.456 2.48758 14.0734 1.88358 14.008C1.27959 13.9425 0.686579 14.2043 0.327935 14.6947C-0.0307082 15.1851 -0.100499 15.8295 0.144852 16.3853L2.23523 20.9837C2.51724 21.6062 2.90956 22.1726 3.39323 22.6554L6.68055 25.9432C6.49541 26.1394 6.39203 26.3989 6.39145 26.6686V30.9358C6.39145 31.525 6.86906 32.0026 7.45824 32.0026H13.3256C13.9148 32.0026 14.3924 31.525 14.3924 30.9358V26.6686C14.3924 26.0795 13.9148 25.6018 13.3256 25.6018V24.6092C13.3419 23.3459 12.9298 22.1144 12.1564 21.1155C11.7029 20.5191 11.085 20.0683 10.3786 19.8188C9.25516 19.3468 8.22199 18.6837 7.32489 17.8591C6.49217 17.1733 5.3092 17.1118 4.40988 17.7076ZM13.3256 30.9358H7.45824V26.6686H13.3256V30.9358ZM11.3238 21.7817C11.9455 22.5917 12.275 23.5882 12.2588 24.6092V25.6018H7.84815L4.14745 21.9011C3.75441 21.5087 3.43548 21.0484 3.20601 20.5426L1.11563 15.9442C1.02642 15.7479 1.04303 15.5198 1.15971 15.3385C1.27639 15.1572 1.47718 15.0476 1.69276 15.0475C1.94647 15.0473 2.17576 15.1987 2.27523 15.4321L3.46844 18.2149C3.78529 18.9573 4.24199 19.6318 4.81366 20.2017L7.25021 22.6388C7.38413 22.7775 7.58245 22.8331 7.76894 22.7843C7.95543 22.7355 8.10107 22.5898 8.14989 22.4033C8.1987 22.2169 8.14309 22.0185 8.00443 21.8846L5.56788 19.4475C5.32287 19.2031 5.10258 18.9351 4.91021 18.6474C5.42244 18.2533 6.13906 18.2652 6.63787 18.6762C7.63497 19.5913 8.7874 20.3211 10.0409 20.8312C10.5517 21.0169 10.9974 21.3471 11.3238 21.7817Z" fill="black"/>
<path d="M11.726 28.2695H11.1926C10.898 28.2695 10.6592 28.5083 10.6592 28.8029C10.6592 29.0975 10.898 29.3363 11.1926 29.3363H11.726C12.0206 29.3363 12.2594 29.0975 12.2594 28.8029C12.2594 28.5083 12.0206 28.2695 11.726 28.2695Z" fill="black"/>
<path d="M29.7499 20.9853L31.8403 16.3869C32.0973 15.8292 32.0337 15.1763 31.6739 14.6787C31.3141 14.1811 30.714 13.9162 30.1039 13.9855C29.4938 14.0549 28.9685 14.4477 28.7295 15.0134L27.5785 17.699C26.676 17.1061 25.4925 17.171 24.6603 17.859C23.7632 18.6837 22.73 19.3467 21.6066 19.8187C20.9002 20.0683 20.2822 20.519 19.8288 21.1154C19.055 22.1148 18.6429 23.347 18.6596 24.6108V25.6034C18.0704 25.6034 17.5928 26.081 17.5928 26.6702V30.9374C17.5928 31.5265 18.0704 32.0042 18.6596 32.0042H24.5269C25.1161 32.0042 25.5937 31.5265 25.5937 30.9374V26.6702C25.5931 26.4004 25.4897 26.141 25.3046 25.9448L28.5919 22.6569C29.0756 22.1741 29.4679 21.6078 29.7499 20.9853ZM24.5269 30.9374H18.6596V26.6702H24.5269V30.9374ZM24.137 25.6034H19.7264V24.6108C19.7103 23.5899 20.0398 22.5937 20.6614 21.7838C20.987 21.3495 21.4318 21.0191 21.9415 20.8327C23.1953 20.3228 24.3479 19.593 25.3451 18.6778C25.8434 18.2637 26.562 18.2497 27.076 18.6442C26.8831 18.934 26.6617 19.2038 26.4151 19.4496L23.9786 21.8867C23.7764 22.096 23.7793 22.4287 23.9851 22.6344C24.1908 22.8402 24.5235 22.8431 24.7328 22.6409L27.1694 20.2039C27.741 19.6339 28.1977 18.9594 28.5146 18.217L29.7078 15.4337C29.8075 15.2006 30.0367 15.0495 30.2903 15.0497C30.5058 15.0497 30.7066 15.1593 30.8233 15.3406C30.94 15.5219 30.9566 15.75 30.8674 15.9463L28.777 20.5447C28.5475 21.0505 28.2286 21.5108 27.8356 21.9033L24.137 25.6034Z" fill="black"/>
<path d="M20.7934 28.2697H20.26C19.9654 28.2697 19.7266 28.5085 19.7266 28.8031C19.7266 29.0977 19.9654 29.3365 20.26 29.3365H20.7934C21.0879 29.3365 21.3267 29.0977 21.3267 28.8031C21.3267 28.5085 21.0879 28.2697 20.7934 28.2697Z" fill="black"/>
<path d="M13.112 11.3076C12.8763 11.1308 12.542 11.1786 12.3653 11.4143C12.1885 11.6499 12.2363 11.9843 12.4719 12.161L14.6055 13.7612C14.6978 13.8304 14.8101 13.8679 14.9256 13.8679C14.9558 13.8678 14.9859 13.8653 15.0157 13.8604C15.1602 13.8356 15.2881 13.7525 15.3693 13.6305L19.6365 7.22977C19.7423 7.07122 19.7554 6.86829 19.671 6.69742C19.5866 6.52655 19.4174 6.41371 19.2272 6.40139C19.037 6.38907 18.8547 6.47915 18.7489 6.6377L14.7943 12.5696L13.112 11.3076Z" fill="black"/>
</svg>
