<svg width="146" height="75" viewBox="0 0 146 75" fill="none" xmlns="http://www.w3.org/2000/svg">
<g clip-path="url(#clip0_1288_11908)">
<path d="M41.1049 8.12418H37.4809C36.1785 8.12418 35.1193 9.18503 35.1193 10.4864V20.2716L35.498 29.1871L20.9651 9.09868C20.5218 8.48808 19.8074 8.12109 19.0531 8.12109H15.6077C14.3053 8.12109 13.2461 9.18195 13.2461 10.4833V41.316C13.2461 42.6205 14.3053 43.6782 15.6077 43.6782H19.2748C20.5772 43.6782 21.6364 42.6174 21.6364 41.316V32.3758L21.4085 22.9052L35.7536 42.7037C36.197 43.3144 36.9113 43.6782 37.6656 43.6782H41.108C42.4104 43.6782 43.4695 42.6174 43.4695 41.316V10.4864C43.4695 9.18195 42.4104 8.12418 41.108 8.12418" fill="#17479E"/>
<path d="M80.2354 23.6278C79.2902 14.7986 71.3525 7.85372 62.1617 7.81671C59.3075 7.80746 56.4563 7.81055 53.6021 7.81363H51.0188C49.3438 7.81671 48.882 8.27621 48.8789 9.95693C48.8789 13.5188 48.8789 17.0838 48.8789 20.6487V25.9931V30.2674C48.8789 34.187 48.8789 38.1066 48.882 42.0262C48.882 43.5651 49.3007 43.9845 50.8341 43.9845H52.7092C53.9346 43.9876 55.1601 43.9876 56.3824 43.9876C58.5962 43.9876 60.81 43.9845 63.0238 43.9691C64.006 43.9598 64.9451 43.8611 65.8165 43.6792C75.2013 41.7117 81.2638 33.2803 80.2354 23.6278ZM56.5548 15.2365C57.2107 15.2273 57.8634 15.1995 58.5131 15.1718C60.3359 15.0978 62.057 15.0237 63.7289 15.3075C69.3696 16.2573 72.7165 20.8985 72.2516 27.128C71.8513 32.5402 67.6516 36.5153 62.0416 36.7898C60.6869 36.8545 59.3475 36.8391 57.925 36.8206C57.4693 36.8145 57.0136 36.8083 56.5518 36.8052V15.2365H56.5548Z" fill="#17479E"/>
<path d="M145.996 39.0724C145.989 37.3546 145.512 36.8828 143.788 36.8828C141.291 36.8766 138.791 36.8828 136.29 36.8828H132.312V15.5516C132.312 13.7229 132.312 11.891 132.309 10.0623C132.309 8.34457 131.774 7.82031 130.025 7.82031C129.101 7.82031 128.177 7.82031 127.257 7.82031H127.007C125.089 7.82031 124.621 8.27981 124.621 10.1641V33.8976C124.621 36.6053 124.621 39.3098 124.621 42.0113C124.621 42.5356 124.673 43.1308 125.092 43.5502C125.394 43.8524 125.813 43.9973 126.376 43.9973H126.382C132.352 43.9788 138.32 43.9788 144.287 43.9942H144.299C144.856 43.9942 145.272 43.8493 145.568 43.5532C145.86 43.2603 146.005 42.8378 145.999 42.3012V40.8734C145.999 40.2751 146.002 39.6737 145.999 39.0755" fill="#17479E"/>
<path d="M118.85 31.7319C118.604 31.3588 118.191 31.1367 117.745 31.1367H112.516C112.067 31.1367 111.648 31.368 111.396 31.7597C109.394 34.8929 105.986 36.7617 102.282 36.7617C98.5779 36.7617 95.1725 34.8929 93.1711 31.7597C92.9217 31.3711 92.5061 31.1367 92.0504 31.1367H86.8192C86.3727 31.1367 85.9601 31.3588 85.7138 31.7319C85.4706 32.0958 85.4305 32.5553 85.5968 32.9562C88.4326 39.6976 94.9816 44.0551 102.279 44.0551C109.576 44.0551 116.128 39.6976 118.964 32.9562C119.133 32.5553 119.09 32.0958 118.847 31.7319" fill="#EE3824"/>
<path d="M102.28 7.81641C92.3252 7.81641 84.2305 15.927 84.2305 25.8972C84.2305 26.3906 84.2551 26.8748 84.2921 27.359L84.3352 27.8801H120.236L120.276 27.3559C120.313 26.8748 120.335 26.3906 120.335 25.8972C120.335 15.927 112.237 7.81641 102.283 7.81641M111.711 21.0216H92.8517C94.6652 17.5029 98.2769 15.2732 102.28 15.2732C106.282 15.2732 109.897 17.5029 111.711 21.0216Z" fill="#17479E"/>
<path d="M0.171875 7.81445C0.171875 16.3476 0.171875 32.7846 0.171875 41.3208V41.5028C0.171875 41.6878 0.171875 41.8728 0.171875 42.0548C0.174954 42.5698 0.322746 42.9769 0.612172 43.2606C0.898519 43.5381 1.29879 43.68 1.80067 43.68H1.83761C2.66894 43.6707 3.49719 43.6738 4.3316 43.68H5.58784C7.45371 43.68 7.82935 43.3068 7.82935 41.475V20.9364C7.82935 19.1971 7.82935 9.55685 7.82935 7.81754H0.171875V7.81445Z" fill="#17479E"/>
<path fill-rule="evenodd" clip-rule="evenodd" d="M0 0L7.83297 7.81456V0H0Z" fill="#EE3824"/>
<path d="M39.1693 51.5C32.7034 51.5 27.4414 56.7704 27.4414 63.2496C27.4414 69.7288 32.7034 74.9992 39.1693 74.9992C45.6352 74.9992 50.9034 69.7288 50.9034 63.2496C50.9034 56.7704 45.6383 51.5 39.1693 51.5ZM46.953 63.2496C46.953 67.5485 43.4614 71.0426 39.1662 71.0426C34.871 71.0426 31.3856 67.5454 31.3856 63.2496C31.3856 58.9537 34.8772 55.4535 39.1662 55.4535C43.4553 55.4535 46.953 58.9507 46.953 63.2496Z" fill="#17479E"/>
<path d="M20.5406 51.5254H20.5376C20.1311 51.5254 19.7832 51.7135 19.58 52.0435C18.5978 53.6502 17.5879 55.2754 16.6057 56.8513L11.9903 64.2742L9.78878 60.7369C7.98449 57.835 6.17712 54.93 4.34819 52.0126C4.22811 51.8184 4.04953 51.5254 3.60923 51.5254L0.148438 51.5316V74.9999H4.0834V58.3932C5.6229 60.885 9.78878 67.8299 10.5555 69.1097C10.7217 69.3872 11.0173 69.5538 11.3437 69.5538H12.6307C12.9571 69.5538 13.2527 69.3872 13.4189 69.1097C13.4651 69.0326 18.1236 61.2242 19.4722 59.0346C19.6139 58.8064 19.7555 58.5782 19.8941 58.3593V75.003H23.8044V51.5377L21.8308 51.5439C21.3997 51.5439 20.9717 51.5439 20.5437 51.5316" fill="#17479E"/>
<path d="M116.514 51.5254C115.279 51.5254 114.121 52.1884 113.493 53.2585L108.308 61.9397C107.628 60.7678 104.684 55.7133 103.757 54.159L103.308 53.3449C102.692 52.2254 101.513 51.5285 100.235 51.5285H97.4453L97.8056 51.988C97.9564 52.2409 98.0611 52.4105 98.1658 52.5832L99.3358 54.4397C101.488 57.8597 103.791 61.5264 106.06 65.1716C106.27 65.5077 106.381 65.8932 106.384 66.291C106.405 68.314 106.402 73.5505 106.402 74.7069V75.003H110.306V74.6607C110.306 72.9769 110.303 68.1969 110.319 66.2263C110.319 65.8809 110.42 65.5416 110.602 65.2456C111.744 63.4076 112.843 61.6529 113.964 59.8704L115.704 57.0949C116.184 56.3116 118.586 52.3858 118.817 51.9664L119.057 51.5285H116.514V51.5254Z" fill="#17479E"/>
<path d="M70.3889 68.7771L70.3581 68.737C70.2966 68.6537 70.2473 68.5859 70.198 68.515L67.4762 64.654C66.6295 63.4543 65.7827 62.2547 64.9391 61.0581L64.7636 60.8114C62.9624 58.2611 61.0996 55.6243 59.2737 53.0123C58.581 52.0255 57.8574 51.5413 57.0538 51.529C56.6073 51.5228 55.699 51.5259 55.1756 51.529H54.5352V75.0035H58.4178V58.3012C58.5009 58.4091 58.5625 58.4893 58.6179 58.5664L61.1242 62.1221C63.5351 65.5421 68.1135 71.5958 69.7854 73.9796C70.235 74.6211 70.9739 75.0035 71.7591 75.0035H72.3749H74.3177V51.532H70.3858V68.7833L70.3889 68.7771Z" fill="#17479E"/>
<path d="M82.5173 65.0455H87.0126C88.5182 65.0455 90.0269 65.0455 91.5326 65.0394C92.5579 65.0363 93.1614 64.7279 93.4939 64.0402C93.8511 63.3031 93.7987 62.5168 93.7495 61.7705V61.4744H82.5142V55.0753H94.6639V51.498H78.4961V74.9941H94.9534V71.4508H82.5142V65.0425L82.5173 65.0455Z" fill="#17479E"/>
</g>
<defs>
<clipPath id="clip0_1288_11908">
<rect width="146" height="75" fill="white"/>
</clipPath>
</defs>
</svg>
