<svg width="80" height="80" viewBox="0 0 80 80" fill="none" xmlns="http://www.w3.org/2000/svg">
<path d="M55.1146 15.6767C54.1513 15.8163 53.1682 15.6974 52.2661 15.3321L43.3874 11.7255C42.7442 11.5096 42.0609 11.4398 41.3874 11.5213C40.7138 11.6027 40.0669 11.8334 39.4937 12.1964L20.1055 24.0269C22.8819 24.0274 34.5433 24.0269 34.5433 24.0269C38.0931 22.3902 41.1796 20.1249 44.6624 21.9478L48.1426 23.9121C48.4035 24.063 48.6167 24.2843 48.7578 24.5506C48.899 24.817 48.9624 25.1176 48.9408 25.4182C48.9192 25.7189 48.8136 26.0074 48.6358 26.2509C48.4581 26.4943 48.2155 26.6829 47.9358 26.7951C47.9358 26.7951 40.12 29.825 38.5747 30.4246C35.6522 31.3562 35.3778 36.5799 38.9998 36.3284C41.0792 36.0191 53.07 34.3987 53.07 34.3987C53.6334 34.3153 54.1754 34.1243 54.6665 33.8359L61.8683 29.5631C61.8683 29.5631 55.7872 17.0474 55.1146 15.6767Z" fill="white"/>
<path d="M74.7661 24.4403L67.128 8.61278C66.9911 8.33494 66.8006 8.08699 66.5673 7.88325C66.3341 7.6795 66.0627 7.52401 65.769 7.42576C65.4753 7.3275 65.165 7.28844 64.8561 7.31081C64.5472 7.33319 64.2458 7.41657 63.9693 7.55613L57.79 10.6917C57.248 10.9725 56.8368 11.4535 56.6438 12.0326C56.4508 12.6117 56.4911 13.2432 56.7562 13.793C57.1016 14.5224 64.4518 29.6321 64.4518 29.6321C64.5894 29.9106 64.7811 30.1589 65.0156 30.3627C65.2502 30.5664 65.5229 30.7214 65.8179 30.8187C66.113 30.916 66.4244 30.9536 66.7342 30.9293C67.0439 30.905 67.3457 30.8193 67.6219 30.6773L73.7325 27.5187C74.2729 27.2424 74.6837 26.7656 74.8769 26.1902C75.0701 25.6149 75.0303 24.9868 74.7661 24.4403Z" fill="white"/>
<path d="M41.8492 43.7021C42.1211 43.7021 42.382 43.5948 42.5752 43.4036C42.7684 43.2123 42.8783 42.9526 42.8811 42.6807L42.8936 41.4395C42.2798 41.5481 41.7046 41.8135 41.2236 42.21C40.7426 42.6064 40.3722 43.1204 40.1484 43.7022L41.8492 43.7021Z" fill="white"/>
<path d="M16.4551 43.7024H37.7614C38.0308 42.4946 38.6722 41.4017 39.5952 40.5775C40.5183 39.7533 41.6766 39.2394 42.9071 39.108V38.1087C42.4167 38.1759 39.0839 38.6624 38.6804 38.6487C32.7186 38.4245 32.6231 30.1155 37.7386 28.2883L42.7119 26.3587C35.2026 26.3528 23.9017 26.3496 16.4551 26.3242C16.1913 27.4903 15.5803 28.5492 14.7027 29.3611C13.8252 30.1731 12.7221 30.7001 11.5391 30.8726V39.1425C12.7229 39.3176 13.8261 39.8469 14.7036 40.6608C15.581 41.4747 16.1916 42.535 16.4551 43.7024ZM26.8613 29.345C28.3583 29.3547 29.7907 29.9562 30.8458 31.0181C31.9009 32.0801 32.493 33.5163 32.493 35.0133C32.493 36.5103 31.9008 37.9466 30.8457 39.0085C29.7906 40.0705 28.3582 40.6719 26.8612 40.6816C25.3643 40.6719 23.9319 40.0704 22.8768 39.0084C21.8217 37.9465 21.2295 36.5103 21.2295 35.0133C21.2296 33.5162 21.8217 32.08 22.8769 31.0181C23.932 29.9561 25.3644 29.3547 26.8613 29.345ZM13.4457 35.0075C13.4466 34.7031 13.5679 34.4115 13.7831 34.1963C13.9983 33.9811 14.2899 33.8598 14.5943 33.8589H16.7881C17.0921 33.8599 17.3833 33.9814 17.5979 34.1966C17.8125 34.4119 17.933 34.7035 17.933 35.0075C17.933 35.3115 17.8125 35.603 17.5979 35.8183C17.3833 36.0336 17.0921 36.1551 16.7881 36.1561H14.5943C14.4433 36.1566 14.2937 36.1273 14.1541 36.0697C14.0145 36.0122 13.8877 35.9276 13.781 35.8209C13.6742 35.7141 13.5896 35.5873 13.5321 35.4477C13.4745 35.3081 13.4452 35.1585 13.4457 35.0075Z" fill="white"/>
<path d="M26.8595 38.912C27.8893 38.9029 28.8738 38.4875 29.5988 37.7561C30.3238 37.0247 30.7306 36.0366 30.7305 35.0067C30.7305 33.9769 30.3238 32.9888 29.5987 32.2574C28.8737 31.526 27.8892 31.1106 26.8594 31.1016C25.8296 31.1106 24.845 31.526 24.12 32.2574C23.395 32.9888 22.9883 33.977 22.9883 35.0068C22.9883 36.0366 23.3951 37.0248 24.1201 37.7562C24.8451 38.4876 25.8297 38.903 26.8595 38.912Z" fill="white"/>
<path d="M11.5391 41.4844V42.6442C11.5391 42.9162 11.6465 43.1773 11.838 43.3705C12.0295 43.5637 12.2895 43.6735 12.5616 43.676L14.066 43.6896C13.8541 43.1454 13.5135 42.6606 13.0735 42.2765C12.6334 41.8925 12.107 41.6207 11.5391 41.4844Z" fill="white"/>
<path d="M14.0623 26.3242H12.5911C12.3193 26.3242 12.0585 26.4315 11.8653 26.6227C11.6721 26.8139 11.5621 27.0736 11.5593 27.3454L11.5469 28.541C12.113 28.3998 12.6369 28.1248 13.0747 27.7391C13.5124 27.3533 13.8511 26.8681 14.0623 26.3242Z" fill="white"/>
<path d="M48.3441 49.0401C47.762 48.6217 47.0429 48.4398 46.3319 48.5311C45.6209 48.6223 44.971 48.9799 44.5135 49.5317L40.5531 53.9095C40.8947 54.5485 41.1089 55.2479 41.1838 55.9686C41.5725 59.3426 38.7221 62.449 35.4982 61.7932L29.8761 60.7473C29.6376 60.6981 29.428 60.5573 29.2923 60.3552C29.1566 60.153 29.1056 59.9057 29.1504 59.6664C29.1951 59.4271 29.332 59.2149 29.5316 59.0754C29.7311 58.936 29.9775 58.8804 30.2176 58.9207C30.3067 58.9259 36.4943 60.1385 36.3236 60.0217C39.8704 59.9664 40.4107 54.318 37.1954 53.2695C33.8661 52.1143 28.3623 50.6387 25.6667 48.5114C21.8824 45.7846 17.9683 46.3318 14.5273 50.0789C15.2682 51.244 15.8309 52.5132 16.1968 53.8445L20.2871 65.1322C20.614 65.8798 20.8176 66.6754 20.89 67.4881C21.2702 67.6736 21.6505 67.8406 22.0401 67.9982L29.423 71.1146C30.2501 71.4599 31.1514 71.5892 32.0422 71.4902C32.9329 71.3912 33.7839 71.0673 34.515 70.5489C38.0828 68.3635 41.3109 65.6667 44.096 62.5444C46.1678 60.1259 47.96 57.4813 49.4385 54.6608C49.9259 53.7399 50.0832 52.6798 49.884 51.6571C49.6849 50.6344 49.1414 49.7108 48.3441 49.0401Z" fill="white"/>
<path d="M13.6451 52.2313C13.5267 51.8348 13.3242 51.4685 13.0513 51.1574C12.7784 50.8463 12.4416 50.5977 12.0639 50.4287C11.6861 50.2596 11.2764 50.1741 10.8626 50.1779C10.4488 50.1816 10.0406 50.2747 9.66607 50.4506L6.7352 51.9716C6.00936 52.3983 5.45883 53.0691 5.18189 53.8642C4.90496 54.6593 4.91965 55.527 5.22336 56.3123L10.4081 70.6144C10.5238 71.0127 10.7248 71.3811 10.9972 71.6939C11.2695 72.0068 11.6067 72.2566 11.9853 72.426C12.3639 72.5955 12.7749 72.6805 13.1896 72.6751C13.6044 72.6698 14.013 72.5743 14.3871 72.3951L17.3087 70.8834C18.0448 70.4503 18.6006 69.7671 18.8748 68.9583C19.1489 68.1495 19.1231 67.2691 18.802 66.4777C18.3752 65.3089 13.9205 52.9691 13.6451 52.2313Z" fill="white"/>
</svg>
