<svg width="69" height="69" viewBox="0 0 69 69" fill="none" xmlns="http://www.w3.org/2000/svg">
<path d="M48.8537 24.6641C48.8355 27.828 48.2103 30.8504 47.0891 33.6213C49.3463 34.1645 51.4002 35.4044 52.9462 37.2029C53.6739 38.0494 53.5777 39.3257 52.731 40.0535C51.8845 40.7812 50.6085 40.6852 49.8803 39.8383C48.6742 38.4351 46.9844 37.5655 45.1663 37.3888C43.9936 39.2637 42.5735 40.9684 40.9508 42.4562H45.5034C46.6197 42.4562 47.5248 43.3613 47.5248 44.4777C47.5248 45.594 46.6197 46.4991 45.5034 46.4991H37.6476C38.5213 49.4453 41.2516 51.6014 44.4777 51.6014C46.5538 51.6014 48.5231 50.6958 49.8805 49.1169C50.6083 48.2705 51.8847 48.1741 52.7311 48.9017C53.5777 49.6295 53.6741 50.9058 52.9463 51.7523C50.82 54.2257 47.7333 55.6442 44.4777 55.6442C39.2195 55.6442 34.8014 51.9901 33.6222 47.0887C30.8511 48.2102 27.8283 48.8355 24.6641 48.8537C26.6706 57.9453 34.7917 64.7679 44.4777 64.7679C55.6659 64.7679 64.7679 55.6657 64.7679 44.4777C64.7679 34.7918 57.9453 26.6707 48.8537 24.6641Z" fill="white"/>
<path d="M44.815 24.5246C44.815 13.3364 35.7128 4.23438 24.5248 4.23438C13.3367 4.23438 4.23438 13.3366 4.23438 24.5246C4.23438 35.7127 13.3366 44.815 24.5246 44.815C35.7127 44.815 44.815 35.7128 44.815 24.5246ZM22.5032 35.0672V34.6657H20.4649C19.3485 34.6657 18.4434 33.7607 18.4434 32.6443C18.4434 31.5279 19.3485 30.6228 20.4649 30.6228H24.5246C25.6486 30.6228 26.5629 29.7085 26.5629 28.5845C26.5629 27.4606 25.6486 26.5462 24.5246 26.5462C21.1715 26.5462 18.4434 23.8182 18.4434 20.465C18.4434 17.8204 20.1409 15.5658 22.5032 14.7306V13.9824C22.5032 12.866 23.4083 11.9609 24.5246 11.9609C25.641 11.9609 26.5461 12.866 26.5461 13.9824V14.3838H28.5844C29.7008 14.3838 30.6058 15.2889 30.6058 16.4053C30.6058 17.5217 29.7008 18.4267 28.5844 18.4267H24.5246C23.4007 18.4267 22.4863 19.3411 22.4863 20.465C22.4863 21.589 23.4007 22.5033 24.5246 22.5033C27.8778 22.5033 30.6058 25.2313 30.6058 28.5845C30.6058 31.2291 28.9084 33.4837 26.5461 34.319V35.0673C26.5461 36.1837 25.641 37.0888 24.5246 37.0888C23.4083 37.0888 22.5032 36.1836 22.5032 35.0672Z" fill="white"/>
<path d="M25.7519 63.3926C18.4684 61.1893 11.853 55.6887 7.85709 48.6777L9.17494 49.121C10.2332 49.4774 11.3794 48.9078 11.7354 47.8495C12.0914 46.7913 11.5221 45.645 10.464 45.2891L4.6291 43.3266C3.5708 42.9711 2.42463 43.54 2.06859 44.5982L0.106028 50.4329C-0.249883 51.4912 0.319358 52.6374 1.37752 52.9934C1.59126 53.0652 1.8085 53.0993 2.02223 53.0993C2.86639 53.0993 3.65395 52.5662 3.93789 51.7218L4.30971 50.6166C6.18723 53.9242 8.60705 56.9815 11.4306 59.5935C15.3086 63.181 19.856 65.8327 24.5812 67.2622C24.7764 67.3212 24.9734 67.3492 25.1673 67.3492C26.0351 67.3492 26.8373 66.7859 27.1015 65.9125C27.4248 64.8442 26.8205 63.7159 25.7519 63.3926Z" fill="white"/>
<path d="M67.6235 16.0085C66.5658 15.6528 65.4192 16.2219 65.0631 17.2801L64.6909 18.3867C62.803 15.0606 60.3674 11.9871 57.5252 9.36639C53.6577 5.80055 49.1259 3.16336 44.4198 1.73958C43.351 1.41601 42.2228 2.02056 41.8996 3.0891C41.5764 4.15778 42.1806 5.28615 43.2491 5.60932C50.525 7.81041 57.1453 13.3146 61.1419 20.3235L59.8261 19.8809C58.7681 19.5247 57.6218 20.0942 57.2656 21.1524C56.9097 22.2106 57.4791 23.3569 58.5372 23.7128L64.3721 25.6755C64.5858 25.7473 64.8031 25.7814 65.0168 25.7814C65.8609 25.7814 66.6484 25.2483 66.9326 24.4038L68.895 18.569C69.2509 17.5107 68.6817 16.3644 67.6235 16.0085Z" fill="white"/>
</svg>
