<svg width="72" height="68" viewBox="0 0 72 68" fill="none" xmlns="http://www.w3.org/2000/svg">
<path d="M35.6231 0C34.8903 0.0151193 34.284 0.59796 34.2923 1.33084C34.2923 2.21981 33.8042 3.26705 33.0136 4.05759C32.223 4.84817 31.1758 5.3389 30.2868 5.3389C29.386 5.3641 28.9639 6.0163 28.9612 6.66713C28.9556 7.31802 29.3782 7.97021 30.279 7.99536C31.1679 7.99536 32.2152 8.48635 33.0057 9.27683C33.7963 10.0674 34.2845 11.1147 34.2845 12.0036C34.2765 12.7319 34.8757 13.3112 35.6023 13.3318H35.6285C36.3551 13.3116 36.9548 12.7319 36.9463 12.0036C36.9463 11.1147 37.4345 10.0674 38.2251 9.27683C39.0156 8.48629 40.0629 7.99536 40.9518 7.99536C41.8527 7.97016 42.2774 7.31802 42.2801 6.66713C42.2857 6.0163 41.8605 5.3641 40.9597 5.3389C40.0707 5.3389 39.0234 4.84807 38.2329 4.05759C37.4424 3.26705 36.9542 2.21981 36.9542 1.33084C36.9622 0.59796 36.356 0.013557 35.6231 0ZM7.61056 18.6681C6.87769 18.6832 6.2714 19.2661 6.27972 19.9989C6.27972 20.8879 5.79157 21.9351 5.00098 22.7257C4.21043 23.5162 3.16317 24.0071 2.27421 24.0071C1.37337 24.0323 0.95128 24.6845 0.948584 25.3354C0.94304 25.9863 1.36557 26.6384 2.2664 26.6636C3.15536 26.6636 4.20263 27.1544 4.99317 27.9449C5.78371 28.7355 6.27191 29.7827 6.27191 30.6717C6.26384 31.4 6.86309 31.9793 7.58973 31.9999H7.61593C8.34257 31.9797 8.94225 31.4 8.93375 30.6717C8.93375 29.7827 9.4219 28.7355 10.2125 27.9449C11.003 27.1544 12.0503 26.6636 12.9393 26.6636C13.8401 26.6384 14.2648 25.9863 14.2675 25.3354C14.2731 24.6845 13.8479 24.0323 12.9471 24.0071C12.0581 24.0071 11.0109 23.5162 10.2203 22.7257C9.42971 21.9351 8.94156 20.8879 8.94156 19.9989C8.94957 19.2661 8.34344 18.6817 7.61056 18.6681ZM63.6149 18.6681C62.882 18.6832 62.2757 19.2661 62.2841 19.9989C62.2841 20.8879 61.7959 21.9351 61.0053 22.7257C60.2148 23.5162 59.1675 24.0071 58.2785 24.0071C57.3777 24.0323 56.9556 24.6845 56.9529 25.3354C56.9474 25.9863 57.3699 26.6384 58.2707 26.6636C59.1597 26.6636 60.207 27.1544 60.9975 27.9449C61.788 28.7355 62.2762 29.7827 62.2762 30.6717C62.2682 31.4 62.8674 31.9793 63.5941 31.9999H63.6203C64.3469 31.9797 64.9466 31.4 64.9381 30.6717C64.9381 29.7827 65.4262 28.7355 66.2168 27.9449C67.0074 27.1544 68.0546 26.6636 68.9436 26.6636C69.8444 26.6384 70.2691 25.9863 70.2718 25.3354C70.2774 24.6845 69.8523 24.0323 68.9514 24.0071C68.0624 24.0071 67.0152 23.5162 66.2246 22.7257C65.4341 21.9351 64.9459 20.8879 64.9459 19.9989C64.954 19.2661 64.3478 18.6817 63.6149 18.6681ZM28.594 20.0015C27.9682 20.0615 27.5097 20.4632 27.3751 21.0068L24.6249 31.9999H46.6162L43.8738 21.0068C43.7237 20.4158 43.1918 20.0019 42.582 20.0015H28.594ZM16.5956 36.0029C15.9699 36.0629 15.5114 36.4645 15.3768 37.0081L12.2906 49.3345H34.946L31.8755 37.0081C31.7253 36.4171 31.1909 36.0032 30.5811 36.0029H16.5956ZM40.5975 36.0029C39.9718 36.0629 39.5132 36.4645 39.3786 37.0081L36.2951 49.3345H58.9505L55.8773 37.0081C55.7272 36.4171 55.1953 36.0032 54.5855 36.0029H40.5975ZM4.59469 52.0041C3.96898 52.064 3.51045 52.4657 3.37585 53.0093L0.0396633 66.3463C-0.167824 67.1851 0.464817 67.9965 1.32881 68H21.9111C22.7751 67.996 23.4078 67.1851 23.2003 66.3463L19.8745 53.0093C19.7244 52.4183 19.1925 52.0044 18.5828 52.0041H4.59469ZM28.5966 52.0041C27.9708 52.064 27.5123 52.4657 27.3777 53.0093L24.0415 66.3463C23.834 67.1851 24.4667 67.9965 25.3307 68H45.913C46.777 67.996 47.4096 67.1851 47.2022 66.3463L43.8764 53.0093C43.7262 52.4183 43.1944 52.0044 42.5846 52.0041H28.5966ZM52.5984 52.0041C51.9727 52.064 51.5142 52.4657 51.3796 53.0093L48.0434 66.3463C47.8359 67.1851 48.4685 67.9965 49.3325 68H69.9149C70.7788 67.996 71.4115 67.1851 71.204 66.3463L67.8782 53.0093C67.7281 52.4183 67.1963 52.0044 66.5865 52.0041H52.5984Z" fill="white"/>
</svg>
