<svg width="68" height="68" viewBox="0 0 68 68" fill="none" xmlns="http://www.w3.org/2000/svg">
<path d="M64.2707 4.28009C64.3538 3.69918 63.9502 3.16099 63.3692 3.07801L53.9028 1.72566C53.3219 1.64268 52.7837 2.04632 52.7007 2.62722C52.6177 3.20813 53.0214 3.74632 53.6023 3.8293L60.5293 4.81888L48.9594 13.4965C48.5868 13.7758 48.0758 13.78 47.6987 13.507L34.6506 4.05833C33.6524 3.3356 32.3272 3.25289 31.247 3.84593L5.33261 18.0735C4.81823 18.3559 4.63018 19.0018 4.91258 19.5162C5.19498 20.0305 5.84091 20.2186 6.35529 19.9362L32.2697 5.70866C32.6298 5.51098 33.0715 5.53855 33.4042 5.77947L46.4524 15.2281C47.5837 16.0474 49.1168 16.0346 50.2344 15.1965L61.8043 6.51888L60.8148 13.446C60.7318 14.0269 61.1355 14.565 61.7164 14.648C62.2972 14.731 62.8355 14.3273 62.9185 13.7465L64.2707 4.28009Z" fill="white"/>
<path d="M30.8125 15.2852C29.052 15.2852 27.625 16.7123 27.625 18.4727V34.4102C27.625 36.1706 29.052 37.5977 30.8125 37.5977H35.0625C36.823 37.5977 38.25 36.1706 38.25 34.4102V18.4727C38.25 16.7123 36.823 15.2852 35.0625 15.2852H30.8125Z" fill="white"/>
<path d="M17 20.5977C15.2395 20.5977 13.8125 22.0248 13.8125 23.7852V34.4102C13.8125 36.1706 15.2395 37.5977 17 37.5977H21.25C23.0105 37.5977 24.4375 36.1706 24.4375 34.4102V23.7852C24.4375 22.0248 23.0105 20.5977 21.25 20.5977H17Z" fill="white"/>
<path d="M41.4375 25.9102C41.4375 24.1498 42.8645 22.7227 44.625 22.7227H48.875C50.6355 22.7227 52.0625 24.1498 52.0625 25.9102V34.4102C52.0625 36.1706 50.6355 37.5977 48.875 37.5977H44.625C42.8645 37.5977 41.4375 36.1706 41.4375 34.4102V25.9102Z" fill="white"/>
<path d="M58.4375 20.5977C56.677 20.5977 55.25 22.0248 55.25 23.7852V34.4102C55.25 36.1706 56.677 37.5977 58.4375 37.5977H62.6875C64.448 37.5977 65.875 36.1706 65.875 34.4102V23.7852C65.875 22.0248 64.448 20.5977 62.6875 20.5977H58.4375Z" fill="white"/>
<path d="M2.125 43.1227C2.125 40.0035 4.81157 37.5977 7.96875 37.5977C9.36399 37.5977 10.6673 38.0676 11.6875 38.8612V60.7717C10.6673 61.5653 9.36399 62.0352 7.96875 62.0352C4.81157 62.0352 2.125 59.6294 2.125 56.5102V43.1227Z" fill="white"/>
<path d="M13.8125 60.8815L25.9588 65.1756C27.4539 65.906 29.0944 66.2856 30.7572 66.2853H34.8773C37.2355 66.2857 39.5665 65.7804 41.7153 64.8032L62.3805 57.2758C62.4058 57.2667 62.4307 57.2565 62.4551 57.2454C63.157 56.9276 63.7517 56.4134 64.1693 55.7652C64.5868 55.1172 64.8098 54.3625 64.8125 53.5914V53.5763C64.8058 52.9496 64.655 52.3328 64.3718 51.7741C64.0885 51.2154 63.6802 50.7296 63.1783 50.3555C62.6762 49.9815 62.0943 49.7295 61.4783 49.6198C60.8858 49.5144 60.2778 49.5437 59.6987 49.705L46.6887 51.8542C46.2822 51.9213 45.9097 52.1134 45.5754 52.3542C45.2868 52.5621 44.9893 52.7389 44.6742 52.9262C44.4328 53.0697 44.1812 53.2193 43.9154 53.3935C43.8253 53.4527 43.7354 53.5116 43.646 53.5704C43.4875 53.6748 43.304 53.7348 43.1145 53.7443L32.9175 54.2514C32.3314 54.2806 31.8327 53.8292 31.8036 53.2431C31.7744 52.657 32.2258 52.1582 32.8119 52.129L42.1417 51.6649C42.5202 51.6461 42.8873 51.5271 43.2031 51.3176C43.9005 50.8545 44.4609 50.4613 44.8888 50.0454C45.4137 49.5351 45.6312 49.0915 45.6324 48.5593C45.6291 48.2432 45.5534 47.7577 45.3997 47.2833C45.2366 46.7805 45.0413 46.4623 44.9065 46.3398C44.4321 45.9085 43.7747 45.656 43.0757 45.6609H43.0581L34.8743 45.5831L32.8888 45.6601C32.6118 45.6709 32.0021 45.4619 31.8063 45.2955C31.5456 45.1866 31.3083 45.0268 31.1079 44.8248C28.5438 42.2394 25.0644 40.7853 21.4344 40.7853L13.8125 40.7852V60.8815Z" fill="white"/>
</svg>
