<svg width="67" height="67" viewBox="0 0 67 67" fill="none" xmlns="http://www.w3.org/2000/svg">
<path d="M0 45.895V63.3847C0 64.4817 0.888923 65.3696 1.98487 65.3696H10.1166V43.9102H1.98487C0.888923 43.9102 0 44.7991 0 45.895Z" fill="white"/>
<path d="M43.5361 35.428C43.5361 36.5817 42.6012 37.5166 41.4475 37.5166C40.2943 37.5166 39.3594 36.5817 39.3594 35.428C39.3594 34.2748 40.2943 33.3398 41.4475 33.3398C42.6012 33.3398 43.5361 34.2748 43.5361 35.428Z" fill="white"/>
<path d="M6.10261 30.0853H15.4805V38.7992C15.4606 38.8058 15.4412 38.8119 15.4212 38.8186C16.4574 38.4868 17.6177 38.3095 18.8772 38.3095C20.3668 38.5144 26.874 37.2442 29.7253 41.9587C30.1976 42.7393 30.9925 43.2049 31.8502 43.2049H38.4627C42.5602 43.2049 45.5163 47.2718 44.1627 51.1674C48.4228 50.6961 50.6817 49.0358 54.815 47.3275V30.0853H64.1919C66.0413 30.0853 66.8827 27.7712 65.4683 26.5817L54.815 17.6255V3.68694C54.815 2.58997 53.9256 1.70207 52.8301 1.70207H45.1007C44.0038 1.70207 43.1159 2.58997 43.1159 3.68694V7.79214L36.4241 2.16621C35.687 1.54616 34.6085 1.54616 33.8703 2.16621L4.82571 26.5817C3.41386 27.7681 4.25269 30.0853 6.10261 30.0853ZM47.5094 35.4265C47.5114 38.7644 44.8094 41.4833 41.4525 41.4833C38.1141 41.4848 35.3957 38.7833 35.3957 35.4265C35.3957 32.086 38.1125 29.3696 41.4525 29.3696C44.8037 29.3696 47.5114 32.0844 47.5094 35.4265ZM40.0678 21.3949C40.8432 20.6194 42.1002 20.6194 42.8751 21.3949C43.6505 22.1703 43.6505 23.4273 42.8751 24.2027L30.2267 36.8501C29.4513 37.6255 28.1969 37.6265 27.4204 36.8501C26.645 36.0762 26.645 34.8192 27.4204 34.0438L40.0678 21.3949ZM28.8466 16.7616C32.1942 16.7616 34.9075 19.4749 34.9075 22.8226C34.9075 26.1702 32.1942 28.8835 28.8466 28.8835C25.4989 28.8835 22.7856 26.1702 22.7856 22.8226C22.7856 19.4749 25.4989 16.7616 28.8466 16.7616Z" fill="white"/>
<path d="M65.5883 46.8179L51.1667 53.3302C48.297 54.6055 45.2616 55.2486 42.1343 55.2486H27.1581C26.0626 55.2486 25.1732 54.3607 25.1732 53.2642C25.1732 52.1683 26.0626 51.2793 27.1581 51.2793H38.461C39.5948 51.2793 40.5134 50.3557 40.5134 49.227C40.5134 48.0958 39.5923 47.1752 38.461 47.1752H31.8486C29.5897 47.1752 27.5256 45.9939 26.3284 44.0141C24.9805 41.7885 21.2433 42.361 18.8756 42.2797C17.4356 42.2797 14.0859 42.6314 14.0859 45.8972V65.3743H40.9607C44.8875 65.3743 48.756 64.329 52.1496 62.3523L64.2322 55.3135C67.2997 53.5265 67.9146 49.4146 65.5883 46.8179Z" fill="white"/>
<path d="M28.5698 24.888C29.9351 25.0603 31.0837 23.9122 30.9115 22.5464C30.7944 21.616 30.043 20.8651 29.1127 20.7475C27.7473 20.5758 26.5992 21.7239 26.771 23.0892C26.888 24.0195 27.6395 24.771 28.5698 24.888Z" fill="white"/>
</svg>
